<svg xmlns="http://www.w3.org/2000/svg" height="512" viewBox="-18 -42 591 590" width="512">
  <path d="M546 102L281-1h-9L8 102a12 12 0 0 0 0 24l264 103h9l265-103a12 12 0 0 0 0-24zM277 204L47 114l230-89 230 89zm0 0" fill="#2643e9"/>
  <path d="M546 240l-111-45a12 12 0 1 0-10 24l82 32-230 90-231-90 85-34a12 12 0 1 0-9-23L8 240a12 12 0 0 0 0 23l264 103h9l265-103a12 12 0 0 0 0-23zm0 0" fill="#2643e9"/>
  <path d="M546 378l-108-43a12 12 0 1 0-10 23l79 31-230 90-231-90 85-34a12 12 0 1 0-10-23L8 378a12 12 0 0 0 0 23l264 103h9l265-103a12 12 0 0 0 0-23zm0 0" fill="#2643e9"/>
</svg>
