<svg xmlns="http://www.w3.org/2000/svg" version="1" width="512" height="512">
  <g fill="#1aae6f">
    <path d="M373 318l4-5c3-3 9-5 16-7 11-4 23-7 29-18s4-23 1-34c-2-7-3-14-2-18s6-9 10-13c8-9 17-18 17-31s-9-22-17-31c-4-4-9-9-10-13s0-11 2-18c3-11 5-23-1-34s-18-15-29-18c-7-2-13-4-16-7s-5-9-7-16c-3-11-7-23-18-29s-23-4-34-1c-7 2-14 3-18 2s-9-6-13-10c-9-8-18-17-31-17s-22 9-31 17c-4 4-9 9-13 10s-11 0-18-2c-11-3-23-5-34 1s-15 18-18 29c-2 7-4 13-7 16s-9 5-16 7c-11 4-23 7-29 18s-4 23-1 34c2 7 3 14 2 18s-6 9-10 13c-8 9-17 18-17 31s9 22 17 31c4 4 9 9 10 13s0 11-2 18c-3 11-5 23 1 34s18 15 29 18c7 2 13 4 16 7l4 5-74 179a11 11 0 0 0 14 14l80-40 59 39c3 2 6 2 9 1s6-3 7-6l23-62 21 62c1 3 3 5 7 6 3 1 6 1 9-1l59-39 80 40a11 11 0 0 0 14-14l-74-179zm-127 94l-27 73-53-35c-3-2-7-3-11-1l-60 30 55-132c2 5 5 9 10 11 11 6 23 4 34 1 7-2 14-3 18-2s9 6 13 10l10 8v2l12 34-1 1zm10-49c-4 0-10-6-16-11-7-7-14-13-23-16l-8-1c-7 0-13 2-20 3-7 2-15 4-18 2-4-2-6-10-8-17-3-9-6-19-13-25-6-7-16-10-25-13-7-2-15-4-17-8-2-3 0-11 2-18 2-9 4-19 2-28-3-9-9-16-16-23-5-6-11-12-11-16s6-10 11-16c7-7 13-14 16-23 2-9 0-18-2-28-2-7-4-15-2-18 2-4 10-6 17-8 9-3 19-6 25-13 7-6 10-16 13-25 2-7 4-15 8-17 3-2 11 0 18 2 9 2 19 4 28 2 9-3 16-9 23-16 6-5 12-11 16-11s10 6 16 11c7 7 14 13 23 16 9 2 19 0 28-2 7-2 15-4 18-2 4 2 6 10 8 17 3 9 6 19 13 25 6 7 16 10 25 13 7 2 15 4 17 8 2 3 0 11-2 18-2 10-4 19-2 28 3 9 9 16 16 23 5 6 11 12 11 16s-6 10-11 16c-7 7-13 14-16 23-2 9 0 19 2 28 2 7 4 15 2 18-2 4-10 6-17 8-9 3-19 6-25 13-7 6-10 16-13 25-2 7-4 15-8 17-3 2-11 0-18-2-9-2-19-4-28-2-9 3-16 9-23 16-6 5-12 11-16 11zm101 86c-4-2-8-1-11 1l-52 35-34-102c11-1 19-9 27-16 4-4 9-9 13-10s11 0 18 2c11 3 23 5 34-1 5-2 8-6 10-11l55 132-60-30z"/>
    <path d="M384 192a128 128 0 1 0-256 0 128 128 0 0 0 256 0zM256 299a107 107 0 1 1 0-214 107 107 0 0 1 0 214z"/>
  </g>
</svg>
