<svg xmlns="http://www.w3.org/2000/svg" height="512" width="512">
  <path d="M461 171c0-21-4-42-10-62l-16 5c17 55 8 115-24 163l14 10c23-35 36-75 36-116zm0 0M150 16L140 2a205 205 0 0 0-79 231l16-5c-25-79 5-165 73-212zm0 0M91 261l-8-17-16 7 9 18zm0 0M234 163c-7-4-12-11-12-20V94a34 34 0 0 1 68 0v49c0 9-5 16-12 20-3 2-5 5-5 8v17c0 4 3 7 6 8l43 11c11 3 19 13 19 25v41h17v-41c0-20-13-37-32-42l-36-9v-5c11-8 17-20 17-33V94a51 51 0 0 0-102 0v49c0 13 6 25 17 33v5l-36 9c-19 5-32 22-32 42v41h17v-41c0-12 8-22 19-25l42-11c4-1 7-4 7-8v-17c0-3-2-6-5-8zm0 0" fill="#ff3709"/>
  <path d="M188 248h17v42h-17zm0 0M307 248h17v42h-17zm0 0M17 495c0-12 8-22 19-25l43-10c4-1 6-5 6-9v-17c0-3-2-6-4-7-8-4-13-12-13-20v-50a34 34 0 0 1 68 0v50c1 8-4 16-12 20-3 1-5 4-5 7v17c0 4 3 8 7 9l42 10c12 3 20 13 20 25v17h17v-17c0-20-14-37-33-41l-36-9v-6c11-7 18-19 18-32v-50a51 51 0 1 0-103 0v50c0 13 7 25 17 32v6l-36 9c-19 4-32 21-32 41v17h17v-17zm0 0M479 454l-35-9v-6c10-7 17-19 17-32v-50a51 51 0 0 0-103 0v50c0 13 7 25 17 32v6l-36 9c-19 4-32 21-32 41v17h17v-17c0-12 8-22 20-25l42-10c4-1 6-5 6-9v-17c0-3-1-6-4-7-8-4-13-12-13-20v-50a34 34 0 1 1 69 0v50c0 8-5 16-13 20-3 1-5 4-5 7v17c0 4 3 8 7 9l42 10c12 3 20 13 20 25v17h17v-17c0-20-14-37-33-41zm0 0" fill="#ff3709"/>
  <path d="M427 171a171 171 0 1 0-197 168v19c-4 0-8 4-8 9v111a34 34 0 0 0 68 0V367c0-5-4-9-9-9v-19c84-12 145-84 146-168zm-325 0a154 154 0 1 1 307 0 154 154 0 0 1-307 0zm171 307a17 17 0 1 1-34 0V376h34zm-9-120h-17v-17h17zm0 0" fill="#ff3709"/>
</svg>
