<svg xmlns="http://www.w3.org/2000/svg" version="1" width="512" height="512">
  <path d="M478 163l-47-81c-5-9-17-14-27-10l-53 22c-10-8-21-14-32-19l-8-56c-1-11-11-19-22-19h-94c-11 0-20 8-22 19l-8 56c-10 5-21 11-31 19L81 72c-11-4-22 1-28 10L6 163c-5 10-3 22 6 29l45 35a181 181 0 0 0 0 37l-45 35c-9 6-11 18-6 28l47 81c5 10 17 14 28 10l53-21c10 7 20 13 31 18l8 56c2 11 11 20 22 20h74a11 11 0 0 0 9-17 138 138 0 0 1-20-119 11 11 0 0 0-10-13h-6a96 96 0 0 1 0-192c53 0 97 43 96 98v3c0 4 1 7 4 9s6 3 10 2c21-6 41-8 64-4 3 1 6 0 9-2l4-8v-3l-1-18 45-35c8-7 11-19 5-29zm-68 51c-3 2-4 6-4 10l1 12c-16-2-32-1-47 2a118 118 0 1 0-125 125 159 159 0 0 0 15 106h-56l-8-63c-1-3-4-6-7-8-13-5-26-12-37-21a11 11 0 0 0-11-2l-59 23-47-83 50-38c2-3 4-6 4-10a173 173 0 0 1 0-43c0-4-2-8-4-10l-50-40 48-82 58 24c4 1 8 0 11-2 12-9 24-16 37-21 3-2 6-5 6-9l10-63 95 1 9 62c1 4 3 7 7 9 13 5 25 12 37 21 3 2 7 3 10 2l60-23 47 82-50 39z" fill="#00a3bf"/>
  <path d="M391 277a117 117 0 1 0 1 235 117 117 0 0 0-1-235zm0 214a96 96 0 1 1 1-193 96 96 0 0 1-1 193z" fill="#00a3bf"/>
  <path d="M452 355c-4-4-11-4-15 0l-67 67-35-35a11 11 0 0 0-15 15l42 43a11 11 0 0 0 15 0l75-75c4-4 4-11 0-15z" fill="#00a3bf"/>
</svg>
