<?xml version="1.0" encoding="utf-8"?>
<!-- Generator: Adobe Illustrator 23.0.1, SVG Export Plug-In . SVG Version: 6.00 Build 0)  -->
<svg version="1.1" id="Layer_1" xmlns="http://www.w3.org/2000/svg" xmlns:xlink="http://www.w3.org/1999/xlink" x="0px" y="0px"
	 viewBox="0 0 500 250" style="enable-background:new 0 0 500 250;" xml:space="preserve">
<style type="text/css">
	.st0{fill:url(#SVGID_1_);}
	.st1{fill:#00FBDE;}
	.st2{fill:#BFFDFF;}
	.st3{fill:#00B0DE;}
	.st4{fill:#008ED9;}
	.st5{fill:#48FCFF;}
	.st6{fill:none;stroke:#00FCFF;stroke-width:0.25;stroke-miterlimit:10;}
	.st7{fill:#CCFDFF;}
	.st8{fill:#92FCFF;}
	.st9{fill:#00E6D4;}
	.st10{fill:#FFFFFF;}
	.st11{fill:#022DCC;}
	.st12{fill:#00D7D4;}
	.st13{fill:url(#SVGID_2_);}
	.st14{fill:#FFFFFF;stroke:#00FCFF;stroke-width:0.25;stroke-miterlimit:10;}
	.st15{opacity:0.32;fill:#FFFFFF;enable-background:new    ;}
	.st16{opacity:0.83;}
	.st17{opacity:0.22;fill:#00FBDE;enable-background:new    ;}
	.st18{opacity:0.32;fill:#00C8FC;enable-background:new    ;}
	.st19{fill:#00E2EF;}
	.st20{fill:#00A2FF;}
	.st21{fill:#0438FF;}
	.st22{fill:#022CC6;}
	.st23{fill:#00CBFF;}
	.st24{fill:#00FCFF;}
	.st25{fill:url(#SVGID_3_);}
	.st26{fill:url(#SVGID_4_);}
	.st27{fill:url(#SVGID_5_);}
	.st28{fill:url(#SVGID_6_);}
	.st29{opacity:0.67;fill:#00C8FC;enable-background:new    ;}
	.st30{fill:#00FBF0;}
</style>
<g>
	
		<radialGradient id="SVGID_1_" cx="-8.2" cy="-703.4" r="200" gradientTransform="matrix(1.25 0 0 -0.625 260.25 -314.625)" gradientUnits="userSpaceOnUse">
		<stop  offset="0" style="stop-color:#3399FF"/>
		<stop  offset="0.2823" style="stop-color:#3390F6"/>
		<stop  offset="0.7501" style="stop-color:#3376DC"/>
		<stop  offset="1" style="stop-color:#3366CC"/>
	</radialGradient>
	<rect class="st0" width="500" height="250"/>
</g>
<g>
	<g>
		<circle class="st1" cx="250.2" cy="115.1" r="15.8"/>
		<path class="st2" d="M250.2,99.4c8.7,0,15.8,7.1,15.8,15.8c0,0,0,0,0-0.1C266,106.4,258.9,99.3,250.2,99.4
			c-8.7-0.1-15.8,7-15.8,15.7c0,0,0,0,0,0.1C234.4,106.4,241.5,99.4,250.2,99.4z"/>
		<circle class="st3" cx="250.2" cy="115.1" r="14.4"/>
		<path class="st4" d="M264.6,115.3l-6.2-6.2l-8.6,1.3l-5.6,11.7l7.4,7.4C258.9,128.7,264.5,122.7,264.6,115.3z"/>
		<path class="st5" d="M250.2,100.8c7.9,0,14.4,6.4,14.4,14.3V115c0-8-6.5-14.4-14.4-14.4s-14.4,6.5-14.4,14.4v0.1
			C235.9,107.2,242.3,100.8,250.2,100.8z"/>
		<g>
			<polyline class="st6" points="251.9,102.7 252.3,105 254.6,105 258.3,106.1 261.6,110.8 260.3,114.4 263.2,116.3 260.7,117.7 
				260.6,121.1 258,124.1 254.8,126.9 251.3,128.3 252.3,126.7 			"/>
			<polyline class="st6" points="254.8,126.9 257.9,128.3 258,124.2 262.3,123.9 260.6,121.1 256.9,116.3 260.7,117.7 260.3,114.5 
				258.3,106.1 255.3,109.1 254.4,105 256.3,101.2 252,102.7 260.2,104.1 261.6,110.8 263.3,116.1 264.6,120.4 254.8,117.9 
				252.3,126.5 255,129 260.4,126.7 252.5,122.8 256.2,119.8 257.6,122.3 			"/>
			<g>
				<g>
					<circle class="st6" cx="261.6" cy="110.8" r="0.7"/>
					<circle class="st1" cx="261.6" cy="110.8" r="0.5"/>
					<circle class="st7" cx="261.6" cy="110.8" r="0.3"/>
				</g>
				<g>
					<circle class="st6" cx="260.6" cy="121.1" r="0.7"/>
					<circle class="st1" cx="260.6" cy="121.1" r="0.5"/>
					<circle class="st7" cx="260.6" cy="121.1" r="0.3"/>
				</g>
				<g>
					<circle class="st6" cx="258.3" cy="106.1" r="0.7"/>
					<circle class="st1" cx="258.3" cy="106.1" r="0.5"/>
					<circle class="st7" cx="258.3" cy="106.1" r="0.3"/>
				</g>
				<g>
					<circle class="st6" cx="252.3" cy="105" r="0.7"/>
					<circle class="st1" cx="252.3" cy="105" r="0.5"/>
					<circle class="st7" cx="252.3" cy="105" r="0.3"/>
				</g>
				<g>
					<circle class="st6" cx="254.8" cy="126.9" r="0.7"/>
					<path class="st1" d="M254.8,126.4c0.3,0,0.5,0.2,0.5,0.5s-0.2,0.5-0.5,0.5s-0.5-0.2-0.5-0.5S254.5,126.4,254.8,126.4z"/>
					<circle class="st7" cx="254.8" cy="126.9" r="0.3"/>
				</g>
				<g>
					<circle class="st6" cx="251.3" cy="128.3" r="0.7"/>
					<circle class="st1" cx="251.3" cy="128.3" r="0.5"/>
					<circle class="st7" cx="251.3" cy="128.3" r="0.3"/>
				</g>
				<g>
					<circle class="st6" cx="260.7" cy="117.6" r="0.4"/>
					<circle class="st1" cx="260.7" cy="117.6" r="0.2"/>
					<circle class="st7" cx="260.7" cy="117.6" r="0.1"/>
				</g>
				<g>
					<circle class="st6" cx="263.2" cy="116.1" r="0.4"/>
					<circle class="st1" cx="263.2" cy="116.1" r="0.2"/>
					<circle class="st7" cx="263.2" cy="116.1" r="0.1"/>
				</g>
				<g>
					<circle class="st6" cx="254.4" cy="105" r="0.4"/>
					<circle class="st1" cx="254.4" cy="105" r="0.2"/>
					<circle class="st7" cx="254.4" cy="105" r="0.1"/>
				</g>
				<g>
					<circle class="st6" cx="251.9" cy="102.7" r="0.4"/>
					<circle class="st1" cx="251.9" cy="102.7" r="0.2"/>
					<circle class="st7" cx="251.9" cy="102.7" r="0.1"/>
				</g>
				<g>
					<circle class="st6" cx="260.3" cy="114.4" r="0.4"/>
					<circle class="st1" cx="260.3" cy="114.4" r="0.2"/>
					<circle class="st7" cx="260.3" cy="114.4" r="0.1"/>
				</g>
				<g>
					<circle class="st6" cx="258" cy="124.1" r="0.4"/>
					<circle class="st1" cx="258" cy="124.1" r="0.2"/>
					<circle class="st7" cx="258" cy="124.1" r="0.1"/>
				</g>
				<g>
					<circle class="st6" cx="252.3" cy="126.5" r="0.4"/>
					<circle class="st1" cx="252.3" cy="126.5" r="0.2"/>
					<circle class="st7" cx="252.3" cy="126.5" r="0.1"/>
				</g>
			</g>
		</g>
		<g>
			<polyline class="st6" points="248.5,102.5 248.1,104.9 245.8,104.9 242.1,105.9 238.8,110.6 240.1,114.2 237.2,116.1 
				239.7,117.5 239.8,120.9 242.3,123.9 245.6,126.7 249.1,128.1 248.1,126.5 			"/>
			<polyline class="st6" points="245.6,126.7 242.5,128.1 242.3,124.1 238.1,123.7 239.8,120.9 243.5,116.1 239.7,117.5 
				240.1,114.3 242.1,105.9 245.1,108.9 245.9,104.9 244.1,101 248.3,102.5 240.2,104 238.8,110.6 237,116 235.7,120.2 245.6,117.7 
				248.1,126.4 245.3,128.8 240,126.5 247.9,122.6 244.2,119.6 242.8,122.1 			"/>
			<g>
				<g>
					<circle class="st6" cx="238.8" cy="110.6" r="0.7"/>
					<circle class="st1" cx="238.8" cy="110.6" r="0.5"/>
					<circle class="st7" cx="238.8" cy="110.6" r="0.3"/>
				</g>
				<g>
					<circle class="st6" cx="239.8" cy="120.9" r="0.7"/>
					<circle class="st1" cx="239.8" cy="120.9" r="0.5"/>
					<circle class="st7" cx="239.8" cy="120.9" r="0.3"/>
				</g>
				<g>
					<circle class="st6" cx="242.1" cy="105.9" r="0.7"/>
					<circle class="st1" cx="242.1" cy="105.9" r="0.5"/>
					<circle class="st7" cx="242.1" cy="105.9" r="0.3"/>
				</g>
				<g>
					<circle class="st6" cx="248.1" cy="104.9" r="0.7"/>
					<circle class="st1" cx="248.1" cy="104.9" r="0.5"/>
					<circle class="st7" cx="248.1" cy="104.9" r="0.3"/>
				</g>
				<g>
					<circle class="st6" cx="245.6" cy="126.7" r="0.7"/>
					<circle class="st1" cx="245.6" cy="126.7" r="0.5"/>
					<circle class="st7" cx="245.6" cy="126.7" r="0.3"/>
				</g>
				<g>
					<circle class="st6" cx="249.1" cy="128.1" r="0.7"/>
					<circle class="st1" cx="249.1" cy="128.1" r="0.5"/>
					<circle class="st7" cx="249.1" cy="128.1" r="0.3"/>
				</g>
				<g>
					<circle class="st6" cx="239.7" cy="117.4" r="0.4"/>
					<circle class="st1" cx="239.7" cy="117.4" r="0.2"/>
					<circle class="st7" cx="239.7" cy="117.4" r="0.1"/>
				</g>
				<g>
					<circle class="st6" cx="237.2" cy="116" r="0.4"/>
					<circle class="st1" cx="237.2" cy="116" r="0.2"/>
					<circle class="st7" cx="237.2" cy="116" r="0.1"/>
				</g>
				<g>
					<circle class="st6" cx="245.9" cy="104.9" r="0.4"/>
					<circle class="st1" cx="245.9" cy="104.9" r="0.2"/>
					<circle class="st7" cx="245.9" cy="104.9" r="0.1"/>
				</g>
				<g>
					<circle class="st6" cx="248.5" cy="102.5" r="0.4"/>
					<circle class="st1" cx="248.5" cy="102.5" r="0.2"/>
					<circle class="st7" cx="248.5" cy="102.5" r="0.1"/>
				</g>
				<g>
					<circle class="st6" cx="240.1" cy="114.2" r="0.4"/>
					<circle class="st1" cx="240.1" cy="114.2" r="0.2"/>
					<circle class="st7" cx="240.1" cy="114.2" r="0.1"/>
				</g>
				<g>
					<circle class="st6" cx="242.3" cy="123.9" r="0.4"/>
					<circle class="st1" cx="242.3" cy="123.9" r="0.2"/>
					<circle class="st7" cx="242.3" cy="123.9" r="0.1"/>
				</g>
				<g>
					<circle class="st6" cx="248.1" cy="126.4" r="0.4"/>
					<circle class="st1" cx="248.1" cy="126.4" r="0.2"/>
					<circle class="st7" cx="248.1" cy="126.4" r="0.1"/>
				</g>
			</g>
		</g>
		<g>
			<g>
				<path class="st1" d="M258,108.8l-7.5-3l0,0h-0.1h-0.1h-0.1h-0.1H250h-0.1l0,0l-7.5,3c-0.3,0.1-0.5,0.4-0.5,0.7v6.8v0.1
					c1,7.6,8.1,9.3,8.1,9.3l0,0c0.1,0,0.1,0,0.2,0c0.1,0,0.1,0,0.2,0l0,0c0.1,0,7.2-1.7,8.1-9.3v-0.1v-6.8
					C258.5,109.2,258.3,108.9,258,108.8z"/>
				<path class="st8" d="M257.8,109.4l-7.5-3h-0.1l-7.5,3c-0.1,0-0.1,0.1-0.1,0.2v6.8l0,0c0.9,7.2,7.6,8.8,7.7,8.8l0,0l0,0
					c0.1,0,6.8-1.6,7.7-8.8l0,0v-6.9C257.9,109.5,257.9,109.4,257.8,109.4z"/>
				<path class="st9" d="M257.8,109.4l-7.5-3h-0.1l-7.5,3c-0.1,0-0.1,0.1-0.1,0.2v6.8l0,0c0.9,7.2,7.6,8.8,7.7,8.8l0,0l0,0
					c0.1,0,6.8-1.6,7.7-8.8l0,0v-6.9C257.9,109.5,257.9,109.4,257.8,109.4z"/>
				<path class="st10" d="M258,108.8l-7.5-3l0,0h-0.1h-0.1h-0.1h-0.1H250h-0.1l0,0l-7.5,3c-0.3,0.1-0.5,0.4-0.5,0.7v0.1
					c0-0.3,0.2-0.6,0.5-0.7l7.5-3l0,0h0.1h0.1h0.1h0.1h0.1h0.1l0,0L258,108.8c0.3,0.2,0.5,0.5,0.5,0.8v-0.1
					C258.5,109.2,258.3,108.9,258,108.8z"/>
				<path class="st11" d="M250.2,106.8l-7.4,2.9v6.6c0.9,7,7.4,8.5,7.4,8.5s6.5-1.5,7.4-8.5v-6.6L250.2,106.8z"/>
			</g>
			<path class="st1" d="M252.7,115c0.6-0.5,1-1.3,1-2.1c0-1.6-1.3-2.8-2.8-2.8l0,0v-0.6h-1.4v0.6H249v-0.6h-1.4v0.6h-0.7v1.4h0.7
				v2.8h-0.7l0,0v1.4l0,0h0.7v2.8h-0.7v1.4h0.7v0.7h1.4v-0.7h0.5v0.7h1.4v-0.7l0,0c1.6,0,2.8-1.3,2.8-2.8
				C253.7,116.3,253.3,115.6,252.7,115z M248.9,111.5h2c0.8,0,1.4,0.6,1.4,1.4s-0.6,1.4-1.4,1.4h-2V111.5z M250.9,118.6h-2v-2.8h2
				c0.8,0,1.4,0.6,1.4,1.4S251.6,118.6,250.9,118.6z"/>
			<path class="st12" d="M246.8,115.7L246.8,115.7h0.7v2.8h-0.7v1.4h0.7v0.7h1.4v-0.7h0.5v0.7h1.4v-0.7l0,0c1.6,0,2.8-1.3,2.8-2.8
				c0-0.8-0.4-1.6-1-2.1h-6v0.7H246.8z M248.9,115.8h2c0.8,0,1.4,0.6,1.4,1.4s-0.6,1.4-1.4,1.4h-2V115.8z"/>
			<g>
				<path class="st10" d="M250.9,114.4c0.8,0,1.4-0.6,1.4-1.4l0,0C252.2,113.7,251.6,114.3,250.9,114.4l-2-0.1v0.1H250.9z"/>
				<rect x="248.9" y="110.1" class="st10" width="0.5" height="0.1"/>
				<path class="st10" d="M250.8,110.1L250.8,110.1c1.6,0,2.8,1.3,2.9,2.8l0,0C253.7,111.3,252.4,110.1,250.8,110.1L250.8,110.1
					L250.8,110.1z"/>
				<path class="st10" d="M252.3,117.2L252.3,117.2c0,0.7-0.6,1.3-1.4,1.3h-2v0.1h2C251.6,118.7,252.3,118,252.3,117.2z"/>
				<rect x="249.4" y="109.4" class="st10" width="1.4" height="0.1"/>
				<rect x="247.4" y="109.4" class="st10" width="1.4" height="0.1"/>
				<path class="st10" d="M252.7,115.1L252.7,115.1c0.6,0.5,0.9,1.3,0.9,2.1l0,0C253.7,116.3,253.3,115.6,252.7,115.1z"/>
				<rect x="246.8" y="118.6" class="st10" width="0.7" height="0.1"/>
				<polygon class="st10" points="247.4,114.3 246.8,114.3 246.8,114.3 246.8,114.4 247.4,114.4 				"/>
				<rect x="246.8" y="110.1" class="st10" width="0.7" height="0.1"/>
			</g>
			
				<radialGradient id="SVGID_2_" cx="245.9742" cy="33.6045" r="14.2206" gradientTransform="matrix(1 0 0 -0.7089 0 136.4737)" gradientUnits="userSpaceOnUse">
				<stop  offset="0" style="stop-color:#FFFFFF;stop-opacity:0"/>
				<stop  offset="0.8745" style="stop-color:#FFFFFF;stop-opacity:0.8745"/>
				<stop  offset="1" style="stop-color:#FFFFFF"/>
			</radialGradient>
			<path class="st13" d="M243.2,110v6.4c0.3,2.1,1,3.6,2,4.8c11.2-2.9,12.2-11.2,12.2-11.2l-7.1-2.8L243.2,110z"/>
		</g>
	</g>
	<g>
		<circle class="st6" cx="292" cy="158" r="0.4"/>
		<circle class="st1" cx="292" cy="158" r="0.3"/>
		<circle class="st7" cx="292" cy="158" r="0.1"/>
	</g>
	<g>
		<g>
			<g>
				
					<image style="overflow:visible;enable-background:new    ;" width="124" height="123" xlink:href="77A62A5B.png"  transform="matrix(1 0 0 1 188 53.5)">
				</image>
			</g>
			<g>
				<g>
					<path class="st10" d="M262,102.5c0.1-0.1,0.2-0.2,0.3-0.3c-3.2-3-7.4-4.8-12.1-4.8c-0.3,0-0.5,0-0.8,0v0.4c0.3,0,0.5,0,0.8,0
						C254.8,97.8,258.9,99.6,262,102.5z"/>
					<path class="st10" d="M265.9,107.1c-0.5-1-1.1-1.9-1.7-2.7c-0.1,0.1-0.2,0.2-0.3,0.3c0.6,0.8,1.2,1.7,1.7,2.7
						C265.7,107.2,265.8,107.2,265.9,107.1z"/>
					<path class="st10" d="M266.7,109.9c0.4,1.2,0.6,2.5,0.7,3.8h0.4c-0.1-1.4-0.4-2.7-0.8-4C266.9,109.8,266.8,109.8,266.7,109.9z"
						/>
					<path class="st10" d="M234,109.3c-0.1-0.1-0.2-0.1-0.3-0.2c-0.7,1.9-1,3.9-1,6c0,2.9,0.7,5.6,2,8.1c0.1-0.1,0.2-0.1,0.3-0.2
						c-1.2-2.4-1.9-5-1.9-7.9C233,113,233.4,111.1,234,109.3z"/>
					<path class="st10" d="M234.8,106.5c0.1,0.1,0.2,0.1,0.3,0.2c2.4-4.3,6.5-7.4,11.4-8.5v-0.4C241.6,98.9,237.3,102.1,234.8,106.5
						z"/>
					<path class="st10" d="M246.3,132.2c0-0.1,0.1-0.2,0.1-0.4c-4-0.9-7.6-3.3-10-6.5c-0.1,0.1-0.2,0.1-0.3,0.2
						C238.5,128.8,242.1,131.3,246.3,132.2z"/>
					<path class="st10" d="M259.4,129.6c-2.7,1.7-5.8,2.7-9.2,2.7c-0.3,0-0.7,0-1,0c0,0.1-0.1,0.2-0.1,0.4c0.4,0,0.8,0,1.1,0
						c3.5,0,6.7-1,9.4-2.7C259.6,129.8,259.5,129.7,259.4,129.6z"/>
					<path class="st10" d="M261.9,128.2c3.3-2.9,5.5-7,5.9-11.6h-0.4c-0.4,4.5-2.5,8.5-5.7,11.3C261.8,128,261.8,128.1,261.9,128.2z
						"/>
				</g>
				<g>
					<path class="st10" d="M265.6,99.3C265.6,99.3,265.7,99.3,265.6,99.3c-3.9-4-9.4-6.4-15.4-6.4c-0.3,0-0.5,0-0.8,0V93
						c0.3,0,0.5,0,0.8,0C256.2,93,261.6,95.4,265.6,99.3z"/>
					<path class="st10" d="M271.1,107.7c-0.8-2.3-2-4.4-3.5-6.3c0,0,0,0-0.1,0.1c2.7,3.4,4.4,7.7,4.7,12.3h0.1
						c-0.1-1.9-0.5-3.8-1-5.5C271.2,108.1,271.1,107.9,271.1,107.7z"/>
					<path class="st10" d="M231,104.2L231,104.2c3.3-5.6,9-9.8,15.7-10.9v-0.1C239.9,94.3,234.2,98.5,231,104.2z"/>
					<path class="st10" d="M229.8,106.8C229.8,106.8,229.7,106.8,229.8,106.8c-1.1,2.5-1.7,5.3-1.7,8.3c0,3.9,1,7.6,2.8,10.8
						c0,0,0-0.1,0.1-0.1c-1.8-3.2-2.8-6.8-2.8-10.7C228.2,112.1,228.8,109.4,229.8,106.8z"/>
					<path class="st10" d="M264.1,132.3c4.7-3.8,7.8-9.4,8.2-15.7h-0.1C271.8,122.9,268.7,128.5,264.1,132.3
						C264.1,132.2,264.1,132.3,264.1,132.3z"/>
					<path class="st10" d="M244.8,136.4c-2.8-0.7-5.3-1.9-7.6-3.6c0,0,0,0-0.1,0.1C239.4,134.6,242,135.8,244.8,136.4
						C244.8,136.5,244.8,136.4,244.8,136.4z"/>
					<path class="st10" d="M261.7,133.8c-3.4,2.1-7.3,3.3-11.5,3.3c-0.9,0-1.8-0.1-2.6-0.2v0.1c0.9,0.1,1.7,0.2,2.6,0.2
						C254.5,137.2,258.4,136,261.7,133.8C261.8,133.9,261.8,133.9,261.7,133.8z"/>
					<path class="st10" d="M235,131.1C235,131.1,235,131,235,131.1c-0.9-1-1.8-2-2.5-3h-0.1C233.1,129.2,234,130.2,235,131.1z"/>
				</g>
				<g>
					<path class="st10" d="M268,97.2C268,97.1,268,97.1,268,97.2c-4.7-4.8-11-7.4-17.8-7.4c-0.3,0-0.5,0-0.8,0v0.1
						c0.3,0,0.5,0,0.8,0C257.1,89.8,263.4,92.6,268,97.2z"/>
					<path class="st10" d="M274.5,108.1c0.5,1.8,0.8,3.7,1,5.6h0.1C275.4,111.8,275.1,109.9,274.5,108.1L274.5,108.1z"/>
					<path class="st10" d="M273.6,105.3c-0.9-2.2-2.1-4.2-3.6-6.1c0,0-0.1,0-0.1,0.1C271.4,101.1,272.6,103.2,273.6,105.3
						C273.5,105.3,273.6,105.3,273.6,105.3z"/>
					<path class="st10" d="M225,115.1c0-3.5,0.7-6.8,2-9.9h-0.1C225.6,108.2,224.9,111.5,225,115.1c-0.1,7.2,3,13.8,7.8,18.4
						c0,0,0,0,0.1-0.1C228,128.8,225,122.3,225,115.1z"/>
					<path class="st10" d="M228.2,102.6L228.2,102.6c3.9-6.6,10.6-11.4,18.4-12.5V90C238.7,91.1,232,95.9,228.2,102.6z"/>
					<path class="st10" d="M271.5,128.5c-0.5,0.7-1,1.5-1.5,2.1h0.1C270.7,130.1,271.1,129.4,271.5,128.5
						C271.6,128.6,271.6,128.6,271.5,128.5z"/>
					<path class="st10" d="M275.1,119.6c0.2-1,0.3-2,0.4-3h-0.1c-0.1,1-0.2,2-0.4,3C275.1,119.6,275.1,119.6,275.1,119.6z"/>
					<path class="st10" d="M274.5,122c-0.1,0.5-0.3,1-0.5,1.4h0.1l0,0C274.3,122.9,274.4,122.5,274.5,122L274.5,122z"/>
					<path class="st10" d="M273.4,125c-0.2,0.5-0.4,1-0.7,1.4h0.1C273,126,273.2,125.6,273.4,125C273.5,125.1,273.4,125,273.4,125z"
						/>
					<path class="st10" d="M268.3,132.6c-0.8,0.9-1.8,1.7-2.7,2.4c0,0,0,0.1,0.1,0.1c0.9-0.7,1.7-1.4,2.5-2.2
						c0.1-0.1,0.1-0.1,0.2-0.2C268.3,132.7,268.3,132.7,268.3,132.6z"/>
					<path class="st10" d="M257.3,139.4c2.1-0.6,4.1-1.5,6-2.6c0,0,0-0.1-0.1-0.1c-1.8,1.1-3.8,2-5.9,2.6
						C257.3,139.3,257.3,139.4,257.3,139.4z"/>
					<path class="st10" d="M254.5,139.9c-1.4,0.2-2.8,0.4-4.3,0.4c-1.3,0-2.5-0.1-3.8-0.3v0.1c1.2,0.2,2.5,0.3,3.8,0.3
						C251.7,140.4,253.1,140.3,254.5,139.9C254.5,140,254.5,140,254.5,139.9z"/>
					<path class="st10" d="M243.7,139.4c-3.1-0.9-6.1-2.3-8.6-4.2c0,0,0,0-0.1,0.1C237.5,137.2,240.5,138.7,243.7,139.4
						C243.6,139.5,243.6,139.5,243.7,139.4z"/>
				</g>
			</g>
			<g>
				<g>
					<path class="st10" d="M271.9,98.1c0.2-0.1,0.3-0.2,0.5-0.3c-4.3-5.5-10.5-9.4-17.9-10.5c-0.4-0.1-0.8-0.1-1.2-0.2l-0.1,0.6
						c0.4,0,0.8,0.1,1.2,0.2C261.7,89,267.8,92.8,271.9,98.1z"/>
					<path class="st10" d="M277,106.3c-0.5-1.6-1.2-3.2-2.1-4.7c-0.2,0.1-0.3,0.2-0.5,0.3c0.8,1.5,1.5,3,2,4.6
						C276.6,106.5,276.8,106.4,277,106.3z"/>
					<path class="st10" d="M277.5,111c0.3,2,0.4,4.1,0.2,6.2l0.6,0.1c0.2-2.2,0.1-4.4-0.3-6.5C277.9,110.8,277.7,110.9,277.5,111z"
						/>
					<path class="st10" d="M226,102c-0.2-0.1-0.3-0.3-0.5-0.4c-1.5,2.8-2.6,5.9-3.1,9.2c-0.7,4.6-0.3,9.1,1.1,13.2
						c0.2-0.1,0.4-0.2,0.6-0.3c-1.3-4-1.8-8.4-1.1-12.9C223.5,107.6,224.5,104.7,226,102z"/>
					<path class="st10" d="M228,97.8c0.2,0.1,0.3,0.3,0.5,0.4c4.8-6.2,12.1-10.1,20.2-10.6l0.1-0.6C240.5,87.4,233,91.4,228,97.8z"
						/>
					<path class="st10" d="M239.7,141.2c0.1-0.2,0.2-0.4,0.3-0.5c-6.2-2.5-11.1-7.1-14.1-12.8c-0.2,0.1-0.4,0.2-0.6,0.3
						C228.4,134,233.4,138.7,239.7,141.2z"/>
					<path class="st10" d="M261.2,140.3c-4.6,2-9.9,2.8-15.2,2c-0.5-0.1-1.1-0.2-1.6-0.3c-0.1,0.2-0.2,0.4-0.3,0.6
						c0.6,0.1,1.2,0.2,1.8,0.3c5.5,0.9,10.8,0.1,15.5-2C261.4,140.7,261.3,140.5,261.2,140.3z"/>
					<path class="st10" d="M265.5,138.7c5.9-3.8,10.4-9.8,12.1-17l-0.6-0.1c-1.7,7-6,12.8-11.7,16.5
						C265.3,138.3,265.4,138.5,265.5,138.7z"/>
				</g>
				<g>
					<path class="st10" d="M278.4,93.9l0.1-0.1c-5.3-7.1-13.4-12.3-22.9-13.8c-0.4-0.1-0.8-0.1-1.2-0.2V80c0.4,0,0.8,0.1,1.2,0.2
						C265.1,81.7,273.1,86.8,278.4,93.9z"/>
					<path class="st10" d="M285,108.5c-0.7-3.9-2.1-7.5-4-10.9l-0.1,0.1c3.5,6.1,5.1,13.2,4.4,20.6h0.2c0.3-3,0.2-6-0.3-9
						C285.1,109.1,285,108.8,285,108.5z"/>
					<path class="st10" d="M222.4,93.2l0.1,0.1C229,85.1,239,80,249.8,79.9v-0.2C239,79.8,229,84.9,222.4,93.2z"/>
					<path class="st10" d="M220,97l-0.1-0.1c-2.3,3.8-3.9,8.1-4.6,12.7c-1,6.2-0.3,12.3,1.8,17.7l0.1-0.1c-2-5.4-2.7-11.5-1.8-17.6
						C216.1,105,217.7,100.8,220,97z"/>
					<path class="st10" d="M267.9,145.7c8.3-4.8,14.6-12.9,16.8-22.8h-0.2c-2.2,9.9-8.5,17.9-16.7,22.7
						C267.9,145.6,267.9,145.7,267.9,145.7z"/>
					<path class="st10" d="M236.4,147.5c-4.2-1.8-7.9-4.4-11.1-7.5l-0.1,0.1c3.1,3.2,6.9,5.7,11.1,7.5
						C236.4,147.6,236.4,147.5,236.4,147.5z"/>
					<path class="st10" d="M263.8,147.6c-5.8,2.4-12.3,3.3-19,2.3c-1.4-0.2-2.8-0.5-4.1-0.9l-0.1,0.1c1.3,0.4,2.7,0.7,4.1,0.9
						c6.7,1,13.2,0.1,19.1-2.3C263.8,147.7,263.8,147.6,263.8,147.6z"/>
					<path class="st10" d="M222.2,136.7l0.1-0.1c-1.3-1.7-2.4-3.5-3.4-5.3c-0.1,0-0.1,0-0.2,0C219.8,133.2,220.9,135,222.2,136.7z"
						/>
				</g>
				<g>
					<path class="st10" d="M282.7,91.1l0.1-0.1c-6.4-8.7-15.7-14.3-26.4-16c-0.4-0.1-0.8-0.1-1.2-0.2V75c0.4,0.1,0.8,0.1,1.2,0.2
						C267.4,76.9,276.6,82.9,282.7,91.1z"/>
					<path class="st10" d="M290.3,110c0.4,3,0.4,6.1,0.1,9.2h0.2c0.3-3.1,0.3-6.2-0.1-9.2C290.4,110,290.3,110,290.3,110z"/>
					<path class="st10" d="M289.6,105.4c-0.9-3.7-2.3-7.2-4.3-10.6l-0.1,0.1c1.9,3.3,3.3,6.8,4.2,10.5
						C289.5,105.4,289.5,105.4,289.6,105.4z"/>
					<path class="st10" d="M210.4,108.9c0.9-5.5,2.8-10.6,5.6-15.1l-0.1-0.1c-2.8,4.5-4.8,9.6-5.6,15.2c-1.8,11.4,1.4,22.5,8,31
						l0.1-0.1C211.8,131.3,208.6,120.2,210.4,108.9z"/>
					<path class="st10" d="M218.5,90l0.1,0.1c7.6-9.6,19.4-15.5,32.1-15.3v-0.2C237.9,74.4,226.1,80.3,218.5,90z"/>
					<path class="st10" d="M280.6,141.6c-0.9,1.1-1.9,2.1-2.9,3c0.1,0,0.1,0.1,0.2,0.1c1-0.9,1.9-1.9,2.8-2.9
						C280.7,141.7,280.6,141.7,280.6,141.6z"/>
					<path class="st10" d="M288.5,128.3c0.5-1.5,1-3.1,1.3-4.7h-0.2c-0.4,1.6-0.8,3.2-1.3,4.7C288.4,128.3,288.5,128.3,288.5,128.3z
						"/>
					<path class="st10" d="M286.9,132c-0.3,0.7-0.7,1.5-1.1,2.2c0.1,0,0.1,0,0.2-0.1h0.1c0.3-0.6,0.7-1.3,1-1.9
						C287,132.1,286.9,132,286.9,132z"/>
					<path class="st10" d="M284.5,136.4c-0.4,0.7-0.9,1.4-1.4,2.1c0.1,0,0.1,0,0.2,0.1c0.4-0.6,0.9-1.2,1.3-1.9
						C284.5,136.6,284.5,136.5,284.5,136.4z"/>
					<path class="st10" d="M274.5,147.3c-1.6,1.2-3.2,2.2-4.9,3.2c0,0.1,0,0.1,0.1,0.2c1.5-0.8,3.1-1.8,4.5-2.9
						c0.1-0.1,0.3-0.2,0.4-0.3C274.5,147.4,274.5,147.4,274.5,147.3z"/>
					<path class="st10" d="M255.4,155.3c3.5-0.4,6.8-1.3,10.1-2.7c0-0.1,0-0.1-0.1-0.2c-3.2,1.3-6.5,2.2-10,2.7
						C255.4,155.1,255.4,155.2,255.4,155.3z"/>
					<path class="st10" d="M250.9,155.4c-2.2,0-4.5-0.1-6.8-0.5c-2-0.3-4-0.8-5.9-1.4l-0.1,0.1c1.9,0.6,3.9,1.1,5.9,1.4
						c2.3,0.4,4.6,0.5,6.8,0.5C250.8,155.5,250.9,155.5,250.9,155.4z"/>
					<path class="st10" d="M233.9,152c-4.8-2.1-9-5.1-12.5-8.8l-0.1,0.1c3.5,3.7,7.8,6.7,12.6,8.8C233.8,152,233.8,152,233.9,152z"
						/>
				</g>
			</g>
			<g>
				<circle class="st14" cx="243.1" cy="139.4" r="1.6"/>
				<circle class="st10" cx="243.1" cy="139.4" r="1.1"/>
				<circle class="st10" cx="243.1" cy="139.4" r="0.6"/>
			</g>
		</g>
		<g>
			<circle class="st14" cx="272.3" cy="116.6" r="1.6"/>
			<circle class="st10" cx="272.3" cy="116.6" r="1.1"/>
			<circle class="st10" cx="272.3" cy="116.6" r="0.6"/>
		</g>
		<g>
			<circle class="st14" cx="233.7" cy="109.1" r="1.6"/>
			<circle class="st10" cx="233.7" cy="109.1" r="1.1"/>
			<circle class="st10" cx="233.7" cy="109.1" r="0.6"/>
		</g>
		<g>
			<circle class="st14" cx="228.2" cy="102.6" r="1.6"/>
			<circle class="st10" cx="228.2" cy="102.6" r="1.1"/>
			<circle class="st10" cx="228.2" cy="102.6" r="0.6"/>
		</g>
		<g>
			<circle class="st14" cx="249.4" cy="89.8" r="1.6"/>
			<circle class="st10" cx="249.4" cy="89.8" r="1.1"/>
			<circle class="st10" cx="249.4" cy="89.8" r="0.6"/>
		</g>
		<g>
			<circle class="st14" cx="224.9" cy="78.8" r="4.2"/>
			<circle class="st10" cx="224.9" cy="78.8" r="2.9"/>
			<circle class="st10" cx="224.9" cy="78.8" r="1.5"/>
		</g>
		<g>
			<circle class="st14" cx="245.7" cy="80.3" r="1.5"/>
			<circle class="st10" cx="245.7" cy="80.3" r="1"/>
			<circle class="st10" cx="245.7" cy="80.3" r="0.5"/>
		</g>
		<g>
			<circle class="st14" cx="261.4" cy="72.1" r="1.5"/>
			<circle class="st10" cx="261.4" cy="72.1" r="1"/>
			<circle class="st10" cx="261.4" cy="72.1" r="0.5"/>
		</g>
		<g>
			<circle class="st14" cx="289.1" cy="141.8" r="1.5"/>
			<circle class="st10" cx="289.1" cy="141.8" r="1"/>
			<circle class="st10" cx="289.1" cy="141.8" r="0.5"/>
		</g>
		<g>
			<circle class="st14" cx="218.3" cy="155.3" r="1.5"/>
			<circle class="st10" cx="218.3" cy="155.3" r="1"/>
			<circle class="st10" cx="218.3" cy="155.3" r="0.5"/>
		</g>
		<g>
			<circle class="st14" cx="206.4" cy="140.7" r="0.8"/>
			<circle class="st10" cx="206.4" cy="140.7" r="0.5"/>
			<circle class="st10" cx="206.4" cy="140.7" r="0.3"/>
		</g>
		<g>
			<circle class="st14" cx="291.5" cy="132" r="0.8"/>
			<circle class="st10" cx="291.5" cy="132" r="0.5"/>
			<circle class="st10" cx="291.5" cy="132" r="0.3"/>
		</g>
		<g>
			<circle class="st14" cx="290.6" cy="79.7" r="0.8"/>
			<circle class="st10" cx="290.6" cy="79.7" r="0.5"/>
			<circle class="st10" cx="290.6" cy="79.7" r="0.3"/>
		</g>
		<g>
			<circle class="st14" cx="274.6" cy="77.3" r="0.4"/>
			<circle class="st10" cx="274.6" cy="77.3" r="0.3"/>
			<circle class="st10" cx="274.6" cy="77.3" r="0.1"/>
		</g>
		<g>
			<circle class="st14" cx="276.1" cy="152.1" r="0.4"/>
			<circle class="st10" cx="276.1" cy="152.1" r="0.3"/>
			<circle class="st10" cx="276.1" cy="152.1" r="0.1"/>
		</g>
		<g>
			<circle class="st14" cx="282.5" cy="137.5" r="0.4"/>
			<circle class="st10" cx="282.5" cy="137.5" r="0.3"/>
			<circle class="st10" cx="282.5" cy="137.5" r="0.1"/>
		</g>
		<g>
			<circle class="st14" cx="212.7" cy="87" r="0.4"/>
			<circle class="st10" cx="212.7" cy="87" r="0.3"/>
			<circle class="st10" cx="212.7" cy="87" r="0.1"/>
		</g>
		<g>
			<circle class="st14" cx="208.3" cy="73.6" r="0.4"/>
			<circle class="st10" cx="208.3" cy="73.6" r="0.3"/>
			<circle class="st10" cx="208.3" cy="73.6" r="0.1"/>
		</g>
		<g>
			<circle class="st14" cx="216.3" cy="107.4" r="0.8"/>
			<circle class="st10" cx="216.3" cy="107.4" r="0.5"/>
			<circle class="st10" cx="216.3" cy="107.4" r="0.3"/>
		</g>
		<g>
			<circle class="st14" cx="275.5" cy="116.6" r="0.6"/>
			<circle class="st10" cx="275.5" cy="116.6" r="0.4"/>
			<circle class="st10" cx="275.5" cy="116.6" r="0.2"/>
		</g>
		<g>
			<circle class="st14" cx="246.6" cy="98.1" r="0.6"/>
			<circle class="st10" cx="246.6" cy="98.1" r="0.4"/>
			<circle class="st10" cx="246.6" cy="98.1" r="0.2"/>
		</g>
		<g>
			<circle class="st14" cx="273.4" cy="125" r="0.6"/>
			<circle class="st10" cx="273.4" cy="125" r="0.4"/>
			<circle class="st10" cx="273.4" cy="125" r="0.2"/>
		</g>
		<g>
			<circle class="st14" cx="268.1" cy="97.2" r="0.6"/>
			<circle class="st10" cx="268.1" cy="97.2" r="0.4"/>
			<circle class="st10" cx="268.1" cy="97.2" r="0.2"/>
		</g>
		<g>
			<circle class="st14" cx="234.7" cy="122.9" r="0.6"/>
			<circle class="st10" cx="234.7" cy="122.9" r="0.4"/>
			<circle class="st10" cx="234.7" cy="122.9" r="0.2"/>
		</g>
		<g>
			<circle class="st14" cx="230.8" cy="125.8" r="0.6"/>
			<circle class="st10" cx="230.8" cy="125.8" r="0.4"/>
			<circle class="st10" cx="230.8" cy="125.8" r="0.2"/>
		</g>
		<g>
			<circle class="st14" cx="269.9" cy="130.7" r="0.6"/>
			<circle class="st10" cx="269.9" cy="130.7" r="0.4"/>
			<circle class="st10" cx="269.9" cy="130.7" r="0.2"/>
		</g>
		<g>
			<circle class="st14" cx="249.1" cy="132.4" r="0.6"/>
			<circle class="st10" cx="249.1" cy="132.4" r="0.4"/>
			<circle class="st10" cx="249.1" cy="132.4" r="0.2"/>
		</g>
		<g>
			<path class="st15" d="M225.6,107.1l-3.8,1.5v3.4c0.5,3.6,3.8,4.4,3.8,4.4s3.4-0.8,3.8-4.4v-3.4L225.6,107.1z M226.4,112.7
				c0.1,0,0.2,0.1,0.2,0.2s-0.1,0.2-0.2,0.2H226v0.3h0.8c0.1,0,0.2,0.1,0.2,0.2s-0.1,0.2-0.2,0.2H226v0.3h0.8c0.1,0,0.2,0.1,0.2,0.2
				s-0.1,0.2-0.2,0.2H226c0,0.2-0.2,0.4-0.4,0.4s-0.4-0.2-0.4-0.4v-2.4c-0.7-0.2-1.2-0.9-1-1.7c0.1-0.6,0.6-1,1.1-1.2
				c1-0.2,1.8,0.5,1.8,1.5c0,0.7-0.5,1.3-1.1,1.4v0.8h0.4V112.7z"/>
			<g class="st16">
				<path class="st15" d="M226.8,113.7H226v0.2h0.8c0.1,0,0.2-0.1,0.2-0.2v-0.1C226.9,113.6,226.8,113.7,226.8,113.7z"/>
				<path class="st15" d="M225.9,113.2h0.4c0.1,0,0.2-0.1,0.2-0.2v-0.1l-0.1,0.1H226L225.9,113.2L225.9,113.2z"/>
				<path class="st15" d="M225.9,111.9v0.2c0.6-0.2,1.1-0.7,1.1-1.4v-0.1C227,111.2,226.5,111.8,225.9,111.9z"/>
				<path class="st15" d="M225.1,112.1v-0.2c-0.6-0.2-1-0.7-1.1-1.3C224,111.3,224.5,111.9,225.1,112.1z"/>
				<polygon class="st15" points="225.6,107.1 221.7,108.6 221.7,108.7 225.6,107.2 229.4,108.7 229.4,108.6 				"/>
				<path class="st15" d="M225.1,114.5c0,0.2,0.2,0.4,0.4,0.4s0.4-0.2,0.4-0.4h0.8c0.1,0,0.2-0.1,0.2-0.2v-0.1l-0.1,0.1H226
					c0,0.2-0.2,0.4-0.4,0.4s-0.4-0.2-0.4-0.4L225.1,114.5L225.1,114.5z"/>
			</g>
		</g>
	</g>
	<g>
		<g>
			<circle class="st17" cx="278.9" cy="104.2" r="12.6"/>
			<circle class="st18" cx="278.9" cy="104.2" r="11.6"/>
			<g>
				<polygon class="st19" points="286.2,99.5 278.9,104 271.5,99.5 278.8,95.2 				"/>
				<polygon class="st20" points="278.9,113 271.5,108.5 271.5,99.5 278.9,104 				"/>
				<g>
					<g>
						<path class="st21" d="M275.7,109.8c-0.8-0.3-1.5-1.2-1.5-2v-1.9c0-0.8,0.7-1.1,1.5-0.8s1.5,1.2,1.5,2v1.9
							C277.2,109.8,276.5,110.1,275.7,109.8z M275.7,105.7c-0.4-0.2-0.8,0-0.8,0.4v1.9c0,0.4,0.4,0.9,0.8,1.1s0.8,0,0.8-0.4v-1.9
							C276.5,106.4,276.2,105.9,275.7,105.7z"/>
					</g>
					<g>
						<path class="st22" d="M274.6,107.5c-0.8-0.3-1.5-1.2-1.5-2v-2c0-0.8,0.7-1.1,1.5-0.8s1.5,1.2,1.5,2v1.9
							C276.1,107.4,275.4,107.8,274.6,107.5z M274.6,103.4c-0.4-0.2-0.8,0-0.8,0.4v1.9c0,0.4,0.4,0.9,0.8,1.1s0.8,0,0.8-0.4v-1.9
							C275.4,104,275,103.5,274.6,103.4z"/>
					</g>
					<g>
						<path class="st21" d="M274.9,108.3L274.9,108.3c0-0.1,0-0.1,0-0.2v-1.9l0,0c-0.2-0.1-0.4-0.2-0.6-0.4l-0.1-0.1
							c0,0.1,0,0.1,0,0.2v1.9c0,0.2,0,0.4,0.1,0.6C274.5,108.3,274.7,108.2,274.9,108.3z"/>
					</g>
				</g>
				<polygon class="st23" points="278.9,113 286.2,108.5 286.2,99.5 278.9,104 				"/>
				<path class="st24" d="M278.9,113v-8.8C278.9,104.2,279.1,108.8,278.9,113z"/>
				<path class="st24" d="M286.2,99.5l-7.4,4.4C278.9,104,281.8,101.8,286.2,99.5z"/>
				<path class="st24" d="M271.5,99.5l7.4,4.4C278.9,104,275.9,101.8,271.5,99.5z"/>
			</g>
			
				<radialGradient id="SVGID_3_" cx="273.2458" cy="157.2344" r="23.7844" gradientTransform="matrix(1 0 0 -1 0 252)" gradientUnits="userSpaceOnUse">
				<stop  offset="0" style="stop-color:#FFFFFF;stop-opacity:0"/>
				<stop  offset="0.8745" style="stop-color:#FFFFFF;stop-opacity:0.8745"/>
				<stop  offset="1" style="stop-color:#FFFFFF"/>
			</radialGradient>
			<path class="st25" d="M266.8,104c0,1.2,0.2,2.3,0.5,3.3c1.7,0.8,3.5,1.2,5.5,1.2c7.2,0,13-5.8,13-13c0-0.4,0-0.8-0.1-1.1
				c-2-1.5-4.4-2.3-7-2.3C272.1,92.1,266.8,97.4,266.8,104z"/>
		</g>
		<g>
			<circle class="st17" cx="223.9" cy="134.2" r="12.2"/>
			<circle class="st18" cx="223.9" cy="134.2" r="11.1"/>
			<g>
				<polygon class="st19" points="230.9,129.8 223.9,134 216.8,129.8 223.8,125.6 				"/>
				<polygon class="st20" points="223.9,142.7 216.8,138.4 216.8,129.8 223.9,134 				"/>
				<polygon class="st23" points="223.9,142.7 230.9,138.4 230.9,129.8 223.9,134 				"/>
				<g>
					
						<ellipse transform="matrix(0.496 -0.8683 0.8683 0.496 -2.9674 265.7709)" class="st21" cx="227.5" cy="135.4" rx="1.5" ry="0.9"/>
					<g>
						<path class="st21" d="M227.5,139L227.5,139c-0.2,0-2-0.1-2-2.3c0-1.3,0.9-2.8,2-3.5s2-0.2,2,1.1
							C229.5,136.5,227.7,138.8,227.5,139C227.6,138.9,227.6,139,227.5,139z M227.5,133.5c-0.9,0.6-1.6,1.9-1.6,2.9
							c0,1.8,1.3,2.1,1.6,2.1c0.3-0.5,1.6-2.4,1.6-4.1C229.2,133.4,228.4,133,227.5,133.5z"/>
					</g>
				</g>
				<path class="st24" d="M223.9,142.7v-8.5C223.9,134.2,224.1,138.7,223.9,142.7z"/>
				<path class="st24" d="M230.9,129.8l-7.1,4.3C223.9,134,226.7,132,230.9,129.8z"/>
				<path class="st24" d="M216.8,129.8l7.1,4.3C223.9,134,221,132,216.8,129.8z"/>
			</g>
			
				<radialGradient id="SVGID_4_" cx="218.4579" cy="126.8184" r="22.8839" gradientTransform="matrix(1 0 0 -1 0 252)" gradientUnits="userSpaceOnUse">
				<stop  offset="0" style="stop-color:#FFFFFF;stop-opacity:0"/>
				<stop  offset="0.8745" style="stop-color:#FFFFFF;stop-opacity:0.8745"/>
				<stop  offset="1" style="stop-color:#FFFFFF"/>
			</radialGradient>
			<path class="st26" d="M212.3,134c0,1.1,0.2,2.2,0.5,3.2c1.6,0.7,3.4,1.2,5.3,1.2c6.9,0,12.5-5.6,12.5-12.5c0-0.4,0-0.7,0-1.1
				c-1.9-1.4-4.2-2.2-6.8-2.2C217.4,122.6,212.3,127.7,212.3,134z"/>
		</g>
		<g>
			<circle class="st17" cx="237" cy="93.2" r="5.6"/>
			<circle class="st18" cx="237" cy="93.2" r="5.1"/>
			<g>
				<polygon class="st19" points="233.8,91.2 237,93.1 240.3,91.2 237.1,89.2 				"/>
				<polygon class="st20" points="237,97.1 240.3,95.2 240.3,91.2 237,93.1 				"/>
				<path class="st21" d="M239.7,93.4v-0.2c0-0.3-0.2-0.4-0.3-0.2c-0.1,0.1-0.2,0.3-0.3,0.5v-0.3c0-0.3-0.2-0.4-0.3-0.2
					c-0.2,0.1-0.3,0.5-0.3,0.8v0.3c-0.1-0.1-0.2-0.1-0.3,0c-0.2,0.1-0.3,0.5-0.3,0.8v0.2c-0.1,0.2-0.2,0.5-0.2,0.8
					c0,0.4,0.2,0.5,0.4,0.3l1.5-1.2c0.2-0.2,0.4-0.7,0.4-1C239.9,93.5,239.8,93.4,239.7,93.4z"/>
				<polygon class="st23" points="237,97.1 233.8,95.2 233.8,91.2 237,93.1 				"/>
				<path class="st24" d="M237,97.1v-3.9C237,93.2,236.9,95.3,237,97.1z"/>
				<path class="st24" d="M233.8,91.2l3.3,2C237,93.1,235.7,92.2,233.8,91.2z"/>
				<path class="st24" d="M240.3,91.2l-3.3,2C237,93.1,238.4,92.2,240.3,91.2z"/>
			</g>
			
				<radialGradient id="SVGID_5_" cx="-808.3545" cy="162.9536" r="10.563" gradientTransform="matrix(-1 0 0 -1 -568.8188 252)" gradientUnits="userSpaceOnUse">
				<stop  offset="0" style="stop-color:#FFFFFF;stop-opacity:0"/>
				<stop  offset="0.8745" style="stop-color:#FFFFFF;stop-opacity:0.8745"/>
				<stop  offset="1" style="stop-color:#FFFFFF"/>
			</radialGradient>
			<path class="st27" d="M242.4,93.1c0,0.5-0.1,1-0.2,1.5c-0.7,0.3-1.6,0.5-2.4,0.5c-3.2,0-5.8-2.6-5.8-5.8c0-0.2,0-0.3,0-0.5
				c0.9-0.6,2-1,3.1-1C240,87.8,242.4,90.2,242.4,93.1z"/>
		</g>
		<g>
			<circle class="st17" cx="264.7" cy="129.4" r="8.1"/>
			<circle class="st18" cx="264.7" cy="129.4" r="7.4"/>
			<g>
				<polygon class="st19" points="260,126.4 264.7,129.2 269.5,126.4 264.7,123.6 				"/>
				<polygon class="st20" points="264.7,135 269.5,132.2 269.5,126.4 264.7,129.2 				"/>
				<polygon class="st23" points="264.7,135 260,132.2 260,126.4 264.7,129.2 				"/>
				<g>
					
						<ellipse transform="matrix(0.965 -0.2621 0.2621 0.965 -25.4627 73.3129)" class="st21" cx="262.1" cy="132.1" rx="0.4" ry="0.7"/>
					<g>
						<g>
							<path class="st21" d="M262.8,131.7C262.8,131.7,262.7,131.6,262.8,131.7c-0.7-1.1-1.1-0.7-1.1-0.7c-0.1,0.1-0.2,0-0.2-0.1
								c-0.1-0.1,0-0.3,0-0.3c0.2-0.2,0.8-0.3,1.4,0.8C263,131.5,263,131.7,262.8,131.7C262.9,131.7,262.8,131.7,262.8,131.7z"/>
						</g>
						<g>
							<path class="st21" d="M263.1,131.2l-0.1-0.1c-0.4-0.7-0.8-1-1.1-1.1c-0.3,0-0.5,0.1-0.5,0.1c-0.1,0.1-0.2,0-0.3-0.2
								c-0.1-0.2-0.1-0.4,0-0.4c0.3-0.3,1.2-0.4,2.1,1.2c0.1,0.2,0.1,0.4,0,0.5C263.2,131.2,263.2,131.2,263.1,131.2z"/>
						</g>
						<g>
							<path class="st21" d="M263.5,130.7c-0.1,0-0.1-0.1-0.1-0.2c-1.3-2.3-2.3-1.4-2.4-1.4c-0.1,0.1-0.3,0-0.3-0.2
								c-0.1-0.2-0.1-0.5,0-0.6c0,0,1.4-1.1,3,1.7c0.1,0.2,0.1,0.5,0.1,0.6C263.7,130.7,263.6,130.7,263.5,130.7z"/>
						</g>
					</g>
				</g>
				<path class="st24" d="M264.7,135v-5.7C264.7,129.4,264.5,132.4,264.7,135z"/>
				<path class="st24" d="M260,126.4l4.7,2.9C264.7,129.2,262.8,127.9,260,126.4z"/>
				<path class="st24" d="M269.5,126.4l-4.7,2.9C264.7,129.2,266.6,127.9,269.5,126.4z"/>
			</g>
			
				<radialGradient id="SVGID_6_" cx="-837.1614" cy="128.6956" r="15.3134" gradientTransform="matrix(-1 0 0 -1 -568.8188 252)" gradientUnits="userSpaceOnUse">
				<stop  offset="0" style="stop-color:#FFFFFF;stop-opacity:0"/>
				<stop  offset="0.8745" style="stop-color:#FFFFFF;stop-opacity:0.8745"/>
				<stop  offset="1" style="stop-color:#FFFFFF"/>
			</radialGradient>
			<path class="st28" d="M272.5,129.2c0,0.7-0.1,1.5-0.3,2.2c-1.1,0.5-2.3,0.8-3.5,0.8c-4.6,0-8.4-3.8-8.4-8.4c0-0.2,0-0.5,0-0.7
				c1.3-0.9,2.8-1.5,4.5-1.5C269.1,121.6,272.5,125,272.5,129.2z"/>
		</g>
		<g>
			<path class="st18" d="M268.6,78.9l-8.5,3.3v7.7c1,8.1,8.5,9.8,8.5,9.8s7.5-1.7,8.5-9.8v-7.7L268.6,78.9z M270.5,91.4
				c0.2,0,0.4,0.2,0.4,0.4c0,0.2-0.2,0.4-0.4,0.4h-1v0.7h1.9c0.2,0,0.4,0.2,0.4,0.4s-0.2,0.4-0.4,0.4h-1.9v0.7h1.9
				c0.2,0,0.4,0.2,0.4,0.4c0,0.2-0.2,0.4-0.4,0.4h-1.9c0,0.5-0.4,0.8-0.9,0.8s-0.9-0.4-0.9-0.9v-5.3c-1.6-0.5-2.6-2-2.3-3.8
				c0.2-1.3,1.3-2.3,2.6-2.6c2.2-0.5,4.1,1.2,4.1,3.3c0,1.5-1.1,2.8-2.5,3.2v1.7h0.9V91.4z"/>
			<g class="st16">
				<path class="st18" d="M271.4,93.6h-1.9V94h1.9c0.2,0,0.4-0.2,0.4-0.4c0-0.1,0-0.1-0.1-0.2C271.6,93.6,271.5,93.6,271.4,93.6z"/>
				<path class="st18" d="M269.5,92.6h1c0.2,0,0.4-0.2,0.4-0.4c0-0.1,0-0.1-0.1-0.2c-0.1,0.1-0.2,0.2-0.3,0.2h-1V92.6z"/>
				<path class="st18" d="M269.5,89.7v0.4c1.4-0.4,2.5-1.7,2.5-3.2c0-0.1,0-0.1,0-0.2C271.9,88.2,270.8,89.4,269.5,89.7z"/>
				<path class="st18" d="M267.6,90.1v-0.4c-1.3-0.4-2.3-1.6-2.4-3C265.2,88.3,266.2,89.6,267.6,90.1z"/>
				<polygon class="st18" points="268.6,78.9 260.1,82.2 260.1,82.6 268.6,79.3 277.2,82.6 277.2,82.2 				"/>
				<path class="st18" d="M267.6,95.4c0,0.5,0.4,0.9,0.9,0.9s0.9-0.4,0.9-0.8h1.9c0.2,0,0.4-0.2,0.4-0.4c0-0.1,0-0.1-0.1-0.2
					c-0.1,0.1-0.2,0.2-0.3,0.2h-1.9c0,0.5-0.4,0.8-0.9,0.8s-0.9-0.4-0.9-0.9V95.4z"/>
			</g>
		</g>
		<g>
			<path class="st18" d="M242,82.6l-2.1,0.8v1.9c0.3,2,2.1,2.4,2.1,2.4s1.8-0.4,2.1-2.4v-1.9L242,82.6z M242.4,85.6
				C242.5,85.6,242.5,85.6,242.4,85.6c0.1,0.1,0,0.2,0,0.2h-0.2V86h0.5c0,0,0.1,0,0.1,0.1c0,0,0,0.1-0.1,0.1h-0.5v0.2h0.5
				c0,0,0.1,0,0.1,0.1c0,0,0,0.1-0.1,0.1h-0.5c0,0.1-0.1,0.2-0.2,0.2c-0.1,0-0.2-0.1-0.2-0.2v-1.3c-0.4-0.1-0.6-0.5-0.6-0.9
				c0.1-0.3,0.3-0.6,0.6-0.6c0.5-0.1,1,0.3,1,0.8c0,0.4-0.3,0.7-0.6,0.8v0.4h0.2V85.6z"/>
			<g class="st16">
				<path class="st18" d="M242.6,86.1h-0.5v0.1L242.6,86.1C242.7,86.2,242.7,86.2,242.6,86.1C242.7,86.1,242.7,86.1,242.6,86.1
					C242.7,86.1,242.7,86.1,242.6,86.1z"/>
				<path class="st18" d="M242.2,85.9h0.2c0,0,0.1,0,0.1-0.1l0,0c0,0,0,0-0.1,0L242.2,85.9L242.2,85.9z"/>
				<path class="st18" d="M242.2,85.2L242.2,85.2c0.3,0,0.6-0.3,0.6-0.7l0,0C242.8,84.8,242.5,85.1,242.2,85.2z"/>
				<path class="st18" d="M241.7,85.3L241.7,85.3c-0.3-0.2-0.5-0.5-0.6-0.8C241.1,84.8,241.4,85.2,241.7,85.3z"/>
				<polygon class="st18" points="242,82.6 239.9,83.4 239.9,83.5 242,82.6 244,83.5 244,83.4 				"/>
				<path class="st18" d="M241.7,86.6c0,0.1,0.1,0.2,0.2,0.2c0.1,0,0.2-0.1,0.2-0.2h0.5c0,0,0.1,0,0.1-0.1l0,0c0,0,0,0-0.1,0h-0.5
					c0,0.1-0.1,0.2-0.2,0.2S241.7,86.6,241.7,86.6L241.7,86.6z"/>
			</g>
		</g>
		<g>
			<path class="st18" d="M258.8,133.6l-7.1,2.8v6.5c0.9,6.8,7.1,8.2,7.1,8.2s6.3-1.4,7.1-8.2v-6.5L258.8,133.6z"/>
			<polygon class="st29" points="258.8,133.6 251.6,136.4 251.6,136.6 258.8,133.8 265.9,136.6 265.9,136.4 			"/>
			<g>
				<g>
					<g>
						<polygon class="st9" points="257.2,146.8 253.2,142.9 255,141.1 257.2,143.3 262.5,137.9 264.3,139.7 						"/>
					</g>
				</g>
				<polygon class="st30" points="255,141.2 257.2,143.4 262.5,138 264.3,139.8 264.3,139.7 262.5,137.9 257.2,143.3 255,141.1 
					253.2,142.9 253.3,142.9 				"/>
			</g>
		</g>
		<g>
			<path class="st18" d="M218.6,90l-4.9,1.9v4.5c0.6,4.7,4.9,5.7,4.9,5.7s4.3-1,4.9-5.7v-4.5L218.6,90z"/>
			<polygon class="st29" points="218.6,90 213.7,91.9 213.7,92.1 218.6,90.1 223.6,92.1 223.6,91.9 			"/>
			<g>
				<g>
					<g>
						<polygon class="st9" points="217.5,99.1 214.8,96.4 216,95.2 217.5,96.7 221.2,93 222.5,94.2 						"/>
					</g>
				</g>
				<polygon class="st30" points="216,95.3 217.5,96.8 221.2,93.1 222.4,94.3 222.5,94.2 221.2,93 217.5,96.7 216,95.2 214.8,96.4 
					214.8,96.4 				"/>
			</g>
		</g>
	</g>
</g>
</svg>
