<?xml version="1.0" encoding="utf-8"?>
<!-- Generator: Adobe Illustrator 23.0.1, SVG Export Plug-In . SVG Version: 6.00 Build 0)  -->
<svg version="1.1" id="Layer_1" xmlns="http://www.w3.org/2000/svg" xmlns:xlink="http://www.w3.org/1999/xlink" x="0px" y="0px"
	 viewBox="0 0 500 250" style="enable-background:new 0 0 500 250;" xml:space="preserve">
<style type="text/css">
	.st0{fill:url(#SVGID_2_);}
	.st1{opacity:0.5;fill:#42E8E0;}
	.st2{fill:#42E8E0;}
	.st3{fill:url(#SVGID_3_);}
	.st4{fill:url(#SVGID_4_);}
	.st5{fill:url(#SVGID_5_);}
	.st6{fill:#24126A;}
	.st7{opacity:0.51;}
	.st8{fill:#453C9E;}
	.st9{fill:url(#SVGID_6_);}
	.st10{fill:url(#SVGID_7_);}
	.st11{fill:#2842A2;}
	.st12{fill:#ADB1F2;}
	.st13{fill:#9198DB;}
	.st14{fill:url(#SVGID_8_);}
	.st15{opacity:0.11;}
	.st16{clip-path:url(#SVGID_9_);}
	.st17{fill:url(#SVGID_10_);}
	.st18{fill:url(#SVGID_11_);}
	.st19{opacity:0.42;fill:url(#SVGID_12_);}
	.st20{opacity:0.42;fill:url(#SVGID_13_);}
	.st21{fill:url(#SVGID_14_);}
	.st22{fill:url(#SVGID_15_);}
	.st23{opacity:0.6;fill:#24126A;}
	.st24{opacity:0.96;fill:url(#SVGID_16_);}
	.st25{opacity:0.8;fill:#453C9E;}
	.st26{opacity:0.32;}
	.st27{fill:#4553C7;}
	.st28{fill:url(#SVGID_17_);}
	.st29{fill:url(#SVGID_18_);}
	.st30{fill:url(#SVGID_19_);}
	.st31{opacity:0.3;fill:url(#SVGID_20_);}
	.st32{opacity:0.5;fill:#FFFFFF;}
	.st33{fill:url(#SVGID_21_);}
	.st34{fill:url(#SVGID_22_);}
	.st35{fill:url(#SVGID_23_);}
	.st36{fill:url(#SVGID_24_);}
	.st37{fill:url(#SVGID_25_);}
	.st38{fill:url(#SVGID_26_);}
	.st39{fill:url(#SVGID_27_);}
	.st40{fill:url(#SVGID_28_);}
	.st41{fill:url(#SVGID_29_);}
	.st42{fill:url(#SVGID_30_);}
	.st43{fill:url(#SVGID_31_);}
	.st44{fill:url(#SVGID_32_);}
	.st45{fill:url(#SVGID_33_);}
	.st46{fill:url(#SVGID_34_);}
	.st47{fill:url(#SVGID_35_);}
	.st48{fill:url(#SVGID_36_);}
	.st49{fill:#FFFFFF;}
	.st50{fill:url(#SVGID_37_);}
	.st51{fill:url(#SVGID_38_);}
	.st52{fill:url(#SVGID_39_);}
	.st53{opacity:0.48;fill:url(#SVGID_40_);}
	.st54{opacity:0.48;fill:url(#SVGID_41_);}
	.st55{opacity:0.48;fill:url(#SVGID_42_);}
	.st56{fill:url(#SVGID_43_);}
	.st57{fill:url(#SVGID_44_);}
	.st58{opacity:0.5;fill:url(#SVGID_45_);}
	.st59{opacity:0.48;fill:url(#SVGID_46_);}
	.st60{fill:#BCBEFF;}
</style>
<g>
	
		<radialGradient id="SVGID_2_" cx="164.6" cy="122.2" r="200" gradientTransform="matrix(1.25 0 0 -0.625 44.25 201.375)" gradientUnits="userSpaceOnUse">
		<stop  offset="0" style="stop-color:#3399FF"/>
		<stop  offset="0.2823" style="stop-color:#3390F6"/>
		<stop  offset="0.7501" style="stop-color:#3376DC"/>
		<stop  offset="1" style="stop-color:#3366CC"/>
	</radialGradient>
	<rect class="st0" width="500" height="250"/>
</g>
<g>
	<g>
		<polygon class="st1" points="269.5,64.8 264.4,61.8 264.4,60.7 269.5,63.7 		"/>
		<polygon class="st1" points="272.1,66.3 270.3,65.3 270.3,64.1 272.1,65.2 		"/>
		<polygon class="st1" points="274.1,67.5 272.9,66.8 272.9,65.6 274.1,66.4 		"/>
		<polygon class="st1" points="267.2,66 264.4,64.4 264.4,63.3 267.2,64.9 		"/>
		<polygon class="st1" points="271.4,68.4 267.9,66.5 267.9,65.4 271.4,67.3 		"/>
		<polygon class="st1" points="273.4,69.6 272.1,68.9 272.1,67.8 273.4,68.5 		"/>
		<polygon class="st1" points="275.3,70.7 274.1,70 274.1,68.9 275.3,69.6 		"/>
		<polygon class="st2" points="266.4,68.1 264.4,67 264.4,65.9 266.4,67 		"/>
		<polygon class="st2" points="267.9,69 267.2,68.6 267.2,67.5 267.9,67.9 		"/>
		<polygon class="st1" points="269.9,70.2 268.6,69.4 268.6,68.3 269.9,69 		"/>
		<polygon class="st1" points="271.8,73.8 264.4,69.5 264.4,68.4 271.8,72.7 		"/>
		<polygon class="st1" points="274.4,75.4 272.6,74.3 272.6,73.2 274.4,74.2 		"/>
		<polygon class="st1" points="266.4,73.3 264.4,72.1 264.4,71 266.4,72.1 		"/>
		<polygon class="st1" points="271.1,76 267.2,73.7 267.2,72.6 271.1,74.9 		"/>
		<polygon class="st1" points="273.2,77.2 271.9,76.5 271.9,75.3 273.2,76.1 		"/>
		<polygon class="st1" points="268.5,77.1 264.4,74.7 264.4,73.6 268.5,75.9 		"/>
		<polygon class="st2" points="272.3,79.2 269.3,77.5 269.3,76.4 272.3,78.1 		"/>
		<polygon class="st1" points="275.1,80.8 273,79.7 273,78.6 275.1,79.7 		"/>
		<polygon class="st1" points="265.8,78 264.4,77.2 264.4,76.1 265.8,76.9 		"/>
		<polygon class="st1" points="268.4,79.6 266.6,78.5 266.6,77.4 268.4,78.4 		"/>
		<polygon class="st1" points="272.1,81.7 269.2,80 269.2,78.9 272.1,80.6 		"/>
		<polygon class="st1" points="268.6,82.3 264.4,79.8 264.4,78.7 268.6,81.1 		"/>
		<polygon class="st1" points="273.4,85 269.4,82.7 269.4,81.6 273.4,83.9 		"/>
		<polygon class="st2" points="275.5,86.2 274.2,85.5 274.2,84.4 275.5,85.1 		"/>
		<polygon class="st1" points="277.4,87.3 276.2,86.6 276.2,85.5 277.4,86.2 		"/>
		<polygon class="st1" points="266.9,83.8 264.4,82.4 264.4,81.2 266.9,82.7 		"/>
		<polygon class="st2" points="277.6,69.5 281.2,71.5 281.2,70.4 277.6,68.4 		"/>
		<polygon class="st1" points="278.4,72.5 281.2,74.1 281.2,73 278.4,71.4 		"/>
		<polygon class="st1" points="279.2,75.5 281.2,76.7 281.2,75.6 279.2,74.4 		"/>
		<polygon class="st1" points="278.2,77.5 281.2,79.2 281.2,78.1 278.2,76.4 		"/>
		<polygon class="st1" points="279.2,80.6 281.2,81.8 281.2,80.7 279.2,79.5 		"/>
		<polygon class="st1" points="278.6,82.9 281.2,84.4 281.2,83.2 278.6,81.8 		"/>
		<polygon class="st1" points="279.8,86.1 281.2,86.9 281.2,85.8 279.8,85 		"/>
		<polygon class="st1" points="278.5,87.9 281.2,89.5 281.2,88.4 278.5,86.8 		"/>
		<polygon class="st1" points="278.6,90.6 281.2,92.1 281.2,90.9 278.6,89.5 		"/>
		<polygon class="st1" points="268.8,84.9 267.7,84.3 267.7,83.2 268.8,83.8 		"/>
		<polygon class="st1" points="272,86.8 269.6,85.4 269.6,84.3 272,85.7 		"/>
		<polygon class="st1" points="289.3,76.2 284.2,73.3 284.2,72.1 289.3,75.1 		"/>
		<polygon class="st1" points="291.9,77.7 290.1,76.7 290.1,75.5 291.9,76.6 		"/>
		<polygon class="st2" points="294,78.9 292.7,78.2 292.7,77 294,77.8 		"/>
		<polygon class="st1" points="287,77.4 284.2,75.8 284.2,74.7 287,76.3 		"/>
		<polygon class="st1" points="291.2,79.8 287.8,77.9 287.8,76.8 291.2,78.7 		"/>
		<polygon class="st2" points="293.2,81 292,80.3 292,79.2 293.2,79.9 		"/>
		<polygon class="st1" points="295.2,82.1 293.9,81.4 293.9,80.3 295.2,81 		"/>
		<polygon class="st1" points="286.2,79.5 284.2,78.4 284.2,77.3 286.2,78.4 		"/>
		<polygon class="st1" points="287.7,80.4 287,80 287,78.9 287.7,79.3 		"/>
		<polygon class="st1" points="289.7,81.6 288.5,80.8 288.5,79.7 289.7,80.4 		"/>
		<polygon class="st1" points="291.6,85.2 284.2,80.9 284.2,79.8 291.6,84.1 		"/>
		<polygon class="st1" points="294.3,86.8 292.4,85.7 292.4,84.6 294.3,85.6 		"/>
		<polygon class="st1" points="286.2,84.7 284.2,83.5 284.2,82.4 286.2,83.6 		"/>
		<polygon class="st1" points="291,87.4 287,85.1 287,84 291,86.3 		"/>
		<polygon class="st1" points="293,88.6 291.7,87.9 291.7,86.7 293,87.5 		"/>
		<polygon class="st2" points="288.3,88.5 284.2,86.1 284.2,85 288.3,87.3 		"/>
		<polygon class="st1" points="292.1,90.6 289.1,88.9 289.1,87.8 292.1,89.5 		"/>
		<polygon class="st1" points="294.9,92.2 292.9,91.1 292.9,90 294.9,91.1 		"/>
		<polygon class="st1" points="285.6,89.4 284.2,88.6 284.2,87.5 285.6,88.3 		"/>
		<polygon class="st1" points="288.2,91 286.4,89.9 286.4,88.8 288.2,89.8 		"/>
		<polygon class="st2" points="292,93.1 289,91.4 289,90.3 292,92 		"/>
		<polygon class="st1" points="288.5,93.7 284.2,91.2 284.2,90.1 288.5,92.5 		"/>
		<polygon class="st1" points="293.3,96.4 289.3,94.1 289.3,93 293.3,95.3 		"/>
		<polygon class="st1" points="295.3,97.6 294,96.9 294,95.8 295.3,96.5 		"/>
		<polygon class="st1" points="297.2,98.7 296,98 296,96.9 297.2,97.6 		"/>
		<polygon class="st1" points="286.8,95.2 284.2,93.8 284.2,92.6 286.8,94.1 		"/>
		<polygon class="st2" points="297.5,80.9 301,82.9 301,81.8 297.5,79.8 		"/>
		<polygon class="st1" points="298.2,83.9 301,85.5 301,84.4 298.2,82.8 		"/>
		<polygon class="st1" points="299,86.9 301,88.1 301,87 299,85.8 		"/>
		<polygon class="st1" points="298.1,88.9 301,90.6 301,89.5 298.1,87.8 		"/>
		<polygon class="st1" points="299,92 301,93.2 301,92.1 299,90.9 		"/>
		<polygon class="st1" points="298.4,94.3 301,95.8 301,94.6 298.4,93.2 		"/>
		<polygon class="st1" points="299.6,97.5 301,98.3 301,97.2 299.6,96.4 		"/>
		<polygon class="st1" points="298.3,99.3 301,100.9 301,99.8 298.3,98.2 		"/>
		<polygon class="st1" points="298.4,102 301,103.5 301,102.3 298.4,100.9 		"/>
		<polygon class="st2" points="288.6,96.3 287.5,95.7 287.5,94.6 288.6,95.2 		"/>
		<polygon class="st1" points="291.9,98.2 289.4,96.8 289.4,95.7 291.9,97.1 		"/>
		<polygon class="st1" points="269.5,87.9 264.4,84.9 264.4,83.8 269.5,86.8 		"/>
		<polygon class="st1" points="272.1,89.4 270.3,88.4 270.3,87.2 272.1,88.3 		"/>
		<polygon class="st1" points="274.1,90.6 272.9,89.9 272.9,88.7 274.1,89.5 		"/>
		<polygon class="st1" points="267.2,89.1 264.4,87.5 264.4,86.4 267.2,88 		"/>
		<polygon class="st1" points="271.4,91.5 267.9,89.6 267.9,88.4 271.4,90.4 		"/>
		<polygon class="st1" points="273.4,92.7 272.1,92 272.1,90.9 273.4,91.6 		"/>
		<polygon class="st1" points="275.3,93.8 274.1,93.1 274.1,92 275.3,92.7 		"/>
		<polygon class="st1" points="266.4,91.2 264.4,90.1 264.4,89 266.4,90.1 		"/>
		<polygon class="st1" points="267.9,92.1 267.2,91.7 267.2,90.6 267.9,91 		"/>
		<polygon class="st1" points="269.9,93.3 268.6,92.5 268.6,91.4 269.9,92.1 		"/>
		<polygon class="st1" points="271.8,96.9 264.4,92.6 264.4,91.5 271.8,95.8 		"/>
		<polygon class="st1" points="274.4,98.5 272.6,97.4 272.6,96.3 274.4,97.3 		"/>
		<polygon class="st1" points="266.4,96.4 264.4,95.2 264.4,94.1 266.4,95.2 		"/>
		<polygon class="st1" points="271.1,99.1 267.2,96.8 267.2,95.7 271.1,98 		"/>
		<polygon class="st1" points="273.2,100.3 271.9,99.6 271.9,98.4 273.2,99.2 		"/>
		<polygon class="st1" points="268.5,100.2 264.4,97.8 264.4,96.6 268.5,99 		"/>
		<polygon class="st1" points="272.3,102.3 269.3,100.6 269.3,99.5 272.3,101.2 		"/>
		<polygon class="st1" points="275.1,103.9 273,102.8 273,101.7 275.1,102.8 		"/>
		<polygon class="st1" points="265.8,101.1 264.4,100.3 264.4,99.2 265.8,100 		"/>
		<polygon class="st1" points="268.4,102.7 266.6,101.6 266.6,100.5 268.4,101.5 		"/>
		<polygon class="st1" points="272.1,104.8 269.2,103.1 269.2,102 272.1,103.7 		"/>
		<polygon class="st1" points="268.6,105.4 264.4,102.9 264.4,101.8 268.6,104.2 		"/>
		<polygon class="st1" points="273.4,108.1 269.4,105.8 269.4,104.7 273.4,107 		"/>
		<polygon class="st1" points="275.5,109.3 274.2,108.6 274.2,107.5 275.5,108.2 		"/>
		<polygon class="st1" points="277.4,110.4 276.2,109.7 276.2,108.6 277.4,109.3 		"/>
		<polygon class="st1" points="266.9,106.9 264.4,105.5 264.4,104.3 266.9,105.8 		"/>
		<polygon class="st1" points="277.6,92.6 281.2,94.6 281.2,93.5 277.6,91.5 		"/>
		<polygon class="st1" points="278.4,95.6 281.2,97.2 281.2,96.1 278.4,94.5 		"/>
		<polygon class="st1" points="279.2,98.6 281.2,99.8 281.2,98.7 279.2,97.5 		"/>
		<polygon class="st1" points="278.2,100.6 281.2,102.3 281.2,101.2 278.2,99.5 		"/>
		<polygon class="st1" points="279.2,103.7 281.2,104.9 281.2,103.8 279.2,102.6 		"/>
		<polygon class="st1" points="278.6,106 281.2,107.5 281.2,106.3 278.6,104.9 		"/>
		<polygon class="st1" points="279.8,109.2 281.2,110 281.2,108.9 279.8,108.1 		"/>
		<polygon class="st1" points="278.5,111 281.2,112.6 281.2,111.5 278.5,109.9 		"/>
		<polygon class="st1" points="278.6,113.7 281.2,115.2 281.2,114 278.6,112.6 		"/>
		<polygon class="st1" points="268.8,108 267.7,107.4 267.7,106.3 268.8,106.9 		"/>
		<polygon class="st1" points="272,109.9 269.6,108.5 269.6,107.3 272,108.8 		"/>
		<polygon class="st1" points="274.1,118.5 269.9,116.1 269.9,115 274.1,117.4 		"/>
		<polygon class="st1" points="276.9,120.1 275.3,119.2 275.3,118.1 276.9,119 		"/>
		<polygon class="st1" points="289.3,99.3 284.2,96.4 284.2,95.2 289.3,98.2 		"/>
		<polygon class="st1" points="291.9,100.8 290.1,99.8 290.1,98.6 291.9,99.7 		"/>
		<polygon class="st1" points="294,102 292.7,101.3 292.7,100.1 294,100.9 		"/>
		<polygon class="st1" points="287,100.5 284.2,98.9 284.2,97.8 287,99.4 		"/>
		<polygon class="st1" points="291.2,102.9 287.8,101 287.8,99.9 291.2,101.8 		"/>
		<polygon class="st1" points="293.2,104.1 292,103.4 292,102.3 293.2,103 		"/>
		<polygon class="st1" points="295.2,105.2 293.9,104.5 293.9,103.4 295.2,104.1 		"/>
		<polygon class="st1" points="286.2,102.6 284.2,101.5 284.2,100.4 286.2,101.5 		"/>
		<polygon class="st1" points="287.7,103.5 287,103.1 287,102 287.7,102.4 		"/>
		<polygon class="st1" points="289.7,104.7 288.5,103.9 288.5,102.8 289.7,103.5 		"/>
		<polygon class="st1" points="291.6,108.3 284.2,104 284.2,102.9 291.6,107.2 		"/>
		<polygon class="st1" points="294.3,109.9 292.4,108.8 292.4,107.7 294.3,108.7 		"/>
		<polygon class="st1" points="286.2,107.8 284.2,106.6 284.2,105.5 286.2,106.7 		"/>
		<polygon class="st1" points="291,110.5 287,108.2 287,107.1 291,109.4 		"/>
		<polygon class="st1" points="293,111.7 291.7,111 291.7,109.8 293,110.6 		"/>
		<polygon class="st1" points="288.3,111.6 284.2,109.2 284.2,108.1 288.3,110.4 		"/>
		<polygon class="st1" points="292.1,113.7 289.1,112 289.1,110.9 292.1,112.6 		"/>
		<polygon class="st1" points="294.9,115.3 292.9,114.2 292.9,113.1 294.9,114.2 		"/>
		<polygon class="st1" points="285.6,112.5 284.2,111.7 284.2,110.6 285.6,111.4 		"/>
		<polygon class="st1" points="288.2,114.1 286.4,113 286.4,111.9 288.2,112.9 		"/>
		<polygon class="st1" points="292,116.2 289,114.5 289,113.4 292,115.1 		"/>
		<polygon class="st1" points="288.5,116.8 284.2,114.3 284.2,113.2 288.5,115.6 		"/>
		<polygon class="st1" points="293.3,119.5 289.3,117.2 289.3,116.1 293.3,118.4 		"/>
		<polygon class="st1" points="295.3,120.7 294,120 294,118.9 295.3,119.6 		"/>
		<polygon class="st1" points="297.2,121.8 296,121.1 296,120 297.2,120.7 		"/>
		<polygon class="st1" points="286.8,118.3 284.2,116.9 284.2,115.7 286.8,117.2 		"/>
		<polygon class="st1" points="297.5,104 301,106 301,104.9 297.5,102.9 		"/>
		<polygon class="st1" points="298.2,107 301,108.6 301,107.5 298.2,105.9 		"/>
		<polygon class="st1" points="299,110 301,111.2 301,110.1 299,108.9 		"/>
		<polygon class="st1" points="298.1,112 301,113.7 301,112.6 298.1,110.9 		"/>
		<polygon class="st1" points="299,115.1 301,116.3 301,115.2 299,114 		"/>
		<polygon class="st1" points="298.4,117.4 301,118.9 301,117.7 298.4,116.3 		"/>
		<polygon class="st1" points="299.6,120.6 301,121.4 301,120.3 299.6,119.5 		"/>
		<polygon class="st1" points="298.3,122.4 301,124 301,122.9 298.3,121.3 		"/>
		<polygon class="st1" points="298.4,125.1 301,126.6 301,125.4 298.4,124 		"/>
		<polygon class="st1" points="288.6,119.4 287.5,118.8 287.5,117.7 288.6,118.3 		"/>
		<polygon class="st1" points="291.9,121.3 289.4,119.9 289.4,118.8 291.9,120.2 		"/>
		<polygon class="st1" points="293.9,129.9 289.8,127.5 289.8,126.4 293.9,128.8 		"/>
		<polygon class="st1" points="296.7,131.5 295.1,130.6 295.1,129.5 296.7,130.4 		"/>
	</g>
	<g>
		<g>
			<g>
				<g>
					<g>
						<g>
							
								<linearGradient id="SVGID_3_" gradientUnits="userSpaceOnUse" x1="-2732.9993" y1="144.6931" x2="-2648.6423" y2="144.6931" gradientTransform="matrix(-1 0 0 1 -2433.0891 0)">
								<stop  offset="0" style="stop-color:#5761D7"/>
								<stop  offset="7.257748e-02" style="stop-color:#5472D8"/>
								<stop  offset="0.2791" style="stop-color:#4E9CDB"/>
								<stop  offset="0.4801" style="stop-color:#49BDDD"/>
								<stop  offset="0.6715" style="stop-color:#45D5DF"/>
								<stop  offset="0.8493" style="stop-color:#43E3E0"/>
								<stop  offset="1" style="stop-color:#42E8E0"/>
							</linearGradient>
							<path class="st3" d="M247.2,169.3c-0.8,0-1.6-0.2-2.3-0.6L216.1,152c-0.3-0.2-0.5-0.5-0.5-0.9c0-0.4,0.2-0.7,0.5-0.9l51.9-30
								c0.1-0.1,0.3-0.1,0.4,0l31,17.9c0.3,0.2,0.5,0.5,0.5,0.9c0,0.4-0.2,0.7-0.5,0.9l-49.8,28.8
								C248.8,169.1,248,169.3,247.2,169.3z M268.2,121l-51.7,29.9c-0.1,0.1-0.1,0.2-0.1,0.2c0,0,0,0.2,0.1,0.2l28.8,16.6
								c1.2,0.7,2.7,0.7,3.8,0l49.8-28.8c0.1-0.1,0.1-0.2,0.1-0.2c0,0,0-0.2-0.1-0.2L268.2,121z"/>
						</g>
						<g>
							<g>
								
									<linearGradient id="SVGID_4_" gradientUnits="userSpaceOnUse" x1="1522.3883" y1="103.3514" x2="1586.467" y2="103.3514" gradientTransform="matrix(1 0 0 1 -1319.8503 0)">
									<stop  offset="0" style="stop-color:#C0BFF6"/>
									<stop  offset="0.2938" style="stop-color:#C5C4F7"/>
									<stop  offset="0.6399" style="stop-color:#D3D2F9"/>
									<stop  offset="1" style="stop-color:#E9E9FD"/>
								</linearGradient>
								<path class="st4" d="M266.6,107.3l-6.9-41.2l0.6-0.2l-0.8-0.5l0,0c-0.2-0.1-0.4-0.1-0.6,0l-55.5,32
									c-0.5,0.3-0.8,0.9-0.7,1.4l7,41.5c0,0.2,0.1,0.4,0.3,0.4l0,0l0.8,0.5l0.1-0.8l0,0l55.1-31.8
									C266.3,108.5,266.7,107.8,266.6,107.3z"/>
								
									<linearGradient id="SVGID_5_" gradientUnits="userSpaceOnUse" x1="1522.3888" y1="119.7846" x2="1533.3917" y2="119.7846" gradientTransform="matrix(1 0 0 1 -1319.8503 0)">
									<stop  offset="0" style="stop-color:#5761D7"/>
									<stop  offset="0.1779" style="stop-color:#5C66D9"/>
									<stop  offset="0.3876" style="stop-color:#6A73DF"/>
									<stop  offset="0.6134" style="stop-color:#8289E8"/>
									<stop  offset="0.849" style="stop-color:#A3A7F5"/>
									<stop  offset="1" style="stop-color:#BCBEFF"/>
								</linearGradient>
								<path class="st5" d="M203.6,98.6l-0.9-0.4c-0.1,0.2-0.2,0.5-0.1,0.7l7,41.5c0,0.2,0.1,0.4,0.3,0.4l0,0l0.8,0.5l0.1-0.8l0,0
									l2.8-1.6L203.6,98.6z"/>
								<path class="st6" d="M266.8,109.2l-55.5,32c-0.4,0.2-0.8,0.1-0.9-0.3l-7-41.5c-0.1-0.5,0.3-1.1,0.7-1.4l55.5-32
									c0.4-0.2,0.8-0.1,0.9,0.3l7,41.5C267.6,108.3,267.2,109,266.8,109.2z"/>
								<g class="st7">
									<polygon class="st8" points="258.9,68.6 205.4,99.5 212,138.6 265.5,107.8 									"/>
								</g>
							</g>
							<g>
								
									<linearGradient id="SVGID_6_" gradientUnits="userSpaceOnUse" x1="1530.9734" y1="138.2576" x2="1621.4734" y2="138.2576" gradientTransform="matrix(1 0 0 1 -1319.8503 0)">
									<stop  offset="0" style="stop-color:#5761D7"/>
									<stop  offset="0.1779" style="stop-color:#5C66D9"/>
									<stop  offset="0.3876" style="stop-color:#6A73DF"/>
									<stop  offset="0.6134" style="stop-color:#8289E8"/>
									<stop  offset="0.849" style="stop-color:#A3A7F5"/>
									<stop  offset="1" style="stop-color:#BCBEFF"/>
								</linearGradient>
								<path class="st9" d="M301.6,128.9l-3,1.6L268.2,113c-0.5-0.3-1.4-0.3-2,0.1l-52.4,30.2c-0.5-0.3-2.8-1.4-2.8-1.4l1.1,2.9
									c0,0,0,0,0,0c0,0.1,0.1,0.2,0.3,0.3l32,18.5c0.5,0.3,1.4,0.3,2-0.1l53.6-30.9c0.2-0.1,0.4-0.3,0.4-0.5l0,0L301.6,128.9z"/>
								
									<linearGradient id="SVGID_7_" gradientUnits="userSpaceOnUse" x1="1561.3817" y1="135.2399" x2="1651.9299" y2="135.2399" gradientTransform="matrix(1 0 0 1 -1319.8503 0)">
									<stop  offset="0" style="stop-color:#C0BFF6"/>
									<stop  offset="0.2938" style="stop-color:#C5C4F7"/>
									<stop  offset="0.6399" style="stop-color:#D3D2F9"/>
									<stop  offset="1" style="stop-color:#E9E9FD"/>
								</linearGradient>
								<path class="st10" d="M301.2,129.4l-54.9,31.7c-0.6,0.3-1.5,0.4-2,0.1l-32.8-18.9c-0.5-0.3-0.5-0.8,0.1-1.2l54.9-31.7
									c0.6-0.3,1.5-0.4,2-0.1l32.8,18.9C301.8,128.5,301.8,129,301.2,129.4z"/>
								<path class="st11" d="M229.7,154.2v-0.6c0-0.1,0-0.1,0.1-0.1l2.1,1.2c0,0,0.1,0.1,0.1,0.1v0.6c0,0.1,0,0.1-0.1,0.1l-2.1-1.2
									C229.7,154.4,229.7,154.3,229.7,154.2z"/>
								<path class="st11" d="M232.9,156.1v-0.6c0-0.1,0-0.1,0.1-0.1l2.1,1.2c0,0,0.1,0.1,0.1,0.1v0.6c0,0.1,0,0.1-0.1,0.1l-2.1-1.2
									C232.9,156.2,232.9,156.1,232.9,156.1z"/>
								<path class="st12" d="M220,140.5l45.6-26.3c0.3-0.2,0.7-0.2,1,0l16.2,9.4c0.2,0.1,0.2,0.5,0,0.6l-45.6,26.3
									c-0.3,0.2-0.7,0.2-1,0l-16.3-9.4C219.8,141,219.8,140.6,220,140.5z"/>
								<path class="st13" d="M220,141.1l0.2,0.1l45.5-26.2c0.3-0.2,0.7-0.2,1,0l16.1,9.3l0.2-0.1c0.2-0.1,0.2-0.5,0-0.6l-16.2-9.4
									c-0.3-0.2-0.7-0.2-1,0L220,140.5C219.8,140.6,219.8,141,220,141.1z"/>
								<g>
									<polygon class="st6" points="267.8,116.5 228.2,139.4 226.4,138.4 266.1,115.5 									"/>
									<polygon class="st6" points="272.2,119 235,140.5 233.2,139.5 270.4,118 									"/>
									<polygon class="st6" points="275,120.6 231.2,145.9 229.4,144.9 273.2,119.6 									"/>
									<polygon class="st6" points="277.8,122.3 234,147.5 232.2,146.5 276,121.3 									"/>
									<polygon class="st6" points="280.6,123.9 236.8,149.2 235.1,148.1 278.8,122.9 									"/>
									<polygon class="st6" points="225.8,140.8 224,141.8 222.3,140.8 224,139.8 									"/>
									<polygon class="st6" points="232,142.2 228.4,144.3 226.6,143.3 230.3,141.2 									"/>
								</g>
								
									<linearGradient id="SVGID_8_" gradientUnits="userSpaceOnUse" x1="1576.7159" y1="140.3802" x2="1599.8938" y2="140.3802" gradientTransform="matrix(1 0 0 1 -1319.8503 0)">
									<stop  offset="0" style="stop-color:#C0BFF6"/>
									<stop  offset="0.2938" style="stop-color:#C5C4F7"/>
									<stop  offset="0.6399" style="stop-color:#D3D2F9"/>
									<stop  offset="1" style="stop-color:#E9E9FD"/>
								</linearGradient>
								<path class="st14" d="M267.4,146.9l12.3-7.1c0.5-0.3,0.5-0.7,0-1l-8.4-4.9c-0.5-0.3-1.3-0.3-1.7,0l-12.3,7.1
									c-0.5,0.3-0.5,0.7,0,1l8.4,4.9C266.1,147.1,266.9,147.1,267.4,146.9z"/>
								<path class="st13" d="M257.2,141.4l12.3-7.1c0.5-0.3,1.3-0.3,1.7,0l8.4,4.9c0.1,0.1,0.2,0.2,0.3,0.3c0.1-0.2,0-0.5-0.3-0.7
									l-8.4-4.9c-0.5-0.3-1.3-0.3-1.7,0l-12.3,7.1c-0.3,0.2-0.4,0.5-0.3,0.7C257,141.6,257.1,141.5,257.2,141.4z"/>
							</g>
						</g>
						<g class="st15">
							<defs>
								<polygon id="SVGID_1_" class="st15" points="258.9,68.6 205.4,99.5 212,138.6 265.5,107.8 								"/>
							</defs>
							<clipPath id="SVGID_9_">
								<use xlink:href="#SVGID_1_"  style="overflow:visible;"/>
							</clipPath>
							<g class="st16">
								
									<linearGradient id="SVGID_10_" gradientUnits="userSpaceOnUse" x1="1526.7871" y1="115.1702" x2="1617.3353" y2="115.1702" gradientTransform="matrix(1 0 0 1 -1319.8503 0)">
									<stop  offset="0" style="stop-color:#C0BFF6"/>
									<stop  offset="0.2938" style="stop-color:#C5C4F7"/>
									<stop  offset="0.6399" style="stop-color:#D3D2F9"/>
									<stop  offset="1" style="stop-color:#E9E9FD"/>
								</linearGradient>
								<path class="st17" d="M266.6,109.3L211.7,141c-0.6,0.3-1.5,0.4-2,0.1l-32.8-18.9c-0.5-0.3-0.5-0.8,0.1-1.2l54.9-31.7
									c0.6-0.3,1.5-0.4,2-0.1l32.8,18.9C267.2,108.5,267.2,109,266.6,109.3z"/>
								
									<linearGradient id="SVGID_11_" gradientUnits="userSpaceOnUse" x1="1520.8275" y1="108.5233" x2="1544.0052" y2="108.5233" gradientTransform="matrix(1 0 0 1 -1319.8503 0)">
									<stop  offset="0" style="stop-color:#C0BFF6"/>
									<stop  offset="0.2938" style="stop-color:#C5C4F7"/>
									<stop  offset="0.6399" style="stop-color:#D3D2F9"/>
									<stop  offset="1" style="stop-color:#E9E9FD"/>
								</linearGradient>
								<path class="st18" d="M211.5,115l12.3-7.1c0.5-0.3,0.5-0.7,0-1l-8.4-4.9c-0.5-0.3-1.3-0.3-1.7,0l-12.3,7.1
									c-0.5,0.3-0.5,0.7,0,1l8.4,4.9C210.2,115.3,211,115.3,211.5,115z"/>
								<path class="st13" d="M201.3,109.6l12.3-7.1c0.5-0.3,1.3-0.3,1.7,0l8.4,4.9c0.1,0.1,0.2,0.2,0.3,0.3c0.1-0.2,0-0.5-0.3-0.7
									l-8.4-4.9c-0.5-0.3-1.3-0.3-1.7,0l-12.3,7.1c-0.3,0.2-0.4,0.5-0.3,0.7C201.1,109.7,201.2,109.6,201.3,109.6z"/>
								<g>
									<path class="st12" d="M195.9,126.1l45.6-26.3c0.3-0.2,0.7-0.2,1,0l16.2,9.4c0.2,0.1,0.2,0.5,0,0.6l-45.6,26.3
										c-0.3,0.2-0.7,0.2-1,0l-16.3-9.4C195.7,126.6,195.7,126.2,195.9,126.1z"/>
									<path class="st13" d="M195.9,126.7l0.2,0.1l45.5-26.2c0.3-0.2,0.7-0.2,1,0l16.1,9.3l0.2-0.1c0.2-0.1,0.2-0.5,0-0.6
										l-16.2-9.4c-0.3-0.2-0.7-0.2-1,0l-45.6,26.3C195.7,126.2,195.7,126.6,195.9,126.7z"/>
									<g>
										<polygon class="st6" points="254.5,108.5 214.8,131.5 216.4,132.4 256.1,109.4 										"/>
										<polygon class="st6" points="250.3,106.1 212.6,127.9 214.1,128.8 251.9,107 										"/>
										<polygon class="st6" points="209.7,129.5 206.2,131.6 207.8,132.5 211.3,130.5 										"/>
										<polygon class="st6" points="212.9,132.6 210.4,134 212,134.9 214.4,133.5 										"/>
										<polygon class="st6" points="247.7,104.6 203.6,130.1 205.2,131 249.3,105.5 										"/>
										<polygon class="st6" points="245.1,103.1 201,128.6 202.5,129.5 246.7,104 										"/>
										<polygon class="st6" points="242.5,101.6 198.3,127 199.9,127.9 244,102.5 										"/>
									</g>
								</g>
							</g>
						</g>
					</g>
				</g>
				
					<radialGradient id="SVGID_12_" cx="1557.3486" cy="126.8256" r="25.9583" gradientTransform="matrix(1 0 0 1 -1319.8503 0)" gradientUnits="userSpaceOnUse">
					<stop  offset="0" style="stop-color:#2B237C"/>
					<stop  offset="1" style="stop-color:#180D5B"/>
				</radialGradient>
				<polygon class="st19" points="241.1,138.1 229.3,130.9 255.9,115.5 268.5,123.9 				"/>
				
					<radialGradient id="SVGID_13_" cx="1551.6711" cy="115.148" r="19.8695" gradientTransform="matrix(1 0 0 1 -1319.8503 0)" gradientUnits="userSpaceOnUse">
					<stop  offset="0" style="stop-color:#2B237C"/>
					<stop  offset="1" style="stop-color:#180D5B"/>
				</radialGradient>
				<polygon class="st20" points="229.3,130.9 226.6,113.7 251.6,99.4 251.6,118 				"/>
				<g>
					<g>
						
							<linearGradient id="SVGID_14_" gradientUnits="userSpaceOnUse" x1="1544.5176" y1="120.8842" x2="1562.0204" y2="89.3678" gradientTransform="matrix(1 0 0 1 -1319.8503 0)">
							<stop  offset="0" style="stop-color:#5761D7"/>
							<stop  offset="3.979178e-02" style="stop-color:#5C66D9"/>
							<stop  offset="8.669901e-02" style="stop-color:#6A73DF"/>
							<stop  offset="0.1372" style="stop-color:#8289E8"/>
							<stop  offset="0.1899" style="stop-color:#A3A7F5"/>
							<stop  offset="0.2237" style="stop-color:#BCBEFF"/>
						</linearGradient>
						<path class="st21" d="M254.2,91.1l-2.6-1.5v0c0,0-0.1,0-0.1,0l-33.1,19.1c-0.1,0.1-0.2,0.2-0.2,0.4v6.2c0,0.1,0,0.1,0.1,0.1
							l0,0l0,0c0,0,0,0,0,0l2.7,1.5l0-3l30.5-17.6c0.1-0.1,0.2-0.2,0.2-0.4v-2.1L254.2,91.1z"/>
						
							<linearGradient id="SVGID_15_" gradientUnits="userSpaceOnUse" x1="1566.0197" y1="120.996" x2="1554.3698" y2="98.2218" gradientTransform="matrix(1 0 0 1 -1319.8503 0)">
							<stop  offset="0" style="stop-color:#C0BFF6"/>
							<stop  offset="0.2938" style="stop-color:#C5C4F7"/>
							<stop  offset="0.6399" style="stop-color:#D3D2F9"/>
							<stop  offset="1" style="stop-color:#E9E9FD"/>
						</linearGradient>
						<path class="st22" d="M254.1,97.9L221,117c-0.1,0.1-0.2,0-0.2-0.1v-6.2c0-0.1,0.1-0.3,0.2-0.4l33.1-19.1
							c0.1-0.1,0.2,0,0.2,0.1v6.2C254.2,97.7,254.2,97.8,254.1,97.9z"/>
						<path class="st23" d="M249.5,96.6l-25.8,15.1c0.8,0.7,1.5,1.5,2.2,2.3l25.9-15C251.2,98.2,250.4,97.4,249.5,96.6z"/>
						<path class="st6" d="M253.1,96l-31.2,18c-0.1,0-0.1,0-0.1-0.1v-1.6c0-0.1,0.1-0.2,0.1-0.3l31.2-18c0.1,0,0.1,0,0.1,0.1v1.6
							C253.2,95.9,253.2,96,253.1,96z"/>
						<path class="st8" d="M253.1,94.1l-0.6,0.4v0.8c0,0.1-0.1,0.2-0.1,0.3l-30.6,17.6v0.7c0,0.1,0.1,0.1,0.1,0.1l31.2-18
							c0.1,0,0.1-0.2,0.1-0.3v-1.6C253.2,94.1,253.2,94.1,253.1,94.1z"/>
					</g>
					
						<linearGradient id="SVGID_16_" gradientUnits="userSpaceOnUse" x1="1597.5076" y1="161.9337" x2="1560.4817" y2="96.3273" gradientTransform="matrix(1 0 0 1 -1319.8503 0)">
						<stop  offset="0" style="stop-color:#C0BFF6"/>
						<stop  offset="7.746546e-02" style="stop-color:#C3C2F6"/>
						<stop  offset="0.1329" style="stop-color:#CCCBF8"/>
						<stop  offset="0.1813" style="stop-color:#DBDBFB"/>
						<stop  offset="0.2117" style="stop-color:#E9E9FD"/>
						<stop  offset="0.2579" style="stop-color:#D8D7FA"/>
						<stop  offset="0.3159" style="stop-color:#CACAF8"/>
						<stop  offset="0.3878" style="stop-color:#C2C1F6"/>
						<stop  offset="0.5143" style="stop-color:#C0BFF6"/>
						<stop  offset="0.6217" style="stop-color:#D0CFF9"/>
						<stop  offset="0.755" style="stop-color:#E9E9FD"/>
						<stop  offset="1" style="stop-color:#C0BFF6"/>
					</linearGradient>
					<path class="st24" d="M270.6,163.6l26-15l0,0c-3.3-1.9-6.2-6.2-7-10.2c-0.3-1.6-1.4-3.1-2.8-3.9l-19.6-11.3
						c-5.5-3.2-9-8.8-9.4-15.1c-0.3-5.3-4.3-10.5-7.5-12.3l0,0l-26,15l0,0c3.1,1.8,6.5,6.7,6.8,12c0.5,6.3,3.9,12,9.4,15.1
						l20.2,11.7c1.5,0.8,2.5,2.3,2.8,3.9C264.5,157.4,267.3,161.7,270.6,163.6L270.6,163.6z"/>
					<path class="st25" d="M250.3,95.7l-26,15c0.2,0.1,0.4,0.3,0.6,0.4l0,0l25.9-15C250.7,96,250.5,95.8,250.3,95.7z"/>
				</g>
			</g>
			<g class="st26">
				<polygon class="st27" points="241,112.8 237.1,115.1 237.1,114.7 241,112.4 				"/>
				<polygon class="st27" points="243.1,111.6 241.7,112.5 241.7,112 243.1,111.2 				"/>
				<polygon class="st27" points="244.7,110.7 243.7,111.3 243.7,110.8 244.7,110.3 				"/>
				<polygon class="st27" points="239.2,114.9 237.1,116.1 237.1,115.7 239.2,114.4 				"/>
				<polygon class="st27" points="242.5,113 239.8,114.5 239.8,114.1 242.5,112.5 				"/>
				<polygon class="st27" points="244.1,112.1 243.1,112.6 243.1,112.2 244.1,111.6 				"/>
				<polygon class="st27" points="245.6,111.2 244.6,111.8 244.6,111.3 245.6,110.8 				"/>
				<polygon class="st27" points="238.6,116.2 237.1,117.1 237.1,116.7 238.6,115.8 				"/>
				<polygon class="st27" points="239.8,115.6 239.2,115.9 239.2,115.4 239.8,115.1 				"/>
				<polygon class="st27" points="241.4,114.7 240.4,115.2 240.4,114.8 241.4,114.2 				"/>
				<polygon class="st27" points="242.9,114.8 237.1,118.2 237.1,117.7 242.9,114.4 				"/>
				<polygon class="st27" points="244.9,113.6 243.5,114.5 243.5,114 244.9,113.2 				"/>
				<polygon class="st27" points="238.6,118.3 237.1,119.2 237.1,118.7 238.6,117.8 				"/>
				<polygon class="st27" points="242.3,116.1 239.2,117.9 239.2,117.5 242.3,115.7 				"/>
				<polygon class="st27" points="243.9,115.2 242.9,115.8 242.9,115.3 243.9,114.8 				"/>
				<polygon class="st27" points="240.3,118.3 237.1,120.2 237.1,119.8 240.3,117.9 				"/>
				<polygon class="st27" points="243.2,116.6 240.9,118 240.9,117.5 243.2,116.2 				"/>
				<polygon class="st27" points="245.4,115.4 243.8,116.3 243.8,115.8 245.4,114.9 				"/>
				<polygon class="st27" points="238.1,120.6 237.1,121.2 237.1,120.8 238.1,120.1 				"/>
				<polygon class="st27" points="240.2,119.4 238.8,120.2 238.8,119.8 240.2,119 				"/>
				<polygon class="st27" points="243.1,117.7 240.8,119.1 240.8,118.6 243.1,117.3 				"/>
				<polygon class="st27" points="240.4,120.3 237.1,122.2 237.1,121.8 240.4,119.9 				"/>
				<polygon class="st27" points="244.1,118.2 241,120 241,119.5 244.1,117.7 				"/>
				<polygon class="st27" points="245.7,117.2 244.7,117.8 244.7,117.4 245.7,116.8 				"/>
				<polygon class="st27" points="247.2,116.4 246.2,116.9 246.2,116.5 247.2,115.9 				"/>
				<polygon class="st27" points="239.1,122.1 237.1,123.2 237.1,122.8 239.1,121.6 				"/>
				<polygon class="st27" points="249.1,108.1 251.9,106.5 251.9,106.1 249.1,107.7 				"/>
				<polygon class="st27" points="249.7,108.8 251.9,107.6 251.9,107.1 249.7,108.4 				"/>
				<polygon class="st27" points="250.3,109.5 251.9,108.6 251.9,108.1 250.3,109 				"/>
				<polygon class="st27" points="249.6,110.9 251.9,109.6 251.9,109.1 249.6,110.5 				"/>
				<polygon class="st27" points="250.3,111.5 251.9,110.6 251.9,110.2 250.3,111.1 				"/>
				<polygon class="st27" points="249.9,112.8 251.9,111.6 251.9,111.2 249.9,112.3 				"/>
				<polygon class="st27" points="250.8,113.3 251.9,112.6 251.9,112.2 250.8,112.8 				"/>
				<polygon class="st27" points="249.8,114.9 251.9,113.7 251.9,113.2 249.8,114.4 				"/>
				<polygon class="st27" points="249.9,115.8 251.9,114.7 251.9,114.2 249.9,115.4 				"/>
				<polygon class="st27" points="240.5,121.3 239.7,121.7 239.7,121.3 240.5,120.8 				"/>
				<polygon class="st27" points="243,119.8 241.1,120.9 241.1,120.5 243,119.4 				"/>
				<polygon class="st27" points="245.2,123.8 242,125.7 242,125.2 245.2,123.4 				"/>
				<polygon class="st27" points="247.4,122.6 246.2,123.3 246.2,122.8 247.4,122.1 				"/>
			</g>
			<g>
				<g>
					<g>
						
							<linearGradient id="SVGID_17_" gradientUnits="userSpaceOnUse" x1="5367.6157" y1="118.6878" x2="5375.8472" y2="118.6878" gradientTransform="matrix(1 0 0 1 -5100.7266 0)">
							<stop  offset="0" style="stop-color:#C0BFF6"/>
							<stop  offset="0.488" style="stop-color:#D2D1F9"/>
							<stop  offset="1" style="stop-color:#E9E9FD"/>
						</linearGradient>
						<path class="st28" d="M275.2,108.7h-8.3v17.7l0,0c0,0.6,0.4,1.2,1.2,1.7c1.6,0.9,4.2,0.9,5.9,0c0.8-0.5,1.2-1.1,1.2-1.7l0,0
							V108.7z"/>
						
							<linearGradient id="SVGID_18_" gradientUnits="userSpaceOnUse" x1="5358.3906" y1="118.6878" x2="5374.2979" y2="118.6878" gradientTransform="matrix(1 0 0 1 -5100.7266 0)">
							<stop  offset="0" style="stop-color:#5761D7"/>
							<stop  offset="0.1779" style="stop-color:#5C66D9"/>
							<stop  offset="0.3876" style="stop-color:#6A73DF"/>
							<stop  offset="0.6134" style="stop-color:#8289E8"/>
							<stop  offset="0.849" style="stop-color:#A3A7F5"/>
							<stop  offset="1" style="stop-color:#BCBEFF"/>
						</linearGradient>
						<path class="st29" d="M275.2,108.7h-8.3v17.7l0,0c0,0.6,0.4,1.2,1.2,1.7c1.6,0.9,4.2,0.9,5.9,0c0.8-0.5,1.2-1.1,1.2-1.7l0,0
							V108.7z"/>
						
							<linearGradient id="SVGID_19_" gradientUnits="userSpaceOnUse" x1="2789.0474" y1="-2568.7146" x2="2795.8071" y2="-2568.7146" gradientTransform="matrix(0.866 0.5 -0.866 0.5 -4371.7202 -3.2043)">
							<stop  offset="0" style="stop-color:#C0BFF6"/>
							<stop  offset="0.2938" style="stop-color:#C5C4F7"/>
							<stop  offset="0.6399" style="stop-color:#D3D2F9"/>
							<stop  offset="1" style="stop-color:#E9E9FD"/>
						</linearGradient>
						<path class="st30" d="M274,110.3c-1.6,0.9-4.2,0.9-5.9,0c-1.6-0.9-1.6-2.4,0-3.4c1.6-0.9,4.2-0.9,5.9,0
							C275.6,107.9,275.6,109.4,274,110.3z"/>
						
							<linearGradient id="SVGID_20_" gradientUnits="userSpaceOnUse" x1="2790.2454" y1="-2568.7146" x2="2794.6091" y2="-2568.7146" gradientTransform="matrix(0.866 0.5 -0.866 0.5 -4371.7202 -3.2043)">
							<stop  offset="0" style="stop-color:#5761D7"/>
							<stop  offset="0.1779" style="stop-color:#5C66D9"/>
							<stop  offset="0.3876" style="stop-color:#6A73DF"/>
							<stop  offset="0.6134" style="stop-color:#8289E8"/>
							<stop  offset="0.849" style="stop-color:#A3A7F5"/>
							<stop  offset="1" style="stop-color:#BCBEFF"/>
						</linearGradient>
						<path class="st31" d="M272.9,109.7c-1,0.6-2.7,0.6-3.8,0c-1-0.6-1-1.6,0-2.2c1-0.6,2.7-0.6,3.8,0
							C274,108.2,274,109.1,272.9,109.7z"/>
						<path class="st32" d="M274,110.2c-1.6,0.9-4.2,0.9-5.9,0c-0.8-0.4-1.2-1-1.2-1.6c0,0.6,0.4,1.3,1.2,1.8c1.6,0.9,4.2,0.9,5.9,0
							c0.8-0.5,1.2-1.1,1.2-1.8C275.1,109.1,274.7,109.7,274,110.2z"/>
					</g>
					<g>
						
							<linearGradient id="SVGID_21_" gradientUnits="userSpaceOnUse" x1="5367.6157" y1="106.8126" x2="5375.8472" y2="106.8126" gradientTransform="matrix(1 0 0 1 -5100.7266 0)">
							<stop  offset="0" style="stop-color:#C0BFF6"/>
							<stop  offset="0.488" style="stop-color:#D2D1F9"/>
							<stop  offset="1" style="stop-color:#E9E9FD"/>
						</linearGradient>
						<path class="st33" d="M275.2,104.8h-8.3v1.6l0,0c0,0.6,0.4,1.2,1.2,1.7c1.6,0.9,4.2,0.9,5.9,0c0.8-0.5,1.2-1.1,1.2-1.7l0,0
							V104.8z"/>
						
							<linearGradient id="SVGID_22_" gradientUnits="userSpaceOnUse" x1="5358.3906" y1="106.8126" x2="5374.2979" y2="106.8126" gradientTransform="matrix(1 0 0 1 -5100.7266 0)">
							<stop  offset="0" style="stop-color:#5761D7"/>
							<stop  offset="0.1779" style="stop-color:#5C66D9"/>
							<stop  offset="0.3876" style="stop-color:#6A73DF"/>
							<stop  offset="0.6134" style="stop-color:#8289E8"/>
							<stop  offset="0.849" style="stop-color:#A3A7F5"/>
							<stop  offset="1" style="stop-color:#BCBEFF"/>
						</linearGradient>
						<path class="st34" d="M275.2,104.8h-8.3v1.6l0,0c0,0.6,0.4,1.2,1.2,1.7c1.6,0.9,4.2,0.9,5.9,0c0.8-0.5,1.2-1.1,1.2-1.7l0,0
							V104.8z"/>
						
							<linearGradient id="SVGID_23_" gradientUnits="userSpaceOnUse" x1="2785.2056" y1="-2572.5564" x2="2791.9653" y2="-2572.5564" gradientTransform="matrix(0.866 0.5 -0.866 0.5 -4371.7202 -3.2043)">
							<stop  offset="0" style="stop-color:#C0BFF6"/>
							<stop  offset="0.2938" style="stop-color:#C5C4F7"/>
							<stop  offset="0.6399" style="stop-color:#D3D2F9"/>
							<stop  offset="1" style="stop-color:#E9E9FD"/>
						</linearGradient>
						<path class="st35" d="M274,106.5c-1.6,0.9-4.2,0.9-5.9,0c-1.6-0.9-1.6-2.4,0-3.4c1.6-0.9,4.2-0.9,5.9,0
							C275.6,104.1,275.6,105.6,274,106.5z"/>
						<path class="st32" d="M274,106.3c-1.6,0.9-4.2,0.9-5.9,0c-0.8-0.4-1.2-1-1.2-1.6c0,0.6,0.4,1.3,1.2,1.8c1.6,0.9,4.2,0.9,5.9,0
							c0.8-0.5,1.2-1.1,1.2-1.8C275.1,105.3,274.7,105.9,274,106.3z"/>
					</g>
					<g>
						
							<linearGradient id="SVGID_24_" gradientUnits="userSpaceOnUse" x1="5360.771" y1="125.5817" x2="5369.0024" y2="125.5817" gradientTransform="matrix(1 0 0 1 -5100.7266 0)">
							<stop  offset="0" style="stop-color:#C0BFF6"/>
							<stop  offset="0.488" style="stop-color:#D2D1F9"/>
							<stop  offset="1" style="stop-color:#E9E9FD"/>
						</linearGradient>
						<path class="st36" d="M268.3,118.5H260v11.8l0,0c0,0.6,0.4,1.2,1.2,1.7c1.6,0.9,4.2,0.9,5.9,0c0.8-0.5,1.2-1.1,1.2-1.7l0,0
							V118.5z"/>
						
							<linearGradient id="SVGID_25_" gradientUnits="userSpaceOnUse" x1="5351.5459" y1="125.5817" x2="5367.4531" y2="125.5817" gradientTransform="matrix(1 0 0 1 -5100.7266 0)">
							<stop  offset="0" style="stop-color:#5761D7"/>
							<stop  offset="0.1779" style="stop-color:#5C66D9"/>
							<stop  offset="0.3876" style="stop-color:#6A73DF"/>
							<stop  offset="0.6134" style="stop-color:#8289E8"/>
							<stop  offset="0.849" style="stop-color:#A3A7F5"/>
							<stop  offset="1" style="stop-color:#BCBEFF"/>
						</linearGradient>
						<path class="st37" d="M268.3,118.5H260v11.8l0,0c0,0.6,0.4,1.2,1.2,1.7c1.6,0.9,4.2,0.9,5.9,0c0.8-0.5,1.2-1.1,1.2-1.7l0,0
							V118.5z"/>
						
							<linearGradient id="SVGID_26_" gradientUnits="userSpaceOnUse" x1="2794.936" y1="-2554.9221" x2="2801.6958" y2="-2554.9221" gradientTransform="matrix(0.866 0.5 -0.866 0.5 -4371.7202 -3.2043)">
							<stop  offset="0" style="stop-color:#C0BFF6"/>
							<stop  offset="0.2938" style="stop-color:#C5C4F7"/>
							<stop  offset="0.6399" style="stop-color:#D3D2F9"/>
							<stop  offset="1" style="stop-color:#E9E9FD"/>
						</linearGradient>
						<path class="st38" d="M267.1,120.2c-1.6,0.9-4.2,0.9-5.9,0c-1.6-0.9-1.6-2.4,0-3.4c1.6-0.9,4.2-0.9,5.9,0
							C268.7,117.7,268.7,119.2,267.1,120.2z"/>
						<path class="st32" d="M267.1,120c-1.6,0.9-4.2,0.9-5.9,0c-0.8-0.4-1.2-1-1.2-1.6c0,0.6,0.4,1.3,1.2,1.8c1.6,0.9,4.2,0.9,5.9,0
							c0.8-0.5,1.2-1.1,1.2-1.8C268.3,119,267.9,119.6,267.1,120z"/>
					</g>
					<g>
						
							<linearGradient id="SVGID_27_" gradientUnits="userSpaceOnUse" x1="5353.9263" y1="126.5106" x2="5362.1577" y2="126.5106" gradientTransform="matrix(1 0 0 1 -5100.7266 0)">
							<stop  offset="0" style="stop-color:#C0BFF6"/>
							<stop  offset="0.488" style="stop-color:#D2D1F9"/>
							<stop  offset="1" style="stop-color:#E9E9FD"/>
						</linearGradient>
						<path class="st39" d="M261.5,116.4h-8.3v17.8l0,0c0,0.6,0.4,1.2,1.2,1.7c1.6,0.9,4.2,0.9,5.9,0c0.8-0.5,1.2-1.1,1.2-1.7l0,0
							V116.4z"/>
						
							<linearGradient id="SVGID_28_" gradientUnits="userSpaceOnUse" x1="5344.7012" y1="126.5106" x2="5360.6084" y2="126.5106" gradientTransform="matrix(1 0 0 1 -5100.7266 0)">
							<stop  offset="0" style="stop-color:#5761D7"/>
							<stop  offset="0.1779" style="stop-color:#5C66D9"/>
							<stop  offset="0.3876" style="stop-color:#6A73DF"/>
							<stop  offset="0.6134" style="stop-color:#8289E8"/>
							<stop  offset="0.849" style="stop-color:#A3A7F5"/>
							<stop  offset="1" style="stop-color:#BCBEFF"/>
						</linearGradient>
						<path class="st40" d="M261.5,116.4h-8.3v17.8l0,0c0,0.6,0.4,1.2,1.2,1.7c1.6,0.9,4.2,0.9,5.9,0c0.8-0.5,1.2-1.1,1.2-1.7l0,0
							V116.4z"/>
						
							<linearGradient id="SVGID_29_" gradientUnits="userSpaceOnUse" x1="2788.8945" y1="-2553.0596" x2="2795.6545" y2="-2553.0596" gradientTransform="matrix(0.866 0.5 -0.866 0.5 -4371.7202 -3.2043)">
							<stop  offset="0" style="stop-color:#C0BFF6"/>
							<stop  offset="0.2938" style="stop-color:#C5C4F7"/>
							<stop  offset="0.6399" style="stop-color:#D3D2F9"/>
							<stop  offset="1" style="stop-color:#E9E9FD"/>
						</linearGradient>
						<path class="st41" d="M260.3,118.1c-1.6,0.9-4.2,0.9-5.9,0s-1.6-2.4,0-3.4c1.6-0.9,4.2-0.9,5.9,0S261.9,117.2,260.3,118.1z"/>
						<path class="st32" d="M260.3,117.9c-1.6,0.9-4.2,0.9-5.9,0c-0.8-0.4-1.2-1-1.2-1.6c0,0.6,0.4,1.3,1.2,1.8
							c1.6,0.9,4.2,0.9,5.9,0c0.8-0.5,1.2-1.1,1.2-1.8C261.4,116.9,261,117.5,260.3,117.9z"/>
					</g>
					<g>
						
							<linearGradient id="SVGID_30_" gradientUnits="userSpaceOnUse" x1="5347.0811" y1="132.0646" x2="5355.313" y2="132.0646" gradientTransform="matrix(1 0 0 1 -5100.7266 0)">
							<stop  offset="0" style="stop-color:#C0BFF6"/>
							<stop  offset="0.488" style="stop-color:#D2D1F9"/>
							<stop  offset="1" style="stop-color:#E9E9FD"/>
						</linearGradient>
						<path class="st42" d="M254.6,123.6h-8.3v14.6l0,0c0,0.6,0.4,1.2,1.2,1.7c1.6,0.9,4.2,0.9,5.9,0c0.8-0.5,1.2-1.1,1.2-1.7l0,0
							V123.6z"/>
						
							<linearGradient id="SVGID_31_" gradientUnits="userSpaceOnUse" x1="5337.8564" y1="132.0646" x2="5353.7637" y2="132.0646" gradientTransform="matrix(1 0 0 1 -5100.7266 0)">
							<stop  offset="0" style="stop-color:#5761D7"/>
							<stop  offset="0.1779" style="stop-color:#5C66D9"/>
							<stop  offset="0.3876" style="stop-color:#6A73DF"/>
							<stop  offset="0.6134" style="stop-color:#8289E8"/>
							<stop  offset="0.849" style="stop-color:#A3A7F5"/>
							<stop  offset="1" style="stop-color:#BCBEFF"/>
						</linearGradient>
						<path class="st43" d="M254.6,123.6h-8.3v14.6l0,0c0,0.6,0.4,1.2,1.2,1.7c1.6,0.9,4.2,0.9,5.9,0c0.8-0.5,1.2-1.1,1.2-1.7l0,0
							V123.6z"/>
						
							<linearGradient id="SVGID_32_" gradientUnits="userSpaceOnUse" x1="2792.1033" y1="-2541.9468" x2="2798.8633" y2="-2541.9468" gradientTransform="matrix(0.866 0.5 -0.866 0.5 -4371.7202 -3.2043)">
							<stop  offset="0" style="stop-color:#C0BFF6"/>
							<stop  offset="0.2938" style="stop-color:#C5C4F7"/>
							<stop  offset="0.6399" style="stop-color:#D3D2F9"/>
							<stop  offset="1" style="stop-color:#E9E9FD"/>
						</linearGradient>
						<path class="st44" d="M253.4,125.3c-1.6,0.9-4.2,0.9-5.9,0c-1.6-0.9-1.6-2.4,0-3.4c1.6-0.9,4.2-0.9,5.9,0
							C255,122.8,255,124.3,253.4,125.3z"/>
						<path class="st32" d="M253.4,125.1c-1.6,0.9-4.2,0.9-5.9,0c-0.8-0.4-1.2-1-1.2-1.6c0,0.6,0.4,1.3,1.2,1.8
							c1.6,0.9,4.2,0.9,5.9,0c0.8-0.5,1.2-1.1,1.2-1.8C254.6,124.1,254.2,124.6,253.4,125.1z"/>
					</g>
					<g>
						
							<linearGradient id="SVGID_33_" gradientUnits="userSpaceOnUse" x1="5340.2363" y1="137.813" x2="5348.4683" y2="137.813" gradientTransform="matrix(1 0 0 1 -5100.7266 0)">
							<stop  offset="0" style="stop-color:#C0BFF6"/>
							<stop  offset="0.488" style="stop-color:#D2D1F9"/>
							<stop  offset="1" style="stop-color:#E9E9FD"/>
						</linearGradient>
						<path class="st45" d="M247.8,131.1h-8.3v11l0,0c0,0.6,0.4,1.2,1.2,1.7c1.6,0.9,4.2,0.9,5.9,0c0.8-0.5,1.2-1.1,1.2-1.7l0,0
							V131.1z"/>
						
							<linearGradient id="SVGID_34_" gradientUnits="userSpaceOnUse" x1="5331.0112" y1="137.813" x2="5346.9189" y2="137.813" gradientTransform="matrix(1 0 0 1 -5100.7266 0)">
							<stop  offset="0" style="stop-color:#5761D7"/>
							<stop  offset="0.1779" style="stop-color:#5C66D9"/>
							<stop  offset="0.3876" style="stop-color:#6A73DF"/>
							<stop  offset="0.6134" style="stop-color:#8289E8"/>
							<stop  offset="0.849" style="stop-color:#A3A7F5"/>
							<stop  offset="1" style="stop-color:#BCBEFF"/>
						</linearGradient>
						<path class="st46" d="M247.8,131.1h-8.3v11l0,0c0,0.6,0.4,1.2,1.2,1.7c1.6,0.9,4.2,0.9,5.9,0c0.8-0.5,1.2-1.1,1.2-1.7l0,0
							V131.1z"/>
						
							<linearGradient id="SVGID_35_" gradientUnits="userSpaceOnUse" x1="2795.7009" y1="-2530.4453" x2="2802.4607" y2="-2530.4453" gradientTransform="matrix(0.866 0.5 -0.866 0.5 -4371.7202 -3.2043)">
							<stop  offset="0" style="stop-color:#C0BFF6"/>
							<stop  offset="0.2938" style="stop-color:#C5C4F7"/>
							<stop  offset="0.6399" style="stop-color:#D3D2F9"/>
							<stop  offset="1" style="stop-color:#E9E9FD"/>
						</linearGradient>
						<path class="st47" d="M246.6,132.8c-1.6,0.9-4.2,0.9-5.9,0c-1.6-0.9-1.6-2.4,0-3.4c1.6-0.9,4.2-0.9,5.9,0
							C248.2,130.4,248.2,131.9,246.6,132.8z"/>
						<path class="st32" d="M246.6,132.6c-1.6,0.9-4.2,0.9-5.9,0c-0.8-0.4-1.2-1-1.2-1.6c0,0.6,0.4,1.3,1.2,1.8
							c1.6,0.9,4.2,0.9,5.9,0c0.8-0.5,1.2-1.1,1.2-1.8C247.7,131.6,247.3,132.2,246.6,132.6z"/>
					</g>
				</g>
			</g>
			<g>
				<polygon class="st2" points="210.5,101.4 209.7,101.9 209.6,101.4 210.4,100.8 				"/>
				<polygon class="st2" points="211.1,105.4 210.3,105.9 209.8,102.5 210.6,102 				"/>
				<polygon class="st2" points="211.4,107.3 210.6,107.9 210.4,106.5 211.2,106 				"/>
				<polygon class="st2" points="211.8,109.3 211,109.8 210.7,108.5 211.5,107.9 				"/>
				<polygon class="st2" points="212,102.6 211.2,103.1 211,101.7 211.8,101.2 				"/>
				<polygon class="st2" points="212.4,105.2 211.6,105.7 211.3,103.7 212.1,103.2 				"/>
				<polygon class="st2" points="212.8,107.6 212,108.1 211.7,106.4 212.5,105.9 				"/>
				<polygon class="st2" points="212.1,111.3 211.3,111.8 211.1,110.4 211.9,109.9 				"/>
				<polygon class="st2" points="211.7,100.7 210.9,101.2 210.8,100.6 211.6,100.1 				"/>
			</g>
			<polygon class="st2" points="213,112.8 211.6,113.7 211.5,113.2 212.9,112.3 			"/>
		</g>
		<g>
			<g>
				
					<linearGradient id="SVGID_36_" gradientUnits="userSpaceOnUse" x1="2506.876" y1="-265.7508" x2="2511.2061" y2="-265.7508" gradientTransform="matrix(0.866 0.5 -1 0.5774 -2223.2688 -961.8108)">
					<stop  offset="0" style="stop-color:#5761D7"/>
					<stop  offset="0.1645" style="stop-color:#5E67DA"/>
					<stop  offset="0.4051" style="stop-color:#727AE2"/>
					<stop  offset="0.6924" style="stop-color:#9297EE"/>
					<stop  offset="1" style="stop-color:#BCBEFF"/>
				</linearGradient>
				<path class="st48" d="M217.2,140.3c1-0.6,1-1.6,0-2.2c-1-0.6-2.7-0.6-3.7,0s-1,1.6,0,2.2C214.5,140.9,216.2,140.9,217.2,140.3z"
					/>
				<path class="st49" d="M217.2,140.2c-1,0.6-2.7,0.6-3.7,0c-0.5-0.3-0.7-0.6-0.8-1c0,0.4,0.2,0.8,0.8,1.1c1,0.6,2.7,0.6,3.7,0
					c0.5-0.3,0.8-0.7,0.8-1.1C217.9,139.6,217.7,139.9,217.2,140.2z"/>
				
					<linearGradient id="SVGID_37_" gradientUnits="userSpaceOnUse" x1="2512.0256" y1="-261.2913" x2="2516.3557" y2="-261.2913" gradientTransform="matrix(0.866 0.5 -1 0.5774 -2223.2688 -961.8108)">
					<stop  offset="0" style="stop-color:#5761D7"/>
					<stop  offset="0.1645" style="stop-color:#5E67DA"/>
					<stop  offset="0.4051" style="stop-color:#727AE2"/>
					<stop  offset="0.6924" style="stop-color:#9297EE"/>
					<stop  offset="1" style="stop-color:#BCBEFF"/>
				</linearGradient>
				<path class="st50" d="M217.2,145.5c1-0.6,1-1.6,0-2.2c-1-0.6-2.7-0.6-3.7,0c-1,0.6-1,1.6,0,2.2
					C214.5,146.1,216.2,146.1,217.2,145.5z"/>
				
					<linearGradient id="SVGID_38_" gradientUnits="userSpaceOnUse" x1="2517.2654" y1="-256.7534" x2="2521.5957" y2="-256.7534" gradientTransform="matrix(0.866 0.5 -1 0.5774 -2223.2688 -961.8108)">
					<stop  offset="0" style="stop-color:#5761D7"/>
					<stop  offset="0.1645" style="stop-color:#5E67DA"/>
					<stop  offset="0.4051" style="stop-color:#727AE2"/>
					<stop  offset="0.6924" style="stop-color:#9297EE"/>
					<stop  offset="1" style="stop-color:#BCBEFF"/>
				</linearGradient>
				<path class="st51" d="M217.2,150.7c1-0.6,1-1.6,0-2.2c-1-0.6-2.7-0.6-3.7,0s-1,1.6,0,2.2C214.5,151.3,216.2,151.3,217.2,150.7z"
					/>
				
					<linearGradient id="SVGID_39_" gradientUnits="userSpaceOnUse" x1="3364.1328" y1="143.3038" x2="3378.625" y2="143.3038" gradientTransform="matrix(1 0 0 1 -3158.5811 0)">
					<stop  offset="0" style="stop-color:#5761D7"/>
					<stop  offset="0.1645" style="stop-color:#5E67DA"/>
					<stop  offset="0.4051" style="stop-color:#727AE2"/>
					<stop  offset="0.6924" style="stop-color:#9297EE"/>
					<stop  offset="1" style="stop-color:#BCBEFF"/>
				</linearGradient>
				<path class="st52" d="M212.7,139.3v-2.7c0,0.4,0.3,0.8,0.8,1.1c1,0.6,2.7,0.6,3.7,0c0.5-0.3,0.8-0.7,0.8-1v-11.3h-5.3v33.4
					c0,1.5,1.2,2.7,2.7,2.7c1.5,0,2.7-1.2,2.7-2.7v-9.1c0,0.4-0.2,0.8-0.8,1.1c-1,0.6-2.7,0.6-3.7,0c-0.5-0.3-0.8-0.7-0.8-1.1h0v0v0
					V147c0,0.4,0.3,0.8,0.8,1.1c1,0.6,2.7,0.6,3.7,0c0.5-0.3,0.8-0.7,0.8-1v-2.6c0,0.4-0.2,0.8-0.8,1.1c-1,0.6-2.7,0.6-3.7,0
					c-0.5-0.3-0.8-0.7-0.8-1.1h0v0v0v-2.7c0,0.4,0.3,0.8,0.8,1.1c1,0.6,2.7,0.6,3.7,0c0.5-0.3,0.8-0.7,0.8-1v-2.5
					c0,0.4-0.2,0.8-0.8,1.1c-1,0.6-2.7,0.6-3.7,0C212.9,140,212.7,139.7,212.7,139.3L212.7,139.3L212.7,139.3L212.7,139.3z"/>
				<path class="st49" d="M217.2,145.4c-1,0.6-2.7,0.6-3.7,0c-0.5-0.3-0.7-0.6-0.8-1c0,0.4,0.2,0.8,0.8,1.1c1,0.6,2.7,0.6,3.7,0
					c0.5-0.3,0.8-0.7,0.8-1.1C217.9,144.7,217.7,145.1,217.2,145.4z"/>
				<path class="st49" d="M217.2,150.6c-1,0.6-2.7,0.6-3.7,0c-0.5-0.3-0.7-0.6-0.8-1c0,0.4,0.2,0.8,0.8,1.1c1,0.6,2.7,0.6,3.7,0
					c0.5-0.3,0.8-0.7,0.8-1.1C217.9,150,217.7,150.3,217.2,150.6z"/>
				
					<linearGradient id="SVGID_40_" gradientUnits="userSpaceOnUse" x1="3371.2422" y1="138.6915" x2="3376.5432" y2="138.6915" gradientTransform="matrix(1 0 0 1 -3158.5811 0)">
					<stop  offset="0" style="stop-color:#42E8E0"/>
					<stop  offset="0.1507" style="stop-color:#43E3E0"/>
					<stop  offset="0.3285" style="stop-color:#45D5DF"/>
					<stop  offset="0.5199" style="stop-color:#49BDDD"/>
					<stop  offset="0.7209" style="stop-color:#4E9CDB"/>
					<stop  offset="0.9274" style="stop-color:#5472D8"/>
					<stop  offset="1" style="stop-color:#5761D7"/>
				</linearGradient>
				<path class="st53" d="M217.2,137.7c-1,0.6-2.7,0.6-3.7,0c-0.5-0.3-0.8-0.7-0.8-1.1v2.7l0,0l0,0h0c0,0.4,0.3,0.8,0.8,1.1
					c1,0.6,2.7,0.6,3.7,0c0.5-0.3,0.8-0.7,0.8-1.1v-2.6C217.9,137,217.7,137.4,217.2,137.7z"/>
				
					<linearGradient id="SVGID_41_" gradientUnits="userSpaceOnUse" x1="3371.2422" y1="143.8412" x2="3376.5432" y2="143.8412" gradientTransform="matrix(1 0 0 1 -3158.5811 0)">
					<stop  offset="0" style="stop-color:#42E8E0"/>
					<stop  offset="0.1507" style="stop-color:#43E3E0"/>
					<stop  offset="0.3285" style="stop-color:#45D5DF"/>
					<stop  offset="0.5199" style="stop-color:#49BDDD"/>
					<stop  offset="0.7209" style="stop-color:#4E9CDB"/>
					<stop  offset="0.9274" style="stop-color:#5472D8"/>
					<stop  offset="1" style="stop-color:#5761D7"/>
				</linearGradient>
				<path class="st54" d="M217.2,142.8c-1,0.6-2.7,0.6-3.7,0c-0.5-0.3-0.8-0.7-0.8-1.1v2.7l0,0l0,0h0c0,0.4,0.3,0.8,0.8,1.1
					c1,0.6,2.7,0.6,3.7,0c0.5-0.3,0.8-0.7,0.8-1.1v-2.6C217.9,142.2,217.7,142.5,217.2,142.8z"/>
				
					<linearGradient id="SVGID_42_" gradientUnits="userSpaceOnUse" x1="3371.2422" y1="149.0813" x2="3376.5432" y2="149.0813" gradientTransform="matrix(1 0 0 1 -3158.5811 0)">
					<stop  offset="0" style="stop-color:#42E8E0"/>
					<stop  offset="0.1507" style="stop-color:#43E3E0"/>
					<stop  offset="0.3285" style="stop-color:#45D5DF"/>
					<stop  offset="0.5199" style="stop-color:#49BDDD"/>
					<stop  offset="0.7209" style="stop-color:#4E9CDB"/>
					<stop  offset="0.9274" style="stop-color:#5472D8"/>
					<stop  offset="1" style="stop-color:#5761D7"/>
				</linearGradient>
				<path class="st55" d="M217.2,148.1c-1,0.6-2.7,0.6-3.7,0c-0.5-0.3-0.8-0.7-0.8-1.1v2.7v0v0h0c0,0.4,0.3,0.8,0.8,1.1
					c1,0.6,2.7,0.6,3.7,0c0.5-0.3,0.8-0.7,0.8-1.1V147C217.9,147.4,217.7,147.8,217.2,148.1z"/>
			</g>
			<g>
				
					<linearGradient id="SVGID_43_" gradientUnits="userSpaceOnUse" x1="3354.8604" y1="116.0358" x2="3389.1189" y2="96.1756" gradientTransform="matrix(1 0 0 1 -3158.5811 0)">
					<stop  offset="0" style="stop-color:#5761D7"/>
					<stop  offset="0.1645" style="stop-color:#5E67DA"/>
					<stop  offset="0.4051" style="stop-color:#727AE2"/>
					<stop  offset="0.6924" style="stop-color:#9297EE"/>
					<stop  offset="1" style="stop-color:#BCBEFF"/>
				</linearGradient>
				<path class="st56" d="M205.7,121.2c-0.1-0.1-0.2-0.1-0.4-0.2l-1.3-7.3l1.6-9.7l4.5-4.9l4.7-4.5l7.4-3.1l0.2-0.1
					c0.4,0.2,0.7,0.4,1,0.6c1.9-0.2,3.7-0.5,5.6-0.7c-0.3-0.8-0.7-1.5-1.1-2.1l0.9-0.3l-3.3-1.9c0,0-0.1,0-0.1-0.1l-0.1-0.1l0,0
					c-2.9-1.5-6.7-1.3-11,1.2c-8.8,5.1-15.9,17.4-15.9,27.5c0,5,1.7,8.6,4.6,10.2l0,0l0,0c0,0,0.1,0,0.1,0.1l3.5,2l-0.2-1
					c0.4,0,0.9,0,1.4,0C206.8,125,205.4,123.1,205.7,121.2z"/>
				
					<linearGradient id="SVGID_44_" gradientUnits="userSpaceOnUse" x1="3392.4258" y1="98.4244" x2="3361.5823" y2="121.0068" gradientTransform="matrix(1 0 0 1 -3158.5811 0)">
					<stop  offset="0" style="stop-color:#5761D7"/>
					<stop  offset="0.1645" style="stop-color:#5E67DA"/>
					<stop  offset="0.4051" style="stop-color:#727AE2"/>
					<stop  offset="0.6924" style="stop-color:#9297EE"/>
					<stop  offset="1" style="stop-color:#BCBEFF"/>
				</linearGradient>
				<path class="st57" d="M230.1,97.5c0-0.1,0-0.3,0-0.4c0-2.3-0.4-4.3-1-5.9c-1.9,0.2-3.7,0.5-5.6,0.7c1.8,1.4,2.9,3.9,2.9,7.4
					c0,7.7-5.4,17.1-12.1,21c-3.3,1.9-6.3,2.1-8.5,0.9c-0.3,1.9,1,3.8,2,5.6c1.5-0.1,3.1-0.5,4.7-1.2l-0.5,0.6c0,0,6.6-2.3,6.7-2.4
					c0.1-0.1,7.8-7.9,7.8-7.9l5-10.8L230.1,97.5z"/>
				
					<linearGradient id="SVGID_45_" gradientUnits="userSpaceOnUse" x1="3362.8286" y1="107.8867" x2="3387.0647" y2="107.8867" gradientTransform="matrix(1 0 0 1 -3158.5811 0)">
					<stop  offset="0" style="stop-color:#42E8E0"/>
					<stop  offset="0.1507" style="stop-color:#43E3E0"/>
					<stop  offset="0.3285" style="stop-color:#45D5DF"/>
					<stop  offset="0.5199" style="stop-color:#49BDDD"/>
					<stop  offset="0.7209" style="stop-color:#4E9CDB"/>
					<stop  offset="0.9274" style="stop-color:#5472D8"/>
					<stop  offset="1" style="stop-color:#5761D7"/>
				</linearGradient>
				<path class="st58" d="M228.5,100.9c0-7.7-5.4-10.9-12.1-7c-6.7,3.9-12.1,13.3-12.1,21c0,7.7,5.4,10.9,12.1,7
					C223.1,118,228.5,108.6,228.5,100.9z"/>
				
					<linearGradient id="SVGID_46_" gradientUnits="userSpaceOnUse" x1="3361.7744" y1="107.3145" x2="3386.0107" y2="107.3145" gradientTransform="matrix(1 0 0 1 -3158.5811 0)">
					<stop  offset="0" style="stop-color:#42E8E0"/>
					<stop  offset="0.1507" style="stop-color:#43E3E0"/>
					<stop  offset="0.3285" style="stop-color:#45D5DF"/>
					<stop  offset="0.5199" style="stop-color:#49BDDD"/>
					<stop  offset="0.7209" style="stop-color:#4E9CDB"/>
					<stop  offset="0.9274" style="stop-color:#5472D8"/>
					<stop  offset="1" style="stop-color:#5761D7"/>
				</linearGradient>
				<path class="st59" d="M227.4,100.3c0-7.7-5.4-10.9-12.1-7c-6.7,3.9-12.1,13.3-12.1,21c0,7.7,5.4,10.9,12.1,7
					C222,117.4,227.4,108,227.4,100.3z"/>
				<path class="st60" d="M217.7,90c-8.8,5.1-15.9,17.4-15.9,27.5c0,10.1,7.1,14.2,15.9,9.2c8.8-5.1,15.9-17.4,15.9-27.5
					S226.4,84.9,217.7,90z M217.7,122.3c-6.7,3.9-12.1,0.7-12.1-7c0-7.7,5.4-17.1,12.1-21c6.7-3.9,12.1-0.7,12.1,7
					S224.4,118.4,217.7,122.3z"/>
				<path class="st60" d="M217.7,90c-8.8,5.1-15.9,17.4-15.9,27.5c0,10.1,7.1,14.2,15.9,9.2c8.8-5.1,15.9-17.4,15.9-27.5
					S226.4,84.9,217.7,90z M217.7,122.3c-6.7,3.9-12.1,0.7-12.1-7c0-7.7,5.4-17.1,12.1-21c6.7-3.9,12.1-0.7,12.1,7
					S224.4,118.4,217.7,122.3z"/>
				<g>
					<path class="st49" d="M202.1,117.7c0-10.1,7.1-22.4,15.9-27.5c5.4-3.1,10.1-2.8,13,0.3c-2.8-3.3-7.7-3.8-13.3-0.6
						c-8.8,5.1-15.9,17.4-15.9,27.5c0,3.9,1.1,6.9,2.8,8.8C203,124.3,202.1,121.4,202.1,117.7z"/>
					<path class="st49" d="M217.9,122.6c6.7-3.9,12.1-13.3,12.1-21c0-3-0.8-5.3-2.2-6.8c1.2,1.5,2,3.7,2,6.5c0,7.7-5.4,17.1-12.1,21
						c-4.1,2.4-7.7,2.1-9.9-0.2C209.9,124.6,213.7,125,217.9,122.6z"/>
				</g>
			</g>
		</g>
	</g>
</g>
</svg>