<?xml version="1.0" encoding="utf-8"?>
<!-- Generator: Adobe Illustrator 23.0.1, SVG Export Plug-In . SVG Version: 6.00 Build 0)  -->
<svg version="1.1" id="Layer_1" xmlns="http://www.w3.org/2000/svg" xmlns:xlink="http://www.w3.org/1999/xlink" x="0px" y="0px"
	 viewBox="0 0 500 250" style="enable-background:new 0 0 500 250;" xml:space="preserve">
<style type="text/css">
	.st0{fill:url(#SVGID_1_);}
	.st1{fill:url(#SVGID_2_);}
	.st2{fill:#00FCFF;}
	.st3{fill:#F1FFFF;}
	.st4{fill:#00C9F4;}
	.st5{fill:#0D2161;}
	.st6{fill:#0D0C36;}
	.st7{fill:url(#SVGID_3_);}
	.st8{fill:url(#SVGID_4_);}
	.st9{fill:url(#SVGID_5_);}
	.st10{fill:#FFF8FF;}
	.st11{fill:#DCF2FF;}
	.st12{fill:#FFFFFF;}
	.st13{fill:#F13955;}
	.st14{fill:#CFDEF7;}
	.st15{fill:url(#SVGID_6_);}
	.st16{fill:#0670F4;}
	.st17{fill:#0D34AD;}
	.st18{fill:none;stroke:#0670F4;stroke-miterlimit:10;}
	.st19{fill:none;stroke:#0670F4;stroke-width:0.5;stroke-miterlimit:10;}
	.st20{opacity:0.48;fill:#FFF8FF;enable-background:new    ;}
</style>
<g>
	
		<radialGradient id="SVGID_1_" cx="164.6" cy="647.8" r="200" gradientTransform="matrix(1.25 0 0 0.625 44.25 -279.875)" gradientUnits="userSpaceOnUse">
		<stop  offset="0" style="stop-color:#3399FF"/>
		<stop  offset="0.2823" style="stop-color:#3390F6"/>
		<stop  offset="0.7501" style="stop-color:#3376DC"/>
		<stop  offset="1" style="stop-color:#3366CC"/>
	</radialGradient>
	<rect class="st0" width="500" height="250"/>
</g>
<g>
	
		<linearGradient id="SVGID_2_" gradientUnits="userSpaceOnUse" x1="244.3833" y1="685.0268" x2="244.302" y2="635.1681" gradientTransform="matrix(1 0 0 1 0 -518)">
		<stop  offset="0" style="stop-color:#0D55FF;stop-opacity:0"/>
		<stop  offset="7.900000e-02" style="stop-color:#0C5CFF;stop-opacity:0.1173"/>
		<stop  offset="0.1939" style="stop-color:#0B6FFF;stop-opacity:0.2878"/>
		<stop  offset="0.3306" style="stop-color:#088FFF;stop-opacity:0.4909"/>
		<stop  offset="0.4843" style="stop-color:#05BBFF;stop-opacity:0.719"/>
		<stop  offset="0.6501" style="stop-color:#01F3FF;stop-opacity:0.9651"/>
		<stop  offset="0.6736" style="stop-color:#00FCFF"/>
	</linearGradient>
	<path class="st1" d="M275.9,165c0-17.4-14.1-31.5-31.5-31.5l0,0c-17.4,0-31.5,14.1-31.5,31.5"/>
	<g>
		<g>
			<g>
				<path class="st2" d="M257.6,140.9c0,4.6-5.9,8.2-13.1,8.2s-13.1-3.7-13.1-8.2s5.9-4.1,13.1-4.1S257.6,136.3,257.6,140.9z"/>
				<rect x="231.4" y="137.7" class="st2" width="26.2" height="3.1"/>
				<ellipse class="st3" cx="244.5" cy="137.7" rx="13.1" ry="8.3"/>
				<ellipse class="st4" cx="244.5" cy="137.6" rx="13.1" ry="8.2"/>
				<path class="st5" d="M244.5,111.6c-6.1,0-11.1,3.1-11.1,7V137c0,3.9,5,7,11.1,7s11.1-3.1,11.1-7v-18.4
					C255.6,114.8,250.6,111.6,244.5,111.6z"/>
				<path class="st6" d="M237.9,126.9c-0.2,0-0.5,0.2-0.5,0.5v15c0.3,0.1,0.6,0.3,0.9,0.4v-15.5
					C238.3,127.1,238.1,126.9,237.9,126.9z"/>
				<path class="st2" d="M239.7,129.5c-0.2,0-0.5,0.2-0.5,0.5v13.2c0.3,0.1,0.6,0.2,0.9,0.3V130
					C240.1,129.7,239.9,129.5,239.7,129.5z"/>
				<path class="st2" d="M241.6,130.4c-0.2,0-0.5,0.2-0.5,0.5v12.9c0.3,0.1,0.6,0.1,0.9,0.2v-13C242,130.6,241.8,130.4,241.6,130.4z
					"/>
			</g>
			<polygon class="st2" points="235.1,124.3 237.4,125.7 237.4,125.3 235.1,123.9 			"/>
			<polygon class="st2" points="235.1,123.4 237.4,124.8 237.4,124.4 235.1,123 			"/>
			<path class="st2" d="M236.5,127.2c0,0.7-0.3,1-0.7,0.8c-0.4-0.2-0.7-1-0.7-1.6s0.3-1,0.7-0.8
				C236.1,125.8,236.5,126.5,236.5,127.2z"/>
			<path class="st2" d="M236.5,130.8c0,0.7-0.3,1-0.7,0.8c-0.4-0.2-0.7-1-0.7-1.6s0.3-1,0.7-0.8
				C236.1,129.4,236.5,130.1,236.5,130.8z"/>
			<path class="st2" d="M236.5,134.5c0,0.7-0.3,1-0.7,0.8c-0.4-0.2-0.7-1-0.7-1.6s0.3-1,0.7-0.8
				C236.1,133.1,236.5,133.8,236.5,134.5z"/>
		</g>
		
			<linearGradient id="SVGID_3_" gradientUnits="userSpaceOnUse" x1="231.0974" y1="611.145" x2="260.4033" y2="611.145" gradientTransform="matrix(1 0 0 1 0 -518)">
			<stop  offset="0" style="stop-color:#00FCFF"/>
			<stop  offset="0.1304" style="stop-color:#01EEFF;stop-opacity:0.8696"/>
			<stop  offset="0.3774" style="stop-color:#04C9FF;stop-opacity:0.6226"/>
			<stop  offset="0.7118" style="stop-color:#098DFF;stop-opacity:0.2882"/>
			<stop  offset="1" style="stop-color:#0D55FF;stop-opacity:0"/>
		</linearGradient>
		<path class="st7" d="M277.7,93.1c0-14.7-11.3-26.7-25.6-27.9c-0.4,0-0.9,0.1-1.3,0.2l0,0l0,0c-0.4,0.1-0.7,0.1-1.1,0.2
			c-0.1,0-0.2,0-0.3,0.1c-0.3,0.1-0.5,0.1-0.8,0.2c-0.1,0-0.2,0.1-0.3,0.1c-0.3,0.1-0.5,0.2-0.8,0.3c-0.1,0-0.2,0.1-0.3,0.1
			c-0.3,0.1-0.7,0.3-1,0.4c-4.4,2-8.9,6.2-10.6,14.6c-0.5,2.4,0,4.9,1.4,6.8c2.8,3.9,6.9,12.1,1.9,22.7l2.4,7.5
			c0.2,0.6,0.4,1.2,0.7,1.8c2.4,0.7,5,1.1,7.6,1.1C265.1,121.1,277.7,108.5,277.7,93.1z"/>
		
			<linearGradient id="SVGID_4_" gradientUnits="userSpaceOnUse" x1="264.1262" y1="623.3478" x2="226.3538" y2="591.3076" gradientTransform="matrix(1 0 0 1 0 -518)">
			<stop  offset="0" style="stop-color:#0D55FF;stop-opacity:0"/>
			<stop  offset="0.2882" style="stop-color:#098DFF;stop-opacity:0.2882"/>
			<stop  offset="0.6226" style="stop-color:#04C9FF;stop-opacity:0.6226"/>
			<stop  offset="0.8696" style="stop-color:#01EEFF;stop-opacity:0.8696"/>
			<stop  offset="1" style="stop-color:#00FCFF"/>
		</linearGradient>
		<circle class="st8" cx="249.6" cy="93.1" r="28"/>
		
			<linearGradient id="SVGID_5_" gradientUnits="userSpaceOnUse" x1="240.7717" y1="607.1542" x2="208.7971" y2="580.0319" gradientTransform="matrix(1 0 0 1 0 -518)">
			<stop  offset="0" style="stop-color:#0D55FF;stop-opacity:0"/>
			<stop  offset="0.2882" style="stop-color:#098DFF;stop-opacity:0.2882"/>
			<stop  offset="0.6226" style="stop-color:#04C9FF;stop-opacity:0.6226"/>
			<stop  offset="0.8696" style="stop-color:#01EEFF;stop-opacity:0.8696"/>
			<stop  offset="1" style="stop-color:#00FCFF"/>
		</linearGradient>
		<path class="st9" d="M225.1,93.1c0-14.9,11.6-27.1,26.3-28c-0.6,0-1.2-0.1-1.7-0.1c-15.5,0-28,12.6-28,28s12.6,28,28,28
			c0.6,0,1.2,0,1.7-0.1C236.7,120.1,225.1,108,225.1,93.1z"/>
		<path class="st10" d="M240.9,111.6l2.4,7.5c2.3,7,7.5,12.6,14.2,15.4l9.4,3.9c0,0,2.9,1.4,8.8-1.4c6-2.9,4.6-8.8,4.3-11.8
			l2.7-18.8V102c0-2.6-0.1-4.6-0.3-7.2c-0.3-2.9-0.8-6.5-1.5-9.4c0,0-2.5-12.6-17.6-18.3c-4.9-1.8-10.3-1.8-15,0.4
			c-4.4,2-8.9,6.2-10.6,14.6c-0.5,2.4,0,4.9,1.4,6.8C241.8,92.8,245.9,101,240.9,111.6z"/>
		<path class="st2" d="M256.9,67.2c-1.3-0.5-2.6-0.8-3.9-1c-1.6,0.3-3.1,0.7-4.6,1.4c-4.4,2-9,6.2-10.9,14.6c-0.5,2.4,0,4.9,1.5,6.8
			c2.9,3.9,7.1,12.1,1.9,22.7l2.5,7.5c2.3,7,7.6,12.6,14.5,15.4l9,2c0,0,0.5,2.1,5.4,1.8c0.2,0,2.3-0.7,3.5-1.3
			c2.3-3.9-1.5-9.7-1.8-11.8l2.8-18.8l3.3-4.7c0-5.6-1.8-10-5.1-16.3C274.9,85.4,272.3,72.8,256.9,67.2z"/>
		<path class="st11" d="M256.6,67.2c-1.2-0.5-2.6-0.8-3.9-1c-1.5,0.3-3.1,0.7-4.5,1.4c-4.4,2-8.9,6.2-10.6,14.6
			c-0.5,2.4,0,4.9,1.4,6.8c2.8,3.9,6.9,12.1,1.9,22.7l2.4,7.5c2.3,7,7.5,12.6,14.2,15.4l9.4,3.9c0,0,2.5,0.9,5.7-0.2
			c1.8-4.5,0.9-10.9,0.7-13l2.7-18.8l-4.2-3.4c0-5.6,1.3-10.3,2.4-17.6C274.2,85.4,271.6,72.8,256.6,67.2z"/>
		<path class="st10" d="M262.2,126.4c-0.6,0-1.2,0.4-1.6,0.9c-3.2-3.1-7.6-7.3-8.1-7.9c0-1.5,0.1-2.9,0.3-4.1l6,5.9
			c0,0.7,0.5,1.3,1.2,1.3c0.6,0,1.2-0.6,1.2-1.4s-0.5-1.4-1.2-1.4c-0.5,0-0.9,0.3-1.1,0.8l-6-6c0.7-5.5,2.2-8.2,2.3-8.3l-0.5-0.3
			c-0.1,0.2-2.6,4.6-2.7,13.4l0,0v0c0,1.8,0,3.7,0.2,5.9c-3.9-10.4-1.5-20-1.5-20.1l-0.5-0.1c0,0.1-2.6,11.1,2.3,22.3v0l0,0
			c0.9,2.1,2.1,4.2,3.6,6.3c0.4,0.2,0.7,0.3,1.1,0.5c-1.8-2.3-3.2-4.6-4.2-7c-0.3-2.6-0.4-4.9-0.4-7c0.8,0.9,2.9,2.9,7.8,7.7
			c-0.1,0.3-0.2,0.7-0.2,1.1c0,1.4,0.9,2.5,2.1,2.5c1.1,0,2.1-1.1,2.1-2.5C264.2,127.6,263.3,126.4,262.2,126.4z M259.9,120.3
			c0.3,0,0.6,0.4,0.6,0.8c0,0.5-0.3,0.8-0.6,0.8s-0.6-0.4-0.6-0.8C259.3,120.7,259.6,120.3,259.9,120.3z M262.2,130.9
			c-0.8,0-1.5-0.9-1.5-2c0-0.4,0.1-0.7,0.2-1l0.2-0.2c0,0,0,0-0.1,0c0.3-0.5,0.7-0.8,1.2-0.8c0.8,0,1.5,0.9,1.5,2
			C263.7,130.1,263,130.9,262.2,130.9z"/>
		<path class="st2" d="M262,126.4c-0.6,0-1.2,0.4-1.6,0.9c-3.1-3.1-7.5-7.3-8-7.9c0-1.5,0.1-2.9,0.3-4.1l5.9,5.9
			c0,0.7,0.5,1.3,1.1,1.3c0.6,0,1.2-0.6,1.2-1.4s-0.5-1.4-1.2-1.4c-0.5,0-0.9,0.3-1,0.8l-6-6c0.7-5.5,2.2-8.2,2.2-8.3l-0.5-0.3
			c-0.1,0.2-2.6,4.6-2.7,13.4l0,0v0c0,1.8,0,3.7,0.2,5.9c-3.8-10.4-1.5-20-1.5-20.1l-0.5-0.1c0,0.1-2.6,11.1,2.2,22.3v0l0,0
			c0.9,2.1,2.1,4.2,3.6,6.3c0.4,0.2,0.7,0.3,1.1,0.5c-1.8-2.3-3.1-4.6-4.2-7c-0.3-2.6-0.4-4.9-0.4-7c0.8,0.9,2.8,2.9,7.7,7.7
			c-0.1,0.3-0.2,0.7-0.2,1.1c0,1.4,0.9,2.5,2,2.5s2-1.1,2-2.5C264,127.6,263.1,126.4,262,126.4z M259.8,120.3c0.3,0,0.6,0.4,0.6,0.8
			s-0.3,0.8-0.6,0.8c-0.3,0-0.6-0.4-0.6-0.8C259.2,120.7,259.5,120.3,259.8,120.3z M262,130.9c-0.8,0-1.5-0.9-1.5-2
			c0-0.4,0.1-0.7,0.2-1l0.2-0.2c0,0,0,0-0.1,0c0.3-0.5,0.7-0.8,1.2-0.8c0.8,0,1.5,0.9,1.5,2C263.5,130.1,262.8,130.9,262,130.9z"/>
		<path class="st12" d="M267.8,138.4l-9.4-3.9c-6.8-2.8-12-8.5-14.2-15.4l-2.4-7.5c5.1-10.6,0.9-18.8-1.9-22.7
			c-1.4-2-1.9-4.4-1.4-6.8c1.8-8.4,6.3-12.5,10.6-14.6c1.3-0.6,2.6-1.1,3.6-1.4c-1.5,0.3-3.1,0.7-4.5,1.4c-4.4,2-8.9,6.2-10.6,14.6
			c-0.5,2.4,0,4.9,1.4,6.8c2.8,3.9,6.9,12.1,1.9,22.7l2.4,7.5c2.3,7,7.5,12.6,14.2,15.4l9.4,3.9c0,0,0.9,0.4,2.6,0.3
			C268.4,138.7,267.8,138.4,267.8,138.4z"/>
		<path class="st13" d="M282.7,93.6"/>
		<g>
			<path class="st10" d="M242.4,94.8v1.1c0.6,3.1,0.9,6.4,0.4,10.2c0.2,0.4,0.4,0.8,0.6,1.2c36.3,15.2,39.3-0.8,39.3-0.8
				s0.4-5.2-0.3-11.6C267.4,103.7,242.4,94.8,242.4,94.8z"/>
		</g>
		<g>
			<path class="st14" d="M242.4,94.8v1.1c0.6,3.1,0.9,6.4,0.4,10.2c0.2,0.4,0.4,0.8,0.6,1.2c35.5,14.2,39.3-0.8,39.3-0.8
				s0.4-5.2-0.3-11.6C267.4,103.7,242.4,94.8,242.4,94.8z"/>
		</g>
		<g>
			<path class="st5" d="M242.4,94.8v1.1c0.6,3.1,0.9,6.4,0.4,10.2c0.2,0.4,0.4,0.8,0.6,1.2c30.1,9.5,39.3-0.8,39.3-0.8
				s1.2-5.9-0.3-11.6C267.4,103.7,242.4,94.8,242.4,94.8z"/>
		</g>
		
			<linearGradient id="SVGID_6_" gradientUnits="userSpaceOnUse" x1="264.86" y1="626.2086" x2="274.0645" y2="594.2451" gradientTransform="matrix(1 0 0 1 0 -518)">
			<stop  offset="0" style="stop-color:#0D55FF;stop-opacity:0"/>
			<stop  offset="6.270000e-02" style="stop-color:#0B69FF;stop-opacity:6.270000e-02"/>
			<stop  offset="0.22" style="stop-color:#0896FF;stop-opacity:0.22"/>
			<stop  offset="0.3786" style="stop-color:#05BAFF;stop-opacity:0.3786"/>
			<stop  offset="0.5364" style="stop-color:#03D7FF;stop-opacity:0.5364"/>
			<stop  offset="0.693" style="stop-color:#01ECFF;stop-opacity:0.693"/>
			<stop  offset="0.8481" style="stop-color:#00F8FF;stop-opacity:0.8481"/>
			<stop  offset="1" style="stop-color:#00FCFF"/>
		</linearGradient>
		<path class="st15" d="M282.5,101.2l-8.5,8.5c0.5-0.1,1-0.2,1.5-0.3l0,0l7-7C282.5,101.9,282.5,101.6,282.5,101.2z M256.7,99
			c-2.6,2.6-4.6,5.5-7.5,8.3l0,0c0.6,0.2,1.2,0.3,1.7,0.5c0.1,0,0.3,0.1,0.4,0.1c0.5,0.1,1.1,0.3,1.6,0.4c0.1,0,0.3,0.1,0.4,0.1
			c0.5,0.1,1.1,0.3,1.6,0.4c0.1,0,0.1,0,0.2,0c2.9,0.6,5.6,1,8,1.3l0,0l11.7-11.7C269.2,99.7,261.8,99.8,256.7,99z M282,96.6
			C282,96.6,282,96.6,282,96.6c-0.1-0.3-0.1-0.6-0.2-0.9c-1.1,0.7-2.3,1.2-3.5,1.6l-12.9,12.9c0.2,0,0.4,0,0.6,0c0.2,0,0.5,0,0.7,0
			s0.5,0,0.7,0c0,0,0.1,0,0.1,0c0.6,0,1.2,0,1.8-0.1l12.8-12.8C282.1,97.2,282,96.9,282,96.6z"/>
		<g>
			<path class="st16" d="M244.1,100.1c-0.1,3.1-1.8,4.8-3.9,3.7c-2.1-1-3.7-4.4-3.7-7.5c0.1-3.1,1.8-4.8,3.9-3.7
				C242.5,93.6,244.1,96.9,244.1,100.1z"/>
			<path class="st2" d="M243.2,100.3c-0.1,3.1-1.8,4.8-3.9,3.7c-2.1-1-3.7-4.4-3.7-7.5c0.1-3.1,1.8-4.8,3.9-3.7
				C241.6,93.8,243.2,97.2,243.2,100.3z"/>
			<path class="st17" d="M240.9,99.1c0,1.2-0.7,1.9-1.5,1.5c-0.8-0.4-1.5-1.7-1.5-3c0-1.2,0.7-1.9,1.5-1.5
				C240.3,96.6,240.9,97.9,240.9,99.1z"/>
			<path class="st18" d="M242.5,99.9c0,2.6-1.5,3.9-3.2,3.1c-1.7-0.9-3.1-3.6-3-6.2c0-2.6,1.5-3.9,3.2-3.1
				C241.2,94.6,242.5,97.3,242.5,99.9z"/>
			<path class="st19" d="M241.8,99.6c0,1.9-1.1,3-2.4,2.3c-1.3-0.7-2.3-2.8-2.3-4.7s1.1-3,2.4-2.3C240.8,95.5,241.8,97.6,241.8,99.6
				z"/>
		</g>
		<g>
			<path class="st16" d="M231.5,105.6c-0.1,3.1-1.8,4.8-3.9,3.7c-2.1-1-3.7-4.4-3.7-7.5c0.1-3.1,1.8-4.8,3.9-3.7
				S231.6,102.5,231.5,105.6z"/>
			<path class="st2" d="M230.6,105.8c-0.1,3.1-1.8,4.8-3.9,3.7c-2.1-1-3.7-4.4-3.7-7.5c0.1-3.1,1.8-4.8,3.9-3.7
				C229,99.3,230.6,102.7,230.6,105.8z"/>
			<path class="st17" d="M228.3,104.7c0,1.2-0.7,1.9-1.5,1.5c-0.8-0.4-1.5-1.7-1.5-3c0-1.2,0.7-1.9,1.5-1.5S228.3,103.4,228.3,104.7
				z"/>
			<path class="st18" d="M229.9,105.5c0,2.6-1.5,3.9-3.2,3.1c-1.7-0.9-3.1-3.6-3-6.2c0-2.6,1.5-3.9,3.2-3.1
				C228.6,100.2,229.9,102.9,229.9,105.5z"/>
			<path class="st19" d="M229.2,105.1c0,1.9-1.1,3-2.4,2.3c-1.3-0.7-2.3-2.8-2.3-4.7s1.1-3,2.4-2.3
				C228.2,101,229.2,103.1,229.2,105.1z"/>
		</g>
		<g>
			<path class="st16" d="M244.2,112.6c-0.1,6.5-3.7,9.9-8,7.7c-4.3-2.2-7.7-9.1-7.6-15.6c0.1-6.5,3.7-9.9,8-7.7
				S244.3,106.2,244.2,112.6z"/>
			<path class="st2" d="M242.3,113c-0.1,6.5-3.7,9.9-8,7.7c-4.3-2.2-7.7-9.1-7.6-15.6c0.1-6.5,3.7-9.9,8-7.7
				C239,99.6,242.4,106.6,242.3,113z"/>
			<path class="st17" d="M237.6,110.7c0,2.6-1.5,3.9-3.2,3.1c-1.7-0.9-3.1-3.6-3-6.2c0-2.6,1.5-3.9,3.2-3.1
				C236.3,105.3,237.6,108.1,237.6,110.7z"/>
			<path class="st18" d="M240.9,112.3c-0.1,5.3-3.1,8.1-6.6,6.3c-3.6-1.8-6.3-7.5-6.3-12.8c0.1-5.3,3.1-8.1,6.6-6.3
				C238.2,101.3,241,107.1,240.9,112.3z"/>
			<path class="st19" d="M239.4,111.6c-0.1,4.1-2.3,6.2-5.1,4.9c-2.7-1.4-4.9-5.8-4.8-9.8c0.1-4.1,2.3-6.2,5.1-4.9
				C237.3,103.1,239.4,107.5,239.4,111.6z"/>
		</g>
		
			<ellipse transform="matrix(0.1602 -0.9871 0.9871 0.1602 131.1585 317.5383)" class="st20" cx="252.2" cy="81.7" rx="11.4" ry="11.4"/>
		<circle class="st20" cx="263.6" cy="83.6" r="4.7"/>
	</g>
</g>
</svg>
