<?xml version="1.0" encoding="utf-8"?>
<!-- Generator: Adobe Illustrator 23.0.1, SVG Export Plug-In . SVG Version: 6.00 Build 0)  -->
<svg version="1.1" id="Layer_1" xmlns="http://www.w3.org/2000/svg" xmlns:xlink="http://www.w3.org/1999/xlink" x="0px" y="0px"
	 viewBox="0 0 300 250" style="enable-background:new 0 0 300 250;" xml:space="preserve">
<style type="text/css">
	.st0{fill:#3399FF;}
	.st1{display:none;}
	.st2{display:inline;}
	.st3{fill:#E9F7FF;}
	.st4{display:inline;fill:#C0E6FF;}
	.st5{fill:#17E06D;}
	.st6{fill:#FFFFFF;}
</style>
<g>
	<rect class="st0" width="300" height="250"/>
</g>
<g class="st1">
	<g class="st2">
		<path class="st3" d="M185.16,132.57V88.25c0-0.88-0.23-1.69-0.66-2.41c-0.5-0.82-1.25-1.45-2.17-1.84
			c-0.5-0.21-1.06-0.37-1.71-0.48c-0.59-0.1-1.28-0.15-2.06-0.15c-0.71,0-1.38,0.05-1.96,0.15c-0.61,0.1-1.17,0.25-1.65,0.45
			c-0.9,0.35-1.65,0.93-2.18,1.68c-0.53,0.77-0.82,1.66-0.82,2.6v40.45c-3.87,0.42-7.38,2.08-10.11,4.57l-16.98-46.11
			c-0.26-0.74-0.67-1.4-1.21-1.97l-0.1-0.1c-0.58-0.56-1.31-0.98-2.15-1.25c-0.53-0.17-1.13-0.29-1.83-0.37
			c-0.6-0.07-1.26-0.1-1.96-0.1c-0.67,0-1.31,0.03-1.91,0.1c-0.7,0.08-1.29,0.2-1.82,0.37c-0.8,0.25-1.49,0.64-2.07,1.16l-0.1,0.09
			c-0.59,0.56-1.03,1.23-1.32,2.02l-22.4,60.88c-0.38,0.96-0.55,1.83-0.51,2.65c0.06,1.36,0.68,2.55,1.74,3.36
			c0.72,0.55,1.61,0.9,2.65,1.04c0.63,0.1,1.35,0.14,2.28,0.14c0.88,0,1.57-0.05,2.13-0.15c0.82-0.13,1.47-0.33,2.04-0.63
			c0.7-0.36,1.28-0.82,1.74-1.4c0.39-0.5,0.69-1.07,0.88-1.7l5.03-14.49h23.04l3.61,10.05l3.36-0.5c0,0.05,0,0.1,0,0.15
			c0,4.7,1.82,8.98,4.78,12.18v11.74c0,2.21,1.21,4.23,3.16,5.27c0.86,0.46,1.84,0.71,2.82,0.71c1.18,0,2.33-0.35,3.32-1l3.86-2.57
			l3.86,2.57c0.99,0.66,2.13,1,3.31,1c0.98,0,1.95-0.24,2.82-0.71c1.95-1.04,3.16-3.06,3.16-5.27V158.7
			c2.97-3.2,4.78-7.48,4.78-12.18C191.85,140.89,189.24,135.86,185.16,132.57z M130.26,124.61l7.08-20.21l7.26,20.21H130.26z
			 M173.92,152.5c-3.3,0-5.98-2.68-5.98-5.98s2.68-5.98,5.98-5.98s5.98,2.68,5.98,5.98S177.21,152.5,173.92,152.5z"/>
	</g>
</g>
<g class="st1">
	<path class="st4" d="M213.71,218.26c3.01,0.21,3.42,10.06,3.6,14.27c0.07,1.69,0.13,3.14,0.26,4.26c0.17,1.39,0.05,1.72-0.01,1.8
		c-0.09,0.08-0.44,0.22-1.77,0.22h-0.01l-20.2-0.01c-0.6,0-2.19,0-2.59-0.46c-0.45-0.53,0.11-2.32,0.49-3.51l0.12-0.38
		c1.27-4.06,1.32-8.52,0.2-12.64c-1.46,0.66-2.93,1.28-4.42,1.88c0.71,3.07,0.61,6.34-0.32,9.34l-0.11,0.36
		c-0.7,2.19-1.74,5.5,0.44,8.04c1.82,2.12,4.66,2.12,6.19,2.12h5.73v6.43h4.76v-6.43h9.71h0.07c1.32,0,3.67-0.03,5.26-1.82
		c1.62-1.83,1.33-4.24,1.18-5.53c-0.11-0.93-0.17-2.3-0.23-3.89c-0.3-7.3-0.76-18.33-8.03-18.82c-0.91-0.06-3.55,0.26-6.22,0.63
		c-3.9,2.53-7.97,4.82-12.19,6.83C201.55,219.85,212.05,218.22,213.71,218.26z"/>
	<path class="st4" d="M254.59,91.7c-1.19-4.09-3.77-7.28-7.17-9.15c2.73,6.25,4.87,12.82,6.36,19.63c0.06-0.14,0.13-0.27,0.19-0.4
		C255.34,98.59,255.56,95.01,254.59,91.7z"/>
	<path class="st4" d="M285.41,111.01c-3.19-36.29-16.32-70.95-37.97-100.24c-2.93-3.96-5.81-7.53-8.7-10.77h-6.49
		c3.77,3.91,7.52,8.4,11.36,13.59c0.56,0.76,1.11,1.52,1.65,2.28l-22.6-1.21c-1.32-0.07-2.43,0.94-2.5,2.25s0.94,2.43,2.25,2.5
		l24.4,1.31c0.04,0,0.09,0,0.13,0c0.51,0,0.99-0.17,1.38-0.45c6.35,9.39,11.83,19.29,16.41,29.58l-24.09-0.4
		c-0.67-0.02-1.28,0.25-1.74,0.71c-0.46,0.47-0.7,1.1-0.68,1.76l0.56,14.71c1.83,2.77,3.52,5.63,5.09,8.58l-0.8-20.96l22.89,0.37
		c0.27,0.01,0.53-0.04,0.77-0.12c1.48,3.57,2.84,7.18,4.1,10.82l-14.05-1.17c-1.31-0.11-2.46,0.86-2.57,2.17s0.86,2.46,2.17,2.57
		l16.06,1.34c3.7,11.73,6.28,23.83,7.69,36.14c-0.1,0-0.2-0.01-0.31,0l-22.8,1.85c-0.85,0.07-1.55,0.58-1.91,1.28
		c0.13,0.89,0.25,1.79,0.36,2.69c0.44,0.48,1.06,0.78,1.75,0.78c0.06,0,0.13,0,0.2-0.01l22.8-1.85c0.14-0.01,0.27-0.04,0.4-0.07
		c0.01,0.13,0.03,0.25,0.04,0.38c0.45,5.17,0.69,10.35,0.73,15.51c-0.24-0.08-0.5-0.13-0.76-0.12l-24.41,0.61
		c-0.04,1.6-0.11,3.18-0.22,4.76l24.75-0.62c0.22,0,0.43-0.05,0.63-0.11c-0.07,4.15-0.27,8.3-0.61,12.43l-18.83-0.14
		c-0.01,0-0.01,0-0.02,0c-1.31,0-2.37,1.05-2.38,2.36s1.05,2.39,2.36,2.4l18.42,0.14c-1.98,18.71-6.7,37.08-14.03,54.51
		c-0.24-0.07-0.48-0.11-0.74-0.1l-18.49,0.74c-1.52,0.06-1.91-0.1-2-0.21c-0.15-0.16-0.23-0.77-0.21-1.81
		c0.03-3.3,0.26-6.04,0.5-8.94c0.22-2.69,0.45-5.47,0.5-8.68h8.4h0.07c1.32,0,3.67-0.03,5.26-1.82c1.63-1.83,1.34-4.24,1.18-5.53
		c-0.11-0.93-0.17-2.3-0.23-3.89c-0.3-7.3-0.76-18.33-8.03-18.82c-0.08-0.01-0.18,0-0.28,0c-0.46,1.63-0.97,3.25-1.51,4.85
		c0.69-0.07,1.2-0.11,1.47-0.1c3.01,0.2,3.42,10.06,3.6,14.27c0.07,1.69,0.13,3.15,0.26,4.26c0.17,1.38,0.05,1.72-0.01,1.8
		c-0.09,0.09-0.44,0.23-1.77,0.23h-0.01l-12.97-0.01c-0.96,1.61-1.96,3.2-3.01,4.75h2.51c0.04,0.03,0.07,0.07,0.12,0.09
		c0.01,0.02,0.02,0.03,0.04,0.05c0.05,0.07,0.1,0.14,0.16,0.22c-0.06,2.86-0.27,5.33-0.48,7.93c-0.24,2.86-0.48,5.81-0.51,9.28
		c-0.01,1.22-0.03,3.49,1.52,5.13c1.41,1.49,3.34,1.71,4.75,1.71c0.33,0,0.64-0.01,0.9-0.02l16.98-0.68
		c-0.97,2.13-1.97,4.25-3.01,6.35c-5.71,11.49-12.13,21.29-19.22,29.37l-1.06-18.62c-0.08-1.31-1.2-2.31-2.51-2.24
		s-2.32,1.2-2.24,2.51l1.28,22.53c0.01,0.19,0.05,0.38,0.1,0.55c-0.58,0.58-1.17,1.13-1.75,1.69h6.73
		c8.57-8.98,16.23-20.21,22.92-33.66C281.71,183.72,288.59,147.3,285.41,111.01z"/>
	<path class="st4" d="M176.24,247.46c-1.3,0.1-2.28,1.24-2.18,2.54h4.77l-0.03-0.35C178.7,248.34,177.55,247.36,176.24,247.46z"/>
	<path class="st4" d="M50.59,228.59c-0.5-0.07-0.98,0.02-1.4,0.23c-3.88-3.71-7.6-7.59-11.03-11.7
		c-11.31-13.56-17.99-28.15-19.31-42.2c-1.37-14.63,2.68-28.68,6.97-43.55c0.36-1.27,0.73-2.54,1.09-3.81
		c5.03,5.94,11.26,10.78,18.16,14.3c-0.31-1.93-0.57-3.87-0.77-5.83c-5.77-3.4-10.93-7.84-15.08-13.16
		c-0.23-0.29-0.51-0.51-0.82-0.66c2.55-9.41,4.68-19.03,4.89-28.82c0.02-0.79,0.01-1.58,0.01-2.37c5.16-0.74,10.49,0.34,15.09,2.78
		c0.47-1.52,0.97-3.03,1.5-4.53c-5.15-2.57-11.01-3.73-16.72-3.04c-0.06-1.54-0.14-3.07-0.23-4.59c-0.51-9.49-1-18.46,2.58-26.5
		c3.68-8.28,10.96-13.99,18.66-20.04c1.3-1.02,2.61-2.06,3.92-3.11c-0.3,9.42,3.23,18.87,9.52,25.87c1.01-1.24,2.06-2.46,3.12-3.65
		c-6.24-7.2-9.2-17.23-7.38-26.65c0-0.02,0-0.03,0-0.05c5.84-5.34,10.83-11.55,15.65-17.55c2.67-3.32,5.43-6.73,8.29-9.97h-6.29
		c-1.95,2.32-3.86,4.68-5.71,6.99c-4.73,5.93-9.65,12.07-15.3,17.2c-2.74,2.49-5.79,4.88-8.73,7.2
		c-7.82,6.14-15.9,12.49-20.07,21.85c-4.05,9.09-3.51,19.06-2.99,28.69c0.21,3.76,0.41,7.65,0.34,11.37
		c-0.26,12.37-3.84,24.77-7.29,36.76c-4.22,14.64-8.59,29.79-7.13,45.31c1.41,15.01,8.46,30.5,20.39,44.81
		c9.43,11.3,20.78,20.79,32.03,29.84h7.61c-0.2-0.16-0.39-0.32-0.59-0.47c-6.37-5.1-12.84-10.28-19.03-15.79
		c0.85,0.04,1.69,0.07,2.53,0.07c8.97,0,17.87-2.35,25.7-6.68c2.09,8.64,7.56,16.4,15.07,21.18c0.98,0.63,2.01,1.18,3.05,1.7h27.28
		c0-0.24-0.02-0.49-0.09-0.74c-0.38-1.26-1.71-1.97-2.97-1.59c-8.23,2.5-17.46,1.23-24.72-3.39c-6.93-4.41-11.84-11.76-13.33-19.82
		c3.2-2.19,6.15-4.74,8.79-7.62c0.08-0.09,0.16-0.19,0.24-0.28c-1.39-0.82-2.77-1.67-4.12-2.56
		C81.52,225.16,65.73,230.75,50.59,228.59z"/>
	<path class="st4" d="M54.88,185.13c-0.98,0.88-1.06,2.38-0.18,3.36c0.47,0.52,1.12,0.79,1.77,0.79c0.57,0,1.13-0.2,1.59-0.61
		c1.42-1.28,2.73-2.66,3.93-4.13c-0.94-1.39-1.86-2.81-2.73-4.25C57.96,182.03,56.51,183.67,54.88,185.13z"/>
	<path class="st4" d="M117.41,226.47c0.05,0,0.11,0,0.16,0c0.2,0,0.4-0.03,0.58-0.08c-0.81-0.25-1.62-0.52-2.42-0.79
		C116.14,226.09,116.73,226.42,117.41,226.47z"/>
	<path class="st4" d="M182.9,20.81c2.48-0.64,4.77-1.93,6.51-3.8c3.85-4.14,4.54-10.79,1.59-15.47c-0.36-0.57-0.76-1.07-1.19-1.54
		h-20.6c-2.14,1.99-3.42,4.58-3.6,7.5c-0.33,5.42,3.32,10.84,8.69,12.88c1.24,0.47,2.54,0.75,3.84,0.85l-0.01,1.29
		c1.6,0.44,3.18,0.91,4.75,1.42L182.9,20.81z M176,15.94c-3.41-1.3-5.84-4.8-5.63-8.15c0.23-3.7,3.53-5.84,6.56-6.62
		c0.94-0.24,1.97-0.38,3.01-0.38c2.74,0,5.57,0.93,7.05,3.28c1.8,2.87,1.35,7.12-1.05,9.69C183.56,16.32,179.38,17.23,176,15.94z"/>
	<path class="st4" d="M153.64,4.63c0.51-0.32,0.9-0.84,1.05-1.47c0.25-1.07,0.59-2.12,0.97-3.16h-8.22
		c1.9,5.71,2.96,12.18,3.56,18.76c1.6,0.01,3.2,0.06,4.78,0.14C155.35,14.05,154.69,9.22,153.64,4.63z"/>
	<path class="st4" d="M121.99,22.49c3.67-1,7.43-1.81,11.25-2.42c-2.71-1-5.52-1.71-8.38-2.09l0,0c-1.28-2.78-0.93-6.52,0.94-10
		c1.6-2.98,4.05-5.54,6.54-7.98h-6.61c-1.55,1.74-3,3.62-4.13,5.73c-2.11,3.94-2.75,8.24-1.86,11.94
		c-12.29,0.1-24.55,6.2-31.88,16.08c-0.78,1.06-0.56,2.55,0.49,3.33c0.39,0.29,0.84,0.44,1.3,0.46c0.89-0.62,1.8-1.23,2.71-1.82
		C99.35,26.96,110.81,21.82,121.99,22.49z"/>
	<path class="st4" d="M167.01,232.89c-0.03,1.31,1.01,2.4,2.33,2.43c0.02,0,0.03,0,0.05,0c1.29,0,2.35-1.03,2.38-2.33l0.08-3.99
		c-1.58,0.33-3.17,0.62-4.78,0.88L167.01,232.89z"/>
	<path class="st4" d="M147.95,231.22c-0.23,2.84-0.45,5.68-0.69,8.51c-0.32,3.74-0.67,7.14-1.31,10.27h4.84
		c0.65-3.44,0.95-6.83,1.21-9.86c0.26-2.97,0.5-5.94,0.74-8.92c-0.91,0.02-1.82,0.03-2.73,0.03
		C149.31,231.25,148.63,231.24,147.95,231.22z"/>
	<path class="st4" d="M207.4,0h-4.76l0.7,33.1c1.64,0.95,3.24,1.95,4.82,2.98L207.4,0z"/>
	<path class="st4" d="M210.9,37.93c2.83,1.98,5.55,4.09,8.17,6.33C217.17,41.19,214.32,38.98,210.9,37.93z"/>
	<path class="st4" d="M232.07,175.06l-0.12,0.38c-0.38,1.19-0.94,2.98-0.49,3.51c0.39,0.46,1.99,0.46,2.59,0.46h7.23
		c3.83-6.41,7.01-13.25,9.43-20.45c-4.01,0.42-14.13,2.06-18.55,3C233.4,166.2,233.38,170.85,232.07,175.06z"/>
	<path class="st4" d="M129.75,200.5c-5.76,6.59-9.24,15.02-9.81,23.75c-0.07,1.05-0.82,1.89-1.79,2.14
		c9.43,2.96,19.43,4.64,29.8,4.83c1.15-14.4,2.13-28.9,2.88-43.36C142.7,189.76,135.25,194.21,129.75,200.5z"/>
	<path class="st4" d="M247.42,82.55c-1.09-2.5-2.27-4.94-3.54-7.34l0.23,6.01C245.28,81.53,246.39,81.98,247.42,82.55z"/>
	<path class="st4" d="M200.21,201.45c3.7,0.18,7.43-2.84,7.84-6.33c0.42-3.61-2.37-8.26-6.21-10.36c-1.9-1.04-4.71-1.83-7.36,0.33
		c-3.14,2.55-3.23,6.59-2.26,9.52C193.21,197.64,195.9,201.25,200.21,201.45z"/>
	<path class="st4" d="M168.01,197.73l-12.95-0.14c-0.65,11.23-1.43,22.46-2.33,33.63c4.87-0.12,9.65-0.58,14.34-1.34l0.65-31.07
		C167.73,198.42,167.84,198.06,168.01,197.73z"/>
	<path class="st4" d="M188.47,170.15c3.55-0.39,6.88-2.87,8.29-6.15c0.92-2.14,1.07-4.65,0.42-6.87c-1.51-5.18-5.68-7.29-9.08-7.54
		c-3.4-0.25-7.83,1.22-10.07,6.11c-1.49,3.25-1.09,7.38,1.01,10.27C181.13,168.86,184.92,170.54,188.47,170.15z"/>
	<path class="st4" d="M193.69,221.36c0.04,0.15,0.08,0.31,0.12,0.46c0.61-0.28,1.21-0.56,1.81-0.85
		C194.91,221.11,194.25,221.24,193.69,221.36z"/>
	<path class="st4" d="M227.85,182.04c-2.18-2.54-1.13-5.85-0.44-8.04l0.12-0.36c1.24-3.98,1.01-8.46-0.64-12.28
		c-0.33-0.76-0.23-1.68,0.25-2.35c0.63-0.89,0.94-1.34,12.56-3.24c1.73-0.28,10.19-1.65,12.52-1.65c2-7.03,3.28-14.37,3.79-21.92
		l-30.91,0.77c-0.02,0-0.04,0-0.06,0c-1.29,0-2.35-1.03-2.38-2.32c-0.03-1.31,1-2.4,2.32-2.44l31.25-0.78
		c0.02-0.81,0.03-1.62,0.03-2.43c0-4.33-0.27-8.61-0.77-12.8c-0.34-0.38-0.58-0.86-0.62-1.4c-0.04-0.46,0.06-0.9,0.26-1.28
		c-0.36-2.47-0.81-4.92-1.34-7.33c-2.18,4.67-6.82,8.03-11.95,8.6c-0.53,0.06-1.06,0.09-1.59,0.09c-4.76,0-9.43-2.33-12.23-6.21
		c-3.11-4.31-3.69-10.21-1.47-15.04c2.44-5.32,7.23-8.59,12.78-8.88l-0.54-14.09c-5.5-8.36-12.15-15.89-19.73-22.37
		c0.74,1.2,1.34,2.53,1.76,3.97c0.97,3.32,0.75,6.89-0.62,10.08c-2.09,4.88-6.86,8.42-12.14,9c-0.53,0.06-1.06,0.09-1.59,0.09
		c-4.76,0-9.43-2.33-12.23-6.21c-3.11-4.31-3.69-10.21-1.47-15.04c2.15-4.68,6.12-7.78,10.83-8.65c-0.11-0.27-0.18-0.56-0.19-0.87
		l-0.07-3.53c-6.42-3.74-13.27-6.82-20.46-9.15l-0.04,7.54c0,0.89-0.01,2.25-0.83,3.49c-1.41,2.14-3.98,2.26-5.31,2.26h-0.26
		l-19.94-0.14c0.02,1.59,0.03,3.15,0.03,4.65c0.02,3.5,0.04,6.8,0.14,9.63c0.09,2.42,0.17,4.84,0.24,7.27l19.14,0.17
		c1.29,0.01,2.34,1.05,2.36,2.35l0.31,22.28c0.02,1.31-1.03,2.39-2.35,2.41c-0.01,0-0.02,0-0.03,0c-1.3,0-2.36-1.04-2.38-2.35
		l-0.28-19.96l-16.64-0.15c0.46,16.3,0.66,32.68,0.61,49.06l22.65,0.06c0.16,0,0.31,0.02,0.46,0.05c0.02-2.46-0.46-4.94-1.43-7.19
		l0,0c-0.33-0.76-0.23-1.68,0.25-2.35c0.63-0.89,0.94-1.34,12.56-3.24c1.81-0.3,10.92-1.77,12.8-1.65
		c7.27,0.49,7.73,11.52,8.03,18.82c0.07,1.59,0.12,2.96,0.23,3.89c0.16,1.29,0.45,3.71-1.18,5.53c-1.59,1.79-3.95,1.82-5.26,1.82
		h-0.07l-20.2-0.01c-1.53,0-4.38,0-6.19-2.12c-2.18-2.54-1.13-5.85-0.44-8.04l0.12-0.36c0.04-0.13,0.07-0.26,0.11-0.39l-22.46-0.06
		c-0.09,13.26-0.34,26.51-0.76,39.72l15.66,0.35c0.02,0,0.03,0,0.05,0c0.22-1.23,0.58-2.44,1.1-3.58l0,0
		c2.73-5.94,8.38-9.34,14.74-8.87c6.37,0.47,11.47,4.67,13.3,10.95c0.97,3.32,0.75,6.89-0.62,10.08c-2.09,4.88-6.86,8.42-12.14,9
		c-0.53,0.06-1.06,0.09-1.59,0.09c-4.76,0-9.43-2.33-12.23-6.21c-1.44-1.99-2.32-4.31-2.66-6.71c-0.01,0-0.01,0-0.02,0h-0.05
		l-15.72-0.35c-0.13,3.79-0.27,7.57-0.43,11.34c-0.28,6.58-0.61,13.19-0.97,19.8l31.7,0.35c-0.61-4.62,0.97-8.96,4.44-11.78
		c3.62-2.94,8.23-3.24,12.65-0.81c5.58,3.06,9.29,9.54,8.65,15.08c-0.68,5.83-6.22,10.54-12.24,10.54c-0.18,0-0.36,0-0.54-0.01
		c-4.96-0.24-9.34-3.44-11.59-8.33c-0.19,0.05-0.38,0.08-0.57,0.08h-0.03l-15.6-0.17c0.18,0.34,0.28,0.72,0.27,1.13L171.84,229
		c6.05-1.27,11.92-3.05,17.55-5.29c-0.23-1.01-0.56-2-0.96-2.95c-0.33-0.76-0.23-1.68,0.25-2.35c0.63-0.89,0.94-1.33,12.56-3.24
		c0.93-0.15,3.77-0.61,6.58-1.01c12.06-7.84,22.43-18.06,30.45-29.99h-4.23C232.51,184.16,229.66,184.15,227.85,182.04z"/>
	<path class="st4" d="M186.52,123.43l20.2,0.01c0,0,0,0,0.01,0c1.33,0,1.68-0.14,1.77-0.22c0.07-0.1,0.17-0.47,0.01-1.8
		c-0.14-1.12-0.2-2.57-0.26-4.26c-0.18-4.21-0.59-14.07-3.6-14.27c-1.83-0.06-14.83,2-20.02,3.1c1.25,4.24,1.23,8.89-0.09,13.1
		l-0.12,0.38c-0.38,1.18-0.94,2.98-0.49,3.5C184.33,123.43,185.92,123.43,186.52,123.43z"/>
	<path class="st4" d="M230.87,91.6c-1.49,3.25-1.09,7.37,1.01,10.27c2.09,2.89,5.88,4.57,9.44,4.18s6.88-2.87,8.29-6.15
		c0.92-2.14,1.07-4.65,0.42-6.87c-1.51-5.18-5.68-7.29-9.08-7.54C237.55,85.24,233.12,86.71,230.87,91.6z"/>
	<path class="st4" d="M176.49,32.48c1.03,0,1.43-0.1,1.57-0.16c0.03-0.17,0.03-0.65,0.04-0.86l0.04-8.94
		c-7.18-1.97-14.66-3.2-22.37-3.62c0.39,4.52,0.58,9.06,0.67,13.43L176.49,32.48z"/>
	<path class="st4" d="M126.17,197.37c6.44-7.37,15.27-12.49,24.87-14.43c0.02,0,0.03,0,0.05,0c0.17-3.37,0.32-6.74,0.47-10.11
		c0.44-10.33,0.77-20.7,1-31.08c-10.04,1.22-19.36,6.94-24.96,15.36c-0.46,0.69-1.21,1.06-1.98,1.06c-0.45,0-0.91-0.13-1.32-0.4
		c-1.09-0.73-1.39-2.21-0.66-3.3c6.42-9.63,17.11-16.17,28.61-17.48c0.14-0.02,0.27-0.01,0.41,0c0.3-15.57,0.36-31.17,0.2-46.74
		c-15.97-6.33-35.14-2.94-47.92,8.55c-0.45,0.41-1.02,0.61-1.59,0.61c-0.65,0-1.3-0.27-1.77-0.79c-0.88-0.98-0.8-2.48,0.18-3.36
		c13.62-12.24,33.81-16.14,51.04-10.11c-0.16-11.23-0.44-22.43-0.84-33.6c-0.1-2.86-0.12-6.13-0.14-9.6c-0.42-0.21-0.79-0.55-1.03-1
		c-5.52-10.34-16.64-17.58-28.33-18.45c-0.15-0.01-0.29-0.01-0.44-0.02c-10.63,2.9-20.59,7.4-29.62,13.24
		c-0.23,0.29-0.47,0.57-0.68,0.86c-0.49,0.66-1.26,1-2.03,0.96c-6.94,4.8-13.29,10.4-18.9,16.68c1.85,2.13,3.97,4.03,6.36,5.57
		c1.76,1.14,3.64,2.07,5.59,2.81c0.32-0.03,0.66,0,0.99,0.1c0.35,0.12,0.65,0.31,0.89,0.55c9.18,2.82,19.64,1.41,27.55-4.17
		c1.07-0.76,2.56-0.5,3.32,0.57s0.5,2.56-0.57,3.31c-6.07,4.28-13.44,6.43-20.81,6.43c-3.24,0-6.48-0.42-9.61-1.26
		c-3.5,12.15-3.52,25.37-0.02,37.51c0.36,1.26-0.36,2.58-1.63,2.94c-0.22,0.06-0.44,0.09-0.66,0.09c-1.03,0-1.98-0.68-2.28-1.72
		c-3.77-13.06-3.72-27.29,0.08-40.35c-1.88-0.78-3.69-1.73-5.41-2.84c-2.56-1.66-4.87-3.66-6.9-5.91
		c-7.58,9.29-13.62,19.89-17.73,31.4c5.6,2.79,10.37,7.25,13.18,12.87c0.59,1.17,0.12,2.6-1.06,3.19c-0.34,0.17-0.71,0.25-1.06,0.25
		c-0.87,0-1.71-0.48-2.13-1.31c-2.25-4.5-6.01-8.11-10.44-10.47c-3.03,9.86-4.66,20.34-4.66,31.19c0,3.72,0.19,7.4,0.57,11.02
		c9.2,5.42,19.96,8.18,30.7,7.54c17.47-1.04,33.96-10.99,43.01-25.97c0.68-1.12,2.14-1.49,3.26-0.81s1.48,2.14,0.8,3.26
		c-9.85,16.3-27.78,27.13-46.8,28.26c-1.11,0.06-2.22,0.1-3.33,0.1c-0.79,0-1.59-0.02-2.38-0.06c3.5,12.36,0.51,26.26-7.59,36.19
		c7.93,11.7,18.13,21.73,29.97,29.46c0.12-0.13,0.25-0.24,0.36-0.37c10.43-11.41,14.71-27.85,11.17-42.9
		c-0.3-1.28,0.49-2.56,1.77-2.86s2.56,0.49,2.86,1.77c3.87,16.44-0.75,34.38-12.05,46.92c6.18,3.65,12.76,6.69,19.66,9.04
		c-0.37-0.45-0.58-1.03-0.54-1.66C115.83,214.17,119.73,204.74,126.17,197.37z"/>
	<path class="st4" d="M151.71,33.67c-0.08-4.84-0.27-9.9-0.72-14.9c-0.33,0-0.66-0.01-0.99-0.01c-5.7,0-11.3,0.46-16.76,1.32
		C140.5,22.75,147.04,27.51,151.71,33.67z"/>
	<path class="st4" d="M197.1,48.14c-1.49,3.25-1.09,7.37,1.01,10.27c2.09,2.9,5.88,4.58,9.44,4.18c3.55-0.4,6.88-2.87,8.29-6.15
		c0.92-2.14,1.07-4.64,0.42-6.87c-1.51-5.18-5.68-7.29-9.08-7.54C203.77,41.78,199.35,43.25,197.1,48.14z"/>
	<path class="st4" d="M64.45,147.91c-6.75-0.89-13.31-2.97-19.36-6.06c2.21,13.9,7.12,26.89,14.17,38.44
		C66.04,171.17,68.19,158.72,64.45,147.91z"/>
	<path class="st4" d="M208.04,37.34c0.99,0.11,1.94,0.31,2.85,0.59c-0.9-0.63-1.81-1.25-2.73-1.85l0.01,0.45
		C208.18,36.82,208.13,37.08,208.04,37.34z"/>
</g>
<g>
	<g>
		<path class="st5" d="M105.61,158.2c0,0.53-0.17,0.95-0.52,1.24c-0.35,0.29-0.8,0.51-1.36,0.64c-0.56,0.13-1.32,0.2-2.28,0.2
			c-0.9,0-1.68-0.07-2.31-0.2c-0.64-0.13-1.13-0.35-1.48-0.64c-0.35-0.29-0.52-0.7-0.52-1.24v-8.06c-3.25,3.51-6.82,6.23-10.74,8.14
			c-3.91,1.92-7.97,2.87-12.17,2.87c-3.78,0-7.17-0.49-10.18-1.48c-3.01-0.98-5.55-2.39-7.62-4.23c-2.07-1.84-3.67-4.06-4.79-6.66
			c-1.12-2.61-1.68-5.53-1.68-8.78c0-3.99,0.82-7.46,2.47-10.42c1.65-2.95,3.99-5.41,7.02-7.38c3.03-1.97,6.68-3.45,10.94-4.43
			c4.26-0.98,8.99-1.48,14.21-1.48h11.49v-6.23c0-3.09-0.32-5.81-0.96-8.18c-0.64-2.37-1.68-4.35-3.11-5.95
			c-1.44-1.6-3.3-2.79-5.59-3.59c-2.29-0.8-5.08-1.2-8.38-1.2c-3.19,0-6.07,0.39-8.62,1.16c-2.55,0.77-4.79,1.64-6.7,2.59
			c-1.92,0.96-3.5,1.82-4.75,2.59c-1.25,0.77-2.14,1.16-2.67,1.16c-0.32,0-0.61-0.05-0.88-0.16c-0.27-0.11-0.49-0.31-0.68-0.6
			c-0.19-0.29-0.32-0.67-0.4-1.12c-0.08-0.45-0.12-1-0.12-1.64c0-1.12,0.08-2.01,0.24-2.67c0.16-0.66,0.57-1.33,1.24-2
			c0.66-0.67,1.85-1.45,3.55-2.35c1.7-0.9,3.66-1.74,5.87-2.51c2.21-0.77,4.59-1.4,7.14-1.88c2.55-0.48,5.11-0.72,7.66-0.72
			c4.95,0,9.12,0.6,12.53,1.8c3.4,1.2,6.16,2.91,8.26,5.15c2.1,2.23,3.6,4.99,4.51,8.26c0.9,3.27,1.36,6.98,1.36,11.13V158.2z
			 M96.11,124.12H82.94c-3.83,0-7.18,0.35-10.06,1.04c-2.87,0.69-5.27,1.7-7.18,3.03c-1.92,1.33-3.34,2.93-4.27,4.79
			c-0.93,1.86-1.4,3.99-1.4,6.39c0,4.15,1.32,7.46,3.95,9.94c2.63,2.47,6.35,3.71,11.13,3.71c3.78,0,7.3-0.97,10.58-2.91
			c3.27-1.94,6.75-4.94,10.42-8.98V124.12z"/>
	</g>
	<g>
		<path class="st6" d="M120.25,119.48c0,0.11-0.03,0.21-0.09,0.29c-0.06,0.08-0.15,0.15-0.28,0.2c-0.13,0.06-0.31,0.1-0.53,0.13
			c-0.23,0.03-0.52,0.04-0.87,0.04c-0.34,0-0.62-0.01-0.85-0.04c-0.23-0.03-0.41-0.07-0.54-0.13c-0.14-0.06-0.23-0.12-0.28-0.2
			c-0.05-0.08-0.07-0.17-0.07-0.29V91.04c0-0.11,0.02-0.21,0.07-0.3c0.05-0.08,0.14-0.16,0.28-0.21c0.14-0.06,0.32-0.1,0.54-0.13
			c0.23-0.03,0.51-0.04,0.85-0.04c0.35,0,0.65,0.01,0.87,0.04c0.23,0.03,0.4,0.07,0.53,0.13c0.13,0.06,0.22,0.13,0.28,0.21
			c0.06,0.09,0.09,0.19,0.09,0.3V119.48z"/>
		<path class="st6" d="M143.15,119.48c0,0.11-0.03,0.21-0.07,0.29c-0.05,0.08-0.14,0.15-0.27,0.2c-0.13,0.06-0.29,0.1-0.5,0.13
			c-0.21,0.03-0.46,0.04-0.76,0.04c-0.33,0-0.59-0.01-0.8-0.04c-0.21-0.03-0.37-0.07-0.49-0.13c-0.12-0.06-0.2-0.12-0.25-0.2
			c-0.04-0.08-0.06-0.17-0.06-0.29v-2.53c-1.09,1.21-2.17,2.09-3.24,2.64c-1.06,0.55-2.14,0.83-3.24,0.83
			c-1.28,0-2.35-0.21-3.23-0.64c-0.87-0.43-1.58-1-2.12-1.73c-0.54-0.73-0.93-1.58-1.16-2.55c-0.23-0.97-0.35-2.15-0.35-3.54v-11.62
			c0-0.11,0.02-0.21,0.07-0.29c0.05-0.08,0.15-0.15,0.29-0.21c0.14-0.06,0.33-0.11,0.55-0.13c0.23-0.02,0.51-0.03,0.85-0.03
			c0.34,0,0.62,0.01,0.85,0.03c0.23,0.02,0.41,0.06,0.54,0.13c0.14,0.06,0.23,0.14,0.29,0.21c0.06,0.08,0.08,0.17,0.08,0.29v11.15
			c0,1.12,0.08,2.02,0.25,2.69c0.16,0.67,0.41,1.25,0.74,1.72c0.33,0.48,0.76,0.84,1.27,1.11s1.11,0.39,1.79,0.39
			c0.88,0,1.76-0.31,2.63-0.94c0.87-0.62,1.8-1.54,2.78-2.75v-13.39c0-0.11,0.02-0.21,0.07-0.29c0.05-0.08,0.14-0.15,0.29-0.21
			c0.14-0.06,0.32-0.11,0.54-0.13c0.22-0.02,0.51-0.03,0.86-0.03c0.34,0,0.62,0.01,0.85,0.03c0.23,0.02,0.41,0.06,0.53,0.13
			c0.13,0.06,0.22,0.14,0.29,0.21c0.06,0.08,0.1,0.17,0.1,0.29V119.48z"/>
		<path class="st6" d="M178.06,119.48c0,0.11-0.03,0.21-0.08,0.29c-0.06,0.08-0.15,0.15-0.28,0.2c-0.13,0.06-0.31,0.1-0.53,0.13
			c-0.23,0.03-0.51,0.04-0.85,0.04c-0.35,0-0.65-0.01-0.87-0.04c-0.23-0.03-0.41-0.07-0.54-0.13c-0.14-0.06-0.23-0.12-0.29-0.2
			c-0.06-0.08-0.08-0.17-0.08-0.29v-11.64c0-0.81-0.07-1.55-0.21-2.21c-0.14-0.67-0.37-1.24-0.68-1.72
			c-0.31-0.48-0.71-0.85-1.19-1.11c-0.48-0.26-1.05-0.38-1.7-0.38c-0.81,0-1.62,0.31-2.44,0.94c-0.82,0.62-1.71,1.54-2.69,2.75
			v13.39c0,0.11-0.03,0.21-0.09,0.29c-0.06,0.08-0.15,0.15-0.29,0.2c-0.14,0.06-0.32,0.1-0.54,0.13s-0.51,0.04-0.85,0.04
			c-0.33,0-0.61-0.01-0.84-0.04c-0.23-0.03-0.42-0.07-0.55-0.13c-0.14-0.06-0.23-0.12-0.28-0.2c-0.05-0.08-0.07-0.17-0.07-0.29
			v-11.64c0-0.81-0.08-1.55-0.23-2.21c-0.16-0.67-0.39-1.24-0.7-1.72c-0.31-0.48-0.71-0.85-1.18-1.11
			c-0.48-0.26-1.04-0.38-1.69-0.38c-0.81,0-1.63,0.31-2.45,0.94c-0.82,0.62-1.72,1.54-2.68,2.75v13.39c0,0.11-0.03,0.21-0.08,0.29
			c-0.06,0.08-0.15,0.15-0.28,0.2c-0.13,0.06-0.3,0.1-0.53,0.13s-0.52,0.04-0.87,0.04c-0.34,0-0.62-0.01-0.85-0.04
			c-0.23-0.03-0.41-0.07-0.54-0.13c-0.13-0.06-0.23-0.12-0.28-0.2c-0.05-0.08-0.07-0.17-0.07-0.29v-19.16
			c0-0.11,0.02-0.21,0.06-0.29c0.04-0.08,0.13-0.15,0.26-0.21c0.13-0.06,0.29-0.11,0.49-0.13c0.2-0.02,0.46-0.03,0.79-0.03
			c0.31,0,0.57,0.01,0.78,0.03c0.21,0.02,0.37,0.06,0.48,0.13c0.11,0.06,0.19,0.14,0.24,0.21c0.05,0.08,0.07,0.17,0.07,0.29v2.53
			c1.08-1.21,2.12-2.09,3.14-2.65c1.01-0.56,2.04-0.84,3.08-0.84c0.79,0,1.51,0.09,2.14,0.28c0.63,0.18,1.19,0.44,1.67,0.78
			c0.48,0.33,0.89,0.73,1.23,1.19c0.34,0.46,0.62,0.97,0.85,1.54c0.64-0.69,1.24-1.28,1.82-1.77s1.13-0.87,1.66-1.17
			c0.53-0.3,1.05-0.51,1.55-0.65c0.5-0.13,1.01-0.2,1.52-0.2c1.24,0,2.27,0.22,3.11,0.65c0.84,0.43,1.51,1.01,2.03,1.73
			c0.52,0.72,0.89,1.57,1.11,2.54c0.22,0.97,0.33,2,0.33,3.08V119.48z"/>
		<path class="st6" d="M200.96,119.48c0,0.11-0.03,0.21-0.08,0.29c-0.06,0.08-0.15,0.15-0.28,0.2c-0.13,0.06-0.3,0.1-0.53,0.13
			c-0.23,0.03-0.51,0.04-0.85,0.04c-0.35,0-0.65-0.01-0.87-0.04c-0.23-0.03-0.41-0.07-0.53-0.13c-0.13-0.06-0.22-0.12-0.28-0.2
			c-0.06-0.08-0.08-0.17-0.08-0.29v-11.22c0-1.09-0.09-1.97-0.26-2.64c-0.17-0.67-0.42-1.24-0.75-1.72s-0.75-0.85-1.27-1.11
			c-0.52-0.26-1.12-0.38-1.8-0.38c-0.88,0-1.76,0.31-2.64,0.94c-0.88,0.62-1.8,1.54-2.77,2.75v13.39c0,0.11-0.03,0.21-0.08,0.29
			c-0.06,0.08-0.15,0.15-0.28,0.2c-0.13,0.06-0.3,0.1-0.53,0.13s-0.52,0.04-0.87,0.04c-0.34,0-0.62-0.01-0.85-0.04
			c-0.23-0.03-0.41-0.07-0.54-0.13c-0.13-0.06-0.23-0.12-0.28-0.2c-0.05-0.08-0.07-0.17-0.07-0.29v-19.16
			c0-0.11,0.02-0.21,0.06-0.29c0.04-0.08,0.13-0.15,0.26-0.21c0.13-0.06,0.29-0.11,0.49-0.13c0.2-0.02,0.46-0.03,0.79-0.03
			c0.31,0,0.57,0.01,0.78,0.03c0.21,0.02,0.37,0.06,0.48,0.13c0.11,0.06,0.19,0.14,0.24,0.21c0.05,0.08,0.07,0.17,0.07,0.29v2.53
			c1.08-1.21,2.15-2.09,3.22-2.65c1.07-0.56,2.15-0.84,3.25-0.84c1.28,0,2.35,0.22,3.22,0.65c0.87,0.43,1.58,1.01,2.12,1.73
			c0.54,0.72,0.93,1.57,1.16,2.54c0.23,0.97,0.35,2.14,0.35,3.5V119.48z"/>
		<path class="st5" d="M221.8,119.5c0,0.17-0.06,0.3-0.17,0.38c-0.11,0.08-0.27,0.15-0.47,0.19c-0.2,0.04-0.49,0.06-0.87,0.06
			c-0.37,0-0.66-0.02-0.88-0.06c-0.22-0.04-0.38-0.11-0.48-0.19c-0.1-0.09-0.15-0.21-0.15-0.38v-1.92c-0.84,0.9-1.77,1.59-2.8,2.09
			c-1.03,0.5-2.12,0.75-3.27,0.75c-1.01,0-1.92-0.13-2.74-0.39c-0.82-0.26-1.51-0.64-2.09-1.14c-0.57-0.5-1.02-1.11-1.34-1.83
			c-0.32-0.72-0.48-1.55-0.48-2.47c0-1.08,0.22-2.01,0.66-2.81c0.44-0.8,1.07-1.45,1.89-1.98c0.82-0.52,1.83-0.92,3.02-1.18
			s2.53-0.39,4.02-0.39h2.64v-1.49c0-0.74-0.08-1.39-0.23-1.96c-0.16-0.57-0.41-1.04-0.76-1.42c-0.35-0.38-0.8-0.66-1.35-0.85
			c-0.55-0.19-1.23-0.29-2.04-0.29c-0.87,0-1.64,0.1-2.33,0.31c-0.69,0.21-1.29,0.43-1.81,0.68c-0.52,0.25-0.95,0.48-1.3,0.68
			c-0.35,0.21-0.61,0.31-0.78,0.31c-0.11,0-0.21-0.03-0.3-0.08s-0.16-0.14-0.22-0.26c-0.06-0.11-0.11-0.26-0.14-0.44
			c-0.03-0.18-0.04-0.37-0.04-0.59c0-0.35,0.02-0.63,0.07-0.84c0.05-0.21,0.17-0.4,0.36-0.59c0.19-0.18,0.52-0.4,0.99-0.65
			c0.47-0.25,1.01-0.48,1.62-0.68c0.61-0.21,1.28-0.38,2-0.51c0.72-0.13,1.45-0.2,2.19-0.2c1.38,0,2.55,0.16,3.51,0.47
			c0.96,0.31,1.74,0.77,2.34,1.37c0.6,0.6,1.03,1.35,1.3,2.25c0.27,0.89,0.4,1.94,0.4,3.13V119.5z M218.31,110.75h-3
			c-0.97,0-1.8,0.08-2.51,0.25c-0.71,0.16-1.3,0.4-1.77,0.72c-0.47,0.32-0.81,0.7-1.03,1.15c-0.22,0.45-0.33,0.96-0.33,1.54
			c0,0.99,0.32,1.79,0.95,2.37c0.63,0.59,1.52,0.88,2.65,0.88c0.92,0,1.78-0.23,2.56-0.7c0.79-0.47,1.61-1.18,2.48-2.15V110.75z"/>
		<path class="st5" d="M232.16,93.85c0,0.82-0.16,1.38-0.47,1.68c-0.31,0.3-0.89,0.45-1.72,0.45c-0.82,0-1.39-0.14-1.69-0.44
			c-0.3-0.29-0.46-0.84-0.46-1.65c0-0.82,0.16-1.38,0.47-1.68c0.31-0.3,0.89-0.45,1.72-0.45c0.82,0,1.39,0.14,1.69,0.44
			C232.01,92.49,232.16,93.04,232.16,93.85z M231.76,119.48c0,0.11-0.03,0.21-0.08,0.29c-0.06,0.08-0.15,0.15-0.28,0.2
			c-0.13,0.06-0.3,0.1-0.53,0.13c-0.23,0.03-0.52,0.04-0.87,0.04c-0.34,0-0.62-0.01-0.85-0.04c-0.23-0.03-0.41-0.07-0.54-0.13
			c-0.13-0.06-0.23-0.12-0.28-0.2c-0.05-0.08-0.07-0.17-0.07-0.29v-19.16c0-0.1,0.02-0.19,0.07-0.28c0.05-0.08,0.14-0.16,0.28-0.21
			c0.14-0.06,0.32-0.1,0.54-0.13c0.23-0.03,0.51-0.04,0.85-0.04c0.35,0,0.65,0.01,0.87,0.04c0.23,0.03,0.4,0.07,0.53,0.13
			c0.13,0.06,0.22,0.13,0.28,0.21c0.06,0.09,0.08,0.18,0.08,0.28V119.48z"/>
		<path class="st6" d="M130.51,155.79c0,0.24-0.01,0.45-0.02,0.63c-0.01,0.18-0.04,0.33-0.07,0.45c-0.04,0.12-0.08,0.23-0.13,0.32
			c-0.05,0.09-0.16,0.23-0.34,0.4c-0.18,0.18-0.48,0.4-0.9,0.66c-0.43,0.26-0.9,0.5-1.44,0.7c-0.53,0.21-1.11,0.37-1.73,0.5
			c-0.62,0.13-1.27,0.19-1.94,0.19c-1.38,0-2.6-0.23-3.66-0.68c-1.06-0.45-1.95-1.12-2.67-1.99c-0.72-0.87-1.26-1.94-1.64-3.21
			c-0.38-1.27-0.56-2.74-0.56-4.4c0-1.89,0.23-3.51,0.69-4.86c0.46-1.35,1.09-2.47,1.89-3.33c0.8-0.87,1.75-1.51,2.83-1.93
			c1.09-0.42,2.26-0.63,3.52-0.63c0.61,0,1.2,0.06,1.78,0.17c0.57,0.11,1.1,0.26,1.59,0.45c0.48,0.18,0.91,0.4,1.29,0.64
			c0.38,0.24,0.65,0.45,0.82,0.62c0.17,0.17,0.29,0.31,0.35,0.41c0.06,0.1,0.12,0.22,0.16,0.35c0.04,0.14,0.07,0.29,0.08,0.46
			c0.01,0.17,0.02,0.38,0.02,0.64c0,0.55-0.06,0.94-0.19,1.16c-0.13,0.22-0.28,0.33-0.47,0.33c-0.21,0-0.46-0.12-0.73-0.35
			c-0.28-0.23-0.63-0.49-1.05-0.78c-0.43-0.28-0.94-0.54-1.54-0.78c-0.6-0.23-1.32-0.35-2.14-0.35c-1.69,0-2.98,0.65-3.88,1.95
			c-0.9,1.3-1.35,3.18-1.35,5.65c0,1.23,0.12,2.32,0.35,3.25s0.58,1.71,1.03,2.33c0.45,0.62,1.01,1.09,1.67,1.39
			c0.66,0.3,1.41,0.46,2.27,0.46c0.81,0,1.52-0.13,2.13-0.38c0.61-0.26,1.14-0.54,1.59-0.84c0.45-0.3,0.82-0.58,1.13-0.83
			c0.3-0.25,0.54-0.37,0.71-0.37c0.1,0,0.18,0.03,0.26,0.08c0.07,0.06,0.13,0.15,0.18,0.29c0.05,0.14,0.08,0.31,0.11,0.51
			C130.5,155.27,130.51,155.51,130.51,155.79z"/>
		<path class="st6" d="M149.24,158.73c0,0.17-0.06,0.3-0.17,0.38c-0.12,0.08-0.27,0.15-0.47,0.19s-0.49,0.06-0.87,0.06
			c-0.37,0-0.67-0.02-0.88-0.06c-0.22-0.04-0.38-0.11-0.48-0.19c-0.1-0.08-0.15-0.21-0.15-0.38v-1.92c-0.84,0.89-1.77,1.59-2.8,2.09
			c-1.03,0.5-2.12,0.74-3.27,0.74c-1.01,0-1.92-0.13-2.74-0.39c-0.82-0.26-1.51-0.64-2.09-1.14c-0.57-0.5-1.02-1.11-1.34-1.83
			c-0.32-0.72-0.48-1.55-0.48-2.47c0-1.08,0.22-2.01,0.66-2.81c0.44-0.79,1.07-1.45,1.89-1.98c0.82-0.52,1.83-0.92,3.02-1.18
			c1.19-0.26,2.53-0.39,4.02-0.39h2.64v-1.49c0-0.74-0.08-1.39-0.23-1.96c-0.16-0.57-0.41-1.04-0.76-1.42
			c-0.35-0.38-0.8-0.66-1.35-0.85c-0.55-0.19-1.24-0.29-2.04-0.29c-0.87,0-1.64,0.1-2.33,0.31c-0.69,0.21-1.29,0.43-1.81,0.68
			c-0.52,0.25-0.95,0.48-1.3,0.68c-0.35,0.21-0.61,0.31-0.78,0.31c-0.12,0-0.21-0.03-0.3-0.08c-0.08-0.06-0.16-0.14-0.22-0.26
			c-0.06-0.11-0.11-0.26-0.14-0.44c-0.03-0.18-0.04-0.37-0.04-0.59c0-0.35,0.02-0.63,0.07-0.84c0.05-0.21,0.17-0.4,0.36-0.59
			c0.19-0.18,0.52-0.4,0.99-0.65c0.47-0.25,1.01-0.48,1.62-0.68c0.61-0.21,1.28-0.38,2-0.51c0.72-0.13,1.45-0.2,2.19-0.2
			c1.38,0,2.55,0.16,3.51,0.47c0.97,0.31,1.75,0.77,2.34,1.37c0.59,0.6,1.03,1.35,1.3,2.25c0.27,0.89,0.41,1.94,0.41,3.13V158.73z
			 M145.75,149.98h-3c-0.97,0-1.8,0.08-2.51,0.24c-0.71,0.16-1.3,0.4-1.77,0.72c-0.47,0.32-0.81,0.7-1.03,1.15
			c-0.22,0.45-0.33,0.96-0.33,1.54c0,0.99,0.32,1.78,0.95,2.37c0.63,0.59,1.52,0.88,2.65,0.88c0.92,0,1.78-0.23,2.57-0.7
			c0.79-0.47,1.61-1.18,2.48-2.15V149.98z"/>
		<path class="st6" d="M172.1,158.71c0,0.11-0.03,0.21-0.07,0.3c-0.05,0.09-0.14,0.15-0.26,0.2c-0.12,0.05-0.28,0.09-0.48,0.12
			s-0.44,0.04-0.72,0.04c-0.3,0-0.55-0.01-0.75-0.04c-0.2-0.03-0.36-0.07-0.49-0.12s-0.22-0.12-0.28-0.2
			c-0.06-0.08-0.09-0.18-0.09-0.3v-2.53c-1.01,1.09-2.05,1.94-3.14,2.55c-1.09,0.61-2.27,0.91-3.57,0.91c-1.4,0-2.6-0.27-3.6-0.82
			c-0.99-0.55-1.8-1.28-2.42-2.21s-1.07-2.02-1.35-3.28s-0.43-2.58-0.43-3.97c0-1.65,0.18-3.13,0.53-4.46
			c0.35-1.33,0.88-2.46,1.58-3.39c0.69-0.94,1.56-1.66,2.59-2.16c1.03-0.5,2.22-0.76,3.57-0.76c1.12,0,2.15,0.24,3.08,0.73
			c0.93,0.49,1.85,1.21,2.76,2.16v-11.13c0-0.1,0.02-0.19,0.07-0.29c0.05-0.09,0.14-0.16,0.29-0.21c0.14-0.05,0.32-0.09,0.54-0.13
			c0.22-0.04,0.5-0.05,0.84-0.05c0.35,0,0.65,0.02,0.87,0.05c0.23,0.04,0.41,0.08,0.53,0.13c0.13,0.05,0.22,0.12,0.29,0.21
			c0.06,0.09,0.1,0.19,0.1,0.29V158.71z M168.56,145.24c-0.95-1.18-1.87-2.07-2.76-2.69c-0.89-0.62-1.81-0.93-2.78-0.93
			c-0.89,0-1.65,0.21-2.28,0.64c-0.62,0.43-1.13,0.99-1.52,1.68c-0.39,0.69-0.67,1.48-0.85,2.36c-0.18,0.88-0.27,1.77-0.27,2.68
			c0,0.97,0.07,1.91,0.22,2.83c0.15,0.92,0.41,1.74,0.78,2.46c0.37,0.72,0.86,1.29,1.47,1.72c0.61,0.43,1.38,0.65,2.3,0.65
			c0.47,0,0.92-0.06,1.35-0.19c0.43-0.13,0.88-0.34,1.33-0.64c0.45-0.3,0.93-0.69,1.43-1.16c0.5-0.48,1.02-1.06,1.58-1.76V145.24z"
			/>
		<path class="st6" d="M194.94,148.3c0,0.55-0.14,0.95-0.42,1.18c-0.28,0.23-0.6,0.35-0.95,0.35h-12.62c0,1.06,0.11,2.02,0.32,2.87
			c0.21,0.85,0.57,1.58,1.07,2.19c0.5,0.61,1.15,1.08,1.95,1.41c0.8,0.33,1.78,0.49,2.93,0.49c0.91,0,1.73-0.07,2.44-0.22
			c0.71-0.15,1.33-0.32,1.85-0.5c0.52-0.18,0.95-0.35,1.28-0.5c0.34-0.15,0.59-0.22,0.76-0.22c0.1,0,0.19,0.03,0.27,0.07
			c0.08,0.05,0.14,0.12,0.18,0.22c0.04,0.1,0.07,0.24,0.1,0.41c0.02,0.18,0.03,0.39,0.03,0.65c0,0.18-0.01,0.34-0.02,0.48
			c-0.01,0.14-0.03,0.26-0.05,0.36c-0.02,0.11-0.06,0.2-0.11,0.29c-0.05,0.08-0.11,0.17-0.19,0.24c-0.08,0.08-0.31,0.21-0.69,0.38
			c-0.38,0.18-0.88,0.35-1.49,0.52c-0.61,0.17-1.32,0.32-2.12,0.46c-0.8,0.13-1.66,0.2-2.56,0.2c-1.58,0-2.96-0.22-4.14-0.66
			s-2.18-1.09-2.99-1.96c-0.81-0.87-1.42-1.95-1.83-3.26c-0.41-1.31-0.62-2.82-0.62-4.56c0-1.65,0.21-3.13,0.64-4.44
			c0.43-1.31,1.04-2.43,1.84-3.34c0.8-0.92,1.77-1.62,2.9-2.11c1.14-0.49,2.41-0.73,3.81-0.73c1.5,0,2.78,0.24,3.84,0.72
			s1.93,1.13,2.61,1.95c0.68,0.82,1.18,1.77,1.5,2.87c0.32,1.1,0.48,2.27,0.48,3.52V148.3z M191.4,147.26
			c0.04-1.84-0.37-3.29-1.23-4.34c-0.86-1.05-2.14-1.58-3.84-1.58c-0.87,0-1.64,0.16-2.29,0.49c-0.66,0.33-1.21,0.76-1.65,1.3
			c-0.44,0.54-0.78,1.17-1.03,1.88c-0.24,0.72-0.38,1.47-0.41,2.25H191.4z"/>
		<path class="st6" d="M228.69,158.71c0,0.11-0.03,0.21-0.08,0.29c-0.06,0.08-0.15,0.14-0.28,0.2c-0.13,0.06-0.31,0.1-0.53,0.13
			c-0.23,0.03-0.51,0.04-0.85,0.04c-0.35,0-0.65-0.01-0.87-0.04s-0.41-0.07-0.54-0.13s-0.23-0.12-0.29-0.2
			c-0.06-0.08-0.08-0.17-0.08-0.29v-11.64c0-0.81-0.07-1.55-0.21-2.21c-0.14-0.67-0.37-1.24-0.68-1.72
			c-0.31-0.48-0.71-0.85-1.19-1.11c-0.48-0.26-1.05-0.38-1.7-0.38c-0.81,0-1.62,0.31-2.44,0.94c-0.82,0.62-1.71,1.54-2.69,2.75
			v13.39c0,0.11-0.03,0.21-0.09,0.29c-0.06,0.08-0.15,0.14-0.29,0.2c-0.14,0.06-0.32,0.1-0.54,0.13c-0.23,0.03-0.51,0.04-0.85,0.04
			c-0.33,0-0.61-0.01-0.84-0.04c-0.23-0.03-0.42-0.07-0.55-0.13s-0.23-0.12-0.28-0.2c-0.05-0.08-0.07-0.17-0.07-0.29v-11.64
			c0-0.81-0.08-1.55-0.23-2.21c-0.16-0.67-0.39-1.24-0.7-1.72c-0.31-0.48-0.71-0.85-1.18-1.11c-0.48-0.26-1.04-0.38-1.69-0.38
			c-0.81,0-1.63,0.31-2.45,0.94c-0.82,0.62-1.72,1.54-2.68,2.75v13.39c0,0.11-0.03,0.21-0.08,0.29c-0.06,0.08-0.15,0.14-0.28,0.2
			c-0.13,0.06-0.3,0.1-0.53,0.13s-0.52,0.04-0.87,0.04c-0.34,0-0.62-0.01-0.85-0.04c-0.23-0.03-0.41-0.07-0.54-0.13
			c-0.13-0.06-0.23-0.12-0.28-0.2c-0.05-0.08-0.07-0.17-0.07-0.29v-19.16c0-0.11,0.02-0.21,0.06-0.29c0.04-0.08,0.13-0.15,0.26-0.21
			c0.13-0.06,0.29-0.11,0.49-0.13c0.2-0.02,0.46-0.03,0.79-0.03c0.31,0,0.57,0.01,0.78,0.03c0.21,0.02,0.37,0.06,0.48,0.13
			c0.11,0.06,0.19,0.14,0.24,0.21c0.05,0.08,0.07,0.17,0.07,0.29v2.53c1.08-1.21,2.12-2.09,3.14-2.65c1.01-0.56,2.04-0.84,3.08-0.84
			c0.79,0,1.51,0.09,2.14,0.28c0.63,0.18,1.19,0.44,1.67,0.78c0.48,0.33,0.89,0.73,1.23,1.19c0.34,0.46,0.62,0.97,0.85,1.54
			c0.64-0.69,1.24-1.28,1.82-1.77s1.13-0.87,1.66-1.17c0.53-0.3,1.05-0.51,1.55-0.65c0.5-0.13,1.01-0.2,1.52-0.2
			c1.24,0,2.27,0.22,3.11,0.65c0.84,0.43,1.51,1.01,2.03,1.73c0.52,0.72,0.89,1.57,1.11,2.54c0.22,0.97,0.33,2,0.33,3.08V158.71z"/>
		<path class="st6" d="M243.02,159.24l-2.55,7.04c-0.08,0.23-0.3,0.4-0.65,0.52c-0.35,0.12-0.88,0.18-1.59,0.18
			c-0.37,0-0.67-0.02-0.89-0.05c-0.23-0.04-0.4-0.1-0.52-0.18c-0.12-0.09-0.19-0.2-0.2-0.34c-0.01-0.14,0.02-0.31,0.11-0.51
			l2.64-6.66c-0.13-0.06-0.25-0.15-0.36-0.28c-0.11-0.13-0.19-0.26-0.23-0.41l-6.83-18.3c-0.11-0.3-0.17-0.53-0.17-0.7
			c0-0.17,0.06-0.31,0.17-0.41c0.11-0.1,0.3-0.17,0.55-0.2c0.26-0.04,0.6-0.05,1.02-0.05s0.76,0.01,1,0.03
			c0.24,0.02,0.43,0.06,0.57,0.12c0.14,0.06,0.24,0.14,0.31,0.24c0.06,0.11,0.13,0.25,0.2,0.44l5.47,15.37h0.06l5.28-15.45
			c0.08-0.27,0.19-0.44,0.31-0.52c0.12-0.08,0.3-0.13,0.54-0.17c0.24-0.04,0.59-0.05,1.04-0.05c0.4,0,0.72,0.02,0.98,0.05
			c0.26,0.04,0.44,0.1,0.56,0.2c0.12,0.1,0.18,0.23,0.18,0.41c0,0.17-0.04,0.38-0.13,0.64L243.02,159.24z"/>
	</g>
</g>
</svg>
