<svg version="1" id="Layer_1" xmlns="http://www.w3.org/2000/svg" viewBox="0 0 524 500">
  <style>
    .st3{fill:none;stroke:#fff;stroke-width:3;stroke-linecap:round;stroke-miterlimit:10}.st4{fill:#fff}
  </style>
  <path class="st3" d="M292 68c24 3 46 12 66 24M409 351c16-22 27-47 32-74M169 392c19 13 42 22 65 26M91 219c4-26 13-50 26-71M162 101c19-14 41-25 65-30M94 284c5 23 15 44 28 63M299 418c23-4 43-12 62-24M407 135c17 22 29 48 35 77"/>
  <path class="st4" d="M269 67v-1h-2c4-4 3-8 2-9h-6l1-2c0-5-4-7-5-8h-1s-4 2-4 8v2h-6c0 1-1 5 2 9h-2c0 1-1 5 2 9 2 2 4 2 6 2h2v7l1 1 1-1v-7h1c2 0 4 0 6-2 4-4 3-8 2-8zm-11 7v1c-1 0-4 1-6-2-2-2-2-4-2-6l4 1 2 1 2 4v1zm0-9v1h-4l-2-2c-2-2-2-5-2-6 1 0 4 0 6 2l2 4v1zm1-5l-1-1-2-4c0-4 2-5 3-6 1 1 3 3 3 6l-2 4-1 1zm1 5l1-4 1-1c2-2 5-2 6-2 0 1 0 4-2 6l-2 2h-4v-1zm6 9c-2 2-5 2-6 1a6 6 0 0 1 4-7h4l-2 6z"/>
  <path class="st4" d="M264 41h-5a25 25 0 0 0-20 40 4 4 0 0 0 1 5 4 4 0 0 0 5 0 4 4 0 0 0 0-5l-3-1h-1a23 23 0 0 1 23-37h1l-1-2zm-23 41h2l1 1-1 1a2 2 0 0 1-3-1l1-1zM279 51a4 4 0 0 0-1-5 4 4 0 0 0-5 0 4 4 0 0 0 0 5l2 1h2a23 23 0 0 1-18 37h-5l1 1 4 1a25 25 0 0 0 20-40zm-2-1h-2-1a2 2 0 0 1 2-3h1v3zM153 113v2l1-1-1-1z"/>
  <path class="st4" d="M158 112c-2-2-5-4-9-4-3 0-6 2-9 4l-2 3-2-3c-3-2-6-4-10-4-7 0-12 6-12 13 0 9 10 17 23 29h1v-1c13-11 23-19 23-28 0-3-1-7-3-9zm-20 36c-12-11-22-19-22-27 0-6 5-11 10-11 3 0 6 1 9 4l2 3 1 1 1-1 2-4c3-2 5-3 9-3 5 0 10 5 10 11 0 8-10 16-22 27z"/>
  <path class="st4" d="M157 116h-2v1l1 4c0 3-1 5-4 9v1h1c3-4 5-7 5-10l-1-5zM147 126h-5v-5l-1-1h-6l-1 1v5h-5l-1 1v5l1 1h5v5l1 1h6l1-1v-5h5l1-1v-5l-1-1zm-1 5h-5l-1 1v5h-4v-5l-1-1h-5v-4h6v-6h4v6h6v4zM108 254l-2-2h-2l-1 1-2-1-2 2-2-1-1 2-2 4v1l1-1 2-4h2l-4 6-5 1h-1v-1l3-3v-4l-2-1-2 1-5 4-1 3v4l-1 1h-1l-1 1-1 4v1l1-1 1-3h1l9 4h1l-2 4 1 1 1-1 1-3-1-2 1-2 1-1 3-2v-1h-1l-3 1-1 2-1 2-8-3 1-2v-4l1-2 5-4h2l-1 2-2 3-1 1 1 1c0 1 1 2 2 1l9-2 2-1 3-6 1-1h1v2l-3 6-1 1-4 2v1h1l4-2 1-1 3-6 1-2zm-8 5l-2 1h1-1l3-5v-1h1l-2 5zM110 232h-1l-1 4h-1l-9-4-1-1 2-3-1-1h-1l-1 4 1 2-1 2-1 1-3 2v1h1l3-2 1-1 1-2 8 3-1 1v5l-1 2-4 4h-2v-2l2-3 1-1v-1l-3-2-8 3-2 1-4 6v1l-1-1h-1v-1l4-6v-1l4-2v-1h-1l-3 2-2 1-3 6v2l1 2h2l1-1 2 1 2-2 1 1h1l1-2 3-4v-1h-1l-3 5h-1l3-5 5-2 1 1v1l-2 2c-1 1-2 3 0 4l2 1 2-1 4-4 1-3v-3l1-1v-1h1l1-1 2-4-1-1zm-22 17l-1 1h-1l3-5 1-1h1l-3 5zM166 385v-20l2-5-5-9-2-1h-31l-1 1-6 9c0 2 1 4 3 5v20h-1v1c0 1 0 0 0 0h42l-1-1zm-41-24h2v-1-1h-2l5-8h32l4 8h-1l-1 1 1 1h2c0 2-2 4-5 4-2 0-4-2-5-4h5l1-1-1-1h-33v2h5c0 2-2 4-5 4-2 0-4-2-4-4zm31 0c0 2-2 4-5 4s-4-2-5-4h10zm-11 0c0 2-2 4-5 4s-4-2-4-4h9zm16 24h-7v-2h7v2zm0-4h-7v-12h7v12zm3 4h-2v-16l-1-1h-8l-1 1v16h-25v-19h2c3 0 5-1 6-3 1 2 3 3 5 3s5-1 6-3c1 2 3 3 5 3s5-1 6-3a6 6 0 0 0 7 3v19z"/>
  <path class="st4" d="M149 368h-19v15h19l1-1v-13l-1-1zm0 13h-18v-12h18v12z"/>
  <g id="surface1_9_">
    <path class="st4" d="M244 430h3l3 4v7h7v-3h11v2l1 1h7v-7l2-3-1-1-2 3v6h-5v-2-1h-1-10-2-1v3h-5v-5-1l-3-4v-1h-3v-5h3l3-5v-6l3 3h4v-2l-3 1c-1-2-3-3-5-3l-1 1v5l-2 5h-3l-1 1v6l1 1z"/>
    <path class="st4" d="M275 441h-6l-1-1v-2h-11v3h-7l-1-1v-6l-2-4h-3l-1-1v-6l1-1h3l2-5v-5l1-1c2 0 4 1 5 3l3-1v2l-3 1h-1v-1l-3-2v5l-3 5v1h-3v4h3v1l3 4v6h5v-2h14c1 0 0 0 0 0v2h4v-5l1-1 2-3 1 1-2 3v6l-1 1zm-7-3v2l1 1h6l1-1v-6l2-3-2-1-1 3-1 1v5h-4v-2h-1s0-1 0 0h-13-1v2h-4v-5l-1-1-2-4-1-1h-3v-5h4l2-5h1v-5l3 2v1h1l3-1v-2l-3 1c-1-2-3-3-5-3l-1 1v5l-2 5h-4v7h4l2 5v6h8v-2h11z"/>
    <path class="st4" d="M251 423c0 2 1 3 2 3l3-3c0-1-1-2-3-2s-2 1-2 2zm3 0l-1 1-1-1h2z"/>
    <path class="st4" d="M253 426c-1 0-2-1-2-3s1-2 2-2c2 0 3 1 3 2 0 2-1 3-3 3zm0-5l-2 2 2 3c1 0 3-1 3-3 0-1-1-2-3-2zm0 3v-1c0-1 0 0 0 0h1l-1 1zm0-1v1l1-1h-1zM289 398c-5 0-9-1-14-4h-1c-5 3-9 4-14 4l-1 1v10c0 9 6 18 15 21h1c9-3 15-12 15-21v-10l-1-1zm0 11c0 9-6 16-15 19-8-3-14-10-14-19v-9c5 0 10-2 14-5 5 3 10 5 15 5v9z"/>
    <path class="st4" d="M275 430h-1a22 22 0 0 1-15-21v-10-1h1c4 0 9-1 13-4h2c4 3 9 4 14 4l1 1v10a22 22 0 0 1-16 21h1zm-15-32l-1 1v9c0 10 6 19 15 21h1c9-2 15-11 15-21v-9l-1-1c-5 0-9-1-14-4h-1c-5 3-9 4-14 4zm15 30c-5-1-8-4-11-7s-4-8-4-12v-9c5 0 10-2 14-5h1c4 3 9 5 14 5v9c0 4-2 8-4 12s-6 6-10 7zm-15-28v9c0 9 6 16 14 19 9-3 14-10 14-19v-9c-5 0-9-2-14-4-4 2-9 4-14 4z"/>
    <path class="st4" d="M274 398c-3 2-7 3-11 3l-1 1v7c0 8 5 15 12 17h1c7-2 12-9 12-17v-7l-1-1c-4 0-8-1-11-3h-1zm11 5v6c0 7-4 13-11 16-6-3-10-9-10-16v-6l11-4 10 4z"/>
    <path class="st4" d="M275 426h-1c-3-1-7-3-9-7s-3-6-3-10v-7l1-1c4 0 8-1 11-3h1c3 2 7 3 11 3l1 1v7a19 19 0 0 1-12 17zm-1-28c-3 2-7 3-11 3l-1 1v7c0 7 5 14 12 17h1c7-3 12-10 12-18v-6l-1-1c-4 0-8-2-11-4l-1 1zm1 27c-4-1-6-4-8-7s-3-6-3-9v-6l10-4 11 4v6c0 3-1 7-3 9-1 3-4 6-7 7zm-11-22v6c0 7 4 13 10 16 7-3 11-9 11-16v-6l-11-4-10 4z"/>
    <path class="st4" d="M274 402h1v1h-1v-1z"/>
    <path class="st4" d="M275 403h-1v-2h1v2zm-1 0h1v-1h-1v1zM274 421h1v2h-1v-2z"/>
    <path class="st4" d="M275 423h-1v-2h1v2zm-1 0h1v-2h-1v2zM265 405h2v1h-2v-1z"/>
    <path class="st4" d="M267 406h-2v-2h2v2zm-2 0h2v-1h-2v1zM269 403h2v2h-2v-2z"/>
    <path class="st4" d="M271 405h-2v-2h2v2zm-2 0h2v-2h-2v2z"/>
    <g>
      <path class="st4" d="M282 405h2v1h-2v-1z"/>
      <path class="st4" d="M284 406h-2v-2h2v2zm-2 0h2v-1h-2v1z"/>
    </g>
    <g>
      <path class="st4" d="M265 409h2v2h-2v-2z"/>
      <path class="st4" d="M267 411h-2v-2h2v2zm-2 0h2v-2h-2v2z"/>
    </g>
    <g>
      <path class="st4" d="M282 409h2v2h-2v-2z"/>
      <path class="st4" d="M284 411h-2v-2h2v2zm-2 0h2v-2h-2v2z"/>
    </g>
    <g>
      <path class="st4" d="M267 414h1v2h-1v-2z"/>
      <path class="st4" d="M268 416h-2v-2h2v2zm-1 0h1v-2h-1v2z"/>
    </g>
    <g>
      <path class="st4" d="M281 414h1v2h-1v-2z"/>
      <path class="st4" d="M282 416h-1v-2h1v2zm-1 0h1v-2h-1v2z"/>
    </g>
    <g>
      <path class="st4" d="M270 419h1v1h-1v-1z"/>
      <path class="st4" d="M271 420h-1v-1h1v1zm-1 0h1v-1h-1v1z"/>
    </g>
    <g>
      <path class="st4" d="M278 419h1v1h-1v-1z"/>
      <path class="st4" d="M279 420h-2v-1h2v1zm-1 0h1v-1h-1v1z"/>
    </g>
    <g>
      <path class="st4" d="M278 403h2v2h-2v-2z"/>
      <path class="st4" d="M280 405h-2v-2h2v2zm-2 0h2v-2h-2v2z"/>
    </g>
  </g>
  <path class="st4" d="M396 379h-5l-5 5-5-5h-5c-6 0-11 5-11 11v2h2v-2c0-6 4-10 9-10h5l5 5h1l5-5h4c5 0 10 4 10 10v2h1v-2c0-6-5-11-11-11zM399 358l-3-6c-3-3-6-5-10-5s-8 2-11 5c-5 4-3 15-3 16s1 2-1 3l-2 1-1 1h1c1 2 3 3 5 3h1l1-1-1-1c-2 1-3 0-4-1l1-1c1 0 2-2 2-5-1-3-1-11 3-14 0 0 3-4 9-4 5 0 9 4 9 4 2 1 2 3 3 5v1h1v-1zM403 372l-3-1h-1l1 1 1 1c-1 1-3 2-4 1l-1 1v1h1c3 0 5-1 6-3v-1z"/>
  <path class="st4" d="M399 361h-6v-3-1l-1 1v3h-3v-3l-1-1-1 1v3h-3v-3l-1-1v4h-3v-3l-1-1-1 1v3h-3l-1 1 1 6c0 6 4 11 10 11h1l4-1 1-1-1-1-4 1c-6 0-9-4-10-9v-6h19v6l1 1 1-1v-6h2l1 1v5h-1l-1 1 1 1 2-2v-5c1-1 0-2-2-2z"/>
  <path class="st4" d="M399 364l-1 1c0 4-4 8-8 8-1-2-3-3-4-2s-3 2-2 3c0 2 2 3 3 3l2-3h1c5 0 9-4 9-9v-1zm-12 11l-2-1 2-2 1 2-1 1zM458 229l-19-8h-1c-6 4-12 6-19 8v11c0 10 4 17 8 21 5 4 10 7 12 7 1 0 7-3 11-7s9-11 9-21v-10l-1-1zm-1 11c0 10-5 16-8 20l-10 6a27 27 0 0 1-18-26v-10c6-1 12-4 18-7 6 3 12 6 18 7v10z"/>
  <path class="st4" d="M430 231l-1-1-6 2v5l1 1 1-1v-4l4-1 1-1zM432 231l1-2h-2v1l1 1zM451 253h-2l-3 3-2 3-1 1 1 1 1-1a26 26 0 0 0 6-6v-1zM441 261v1h1l1-1h-2zM432 242l-2-1-3 1v5l6 6h5l12-13a3 3 0 0 0-2-5l-3 1-10 10-3-4zm15-5h2v2l-13 12v1l-1-1-6-5v-2l1-1 1 1 4 4h1c1 0 0 0 0 0l11-11zM398 101c-1-3-2-5-4-6-4-4-8-5-13-5-9 1-17 8-17 17 0 7 4 14 10 17l2 2v8c0 1 1 3 3 3v1l3 2 2-2 1-1c2 0 3-2 3-3v-8l1-2c4-1 6-4 8-6a18 18 0 0 0 1-17zm-15 36l-1 1-1-1h-1 3zm2-2h-6l-2-1v-1h1v-1c0-1 0 0 0 0h-1v-3h10v3h-6-1l1 1h6v1l-2 1zm-2-25l1-2 6 5s1 0 0 0l-7-3zm0-2l-1 1-1-1 1-1 1 1zm-1-2h-1v-8l1-1v9zm-2 2v2l-7 3 7-5zm1 18h2v1h-2v-1zm15-9l-7 6c-2 0-2 2-2 3v1h-3v-12l-1-1-1 1 1 9h-2v-13h1v1h1v1l1-1v-1l5 3h3l-1-3-7-4-1-9-2-2-1 2-1 9-7 4-1 3 2 1 1-1 6-3-1 16h-2v-1c0-1-1-3-3-3-6-3-9-9-9-16 0-8 7-15 15-16h1a16 16 0 0 1 17 17l-2 9z"/>
  <g>
    <path class="st4" d="M242 28l-1 1-1-1v-2h-4l-1 2v1h-1v-1l3-8h1c1 0 0 0 0 0h1l3 8zm-4-7l-2 4h4l-2-4zM248 23h-1v3h-1-1-1l-1 1h4v1h1v2h-1l-1 1h-1-2l-1-1v-1l1-1v-1h-1l1-1v-1-1-1-1h5v1zm-1 6l-1-1h-2v1h-1l1 1h3v-1zm-1-5v-1h-1-1c-1 0 0 0 0 0v2l1 1 1-1c0-1 0 0 0 0v-1zM253 23h-1l-1 1v5h-2l1-1v-6h1v0h2v1zM256 20v1h-1v-1c0-1 0 0 0 0h1zm0 9h-1c1 0 0 0 0 0h-1v-7h2c1 0 0 0 0 0v7zM263 20v1h-2v8h-1-1v-8h-2v-1h6zM269 25l-1 1c-1 1 0 0 0 0h-4v1c0 1 0 0 0 0l1 1h2l1-1v1h-1v1h-1l-1-1h-1l-1-1v-2-1l1-1 1-1h2l1 1v2h1zm-2 0v-2h-1-1v1h-1v1h3zM275 28h-1l-1 1h-2l-1-1v-1-1-2l1-1v-1h3v1c0 1 0 0 0 0h0v0c0-1 0 0 0 0h-3v4h1l1 1v-1h2v1zM282 29h-2v-4-1-1h-1-1l-1 1v5h-1V19h1c1 0 0 0 0 0v4l1-1h2l1 1v2l1 4z"/>
  </g>
  <g>
    <path class="st4" d="M250 459v2h-1l-1 1h-3-1v-9h5v1l1 1-1 1c-1 1 0 0 0 0l-1 1h1l1 1c1 1 0 0 0 0v1zm-2-4v-1h-3v3h3v-1-1zm1 4v-1h-1c-1 0 0 0 0 0h-2v3h2v-1h1v-1zM256 462h-1v-1 1h-2l-1-1h-1v-1l1-1v-1h3v-1-1h-1-2v-1h1c1 0 0 0 0 0h3v7zm-1-3h-2l-1 1 1 1h2v-2zM264 462h-1v-4l-1-1v-1h-1-1l-1 1v4h1l-1 1c-1 0 0 0 0 0h-1v-7h1v1l1-1h2l1 1h1v6zM271 462h-1l-3-4v4h-1v-10h1v6l2-3h2v1h-1l-2 2 3 3v1zM274 453l-1 1c-1 0 0 0 0 0h-1v-1c0-1 0 0 0 0h2zm-1 9h-1v-7h1v7zM281 462h-2v-4-1-1h-1-1l-1 1v5h-1v-7h1v1l1-1h2l1 1v2l1 4zM288 456h-1v2a2 2 0 0 1-1 1h-2-1v1h3l1 1 1 1-1 1-1 1h-3l-1-1v-1-1h1l-1-1v-1l1-1h-1v-1-1a2 2 0 0 1 2-1h4v1zm-1 6h-1l-1-1h-1l-1 1v1h4v-1zm-1-5v-1h-1-1v2l1 1h1v-1-1zM292 459l1-1v-1h1v-1l-1-1v-1l1-1 1-1h2v1h1v2h-1v1l-1 1 1 1 1 1v-1h1v-1h1v1l-1 1c-1 0 0 0 0 0v1l1 1v1h-1v-1h-1-1v1h-1-1-1l-1-1-1-1v-1zm2 0v1l1 1h1v-1h1v-1h-1l-1-1v-1l-1 1h-1l1 1zm0-4l1 1h1v-1h1v-1h-1v-1c0 1 0 0 0 0h-1l-1 1v1z"/>
  </g>
  <g>
    <path class="st4" d="M246 478l-1 1h-1v-1c0-1 0 0 0 0v-8h2v8zM253 478h-1c-1 0 0 0 0 0v-3-1-1h-2l-1 1v4h-1c-1 0 0 0 0 0v-6h1v1l1-1h2l1 1v5zM259 477l-1 1h-1l-1 1-1-1v-1 1h2v-1h1v-1h-1c-1 0 0 0 0 0h-1v-1h-1v-1-1l1-1h2v1h-2l-1 1h1v1a4 4 0 0 0 2 0v1h1v1zM266 478h-1v-1l-1 1-1 1-1-1h-1v-1-5h1v6h1l1-1 1-1v-4h1v6zM272 473h-1c-1 0 0 0 0 0h-1v1h-1v4h-1v-6h1c1 0 0 0 0 0v1l1-1h1l1 1zM277 478v1c0 1 0 0 0 0h-1v-1c0-1 0 0 0 0h-1l-1 1-1-1-1-1c-1-1 0 0 0 0l1-1v-1h3v-1-1h-1-1-1v-1h4v6zm-1-2h-1-2v1l1 1h1l1-1v-1zM285 478h-2v-3-1-1h-1-1l-1 1v4h-1v-6h1c1 0 0 0 0 0v1l1-1h3v2l1 4zM291 477v1h-1l-1 1c-1 1 0 0 0 0l-1-1h-1l-1-1v-2-1l1-1 1-1h3v1h-3l-1 2v1l1 1h3zM298 475h-5v1l1 1v1h2l1-1v1h-1l-1 1-1-1h-1l-1-1v-2-1l1-1 1-1h2l1 1v2h1zm-1 0l-1-2h-1-1c-1 0 0 0 0 0v1l-1 1h4z"/>
  </g>
  <g>
    <path class="st4" d="M420 112v1h-5v-8-1h5v1h-4v3h3v1h-3v3h4zM427 113h-1v-4-1h-1v-1h-1-1v6h-1c-1 0 0 0 0 0h-1v-7h2v1l1-1h2v1l1 1v5zM434 109v1h-4v2h4v1h-1-3l-1-1v-1l-1-1 1-2v-1l1-1h3v1l1 1v1zm-1 0v-1l-2-1-1 1v1h3zM440 107v1h-1c-1 0 0 0 0 0v-1s0 1 0 0l-1 1c0 1 0 0 0 0l-1 1v4h-1v-6-1c0 1 0 0 0 0h1c1 0 0 0 0 0v1c0 1 0 0 0 0h1v-1h1v1h1zM446 107h-2l1 1v1a2 2 0 0 1-2 1h-1c0 1 0 1 0 0h-1v1h1l1 1h2v3h-1-3-1v-1-1l1-1h-1v-1-1h1l-1-1v-1l1-1 1-1h4v1zm-1 6h-1-1l-1-1-1 1v1h4v-1zm-1-5v-1h-2v1h-1l1 1 1 1 1-1v-1zM450 113l-1 2v1h-1v-1c0-1 0 0 0 0l1-2-3-6h2l1 5 2-5v-1c0-1 0 0 0 0h1v1l-2 6z"/>
  </g>
  <g>
    <path class="st4" d="M420 129v1h-5v-9h5v1h-4v2h3v1h-3v4h4zM430 130h-1c-1 0 0 0 0 0v-1c0 1 0 0 0 0v-5h-3v6h-1v-1c0 1 0 0 0 0v-5h-3v6h-1v-1c0 1 0 0 0 0v-5h-1v-1h1v-1-1h1v-1h2v1h-1c-1 0 0 0 0 0h-1v2h3v-1-1l1-1c1-1 0 0 0 0h2v1h-1-1v2h4v7zm1-9v1h-2v-1h2zM437 129h-1c-1 0 0 0 0 0l-1 1h-1l-1-1-1-1v-1-2l1-1 1-1h2l1 1c1 0 0 0 0 0v1h-1v-1h-1l-2 1v3l1 1h1l1-1h1v1zM440 121v1h-1l-1-1h2zm0 9h-2v-1c0 1 0 0 0 0v-6h1c1 0 0 0 0 0h1v7zM447 126v1h-5v1h1v1h3v-1h1v1h-1-1l-1 1-1-1h-1l-1-1v-2-1l1-1 1-1h2l1 1h1v2zm-1 0l-1-2h-1-1c-1 0 0 0 0 0v2h3zM454 130h-1v-1c0 1 0 0 0 0v-3l-1-1v-1h-1-1l-1 1v4l1 1h-1c-1 0 0 0 0 0h-1v-7h1v1l1-1h2l1 1 1 1v5zM460 129h-1v1h-1-1l-1-1v-1l-1-1 1-2v-1l1-1h3v2l-1-1h-1l-1 1-1 1 1 1v2h2v-1h1v1zM465 130l-1 2h-1v-2l-2-6v-1h1v1l2 4 2-5h1l-2 7z"/>
  </g>
  <g>
    <path class="st4" d="M474 247v2l-1 1h-3l-1-1v-1c0-1 0 0 0 0a6 6 0 0 0 2 1h2v-1-1-1h-1-1v-1h-1l-1-1v-1-1l1-1h4v1h-3v2l1 1h1l1 1 1 1h-1zM481 246v1h-4v1c0 1 0 0 0 0l1 1h3v-1 1h-1l-1 1-2-1h-1v-1l-1-2 1-1v-1l1-1h3v1l1 1v1zm-1 0v-1l-2-1-1 1v1h3zM487 249l-1 1h-1-1l-1-1v-1l-1-1 1-2v-1l1-1h2l1 1c0 1 0 0 0 0v1l-1-1h-1l-1 1-1 1 1 1v2h2v-1h1v1zM494 250h-1v-1l-1 1h-1-1l-1-1v-1-4-1h1v6h2l1-1v-4-1c0 1 0 0 0 0h1v7zM500 244v1l-1-1c0-1 0 0 0 0l-1 1-1 1v4h-1v-6-1c0 1 0 0 0 0h1v1h1l1-1h1v1zM502 241v1h-1v-1c0-1 0 0 0 0h1zm0 9h-1v-7h1c1 0 0 0 0 0v7zM508 249l-1 1h-1-1v-1l-1-1v-4h-1v-1 1h1v-2h2v2h1-1v5c0 1 0 0 0 0h2zM512 250l-1 2h-1l1-2h-1l-2-6v-1h1v1l2 5 2-5v-1h1v1l-2 6z"/>
  </g>
  <g>
    <path class="st4" d="M17 257h-1v-4h-4v4h-2v-9h2v4h4v-4h1v9zM25 253v2l-1 1-1 1h-3l-1-1v-1-2-1-1l1-1h3l1 1 1 1v1zm-1 0l-1-1v-1h-2l-1 1v3l1 1h2v-1l1-1v-1zM30 255v1c0 1 0 0 0 0l-1 1h-1-1l-1-1v-1l1 1h2c1 0 0 0 0 0v-1c0-1 0 0 0 0v-1h-1c-1 0 0 0 0 0h-1v-1h-1v-1-1h1v-1h3v1h-1c-1 0 0 0 0 0h-2v1l1 1a4 4 0 0 0 1 0l1 1v1zM38 253l-1 2v1l-1 1h-1l-1-1h-1v3h-1v-9h1v1h1v-1h1c1 0 0 0 0 0h1l1 1v1l1 1zm-1 0h-1v-1-1h-1-1v1h-1v3h1l1 1h1v-1-1l1-1zM41 248l-1 1c-1 0 0 0 0 0h-1v-1h2zm0 9s-1 0 0 0h-1-1c-1 0 0 0 0 0v-7h1c1 0 0 0 0 0h1v7zM46 256v1h-1c-1 0 0 0 0 0h-1l-1-1v-5h-1v-1h1v-1-1h1v1c0 1 0 0 0 0v1h2v1h-1c-1 0 0 0 0 0h-1v4l1 1h1zM52 257h-1v-1l-1 1h-1-1l-1-1v-1-1-1h4v-1h-1v-1h-1-1c-1 0 0 0 0 0h-1v-1h1c1 0 0 0 0 0h3v2l1 5zm-1-3h-2-1v2h2v-1l1-1zM55 257h-1v-10h1c1 0 0 0 0 0v10zM58 248v1h-1v-1h1zm0 9h-1v-7h1c1 0 0 0 0 0v7zM63 256v1c0 1 0 0 0 0h-1-1v-1l-1-1v-4h-1v-1h1v-1-1h1c1 0 0 0 0 0v1c0 1 0 0 0 0v1h2v1h-2v3l1 1v1h1zM68 257l-1 2h-1v-2-1l-2-5v-1h1c1 0 0 0 0 0l2 5 2-5h1l-2 7z"/>
  </g>
  <g>
    <path class="st4" d="M51 121v1h-1v-1c0-1 0 0 0 0v-4h-4v5h-1v-1c0-1 0 0 0 0v-8h1c1 0 0 0 0 0v3h4v-3h1v8zM59 118l-1 1h-4l1 1v1h2l1-1h1v1h-1c-1 0 0 0 0 0h-1l-1 1-1-1h-1l-1-1v-2-1l1-1 1-1h2l1 1h1v2zm-1 0l-1-2h-1-1c-1 0 0 0 0 0v2h3zM65 121h-1-1l-1 1h-1v-1h-1v-1-1l1-1h3v-1-1h-1-2-1v-1h1c1 0 0 0 0 0h1c1 0 0 0 0 0h2l1 1v5zm-1-2h-1-2v1l1 1c1 1 0 0 0 0h1l1-1v-1zM68 121h-1v-9h1c1 0 0 0 0 0v9zM74 121l-1 1c-1 0 0 0 0 0h-1l-1-1v-1c0-1 0 0 0 0v-4h-1v-1h1v-2h1v2h1v1h-1v5h1v-1 1h1zM80 121h-1v-3-1-1h-1-1l-1 1v4h-1v-9h1v4l1-1h2l1 1c0 1 0 0 0 0v5zM87 120v1h-1-1v1l-1-1h-1l-1-1a6 6 0 0 1 0-3l1-1 1-1h3v2l-1-1h-3v4h1l1 1 1-1h1zM93 121h-2l-1 1h-1l-1-1v-1-1-1h3v-1-1h-1-2v-1c0-1 0 0 0 0h1c1 0 0 0 0 0h3v2l1 4zm-1-2h-2-1v2h2l1-1v-1zM99 116h-1c1 0 0 0 0 0h-1v1h-1v5h-1v-7h1v1l1-1h2v1zM105 118v1h-4v1l1 1h1l1-1h1v1h-2l-1 1-1-1h-1l-1-1v-2-1l1-1 1-1h2l1 1h1v2zm-1 0l-1-2h-1-1c-1 0 0 0 0 0v2h3z"/>
  </g>
  <g>
    <path class="st4" d="M424 381v1h-1c-1 0 0 0 0 0l-1 1h-1l-1-1h-2v-2l-1-2 1-2v-1a3 3 0 0 1 3-1h3v1h-1-1-1-1-1v2a6 6 0 0 0 0 3v1h1l1 1 1-1h2zM430 383h-1v-1l-1 1h-1-1l-1-1v-1-1l1-1h3v-1-1h-2-1-1l1-1h3c1 0 0 0 0 0l1 1v6zm-1-3h-2-1v2h2l1-1v-1zM433 382c0 1 0 1 0 0v1h-1v-10h1v9zM436 382c0 1 0 1 0 0v1h-1v-10h1c1 0 0 0 0 0v9zM448 381v1h-1l-1 1h-1l-2-1h-1l-1-2v-2-2l1-1a3 3 0 0 1 3-1h2c1 0 0 0 0 0v1h-1-1-1-1v2a6 6 0 0 0 0 3v1h1l1 1 1-1h2zM454 379v1h-4v1l1 1h2l1-1v1h-1l-1 1-2-1h-1v-1l-1-2 1-1v-1l1-1h3v1l1 1v1zm-1 0v-2h-2l-1 1v1h3zM461 382c0 1 0 1 0 0v1h-1v-4-1-1h-2l-1 1v5h-1v-7h1c1 0 0 0 0 0v1l1-1h2l1 1v5zM466 382v1h-1-1v-1h-1v-5h-1v-1h1v-1-1h1v2h2v1h-2v3l1 1v1h1v-1 1zM473 379v1h-5l1 1v1h3v-1h1v1h-1l-1 1h-1l-1-1h-1l-1-1v-2-1l1-1 1-1h2l1 1 1 1v1zm-1 0l-1-2h-1l-1 1v1h3zM478 377h-1l-1 1v5h-1v-7h1c1 0 0 0 0 0v1l1-1h1v1zM483 381v1h-1v1h-2l-1-1v-1l1 1c1 0 0 0 0 0h2v-1-1h-2l-1-1v-1-1l1-1h2c1 0 0 0 0 0v1h0c-1 0 0 0 0 0h-1-1v2h2v1h1v1z"/>
  </g>
  <g>
    <path class="st4" d="M63 365h-1c-1 0 0 0 0 0h-1v-2l-1-1v-1h-1c-1 0 0 0 0 0h-1v4h-1v-8-1h4l1 1v1c0 1 0 0 0 0v2h-1v1l1 1 1 2v1zm-2-6v-1l-1-1h-2v3h3v-1zM69 361v1h-4v1c0 1 0 0 0 0l1 1h3v1h-1-3l-1-1v-1l-1-1 1-2v-1l1-1h3v1l1 1v1zm-1 0v-1l-1-1h-1l-1 1v1h3zM74 364v1h-1-1l-1-1v-5h-1 1v-2h1v2h2-2v5h2zM80 365h-1v-1l-1 1h-1-1-1v-1-1-1c0-1 0 0 0 0l1-1h3v-1l-1-1h-1-1v1h-1c1 0 0 0 0 0v-1h1v-1h3v1h1v6zm-1-3h-1-1l-1 1 1 1h1l1-1v-1zM83 357h-1v-1h1v1zm0 8h-1c-1 0 0 0 0 0v-6-1h1v7zM87 365h-1-1c-1 0 0 0 0 0v-9-1h2v10zM91 363l1-1v-1l1-1v-1h-1v-1-1l1-1 2-1 1 1c1 0 0 0 0 0l1 1v2h-1l-1 1v1h1v1h1v-1h1v-1h1v1l-1 1v1c0 1 0 0 0 0v1h1v1h-1v-1h-1-1v1h-1-1-1l-1-1-1-1zm2 0v1h1c1 0 0 0 0 0h2c1 0 0 0 0 0v-1l-1-1-1-1c-1 0 0 0 0 0h-1v2zm1-5v1h1l1-1c0-1 0 0 0 0v-1h-1c-1 0 0 0 0 0h-1v1z"/>
  </g>
  <g>
    <path class="st4" d="M66 382h-1v-8l-3 8h-1l-3-8v8h-1v-9h2l3 7 2-7h2v9zM73 382h-1c-1 0 0 0 0 0v-1l-1 1h-1-1v-1h-1v-1-1l1-1h3v-1l-1-1h-3v-1h4l1 1v6zm-1-3h-1-1l-1 1 1 1h1l1-1v-1zM79 376h-1l-1 1c-1 1 0 0 0 0v5h-2v-7h2v1l1-1c1 0 0 0 0 0h1v1c0 1 0 0 0 0zM85 382h-1c-1 0 0 0 0 0l-3-4v4h-1v-10h1c1 0 0 0 0 0v6l3-3h1c1 0 0 0 0 0v1c0 1 0 0 0 0l-2 2 2 3v1zM91 378v1h-4v1c0 1 0 0 0 0l1 1h2l1-1v1l-1 1c0 1 0 0 0 0h-3l-1-1v-1-2-1-1l1-1h3l1 1v2zm-1 0v-2h-2l-1 1c-1 1 0 0 0 0v1h3zM98 375h1v7h-1v-6h-4v4l1 1h1v1h-1c-1 0 0 0 0 0h-1v-1h-1v-5h-1v-1h1v-1h1v1h4zm1-2v1h-1v-1c0-1 0 0 0 0h1zM106 382h-1v-4-1-1h-1c-1 0 0 0 0 0h-1l-1 1v5h-1c-1 0 0 0 0 0v-7h1v1l1-1h2l1 1c0 1 0 0 0 0v6zM113 376h-1v3h-1-1-1l-1 1h4v1h1v2h-1l-1 1h-1-2l-1-1v-1l1-1-1-1 1-1v-1-1-1-1h5v1zm-1 6l-1-1h-2v2l1 1 1-1h1v-1zm0-5l-1-1h-2v2l1 1h1v-1l1-1z"/>
  </g>
  <g>
    <path class="st4" d="M181 237l-1 2v1l-2 1-2 1-1-1h-1c-1 0 0 0 0 0v-1c0-1 0 0 0 0v-1h1l1 1 1-1h1v-1-15h1v-1h1v1h1v14zM202 232l-1 4-2 3-2 2-4 1-4-1-2-2-2-3v-4-4l2-3 2-2 4-1 4 1 2 2c0 1 2 1 2 3l1 4zm-3 0v-3l-1-2-2-2-3-1-3 1-2 2-1 2v6l1 2 2 2 3 1 3-1 1-2 2-2v-3zM218 236v2l-1 1-1 1-1 1h-2l-2 1h-4l-1-1v-17-1h8l1 1 2 1v4l-1 1-1 1h-1l2 1 1 1 1 1v2zm-4-8v-2l-1-1h-5v6h3l2-1h1v-1-1zm1 8v-1l-1-1-1-1h-5v6h6l1-1v-2zM232 236v3l-2 1-2 2h-4l-2-1h-1v-1h-1v-1-1h1v1h1l2 1h3l1-1 1-1v-1-2l-1-1h-2l-1-1-2-1-1-1-1-1-1-2 1-2 1-2 2-1h6v1h1v1c0 1 0 0 0 0l-1 1c-1 0 0 0 0 0l-1-1h-1-2-1-1l-1 1v3l1 1h2l1 1 2 1 1 1 1 1 1 2zM258 232v4l-2 3-3 2-3 1-4-1-3-2-1-3-1-4 1-4 1-3 3-2 4-1 3 1 3 2 2 3v4zm-2 0l-1-3-1-2-1-2-3-1-3 1-2 2-1 2v6l1 2 2 2 3 1 2-1 2-2 1-2 1-3zM272 224v1h-7v6h7v2c0 1 0 0 0 0h-7v8h-1v1h-1l-1-1v-17-1h10v1zM286 224v1h-7v6h7v2c0 1 0 0 0 0h-1c-1 0 0 0 0 0h-6v8h-1v1h-1l-1-1v-17-1h10v1zM300 240v2h-9l-1-1v-17-1h10v2h-8v6h7v2h-7v7h8zM317 241h-1-1l-2-5-1-1-1-1-1-1h-3v8h-3c1 0 0 0 0 0v-18h1v-1h6l2 1 2 1 1 1v4l-1 1-1 1-2 1h1l1 1v1l1 2 2 4v1zm-4-13v-2l-2-1h-4v6h4l1-1 1-1v-1zM331 240v2h-9l-1-1v-17-1h10v2h-8v6h7v2h-7v7h8zM350 232l-1 4-1 3-3 2-5 1h-4v-1h-1v-17l1-1h9l3 2 1 3 1 4zm-3 0v-3l-1-2-2-2h-6v14h6l2-1 1-3v-3zM231 277v1h-1-1v-1c0-1 0 0 0 0h-1l-1-4h-8l-2 4v1h-1-1v-1l6-18h1v-1h2v1c0 1 0 0 0 0h1l6 18zm-8-16l-4 10h7l-3-10zM246 275v1l-1 1h-1l-1 1h-2l-4-1-2-2-2-3v-4-4l2-3 3-2 3-1a8 8 0 0 1 3 1h1l1 1v1c0 1 0 0 0 0v1c0 1 0 0 0 0h-1l-1-1h-1l-2-1-2 1-2 1-1 3-1 3 1 3 1 2 2 2h4l2-1h1c1 0 0 0 0 0h1l-1 1zM262 277v1h-1l-1-1-2-5v-1l-1-1-1-1h-4v8h-2v-17-1h9l1 1 1 2v3l-1 1-1 1-1 1v1h1l1 1v2l2 4v1zm-3-13l-1-2-2-1h-4v6h5l1-1v-1l1-1zM282 268l-1 4-1 3-3 2-4 1-4-1-2-2-2-3v-4-4l2-3c1-1 1-2 3-2l3-1 4 1 3 2 1 3 1 4zm-3 0v-3l-1-2-2-2-3-1-3 1-2 2-1 2v6l1 2 2 2 3 1 3-1 2-2 1-2v-3zM296 272l-1 3-1 1-2 1-3 1h-1l-2-1h-1l-1-1c-1-1 0 0 0 0v-1-1l1 1h1l1 1h4l1-1 1-1v-1-2l-1-1h-2l-1-1-2-1-1-1-1-1-1-2 1-3 1-1 2-1h6v3l-1-1h-2-1-1-1l-1 1v3l1 1h2l1 1 2 1 1 1 1 1 1 2zM310 272l-1 3-1 1-2 1-3 1h-2l-1-1h-1l-1-1c0-1 0 0 0 0v-1-1l1 1h1l1 1h4l1-1 1-1v-1l-1-2v-1h-2l-1-1-2-1-2-1v-1l-1-2 1-3 1-1 1-1h6l1 1v2h-1v-1h-2-4v4l1 1h1l2 1 2 1 1 1 1 1 1 2z"/>
  </g>
</svg>
