<svg version="1" id="Layer_1" xmlns="http://www.w3.org/2000/svg" viewBox="0 0 238 89">
  <style>
    .st0{fill:#4086ee}.st1{fill:#4386f5}.st2{fill:#4186ee}.st3{fill:#ea4537}.st4{fill:#feba03}.st5{fill:#fbbd06}.st6{fill:#38a956}.st7{fill:#39a957}.st8{fill:#4687f5}.st9{fill:#4587f5}.st11{fill:#24a46d}.st12{fill:#4f8df4}
  </style>
  <path class="st0" d="M5 42l-2-2v-1l1-1 3 1c0 1 0 3-2 3zM40 87h-1l-1-2a2 2 0 1 1 2 2z"/>
  <path class="st1" d="M77 62l-3 3c-1 0-3-1-3-3s2-3 3-3 3 1 3 3zM31 16l-3 3-3-3c0-2 2-3 3-3s3 1 3 3zM39 78c0 1-1 2-3 2s-3-1-3-2c0-2 1-3 3-3s3 1 3 3zM15 54c0 1-1 2-3 2-1 0-3-1-2-2a3 3 0 0 1 5 0zM64 74a3 3 0 1 1-5 0 3 3 0 0 1 5 0zM56 12c0 2-1 3-2 3-2 0-3-1-3-3l2-2c2 0 3 1 3 2zM24 69a3 3 0 1 1-6 0c0-2 2-3 3-3 2 0 3 1 3 3zM14 45c0 2-2 3-3 3a3 3 0 1 1 3-3zM15 36c0 2-1 3-3 3-1 0-2-1-2-3l2-2c2 0 3 1 3 2zM18 28c0 2-1 3-2 3-2 0-3-1-3-3 0-1 1-3 3-3s2 2 2 3zM71 69l-2 3c-2 0-3-2-3-3 0-2 1-3 3-3 1 0 2 1 2 3zM81 45c0 2-1 3-2 3-2 0-3-2-3-3l2-3c2 0 3 2 3 3zM48 79l-3 2c-2 0-3-1-3-2a3 3 0 1 1 6 0zM71 21c0 2-1 3-2 3-2 0-3-1-3-3 0-1 1-3 3-3l2 3zM80 36c0 2-1 3-3 3-1 0-2-1-2-3a3 3 0 1 1 5 0zM24 21c0 2-2 3-3 3s-3-1-3-3c0-1 1-3 3-3s3 2 3 3zM48 11a3 3 0 0 1-6 0c0-1 1-2 3-2l3 2zM39 12c0 2-1 3-3 3s-3-1-3-3l3-2 3 2zM80 54c0 1-1 2-3 2a3 3 0 1 1 0-5c2 0 3 1 3 3zM56 78l-2 2c-2 0-3-1-3-2a3 3 0 1 1 5 0zM18 62l-2 3a3 3 0 1 1 2-3zM64 16a3 3 0 1 1-5 0 3 3 0 1 1 5 0zM31 74c0 2-2 3-3 3s-3-1-3-3c0-1 1-3 3-3l3 3zM77 28c0 2-2 3-3 3s-3-1-3-3l3-3c2 0 3 2 3 3z"/>
  <path class="st2" d="M22 13l-2 2-2-2 2-2 2 2zM79 70l-2 2-2-2a2 2 0 1 1 4 0zM10 61a2 2 0 1 1-5 0 2 2 0 0 1 5 0z"/>
  <path class="st0" d="M7 32l-2-2c0-2 1-2 2-2 2 0 3 1 2 2 1 1 0 2-2 2zM15 70l-2 2c-2 0-2-1-2-2a2 2 0 1 1 4 0zM72 77a2 2 0 1 1-2-2l2 2zM52 5l-2 2-2-2 2-2 2 2zM62 8l-2 2-2-2c0-2 1-2 2-2s2 0 2 2zM7 50c0 2-1 2-2 2s-2 0-2-2l2-2 2 2zM52 85a2 2 0 1 1-2-2c2 0 2 1 2 2zM62 82c0 1 0 2-2 2l-2-2 2-2c2 0 2 1 2 2zM31 8l-2 2-2-2 2-2 2 2zM84 29c0 2-1 3-2 2-1 1-2 0-2-2l2-2 2 2zM87 40l-2 2a2 2 0 0 1 0-4l2 2zM84 60c0 2-1 2-2 2a2 2 0 1 1 2-2zM39 7l-2-2 2-2c2 0 3 1 2 2 1 1 0 2-2 2zM32 82c0 2-2 2-3 2s-2 0-2-2l2-2c2 0 3 1 3 2zM77 22l-2-2 2-2a2 2 0 0 1 0 4zM71 13l-2 2a2 2 0 1 1 0-4c2 0 2 1 2 2zM15 20c0 2-1 3-2 3s-2-1-2-3l2-2 2 2zM22 77l-2 2-2-2 2-2 2 2zM85 52a2 2 0 0 1 0-4l2 2-2 2z"/>
  <path class="st3" d="M28 23l-2 1-1-1 1-2 2 2zM34 19l-2 1-1-1 1-2 2 2zM18 50l-1 1-2-1 2-2 1 2zM44 73l-1 2-2-2a1 1 0 0 1 3 0zM73 54l-1 1-2-1 2-2 1 2zM41 17l-2 1-1-1 1-2 2 2zM18 43l-2 1-1-1 1-2 2 2zM23 29l-2 1-1-1a1 1 0 1 1 3 0zM30 68a1 1 0 1 1-3 0l2-1 1 1zM62 21l-1 1-2-1 2-2 1 2zM72 32l-1 2-2-2 2-1 1 1zM52 73l-2 1-1-1 1-2 2 2zM68 26l-2 1-1-1 1-2 2 2zM21 57l-2 2-1-2a1 1 0 1 1 3 0zM25 63a1 1 0 1 1-2-1l2 1zM48 16a1 1 0 1 1-3 0 1 1 0 0 1 3 0zM74 39l-1 2-2-2a1 1 0 0 1 3 0zM75 47a1 1 0 1 1-3 0 1 1 0 1 1 3 0zM37 72l-2 1a1 1 0 1 1 0-3l2 2zM56 18l-2 1-1-1 1-2 2 2zM19 35l-1 2-2-2 2-1 1 1zM70 61l-2 1-1-1 1-2 2 2zM65 66l-1 2-2-2 2-1 1 1zM59 70l-2 2-1-2 1-1 2 1z"/>
  <path class="st4" d="M41 69l-1 2-2-2 2-1 1 1zM32 23l-1 2-2-2 2-1 1 1zM60 65a1 1 0 1 1-3 0l2-1 1 1zM23 33a1 1 0 1 1-2 0 1 1 0 1 1 2 0zM48 70a1 1 0 1 1-3 0l1-2 2 2zM63 25l-2 2-1-2 1-1 2 1zM38 20l-1 2a1 1 0 0 1 0-3l1 1zM21 40l-1 1-1-2 1-1 1 2zM71 49l-2 2-1-2 1-1 2 1zM69 56a1 1 0 1 1-3 0 1 1 0 0 1 3 0zM51 20l-1 1a1 1 0 1 1 0-3l1 2zM54 68l-1 2a1 1 0 0 1 0-3l1 1zM22 53l-1 1-2-1 2-2 1 2zM67 30l-1 2-2-2a1 1 0 1 1 3 0zM57 22l-1 1-1-1 1-2 1 2zM25 58l-1 2-2-2 2-1 1 1zM35 67l-2 1a1 1 0 0 1 0-2l2 1zM29 63a1 1 0 1 1-2 0l1-1 1 1zM44 19a1 1 0 1 1-2 0 1 1 0 0 1 2 0zM70 36a1 1 0 0 1-3 0l2-1 1 1zM64 62l-2-1 2-1 1 1-1 1zM71 43l-1 1-1-1 1-2 1 2zM19 47l-1-1 1-1 2 1-2 1zM27 28l-1 1-2-1a1 1 0 1 1 3 0z"/>
  <path class="st5" d="M30 59a1 1 0 1 1-1-1l1 1zM58 26l-1 1-1-1 1-1 1 1zM53 24l-1 1-2-1 2-1 1 1zM28 33l-2 1a1 1 0 0 1 0-3l2 2zM25 38l-1 1a1 1 0 1 1 1-1zM47 23l-1 1-1-1 1-1 1 1zM41 23l-1 1-1-1 1-1 1 1zM36 25l-1 1a1 1 0 0 1 0-2l1 1zM67 51l-1 1c-1 1-2 0-2-1l2-1 1 1zM39 65l-1 1a1 1 0 1 1 0-2l1 1zM68 46l-1 1-1-1 1-1 1 1zM45 66l-1 2a1 1 0 1 1 0-3l1 1zM64 57l-1 1-1-1 1-2 1 2zM61 61l-2 1-1-1 1-1 2 1zM31 28a1 1 0 1 1-2 0 1 1 0 0 1 2 0zM56 64a1 1 0 0 1-2 0l1-1 1 1zM34 63l-1 1-1-1 1-1 1 1zM62 30l-1 1-1-1a1 1 0 0 1 2 0zM67 40l-1 1-1-1 1-1 1 1zM25 49l-2 1-1-1 1-1 2 1zM50 66l-1 1-1-1 1-1 1 1zM26 54l-1 2-1-2 1-1 1 1zM24 43l-1 2-1-2 1-1 1 1zM65 35l-1 1-1-1 1-1 1 1z"/>
  <path class="st6" d="M39 27a1 1 0 0 1-2 0l1-1 1 1zM33 60l-1 1-1-1 1-1 1 1z"/>
  <path class="st7" d="M63 53l-1 1a1 1 0 0 1 0-2l1 1zM31 32l-1 1-1-1 1-1 1 1zM42 64l-1 1-1-1 1-1 1 1z"/>
  <path class="st6" d="M64 38l-1 1-1-1 1-1 1 1z"/>
  <path class="st7" d="M65 43l-1 1-1-1 1-1 1 1z"/>
  <path class="st6" d="M62 34l-1 1-1-1 1-1 1 1zM47 64l-1 1-1-1 1-1 1 1z"/>
  <path class="st7" d="M35 29l-1 1-1-1 1-1 1 1z"/>
  <path class="st6" d="M26 47l-1 1-1-1 1-1 1 1zM54 27l-1 1-1-1 1-1 1 1zM30 56l-1 1-1-1 1-1 1 1zM27 42a1 1 0 0 1-2 0l1-1 1 1zM52 63l-1 1-1-1 1-1 1 1z"/>
  <path class="st7" d="M58 30l-1 1-1-1 1-1 1 1z"/>
  <path class="st6" d="M65 48l-1 1-1-1 1-1 1 1zM38 63l-1 1a1 1 0 0 1 0-2l1 1zM57 61l-1 1-1-1 1-1 1 1zM44 26a1 1 0 0 1-2 0l1-1 1 1zM28 52l-1 1-1-1 1-1 1 1zM28 37l-1 1-1-1 1-1 1 1zM49 26l-1 1-1-1 1-1 1 1zM61 58l-1 1-1-1 1-1 1 1z"/>
  <path class="st8" d="M57 57l-1 1-1-1 1-1 1 1zM38 30l-1 1-1-1 1-1 1 1zM36 59h-1l1-1v1zM30 39l-1 1-1-1h2z"/>
  <path class="st9" d="M42 28l-1 1-1-1 1-1 1 1zM62 41l-1 1-1-1 1-1 1 1z"/>
  <path class="st8" d="M29 44l-1 1-1-1 1-1 1 1z"/>
  <path class="st9" d="M33 56l-1 1-1-1 1-1 1 1z"/>
  <path class="st8" d="M60 37v1l-1-1v-1l1 1z"/>
  <path class="st9" d="M62 45l-1 1-1-1h2z"/>
  <path class="st8" d="M61 50l-1 1v-1-1l1 1zM59 54v1l-1-1 1-1v1z"/>
  <path class="st9" d="M46 28v1l-1-1 1-1v1z"/>
  <path class="st8" d="M34 32v1l-1-1a1 1 0 0 1 1 0z"/>
  <path class="st9" d="M40 60l-1 1v-1h1zM55 31h-2l1-1 1 1zM32 35l-1 1h-1l1-1h1zM53 59l-1 1-1-1h2zM31 52l-1 1-1-1 1-1 1 1zM58 33l-1 1-1-1h2zM49 61l-1 1-1-1 1-1 1 1zM29 48l-1 1v-1-1l1 1zM45 61l-1 1-1-1 1-1 1 1zM51 29l-1 1-1-1 1-1 1 1z"/>
  <path d="M134 45l-1-11c-1-6-4-11-11-13l-4-1c-8 0-15 1-21 6v2l5 6h2c3-3 7-4 11-3 3 0 5 2 6 5l-2 1h-4c-5 1-10 1-15 4-9 4-8 16-2 20s17 5 23-2v3c0 1 1 2 2 1h9a1338 1338 0 0 1 1-18zm-13 4c-1 4-4 6-9 6h-2c-2-1-3-1-3-3-1-2 0-4 2-5l8-2h1c4 0 4 0 3 4z" fill="#4486f3"/>
  <path class="st11" d="M180 41c-2 0-1-1-1-1v-6c0-3-1-4-3-4-2-1-4 0-4 3v7l-1 1c-2 0-1 0-1-1v-7c-1-2-1-3-3-3-2-1-3 0-4 2v8l-1 1-1-1V29v-1c1 0 2 1 1 2 4-3 5-3 9 0l1-1c1-1 4-2 6-1s3 3 3 5v7l-1 1zM220 63h-2v-1-7c-1-2-2-4-4-3-2 0-3 1-3 3v7l-1 1c-2 0-1-1-1-1v-7c0-2-1-3-3-3-2-1-4 1-4 3v7l-1 1-1-1V52v-2c2 0 2 1 2 2 3-3 5-3 8 0 1-2 3-3 6-2 2 0 3 1 3 3l1 10zM179 62v-9-10l-1-1-1 1v7l-1 1h-1c-1-1-3-2-5-1-2 0-4 2-5 5 0 3 0 6 3 7 2 2 5 2 7 1 1-1 1-2 2 0h1l1-1zm-7 0c-3 0-5-2-5-5s2-5 5-5 5 2 5 5-2 5-5 5zM186 57h9l1-1c0-2-1-4-3-5-3-2-7-1-9 1-2 3-1 8 1 10 3 2 7 2 10 0l-1-2-1 1c-3 2-7 1-8-2l1-2zm-1-2c0-2 2-3 4-3 2-1 4 0 5 2l-1 2h-7l-1-1z"/>
  <path class="st12" d="M212 40v-7c0-2 0-4-3-5-2-1-4 0-7 1v1l1 1 2-1h4l1 3h-2l-4 1c-2 0-3 2-3 4s1 3 4 4c2 0 3-1 5-3 0 2 0 3 2 2v-1zm-2-3c-1 2-3 3-5 3l-2-2 1-2 4-1c2 0 3 0 2 2z"/>
  <path class="st11" d="M161 62v-7c0-2 0-4-3-5-2-1-4 0-7 1v1l1 1 2-1c2-1 5 0 5 2l-1 1-6 1-2 4c0 1 1 3 3 3 2 1 4 1 6-1l2 1v-1zm-2-3c-1 2-3 4-5 3l-2-2 2-2 3-1c3 0 3 0 2 2zM235 50l-7 18c-1 2-2 2-4 2l-1-1 1-1c2 0 4-3 3-6a4921 4921 0 0 0-2-10l4 9 2-7 1-2c1-2 2-2 3-2zM155 41l-1-1-5 2c-3-1-4-2-5-5v-8l1-1 1 1v7c0 2 1 4 4 4 2 0 4-2 4-4v-7l1-1 1 1v11l-1 1zM197 41h-1l-1-1v-6c0-3-1-4-3-4-3-1-4 1-4 4v6l-2 1v-1l-1-10 1-2 2 2 3-2c3-1 6 1 6 4v9zM147 62c-2 2-4 2-7 1s-4-3-4-6 1-5 4-6c2-2 5-2 7 0l1 1h-2c-2-1-5-1-6 1-2 2-2 5-1 7 2 2 5 2 7 1l1-1 1 1-1 1zM139 40l-1 1-1-1V21l1-1 1 1v19z"/>
  <path d="M219 29a696 696 0 0 0-2 11v-5-6l1-1 1 1z" fill="#5f97f4"/>
  <path class="st12" d="M219 23l-1 1-2-1 2-1 1 1z"/>
</svg>
