<?xml version="1.0" encoding="utf-8"?>
<!-- Generator: Adobe Illustrator 23.0.1, SVG Export Plug-In . SVG Version: 6.00 Build 0)  -->
<svg version="1.1" id="Layer_1" xmlns="http://www.w3.org/2000/svg" xmlns:xlink="http://www.w3.org/1999/xlink" x="0px" y="0px"
	 viewBox="0 0 1366 768" style="enable-background:new 0 0 1366 768;" xml:space="preserve">
<style type="text/css">
	.st0{fill:#1D2B36;}
	.st1{fill:#FFFFFF;}
	.st2{fill:#94D3FF;}
	.st3{fill:#5097C9;}
	.st4{fill:#19252E;}
	.st5{fill:#356385;}
	.st6{fill:#1C3D54;}
	.st7{fill:#142530;}
	.st8{fill:#0E191E;}
	.st9{fill:#080E0F;}
	.st10{fill:#2E5774;}
	.st11{fill:#385261;}
	.st12{fill:#486271;}
	.st13{fill:#57717F;}
	.st14{fill:#3A5363;}
	.st15{fill:#244052;}
	.st16{fill:#2B3740;}
	.st17{fill:#384F5E;}
	.st18{fill:#546F80;}
	.st19{clip-path:url(#SVGID_2_);fill:#48677A;}
	.st20{fill:#FF8787;}
	.st21{fill:#E05C5C;}
</style>
<rect y="-128.25" class="st0" width="1366" height="1024.5"/>
<polygon class="st1" points="1198.26,355.16 1207.22,356.06 1198.25,356.87 1197.34,365.83 1196.54,356.86 1187.57,355.95 
	1196.54,355.15 1197.45,346.18 "/>
<polygon class="st1" points="661.84,105.27 670.81,106.17 661.83,106.98 660.93,115.94 660.12,106.97 651.16,106.06 660.13,105.26 
	661.03,96.29 "/>
<polygon class="st1" points="1077.24,269.64 1090.49,270.98 1077.23,272.17 1075.89,285.42 1074.7,272.16 1061.45,270.82 
	1074.71,269.63 1076.05,256.37 "/>
<polygon class="st2" points="701.77,807.43 715.02,808.76 701.76,809.96 700.42,823.21 699.22,809.94 685.97,808.61 699.24,807.41 
	700.58,794.16 "/>
<polygon class="st2" points="807.06,136.55 814.31,137.28 807.05,137.93 806.32,145.19 805.66,137.93 798.41,137.2 805.67,136.54 
	806.4,129.28 "/>
<polygon class="st1" points="250.84,-82.01 259.43,-81.15 250.83,-80.37 249.97,-71.78 249.19,-80.38 240.6,-81.25 249.2,-82.02 
	250.07,-90.61 "/>
<polygon class="st2" points="180.34,764.75 193.2,766.04 180.33,767.2 179.03,780.06 177.87,767.19 165.01,765.89 177.88,764.73 
	179.18,751.87 "/>
<polygon class="st3" points="107.8,299.76 111.69,300.15 107.79,300.5 107.4,304.4 107.05,300.5 103.15,300.1 107.05,299.75 
	107.44,295.86 "/>
<polygon class="st1" points="949.12,493.42 953.02,493.81 949.12,494.16 948.73,498.06 948.38,494.16 944.48,493.77 948.38,493.42 
	948.77,489.52 "/>
<polygon class="st1" points="157.83,179.47 162.9,179.99 157.83,180.44 157.31,185.51 156.86,180.44 151.79,179.93 156.86,179.47 
	157.37,174.4 "/>
<polygon class="st2" points="807,693.96 813.62,694.63 806.99,695.23 806.32,701.86 805.72,695.22 799.1,694.55 805.73,693.96 
	806.4,687.33 "/>
<polygon class="st1" points="992.93,746.98 1008.13,748.51 992.91,749.88 991.38,765.08 990.01,749.86 974.81,748.33 990.02,746.96 
	991.56,731.76 "/>
<polygon class="st1" points="1084.45,411.11 1095.11,412.18 1084.44,413.14 1083.36,423.81 1082.4,413.13 1071.74,412.06 
	1082.41,411.1 1083.49,400.43 "/>
<polygon class="st1" points="744,-3.54 752.19,-2.71 743.99,-1.97 743.17,6.21 742.43,-1.98 734.24,-2.81 742.44,-3.54 
	743.26,-11.73 "/>
<polygon class="st2" points="917.13,-61.87 925.32,-61.05 917.13,-60.31 916.3,-52.12 915.56,-60.32 907.38,-61.14 915.57,-61.88 
	916.4,-70.07 "/>
<polygon class="st1" points="1214.34,-24.72 1223.69,-23.77 1214.33,-22.93 1213.38,-13.58 1212.54,-22.94 1203.19,-23.88 
	1212.55,-24.73 1213.49,-34.08 "/>
<polygon class="st3" points="1136.07,98.9 1145.04,99.81 1136.06,100.62 1135.16,109.58 1134.35,100.61 1125.39,99.7 1134.36,98.9 
	1135.27,89.93 "/>
<polygon class="st2" points="330.4,643.34 338.97,644.21 330.39,644.98 329.52,653.56 328.75,644.97 320.18,644.11 328.76,643.34 
	329.62,634.76 "/>
<polygon class="st1" points="1241.54,185.6 1256.35,187.09 1241.52,188.43 1240.03,203.24 1238.69,188.41 1223.88,186.92 
	1238.71,185.58 1240.2,170.77 "/>
<polygon class="st1" points="1284.14,437.6 1297.78,438.98 1284.13,440.2 1282.75,453.85 1281.52,440.19 1267.88,438.82 
	1281.54,437.59 1282.91,423.94 "/>
<polygon class="st1" points="949.65,380.63 959,381.57 949.64,382.41 948.7,391.77 947.85,382.4 938.5,381.46 947.86,380.62 
	948.81,371.26 "/>
<polygon class="st1" points="1119.59,827.91 1128.94,828.85 1119.58,829.7 1118.63,839.05 1117.79,829.69 1108.44,828.74 
	1117.8,827.9 1118.74,818.55 "/>
<polygon class="st1" points="1241.12,772.27 1251.65,773.33 1241.11,774.28 1240.05,784.81 1239.1,774.27 1228.58,773.21 
	1239.11,772.26 1240.18,761.73 "/>
<polygon class="st1" points="1301.56,665.83 1307.4,666.42 1301.55,666.95 1300.96,672.8 1300.43,666.94 1294.59,666.35 
	1300.44,665.83 1301.03,659.98 "/>
<polygon class="st1" points="167.74,532.33 175.93,533.16 167.73,533.9 166.91,542.08 166.17,533.89 157.98,533.06 166.18,532.33 
	167,524.14 "/>
<polygon class="st1" points="1087.01,-55.05 1102.6,-53.47 1087,-52.07 1085.43,-36.48 1084.02,-52.08 1068.43,-53.66 
	1084.04,-55.06 1085.61,-70.65 "/>
<polygon class="st1" points="345.62,785.46 352.16,786.12 345.61,786.71 344.95,793.25 344.37,786.7 337.83,786.04 344.37,785.45 
	345.03,778.92 "/>
<polygon class="st1" points="509.36,798.35 517.93,799.21 509.35,799.98 508.48,808.56 507.71,799.97 499.14,799.11 507.72,798.34 
	508.58,789.76 "/>
<polygon class="st1" points="76.15,453.01 84.73,453.88 76.15,454.65 75.28,463.23 74.51,454.64 65.93,453.78 74.52,453 
	75.38,444.43 "/>
<polygon class="st3" points="916.95,616.67 923.18,617.3 916.94,617.86 916.31,624.1 915.75,617.85 909.51,617.22 915.76,616.66 
	916.38,610.43 "/>
<polygon class="st3" points="265.81,419.13 279.06,420.47 265.8,421.67 264.46,434.92 263.27,421.65 250.02,420.32 263.28,419.12 
	264.62,405.87 "/>
<polygon class="st2" points="85.09,623.81 93.27,624.64 85.08,625.37 84.25,633.56 83.52,625.37 75.33,624.54 83.52,623.8 
	84.35,615.62 "/>
<polygon class="st2" points="599.12,5.55 610.37,6.68 599.11,7.7 597.97,18.94 596.96,7.68 585.71,6.55 596.97,5.54 598.1,-5.71 "/>
<g>
	<path class="st4" d="M430.02,641.91c-4.36,0.45-8.72,0.87-13.07,1.25c-16.61,1.47-33.89,2.84-49.46-3.12
		c-15.57-5.97-28.77-21.63-26.16-38.09c2.65-16.71,19.76-27.24,36.18-31.33c16.42-4.09,33.97-4.18,49.39-11.16
		c15.42-6.98,28.26-24.64,21.92-40.33c-4.69-11.59-17.48-17.24-28.92-22.28c-23.54-10.38-46.51-23.16-64.39-41.65
		c-17.89-18.49-30.31-43.38-29.49-69.09c0.83-26.13,14.83-49.93,30.04-71.19c10.52-14.71,22.44-28.93,31-44.93
		c5.95-11.12,6.48-23.63,12.34-34.49c16.42-30.45,49.94-58.07,72.77-84.07c13.93-15.87,29.29-32.6,49.91-37.15
		c15.4-3.4,37.99,0.19,51.11,9.46c12.43,8.78,14.95,21.53,32.9,23.2c9.85,0.92,19.68-1.35,29.34-3.5
		c123.66-27.53,251.02-38.4,377.55-32.21c10.3,0.5,20.88,1.19,30.22,5.56c9.34,4.37,17.27,13.31,17.38,23.62
		c0.15,14.52-12.86,23.98-25.68,27.43c-16.2,4.37-25.59,5.61-37.04,20.51c-7.24,9.42-11.56,21.83-8.57,33.32
		c4.01,15.45,19.28,24.71,32.88,33.09c13.59,8.37,28.14,19.74,28.97,35.68c0.74,14.16-10.4,26.77-23.45,32.32
		c-13.44,5.72-26.76,5.39-40.76,3.79c-14.85-1.7-27.95,0.23-42.6,4.48c-21.81,6.33-44.23,19.88-58.77,37.44
		c-14.57,17.6-19.93,52.04,2.97,66.46c8.92,5.62,19.79,6.97,29.72,10.51c20.77,7.4,37.54,25.21,43.69,46.38
		c6.14,21.18,1.51,45.19-12.08,62.56c-19.7,25.19-53.45,33.75-84.66,40.76c-28.29,0-62.4,14.02-90.1,20.24
		c-25.11,5.64-67.2,6.82-87.92,22.5c-6.86,5.19-10.69,13.96-18.27,18.02c-6.9,3.7-15.26,2.64-23,1.49
		c-24.87-3.71-49.75-7.41-74.62-11.12c-20.66-2.69-41.82-11.74-62.38-11.22C482.71,635.72,456.22,639.23,430.02,641.91z"/>
	<g>
		<g>
			<g>
				<path class="st5" d="M738.1,344.85c0.02-0.07,0.04-0.14,0.06-0.2c0.37-1.12,1.61-1.76,2.78-1.81
					c4.52-0.21,18.22,5.66,21.55,1.17c1.17-1.58,1.12-3.81,0.35-5.62c-0.77-1.81-2.15-3.28-3.55-4.65
					c-10.54-10.38-23.85-17.9-38.14-21.69c-16.42-4.35-33.09-8.08-49.59-12.28c-2.16-0.55-4.54-1.26-5.69-3.18
					c-3.79-6.36,17.39-10.29,17.11-16.66c-0.11-2.51-2.85-4.07-5.33-4.41c-17.11-2.34-33.76,1.37-49.31,8.75
					c-9.75,4.63-18.8,10.58-27.44,17.01c-6.25,4.65-12.6,10.54-19.85,13.59c-7.56,3.18-7.06-3.46-4.91-9.01
					c1.27-3.28,3-7.14,0.79-10.52c-3-4.58-7.81-1.53-10.7,1.46c-12.93,13.35-23.33,25.47-27.7,44.17
					c-3.07,13.11-3.81,26.66-6.19,39.92c-0.58,3.24-1.36,9.7-5.49,10.17c-2.91,0.34-6.46-2.84-7.96-5.06
					c-2.06-3.05-3.77-12.26-9.24-10.24c-4.89,1.8-3.54,13.37-3.24,16.98c1.7,20.37,9.64,40.01,23.5,55.14
					c3.23,3.52,6.75,6.8,9.61,10.62c2.82,3.77,14.62,22.41,3.15,23.78c-2.69,0.32-5.37-1.57-7.99-0.89
					c-2.91,0.75-4.19,4.45-3.4,7.36c1.73,6.32,8.77,13.76,13.9,17.59c6.41,4.77,14.06,7.74,21.76,9.69
					c14.49,3.68,30.65,1.13,44.58,5.7c3.9,1.28,11.55,4.98,12.5,9.59c0.71,3.44-2.76,5.81-2.26,9.42c1.4,10.07,16.1,6.7,22.6,5.24
					c8.16-1.83,15.78-5.66,22.68-10.31c7.75-5.22,14.86-11.33,21.88-17.48c6.91-6.07,14.75-11.71,21.23-18.19
					c1.26-1.26,3.78,1.26,5.05,1.26c3.78,7.57-1.26,16.4,0,23.97c1.26,1.26,3.78,2.52,5.05,1.26c22.7-20.18,32.8-51.72,30.27-81.99
					c-1.26-5.05-1.26-12.61,2.52-15.14c8.3-5.53,13.78,4.66,17.18,10.67c0.37,0.65,0.8,1.35,1.5,1.6c1.25,0.43,2.42-0.78,3.11-1.9
					c4.5-7.2,5.39-15.98,3.65-24.18c-2.68-12.59-10.73-23.36-18.02-33.67c-7.75-10.96-15.79-21.8-21.68-33.92
					C738.34,346.95,737.86,345.87,738.1,344.85z"/>
				<path class="st6" d="M663.94,311.38c13.33-1.54,26.56-0.21,38.71,5.64c1.77,0.85,3.42,2.63,3.01,4.5
					c-1.06,4.76-16.84,2.94-15.39,8.53c0.43,1.68,2.02,2.77,3.49,3.71c11.21,7.12,22.61,13.99,33.62,21.28
					c9.59,6.35,17.58,15.16,22.9,25.41c0.71,1.36,1.38,2.78,1.53,4.3c0.15,1.52-0.31,3.18-1.48,4.11c-3.35,2.66-11.76-4.36-15-5.05
					c-0.85-0.18-1.87,0.02-2.39,0.77c-0.03,0.05-0.06,0.09-0.09,0.14c-0.4,0.71-0.3,1.62-0.18,2.45c1.5,10.41,4.79,20.42,7.79,30.44
					c2.82,9.43,6.05,19.37,4.97,29.38c-0.71,6.55-3.45,12.9-8.43,17.29c-0.77,0.68-1.91,1.33-2.72,0.78
					c-0.46-0.31-0.62-0.89-0.75-1.41c-1.18-4.82-2.95-13.16-10.29-10.83c-3.39,1.08-5.22,6.65-5.59,10.68
					c-5.75,22.99-21.27,43.23-42.77,53.46c-1.27,0.6-2.83-0.82-3.5-1.98c0.56-5.61,5.9-10.7,4.64-16.92
					c-0.96-0.27-2.25-2.64-3.5-2.02c-6.42,3.21-13.62,5.49-20.26,8.26c-6.73,2.81-13.53,5.53-20.59,7.45
					c-6.29,1.71-12.89,2.64-19.43,2.01c-4.58-0.46-13.03-1.32-15.33-5.97c-1.08-2.21-0.58-5.15,1.31-6.49
					c0.94-0.67,2.09-0.91,3.16-1.32c1.07-0.41,2.16-1.09,2.53-2.23c0.61-1.88-1.08-3.77-2.72-5c-3.76-2.82-7.6-4.6-12.1-5.51
					c-4.33-0.88-8.28-3.69-12.13-5.83c-5.42-3-11.13-5.46-16.29-8.77c-5.22-3.36-10.17-7.45-13.8-12.56
					c-2.93-4.13-6.38-11.28-6.28-16.43c0.05-2.35,1.77-4.8,3.99-4.77c1.99,0.03,3.45,1.89,5.42,2.19
					c8.42,1.28,4.16-15.02,2.94-18.68c-1.18-3.55-2.99-6.85-4.5-10.27c-6.5-14.67-7.62-31.25-3.99-46.91
					c0.68-2.89,2.43-11.72,6.44-12.1c4.45-0.42,3.68,6.4,4.56,8.88c0.64,1.81,2.52,4.77,4.75,5.09c3.15,0.45,5.27-4.1,6.52-6.42
					c5.04-9.35,9.03-19.23,14.61-28.21c7.92-12.78,18.72-19.39,31.63-26.21c2.9-1.53,7.17-2.66,8.45,1.26
					c0.94,2.89-1.01,5.23-2.53,7.26c-2.59,3.46-4.27,8.06,2.05,7.49c6.19-0.56,12.38-3.32,18.23-5.19
					C647.24,314.45,655.5,312.36,663.94,311.38z"/>
				<path class="st7" d="M637.1,335.48c8.92-3.64,18.31-5.39,27.9-3.94c1.39,0.21,2.89,1.04,3.12,2.34c0.59,3.36-9.42,5.5-7.06,8.92
					c0.7,1.01,2.01,1.43,3.22,1.77c9.19,2.58,18.4,5.05,27.39,7.92c7.82,2.5,15.09,6.94,20.89,12.87c0.77,0.79,1.53,1.62,1.98,2.62
					c0.45,1,0.52,2.21,0.02,3.11c-1.46,2.61-8.02,0.19-10.11,0.63c-0.55,0.12-1.14,0.48-1.3,1.11c-0.01,0.04-0.02,0.08-0.02,0.11
					c-0.09,0.57,0.17,1.17,0.43,1.71c3.28,6.83,7.56,13.06,11.61,19.38c3.81,5.96,7.92,12.17,9.26,19.32
					c0.87,4.71,0.38,9.7-1.95,13.89c-0.36,0.65-0.96,1.35-1.6,1.23c-0.36-0.07-0.58-0.37-0.78-0.64c-1.78-2.47-4.72-7.09-8.99-3.75
					c-2.03,1.59-2.14,5.75-1.66,8.61c0.44,17.04-6.19,34.14-18.86,45.81c-0.75,0.69-2.1,0.16-2.83-0.4
					c-1.07-3.46,0.98-7.58-1.4-11.1c-0.74,0.06-2.11-1.14-2.86-0.46c-3.81,3.53-8.33,6.59-12.4,9.82
					c-4.12,3.27-8.32,6.48-12.85,9.18c-4.04,2.41-8.44,4.38-13.14,5.28c-3.36,0.64-9.27,1.78-12-0.77c-1.29-1.2-1.71-3.19-0.92-4.46
					c0.39-0.63,1-1.03,1.52-1.52c0.52-0.49,1.01-1.16,0.94-1.97c-0.11-1.35-1.69-2.24-3.09-2.72c-3.22-1.11-6.27-1.55-9.56-1.32
					c-3.18,0.21-6.49-0.89-9.61-1.59c-4.37-0.98-8.8-1.58-13.05-2.85c-4.3-1.29-8.55-3.12-12.16-5.88
					c-2.95-2.27-6.84-6.36-8.02-9.93c-0.53-1.61-0.02-3.62,1.32-4.16c1.2-0.48,2.43,0.29,3.67-0.01c5.35-1.29-0.84-11.13-2.55-13.6
					c-1.55-2.23-3.46-4.16-5.19-6.23c-7.43-8.9-11.71-20.16-12.52-31.86c-0.16-2.31-0.82-8.64,1.71-9.98
					c2.76-1.47,3.72,2.77,4.83,3.92c0.82,0.85,2.64,2.18,4.18,1.77c2.15-0.57,2.65-4.08,3.05-6.01c1.59-7.61,2.44-15.31,4.58-22.72
					c2.98-10.45,9.15-17.48,16.73-24.95c1.71-1.68,4.37-3.37,6.17-1.27c1.34,1.56,0.76,3.34,0.36,4.85
					c-0.69,2.61-0.61,5.76,3.54,4.02c4.21-1.75,8-4.88,11.75-7.34C625.93,340.87,631.34,337.83,637.1,335.48z"/>
				<path class="st8" d="M656.38,365.94c5.45,0.04,10.77,1.03,15.63,3.6c0.71,0.38,1.35,1.04,1.4,1.73
					c0.14,1.87-4.15,1.67-3.25,3.87c0.26,0.64,0.87,1.1,1.44,1.51c4.38,3.16,8.69,6.36,12.73,9.76c3.52,2.96,6.43,6.75,8.39,11.01
					c0.26,0.57,0.51,1.15,0.59,1.77c0.08,0.62-0.04,1.26-0.35,1.7c-0.95,1.34-3.34-0.15-4.31,0.08c-0.24,0.06-0.56,0.18-0.71,0.5
					c-0.01,0.02-0.02,0.04-0.03,0.06c-0.12,0.3-0.08,0.67-0.04,1c0.54,4.26,1.53,8.42,2.31,12.58c0.74,3.94,1.5,8.03,0.81,12.13
					c-0.46,2.75-1.62,5.39-3.5,7.4c-0.29,0.31-0.7,0.61-1,0.54c-0.17-0.04-0.25-0.16-0.32-0.27c-0.65-0.92-1.6-2.98-4.24-1.67
					c-1.34,0.67-2.19,2.78-2.62,4.37c-3.54,9.03-10.54,16.72-19.61,20.69c-0.54,0.24-1.17-0.15-1.53-0.47
					c-0.46-1.52,0.54-2.92-0.51-4.72c-0.45-0.06-1-0.77-1.54-0.56c-2.78,1.1-5.81,1.84-8.67,2.68c-2.89,0.85-5.82,1.6-8.81,2.04
					c-2.67,0.39-5.45,0.5-8.19,0.04c-2.05-0.35-5.29-0.88-6.56-2.61c-0.59-0.8-0.67-1.84-0.33-2.39c0.17-0.27,0.41-0.41,0.62-0.6
					c0.21-0.19,0.43-0.47,0.43-0.9c0-0.7-0.71-1.42-1.4-1.93c-1.57-1.16-3.15-2.02-4.92-2.63c-1.72-0.6-3.3-1.82-4.83-2.85
					c-2.14-1.43-4.34-2.71-6.33-4.29c-2.02-1.6-3.91-3.45-5.35-5.63c-1.21-1.85-2.55-4.65-2.73-6.85c-0.08-0.96,0.38-1.96,0.98-2.18
					c0.54-0.21,0.92,0.14,1.46,0.03c2.36-0.45,0.96-6.22,0.46-8.16c-0.39-1.52-0.99-2.95-1.47-4.42
					c-2.05-6.32-2.16-13.27-0.38-19.88c0.4-1.49,1.18-4.84,2.7-5.45c1.57-0.63,1.59,1.06,2.1,1.42c0.37,0.27,1.1,0.92,1.98,0.78
					c1.2-0.2,2.11-1.91,2.75-2.94c2.43-3.89,4.62-7.84,7.4-11.38c3.86-4.92,8.72-7.72,14.34-10.3c1.29-0.59,2.98-1.01,3.79,0.09
					c0.61,0.83,0.4,1.48,0.24,2.04c-0.28,1-0.37,2.36,2.08,2.17c2.7-0.2,5.41-1.02,8.02-1.51
					C649.09,366.29,652.71,365.92,656.38,365.94z"/>
				
					<ellipse transform="matrix(0.7071 -0.7071 0.7071 0.7071 -101.613 577.1233)" class="st9" cx="645.84" cy="411.22" rx="18.25" ry="18.25"/>
				<path class="st10" d="M534.86,514.84c-5.58-5.46-11.3-11.13-14.24-18.35c-2.94-7.23-2.36-16.49,3.48-21.67
					c1.83-1.63,4.14-2.85,5.32-4.99c2.78-5.07-2.3-10.68-6.53-14.62c-19.6-18.22-30.53-45.41-28.98-72.13
					c-8.82,39.29,20.1,70.29,18.22,92.08c-0.53,6.19-0.45,12.52,0.98,18.57C515.75,504.94,523.34,514.79,534.86,514.84z"/>
			</g>
			<path class="st10" d="M758.1,463.54c0.13-2.6,0.17-5.28,1.19-7.67c1.02-2.4,3.3-4.47,5.9-4.36c2.43,0.1,4.46,2.09,5.31,4.37
				c0.86,2.27,0.76,4.78,0.55,7.2c-2.21,25.56-16.79,49.76-38.34,63.67C747.88,509.27,756.97,486.63,758.1,463.54z"/>
			<path class="st10" d="M602.23,551.44c-4.27-4.13-10.19-5.95-15.61-8.38c-5.42-2.43-10.93-6.13-12.51-11.86
				c10.41,5.35,22.52,7.31,34.08,5.53c-0.92,6.89,1.85,14.16,7.13,18.69c5.27,4.53,12.88,6.16,19.55,4.21
				c-6.79,6.58-18.85,6.59-25.65,0.03C606.63,557.16,604.82,553.94,602.23,551.44z"/>
			<path class="st10" d="M710.85,298.15c30.08,4.03,57.09,25.83,67.39,54.37c-0.36-27.27-21.24-52.93-47.87-58.81
				c-6.28-1.39-13.25-2.01-17.85-6.49c-3.05-2.97-4.52-7.15-5.97-11.15c-1.45-4-3.1-8.15-6.37-10.87
				c-3.27-2.72-8.66-3.38-11.57-0.28c3.16-0.93,6.39,2.02,7.07,5.24c0.68,3.22-0.41,6.53-1.39,9.67c-0.99,3.14-1.89,6.55-0.85,9.68
				C695.58,296.04,704.05,297.24,710.85,298.15z"/>
		</g>
		<g>
			
				<ellipse transform="matrix(0.9561 -0.2931 0.2931 0.9561 -23.5686 267.3968)" class="st11" cx="880.62" cy="212.36" rx="54.45" ry="54.45"/>
			<path class="st12" d="M929.24,213.21c-0.47,26.86-22.62,48.25-49.48,47.78c-26.86-0.47-48.25-22.62-47.78-49.48
				c0.47-26.86,22.62-48.25,49.48-47.78C908.33,164.2,929.72,186.35,929.24,213.21z"/>
			<path class="st12" d="M929.24,213.21c-0.47,26.86-22.62,48.25-49.48,47.78c-26.86-0.47-48.25-22.62-47.78-49.48
				c0.47-26.86,22.62-48.25,49.48-47.78C908.33,164.2,929.72,186.35,929.24,213.21z"/>
			<path class="st13" d="M831.99,211.5c-0.47,26.86,20.92,49.01,47.78,49.48c0.88,0.02,1.73-0.06,2.6-0.09
				c14.6-10.78,24.23-27.94,24.58-47.48c0.36-20.31-9.4-38.42-24.59-49.63c-0.3-0.01-0.58-0.06-0.88-0.06
				C854.61,163.26,832.46,184.65,831.99,211.5z"/>
			<circle class="st12" cx="866.27" cy="193.93" r="14.55"/>
			<path class="st11" d="M879.52,194.9c0,6.78-5.5,12.28-12.28,12.28c-6.78,0-12.28-5.5-12.28-12.28s5.5-12.28,12.28-12.28
				C874.02,182.62,879.52,188.12,879.52,194.9z"/>
			<path class="st13" d="M893.24,236.7c-3.62-3.49-3.73-9.26-0.24-12.88c3.49-3.62,9.26-3.73,12.88-0.24
				c3.62,3.49,3.73,9.26,0.24,12.88C902.64,240.08,896.87,240.19,893.24,236.7z"/>
			<path class="st11" d="M893.37,235.69c-3.06-2.95-3.15-7.82-0.21-10.88c2.95-3.06,7.82-3.15,10.88-0.21
				c3.06,2.95,3.15,7.82,0.21,10.88C901.3,238.55,896.43,238.64,893.37,235.69z"/>
			<path class="st12" d="M858.66,230.61c2.9-3.01,7.69-3.1,10.71-0.2c3.01,2.9,3.1,7.69,0.2,10.71c-2.9,3.01-7.69,3.1-10.71,0.2
				C855.84,238.42,855.75,233.62,858.66,230.61z"/>
			<path class="st11" d="M859.49,230.71c2.45-2.54,6.5-2.62,9.04-0.17c2.54,2.45,2.62,6.5,0.17,9.04c-2.45,2.54-6.5,2.62-9.04,0.17
				C857.12,237.31,857.04,233.26,859.49,230.71z"/>
			<path class="st12" d="M896.43,198.49c1.67-1.73,4.42-1.78,6.15-0.12c1.73,1.67,1.78,4.42,0.12,6.15
				c-1.67,1.73-4.42,1.78-6.15,0.12C894.82,202.97,894.76,200.22,896.43,198.49z"/>
			<path class="st11" d="M896.91,198.55c1.41-1.46,3.73-1.5,5.19-0.1c1.46,1.41,1.51,3.73,0.1,5.19c-1.41,1.46-3.73,1.5-5.19,0.1
				C895.55,202.33,895.5,200.01,896.91,198.55z"/>
		</g>
		<g>
			<g>
				<path class="st14" d="M365.06,114.47c15.63,11.71,14.96,39.03-1.51,61.01c-16.47,21.98-42.49,30.31-58.13,18.59
					c21.98,16.47,53.15,12,69.62-9.98C391.51,162.1,387.04,130.93,365.06,114.47z"/>
				<path class="st15" d="M363.55,175.47c16.47-21.98,17.14-49.3,1.51-61.01c5.35,4.01-3.66,25.08-20.12,47.06
					c-16.47,21.98-34.16,36.55-39.51,32.54C321.06,205.78,347.08,197.46,363.55,175.47z"/>
			</g>
			<path class="st14" d="M367.95,138.62c-2.5,3.33-7.23,4.01-10.56,1.51c-3.34-2.5-4.01-7.23-1.51-10.56
				c2.5-3.34,7.23-4.01,10.56-1.51C369.77,130.56,370.44,135.28,367.95,138.62z"/>
			<path class="st14" d="M367.95,138.62c-2.5,3.33-7.23,4.01-10.56,1.51c-3.34-2.5-4.01-7.23-1.51-10.56
				c2.5-3.34,7.23-4.01,10.56-1.51C369.77,130.56,370.44,135.28,367.95,138.62z"/>
			<path class="st0" d="M366.48,137.52c-2.38,3.18-6.92,3.81-10.13,1.41c-3.21-2.41-3.88-6.94-1.5-10.12
				c2.38-3.18,6.92-3.81,10.13-1.41C368.19,129.81,368.87,134.34,366.48,137.52z"/>
			<path class="st14" d="M374.53,167.69c-1.76,2.34-5.08,2.82-7.42,1.06c-2.34-1.76-2.82-5.08-1.06-7.42
				c1.76-2.34,5.08-2.82,7.42-1.06C375.81,162.02,376.28,165.35,374.53,167.69z"/>
			<path class="st0" d="M374.53,167.69c-1.29,1.73-3.74,2.08-5.47,0.78c-1.73-1.29-2.08-3.74-0.78-5.47
				c1.29-1.73,3.74-2.08,5.47-0.78C375.47,163.52,375.82,165.96,374.53,167.69z"/>
			<path class="st14" d="M327.25,170.51c3.15-3.25,8.34-3.34,11.59-0.19c3.25,3.15,3.34,8.34,0.19,11.59
				c-3.15,3.25-8.34,3.34-11.59,0.19C324.19,178.96,324.1,173.77,327.25,170.51z"/>
			<path class="st0" d="M324.93,168.27c3.03-3.14,7.95-3.3,10.98-0.37c3.03,2.93,3.02,7.85-0.01,10.98
				c-3.03,3.14-7.95,3.3-10.98,0.37C321.89,176.32,321.89,171.41,324.93,168.27z"/>
			<path class="st14" d="M345.26,149.67c2.37-2.45,6.29-2.52,8.74-0.15c2.45,2.37,2.52,6.29,0.14,8.74
				c-2.37,2.45-6.29,2.52-8.74,0.14C342.95,156.04,342.88,152.13,345.26,149.67z"/>
			<path class="st0" d="M348.08,151.81c1.78-1.84,4.67-1.94,6.45-0.22c1.78,1.72,1.78,4.61-0.01,6.46
				c-1.78,1.84-4.67,1.94-6.45,0.22C346.3,156.54,346.3,153.65,348.08,151.81z"/>
			<path class="st15" d="M334.09,192.67c2.37-1.05,5.14,0.02,6.18,2.39c1.05,2.37-0.02,5.14-2.39,6.18
				c-2.37,1.05-5.14-0.02-6.18-2.39C330.66,196.49,331.73,193.72,334.09,192.67z"/>
			<path class="st0" d="M334.09,192.67c1.8-0.8,3.88-0.03,4.65,1.71c0.77,1.74-0.07,3.79-1.87,4.59c-1.8,0.8-3.88,0.03-4.65-1.71
				C331.46,195.52,332.29,193.47,334.09,192.67z"/>
		</g>
		<g>
			
				<ellipse transform="matrix(0.9363 -0.3513 0.3513 0.9363 -118.2848 371.7441)" class="st16" cx="965.35" cy="511.85" rx="32.68" ry="32.68"/>
			<path class="st17" d="M936.02,526.26c7.96,16.2,27.54,22.88,43.74,14.92c2.03-1,3.92-2.18,5.64-3.52
				c2.86-10.98,1.96-22.99-3.43-33.97c-5.4-10.98-14.36-19.04-24.8-23.48c-2.11,0.55-4.2,1.32-6.23,2.32
				C934.74,490.48,928.06,510.06,936.02,526.26z"/>
			<g>
				<path class="st18" d="M932.7,513.39c0,0-3.76,2.28-10.19,6.48c-3.21,2.1-7.08,4.71-11.39,7.86c-2.15,1.58-4.41,3.3-6.71,5.2
					c-2.3,1.9-4.7,3.92-6.97,6.23c-1.13,1.16-2.24,2.38-3.2,3.7c-0.48,0.66-0.92,1.35-1.25,2.06c-0.34,0.7-0.58,1.44-0.53,2.03
					c0.03,0.26,0.1,0.58,0.23,0.7c0.3,0.49,0.44,0.43,0.65,0.61c0.57,0.33,1.36,0.52,2.17,0.64c1.65,0.22,3.47,0.1,5.29-0.1
					c7.31-0.92,14.94-3.27,22.69-5.84c7.76-2.62,15.64-5.76,23.57-9.12c7.93-3.36,15.88-7.04,23.74-10.91
					c7.87-3.86,15.63-7.89,23.14-12.12c7.5-4.23,14.81-8.55,21.62-13.09c6.77-4.56,13.29-9.16,18.49-14.39
					c1.27-1.31,2.47-2.68,3.31-4.12c0.4-0.71,0.74-1.46,0.82-2.11c0.01-0.31,0.03-0.61-0.08-0.84l-0.02-0.09l-0.01-0.05
					c0.11,0.19,0,0.01,0.02,0.03l-0.18-0.28c-0.06-0.12-0.11-0.15-0.14-0.17c-0.04-0.03-0.07-0.06-0.1-0.1
					c-0.42-0.39-1.17-0.66-1.92-0.82c-0.76-0.17-1.58-0.24-2.39-0.27c-1.64-0.05-3.28,0.08-4.89,0.27
					c-3.22,0.38-6.29,1.05-9.19,1.71c-2.91,0.67-5.65,1.4-8.22,2.14c-5.13,1.48-9.56,2.95-13.18,4.21
					c-7.26,2.52-11.36,4.11-11.36,4.11s1.01-0.44,2.89-1.27c1.89-0.81,4.66-2.03,8.25-3.43c3.58-1.41,7.95-3.07,13.05-4.77
					c5.1-1.67,10.9-3.5,17.53-4.51c1.66-0.24,3.37-0.42,5.17-0.41c0.9,0,1.81,0.06,2.76,0.24c0.94,0.19,1.94,0.45,2.89,1.22
					c0.23,0.22,0.56,0.55,0.65,0.71l0.18,0.28c0.04,0.07-0.03-0.06,0.1,0.18l0.04,0.11l0.08,0.22c0.25,0.61,0.26,1.22,0.23,1.81
					c-0.12,1.15-0.57,2.09-1.03,2.98c-0.97,1.76-2.22,3.23-3.54,4.66c-5.33,5.63-11.78,10.45-18.61,15.14
					c-6.85,4.67-14.12,9.18-21.68,13.45c-7.54,4.29-15.36,8.4-23.25,12.31c-7.92,3.86-15.94,7.53-23.95,10.88
					c-8,3.37-16.01,6.37-23.89,8.94c-7.89,2.54-15.64,4.7-23.35,5.48c-1.93,0.16-3.87,0.25-5.85-0.05c-0.99-0.18-2-0.4-2.99-1.01
					c-0.25-0.14-0.54-0.42-0.78-0.64c-0.3-0.27-0.33-0.41-0.48-0.61c-0.42-0.6-0.51-1.2-0.57-1.81c-0.03-1.2,0.38-2.17,0.8-3.02
					c0.43-0.86,0.95-1.62,1.5-2.33c1.09-1.42,2.28-2.67,3.48-3.84c4.85-4.63,9.84-8.11,14.28-11.12c4.46-2.99,8.45-5.44,11.75-7.41
					c3.3-1.98,5.96-3.43,7.76-4.43C931.74,513.91,932.7,513.39,932.7,513.39z"/>
			</g>
			<g>
				<defs>
					<path id="SVGID_1_" d="M936.02,526.26c7.96,16.2,27.54,22.88,43.74,14.92c2.03-1,3.92-2.18,5.64-3.52
						c2.86-10.98,1.96-22.99-3.43-33.97c-5.4-10.98-14.36-19.04-24.8-23.48c-2.11,0.55-4.2,1.32-6.23,2.32
						C934.74,490.48,928.06,510.06,936.02,526.26z"/>
				</defs>
				<clipPath id="SVGID_2_">
					<use xlink:href="#SVGID_1_"  style="overflow:visible;"/>
				</clipPath>
				
					<rect x="923.94" y="496.35" transform="matrix(0.8975 -0.4409 0.4409 0.8975 -123.92 475.7754)" class="st19" width="75.61" height="16.34"/>
				
					<rect x="938.35" y="525.68" transform="matrix(0.8975 -0.4409 0.4409 0.8975 -135.3759 485.1342)" class="st19" width="75.61" height="16.34"/>
			</g>
		</g>
		<g>
			<path class="st20" d="M649.08,406.74c-28.9-11.98-57.9-43.52-69.94-82.5c15.98-21.26,20.87-48.87,20.87-79.05
				c0-67.17-33.53-121.63-92.51-121.63S415,178.03,415,245.2c0,67.17,33.53,121.63,92.51,121.63c8.12,0,16.98-1.04,24.58-2.99
				C563.3,396.18,612.34,407.37,649.08,406.74z"/>
			<path class="st21" d="M624.33,398.77c-32.6-3.63-65.44-15.51-89.44-40.38l-1.65-1.71l-2.01,0.52
				c-7.44,1.91-16.06,2.88-23.73,2.88c-56.26,0-87.75-51.53-87.75-114.88c0-63.34,31.49-114.88,87.75-114.88
				s87.75,51.53,87.75,114.88c0,27.1-3.81,53.42-19.37,74.13l-2.45,3.26l1.35,4.37C584.12,357.18,604.86,382.45,624.33,398.77z"/>
			<g>
				<path class="st1" d="M468.56,176.92c-0.15-2.96-0.25-6.53-0.45-10.04c-0.05-1.71-0.2-3.41-0.3-5.12c0-0.35-0.05-0.75-0.1-1.1
					c-0.05-0.7-0.2-1.41-0.15-2.06c0.2-1.91,0.4-3.76,0.7-5.67c0.3-1.66,1.05-3.06,1.86-4.37c0.5-0.8,1.21-1.26,1.91-1.61
					c0.25-0.1,0.55,0,0.65-0.2c0.75-0.9,1.56-0.55,2.41-0.3c1,0.3,1.96,0.65,2.86,1.2c1.76,1.16,2.51,2.91,2.56,5.02
					c0.1,3.81,0.1,7.58,0.1,11.34c0.05,4.07,0.1,8.13,0,12.15c-0.1,2.51-0.35,4.92-0.95,7.33c-0.6,2.36-2.76,4.17-4.97,3.97
					c-1.71-0.2-3.26-0.7-4.57-1.96c-1-0.95-1.56-2.01-1.56-3.46V176.92z M478.9,154.28c0.05-0.6,0-1.26,0-1.86
					c0-1.36-0.55-2.31-1.51-3.06c-0.7-0.55-1.51-0.9-2.26-1.31c-0.2-0.1-0.45-0.05-0.65,0c-0.5,0.15-1,0.4-1.46,0.55
					c-0.7,0.15-1.26,0.55-1.71,1.15c-0.75,0.95-1.21,2.06-1.41,3.21c-0.6,2.76-1.1,5.57-0.55,8.43c0.05,0.35,0,0.75,0.05,1.1
					c0.1,2.41,0.25,4.82,0.4,7.23c0.1,2.41,0.3,4.77,0.3,7.23c0.05,1.51,0,2.96,0,4.47c0,1.86,0.95,2.96,2.36,3.61
					c0.75,0.35,1.56,0.5,2.36,0.6c0.65,0.1,1.31,0.05,1.76-0.45c1-1.05,1.81-2.21,1.96-3.71c0.2-2.26,0.75-4.47,0.55-6.78
					c-0.05-0.15-0.05-0.35-0.05-0.55c0-2.21,0.3-4.42,0-6.63v-0.75c0-0.85,0-1.76,0-2.66v-1.71c0.05-1.61,0.1-3.26,0.05-4.92
					C479.1,156.49,478.95,155.38,478.9,154.28z"/>
				<path class="st1" d="M485.27,176.92c-0.15-2.96-0.6-10.17-0.3-12.08c0.3-1.66,1.05-3.06,1.86-4.37c0.5-0.8,1.21-1.26,1.91-1.61
					c0.25-0.1,2.21-0.75,3.06-0.5c1,0.3,1.96,0.65,2.86,1.2c1.76,1.15,2.51,2.91,2.56,5.02c0.1,3.81,0.2,7.56,0.1,11.58
					c-0.1,2.51-0.35,4.92-0.95,7.33c-0.6,2.36-2.76,4.17-4.97,3.97c-1.71-0.2-3.26-0.7-4.57-1.96c-1-0.95-1.56-2.01-1.56-3.46
					V176.92z M495.61,166.2c0.05-0.6,0-1.26,0-1.86c0-1.36-0.55-2.31-1.51-3.06c-0.7-0.55-1.51-0.9-2.26-1.31
					c-0.2-0.1-0.45-0.05-0.65,0c-0.5,0.15-1,0.4-1.46,0.55c-0.7,0.15-1.26,0.55-1.71,1.15c-0.75,0.95-1.21,2.06-1.41,3.21
					c-0.6,2.76,0.2,9.62,0.2,12.08c0.05,1.51,0,2.96,0,4.47c0,1.86,0.95,2.96,2.36,3.61c0.75,0.35,1.56,0.5,2.36,0.6
					c0.65,0.1,1.31,0.05,1.76-0.45c1-1.05,1.81-2.21,1.96-3.71c0.2-2.26,0.75-4.47,0.55-6.78c-0.05-0.15-0.05-0.35-0.05-0.55
					C495.76,171.95,495.66,167.3,495.61,166.2z"/>
				<path class="st1" d="M504.29,186.2c0,0.35-0.2,0.7-0.4,1c-0.2,0.15-0.55,0.25-0.85,0.25c-0.3,0-0.5-0.35-0.5-0.65
					c-0.05-0.4,0-0.85,0-1.31c0.05-2.21,0.35-6.34,0.1-9.25c-0.1-1.46,0.3-2.91,0.3-4.37c0.1-2.51,0.05-7.59,0.05-7.59
					c0-1.31,0-2.66-0.35-3.97c-0.1-0.3-0.15-0.65-0.15-0.95c-0.05-0.5,0.25-0.85,0.7-0.85c1.15,0.05,2.21,0.25,3.21,0.8
					c1.31,0.9,2.71,1.71,3.61,3.16c0.75,1.15,1.26,2.36,1.41,3.66c0.35,4.07,0.4,2.12,0.35,6.24c0,1.51-0.8,2.76-1.61,3.97
					c-0.35,0.6-0.9,1.05-1.36,1.51c-1.1,1.05-2.16,2.11-3.26,3.11l-1.21,0.95C504.34,181.92,504.34,184.4,504.29,186.2z
					 M504.54,160.52c-0.05,0.4-0.1,0.7-0.05,1c0.1,1.66,0.15,3.41,0.05,5.12c-0.15,1.96,0.2,3.98-0.15,5.99
					c-0.35,1.96-0.2,3.97,0,5.82c0.05,0.3-0.05,0.75,0.45,0.8c1.56-1.31,3.06-2.66,4.32-4.32c0.5-0.65,0.85-1.46,0.9-2.31
					c0.1-1.66-0.1-3.48-0.15-4.63c-0.05-1.86-0.5-3.51-1.51-5.02C507.46,161.63,506.15,160.98,504.54,160.52z"/>
				<path class="st1" d="M515.69,179.13c0.2-0.2,0.35-0.35,0.55-0.4c0.55-0.2,1,0.05,1.1,0.55c0.05,0.5,0,1,0,1.46
					c-0.1,1.15-0.15,2.36,0.2,3.46c0.81,2.78,4.85,1.9,5.93-0.18c0.72-1.4-0.05-3.87-0.49-5.25c-0.58-1.83-1.45-3.56-2.33-5.27
					c-1.19-2.31-2.39-4.63-3.58-6.94c-1.1-2.13-1.05-3.84-0.22-6.13c0.4-1.1,1.41-1.71,2.56-1.91c0.9-0.15,1.86-0.2,2.71-0.05
					c1.41,0.2,2.46,1.21,3.06,2.41c0.6,1.15,0.8,2.41,0.6,3.77c-0.05,0.35-0.2,0.7-0.65,0.75c-0.45,0.05-0.9-0.2-1-0.65
					c-0.1-0.45-0.1-0.95-0.1-1.41c0-1.36-0.5-2.36-1.71-3.01c-1.61-0.85-3.61-0.1-4.12,1.61c0,0.87-0.45,1.75-0.24,2.65
					c0.23,0.99,0.99,2.03,1.45,2.94c1.01,1.98,2.01,3.96,3.02,5.94c0.95,1.87,1.91,3.76,2.41,5.8c0.52,2.11,0.79,5.45-1.17,6.9
					c-0.45,0.35-0.95,0.6-1.41,0.9c-1.31,1.05-2.71,0.85-4.07,0.15c-0.3-0.1-0.55-0.3-0.8-0.4c-1-0.4-1.46-1.15-1.61-2.11
					c-0.1-1.05-0.2-2.06-0.25-3.11C515.54,180.78,515.64,179.98,515.69,179.13z"/>
				<path class="st1" d="M530.95,184.35c0.8-0.05,1.31,0.3,1.36,0.9c0.1,0.85-0.55,1.71-1.25,1.71c-0.6,0-1.41-0.85-1.46-1.46
					C529.59,184.9,530.19,184.35,530.95,184.35z"/>
				<path class="st1" d="M538.17,184.35c0.8-0.05,1.31,0.3,1.36,0.9c0.1,0.85-0.55,1.71-1.26,1.71c-0.6,0-1.41-0.85-1.46-1.46
					C536.82,184.9,537.42,184.35,538.17,184.35z"/>
				<path class="st1" d="M545.4,184.35c0.8-0.05,1.31,0.3,1.36,0.9c0.1,0.85-0.55,1.71-1.25,1.71c-0.6,0-1.41-0.85-1.46-1.46
					C544.05,184.9,544.65,184.35,545.4,184.35z"/>
				<path class="st1" d="M482.45,256.62c0.68-4.36,1.26-8.81,0.78-13.27c-0.58-6.1-0.1-12.2,0.68-18.31v-0.78
					c0.19-0.97,0.78-1.55,1.65-1.55c0.78,0.1,1.36,0.68,1.36,1.74c-0.1,1.45-0.19,2.81-0.39,4.26c-0.58,4.16-0.77,8.43-0.48,12.69
					c0.29,3.58,0,7.07-0.1,10.65c0,1.74-0.29,3.49,0.1,5.33c0.1,0.29,0,0.68,0,1.07c-0.19,4.46,0,8.91,0,13.37
					c0,1.16-0.29,2.32-0.68,3.49c-0.19,0.68-0.87,1.07-1.74,0.77c-0.68-0.19-1.26-0.58-1.26-1.45c0.1-3.49,0.19-7.07,0.29-10.56
					v-3.39c-0.68-0.19-1.26-0.58-1.94-0.68c-3.29-0.48-6.59-0.77-9.88-0.1c-1.84,0.29-3.58-0.1-5.23-0.58
					c-1.65-0.58-1.94-1.94-1.16-3.39c0.77-1.55,1.74-3.1,2.23-4.84c1.45-4.84,2.91-9.69,4.07-14.63c0.68-2.62,0.68-5.42,1.07-8.14
					c0.48-3.1,1.16-6.2,1.65-9.39c0.77-4.65,1.36-9.4,2.13-14.04c0.39-2.13,1.07-4.36,1.65-6.49c0.1-0.48,0.29-0.97,0.58-1.26
					c0.29-0.29,0.87-0.68,1.16-0.58c0.48,0.1,1.07,0.48,1.36,0.97c0.19,0.29,0.29,0.97,0.1,1.26c-2.13,5.04-2.42,10.36-3.39,15.59
					l-2.61,15.01c-0.1,0.58-0.29,1.16-0.29,1.74c-0.1,4.75-1.36,9.3-2.71,13.85c-1.26,3.68-2.23,7.36-3.49,11.62H482.45z"/>
				<path class="st1" d="M520.81,255.36c-0.19,4.84-0.68,9.49-1.84,14.14c-1.16,4.55-5.33,8.04-9.59,7.65
					c-3.29-0.39-6.3-1.36-8.81-3.78c-1.94-1.84-3-3.87-3-6.68v-9.88c-0.29-5.71-0.48-12.59-0.87-19.37
					c-0.1-3.29-0.39-6.59-0.58-9.88c0-0.68-0.1-1.45-0.19-2.13c-0.1-1.36-0.39-2.71-0.29-3.97c0.39-3.68,0.77-7.26,1.36-10.94
					c0.58-3.2,2.03-5.91,3.58-8.43c0.97-1.55,2.32-2.42,3.68-3.1c0.48-0.19,1.07,0,1.26-0.39c1.45-1.74,3-1.07,4.65-0.58
					c1.94,0.58,3.78,1.26,5.52,2.32c3.39,2.23,4.84,5.62,4.94,9.69c0.19,7.36,0.19,14.63,0.19,21.89
					C520.9,239.77,521,247.61,520.81,255.36z M499.11,226.88c0.1,0.68,0,1.45,0.1,2.13c0.19,4.65,0.48,9.3,0.78,13.95
					c0.19,4.65,0.58,9.2,0.58,13.95c0.1,1.94,0,3.87,0,5.91l0.97-4.55c0.68-3.68,1.74-7.26,3-10.85c1.65-5.81,3.29-11.62,4.16-17.72
					c0.77-4.55,1.94-9.01,2.81-13.66c0.68-4.16,1.94-8.43,2.03-12.98v-0.19c-1.07-0.68-2.23-1.16-3.29-1.74
					c-0.39-0.19-0.87-0.1-1.26,0c-0.97,0.29-1.94,0.78-2.81,1.07c-1.36,0.29-2.42,1.07-3.29,2.23c-1.45,1.84-2.32,3.97-2.71,6.2
					C499.01,215.94,498.05,221.36,499.11,226.88z M517.8,251.48c0-4.26,0.58-8.52,0-12.78v-1.45c0-1.65,0-3.39,0-5.13v-3.29
					c0.1-3.1,0.19-6.3,0.1-9.49c0-1.94-0.29-4.07-0.29-6.2c0-1.16-0.1-2.42-0.1-3.58c0-1.45-0.29-2.61-0.87-3.68l-0.29,1.55
					c-0.97,4.55-1.84,9.2-2.81,13.95c-1.36,6.39-2.52,12.69-3.97,18.89c-1.07,4.36-2.52,8.72-3.68,13.08
					c-0.48,2.03-0.87,3.97-1.26,6.01c-0.58,2.71-1.07,5.42-1.45,8.23c-0.1,0.58-0.39,1.26-0.58,1.84c-0.1,0.39-0.29,0.68-0.58,0.77
					c0.77,0.97,1.84,1.74,3.1,2.32c1.45,0.68,3,0.97,4.55,1.16c1.26,0.19,2.52,0.1,3.39-0.87c1.94-2.03,3.49-4.26,3.78-7.17
					c0.39-4.36,1.45-8.62,1.07-13.08C517.8,252.26,517.8,251.87,517.8,251.48z"/>
				<path class="st1" d="M546.09,256.62c0.68-4.36,1.26-8.81,0.78-13.27c-0.58-6.1-0.1-12.2,0.68-18.31v-0.78
					c0.19-0.97,0.78-1.55,1.65-1.55c0.78,0.1,1.36,0.68,1.36,1.74c-0.1,1.45-0.19,2.81-0.39,4.26c-0.58,4.16-0.77,8.43-0.48,12.69
					c0.29,3.58,0,7.07-0.1,10.65c0,1.74-0.29,3.49,0.1,5.33c0.1,0.29,0,0.68,0,1.07c-0.19,4.46,0,8.91,0,13.37
					c0,1.16-0.29,2.32-0.68,3.49c-0.19,0.68-0.87,1.07-1.74,0.77c-0.68-0.19-1.26-0.58-1.26-1.45c0.1-3.49,0.19-7.07,0.29-10.56
					v-3.39c-0.68-0.19-1.26-0.58-1.94-0.68c-3.29-0.48-6.59-0.77-9.88-0.1c-1.84,0.29-3.58-0.1-5.23-0.58
					c-1.65-0.58-1.94-1.94-1.16-3.39c0.77-1.55,1.74-3.1,2.23-4.84c1.45-4.84,2.91-9.69,4.07-14.63c0.68-2.62,0.68-5.42,1.07-8.14
					c0.48-3.1,1.16-6.2,1.65-9.39c0.77-4.65,1.36-9.4,2.13-14.04c0.39-2.13,1.07-4.36,1.65-6.49c0.1-0.48,0.29-0.97,0.58-1.26
					c0.29-0.29,0.87-0.68,1.16-0.58c0.48,0.1,1.07,0.48,1.36,0.97c0.19,0.29,0.29,0.97,0.1,1.26c-2.13,5.04-2.42,10.36-3.39,15.59
					l-2.61,15.01c-0.1,0.58-0.29,1.16-0.29,1.74c-0.1,4.75-1.36,9.3-2.71,13.85c-1.26,3.68-2.23,7.36-3.49,11.62H546.09z"/>
				<path class="st1" d="M467.49,331.08c0.74-0.06,1.37-0.11,2.11-0.23c0.17,0,0.34,0,0.51-0.06h0.91c0.11,0,0.23,0,0.34,0h0.74
					c0.63,0,1.26,0,2-0.23c0.29-0.06,0.57-0.06,0.86-0.17h0.17c0.06,0,0.06,0,0.11,0c0.57,0,0.91,0.4,0.97,0.8
					c0.06,0.4,0,0.97-0.23,1.31c-0.11,0.28-0.46,0.74-0.97,0.74c-0.11,0-0.23-0.06-0.4-0.11c-0.17-0.11-0.34-0.11-0.51-0.11
					c-0.29,0-0.57,0.06-0.86,0.11l-0.06,0.06c-0.06,0-0.11,0-0.17,0.06c-0.17,0.06-0.34,0.11-0.51,0.11c-0.06,0-0.11,0-0.11-0.06
					c-0.34-0.06-0.74-0.06-1.14-0.06c-0.63,0-1.2,0.06-1.83,0.11c-0.63,0.06-1.2,0.11-1.77,0.11h-0.29c-0.57,0-1.26-0.06-2.05-0.17
					c-0.46-0.06-0.91-0.8-0.91-1.37v-0.28c0-0.06,0.06-0.11,0.06-0.17c0.28-2.28,0.28-4.62,0.23-7.19c0-0.57,0.06-1.08,0.11-1.66
					l0.11-1.14c0-0.51,0-0.97,0-1.43c0.06-2.11,0.17-4.22,0.34-6.28c0.11-1.26,0.06-2.45-0.06-3.6c-0.23-3.88-0.17-7.88-0.11-11.7
					v-1.31c0-1.66-0.06-3.42-0.17-5.02c-0.06-0.69-0.06-1.37-0.11-2.06c0-0.11,0-0.29-0.06-0.46c0-0.34-0.06-0.69-0.06-0.97
					c0.06-0.34,0.46-0.97,0.8-0.97h0.06c0.4,0,0.74-0.06,1.2-0.17c0.46,0,0.91-0.06,1.37-0.06h0.57c1.03,0.11,2.17,0.17,3.2,0.17
					c0.46,0.06,1.03,0.06,1.48,0.06h0.29c0.34,0.06,0.63,0.06,0.91,0.11c0.34,0.06,0.51,0.28,0.69,0.57
					c0.17,0.23,0.23,0.57,0.17,0.8c-0.17,0.69-0.57,1.03-1.03,1.03h-0.29c-0.86-0.29-1.77-0.4-2.91-0.4h-1.37
					c-0.51,0.06-1.08,0.06-1.66,0c-0.17,0-0.29-0.06-0.34-0.06c-0.4,0-0.68,0.11-0.91,0.28v1.14c0,0.91,0,1.88,0,2.91v2.4
					c0,0.63,0,1.2-0.06,1.88v0.11v4.11c0,0.91,0,1.94,0.06,2.91v1.08c0.4,0,0.8,0,1.14-0.06c1.14-0.11,2.28-0.23,3.37-0.29
					c0.11,0,0.23,0,0.4-0.06c0.23,0,0.46-0.06,0.63-0.06c0.34,0,0.8,0.06,1.26,0.51l0.11,0.11v0.11c-0.17,1.14-0.34,2-1.31,2
					c-0.17,0-0.4-0.06-0.74-0.11c-0.46-0.11-1.08-0.17-1.71-0.17c-0.97,0-1.94,0.17-3.14,0.51c0,0.06,0,0.11,0,0.17
					c0.4,2.63,0.23,5.14,0,7.71c-0.11,1.48-0.17,3.02-0.17,4.68v6.68c0,0.97,0,1.88,0,2.74H467.49z"/>
				<path class="st1" d="M485.36,313.44c-0.68,0.46-0.74,1.03-0.68,1.6c0.17,2.17,0,4.34-0.23,6.45c-0.06,0.57-0.11,1.14,0,1.65
					c0.51,2.91-0.06,5.82,0,8.73c0,0.28,0,0.63-0.11,0.86c-0.06,0.34-0.29,0.74-0.51,1.03c-0.17,0.17-0.46,0.06-1.37-0.51
					c0.06-1.03,0.17-2.11,0.23-3.2c0.11-2.11,0.23-4.17,0.06-6.28c-0.11-1.94,0.11-3.88,0.17-5.82c0.17-3.6,0.34-7.14,0.4-10.67
					c0.06-3.31,0-6.68,0-9.99c0-0.8-0.06-1.54-0.06-2.34c0.06-1.94,0.11-3.88-0.4-5.77c-0.4-1.26,0.34-1.71,1.31-1.83
					c0.57,0,1.26,0.17,1.88,0.4c0.74,0.34,1.37,0.8,2.05,1.2c2.68,1.71,3.94,4.39,4.51,7.48c0.51,2.91,0.63,5.82-0.17,8.73
					c-0.4,1.43-1.08,2.46-2.23,3.31c-1.03,0.8-2.05,1.71-2.97,2.51c-0.23,1.54,0.23,2.74,0.74,4c1.08,2.68,2.17,5.37,3.31,8.05
					c0.23,0.57,0.4,1.14,0.57,1.77c0.57,2.4,1.48,4.74,2.63,6.91c0.23,0.34,0.34,0.74,0.51,1.14c0.17,0.34,0.06,0.51-0.46,1.37
					c-0.8-0.11-1.37-0.57-1.71-1.37c-1.08-2.63-2.11-5.25-2.85-7.99c-0.86-3.03-2.11-5.88-3.42-8.68
					C486.15,315.33,485.81,314.47,485.36,313.44z M484.73,289.41c0.17,3.54,0.34,7.02,0.4,10.45c0,3.48-0.11,6.91-0.17,10.45
					c0.28-0.11,0.51-0.11,0.68-0.23c1.26-1.03,2.4-2.05,3.65-3.08c0.91-0.74,1.31-1.66,1.54-2.8c0.4-2.51,0.4-4.97,0-7.48
					c-0.23-1.54-0.8-2.91-1.54-4.22C488.32,290.73,486.84,289.7,484.73,289.41z"/>
				<path class="st1" d="M501.91,313.44c-0.68,0.46-0.74,1.03-0.68,1.6c0.17,2.17,0,4.34-0.23,6.45c-0.06,0.57-0.11,1.14,0,1.65
					c0.51,2.91-0.06,5.82,0,8.73c0,0.28,0,0.63-0.11,0.86c-0.06,0.34-0.28,0.74-0.51,1.03c-0.17,0.17-0.46,0.06-1.37-0.51
					c0.06-1.03,0.17-2.11,0.23-3.2c0.11-2.11,0.23-4.17,0.06-6.28c-0.11-1.94,0.11-3.88,0.17-5.82c0.17-3.6,0.34-7.14,0.4-10.67
					c0.06-3.31,0-6.68,0-9.99c0-0.8-0.06-1.54-0.06-2.34c0.06-1.94,0.11-3.88-0.4-5.77c-0.4-1.26,0.34-1.71,1.31-1.83
					c0.57,0,1.26,0.17,1.88,0.4c0.74,0.34,1.37,0.8,2.05,1.2c2.68,1.71,3.94,4.39,4.51,7.48c0.51,2.91,0.63,5.82-0.17,8.73
					c-0.4,1.43-1.08,2.46-2.23,3.31c-1.03,0.8-2.05,1.71-2.97,2.51c-0.23,1.54,0.23,2.74,0.74,4c1.08,2.68,2.17,5.37,3.31,8.05
					c0.23,0.57,0.4,1.14,0.57,1.77c0.57,2.4,1.48,4.74,2.63,6.91c0.23,0.34,0.34,0.74,0.51,1.14c0.17,0.34,0.06,0.51-0.46,1.37
					c-0.8-0.11-1.37-0.57-1.71-1.37c-1.08-2.63-2.11-5.25-2.85-7.99c-0.86-3.03-2.11-5.88-3.42-8.68
					C502.71,315.33,502.36,314.47,501.91,313.44z M501.28,289.41c0.17,3.54,0.34,7.02,0.4,10.45c0,3.48-0.11,6.91-0.17,10.45
					c0.28-0.11,0.51-0.11,0.68-0.23c1.26-1.03,2.4-2.05,3.65-3.08c0.91-0.74,1.31-1.66,1.54-2.8c0.4-2.51,0.4-4.97,0-7.48
					c-0.23-1.54-0.8-2.91-1.54-4.22C504.88,290.73,503.39,289.7,501.28,289.41z"/>
				<path class="st1" d="M515.55,322.06c-0.17-3.37-0.28-7.42-0.51-11.42c-0.06-1.94-0.23-3.88-0.34-5.82c0-0.4-0.06-0.86-0.11-1.26
					c-0.06-0.8-0.23-1.6-0.17-2.34c0.23-2.17,0.46-4.28,0.8-6.45c0.34-1.88,1.2-3.48,2.11-4.97c0.57-0.91,1.37-1.43,2.17-1.83
					c0.29-0.11,0.63,0,0.74-0.23c0.86-1.03,1.77-0.63,2.74-0.34c1.14,0.34,2.23,0.74,3.25,1.37c2,1.31,2.85,3.31,2.91,5.71
					c0.11,4.34,0.11,8.62,0.11,12.9c0.06,4.62,0.11,9.25,0,13.81c-0.11,2.85-0.4,5.59-1.08,8.33c-0.68,2.68-3.14,4.74-5.65,4.51
					c-1.94-0.23-3.71-0.8-5.19-2.23c-1.14-1.08-1.77-2.28-1.77-3.94V322.06z M527.31,296.32c0.06-0.69,0-1.43,0-2.11
					c0-1.54-0.63-2.63-1.71-3.48c-0.8-0.63-1.71-1.03-2.57-1.48c-0.23-0.11-0.51-0.06-0.74,0c-0.57,0.17-1.14,0.46-1.66,0.63
					c-0.8,0.17-1.43,0.63-1.94,1.31c-0.86,1.08-1.37,2.34-1.6,3.65c-0.69,3.14-1.26,6.34-0.63,9.59c0.06,0.4,0,0.86,0.06,1.26
					c0.11,2.74,0.29,5.48,0.46,8.22c0.11,2.74,0.34,5.42,0.34,8.22c0.06,1.71,0,3.37,0,5.08c0,2.11,1.08,3.37,2.68,4.11
					c0.86,0.4,1.77,0.57,2.68,0.69c0.74,0.11,1.48,0.06,2-0.51c1.14-1.2,2.05-2.51,2.23-4.22c0.23-2.57,0.86-5.08,0.63-7.71
					c-0.06-0.17-0.06-0.4-0.06-0.63c0-2.51,0.34-5.02,0-7.53v-0.86c0-0.97,0-2,0-3.03v-1.94c0.06-1.83,0.11-3.71,0.06-5.59
					C527.53,298.83,527.36,297.58,527.31,296.32z"/>
				<path class="st1" d="M538.61,313.44c-0.68,0.46-0.74,1.03-0.68,1.6c0.17,2.17,0,4.34-0.23,6.45c-0.06,0.57-0.11,1.14,0,1.65
					c0.51,2.91-0.06,5.82,0,8.73c0,0.28,0,0.63-0.11,0.86c-0.06,0.34-0.29,0.74-0.51,1.03c-0.17,0.17-0.46,0.06-1.37-0.51
					c0.06-1.03,0.17-2.11,0.23-3.2c0.11-2.11,0.23-4.17,0.06-6.28c-0.11-1.94,0.11-3.88,0.17-5.82c0.17-3.6,0.34-7.14,0.4-10.67
					c0.06-3.31,0-6.68,0-9.99c0-0.8-0.06-1.54-0.06-2.34c0.06-1.94,0.11-3.88-0.4-5.77c-0.4-1.26,0.34-1.71,1.31-1.83
					c0.57,0,1.26,0.17,1.88,0.4c0.74,0.34,1.37,0.8,2.05,1.2c2.68,1.71,3.94,4.39,4.51,7.48c0.51,2.91,0.63,5.82-0.17,8.73
					c-0.4,1.43-1.08,2.46-2.23,3.31c-1.03,0.8-2.05,1.71-2.97,2.51c-0.23,1.54,0.23,2.74,0.74,4c1.08,2.68,2.17,5.37,3.31,8.05
					c0.23,0.57,0.4,1.14,0.57,1.77c0.57,2.4,1.48,4.74,2.63,6.91c0.23,0.34,0.34,0.74,0.51,1.14c0.17,0.34,0.06,0.51-0.46,1.37
					c-0.8-0.11-1.37-0.57-1.71-1.37c-1.08-2.63-2.11-5.25-2.85-7.99c-0.86-3.03-2.11-5.88-3.42-8.68
					C539.4,315.33,539.06,314.47,538.61,313.44z M537.98,289.41c0.17,3.54,0.34,7.02,0.4,10.45c0,3.48-0.11,6.91-0.17,10.45
					c0.28-0.11,0.51-0.11,0.68-0.23c1.26-1.03,2.4-2.05,3.65-3.08c0.91-0.74,1.31-1.66,1.54-2.8c0.4-2.51,0.4-4.97,0-7.48
					c-0.23-1.54-0.8-2.91-1.54-4.22C541.57,290.73,540.09,289.7,537.98,289.41z"/>
			</g>
		</g>
	</g>
</g>
<path class="st1" d="M194.7,379.49c-0.68-0.02-1.36-0.04-2.04-0.06c-0.7-0.02-0.68,0.97,0.02,0.95c0.68-0.02,1.36-0.04,2.04-0.06
	C195.19,380.3,195.17,379.5,194.7,379.49z"/>
<path class="st1" d="M274.63,528.89c-0.68-0.01-1.36-0.03-2.04-0.04c-0.82-0.02-0.94,1.27-0.14,1.26c0.68-0.01,1.37-0.03,2.05-0.04
	C275.24,530.05,275.41,528.91,274.63,528.89z"/>
<path class="st1" d="M258.23,664.23c-0.62,0-0.74,0.97-0.11,0.97C258.74,665.2,258.86,664.23,258.23,664.23z"/>
<path class="st2" d="M497.97,752.29c-0.68,0-0.81,1.07-0.12,1.07C498.53,753.35,498.66,752.29,497.97,752.29z"/>
<path class="st1" d="M821.71,701.07c-0.67,0-0.8,1.05-0.12,1.05C822.26,702.12,822.39,701.07,821.71,701.07z"/>
<path class="st1" d="M1004.09,426.36c-0.86,0-1.02,1.34-0.15,1.34C1004.79,427.7,1004.95,426.36,1004.09,426.36z"/>
<path class="st3" d="M977.26,295.16c-0.68,0.02-1.36,0.04-2.04,0.06c-0.78,0.02-0.74,1.34,0.03,1.36c0.68,0.02,1.36,0.04,2.04,0.06
	C978.37,296.66,978.34,295.13,977.26,295.16z"/>
<path class="st1" d="M1083.99,317.8c-0.81,0-0.95,1.26-0.14,1.26C1084.66,319.06,1084.81,317.8,1083.99,317.8z"/>
<path class="st1" d="M1215.12,272.77c-0.75,0-0.88,1.16-0.13,1.16C1215.74,273.93,1215.87,272.77,1215.12,272.77z"/>
<path class="st2" d="M1188.48,139.68c-0.63,0-0.75,0.99-0.11,0.99C1189,140.66,1189.11,139.68,1188.48,139.68z"/>
<path class="st1" d="M793.09,34.52c-1.48,0-1.75,2.31-0.26,2.31C794.32,36.82,794.59,34.52,793.09,34.52z"/>
<path class="st1" d="M875.18-15.81c-2.96,0-3.51,4.61-0.52,4.61C877.63-11.2,878.17-15.81,875.18-15.81z"/>
<path class="st1" d="M1184.59,16.89c-3.07,0-3.63,4.77-0.54,4.77C1187.12,21.66,1187.68,16.89,1184.59,16.89z"/>
<path class="st1" d="M1299.36,131.4c-3.37,0-3.99,5.25-0.59,5.25C1302.14,136.65,1302.76,131.4,1299.36,131.4z"/>
<path class="st3" d="M1162.05,295.56c-3.07,0-3.63,4.77-0.54,4.77C1164.58,300.33,1165.14,295.56,1162.05,295.56z"/>
<path class="st1" d="M1005.73,574.55c-0.68,0.04-1.35,0.08-2.03,0.12c-2.22,0.13-2.1,3.76,0.09,3.89c0.68,0.04,1.36,0.08,2.04,0.12
	c1.13,0.07,2.17-0.66,2.3-1.84C1008.29,575.39,1007.06,574.47,1005.73,574.55z"/>
<path class="st1" d="M1010.36,455.93l-2.02-0.24c-2.99-0.35-2.97,4.49,0.09,4.12c0.67-0.08,1.34-0.16,2.01-0.24
	C1012.54,459.33,1012.4,456.17,1010.36,455.93z"/>
<path class="st1" d="M1161.85,463.27c-0.82,0-0.97,1.27-0.14,1.27C1162.53,464.55,1162.68,463.27,1161.85,463.27z"/>
<path class="st2" d="M1192.67,472.8c-1.74,0-2.06,2.7-0.3,2.7C1194.1,475.51,1194.42,472.8,1192.67,472.8z"/>
<path class="st1" d="M1301.25,515.95c-1.58,0-1.87,2.47-0.28,2.47C1302.56,518.42,1302.85,515.95,1301.25,515.95z"/>
<path class="st2" d="M1274.78,635.41c-3.42,0-4.05,5.33-0.6,5.33C1277.6,640.74,1278.23,635.41,1274.78,635.41z"/>
<path class="st1" d="M1196.5,701.29c-0.17-2.23-3.72-2.09-3.89,0.09c-0.05,0.68-0.11,1.35-0.16,2.03c-0.09,1.15,0.69,2.21,1.87,2.35
	c1.45,0.16,2.44-1.08,2.33-2.44C1196.61,702.64,1196.56,701.96,1196.5,701.29z"/>
<path class="st1" d="M1112.83,765.13c-2.61,0-3.08,4.06-0.46,4.06C1114.99,769.19,1115.46,765.13,1112.83,765.13z"/>
<path class="st2" d="M1008.35,789.56c-1.41-0.16-2.66,1.12-2.42,2.53c0.11,0.67,0.14,1.34,0.2,2.02c0.18,2.27,3.79,2.13,3.97-0.09
	c0.05-0.68,0.09-1.36,0.2-2.03C1010.49,790.81,1009.5,789.69,1008.35,789.56z"/>
<path class="st1" d="M848.55,752.56c-2.96,0-3.51,4.61-0.52,4.61C850.99,757.18,851.53,752.56,848.55,752.56z"/>
<path class="st1" d="M404.86,696.95c-0.48-1.08-1.98-0.95-2.43,0.07c-0.33,0.75-0.37,1.53-0.44,2.34c-0.2,2.43,3.53,2.39,3.33-0.08
	C405.25,698.46,405.19,697.71,404.86,696.95z"/>
<path class="st1" d="M110.81,705.34c-0.15-2.54-4.29-2.4-4.44,0.1c-0.04,0.68-0.08,1.36-0.12,2.04c-0.08,1.28,0.75,2.46,2.08,2.61
	c1.64,0.18,2.68-1.21,2.6-2.72C110.89,706.7,110.85,706.02,110.81,705.34z"/>
<path class="st1" d="M115.12,794.6c-1.65-0.18-3.67,1.12-3.67,2.93v4.1c0,1.81,0.98,3.46,2.93,3.67c1.65,0.18,3.67-1.12,3.67-2.93
	v-4.1C118.05,796.46,117.06,794.81,115.12,794.6z"/>
<path class="st1" d="M319.99,815.32c-3.94,0-4.65,6.13-0.69,6.13C323.23,821.45,323.95,815.32,319.99,815.32z"/>
<path class="st1" d="M238,678.32c-3.58,0-4.23,5.57-0.63,5.57C240.95,683.89,241.6,678.32,238,678.32z"/>
<path class="st2" d="M86.28,533.68c-2.5,0-2.96,3.9-0.44,3.9C88.34,537.58,88.8,533.68,86.28,533.68z"/>
<path class="st2" d="M133.47,422.43c-3.27,0-3.87,5.09-0.57,5.09C136.17,427.53,136.77,422.43,133.47,422.43z"/>
<path class="st3" d="M174.28,276.42c-1.33,0-1.57,2.07-0.23,2.07C175.38,278.49,175.62,276.42,174.28,276.42z"/>
<path class="st3" d="M79.98,185.56c0.08,0.69,0.41,1.28,0.51,1.97c0.25,1.69,2.69,1.56,2.93-0.07c0.1-0.69,0.44-1.28,0.52-1.99
	C84.28,182.6,79.64,182.62,79.98,185.56z"/>
<path class="st2" d="M71.9-78.66c-2.1,0-2.48,3.26-0.37,3.26C73.63-75.39,74.01-78.66,71.9-78.66z"/>
<path class="st3" d="M219.47-54.43c-2.56,0-3.02,3.98-0.45,3.98C221.57-50.45,222.04-54.43,219.47-54.43z"/>
<path class="st3" d="M520.71-89.66c-3.07,0-3.63,4.77-0.54,4.77C523.24-84.88,523.8-89.66,520.71-89.66z"/>
<path class="st2" d="M565.69,60.84c-1.89,0-2.24,2.94-0.33,2.94C567.25,63.78,567.59,60.84,565.69,60.84z"/>
<path class="st1" d="M676.25,43.11c-0.97,0-1.15,1.51-0.17,1.51C677.06,44.62,677.23,43.11,676.25,43.11z"/>
<path class="st1" d="M682.57-71.1c-2.91,0-3.45,4.53-0.51,4.53C684.98-66.56,685.51-71.1,682.57-71.1z"/>
<path class="st1" d="M752.26,96.76c-3.12,0-3.69,4.85-0.55,4.85C754.83,101.62,755.4,96.76,752.26,96.76z"/>
<path class="st1" d="M775.87,205.52c-0.12-1.54-2.58-1.45-2.7,0.06c-0.05,0.68-0.11,1.35-0.16,2.03c-0.17,2.2,3.19,2.16,3.01-0.07
	C775.97,206.87,775.92,206.2,775.87,205.52z"/>
<path class="st1" d="M594.4,146.69c-2.15,0-2.54,3.34-0.38,3.34C596.17,150.04,596.56,146.69,594.4,146.69z"/>
<path class="st3" d="M897.62,224.83c-1.79,0-2.12,2.78-0.31,2.78C899.09,227.62,899.42,224.83,897.62,224.83z"/>
<path class="st1" d="M875.06,442.19c-1.58,0-1.87,2.47-0.28,2.47C876.37,444.65,876.66,442.19,875.06,442.19z"/>
<path class="st1" d="M782.98,660.36c-2.96,0-3.51,4.61-0.52,4.61C785.42,664.97,785.96,660.36,782.98,660.36z"/>
<path class="st3" d="M651.79,689.52c-0.22-0.02-0.44-0.04-0.66-0.06c-0.05-0.04-0.09-0.08-0.14-0.11c-1.47-1.2-3.73-0.04-3.92,1.73
	c-0.24,2.16,2.35,3.58,4.04,2.2c0.01-0.01,0.02-0.02,0.04-0.03c0.24-0.02,0.49-0.05,0.73-0.07
	C653.96,692.96,653.83,689.72,651.79,689.52z"/>
<path class="st1" d="M770.61,794.18c-2.15,0-2.54,3.34-0.38,3.34C772.38,797.52,772.77,794.18,770.61,794.18z"/>
<path class="st1" d="M881.24,837.33c-1.99,0-2.36,3.1-0.35,3.1C882.89,840.43,883.25,837.33,881.24,837.33z"/>
<path class="st1" d="M659.95,833.27c-1.94,0-2.3,3.02-0.34,3.02C661.55,836.29,661.9,833.27,659.95,833.27z"/>
<path class="st1" d="M555.42,831.46c-1.64,0-1.93,2.55-0.29,2.55C556.77,834,557.07,831.46,555.42,831.46z"/>
<path class="st1" d="M315.24,486.17c-0.12-1.99-3.37-1.88-3.49,0.08c-0.04,0.68-0.08,1.36-0.12,2.04c-0.16,2.72,3.89,2.66,3.73-0.08
	C315.32,487.53,315.28,486.85,315.24,486.17z"/>
<path class="st3" d="M901.78,834.88c-2.5,0-2.96,3.9-0.44,3.9C903.84,838.78,904.3,834.88,901.78,834.88z"/>
<path class="st2" d="M1078.02,697.36c-2.81,0-3.32,4.38-0.49,4.38C1080.34,701.73,1080.85,697.36,1078.02,697.36z"/>
<path class="st1" d="M870.95,532.42c-1.48,0-1.75,2.31-0.26,2.31C872.18,534.73,872.45,532.42,870.95,532.42z"/>
<path class="st2" d="M891.54,314.35c-2.61,0-3.08,4.06-0.46,4.06C893.69,318.41,894.17,314.35,891.54,314.35z"/>
<path class="st1" d="M1137.4,185.43c-2.4,0-2.84,3.74-0.42,3.74C1139.39,189.17,1139.83,185.43,1137.4,185.43z"/>
<path class="st2" d="M1243.93,64.73c-2.15,0-2.54,3.34-0.38,3.34C1245.7,68.08,1246.09,64.73,1243.93,64.73z"/>
<path class="st1" d="M1010.45-24.33c-3.37,0-3.99,5.25-0.59,5.25C1013.23-19.08,1013.85-24.33,1010.45-24.33z"/>
<path class="st1" d="M813.57-88.3c-1.33,0-1.57,2.07-0.23,2.07C814.67-86.24,814.91-88.3,813.57-88.3z"/>
<path class="st1" d="M580.1-75.04c-2.71,0-3.2,4.22-0.47,4.22C582.34-70.82,582.83-75.04,580.1-75.04z"/>
<path class="st1" d="M125.23,250.76c-2.71,0-3.2,4.22-0.47,4.22C127.46,254.97,127.96,250.76,125.23,250.76z"/>
<path class="st1" d="M57.02,375.53c-0.21-0.75-0.68-1.35-1.51-1.44c-0.71-0.08-1.59,0.35-1.8,1.09c-0.23,0.84-0.27,1.59-0.27,2.46
	c0,1.02,0.56,1.96,1.66,2.08c0.93,0.1,2.08-0.63,2.08-1.66C57.19,377.21,57.25,376.36,57.02,375.53z"/>
<path class="st2" d="M47.4,797.48c-3.17,0-3.75,4.93-0.55,4.93C50.02,802.41,50.6,797.48,47.4,797.48z"/>
<path class="st1" d="M233.43,847.58c-0.67-0.69-1.35-1.38-2.02-2.07c-0.94-0.97-2.38-1.26-3.49-0.35c-0.96,0.78-1.32,2.55-0.35,3.49
	c0.69,0.67,1.39,1.35,2.08,2.02c0.95,0.93,2.32,1.26,3.44,0.34C234.05,850.22,234.36,848.53,233.43,847.58z"/>
<path class="st1" d="M295.25,740.82c-2.25,0-2.66,3.5-0.39,3.5C297.11,744.33,297.52,740.82,295.25,740.82z"/>
<path class="st1" d="M235.89,590.73c-2.91,0-3.45,4.53-0.51,4.53C238.29,595.27,238.83,590.73,235.89,590.73z"/>
<path class="st3" d="M164.49,651.91c-0.68,1.36-1.36,2.72-2.04,4.08c-0.97,1.95,2.24,3.7,3.34,1.83c0.77-1.31,1.54-2.62,2.32-3.93
	C169.64,651.29,165.83,649.22,164.49,651.91z"/>
<path class="st2" d="M227.67,451.64c-2.61,0-3.08,4.06-0.46,4.06C229.82,455.69,230.29,451.64,227.67,451.64z"/>
<path class="st1" d="M237.92,342.96c-2.71,0-3.2,4.22-0.47,4.22C240.16,347.18,240.65,342.96,237.92,342.96z"/>
<path class="st1" d="M65.78,226.37c-2.45,0-2.9,3.82-0.43,3.82C67.81,230.19,68.25,226.37,65.78,226.37z"/>
<path class="st2" d="M180.03,116.18c-0.75-0.91-2.31-1.18-3.21-0.32c-0.7,0.66-1.4,1.32-2.1,1.99c-0.93,0.88-1.19,2.27-0.33,3.32
	c0.74,0.9,2.44,1.27,3.32,0.33c0.67-0.7,1.33-1.41,2-2.11C180.56,118.49,180.89,117.24,180.03,116.18z"/>
<path class="st3" d="M865,53.26c-2.42-0.27-3.63,2.07-2.99,4.11c0.12,0.37,0.16,0.83,0.25,1.22c0.62,2.8,4.25,2.55,4.84-0.11
	c0.09-0.42,0.17-0.85,0.3-1.26C867.97,55.44,866.97,53.48,865,53.26z"/>
<path class="st2" d="M920.26,564.01c-3.02,0-3.57,4.69-0.53,4.69C922.75,568.71,923.3,564.01,920.26,564.01z"/>
<path class="st1" d="M1086.24,502.5c-3.07,0-3.63,4.77-0.54,4.77C1088.77,507.28,1089.33,502.5,1086.24,502.5z"/>
<path class="st1" d="M1293.19,856.94c-1.7-0.19-2.77,1.25-2.68,2.81c0.04,0.68,0.08,1.35,0.12,2.03c0.15,2.63,4.45,2.48,4.6-0.1
	c0.04-0.68,0.08-1.36,0.12-2.04C1295.42,858.31,1294.57,857.1,1293.19,856.94z"/>
<path class="st2" d="M1188.72,840.31c-3.42,0-4.05,5.33-0.6,5.33C1191.54,845.64,1192.17,840.31,1188.72,840.31z"/>
<path class="st1" d="M1330.08,785.15c-3.22,0-3.81,5.01-0.56,5.01C1332.74,790.16,1333.33,785.15,1330.08,785.15z"/>
<path class="st1" d="M1297.13,227.28c-1.28,0-1.51,1.99-0.22,1.99C1298.18,229.27,1298.42,227.28,1297.13,227.28z"/>
<path class="st3" d="M1289.05,332.8l-2.05,0.04c-1.09,0.02-2.08,0.58-2.21,1.77c-0.11,1.01,0.67,2.19,1.77,2.21
	c0.68,0.01,1.36,0.03,2.04,0.04c1.11,0.02,2.12-0.62,2.26-1.8C1290.96,334.06,1290.16,332.77,1289.05,332.8z"/>
<path class="st3" d="M1342.3,341.23c-2.3,0-2.72,3.58-0.4,3.58C1344.19,344.81,1344.61,341.23,1342.3,341.23z"/>
<path class="st3" d="M1307.57-5.97c-3.48,0-4.11,5.41-0.61,5.41C1310.43-0.56,1311.07-5.97,1307.57-5.97z"/>
<path class="st1" d="M1245.88-80.82c-1.19-1.45-3.23-1.22-4.37,0.13c-0.62,0.73-1.24,1.46-1.85,2.19c-1.88,2.21,1.48,5.26,3.64,3.43
	c0.73-0.62,1.47-1.24,2.2-1.86C1246.64-77.91,1246.85-79.65,1245.88-80.82z"/>
<path class="st1" d="M1319.16-83.65c-0.66,0.13-1.32,0.26-1.99,0.4c-2.47,0.49-2.27,3.81,0.1,4.28c0.67,0.13,1.34,0.27,2,0.4
	c1.37,0.27,2.69-0.96,2.83-2.26C1322.28-82.44,1320.8-83.98,1319.16-83.65z"/>
<path class="st3" d="M1239.97,18.46c-3.68,0-4.35,5.73-0.64,5.73C1243,24.19,1243.67,18.46,1239.97,18.46z"/>
<path class="st2" d="M742.03-85.8c-3.37,0-3.99,5.25-0.59,5.25C744.82-80.55,745.43-85.8,742.03-85.8z"/>
<path class="st1" d="M330.21-100.38c-1.4-0.16-3.22,0.97-3.19,2.54l0.04,2.05c0.03,1.55,0.82,2.95,2.51,3.14
	c1.43,0.16,3.11-0.96,3.14-2.51c0.01-0.68,0.03-1.36,0.04-2.04C332.78-98.76,331.88-100.19,330.21-100.38z"/>
<path class="st1" d="M428.55-63.42c-1.94-0.22-3.2,1.43-3.08,3.22c0.05,0.71,0.39,1.29,0.51,1.97c0.49,2.61,4.05,2.4,4.52-0.1
	c0.13-0.69,0.47-1.26,0.52-1.99C431.13-61.84,430.12-63.24,428.55-63.42z"/>
<path class="st1" d="M395.75-106.29c-3.37,0-3.99,5.25-0.59,5.25C398.53-101.04,399.15-106.29,395.75-106.29z"/>
<path class="st1" d="M221.6-6.01c-0.68,0.01-1.37,0.03-2.05,0.04c-1.48,0.03-2.83,0.78-3.01,2.4c-0.15,1.37,0.92,2.98,2.4,3.01
	c0.68,0.01,1.36,0.03,2.04,0.04c1.5,0.03,2.87-0.84,3.05-2.44C224.19-4.3,223.11-6.03,221.6-6.01z"/>
<path class="st1" d="M26.13-86.93c-0.07-0.04-0.13-0.09-0.2-0.13c-0.93-0.61-1.89-0.52-2.79,0.08c-0.07,0.05-0.14,0.1-0.22,0.14
	c-0.69,0.46-1.15,1.64-0.93,2.44c0.19,0.71,0.42,1.41,0.66,2.11c0.59,1.75,3.35,1.54,3.91-0.11c0.16-0.48,0.34-0.96,0.47-1.46
	C27.33-84.97,27.19-86.24,26.13-86.93z"/>
<path class="st3" d="M45.03,703.98c0.07,0.67,0.13,1.35,0.2,2.02c0.21,2.19,3.6,2.04,3.81-0.09c0.07-0.68,0.13-1.35,0.2-2.03
	C49.53,700.83,44.73,700.86,45.03,703.98z"/>
<path class="st1" d="M69.83,859.02c-0.28-0.98-0.88-1.76-1.96-1.88c-0.93-0.1-2.06,0.46-2.34,1.41c-0.26,0.9-0.34,1.66-0.34,2.59
	c0,1.33,0.72,2.54,2.15,2.7c1.21,0.14,2.7-0.82,2.7-2.15C70.04,860.78,70.09,859.9,69.83,859.02z"/>
<path class="st1" d="M446.97,858.83c-3.32,0-3.93,5.17-0.58,5.17C449.71,864,450.32,858.83,446.97,858.83z"/>
<path class="st2" d="M492.32,744.21c-0.12-2.98-5.12-2.83-5.23,0.12c-0.03,0.68-0.05,1.36-0.08,2.04c-0.06,1.48,0.85,2.84,2.4,3.01
	c1.92,0.21,3.06-1.4,2.99-3.13C492.37,745.57,492.35,744.89,492.32,744.21z"/>
<path class="st2" d="M395.75,826.05c-3.32,0-3.93,5.17-0.58,5.17C398.49,831.22,399.1,826.05,395.75,826.05z"/>
<path class="st1" d="M774.8,867.15c-3.17,0-3.75,4.93-0.55,4.93C777.41,872.08,777.99,867.15,774.8,867.15z"/>
</svg>
