<svg version="1" id="Layer_1" xmlns="http://www.w3.org/2000/svg" viewBox="0 0 100 100">
  <style>
    .st0{fill:#1b3043}.st1{font-family:&apos;Impact&apos;}
  </style>
  <path class="st0" d="M50 83s1-6 7-6c0 0 0 6-7 6M50 84s2 6 8 4c0 0-1-6-8-4M57 82s0-6 6-7c0 0 1 6-6 7M64 80s-1-6 5-8c0 0 1 7-5 8"/>
  <path class="st0" d="M70 78s-2-6 3-9c0 0 3 6-3 9M76 74s-3-5 2-9c0 0 4 5-2 9"/>
  <path class="st0" d="M81 69s-4-4 1-9c0 0 4 4-1 9"/>
  <path class="st0" d="M85 64s-4-4 0-9c0 0 5 4 0 9"/>
  <path class="st0" d="M89 58s-5-3-2-9c0 0 5 3 2 9"/>
  <path class="st0" d="M92 52s-6-3-4-9c0 0 6 2 4 9"/>
  <path class="st0" d="M93 45s-6-2-5-8c0 0 6 1 5 8M94 38s-6-1-6-7c0 0 6 0 6 7M93 31s-6 0-7-6c0 0 6-1 7 6"/>
  <path class="st0" d="M91 24s-6 2-8-4c0 0 6-2 8 4M89 18s-6 2-9-3c0 0 6-3 9 3M85 12s-6 3-9-2c0 0 5-3 9 2M57 83s3 6 9 3c0 0-2-5-9-3M64 81s4 5 9 2c0 0-3-5-9-2M71 78s4 5 9 1c0 0-4-5-9-1M77 75s5 4 9-1c0 0-5-4-9 1M82 70s5 3 9-2c0 0-5-4-9 2M86 65s6 2 9-4c0 0-6-3-9 4M90 59s6 1 8-5c0 0-6-2-8 5M93 52s6 0 7-6c0 0-7-1-7 6M94 45s6-1 6-7c0 0-6 0-6 7M95 38s6-2 4-8c0 0-6 1-4 8M94 31s6-3 3-9c0 0-5 2-3 9M92 24s5-4 2-9c0 0-5 3-2 9"/>
  <path class="st0" d="M89 18s5-5 1-10c0 0-5 4-1 10M86 12s3-5-1-10c0 0-4 5 1 10M82 8s0-7-7-7c0 0 0 7 7 7M49 83s0-6-7-6c0 0 1 6 7 6M49 84s-2 6-8 4c0 0 2-6 8-4"/>
  <path class="st0" d="M43 82s0-6-6-7c0 0-1 6 6 7M36 80s1-6-5-8c0 0-2 7 5 8"/>
  <path class="st0" d="M30 78s2-6-4-9c0 0-3 6 4 9"/>
  <path class="st0" d="M24 74s3-5-2-9c0 0-4 5 2 9M18 69s4-4 0-9c0 0-4 4 0 9"/>
  <path class="st0" d="M14 64s5-4 1-9c0 0-5 4-1 9M10 58s6-3 3-9c0 0-6 3-3 9"/>
  <path class="st0" d="M8 52s6-3 4-9c0 0-6 2-4 9M6 45s6-2 5-8c0 0-6 1-5 8"/>
  <path class="st0" d="M6 38s6-1 6-7c0 0-6 0-6 7M7 31s6 0 7-6c0 0-6-1-7 6"/>
  <path class="st0" d="M8 24s6 2 8-4c0 0-6-2-8 4M11 18s6 2 9-3c0 0-6-3-9 3M15 12s5 3 9-2c0 0-5-3-9 2M42 83s-3 6-8 3c0 0 2-5 8-3M35 81s-3 5-9 2c0 0 4-5 9-2M29 78s-4 5-9 1c0 0 4-5 9-1M23 75s-5 4-9-1c0 0 4-4 9 1M18 70s-6 3-9-2c0 0 5-4 9 2M13 65s-6 2-8-4c0 0 5-3 8 4M10 59s-6 1-8-5c0 0 6-2 8 5M7 52s-6 0-7-6c0 0 6-1 7 6M6 31s-6-3-4-9c0 0 6 2 4 9M7 24s-5-4-2-9c0 0 6 3 2 9M10 18S6 13 9 8c0 0 5 4 1 10M14 12s-4-5 1-10c0 0 4 5-1 10M17 8s1-7 8-7c0 0 0 7-8 7"/>
  <text transform="matrix(1.3589 0 0 1 30 97)" class="st0 st1" font-size="6">
    ACADEMICS
  </text>
  <path class="st0" d="M22 20s26-25 56 1v26s0 15-28 27c0 0-24-10-28-27V20z"/>
  <path d="M29 24s20-17 43 0v21s-1 12-22 22c0 0-19-8-21-21V24z" fill="#fff"/>
  <text transform="matrix(1.3589 0 0 1 39 54)" class="st0 st1" font-size="34">
    H
  </text>
</svg>
