<svg version="1" id="Layer_1" xmlns="http://www.w3.org/2000/svg" viewBox="0 0 100 100">
  <style>
    .st2{fill:#fff}.st3{fill:#811b2d}
  </style>
  <path d="M99 50c0 4-4 8-5 12s0 9-2 13c-2 3-7 4-10 7s-4 9-7 11c-4 2-9 0-13 1s-8 5-12 5-8-4-12-5-9 1-12-1c-4-2-5-8-8-11s-8-4-10-7c-2-4-1-9-2-13s-5-8-5-12 4-8 5-12 0-9 2-13c2-3 7-4 10-7s4-9 8-11c3-2 8 0 12-1s8-5 12-5 8 4 12 5 9-1 13 1c3 2 4 8 7 11s8 4 10 7c2 4 1 9 2 13s5 8 5 12" fill="#393e42"/>
  <path d="M97 50c0 4-5 7-6 11s1 9-1 12c-2 4-7 5-10 8-2 2-3 8-7 10-3 2-8 0-12 1s-7 5-11 5-7-4-11-5-9 1-12-1c-4-2-5-8-7-10-3-3-8-4-10-8-2-3 0-8-1-12s-6-7-6-11 5-7 6-11-1-9 1-12c2-4 7-5 10-8 2-2 3-8 7-10 3-2 8 0 12-1s7-5 11-5 7 4 11 5 9-1 12 1c4 2 5 8 7 10 3 3 8 4 10 8 2 3 0 8 1 12s6 7 6 11z" fill="none" stroke="#fff" stroke-width="2"/>
  <path class="st2" d="M90 50c0 23-18 41-40 41S10 73 10 50c0-22 18-40 40-40s40 18 40 40"/>
  <path class="st3" d="M88 50c0 22-17 39-38 39S12 72 12 50c0-21 17-38 38-38s38 17 38 38"/>
  <ellipse cx="50" cy="50" rx="36" ry="37" fill="none" stroke="#fff" stroke-miterlimit="10"/>
  <path class="st2" d="M34 39s15-15 33-1v17s-1 9-17 16c0 0-13-6-16-16V39z"/>
  <path class="st3" d="M51 34s9 1 14 6v9H51V34zM35 51h14v18s-15-7-14-18"/>
  <path class="st2" d="M47 57h-2c3-2-1-4-1-4s-3 2 0 4h-2v1l1-1 1 2-1 1h1l-2 1 2 1 2-1-1-1h1l-1-1 1-2c-1 1 1 1 1 1v-1"/>
  <path d="M47 57h-2c3-2-1-4-1-4s-3 2 0 4h-2v1l1-1 1 2-1 1h1l-2 1 2 1 2-1-1-1h1l-1-1 1-2c-1 1 1 1 1 1v-1z" fill="none" stroke="#fff"/>
  <path class="st3" d="M41 44l1 1h-1l-1-1 1-1v-2l-1-2v1l-1-3v2l-1-1 1 2-1-1v2l-1-1 1 1h-1l1 1-1-1 1 1h-1l1 1h-1 1-1l1 1h-1 0l1 1h-1 2-1 1l-1 1h2l-1 1 1-1v1h1-1 1v1h1l-1 1 1-2v1c1-2-1-4-1-4M43 44v1l1-1v-1-2l1-2v1l1-3v3l1-1-1 1h1l-1 1 1-1v2l1-1-1 1h1l-1 1h1l-1 1h-1 1l-1 1h0l1 1h-2 1-1v1h-1-1l1 1-1-1v1-4"/>
  <path class="st2" d="M58 41h-1-1-1-1v3h1-1 1v2l3-1 2 1 1-1v-1-1h1v-1h-1 0v-1h-2-1 0m-2 4h-1l-1-3 1-1h1v1h-1 1-1v2h1-1 1v1m2-1v1h-1v-1 0l-1 1c0-1 0-1 0 0v-1l-1-1v-1h1v-1h1a2 2 0 0 1 1 1l1-1h1v3l-1 1s1 0 0 0c0-1 0-1 0 0v-1 1h-1v-1m0-3c0-1 0-1 0 0v-1 0 1s-1 0 0 0m2 4h-1 1v-1-1-1-1 0h1v1c1 1 0 2-1 3"/>
  <path class="st3" d="M57 52c-1 0 0 0 0 0 0 1 0 0 0 0m-1 2v1l1 1v-1s1 0 0 0h1v-1l-1-1h0v-1l-1 1h0v-1 2m-1 9v1l1-1h-1m2-10l1 1v-1h1-2m-1 10v0m3-6v-1h1v-1h1l-1-1v-1h-1v4m2-3h-1 1m-1 0v-1 1m0 7h1-1m1-4c0 1 0 0 0 0v-1h-1v1h-1l-1-1 1 1-1-2-1 1v-1 0l-1 1-1-1-5-4s0 2 3 3l2 1 1 1s-1 0 0 0v1s1 0 0 0h1v0l1 1h3l-1-1h1m-1 1c1 0 0 0 0 0h1-1m1-1h0m0 1v-1 1m-4 1l1-1h-2 0v-1l-1 2-1-1v1l-1-1-1-1h-1v1l1 1 1 1v1h-1l-1-2v1l-1-2 1 2-1-1 1 2h-1l2 1 1-1h1l-1-1-1-1v-1h-1l1-1 1 1 1 1h-1 1l1 1v1s0-1 0 0v2h1v-1h-1l1-1 1-1v-1m-1 3v1h1l-1-1m4-1v-1 1m-1 0v-1l-1-2a2 2 0 0 0-1 2h1l-1 1 1 1h2v-1h-1m-5-6l-1-1h-1l2 1h-2l2 1h-1 1l2 2v-1-1l-1-1h-1"/>
</svg>
