<svg version="1" id="Layer_1" xmlns="http://www.w3.org/2000/svg" viewBox="0 0 100 100">
  <style>
    .st1{fill-rule:evenodd;clip-rule:evenodd;fill:#eee9d2}.st3{fill:#1f3a20}
  </style>
  <path d="M86 50a4642 4642 0 0 1-8-38h-6c-15 0-21-7-21-7h-2s-6 7-21 7h-6c-2 0-3 1-3 2l-5 36c-2 15 34 27 34 27h4s36-12 34-27z" fill-rule="evenodd" clip-rule="evenodd" fill="#1f3a20"/>
  <path class="st1" d="M23 15l-4 25h31V9c-3 2-9 6-22 6h-5zM82 50l-1-10H50v34h1c11-4 33-15 31-24zM74 26v-1c1-1-1-2-1-2s1 1-1 1h-3l-1-1v-3l1-1-2-1h-1-1l-3 1 2 1v3l-2 1h-3l-1-1-1 2 1 1-1 1 1 3 1-2h3l2 2v2c0 2-2 1-2 1s1 2 3 1h2c1 1 2-1 2-1s-1 1-1-1v-2l1-2h3c2 0 1 2 1 2s2-1 1-3v-1zm-2 1h-5v5l-1 1-1-1v-5h-5l-1-1 1-1h5v-5h2v5h5v2zM41 60l1-1-11-9-1-3a3 3 0 1 0 0 4l8 7h-1l-1 1 1 1 1-1 1 1-1 1 1 1 1-1v-1h1zM28 50a1 1 0 1 1 1-2 1 1 0 0 1-1 2z"/>
  <path class="st1" d="M29 59l1 1-1 1 1 1 1-1v-2l1 1 1-1-1-1h-1l8-7h3c1-1 2-3 1-4a3 3 0 0 0-5 3l-11 9 1 1 1-1zm11-9a1 1 0 1 1 2-2 1 1 0 0 1-2 2z"/>
  <path d="M12 73l1 7-4 5 8 3 1-10 5-2-11-3zm76 0l-11 3 5 2 1 10 8-3-4-5 1-7zM18 92c21 5 43 5 64 0l-2-13c-20 5-40 5-60 0l-2 13z" fill="#f2d546"/>
  <path class="st3" d="M24 85h-1v-1l2 1-1 3v1l1 1h2v-1l1-3-1-1h2v1h-1v3l-1 1-2 1-2-1v-2l1-3zM29 91h1l1-5h-1v-1l2 1a175 175 0 0 0 2 5v-1l1-3-1-1h2v1l-1 5h-1a165 165 0 0 1-3-5v4h1v1l-3-1zM37 91l1 1v-5h-1v-1h3v1h-1l-1 5h1-2v-1zM41 87h-1v-1h2v1a271 271 0 0 0 1 5v-1l2-4h-1 2a220 220 0 0 1-4 6l-1-6zM47 92v-5h4v1h-1v-1h-2v2h3v1h-3v2h3v-1 2h-4v-1zM52 92h1v-5h-1a116 116 0 0 0 4 0l1 1-1 2 1 2h1v1h-1l-1-1-1-1v-1h-1v2h1v1h-3v-1zm3-2l1-2v-1h-2v3h1zM59 91l2 1 1-1-2-1-2-2 2-2 2 1v1h-1v-1h-1l-1 1 2 1c1 0 2 0 2 2l-2 1c-1 1-3 0-3-1h1zM64 91v-4h-1v-1h3v1h-1v4h1v1h-2v-1zM68 91h1l-1-5h-1v1h-1v-1l5-1 1 2h-1v-1h-2l1 5h1l-3 1v-1zM74 90h1v-2l-3-2v-1h1l2 2 1-2h-1v-1h2v1l-2 3 1 2h1l-3 1v-1z"/>
  <g>
    <path class="st1" d="M6 39l-2 3-1-3 3-4v4zM7 56l-1 1H5l-3-1s1 3 3 3h3l1-2v-3s-2 0-2 2z"/>
    <path class="st1" d="M6 52l-1 1-1-1-3-1s0 3 2 4h3l2-2v-3s-2 0-2 2z"/>
    <path class="st1" d="M5 47l-1 1-1-1-3-1 1 4 3 1 3-2 1-3-3 1zM5 43l-1 1-1-2-3-1 1 3c1 2 3 2 3 2l2-1 2-3s-2-1-3 1zM11 57s-2 1-2 3v1H4l3 3h4l2 3 2 1v-2l-4-3v-1l1-2-1-3z"/>
  </g>
  <g>
    <path class="st1" d="M94 39l2 3 1-3-3-4v4zM93 56l1 1h1l3-1s-1 3-3 3h-3l-1-2v-3s2 0 2 2z"/>
    <path class="st1" d="M94 52l1 1 1-1 3-1s0 3-2 4h-3l-2-2v-3s2 0 2 2z"/>
    <path class="st1" d="M95 47l1 1 1-1 3-1-1 4-3 1-3-2-1-3 3 1zM95 43l1 1 1-2 3-1-1 3c-1 2-3 2-3 2l-2-1-2-3s2-1 3 1zM89 57s2 1 2 3v1h5l-3 3h-4l-2 3-2 1v-2l4-3v-1l-1-2 1-3z"/>
  </g>
  <g>
    <path class="st3" d="M36 33v-2h2l-1-1h-3l-1 1h2v2h-6v-2h1l3-8h-1v-2h7l3 10h1v2h-7zm1-5l-2-4-1 4h3z"/>
  </g>
  <g>
    <path class="st3" d="M59 57h1v-8h-1v-2h7c3 0 4 1 4 3s0 2-2 3c2 0 3 1 3 3s-2 4-5 4h-7v-3zm5-5h1l1-1-1-2h-1v3zm1 5l2-1-2-2h-1v3h1z"/>
  </g>
</svg>
