<?xml version="1.0" encoding="utf-8"?>
<!-- Generator: Adobe Illustrator 23.0.1, SVG Export Plug-In . SVG Version: 6.00 Build 0)  -->
<svg version="1.1" id="Layer_1" xmlns="http://www.w3.org/2000/svg" xmlns:xlink="http://www.w3.org/1999/xlink" x="0px" y="0px"
	 viewBox="0 0 400 400" style="enable-background:new 0 0 400 400;" xml:space="preserve">
<style type="text/css">
	.st0{fill:url(#SVGID_1_);}
	.st1{opacity:0.1;fill:#00FCFF;}
	.st2{fill:#00C4FF;}
	.st3{fill:#A1FDFF;}
	.st4{fill:#00FCFF;}
	.st5{fill:#FF9E00;}
	.st6{fill:#FFFA00;}
	.st7{fill:#FFD500;}
	.st8{fill:#0670F4;}
	.st9{fill:#0E36CA;}
	.st10{fill:#0D46DA;}
	.st11{fill:#C1FDFF;}
	.st12{fill:#D5FDFF;}
	.st13{fill:url(#SVGID_2_);}
	.st14{fill:url(#SVGID_3_);}
	.st15{fill:url(#SVGID_4_);}
	.st16{fill:url(#SVGID_5_);}
	.st17{fill:url(#SVGID_6_);}
	.st18{fill:url(#SVGID_7_);}
	.st19{fill:url(#SVGID_8_);}
	.st20{fill:url(#SVGID_9_);}
	.st21{fill:url(#SVGID_10_);}
	.st22{opacity:0.2;fill:#FFFFFF;}
	.st23{fill:#003E69;}
	.st24{fill:#00133C;}
	.st25{fill:#00000A;}
	.st26{fill:#004677;}
	.st27{fill:#00D0FF;}
	.st28{fill:#002F4D;}
	.st29{fill:#F13955;}
	.st30{fill:#C12759;}
	.st31{fill:#FF5379;}
	.st32{fill:#0086FF;}
	.st33{fill:#007B96;}
	.st34{fill:#002041;}
	.st35{fill:#00F98D;}
	.st36{fill:#0089FF;}
	.st37{fill:#A11746;}
	.st38{fill:#FFA6C6;}
	.st39{fill:#FF91AE;}
	.st40{opacity:0.6;fill:#00F3FF;}
	.st41{fill:#00F3FF;}
</style>
<g>
	
		<radialGradient id="SVGID_1_" cx="200" cy="200" r="200" gradientTransform="matrix(1 0 0 -1 0 400)" gradientUnits="userSpaceOnUse">
		<stop  offset="0" style="stop-color:#3399FF"/>
		<stop  offset="0.2823" style="stop-color:#3390F6"/>
		<stop  offset="0.7501" style="stop-color:#3376DC"/>
		<stop  offset="1" style="stop-color:#3366CC"/>
	</radialGradient>
	<rect class="st0" width="400" height="400"/>
</g>
<g>
	<ellipse class="st1" cx="200" cy="292.48" rx="97.65" ry="60.61"/>
	<ellipse class="st1" cx="200" cy="285.37" rx="82.08" ry="50.95"/>
	<g>
		<ellipse class="st2" cx="200" cy="282.8" rx="69.23" ry="42.97"/>
		<ellipse class="st3" cx="200" cy="276.89" rx="69.23" ry="43.56"/>
		<ellipse class="st4" cx="200" cy="276.3" rx="69.23" ry="42.97"/>
	</g>
	<g>
		<ellipse class="st5" cx="200" cy="266.64" rx="62.92" ry="39.53"/>
		<rect x="137.08" y="231.68" class="st5" width="125.85" height="34.96"/>
		<ellipse class="st6" cx="200" cy="231.68" rx="62.92" ry="40.07"/>
		<ellipse class="st7" cx="200" cy="231.14" rx="62.92" ry="39.53"/>
		<ellipse class="st8" cx="200" cy="228.39" rx="53.42" ry="33.56"/>
		<ellipse class="st9" cx="200" cy="228.39" rx="37.05" ry="23.28"/>
		<ellipse class="st10" cx="200" cy="228.39" rx="28.21" ry="17.72"/>
		<ellipse class="st4" cx="200" cy="228.39" rx="21.61" ry="13.58"/>
		<path class="st11" d="M212.63,228.39c0,4.38-5.66,7.94-12.63,7.94s-12.63-3.55-12.63-7.94c0-4.38,5.66-7.94,12.63-7.94
			S212.63,224.01,212.63,228.39z"/>
		<ellipse class="st12" cx="244.85" cy="226.55" rx="3.81" ry="2.39"/>
		<ellipse class="st12" cx="198.94" cy="199.48" rx="3.81" ry="2.39"/>
		<path class="st12" d="M159.41,227.11c0,1.32-1.7,2.39-3.81,2.39c-2.1,0-3.81-1.07-3.81-2.39s1.7-2.39,3.81-2.39
			C157.7,224.71,159.41,225.79,159.41,227.11z"/>
		<ellipse class="st12" cx="171.48" cy="252.68" rx="3.81" ry="2.39"/>
		<ellipse class="st12" cx="226.21" cy="252.68" rx="3.81" ry="2.39"/>
	</g>
	
		<linearGradient id="SVGID_2_" gradientUnits="userSpaceOnUse" x1="244.9356" y1="99.8752" x2="244.74" y2="-20.0721" gradientTransform="matrix(1 0 0 -1 0 211.6478)">
		<stop  offset="0" style="stop-color:#0D55FF;stop-opacity:0"/>
		<stop  offset="0.2882" style="stop-color:#098DFF;stop-opacity:0.2882"/>
		<stop  offset="0.6226" style="stop-color:#04C9FF;stop-opacity:0.6226"/>
		<stop  offset="0.8696" style="stop-color:#01EEFF;stop-opacity:0.8696"/>
		<stop  offset="1" style="stop-color:#00FCFF"/>
	</linearGradient>
	<path class="st13" d="M249.61,218.45c0,2.63-2.13,4.76-4.76,4.76l0,0c-2.63,0-4.76-2.13-4.76-4.76V109.99h0.02
		c-0.01-0.09-0.02-0.18-0.02-0.27c0-1.65,2.13-2.99,4.76-2.99s4.76,1.34,4.76,2.99c0,0.09-0.01,0.18-0.02,0.27h0.02V218.45z"/>
	
		<linearGradient id="SVGID_3_" gradientUnits="userSpaceOnUse" x1="199.123" y1="126.8745" x2="198.9274" y2="6.9272" gradientTransform="matrix(1 0 0 -1 0 211.6478)">
		<stop  offset="0" style="stop-color:#0D55FF;stop-opacity:0"/>
		<stop  offset="0.2882" style="stop-color:#098DFF;stop-opacity:0.2882"/>
		<stop  offset="0.6226" style="stop-color:#04C9FF;stop-opacity:0.6226"/>
		<stop  offset="0.8696" style="stop-color:#01EEFF;stop-opacity:0.8696"/>
		<stop  offset="1" style="stop-color:#00FCFF"/>
	</linearGradient>
	<path class="st14" d="M203.8,191.46c0,2.63-2.13,4.76-4.76,4.76l0,0c-2.63,0-4.76-2.13-4.76-4.76V82.99h0.02
		c-0.01-0.09-0.02-0.18-0.02-0.27c0-1.65,2.13-2.99,4.76-2.99c2.63,0,4.76,1.34,4.76,2.99c0,0.09-0.01,0.18-0.02,0.27h0.02V191.46z"
		/>
	
		<linearGradient id="SVGID_4_" gradientUnits="userSpaceOnUse" x1="226.4944" y1="85.4854" x2="226.2776" y2="-47.5083" gradientTransform="matrix(1 0 0 -1 0 211.6478)">
		<stop  offset="0" style="stop-color:#0D55FF;stop-opacity:0"/>
		<stop  offset="0.2882" style="stop-color:#098DFF;stop-opacity:0.2882"/>
		<stop  offset="0.6226" style="stop-color:#04C9FF;stop-opacity:0.6226"/>
		<stop  offset="0.8696" style="stop-color:#01EEFF;stop-opacity:0.8696"/>
		<stop  offset="1" style="stop-color:#00FCFF"/>
	</linearGradient>
	<path class="st15" d="M231.16,244.97c0,2.63-2.13,4.76-4.76,4.76l0,0c-2.63,0-4.76-2.13-4.76-4.76V123.83h0.02
		c-0.01-0.09-0.02-0.18-0.02-0.27c0-1.65,2.13-2.99,4.76-2.99s4.76,1.34,4.76,2.99c0,0.09-0.01,0.18-0.02,0.27h0.02V244.97z"/>
	
		<linearGradient id="SVGID_5_" gradientUnits="userSpaceOnUse" x1="171.5746" y1="85.4854" x2="171.3578" y2="-47.5083" gradientTransform="matrix(1 0 0 -1 0 211.6478)">
		<stop  offset="0" style="stop-color:#0D55FF;stop-opacity:0"/>
		<stop  offset="0.2882" style="stop-color:#098DFF;stop-opacity:0.2882"/>
		<stop  offset="0.6226" style="stop-color:#04C9FF;stop-opacity:0.6226"/>
		<stop  offset="0.8696" style="stop-color:#01EEFF;stop-opacity:0.8696"/>
		<stop  offset="1" style="stop-color:#00FCFF"/>
	</linearGradient>
	<path class="st16" d="M176.24,244.97c0,2.63-2.13,4.76-4.76,4.76l0,0c-2.63,0-4.76-2.13-4.76-4.76V123.83h0.02
		c-0.01-0.09-0.02-0.18-0.02-0.27c0-1.65,2.13-2.99,4.76-2.99c2.63,0,4.76,1.34,4.76,2.99c0,0.09-0.01,0.18-0.02,0.27h0.02V244.97z"
		/>
	
		<linearGradient id="SVGID_6_" gradientUnits="userSpaceOnUse" x1="155.6862" y1="99.8752" x2="155.4907" y2="-20.0721" gradientTransform="matrix(1 0 0 -1 0 211.6478)">
		<stop  offset="0" style="stop-color:#0D55FF;stop-opacity:0"/>
		<stop  offset="0.2882" style="stop-color:#098DFF;stop-opacity:0.2882"/>
		<stop  offset="0.6226" style="stop-color:#04C9FF;stop-opacity:0.6226"/>
		<stop  offset="0.8696" style="stop-color:#01EEFF;stop-opacity:0.8696"/>
		<stop  offset="1" style="stop-color:#00FCFF"/>
	</linearGradient>
	<path class="st17" d="M160.36,218.45c0,2.63-2.13,4.76-4.76,4.76h0c-2.63,0-4.76-2.13-4.76-4.76V109.99h0.02
		c-0.01-0.09-0.02-0.18-0.02-0.27c0-1.65,2.13-2.99,4.76-2.99c2.63,0,4.76,1.34,4.76,2.99c0,0.09-0.01,0.18-0.02,0.27h0.02V218.45z"
		/>
	<linearGradient id="SVGID_7_" gradientUnits="userSpaceOnUse" x1="200.1439" y1="252.636" x2="199.726" y2="-3.7164">
		<stop  offset="0" style="stop-color:#0D55FF;stop-opacity:0"/>
		<stop  offset="0.259" style="stop-color:#0A7CFF;stop-opacity:0.259"/>
		<stop  offset="0.8363" style="stop-color:#02DFFF;stop-opacity:0.8363"/>
		<stop  offset="1" style="stop-color:#00FCFF"/>
	</linearGradient>
	<path class="st18" d="M253.42,100.33c0-29.5-23.92-53.42-53.42-53.42l0,0c-29.5,0-53.42,23.92-53.42,53.42v125.06h0.22
		c-0.14,0.99-0.22,1.99-0.22,3.01c0,18.54,23.92,33.56,53.42,33.56c29.5,0,53.42-15.03,53.42-33.56c0-1.01-0.08-2.01-0.22-3.01h0.22
		V100.33z"/>
	<linearGradient id="SVGID_8_" gradientUnits="userSpaceOnUse" x1="178.8685" y1="246.3062" x2="178.5187" y2="31.7356">
		<stop  offset="0" style="stop-color:#0D55FF;stop-opacity:0"/>
		<stop  offset="0.2882" style="stop-color:#098DFF;stop-opacity:0.2882"/>
		<stop  offset="0.6226" style="stop-color:#04C9FF;stop-opacity:0.6226"/>
		<stop  offset="0.8696" style="stop-color:#01EEFF;stop-opacity:0.8696"/>
		<stop  offset="1" style="stop-color:#00FCFF"/>
	</linearGradient>
	<path class="st19" d="M168.19,100.33c0-25.8,18.29-47.33,42.62-52.33c-3.49-0.72-7.1-1.09-10.8-1.09l0,0
		c-29.5,0-53.42,23.92-53.42,53.42v125.06h0.22c-0.14,0.99-0.22,1.99-0.22,3.01c0,11.05,8.5,20.85,21.61,26.96V100.33z"/>
	<g>
		<linearGradient id="SVGID_9_" gradientUnits="userSpaceOnUse" x1="253.3095" y1="229.1734" x2="253.3059" y2="226.9984">
			<stop  offset="0" style="stop-color:#0D55FF;stop-opacity:0"/>
			<stop  offset="0.2882" style="stop-color:#2D8DFF;stop-opacity:0.2882"/>
			<stop  offset="0.6226" style="stop-color:#4FC9FF;stop-opacity:0.6226"/>
			<stop  offset="0.8696" style="stop-color:#64EEFF;stop-opacity:0.8696"/>
			<stop  offset="1" style="stop-color:#6CFCFF"/>
		</linearGradient>
		<path class="st20" d="M253.2,227.15c0.1,0.7,0.16,1.4,0.19,2.11c0.01-0.29,0.04-0.58,0.04-0.87c0-0.42-0.02-0.83-0.05-1.24H253.2z
			"/>
		<linearGradient id="SVGID_10_" gradientUnits="userSpaceOnUse" x1="199.9977" y1="99.7874" x2="199.9049" y2="42.8754">
			<stop  offset="0" style="stop-color:#0D55FF;stop-opacity:0"/>
			<stop  offset="0.2882" style="stop-color:#2D8DFF;stop-opacity:0.2882"/>
			<stop  offset="0.6226" style="stop-color:#4FC9FF;stop-opacity:0.6226"/>
			<stop  offset="0.8696" style="stop-color:#64EEFF;stop-opacity:0.8696"/>
			<stop  offset="1" style="stop-color:#6CFCFF"/>
		</linearGradient>
		<path class="st21" d="M200,46.91L200,46.91c-29.5,0-53.42,23.92-53.42,53.42v1.77c0-29.5,23.92-53.42,53.42-53.42l0,0
			c29.5,0,53.42,23.92,53.42,53.42v-1.77C253.42,70.83,229.5,46.91,200,46.91z"/>
	</g>
	<g>
		<path class="st22" d="M176.65,130.59c0,5.01-4.06,9.08-9.08,9.08c-5.01,0-9.08-4.06-9.08-9.08c0-5.01,4.06-9.08,9.08-9.08
			C172.59,121.51,176.65,125.58,176.65,130.59z"/>
		<path class="st22" d="M168.57,127.96c0,2.28-1.85,4.14-4.14,4.14s-4.14-1.85-4.14-4.14c0-2.28,1.85-4.14,4.14-4.14
			S168.57,125.67,168.57,127.96z"/>
		<circle class="st22" cx="168.57" cy="125.73" r="1.91"/>
		<circle class="st22" cx="172.2" cy="135.86" r="0.98"/>
	</g>
	<g>
		<path class="st22" d="M249.28,112.27c0,3.37-2.73,6.11-6.11,6.11c-3.37,0-6.11-2.73-6.11-6.11s2.73-6.11,6.11-6.11
			C246.54,106.16,249.28,108.9,249.28,112.27z"/>
		<circle class="st22" cx="241.06" cy="110.5" r="2.78"/>
		<path class="st22" d="M245.12,109c0,0.71-0.58,1.28-1.28,1.28c-0.71,0-1.28-0.58-1.28-1.28c0-0.71,0.58-1.28,1.28-1.28
			C244.55,107.71,245.12,108.29,245.12,109z"/>
		<path class="st22" d="M246.28,115.15c0.37,0,0.66,0.3,0.66,0.66c0,0.37-0.3,0.66-0.66,0.66s-0.66-0.3-0.66-0.66
			C245.62,115.45,245.92,115.15,246.28,115.15z"/>
	</g>
	<g>
		<path class="st22" d="M221.61,132.09c0,3.37-2.73,6.11-6.11,6.11c-3.37,0-6.11-2.73-6.11-6.11c0-3.37,2.73-6.11,6.11-6.11
			C218.87,125.98,221.61,128.72,221.61,132.09z"/>
		<path class="st22" d="M216.17,130.32c0,1.54-1.25,2.78-2.78,2.78c-1.54,0-2.78-1.25-2.78-2.78c0-1.54,1.25-2.78,2.78-2.78
			C214.92,127.54,216.17,128.78,216.17,130.32z"/>
		<path class="st22" d="M217.45,128.82c0,0.71-0.58,1.28-1.28,1.28c-0.71,0-1.28-0.58-1.28-1.28c0-0.71,0.58-1.28,1.28-1.28
			C216.88,127.54,217.45,128.11,217.45,128.82z"/>
		<path class="st22" d="M218.61,134.97c0.37,0,0.66,0.3,0.66,0.66c0,0.37-0.3,0.66-0.66,0.66c-0.37,0-0.66-0.3-0.66-0.66
			C217.95,135.27,218.25,134.97,218.61,134.97z"/>
	</g>
	<g>
		<path class="st22" d="M201.65,121.51c0,2.78-2.25,5.04-5.04,5.04c-2.78,0-5.04-2.26-5.04-5.04s2.25-5.04,5.04-5.04
			C199.39,116.48,201.65,118.73,201.65,121.51z"/>
		<circle class="st22" cx="194.87" cy="120.05" r="2.3"/>
		<circle class="st22" cx="197.16" cy="118.82" r="1.06"/>
		<path class="st22" d="M199.18,123.89c0.3,0,0.55,0.24,0.55,0.55c0,0.3-0.24,0.55-0.55,0.55c-0.3,0-0.55-0.24-0.55-0.55
			C198.63,124.14,198.88,123.89,199.18,123.89z"/>
	</g>
	<g>
		<path class="st22" d="M230.88,172.43c0,2.78-2.26,5.04-5.04,5.04c-2.78,0-5.04-2.25-5.04-5.04c0-2.78,2.25-5.04,5.04-5.04
			C228.63,167.4,230.88,169.65,230.88,172.43z"/>
		<path class="st22" d="M226.4,170.97c0,1.27-1.03,2.29-2.3,2.29c-1.27,0-2.3-1.03-2.3-2.29c0-1.27,1.03-2.3,2.3-2.3
			C225.37,168.68,226.4,169.7,226.4,170.97z"/>
		<circle class="st22" cx="226.4" cy="169.73" r="1.06"/>
		<circle class="st22" cx="228.41" cy="175.36" r="0.55"/>
	</g>
	<g>
		<circle class="st22" cx="168.91" cy="116.48" r="5.04"/>
		<circle class="st22" cx="167.17" cy="115.01" r="2.3"/>
		<circle class="st22" cx="169.47" cy="113.78" r="1.06"/>
		<path class="st22" d="M171.48,118.85c0.3,0,0.55,0.24,0.55,0.55c0,0.3-0.24,0.55-0.55,0.55c-0.3,0-0.55-0.24-0.55-0.55
			C170.93,119.1,171.18,118.85,171.48,118.85z"/>
	</g>
	<g>
		<path class="st22" d="M175.02,162.86c0,2.51-2.03,4.54-4.54,4.54c-2.51,0-4.54-2.03-4.54-4.54c0-2.51,2.03-4.54,4.54-4.54
			C172.99,158.32,175.02,160.35,175.02,162.86z"/>
		<circle class="st22" cx="168.91" cy="161.54" r="2.07"/>
		<circle class="st22" cx="170.98" cy="160.43" r="0.95"/>
		<path class="st22" d="M172.8,165c0.27,0,0.49,0.22,0.49,0.49c0,0.27-0.22,0.49-0.49,0.49c-0.27,0-0.49-0.22-0.49-0.49
			C172.3,165.22,172.52,165,172.8,165z"/>
	</g>
	<g>
		<path class="st22" d="M163.45,182.9c0,1.39-1.13,2.52-2.52,2.52c-1.39,0-2.52-1.13-2.52-2.52c0-1.39,1.13-2.52,2.52-2.52
			C162.32,180.38,163.45,181.5,163.45,182.9z"/>
		<circle class="st22" cx="160.06" cy="182.16" r="1.15"/>
		<path class="st22" d="M161.74,181.55c0,0.29-0.24,0.53-0.53,0.53c-0.29,0-0.53-0.24-0.53-0.53c0-0.29,0.24-0.53,0.53-0.53
			C161.5,181.02,161.74,181.25,161.74,181.55z"/>
		<path class="st22" d="M162.22,184.08c0.15,0,0.27,0.12,0.27,0.27s-0.12,0.27-0.27,0.27c-0.15,0-0.27-0.12-0.27-0.27
			S162.06,184.08,162.22,184.08z"/>
	</g>
	<g>
		<circle class="st22" cx="197.48" cy="148.1" r="2.52"/>
		<circle class="st22" cx="196.61" cy="147.36" r="1.15"/>
		<path class="st22" d="M198.29,146.75c0,0.29-0.24,0.53-0.53,0.53c-0.29,0-0.53-0.24-0.53-0.53c0-0.29,0.24-0.53,0.53-0.53
			C198.05,146.22,198.29,146.45,198.29,146.75z"/>
		<path class="st22" d="M198.76,149.28c0.15,0,0.27,0.12,0.27,0.27c0,0.15-0.12,0.27-0.27,0.27s-0.27-0.12-0.27-0.27
			C198.49,149.41,198.61,149.28,198.76,149.28z"/>
	</g>
	<g>
		<circle class="st22" cx="241.06" cy="178.5" r="2.52"/>
		<circle class="st22" cx="240.19" cy="177.77" r="1.15"/>
		<path class="st22" d="M241.86,177.15c0,0.29-0.24,0.53-0.53,0.53c-0.29,0-0.53-0.24-0.53-0.53c0-0.29,0.24-0.53,0.53-0.53
			C241.63,176.62,241.86,176.86,241.86,177.15z"/>
		<path class="st22" d="M242.34,179.69c0.15,0,0.27,0.12,0.27,0.27s-0.12,0.27-0.27,0.27c-0.15,0-0.27-0.12-0.27-0.27
			S242.19,179.69,242.34,179.69z"/>
	</g>
	<g>
		<path class="st22" d="M240.79,194.57c0,1.39-1.13,2.52-2.52,2.52c-1.39,0-2.52-1.13-2.52-2.52c0-1.39,1.13-2.52,2.52-2.52
			C239.66,192.05,240.79,193.18,240.79,194.57z"/>
		<circle class="st22" cx="237.4" cy="193.84" r="1.15"/>
		<path class="st22" d="M239.08,193.22c0,0.29-0.24,0.53-0.53,0.53c-0.29,0-0.53-0.24-0.53-0.53c0-0.29,0.24-0.53,0.53-0.53
			C238.84,192.69,239.08,192.93,239.08,193.22z"/>
		<path class="st22" d="M239.56,195.76c0.15,0,0.27,0.12,0.27,0.27c0,0.15-0.12,0.27-0.27,0.27c-0.15,0-0.27-0.12-0.27-0.27
			C239.28,195.88,239.41,195.76,239.56,195.76z"/>
	</g>
	<g>
		<path class="st22" d="M229.2,213.36c0,0.92-0.74,1.66-1.66,1.66c-0.92,0-1.66-0.74-1.66-1.66c0-0.92,0.74-1.66,1.66-1.66
			C228.46,211.7,229.2,212.44,229.2,213.36z"/>
		<path class="st22" d="M227.72,212.88c0,0.42-0.34,0.76-0.76,0.76c-0.42,0-0.76-0.34-0.76-0.76c0-0.42,0.34-0.76,0.76-0.76
			C227.38,212.12,227.72,212.46,227.72,212.88z"/>
		<path class="st22" d="M228.07,212.47c0,0.19-0.16,0.35-0.35,0.35c-0.19,0-0.35-0.16-0.35-0.35c0-0.19,0.16-0.35,0.35-0.35
			C227.91,212.12,228.07,212.28,228.07,212.47z"/>
		<path class="st22" d="M228.39,214.15c0.1,0,0.18,0.08,0.18,0.18c0,0.1-0.08,0.18-0.18,0.18c-0.1,0-0.18-0.08-0.18-0.18
			C228.21,214.23,228.29,214.15,228.39,214.15z"/>
	</g>
	<g>
		<path class="st22" d="M229.17,239.33c0,0.92-0.74,1.66-1.66,1.66s-1.66-0.74-1.66-1.66c0-0.92,0.74-1.66,1.66-1.66
			S229.17,238.41,229.17,239.33z"/>
		<path class="st22" d="M227.69,238.85c0,0.42-0.34,0.76-0.76,0.76c-0.42,0-0.76-0.34-0.76-0.76c0-0.42,0.34-0.76,0.76-0.76
			C227.35,238.09,227.69,238.43,227.69,238.85z"/>
		<circle class="st22" cx="227.69" cy="238.44" r="0.35"/>
		<path class="st22" d="M228.36,240.12c0.1,0,0.18,0.08,0.18,0.18c0,0.1-0.08,0.18-0.18,0.18c-0.1,0-0.18-0.08-0.18-0.18
			C228.18,240.2,228.26,240.12,228.36,240.12z"/>
	</g>
	<g>
		<path class="st22" d="M193.24,254.34c0,0.92-0.74,1.66-1.66,1.66c-0.92,0-1.66-0.74-1.66-1.66c0-0.92,0.74-1.66,1.66-1.66
			C192.49,252.68,193.24,253.42,193.24,254.34z"/>
		<path class="st22" d="M191.76,253.86c0,0.42-0.34,0.76-0.76,0.76c-0.42,0-0.76-0.34-0.76-0.76c0-0.42,0.34-0.76,0.76-0.76
			C191.42,253.1,191.76,253.44,191.76,253.86z"/>
		<path class="st22" d="M192.11,253.45c0,0.19-0.16,0.35-0.35,0.35c-0.19,0-0.35-0.16-0.35-0.35c0-0.19,0.16-0.35,0.35-0.35
			C191.95,253.1,192.11,253.26,192.11,253.45z"/>
		<path class="st22" d="M192.42,255.12c0.1,0,0.18,0.08,0.18,0.18c0,0.1-0.08,0.18-0.18,0.18c-0.1,0-0.18-0.08-0.18-0.18
			C192.24,255.2,192.32,255.12,192.42,255.12z"/>
	</g>
	<g>
		<path class="st22" d="M174.95,212.47c0,0.92-0.74,1.66-1.66,1.66c-0.92,0-1.66-0.74-1.66-1.66s0.74-1.66,1.66-1.66
			C174.21,210.81,174.95,211.55,174.95,212.47z"/>
		<path class="st22" d="M173.47,211.99c0,0.42-0.34,0.76-0.76,0.76c-0.42,0-0.76-0.34-0.76-0.76c0-0.42,0.34-0.76,0.76-0.76
			C173.13,211.23,173.47,211.57,173.47,211.99z"/>
		<path class="st22" d="M173.82,211.58c0,0.19-0.16,0.35-0.35,0.35c-0.19,0-0.35-0.16-0.35-0.35c0-0.19,0.16-0.35,0.35-0.35
			C173.66,211.23,173.82,211.39,173.82,211.58z"/>
		<path class="st22" d="M174.13,213.26c0.1,0,0.18,0.08,0.18,0.18s-0.08,0.18-0.18,0.18c-0.1,0-0.18-0.08-0.18-0.18
			S174.03,213.26,174.13,213.26z"/>
	</g>
	<g>
		<path class="st22" d="M188.16,185.41c0,0.92-0.74,1.66-1.66,1.66s-1.66-0.74-1.66-1.66c0-0.92,0.74-1.66,1.66-1.66
			S188.16,184.5,188.16,185.41z"/>
		<circle class="st22" cx="185.92" cy="184.93" r="0.76"/>
		<path class="st22" d="M187.03,184.52c0,0.19-0.16,0.35-0.35,0.35c-0.19,0-0.35-0.16-0.35-0.35c0-0.19,0.16-0.35,0.35-0.35
			C186.87,184.17,187.03,184.33,187.03,184.52z"/>
		<path class="st22" d="M187.34,186.2c0.1,0,0.18,0.08,0.18,0.18c0,0.1-0.08,0.18-0.18,0.18c-0.1,0-0.18-0.08-0.18-0.18
			C187.16,186.28,187.24,186.2,187.34,186.2z"/>
	</g>
	<g>
		<circle class="st22" cx="243.84" cy="231.68" r="2.52"/>
		<circle class="st22" cx="242.97" cy="230.95" r="1.15"/>
		<path class="st22" d="M244.65,230.33c0,0.29-0.24,0.53-0.53,0.53c-0.29,0-0.53-0.24-0.53-0.53c0-0.29,0.24-0.53,0.53-0.53
			C244.41,229.8,244.65,230.04,244.65,230.33z"/>
		<path class="st22" d="M245.12,232.87c0.15,0,0.27,0.12,0.27,0.27c0,0.15-0.12,0.27-0.27,0.27c-0.15,0-0.27-0.12-0.27-0.27
			C244.85,232.99,244.97,232.87,245.12,232.87z"/>
	</g>
	<g>
		<circle class="st22" cx="160.06" cy="215.88" r="2.52"/>
		<circle class="st22" cx="159.19" cy="215.15" r="1.15"/>
		<path class="st22" d="M160.87,214.53c0,0.29-0.24,0.53-0.53,0.53c-0.29,0-0.53-0.24-0.53-0.53s0.24-0.53,0.53-0.53
			C160.63,214,160.87,214.24,160.87,214.53z"/>
		<path class="st22" d="M161.34,217.07c0.15,0,0.27,0.12,0.27,0.27c0,0.15-0.12,0.27-0.27,0.27c-0.15,0-0.27-0.12-0.27-0.27
			C161.07,217.19,161.19,217.07,161.34,217.07z"/>
	</g>
	<g>
		<path class="st22" d="M229.45,145.58c0,0.97-0.79,1.76-1.76,1.76c-0.97,0-1.76-0.79-1.76-1.76s0.79-1.76,1.76-1.76
			C228.66,143.81,229.45,144.6,229.45,145.58z"/>
		<path class="st22" d="M227.88,145.07c0,0.44-0.36,0.8-0.8,0.8c-0.44,0-0.8-0.36-0.8-0.8c0-0.44,0.36-0.8,0.8-0.8
			C227.52,144.26,227.88,144.62,227.88,145.07z"/>
		<path class="st22" d="M228.25,144.63c0,0.21-0.17,0.37-0.37,0.37c-0.21,0-0.37-0.17-0.37-0.37c0-0.2,0.17-0.37,0.37-0.37
			C228.08,144.26,228.25,144.43,228.25,144.63z"/>
		<circle class="st22" cx="228.59" cy="146.6" r="0.19"/>
	</g>
	<g>
		<circle class="st22" cx="249.28" cy="126.55" r="1.76"/>
		<circle class="st22" cx="248.67" cy="126.04" r="0.8"/>
		<path class="st22" d="M249.84,125.61c0,0.21-0.17,0.37-0.37,0.37c-0.2,0-0.37-0.17-0.37-0.37c0-0.2,0.17-0.37,0.37-0.37
			C249.68,125.23,249.84,125.4,249.84,125.61z"/>
		<circle class="st22" cx="250.18" cy="127.57" r="0.19"/>
	</g>
	<g>
		<circle class="st22" cx="155.78" cy="104.4" r="1.76"/>
		<circle class="st22" cx="155.17" cy="103.89" r="0.8"/>
		<path class="st22" d="M156.34,103.45c0,0.21-0.17,0.37-0.37,0.37c-0.2,0-0.37-0.17-0.37-0.37s0.17-0.37,0.37-0.37
			C156.18,103.08,156.34,103.25,156.34,103.45z"/>
		<circle class="st22" cx="156.68" cy="105.42" r="0.19"/>
	</g>
	<g>
		<g>
			<g>
				<polygon class="st23" points="144.45,322.87 155.84,315.9 155.84,240.86 144.45,247.83 				"/>
				<polygon class="st24" points="125.69,311.65 144.45,322.87 144.45,247.83 125.69,236.61 				"/>
				<polygon class="st23" points="130.94,247.57 130.94,281.19 140.47,286.89 140.47,253.26 				"/>
				<polygon class="st25" points="130.94,247.3 130.94,280.92 140.47,286.61 140.47,252.99 				"/>
				<polygon class="st26" points="131.73,280.47 139.68,285.22 139.68,253.44 131.73,248.69 				"/>
				<polygon class="st27" points="131.73,278.78 139.68,283.53 139.68,282.11 131.73,277.36 				"/>
				<polygon class="st27" points="131.73,275.34 139.68,280.09 139.68,278.67 131.73,273.92 				"/>
				<polygon class="st27" points="131.73,271.9 139.68,276.65 139.68,275.23 131.73,270.48 				"/>
				<polygon class="st27" points="131.73,268.46 139.68,273.21 139.68,271.79 131.73,267.04 				"/>
				<polygon class="st27" points="131.73,265.02 139.68,269.77 139.68,268.35 131.73,263.6 				"/>
				<polygon class="st27" points="131.73,261.58 139.68,266.33 139.68,265.97 131.73,261.22 				"/>
				<polygon class="st27" points="131.73,259.7 139.68,264.45 139.68,264.08 131.73,259.33 				"/>
				<polygon class="st27" points="131.73,257.81 139.68,262.56 139.68,262.2 131.73,257.45 				"/>
				<polygon class="st27" points="131.73,255.93 139.68,260.68 139.68,260.32 131.73,255.57 				"/>
				<polygon class="st27" points="131.73,254.05 139.68,258.8 139.68,258.44 131.73,253.69 				"/>
				<polygon class="st27" points="131.73,252.17 139.68,256.92 139.68,256.55 131.73,251.8 				"/>
				<polygon class="st27" points="131.73,250.28 139.68,255.03 139.68,254.67 131.73,249.92 				"/>
				<polygon class="st28" points="125.69,236.6 144.45,247.83 155.84,240.86 137.08,229.63 				"/>
			</g>
			<g>
				<polygon class="st29" points="143.32,240.23 149.02,236.75 149.02,225 143.32,228.49 				"/>
				<polygon class="st30" points="133.94,234.62 143.32,240.23 143.32,228.49 133.94,222.88 				"/>
				<polygon class="st31" points="133.95,222.87 143.32,228.49 149.02,225 139.64,219.39 				"/>
			</g>
			<g>
				<polygon class="st29" points="150.25,239.88 152.19,238.7 152.19,234.7 150.25,235.89 				"/>
				<polygon class="st30" points="147.06,237.98 150.25,239.88 150.25,235.89 147.06,233.98 				"/>
				<polygon class="st31" points="147.06,233.98 150.25,235.89 152.19,234.7 149,232.79 				"/>
			</g>
			<g>
				<path class="st32" d="M139.04,306.77c0,4.04-1.96,6.18-4.38,4.79c-2.42-1.4-4.38-5.8-4.38-9.85c0-4.04,1.96-6.18,4.38-4.79
					C137.08,298.32,139.04,302.73,139.04,306.77z"/>
				<path class="st27" d="M137.59,305.93c0,2.7-1.31,4.14-2.93,3.2c-1.62-0.93-2.93-3.88-2.93-6.58c0-2.7,1.31-4.14,2.93-3.2
					C136.28,300.29,137.59,303.23,137.59,305.93z"/>
				<path class="st33" d="M145.54,253.52c-0.01,2.55,1.19,3.89,2.69,3c1.5-0.89,2.73-3.67,2.74-6.22c0.01-2.55-1.19-3.89-2.69-3
					C146.78,248.19,145.55,250.97,145.54,253.52z"/>
				<path class="st34" d="M145.58,253.36c0,2.49,1.21,3.82,2.7,2.95c1.49-0.86,2.7-3.58,2.7-6.07c0-2.49-1.21-3.82-2.7-2.95
					C146.79,248.15,145.58,250.87,145.58,253.36z"/>
				<path class="st27" d="M146.17,253.02c0,1.95,0.95,2.98,2.11,2.31c1.17-0.67,2.11-2.8,2.11-4.74s-0.95-2.98-2.11-2.31
					C147.11,248.95,146.17,251.07,146.17,253.02z"/>
				<path class="st29" d="M147.17,252.44c0,1.02,0.5,1.57,1.11,1.21c0.61-0.35,1.11-1.47,1.11-2.49c0-1.02-0.5-1.57-1.11-1.21
					C147.67,250.3,147.17,251.42,147.17,252.44z"/>
				<path class="st29" d="M147.17,261.22c0,1.02,0.5,1.57,1.11,1.21c0.61-0.35,1.11-1.47,1.11-2.49c0-1.02-0.5-1.57-1.11-1.21
					C147.67,259.08,147.17,260.2,147.17,261.22z"/>
				<path class="st35" d="M147.17,267.59c0,1.02,0.5,1.57,1.11,1.21c0.61-0.35,1.11-1.47,1.11-2.49c0-1.02-0.5-1.57-1.11-1.21
					C147.67,265.46,147.17,266.57,147.17,267.59z"/>
				<path class="st35" d="M147.17,275.06c0,1.02,0.5,1.57,1.11,1.21c0.61-0.35,1.11-1.47,1.11-2.49c0-1.02-0.5-1.57-1.11-1.21
					C147.67,272.92,147.17,274.03,147.17,275.06z"/>
				<path class="st35" d="M147.17,282.52c0,1.02,0.5,1.57,1.11,1.21c0.61-0.35,1.11-1.47,1.11-2.49c0-1.02-0.5-1.57-1.11-1.21
					C147.67,280.38,147.17,281.5,147.17,282.52z"/>
				<path class="st35" d="M147.17,289.98c0,1.02,0.5,1.57,1.11,1.21c0.61-0.35,1.11-1.47,1.11-2.49c0-1.02-0.5-1.57-1.11-1.21
					C147.67,287.84,147.17,288.96,147.17,289.98z"/>
				<path class="st35" d="M147.17,297.45c0,1.02,0.5,1.57,1.11,1.21c0.61-0.35,1.11-1.47,1.11-2.49c0-1.02-0.5-1.57-1.11-1.21
					C147.67,295.31,147.17,296.42,147.17,297.45z"/>
				<path class="st35" d="M147.17,304.91c0,1.02,0.5,1.57,1.11,1.21c0.61-0.35,1.11-1.47,1.11-2.49c0-1.02-0.5-1.57-1.11-1.21
					C147.67,302.77,147.17,303.89,147.17,304.91z"/>
				<path class="st35" d="M147.17,312.37c0,1.02,0.5,1.57,1.11,1.21c0.61-0.35,1.11-1.47,1.11-2.49c0-1.02-0.5-1.57-1.11-1.21
					C147.67,310.23,147.17,311.35,147.17,312.37z"/>
				<g>
					<path class="st27" d="M136.2,312.64c-0.53,0-1.08-0.16-1.65-0.47c-2.74-1.53-4.92-6.37-4.87-10.79
						c0.03-2.65,0.87-4.68,2.24-5.43c0.86-0.47,1.85-0.42,2.88,0.16c2.74,1.53,4.92,6.37,4.87,10.79l-0.07,0l0.07,0
						c-0.03,2.65-0.87,4.68-2.24,5.43C137.05,312.53,136.64,312.64,136.2,312.64z M133.16,295.76c-0.41,0-0.8,0.1-1.16,0.3
						c-1.33,0.73-2.15,2.72-2.18,5.32c-0.05,4.38,2.1,9.16,4.8,10.67c0.98,0.55,1.93,0.6,2.74,0.16c1.33-0.73,2.15-2.72,2.18-5.32
						c0.05-4.38-2.1-9.16-4.8-10.67C134.2,295.91,133.66,295.76,133.16,295.76z"/>
				</g>
				<g>
					<path class="st27" d="M136.61,314.88c-0.67,0-1.37-0.2-2.08-0.6c-3.46-1.93-6.22-8.05-6.15-13.63c0.04-3.34,1.1-5.91,2.83-6.86
						c1.08-0.59,2.34-0.52,3.63,0.2c3.46,1.93,6.22,8.05,6.15,13.63l-0.08,0l0.08,0c-0.04,3.34-1.1,5.91-2.83,6.86
						C137.67,314.74,137.15,314.88,136.61,314.88z M132.76,293.55c-0.52,0-1.01,0.13-1.47,0.38c-1.68,0.92-2.71,3.44-2.75,6.72
						c-0.06,5.53,2.66,11.58,6.07,13.48c1.24,0.69,2.44,0.76,3.47,0.2c1.68-0.92,2.71-3.44,2.75-6.72
						c0.06-5.53-2.66-11.58-6.07-13.48C134.07,293.75,133.39,293.55,132.76,293.55z"/>
				</g>
			</g>
			<g>
				<path class="st32" d="M130.38,286.11c0,1.43-0.69,2.18-1.55,1.69c-0.85-0.49-1.55-2.05-1.55-3.48s0.69-2.18,1.55-1.69
					C129.68,283.13,130.38,284.68,130.38,286.11z"/>
				<path class="st27" d="M129.86,285.82c0,0.95-0.46,1.46-1.03,1.13c-0.57-0.33-1.03-1.37-1.03-2.32s0.46-1.46,1.03-1.13
					C129.4,283.82,129.86,284.86,129.86,285.82z"/>
			</g>
			<g>
				<path class="st32" d="M130.38,277.9c0,1.43-0.69,2.18-1.55,1.69c-0.85-0.49-1.55-2.05-1.55-3.48s0.69-2.18,1.55-1.69
					C129.68,274.92,130.38,276.47,130.38,277.9z"/>
				<path class="st27" d="M129.86,277.6c0,0.95-0.46,1.46-1.03,1.13c-0.57-0.33-1.03-1.37-1.03-2.32s0.46-1.46,1.03-1.13
					C129.4,275.61,129.86,276.65,129.86,277.6z"/>
			</g>
			<g>
				<path class="st32" d="M130.38,269.69c0,1.43-0.69,2.18-1.55,1.69c-0.85-0.49-1.55-2.05-1.55-3.48s0.69-2.18,1.55-1.69
					C129.68,266.71,130.38,268.26,130.38,269.69z"/>
				<path class="st27" d="M129.86,269.39c0,0.95-0.46,1.46-1.03,1.13c-0.57-0.33-1.03-1.37-1.03-2.32s0.46-1.46,1.03-1.13
					C129.4,267.4,129.86,268.44,129.86,269.39z"/>
			</g>
			<g>
				<path class="st32" d="M130.38,261.48c0,1.43-0.69,2.18-1.55,1.69c-0.85-0.49-1.55-2.05-1.55-3.48s0.69-2.18,1.55-1.69
					C129.68,258.49,130.38,260.05,130.38,261.48z"/>
				<path class="st27" d="M129.86,261.18c0,0.95-0.46,1.46-1.03,1.13c-0.57-0.33-1.03-1.37-1.03-2.32c0-0.95,0.46-1.46,1.03-1.13
					C129.4,259.19,129.86,260.23,129.86,261.18z"/>
			</g>
			<g>
				<path class="st32" d="M134.68,288.25c0,1.43-0.69,2.18-1.55,1.69c-0.85-0.49-1.55-2.05-1.55-3.48s0.69-2.18,1.55-1.69
					C133.99,285.27,134.68,286.83,134.68,288.25z"/>
				<path class="st27" d="M134.17,287.96c0,0.95-0.46,1.46-1.03,1.13c-0.57-0.33-1.03-1.37-1.03-2.32s0.46-1.46,1.03-1.13
					C133.7,285.96,134.17,287,134.17,287.96z"/>
			</g>
			<g>
				<path class="st32" d="M138.98,290.4c0,1.43-0.69,2.18-1.55,1.69c-0.85-0.49-1.55-2.05-1.55-3.48s0.69-2.18,1.55-1.69
					C138.29,287.41,138.98,288.97,138.98,290.4z"/>
				<path class="st27" d="M138.47,290.1c0,0.95-0.46,1.46-1.03,1.13c-0.57-0.33-1.03-1.37-1.03-2.32s0.46-1.46,1.03-1.13
					C138.01,288.11,138.47,289.15,138.47,290.1z"/>
			</g>
		</g>
		<path class="st5" d="M132.7,236.38c0,0.61-0.79,1.1-1.76,1.1c-0.97,0-1.76-0.49-1.76-1.1c0-0.61,0.79-1.1,1.76-1.1
			C131.91,235.28,132.7,235.77,132.7,236.38z"/>
		<rect x="129.19" y="235.41" class="st5" width="3.51" height="0.98"/>
		<ellipse class="st6" cx="130.94" cy="235.41" rx="1.76" ry="1.12"/>
		<path class="st7" d="M132.7,235.39c0,0.61-0.79,1.1-1.76,1.1c-0.97,0-1.76-0.49-1.76-1.1c0-0.61,0.79-1.1,1.76-1.1
			C131.91,234.29,132.7,234.78,132.7,235.39z"/>
		<ellipse class="st6" cx="130.94" cy="235.39" rx="1" ry="0.63"/>
		<path class="st36" d="M136.48,238.25c-0.24-0.08-0.5-0.13-0.78-0.13c-0.28,0-0.54,0.05-0.78,0.13h-0.98v0.98
			c0,0.61,0.79,1.1,1.76,1.1s1.76-0.49,1.76-1.1v-0.98H136.48z"/>
		<ellipse class="st4" cx="135.7" cy="238.25" rx="1.76" ry="1.12"/>
		<path class="st27" d="M137.46,238.23c0,0.61-0.79,1.1-1.76,1.1c-0.97,0-1.76-0.49-1.76-1.1c0-0.61,0.79-1.1,1.76-1.1
			C136.67,237.13,137.46,237.63,137.46,238.23z"/>
		<path class="st4" d="M136.68,238.23c0,0.34-0.44,0.61-0.97,0.61c-0.54,0-0.97-0.27-0.97-0.61c0-0.34,0.44-0.61,0.97-0.61
			C136.24,237.62,136.68,237.9,136.68,238.23z"/>
		<path class="st37" d="M141.25,241.09c-0.24-0.08-0.5-0.13-0.78-0.13c-0.28,0-0.54,0.05-0.78,0.13h-0.98v0.98
			c0,0.61,0.79,1.1,1.76,1.1c0.97,0,1.76-0.49,1.76-1.1v-0.98H141.25z"/>
		<path class="st38" d="M142.22,241.09c0,0.62-0.79,1.12-1.76,1.12c-0.97,0-1.76-0.5-1.76-1.12c0-0.62,0.79-1.12,1.76-1.12
			C141.44,239.97,142.22,240.47,142.22,241.09z"/>
		<path class="st31" d="M142.22,241.08c0,0.61-0.79,1.1-1.76,1.1c-0.97,0-1.76-0.49-1.76-1.1c0-0.61,0.79-1.1,1.76-1.1
			C141.44,239.97,142.22,240.47,142.22,241.08z"/>
		<path class="st39" d="M141.42,241.08c0,0.33-0.43,0.6-0.95,0.6c-0.53,0-0.95-0.27-0.95-0.6c0-0.33,0.43-0.6,0.95-0.6
			C141,240.48,141.42,240.74,141.42,241.08z"/>
	</g>
	<g>
		<path class="st40" d="M182.64,119.56c0,0-7.07-3.43-10.91,4.34c-3.64,0.65-6.26,1.96-7.08,4.18c-2.38,2.29-4.06,5.39-4.06,5.39
			l-1.74,4.73l-1.33,4.53l-2.27,5.85c0,0,1.47,13.07,5.33,16.18c1.68,3.94,5.25,8.99,6.9,9.39c2.99,2.56,5.44,3.08,5.44,3.08
			s4.23,4.25,7.31,6.3c3.08,2.05,5.24,2.53,5.24,2.53l11.76,3.22l2.58,0.62l4.43,0.62l6.39,2.81l7.04-2.09c0,0,7.16-1.05,11.34-5.71
			c4.02,0.01,7.86-1.72,9.32-3.14c1.45-1.42,4-3.79,4-3.79l2.8-3.41c0,0,0.62-7.11,0-11.38c-0.47-9.55-3.93-17.34-3.93-17.34
			s-1.55-3.86-3.41-5.46c-0.92-2.95-2.27-4.83-4.05-6.31c-1.24-2.26-4.15-5.27-7.27-6.52c-2.08-3.64-7.17-7.69-12.26-8.63
			c-3.43-2.49-7.31-1.61-9.02-2.05c-2.73-1.59-5.28-3.07-11.3-1.88C190.96,115.41,185.14,116.44,182.64,119.56z"/>
		<path class="st41" d="M246.02,165.11c1.73-9.01-3.14-17.09-4.18-18.69c0.2-3.34-2.26-5.42-3.21-6.1c-0.69-3.7-3.26-5.53-4.22-6.1
			c-1.47-4.36-5.76-6.24-7.12-6.74c-2.59-5.9-10.5-8-12.21-8.39c-3.32-3.85-7.93-3.18-9.28-2.87c-6.41-3.49-10.84-2.17-11.87-1.78
			c-8.23-0.33-11.44,3.1-12.09,3.92c-0.48-0.05-0.97-0.1-1.49-0.16c-3.74-0.43-8.42,1.65-9.66,5.11c-1.88,0.02-4.87,0.95-6.62,4.41
			c-0.01,0.01-0.01,0.02-0.01,0.02c-0.02,0.04-0.04,0.06-0.06,0.1c-0.78,0.52-3.1,2.29-3.29,5.13c-0.83,0.91-3.42,4.03-3.56,7.62
			c-0.62,0.92-2.36,4.16-1.78,10.59c0.66,7.29,1.36,12.27,4.53,13.66c0.32,1.66,1.66,6.56,6.78,9.52c0.46,0.83,2.08,3.01,6.45,3.71
			c0,0.01,0.01,0.01,0.01,0.02c0.03,0.21,0.08,0.38,0.13,0.46c0.03,0.04,0.08,0.05,0.12,0.09c1,1.99,3.96,5.98,12.09,7.43
			c0.63,0.77,2.43,2.44,6.43,2.51c0.68,0.44,2.55,1.39,5.84,1.15c0.67,0.81,2.35,2.14,5.96,1.57c0.95,0.71,3.74,2.5,7.79,2.5
			c1.89,0,4.06-0.39,6.44-1.46c1.19-0.11,7.93-0.95,11.27-5.86c0.36,0.04,0.72,0.1,1.06,0.1c4.19,0,7.21-2.84,8.01-3.67
			c2.77-0.72,3.82-2.59,4.08-3.89c3.54-1.5,4.2-5.69,4.03-7.97C247.57,168.03,246.57,165.94,246.02,165.11z M236.59,172.07
			c0,0-0.01,0-0.01,0c0,0,0,0-0.01,0c0,0,0,0,0,0c-1.74,0.45-2.98,1.36-3.78,2.09c-0.04-0.21-0.22-1.09-0.51-2.4
			c0.63-0.08,1.17-0.29,1.56-0.73c1.2-1.35,1.16-4.34-0.13-9.69c-1.47-6.05-3.75-8.07-3.84-8.15c-0.18-0.16-0.46-0.14-0.62,0.05
			c-0.16,0.18-0.14,0.46,0.04,0.63c0.02,0.02,2.17,1.96,3.56,7.69c0.44,1.8,1.77,7.29,0.33,8.89c-0.26,0.29-0.64,0.41-1.09,0.45
			c-0.96-4.2-2.78-11.34-4.97-15.49c-0.75-1.42-1.67-2.89-2.68-4.37c0.36,0.06,0.75,0.11,1.19,0.11c0.75,0,1.59-0.13,2.43-0.51
			c0.51-0.23,0.93-0.63,1.26-1.14c0.62,0.07,3.49,0.63,4.86,4.66c0.6,1.77,1.13,3.78,1.64,5.73c0.91,3.46,1.69,6.45,2.7,7.35
			c0.13,0.11,0.28,0.23,0.43,0.35c0.26,0.54,0.29,1.61-0.15,2.62C238.49,170.87,237.86,171.74,236.59,172.07z M228.46,173.43
			c-0.02,0-0.03-0.01-0.05-0.01c0,0,0,0.01-0.01,0.01c-0.15,0-0.31-0.02-0.46,0c-0.7,0.12-1.23,0.66-1.79,1.24
			c-0.71,0.73-1.44,1.49-2.6,1.56c-2.14,0.14-3.82-1.77-4.6-3.44c-0.71-1.55-0.66-2.68-0.63-2.95c0.22-0.23,0.42-0.5,0.62-0.86
			l0.38-0.69c1.05-1.9,2.11-3.85,1.94-5.34c0.9,0.2,2.03,0.34,3.05,0.47c0.65,0.08,1.24,0.16,1.63,0.23
			c0.83,0.16,2.23,1.03,2.85,1.45c0.19,0.68,0.38,1.36,0.55,2.02c-1.44-0.7-3.57-1.56-5.15-1.07c-1.15,0.36-2.01,1.15-2.38,2.17
			c-0.32,0.9-0.21,1.89,0.29,2.64c0.76,1.14,0.17,3.08,0.17,3.1c-0.07,0.23,0.06,0.48,0.29,0.55c0.04,0.01,0.09,0.02,0.13,0.02
			c0.19,0,0.36-0.12,0.42-0.31c0.03-0.1,0.72-2.36-0.28-3.85c-0.35-0.52-0.42-1.21-0.19-1.85c0.27-0.77,0.91-1.35,1.8-1.62
			c1.52-0.47,4,0.75,5.18,1.36c0.59,2.36,1.03,4.35,1.25,5.41c-0.29,0.08-0.67,0.04-1.26-0.09
			C229.23,173.5,228.85,173.44,228.46,173.43z M205.75,182.88c-0.64,0.1-4.89-0.05-6.46-2.07c-0.36-0.46-0.65-0.87-0.9-1.23
			c-1.08-1.5-1.62-2.26-3.83-2.52c-2.35-0.28-6.64-1.26-7.81-3.19c-1.05-1.73-1.29-3.71-1.33-4.14c0.15-0.4,0.58-1.25,1.21-1.53
			c0.3-0.14,0.62-0.13,0.98,0.02c1.7,0.72,4.9,1.24,7.08,0.81c-0.4,0.91-0.92,2.4-0.88,3.73c-3.53,0.59-4.93-1.27-4.99-1.36
			c-0.14-0.2-0.41-0.25-0.62-0.11c-0.2,0.14-0.25,0.41-0.11,0.62c0.06,0.09,1.33,1.88,4.39,1.88c0.44,0,0.94-0.06,1.46-0.15
			c0.07,0.24,0.15,0.49,0.28,0.7c1.05,1.65,3.13,1.21,4.1,0.88c0.24,0.97,1.06,2.86,3.72,3.45c0.27,0.06,0.54,0.09,0.81,0.09
			c1.31,0,2.54-0.67,3.83-1.37c1.96-1.06,3.98-2.16,6.78-1.46c0.24,0.06,0.48-0.08,0.54-0.32c0.06-0.24-0.08-0.48-0.32-0.54
			c-3.14-0.79-5.42,0.45-7.42,1.54c-1.46,0.8-2.73,1.48-4.02,1.19c-2.78-0.62-3.09-2.82-3.12-3.15c1.84-7.76,9.28-7.86,9.61-7.86
			c0,0,0,0,0,0h0c0.24,0,0.44-0.2,0.44-0.44c0-0.25-0.2-0.44-0.44-0.44h0c-0.11,0-8.34,0.1-10.42,8.37
			c-0.58,0.23-2.51,0.86-3.33-0.43c-0.83-1.29,0.29-4.05,0.86-5.14c0.69-0.46,4.51-3.12,6.07-6.5c0.34,0.32,0.72,0.56,1.18,0.65
			c1.2,0.22,2.7-0.09,4.15-0.4c1.12-0.24,2.18-0.46,2.98-0.41c1.71,0.11,2.93,1.42,2.93,1.81c-0.01,0.11-0.15,0.52-0.27,0.85
			c-0.38,1.09-0.89,2.64-0.61,3.79c-5.18,0.71-8.21,4.9-8.34,5.08c-0.14,0.2-0.09,0.48,0.11,0.62c0.08,0.05,0.17,0.08,0.25,0.08
			c0.14,0,0.28-0.07,0.36-0.19c0.03-0.04,3.03-4.23,8.02-4.77c0.21,0.22,0.46,0.4,0.79,0.49c0.36,0.1,0.71,0.21,1.03,0.32
			c0.73,0.24,1.45,0.47,2.12,0.47c0.29,0,0.57-0.07,0.84-0.17c0.03,0.64,0.18,1.58,0.71,2.73c0.29,0.63,0.71,1.29,1.22,1.89
			c-0.13,0.55-0.75,2.29-3.37,2.51c-3.28,0.28-5.59,1.25-7.95,3.37c-0.39,0.35-0.79,0.67-1.16,0.98
			C206.47,182.24,206.09,182.56,205.75,182.88z M183.95,177.87c-2.11-0.11-3.36-0.85-4.58-1.55c-1.04-0.61-2.03-1.19-3.41-1.26
			c-0.87-0.04-1.44,0.17-1.86,0.46c-0.48-2.64-2.31-5.08-4.11-7.45c-1.21-1.59-2.34-3.09-2.97-4.53c-1.08-2.49-0.76-3.82-0.45-4.43
			c1.09,1.78,2.17,3.17,2.43,3.51c0.84,1.06,2.16,2.51,3.68,3.95c0.09,0.85,0.75,5.77,4.57,7.92c2.36,1.33,5.38,1.61,7.52,1.61
			c1.51,0,2.58-0.14,2.69-0.15c0.07-0.01,0.12-0.06,0.17-0.1c0.15,0.09,0.29,0.19,0.46,0.28c0,0,0,0,0,0
			c-0.07,0.1-0.13,0.21-0.19,0.33C187.63,177.01,187.13,178.05,183.95,177.87z M165.1,151.2c1.06-2.3,3.03-1.66,3.14-1.62
			c0.28,1.62,0.74,3,1.35,3.84c0.98,1.34,1.87,1.67,2.5,1.67c0.46,0,0.79-0.17,0.9-0.25c0.46-0.29,0.5-0.63,0.38-0.85
			c-0.12-0.21-0.39-0.29-0.6-0.17c-0.1,0.05-0.17,0.14-0.2,0.24c-0.07,0.06-0.25,0.16-0.5,0.15c-0.53-0.02-1.16-0.48-1.76-1.31
			c-1.64-2.25-2.49-9.91,0.61-14.89c3.09-4.95,7.73-6.07,10.1-5.61c1.86,0.36,4.97,2.58,5.1,3.95c0.02,0.16,0.06,0.59-0.83,0.94
			c-4.06,1.6-4.81,5.4-4.94,6.71c-0.6,0.02-1.78,0.17-3.5,0.84c-0.86,0.33-1.65,0.85-2.42,1.34c-1.77,1.14-2.54,1.52-3.14,0.67
			c-1.1-1.59,1.05-6.59,3.7-8.64c2.27-1.75,4.06-2.24,4.37-2.01c0.04,0.03,0.06,0.21-0.06,0.55c-0.7,2.02-4.36,5.61-4.4,5.64
			c-0.18,0.17-0.18,0.45-0.01,0.63c0.17,0.17,0.45,0.18,0.63,0.01c0.16-0.15,3.86-3.77,4.62-5.99c0.31-0.91,0.03-1.35-0.27-1.56
			c-1-0.72-3.52,0.55-5.43,2.03c-2.88,2.22-5.38,7.69-3.89,9.85c0.34,0.49,0.72,0.71,1.14,0.79c-0.56,1.52-0.69,2.85-0.7,2.91
			c-0.02,0.24,0.16,0.46,0.4,0.48c0.01,0,0.03,0,0.04,0c0.23,0,0.42-0.17,0.44-0.4c0-0.01,0.15-1.49,0.79-3.04
			c0.74-0.21,1.51-0.7,2.24-1.17c0.73-0.47,1.49-0.96,2.26-1.26c1.71-0.66,2.8-0.77,3.27-0.78c0.03,0.03,0.04,0.07,0.08,0.08
			c0.01,0.01,1.14,0.58,3.3,3.5c1.08,1.47,2.78,2.29,4.54,2.63c-1.39,3.28-4.69,4.29-6.3,4.57c0.44-0.83,0.74-1.85,0.86-3.16
			c0.33-3.61-1.43-4.62-2.2-4.88c-1.55-0.54-3.58,0.21-4.53,1.67c-0.99,1.53-0.58,3.07,0.12,4c0.72,0.95,1.79,1.38,2.72,1.09
			c0.23-0.07,0.36-0.32,0.29-0.56c-0.07-0.23-0.32-0.36-0.56-0.29c-0.56,0.17-1.26-0.14-1.74-0.78c-0.53-0.69-0.82-1.84-0.09-2.98
			c0.72-1.12,2.32-1.72,3.49-1.31c1.23,0.43,1.8,1.83,1.61,3.96c-0.43,4.64-3.23,5.31-7.11,6.23c-0.62,0.15-1.26,0.3-1.91,0.47
			c-1.45,0.39-2.35,1.09-2.67,2.1c-0.16,0.48-0.16,0.99-0.08,1.47c-0.18-0.22-0.39-0.45-0.54-0.64
			C166.78,158.36,164.09,153.39,165.1,151.2z M233.14,150.15c-0.07,0.09-0.17,0.18-0.28,0.22c-1.22-1.18-2.48-1.59-3.16-1.71
			c0.14-0.38,0.24-0.79,0.28-1.24c0.19-2.14-0.77-4.28-2.47-5.46c-1.96-1.37-3.44-1.85-4.51-1.46c-0.68,0.25-1.14,0.82-1.38,1.71
			c-0.17,0.64-0.01,1.34,0.49,2.06c1.02,1.49,3.17,2.73,4.13,2.84c0.25,0.03,0.46-0.15,0.49-0.39c0.03-0.24-0.15-0.46-0.39-0.49
			c-0.67-0.07-2.61-1.16-3.49-2.46c-0.34-0.5-0.47-0.95-0.36-1.33c0.16-0.6,0.43-0.96,0.83-1.1c0.53-0.19,1.6-0.11,3.69,1.35
			c1.75,1.22,2.22,3.27,2.09,4.65c-0.11,1.2-0.64,2.13-1.42,2.48c-1.66,0.76-3.37,0.32-4.03,0.1c-2.32-3.25-5.02-6.5-7.48-9.41
			c0.49-0.15,1.02-0.53,1.7-1.01c1.54-1.1,3.65-2.6,6.6-2.34c4.65,0.42,8.16,2.97,8.96,6.5
			C234.13,146.77,233.81,149.28,233.14,150.15z M212.72,142.47l-0.25-1.86c-0.03-0.24-0.26-0.41-0.5-0.38
			c-0.24,0.03-0.41,0.26-0.38,0.5l0.14,1.01c-0.69-0.48-1.23-0.83-1.28-0.86c-0.21-0.13-0.48-0.07-0.61,0.14
			c-0.13,0.21-0.07,0.48,0.14,0.61c0.03,0.02,2.81,1.75,3.93,3.1c1.09,1.3,2.11,5.39,2.26,6.56c0.15,1.15,1.56,2.79,4.3,5.02
			c1.85,1.51,4.64,1.85,5.99,1.93c0.7,1.68,1.35,3.62,1.93,5.58c-0.7-0.42-1.62-0.9-2.32-1.03c-0.41-0.08-1.01-0.15-1.68-0.24
			c-1.24-0.16-2.78-0.35-3.66-0.63c-0.6-0.19-1.19-0.95-1.94-1.91c-0.74-0.95-1.66-2.12-2.94-3.19l-0.6-0.49
			c-2.13-1.76-2.93-2.41-3.17-3.69c-0.1-0.55,0.02-1.14,0.16-1.76c0.21-0.97,0.45-2.08-0.21-3.19c-0.86-1.45-3.06-3.66-3.68-4.27
			c0.13-0.66,0-1.52-0.16-2.38c-0.19-1-0.43-2.25,0.04-2.4c1.08-0.34,2.76-0.35,3.75-0.32c0.59,0.71,1.21,1.44,1.88,2.22
			c4,4.71,8.98,10.57,11.68,15.69c0.18,0.34,0.36,0.71,0.53,1.09c-1.36-0.12-3.57-0.5-5.04-1.69c-3.31-2.68-3.91-3.94-3.98-4.45
			c-0.16-1.17-1.19-5.5-2.46-7.02C214.12,143.6,213.42,143,212.72,142.47z M218.53,167.87l-0.38,0.7c-0.82,1.51-1.59,1.33-3.41,0.74
			c-0.34-0.11-0.69-0.22-1.07-0.33c-0.26-0.07-0.43-0.2-0.54-0.41c-0.42-0.81,0.18-2.52,0.54-3.54c0.14-0.41,0.22-0.66,0.27-0.86
			c0.24-0.12,1-0.39,2.54,0.14c0.05,0.02,0.1,0.02,0.14,0.02c0.18,0,0.36-0.12,0.42-0.3c0.08-0.23-0.04-0.48-0.28-0.56
			c-1.48-0.51-2.43-0.39-2.97-0.2c-0.49-0.91-1.89-1.97-3.56-2.08c-0.91-0.06-2.03,0.18-3.22,0.43c-1.37,0.29-2.79,0.59-3.81,0.4
			c-1.64-0.31-2.33-3.65-2.15-5.29c0.17-1.5,2.36-3.74,3.62-4.01c1.07-0.23,4.79-0.1,6.54-0.01c0.01,0.04,0,0.07,0,0.11
			c0.23,1.22,0.88,1.99,2.15,3.09c-1.68-0.2-4.38-0.23-6.99,0.9l-1.56-0.95c-0.21-0.13-0.48-0.06-0.61,0.15
			c-0.13,0.21-0.06,0.48,0.15,0.61l1.19,0.72l-1.22,0.92c-0.2,0.15-0.23,0.43-0.09,0.62c0.09,0.12,0.22,0.18,0.35,0.18
			c0.09,0,0.19-0.03,0.27-0.09l1.71-1.29c3.66-1.67,7.7-0.76,8.15-0.65l0.58,0.48c1.21,1,2.06,2.09,2.81,3.05
			c0.77,0.98,1.4,1.76,2.15,2.1C220.78,163.78,219.54,166.04,218.53,167.87z M195.47,167.87c-1.69,0.86-5.66,0.32-7.53-0.47
			c-0.59-0.25-1.16-0.25-1.69-0.01c-1.16,0.53-1.69,2.07-1.71,2.14c-0.01,0.03-0.01,0.06-0.01,0.09c0,0.01-0.01,0.01-0.01,0.02
			c0,0.01-0.07,0.77-0.71,1.26c-0.58,0.45-1.46,0.55-2.62,0.32c-2.56-0.52-6.31-3.66-9-6.4c-0.44-0.55-1.41-2.13-1.02-3.31
			c0.23-0.7,0.92-1.21,2.06-1.51c0.64-0.17,1.27-0.32,1.89-0.47c2.51-0.6,4.8-1.16,6.25-2.86c1.02-0.09,6.15-0.78,7.93-5.45
			c0.32,0.03,0.65,0.09,0.97,0.09c1.6,0,3.1-0.37,4.08-1.02c2.33-1.52,4.6-5.44,4.7-5.61c0.02-0.04,0.01-0.08,0.02-0.12
			c1.06,0.22,2.58,0.34,4.12,0.34c0.55,0,1.09-0.02,1.6-0.05c0.18,0.58,0.49,1.98-0.17,3.13c-0.55,0.96-1.66,1.57-3.3,1.82
			c-5.93,0.88-8.53,5.06-8.64,5.24c0,0,0,0.01,0,0.01c-1.19,0.86-2.19,2.04-2.79,3.5c-0.32,0.78-0.49,1.53-0.51,2.19
			c-0.82-0.34-2.35-0.76-4.46-0.4c-3.18,0.54-3.72,2.74-4.08,4.19l-0.05,0.2c-0.4,1.6,0.5,3.81,0.54,3.9
			c0.07,0.17,0.24,0.27,0.41,0.27c0.06,0,0.11-0.01,0.17-0.03c0.23-0.09,0.33-0.35,0.24-0.58c-0.23-0.56-0.77-2.25-0.5-3.35
			l0.05-0.21c0.36-1.45,0.76-3.09,3.37-3.53c2.6-0.45,4.22,0.43,4.46,0.57c0.06,0.18,0.11,0.36,0.2,0.5c0.57,0.85,1.83,1.6,3.15,1.6
			c0.21,0,0.43-0.02,0.64-0.06c0.85-0.17,2.37-0.86,2.93-3.62c0.05-0.24-0.11-0.47-0.35-0.52c-0.24-0.05-0.47,0.11-0.52,0.35
			c-0.34,1.7-1.12,2.71-2.23,2.93c-1.11,0.22-2.39-0.42-2.88-1.16c-0.28-0.43-0.33-1.52,0.24-2.91c0.34-0.83,1.7-3.58,4.88-4.24
			c3.67-0.76,4.61,0.93,4.78,1.35c-0.07,0.21-0.13,0.42-0.15,0.62c-0.14,1.3,0.17,3.43,1.07,4.85
			C200.02,164.57,196.43,167.21,195.47,167.87z M184.75,171.18c0.2,0.89,0.57,2.05,1.23,3.15c0.18,0.29,0.43,0.55,0.69,0.8
			c-1.6,0.13-5.95,0.3-8.99-1.41c-2.6-1.46-3.57-4.49-3.93-6.17c2.42,2.16,5.16,4.13,7.26,4.55c0.45,0.09,0.87,0.14,1.26,0.14
			c0.84,0,1.53-0.21,2.07-0.62C184.52,171.47,184.63,171.32,184.75,171.18z M186.12,137.83c0.33,0.05,1.35,0.21,2.59,0.21
			c1.6,0,3.47-0.27,4.37-1.38c1.41-1.74,1.57-3.88,1.58-4.52c0.28-0.28,1.31-1,3.3-0.02c-1.27,1.09-1.62,3.5-1.9,5.39l-0.07,0.48
			c-0.39,2.57,2.15,6.12,2.26,6.28c-0.09,0.16-2.29,3.91-4.4,5.29c-2.17,1.42-7.22,1.27-9.34-1.59c-1.69-2.3-2.79-3.23-3.31-3.58
			c0.01-0.51,0.24-4.61,4.41-6.25C185.82,138.03,185.96,137.93,186.12,137.83z M207.63,144.41c0.12-0.05,0.17-0.15,0.25-0.21
			c0.73,0.72,2.65,2.68,3.39,3.94c0.48,0.81,0.3,1.66,0.11,2.55c-0.08,0.36-0.15,0.74-0.19,1.11c-1.34-0.07-5.43-0.24-6.7,0.03
			c-1.18,0.25-2.84,1.69-3.72,3.2c-0.64-0.84-2.1-1.93-5.4-1.25c-0.26,0.05-0.49,0.18-0.74,0.26c1.24-1.23,3.44-2.87,6.79-3.37
			c1.93-0.29,3.26-1.05,3.95-2.26c0.76-1.34,0.51-2.84,0.3-3.63C206.49,144.7,207.2,144.58,207.63,144.41z M210.48,133.51
			c-0.05-0.08-0.14-0.17-0.19-0.25c0.36-0.03,0.78-0.09,1.27-0.2c-0.28,0.32-0.49,0.68-0.63,1.07
			C210.77,133.92,210.6,133.7,210.48,133.51z M208.75,134.18c-1.62-0.01-4.17,0.13-5.75,1.05c-0.81,0.47-1.46,1.15-1.97,1.84
			c-0.01,0.01-0.01,0.01-0.02,0.02c-1,1.37-1.47,2.79-1.49,2.88c-0.07,0.23,0.06,0.48,0.29,0.55c0.04,0.01,0.09,0.02,0.13,0.02
			c0.19,0,0.37-0.12,0.42-0.31c0.01-0.02,0.28-0.85,0.83-1.81c0.74,1.55,2.73,2.08,3.86,2.13c0.01,0,0.01,0,0.02,0
			c0.24,0,0.43-0.19,0.44-0.43c0.01-0.24-0.18-0.45-0.42-0.46c-0.12-0.01-2.96-0.17-3.26-2.18c0.44-0.57,0.96-1.11,1.61-1.48
			c1.63-0.94,4.59-0.96,5.98-0.91c0.49,0.67,1.09,1.45,1.82,2.33c-1.02,0-2.32,0.08-3.27,0.37c-1.22,0.39-0.92,2-0.65,3.42
			c0.18,0.93,0.42,2.21-0.01,2.38c-1.47,0.57-6.46,0.57-8.43,0.03c-0.43-0.63-2.32-3.52-2.02-5.5l0.07-0.48
			c0.42-2.85,0.9-5.22,2.65-5.22c1.88,0,5.96,0,7.7,0C207.85,133.03,208.35,133.62,208.75,134.18z M206.43,131.52
			c-1.99,0-5.24,0-6.86,0c-0.25,0-0.46,0.06-0.67,0.11c-0.02-0.02-0.02-0.04-0.04-0.06c-2.76-1.62-4.31-0.56-4.81-0.08
			c-3.49-0.68-5.83,1.5-5.93,1.6c-0.18,0.17-0.18,0.45-0.01,0.63c0.09,0.09,0.2,0.14,0.32,0.14c0.11,0,0.22-0.04,0.31-0.12
			c0.09-0.08,2.06-1.9,5.01-1.39c-0.05,0.72-0.28,2.39-1.37,3.75c-0.97,1.21-3.86,1.14-5.53,0.94c0.12-0.29,0.16-0.56,0.14-0.77
			c-0.1-1.06-1.19-2.23-2.49-3.15c1.56-1.25,7.74-5.35,19.55-3.74C204.91,130.09,205.71,130.81,206.43,131.52z M239.59,170.56
			c0.33-0.73,0.44-1.55,0.39-2.29c0.48,0.25,1,0.43,1.55,0.43c0.2,0,0.4-0.02,0.6-0.07c0.97-0.23,1.81-1.01,2.54-2.34
			c0.34,0.61,0.82,1.96,0.13,3.92c-0.9,0.58-2.58,1.14-5.25,0.43C239.56,170.61,239.58,170.58,239.59,170.56z M205.24,117.95
			l0.33,0.19l0.36-0.11c0.05-0.01,4.86-1.41,7.97,2.44l0.2,0.25l0.32,0.06c0.09,0.02,8.54,1.75,11.13,7.24
			c-2.07,0-5.03,0.46-6.73,2.89c-0.7,0.99-0.85,1.8-0.47,2.39c0.86,1.33,4.11,0.93,7.51,0.3c1.39-0.26,2.84,1.06,4.24,2.35
			c0.85,0.78,1.73,1.58,2.61,2.04c0.07,0.03,0.14,0.05,0.21,0.05c0.16,0,0.31-0.09,0.39-0.24c0.11-0.22,0.03-0.49-0.19-0.6
			c-0.79-0.41-1.58-1.14-2.43-1.91c-1.56-1.43-3.17-2.9-5.01-2.56c-3.94,0.74-6.16,0.77-6.6,0.09c-0.17-0.26-0.01-0.75,0.45-1.4
			c1.57-2.24,4.51-2.55,6.4-2.49l0,0l0.42,0.13c0.05,0.02,5.16,1.6,6.45,6.03l0.11,0.38l0.36,0.17c0.03,0.01,3.1,1.5,3.65,5.34
			l0.06,0.42l0.36,0.22c0.12,0.07,2.73,1.7,2.68,4.53c-0.43,0.03-0.94,0.14-1.41,0.52c-1.11,0.89-1.53,2.74-1.25,5.5
			c0.58,5.79,2.17,10.49,3.96,11.7c0.37,0.25,0.7,0.33,0.98,0.33c0.15,0,0.29-0.02,0.4-0.06c0.3-0.08,0.71-0.31,0.96-0.92
			c0.85-1.99-0.54-7.01-1.83-9.46c-0.11-0.22-0.38-0.3-0.6-0.19c-0.22,0.11-0.3,0.38-0.19,0.6c1.2,2.27,2.51,7.03,1.8,8.69
			c-0.15,0.34-0.33,0.39-0.39,0.41c-0.2,0.06-0.41,0.01-0.64-0.15c-1.31-0.89-2.96-4.97-3.57-11.05c-0.31-3.03,0.33-4.24,0.92-4.71
			c0.31-0.25,0.64-0.32,0.93-0.35l0.1,0.14c0.06,0.09,5.97,8.73,4.01,17.97l-0.03,0.13c-0.67,1.44-1.42,2.31-2.25,2.5
			c-1.05,0.25-2.12-0.57-2.83-1.2c-0.82-0.72-1.64-3.87-2.43-6.91c-0.51-1.96-1.04-3.99-1.66-5.79c-0.41-1.21-0.95-2.13-1.53-2.85
			c0.12-0.09,0.25-0.16,0.37-0.32c0.96-1.25,1.14-4.15,0.45-7.22c-0.88-3.92-4.71-6.74-9.75-7.19c-3.27-0.29-5.63,1.39-7.19,2.5
			c-0.6,0.43-1.12,0.8-1.47,0.9c-0.12,0.03-0.28,0.01-0.47-0.05c-0.07-0.08-0.14-0.16-0.21-0.24c-1.34-1.57-2.53-2.98-3.46-4.16
			c-0.01-0.05-0.05-0.11-0.06-0.16c-0.27-1.33,1.88-2.57,2.74-2.93c0.02-0.01,0.02-0.03,0.04-0.04c0.39-0.17,0.77-0.31,1.21-0.53
			c0.22-0.11,0.31-0.37,0.21-0.59c-0.11-0.22-0.37-0.32-0.59-0.21c-3.12,1.5-4.83,1.69-5.67,1.64c-0.87-1.07-1.97-2.21-3.24-3.35
			c-0.07-0.63,0.26-1.31,0.89-1.85c1.05-0.89,4.04-1.47,5.1-1.62c0.24-0.03,0.41-0.26,0.38-0.5c-0.03-0.24-0.26-0.42-0.5-0.38
			c-0.17,0.02-4.08,0.59-5.55,1.82c-0.6,0.51-0.99,1.14-1.14,1.79c-2.28-1.95-4.91-3.8-7.4-5.21c1.03-3.2,5.7-3.62,5.75-3.62
			c0.24-0.02,0.43-0.23,0.41-0.47c-0.02-0.24-0.23-0.43-0.47-0.41c-0.22,0.02-5.17,0.46-6.47,4.07c-0.91-0.49-1.8-0.92-2.63-1.25
			c-1.59-0.62-2.96-1.09-4.2-1.47c1.52-0.53,2.67-1.25,3.34-2.2c0.43-0.61,0.58-1.19,0.64-1.64
			C194.96,115.94,198.96,114.41,205.24,117.95z M193.6,116.23c-0.06,0.3-0.17,0.64-0.44,1.01c-0.53,0.76-1.71,1.68-4.19,2.26
			c-1.78-0.45-3.31-0.7-4.85-0.89C185.42,117.59,188.26,116.08,193.6,116.23z M164.86,129.41c0.93,0.16,2.94,0.65,3.08,1.88
			c0.05,0.43-0.48,1.67-1.38,2.58c-0.51,0.51-0.99,0.77-1.38,0.74c-1.26-0.12-2.48-1.24-2.68-1.43
			C162.59,131.2,164.22,129.86,164.86,129.41z M162.14,134.05c0.56,0.47,1.71,1.32,2.95,1.44c0.05,0.01,0.1,0.01,0.16,0.01
			c0.62,0,1.29-0.34,1.94-1c0.97-0.98,1.72-2.49,1.63-3.3c-0.17-1.57-1.99-2.25-3.22-2.54c0.09-0.19,0.2-0.35,0.3-0.52
			c1.84-0.31,5.08-0.68,6.72,0.22c0.61,0.34,0.93,0.68,0.95,1.02c0.05,0.88-1.72,2.16-2.77,2.93c-2.34,1.69-4.63,5.14-5.76,7.62
			c-0.24,0.53-0.8,0.92-1.65,1.14c-1.49,0.39-3.37,0.16-4.45-0.23C158.96,137.5,161.77,134.44,162.14,134.05z M158.59,141.65
			c0.82,0.3,1.93,0.5,3.06,0.5c0.68,0,1.35-0.07,1.96-0.23c1.1-0.29,1.87-0.85,2.23-1.63c1.09-2.38,3.27-5.67,5.48-7.27
			c1.76-1.28,3.22-2.44,3.14-3.7c-0.04-0.67-0.5-1.25-1.41-1.74c-1.63-0.89-4.46-0.72-6.45-0.45c1.95-2.3,4.5-2.02,4.63-2.01
			l0.28,0.04c1,0.24,2.36,0.45,3.85,0.45c1.01,0,2.08-0.1,3.13-0.35c4-0.96,8.1-3.05,8.28-3.14c0.22-0.11,0.3-0.38,0.19-0.6
			c-0.11-0.22-0.38-0.31-0.6-0.19c-0.04,0.02-4.18,2.13-8.08,3.07c-2.27,0.55-4.52,0.31-6.05,0c0.59-2.89,4.81-4.8,7.92-4.44
			c0.59,0.07,1.15,0.13,1.69,0.18c3.68,0.39,6.59,0.7,12.26,2.92c0.69,0.27,1.42,0.62,2.18,1.02c-0.12,0.62-1.13,1.36-3.17,1.64
			c-3.07,0.41-6.88,1.94-8.52,2.59c-0.4,0.16-0.67,0.27-0.77,0.3c-0.24,0.05-0.39,0.28-0.34,0.52c0.04,0.21,0.23,0.36,0.44,0.36
			c0.03,0,0.06,0,0.08-0.01c0.12-0.02,0.32-0.1,0.93-0.34c1.6-0.64,5.35-2.14,8.31-2.54c2.08-0.28,3.43-1.06,3.81-2.1
			c1.88,1.04,3.85,2.36,5.7,3.8c-11.88-1.23-17.76,3.2-19.02,4.29c-0.89-0.53-1.81-0.93-2.54-1.07c-0.48-0.09-1.05-0.1-1.67-0.07
			c-0.25-0.64-0.7-2.56,1.81-4.09c3.31-2.01,7.67-2.9,7.71-2.91c0.24-0.05,0.4-0.28,0.35-0.52c-0.05-0.24-0.28-0.4-0.52-0.35
			c-0.18,0.04-4.55,0.93-8,3.02c-2.79,1.7-2.56,3.92-2.25,4.94c-2.66,0.43-6.02,2.1-8.45,5.99c-2.01,3.23-2.5,7.61-2.09,11.1
			c-0.87-0.14-2.72-0.12-3.78,2.19c-0.46,1-0.33,2.31,0.1,3.69c-0.45,0.41-1.82,1.45-3.97,1.01c-1.54-0.31-2.52-1.58-3.09-2.57
			c-0.05-0.53-0.1-1.06-0.16-1.61c0.13-0.59,0.74-2.6,3.25-3.16c3.36-0.76,4.39-2.52,5.38-4.75c0.1-0.22,0-0.49-0.23-0.59
			c-0.22-0.1-0.49,0-0.59,0.23c-0.95,2.13-1.79,3.57-4.76,4.24c-1.63,0.37-2.59,1.27-3.16,2.13
			C156.93,144.71,158.18,142.28,158.59,141.65z M157.53,154.79c0.66,0.73,1.55,1.39,2.71,1.62c0.42,0.09,0.82,0.12,1.19,0.12
			c1.55,0,2.66-0.65,3.26-1.11c0.23,0.58,0.49,1.16,0.78,1.73c-2.11,1.66-3.44,3.79-4,6.33l-0.53-0.15
			C158.9,162.75,158.09,159.51,157.53,154.79z M168.18,173.41l-0.12-0.3l-0.28-0.16c-3.6-2-5.12-5.13-5.76-7.08c0,0,0,0,0-0.01
			c0.01-0.06,0.01-0.16,0.02-0.28c0.17-3.15,1.49-5.7,3.86-7.63c0.05,0.1,0.11,0.19,0.16,0.29c-0.49,0.61-1.33,2.26,0.14,5.64
			c0.67,1.54,1.84,3.08,3.08,4.71c1.88,2.47,3.8,5.02,4.03,7.69C169.19,175.59,168.22,173.49,168.18,173.41z M174.65,177.06
			l-0.15-0.59l-0.12-0.01c0.32-0.36,0.81-0.55,1.53-0.51c1.17,0.06,2.02,0.56,3.01,1.14c1.24,0.73,2.65,1.55,4.98,1.67
			c0.24,0.01,0.48,0.02,0.7,0.02c0.59,0,1.07-0.06,1.5-0.13c-0.7,2.14-0.44,4.22,0.01,5.74
			C176.27,182.73,174.71,177.29,174.65,177.06z M187.47,185.54c-0.57-1.19-1.59-4.23-0.35-7.18c1.04-0.44,1.38-1.11,1.58-1.53
			c0.03-0.06,0.07-0.15,0.09-0.18c0.04-0.05,0.04-0.12,0.05-0.18c1.1,0.48,2.27,0.83,3.29,1.05c0.34,0.49,1.76,2.76,0.72,5.67
			c-0.58,1.63-0.71,2.79-0.68,3.62C189.63,186.81,188.21,186.11,187.47,185.54z M193.09,187.23c-0.1-0.65-0.1-1.83,0.58-3.73
			c0.91-2.54,0.19-4.62-0.39-5.73c0.57,0.1,1.01,0.16,1.16,0.18c1.83,0.21,2.18,0.7,3.21,2.15c0.26,0.36,0.56,0.78,0.92,1.25
			c0.54,0.7,1.31,1.2,2.12,1.56c-1.84,0.99-2.32,3.23-2.29,5l-0.31,0.03C195.31,188.22,193.71,187.57,193.09,187.23z M204.23,189.41
			l-0.43,0.08c-2.64,0.5-3.89-0.15-4.43-0.63c-0.08-0.61-0.53-4.88,2.68-5.5c0.94,0.25,1.82,0.36,2.37,0.4
			c0.2,0.01,0.34,0.02,0.5,0.02c-0.55,0.75-0.79,1.58-0.42,2.66c0.15,0.43,1.06,2.94,2.81,4.81c-1.69-0.65-2.67-1.48-2.76-1.55
			L204.23,189.41z M217.66,190.59l-0.16,0.01l-0.15,0.07c-3.1,1.42-5.77,1.54-7.86,1.18c-2.58-1.46-3.97-5.18-4.15-5.69
			c-0.47-1.37,0.39-2.16,2.09-3.55c0.38-0.31,0.79-0.64,1.19-1.01c2.21-1.97,4.36-2.88,7.43-3.14c2.6-0.22,3.6-1.74,3.98-2.69
			c0.89,0.8,2,1.37,3.28,1.37c0.09,0,0.19,0,0.28-0.01c1.5-0.1,2.43-1.06,3.18-1.83c0.48-0.49,0.89-0.92,1.3-0.99
			c0.03-0.01,0.07,0,0.1,0c0.17,0.85,0.48,3.17-1.15,4.22c-1.77,1.14-3.08,1.26-4.9,1.42c-0.42,0.04-0.87,0.08-1.35,0.13
			c-2.61,0.31-4.63,0.99-6.76,2.28c-1.32,0.8-2.07,1.63-2.28,2.55c-0.17,0.72,0,1.49,0.5,2.28c0.65,1.03,1.67,1.54,2.97,1.54
			c0.83,0,1.77-0.21,2.8-0.63c0.72-0.3,1.36-0.62,1.93-0.9c1.17-0.58,2.09-1.05,3.19-1.08c1.8-0.06,3.39-0.9,3.87-2.04
			c0.09-0.23-0.01-0.49-0.24-0.58c-0.23-0.09-0.49,0.01-0.58,0.24c-0.3,0.7-1.45,1.44-3.08,1.5c-1.29,0.04-2.34,0.57-3.56,1.17
			c-0.58,0.29-1.18,0.59-1.87,0.87c-1.28,0.53-3.6,1.15-4.69-0.57c-0.38-0.59-0.5-1.12-0.39-1.6c0.16-0.67,0.77-1.32,1.88-1.99
			c2.01-1.22,3.93-1.87,6.41-2.16c0.47-0.05,0.91-0.09,1.32-0.13c1.87-0.17,3.34-0.3,5.3-1.56c1.94-1.25,1.79-3.71,1.59-4.89
			c0.11,0.02,0.22,0.04,0.33,0.06c0.51,0.11,1.09,0.21,1.63,0.08c0.6,4.66-2.03,8.4-2.06,8.44l-0.13,0.25
			C226.76,189.88,217.75,190.59,217.66,190.59z M230.16,184.76c0.12-0.29,0.25-0.57,0.35-0.88c0.28-0.41,1.14-1.83,1.76-3.84
			c1.23,1.35,2.88,1.98,4.06,2.27C235.2,183.29,232.97,184.8,230.16,184.76z M237.63,181.25l-0.29,0.06l-0.19,0.22
			c0,0-0.03,0.03-0.03,0.03c-1.13-0.21-3.28-0.85-4.56-2.61c0.24-1.09,0.37-2.32,0.31-3.64c0.67-0.67,1.94-1.88,3.94-2.39
			c0,0,0.01,0,0.01-0.01c0,0,0,0,0,0c0.06-0.02,0.13,0.02,0.18,0.05c0.18,0.11,0.79,0.62,1.23,2.77c0.33,1.62,1.46,2.33,2.42,2.67
			C240.66,178.53,240.55,180.6,237.63,181.25z M241.28,177.54l-0.21,0.07c-0.79-0.25-1.71-0.79-1.96-2.05
			c-0.3-1.46-0.75-2.47-1.29-3.03c0.55-0.3,0.94-0.69,1.24-1.09c1.08,0.31,2.03,0.44,2.85,0.44c1.15,0,2.04-0.25,2.73-0.57
			C244.67,172.44,244.59,176.48,241.28,177.54z"/>
		<path class="st41" d="M203.78,123.5c0.08,0.49,0.31,0.86,0.68,1.08c1.04,0.63,2.9-0.01,4.87-0.68l0.32-0.11
			c2.25-0.77,5.66-1.92,7.47-0.54c0.53,0.41,0.78,0.94,0.73,1.57c-0.08,1.07-1.01,2.3-1.8,2.74c-1.26,0.7-5.43,2-5.48,2.01
			c-0.23,0.07-0.36,0.32-0.29,0.56c0.06,0.19,0.23,0.31,0.42,0.31c0.04,0,0.09-0.01,0.13-0.02c0.17-0.05,4.3-1.34,5.64-2.08
			c1-0.55,2.15-2.03,2.25-3.45c0.07-0.94-0.3-1.75-1.08-2.34c-2.19-1.67-5.86-0.42-8.3,0.4l-0.32,0.11
			c-1.54,0.52-3.45,1.17-4.13,0.76c-0.09-0.06-0.22-0.16-0.27-0.46c-0.19-1.22,2.37-1.69,2.4-1.69c0.24-0.04,0.4-0.27,0.36-0.51
			c-0.04-0.24-0.27-0.41-0.51-0.36C205.63,121.01,203.52,121.82,203.78,123.5z"/>
	</g>
</g>
</svg>
