<?xml version="1.0" encoding="utf-8"?>
<!-- Generator: Adobe Illustrator 23.0.1, SVG Export Plug-In . SVG Version: 6.00 Build 0)  -->
<svg version="1.1" id="Layer_1" xmlns="http://www.w3.org/2000/svg" xmlns:xlink="http://www.w3.org/1999/xlink" x="0px" y="0px"
	 viewBox="0 0 400 400" style="enable-background:new 0 0 400 400;" xml:space="preserve">
<style type="text/css">
	.st0{fill:url(#SVGID_1_);}
	.st1{fill:url(#SVGID_2_);}
	.st2{fill:#00FCFF;}
	.st3{fill:#F1FFFF;}
	.st4{fill:#00C9F4;}
	.st5{fill:#0D2161;}
	.st6{fill:#0D0C36;}
	.st7{fill:url(#SVGID_3_);}
	.st8{fill:url(#SVGID_4_);}
	.st9{fill:url(#SVGID_5_);}
	.st10{fill:#FFF8FF;}
	.st11{fill:#DCF2FF;}
	.st12{fill:#FFFFFF;}
	.st13{fill:#F13955;}
	.st14{fill:#CFDEF7;}
	.st15{fill:url(#SVGID_6_);}
	.st16{fill:#0670F4;}
	.st17{fill:#0D34AD;}
	.st18{fill:none;stroke:#0670F4;stroke-miterlimit:10;}
	.st19{fill:none;stroke:#0670F4;stroke-width:0.5;stroke-miterlimit:10;}
	.st20{opacity:0.48;fill:#FFF8FF;}
</style>
<g>
	
		<radialGradient id="SVGID_1_" cx="200" cy="200" r="200" gradientTransform="matrix(1 0 0 -1 0 400)" gradientUnits="userSpaceOnUse">
		<stop  offset="0" style="stop-color:#3399FF"/>
		<stop  offset="0.2823" style="stop-color:#3390F6"/>
		<stop  offset="0.7501" style="stop-color:#3376DC"/>
		<stop  offset="1" style="stop-color:#3366CC"/>
	</radialGradient>
	<rect class="st0" width="400" height="400"/>
</g>
<g>
	<linearGradient id="SVGID_2_" gradientUnits="userSpaceOnUse" x1="189.1243" y1="355.3521" x2="188.8816" y2="206.4739">
		<stop  offset="0" style="stop-color:#0D55FF;stop-opacity:0"/>
		<stop  offset="7.899065e-02" style="stop-color:#0C5CFF;stop-opacity:0.1173"/>
		<stop  offset="0.1939" style="stop-color:#0B6FFF;stop-opacity:0.2878"/>
		<stop  offset="0.3306" style="stop-color:#088FFF;stop-opacity:0.4909"/>
		<stop  offset="0.4843" style="stop-color:#05BBFF;stop-opacity:0.719"/>
		<stop  offset="0.6501" style="stop-color:#01F3FF;stop-opacity:0.9651"/>
		<stop  offset="0.6736" style="stop-color:#00FCFF"/>
	</linearGradient>
	<path class="st1" d="M283.1,349.3c0-51.9-42.1-94-94-94h0c-51.9,0-94,42.1-94,94"/>
	<g>
		<g>
			<g>
				<path class="st2" d="M228.5,277.3c0,13.6-17.5,24.6-39.1,24.6c-21.6,0-39.1-11-39.1-24.6c0-13.6,17.5-12.3,39.1-12.3
					C211,265,228.5,263.7,228.5,277.3z"/>
				<rect x="150.3" y="267.8" class="st2" width="78.2" height="9.4"/>
				<ellipse class="st3" cx="189.4" cy="267.8" rx="39.1" ry="24.9"/>
				<ellipse class="st4" cx="189.4" cy="267.5" rx="39.1" ry="24.6"/>
				<path class="st5" d="M189.4,189.9c-18.3,0-33.2,9.3-33.2,20.9v55c0,11.5,14.9,20.9,33.2,20.9c18.3,0,33.2-9.3,33.2-20.9v-55
					C222.6,199.3,207.7,189.9,189.4,189.9z"/>
				<path class="st6" d="M169.6,235.6c-0.7,0-1.4,0.6-1.4,1.4v44.9c0.9,0.4,1.8,0.9,2.7,1.3V237C171,236.2,170.4,235.6,169.6,235.6z
					"/>
				<path class="st2" d="M175,243.4c-0.7,0-1.4,0.6-1.4,1.4v39.4c0.9,0.3,1.8,0.6,2.7,0.8v-40.2C176.4,244,175.7,243.4,175,243.4z"
					/>
				<path class="st2" d="M180.7,246c-0.7,0-1.4,0.6-1.4,1.4v38.4c0.9,0.2,1.8,0.3,2.7,0.5v-38.8C182,246.6,181.4,246,180.7,246z"/>
			</g>
			<polygon class="st2" points="161.4,227.8 168.3,231.9 168.3,230.7 161.4,226.6 			"/>
			<polygon class="st2" points="161.4,225.1 168.3,229.2 168.3,228 161.4,223.9 			"/>
			<path class="st2" d="M165.5,236.3c0,2-1,3.1-2.2,2.4c-1.2-0.7-2.2-2.9-2.2-4.9s1-3.1,2.2-2.4
				C164.5,232.1,165.5,234.3,165.5,236.3z"/>
			<path class="st2" d="M165.5,247.2c0,2-1,3.1-2.2,2.4c-1.2-0.7-2.2-2.9-2.2-4.9s1-3.1,2.2-2.4C164.5,243,165.5,245.2,165.5,247.2z
				"/>
			<path class="st2" d="M165.5,258.1c0,2-1,3.1-2.2,2.4c-1.2-0.7-2.2-2.9-2.2-4.9s1-3.1,2.2-2.4
				C164.5,253.9,165.5,256.1,165.5,258.1z"/>
		</g>
		<linearGradient id="SVGID_3_" gradientUnits="userSpaceOnUse" x1="149.4456" y1="134.6213" x2="236.9528" y2="134.6213">
			<stop  offset="0" style="stop-color:#00FCFF"/>
			<stop  offset="0.1304" style="stop-color:#01EEFF;stop-opacity:0.8696"/>
			<stop  offset="0.3774" style="stop-color:#04C9FF;stop-opacity:0.6226"/>
			<stop  offset="0.7118" style="stop-color:#098DFF;stop-opacity:0.2882"/>
			<stop  offset="1" style="stop-color:#0D55FF;stop-opacity:0"/>
		</linearGradient>
		<path class="st7" d="M288.5,134.5c0-43.8-33.7-79.8-76.6-83.4c-1.3,0.1-2.6,0.3-3.8,0.5l0,0c0,0,0,0,0,0c-1.1,0.2-2.1,0.4-3.2,0.7
			c-0.3,0.1-0.5,0.1-0.8,0.2c-0.8,0.2-1.6,0.4-2.4,0.7c-0.3,0.1-0.6,0.2-0.9,0.3c-0.8,0.2-1.5,0.5-2.3,0.8c-0.3,0.1-0.6,0.2-0.9,0.3
			c-1,0.4-2,0.8-3,1.3c-13,6.1-26.5,18.5-31.8,43.5c-1.5,7.1,0,14.5,4.3,20.4c8.4,11.6,20.7,36.2,5.6,67.7l7.2,22.3
			c0.6,1.8,1.3,3.6,2,5.4c7.3,2.1,14.9,3.2,22.8,3.2C251,218.2,288.5,180.7,288.5,134.5z"/>
		<linearGradient id="SVGID_4_" gradientUnits="userSpaceOnUse" x1="248.0672" y1="171.1815" x2="135.279" y2="75.5092">
			<stop  offset="0" style="stop-color:#0D55FF;stop-opacity:0"/>
			<stop  offset="0.2882" style="stop-color:#098DFF;stop-opacity:0.2882"/>
			<stop  offset="0.6226" style="stop-color:#04C9FF;stop-opacity:0.6226"/>
			<stop  offset="0.8696" style="stop-color:#01EEFF;stop-opacity:0.8696"/>
			<stop  offset="1" style="stop-color:#00FCFF"/>
		</linearGradient>
		<circle class="st8" cx="204.8" cy="134.5" r="83.7"/>
		<linearGradient id="SVGID_5_" gradientUnits="userSpaceOnUse" x1="178.2759" y1="122.8917" x2="82.7997" y2="41.9042">
			<stop  offset="0" style="stop-color:#0D55FF;stop-opacity:0"/>
			<stop  offset="0.2882" style="stop-color:#098DFF;stop-opacity:0.2882"/>
			<stop  offset="0.6226" style="stop-color:#04C9FF;stop-opacity:0.6226"/>
			<stop  offset="0.8696" style="stop-color:#01EEFF;stop-opacity:0.8696"/>
			<stop  offset="1" style="stop-color:#00FCFF"/>
		</linearGradient>
		<path class="st9" d="M131.5,134.5c0-44.5,34.7-80.9,78.5-83.6c-1.7-0.1-3.5-0.2-5.2-0.2c-46.2,0-83.7,37.5-83.7,83.7
			c0,46.2,37.5,83.7,83.7,83.7c1.8,0,3.5-0.1,5.2-0.2C166.2,215.3,131.5,179,131.5,134.5z"/>
		<path class="st10" d="M178.6,189.8l7.2,22.3c6.8,20.8,22.3,37.7,42.5,46.1l28,11.7c0,0,8.5,4.2,26.4-4.2
			c17.9-8.5,13.7-26.3,12.7-35.3l8-56.2v-13.1c0-7.8-0.2-13.7-1-21.5c-0.9-8.8-2.5-19.4-4.4-28c0,0-7.6-37.6-52.7-54.5
			c-14.6-5.5-30.8-5.5-44.9,1.2c-13,6.1-26.5,18.5-31.8,43.5c-1.5,7.1,0,14.5,4.3,20.4C181.4,133.7,193.7,158.3,178.6,189.8z"/>
		<path class="st2" d="M226.5,57.2c-3.8-1.4-7.7-2.4-11.7-3.1c-4.7,0.8-9.3,2.2-13.7,4.2c-13.2,6.1-27,18.5-32.4,43.5
			c-1.5,7.1,0,14.5,4.4,20.4c8.5,11.6,21.1,36.2,5.7,67.7l7.4,22.3c6.9,20.8,22.7,37.7,43.3,46.1l27,5.9c0,0,1.4,6.4,16,5.4
			c0.6,0,6.9-2,10.3-3.9c6.8-11.7-4.6-29-5.3-35.3l8.2-56.2l9.8-14c0-16.6-5.4-29.8-15.3-48.6C280.2,111.6,272.5,74,226.5,57.2z"/>
		<path class="st11" d="M225.5,57.2c-3.7-1.4-7.6-2.4-11.5-3.1c-4.6,0.8-9.1,2.2-13.5,4.2c-13,6.1-26.5,18.5-31.8,43.5
			c-1.5,7.1,0,14.5,4.3,20.4c8.4,11.6,20.7,36.2,5.6,67.7l7.2,22.3c6.8,20.8,22.3,37.7,42.5,46.1l28,11.7c0,0,7.4,2.6,17-0.6
			c5.5-13.5,2.8-32.6,2.1-38.9l8-56.2l-12.6-10.1c0-16.6,3.8-30.7,7.2-52.5C278.1,111.6,270.5,74,225.5,57.2z"/>
		<path class="st10" d="M242.2,234.2c-1.9,0-3.6,1.1-4.8,2.8c-9.6-9.1-22.7-21.9-24.1-23.7c0.1-4.5,0.4-8.6,0.8-12.3l17.9,17.7
			c0.1,2.2,1.6,3.9,3.5,3.9c1.9,0,3.5-1.9,3.5-4.2c0-2.3-1.6-4.2-3.5-4.2c-1.4,0-2.6,1-3.2,2.4l-18-17.8c2.2-16.4,6.7-24.5,6.8-24.7
			l-1.5-0.8c-0.4,0.7-7.6,13.6-8.1,40l0,0c0,0,0,0.1,0,0.1c-0.1,5.3,0.1,11.1,0.7,17.5c-11.5-31-4.6-59.7-4.5-60.1l-1.6-0.4
			c-0.1,0.4-7.9,33,6.8,66.5c0,0,0,0.1,0,0.1l0,0c2.8,6.3,6.4,12.6,10.9,18.8c1.1,0.5,2.2,1,3.3,1.5c-5.4-6.8-9.5-13.8-12.6-20.9
			c-0.9-7.7-1.3-14.7-1.2-21c2.5,2.7,8.5,8.7,23.3,22.9c-0.4,1-0.6,2-0.6,3.2c0,4.1,2.8,7.5,6.2,7.5c3.4,0,6.2-3.4,6.2-7.5
			C248.3,237.6,245.6,234.2,242.2,234.2z M235.5,215.9c1,0,1.8,1.2,1.8,2.5c0,1.4-0.8,2.5-1.8,2.5c-1,0-1.8-1.1-1.8-2.5
			C233.7,217.1,234.5,215.9,235.5,215.9z M242.2,247.6c-2.5,0-4.5-2.6-4.5-5.9c0-1.1,0.2-2.1,0.6-2.9l0.5-0.5c0,0-0.1-0.1-0.2-0.1
			c0.8-1.4,2.1-2.3,3.5-2.3c2.5,0,4.5,2.6,4.5,5.9C246.7,245,244.6,247.6,242.2,247.6z"/>
		<path class="st2" d="M241.7,234.2c-1.9,0-3.6,1.1-4.7,2.8c-9.4-9.1-22.4-21.9-23.8-23.7c0.1-4.5,0.4-8.6,0.8-12.3l17.7,17.7
			c0.1,2.2,1.6,3.9,3.4,3.9c1.9,0,3.5-1.9,3.5-4.2c0-2.3-1.6-4.2-3.5-4.2c-1.4,0-2.6,1-3.1,2.4l-17.8-17.8
			c2.1-16.4,6.6-24.5,6.7-24.7l-1.4-0.8c-0.4,0.7-7.6,13.6-8,40l0,0c0,0,0,0.1,0,0.1c-0.1,5.3,0.1,11.1,0.6,17.5
			c-11.3-31-4.6-59.7-4.5-60.1l-1.6-0.4c-0.1,0.4-7.8,33,6.7,66.5c0,0,0,0.1,0,0.1l0,0c2.7,6.3,6.3,12.6,10.8,18.8
			c1.1,0.5,2.1,1,3.2,1.5c-5.3-6.8-9.4-13.8-12.5-20.9c-0.9-7.7-1.3-14.7-1.2-21c2.4,2.7,8.4,8.7,23.1,22.9c-0.4,1-0.6,2-0.6,3.2
			c0,4.1,2.7,7.5,6.1,7.5c3.4,0,6.1-3.4,6.1-7.5C247.8,237.6,245.1,234.2,241.7,234.2z M235.2,215.9c1,0,1.8,1.2,1.8,2.5
			s-0.8,2.5-1.8,2.5c-1,0-1.8-1.1-1.8-2.5S234.2,215.9,235.2,215.9z M241.7,247.6c-2.4,0-4.4-2.6-4.4-5.9c0-1.1,0.2-2.1,0.6-2.9
			l0.5-0.5c0,0-0.1-0.1-0.2-0.1c0.8-1.4,2.1-2.3,3.5-2.3c2.4,0,4.4,2.6,4.4,5.9C246.1,245,244.2,247.6,241.7,247.6z"/>
		<path class="st12" d="M259,270l-28-11.7c-20.2-8.4-35.8-25.3-42.5-46.1l-7.2-22.3c15.1-31.5,2.8-56.1-5.6-67.7
			c-4.2-5.9-5.8-13.3-4.3-20.4c5.3-25,18.8-37.4,31.8-43.5c3.9-1.8,7.7-3.4,10.8-4.2c-4.6,0.8-9.1,2.2-13.5,4.2
			c-13,6.1-26.5,18.5-31.8,43.5c-1.5,7.1,0,14.5,4.3,20.4c8.4,11.6,20.7,36.2,5.6,67.7l7.2,22.3c6.8,20.8,22.3,37.7,42.5,46.1
			l28,11.7c0,0,2.6,1.3,7.9,1C260.8,270.8,259,270,259,270z"/>
		<path class="st13" d="M303.5,136.1"/>
		<g>
			<path class="st10" d="M183.3,139.7v3.3c1.9,9.1,2.8,19.2,1.1,30.3c0.6,1.1,1.2,2.3,1.8,3.5c108.3,45.3,117.4-2.4,117.4-2.4
				s1.2-15.6-1-34.6C257.7,166.2,183.3,139.7,183.3,139.7z"/>
		</g>
		<g>
			<path class="st14" d="M183.3,139.7v3.3c1.9,9.1,2.8,19.2,1.1,30.3c0.6,1.1,1.2,2.3,1.8,3.5c106.1,42.4,117.4-2.4,117.4-2.4
				s1.2-15.6-1-34.6C257.7,166.2,183.3,139.7,183.3,139.7z"/>
		</g>
		<g>
			<path class="st5" d="M183.3,139.7v3.3c1.9,9.1,2.8,19.2,1.1,30.3c0.6,1.1,1.2,2.3,1.8,3.5c89.9,28.3,117.4-2.4,117.4-2.4
				s3.7-17.7-1-34.6C257.7,166.2,183.3,139.7,183.3,139.7z"/>
		</g>
		<linearGradient id="SVGID_6_" gradientUnits="userSpaceOnUse" x1="250.1885" y1="179.7003" x2="277.6735" y2="84.2569">
			<stop  offset="0" style="stop-color:#0D55FF;stop-opacity:0"/>
			<stop  offset="6.271666e-02" style="stop-color:#0B69FF;stop-opacity:6.271666e-02"/>
			<stop  offset="0.22" style="stop-color:#0896FF;stop-opacity:0.22"/>
			<stop  offset="0.3786" style="stop-color:#05BAFF;stop-opacity:0.3786"/>
			<stop  offset="0.5364" style="stop-color:#03D7FF;stop-opacity:0.5364"/>
			<stop  offset="0.693" style="stop-color:#01ECFF;stop-opacity:0.693"/>
			<stop  offset="0.8481" style="stop-color:#00F8FF;stop-opacity:0.8481"/>
			<stop  offset="1" style="stop-color:#00FCFF"/>
		</linearGradient>
		<path class="st15" d="M302.8,158.7l-25.4,25.4c1.6-0.3,3.1-0.7,4.5-1c0,0,0,0,0,0l20.9-20.9C302.8,161,302.8,159.9,302.8,158.7z
			 M225.9,152.2c-7.6,7.6-13.8,16.3-22.4,24.9c0,0,0,0,0,0c1.8,0.5,3.5,1,5.2,1.4c0.4,0.1,0.8,0.2,1.2,0.3c1.6,0.4,3.2,0.8,4.8,1.2
			c0.4,0.1,0.8,0.2,1.2,0.3c1.6,0.4,3.2,0.8,4.7,1.1c0.2,0,0.4,0.1,0.7,0.1c8.8,1.9,16.8,3.1,23.9,3.8c0,0,0,0,0,0l34.9-34.9
			C263.3,154.2,241.1,154.5,225.9,152.2z M301.4,145c0-0.1,0-0.1,0-0.2c-0.2-0.8-0.3-1.6-0.5-2.4c-3.3,2-6.8,3.6-10.4,4.9L252,185.8
			c0.6,0,1.1,0,1.7,0.1c0.7,0,1.4,0,2.1,0c0.7,0,1.4,0,2.1,0c0.1,0,0.2,0,0.3,0c1.8,0,3.6-0.1,5.3-0.2l38.3-38.3
			C301.7,146.7,301.5,145.9,301.4,145z"/>
		<g>
			<path class="st16" d="M188.2,155.4c-0.2,9.3-5.3,14.3-11.5,11.1c-6.2-3.1-11.1-13.2-11-22.4c0.2-9.3,5.3-14.3,11.5-11.1
				C183.5,136,188.4,146.1,188.2,155.4z"/>
			<path class="st2" d="M185.5,156c-0.2,9.3-5.3,14.3-11.5,11.1c-6.2-3.1-11.1-13.2-11-22.4c0.2-9.3,5.3-14.3,11.5-11.1
				S185.6,146.7,185.5,156z"/>
			<path class="st17" d="M178.7,152.5c-0.1,3.7-2.1,5.7-4.6,4.4c-2.5-1.2-4.4-5.2-4.4-8.9c0.1-3.7,2.1-5.7,4.6-4.4
				C176.8,144.9,178.7,148.9,178.7,152.5z"/>
			<path class="st18" d="M183.4,154.9c-0.1,7.6-4.4,11.7-9.5,9.1c-5.1-2.6-9.1-10.8-9-18.4c0.1-7.6,4.4-11.7,9.5-9.1
				C179.5,139.1,183.6,147.3,183.4,154.9z"/>
			<path class="st19" d="M181.3,153.9c-0.1,5.8-3.3,9-7.3,7c-3.9-2-7-8.3-6.9-14.1c0.1-5.8,3.3-9,7.3-7
				C178.3,141.7,181.4,148,181.3,153.9z"/>
		</g>
		<g>
			<path class="st16" d="M150.6,172c-0.2,9.3-5.3,14.3-11.5,11.1c-6.2-3.1-11.1-13.2-11-22.4c0.2-9.3,5.3-14.3,11.5-11.1
				S150.8,162.7,150.6,172z"/>
			<path class="st2" d="M147.9,172.5c-0.2,9.3-5.3,14.3-11.5,11.1c-6.2-3.1-11.1-13.2-11-22.4c0.2-9.3,5.3-14.3,11.5-11.1
				C143.1,153.2,148.1,163.3,147.9,172.5z"/>
			<path class="st17" d="M141.1,169.1c-0.1,3.7-2.1,5.7-4.6,4.4c-2.5-1.2-4.4-5.2-4.4-8.9c0.1-3.7,2.1-5.7,4.6-4.4
				C139.2,161.5,141.2,165.5,141.1,169.1z"/>
			<path class="st18" d="M145.9,171.5c-0.1,7.6-4.4,11.7-9.5,9.1c-5.1-2.6-9.1-10.8-9-18.4c0.1-7.6,4.4-11.7,9.5-9.1
				C142,155.7,146,163.9,145.9,171.5z"/>
			<path class="st19" d="M143.7,170.5c-0.1,5.8-3.3,9-7.3,7c-3.9-2-7-8.3-6.9-14.1c0.1-5.8,3.3-9,7.3-7
				C140.7,158.3,143.8,164.6,143.7,170.5z"/>
		</g>
		<g>
			<path class="st16" d="M188.6,192.9c-0.3,19.3-11.1,29.6-24,23.1c-12.9-6.5-23.1-27.3-22.8-46.6s11.1-29.6,24-23.1
				C178.7,152.8,188.9,173.7,188.6,192.9z"/>
			<path class="st2" d="M182.9,194.1c-0.3,19.3-11.1,29.6-24,23.1c-12.9-6.5-23.1-27.3-22.8-46.6c0.3-19.3,11.1-29.6,24-23.1
				S183.2,174.9,182.9,194.1z"/>
			<path class="st17" d="M168.8,187.1c-0.1,7.6-4.4,11.7-9.5,9.2c-5.1-2.6-9.2-10.8-9-18.5c0.1-7.6,4.4-11.7,9.5-9.2
				S168.9,179.4,168.8,187.1z"/>
			<path class="st18" d="M178.7,192c-0.3,15.8-9.1,24.3-19.6,18.9c-10.6-5.3-18.9-22.4-18.7-38.2c0.3-15.8,9.1-24.3,19.6-18.9
				C170.6,159.2,178.9,176.3,178.7,192z"/>
			<path class="st19" d="M174.2,189.8c-0.2,12.1-7,18.6-15.1,14.6c-8.1-4.1-14.5-17.2-14.3-29.3c0.2-12.1,7-18.6,15.1-14.6
				C168,164.6,174.4,177.7,174.2,189.8z"/>
		</g>
		
			<ellipse transform="matrix(0.7071 -0.7071 0.7071 0.7071 -8.8274 179.6529)" class="st20" cx="212.4" cy="100.5" rx="34" ry="34"/>
		<circle class="st20" cx="246.5" cy="106.2" r="13.9"/>
	</g>
</g>
</svg>
