<?xml version="1.0" encoding="utf-8"?>
<!-- Generator: Adobe Illustrator 23.0.1, SVG Export Plug-In . SVG Version: 6.00 Build 0)  -->
<svg version="1.1" id="Layer_1" xmlns="http://www.w3.org/2000/svg" xmlns:xlink="http://www.w3.org/1999/xlink" x="0px" y="0px"
	 viewBox="0 0 400 400" style="enable-background:new 0 0 400 400;" xml:space="preserve">
<style type="text/css">
	.st0{fill:#2D2D2D;}
	.st1{fill:#4285F5;}
	.st2{fill:#3F85EE;}
	.st3{fill:#EA4335;}
	.st4{fill:#FBBC03;}
	.st5{fill:#FEB900;}
	.st6{fill:#35A854;}
</style>
<g>
	<rect class="st0" width="400" height="400"/>
</g>
<g>
	<g>
		<path class="st1" d="M207.4,107.6c0,4.2-3.3,7.4-7.4,7.4c-4.2,0-7.4-3.3-7.4-7.4s3.3-7.4,7.4-7.4
			C204.2,100.1,207.4,103.4,207.4,107.6z"/>
		<path class="st1" d="M183.3,108.8c1,4-1.3,8-5.2,9.1c-4,1-8-1.3-9.1-5.2c-1-4,1.3-8,5.2-9.1C178.1,102.4,182.1,104.8,183.3,108.8z
			"/>
		<path class="st1" d="M160.2,116.2c2.1,3.6,0.9,8.2-2.7,10.1c-3.6,2.1-8.2,0.9-10.1-2.7c-2.1-3.6-0.9-8.2,2.7-10.1
			C153.5,111.5,158.1,112.7,160.2,116.2z"/>
		<path class="st1" d="M139.8,129.3c3,3,3,7.6,0,10.6c-3,3-7.6,3-10.6,0c-3-3-3-7.6,0-10.6C132.2,126.5,137,126.5,139.8,129.3z"/>
		<path class="st1" d="M123.6,147.4c3.6,2.1,4.8,6.6,2.7,10.1c-2.1,3.6-6.6,4.8-10.1,2.7c-3.6-2.1-4.8-6.6-2.7-10.1
			C115.6,146.5,120,145.3,123.6,147.4z"/>
		<path class="st1" d="M112.6,168.9c4,1,6.4,5.2,5.2,9.1c-1,4-5.2,6.4-9.1,5.2c-3.9-1.2-6.4-5.2-5.2-9.1
			C104.5,170.1,108.6,167.9,112.6,168.9z"/>
		<path class="st1" d="M107.5,192.6c4.2,0,7.4,3.3,7.4,7.4c0,4.2-3.3,7.4-7.4,7.4s-7.4-3.3-7.4-7.4
			C100.1,195.9,103.3,192.6,107.5,192.6z"/>
		<path class="st1" d="M108.7,216.8c4-1,8,1.3,9.1,5.2c1,4-1.3,8-5.2,9.1c-4,1-8-1.3-9.1-5.2C102.4,222,104.8,217.8,108.7,216.8z"/>
		<path class="st1" d="M116.2,239.8c3.6-2.1,8.2-0.9,10.1,2.7c2.1,3.6,0.9,8.2-2.7,10.1c-3.6,2.1-8.2,0.9-10.1-2.7
			C111.4,246.4,112.6,241.9,116.2,239.8z"/>
		<path class="st1" d="M129.4,260.1c3-3,7.6-3,10.6,0c3,3,3,7.6,0,10.6c-3,3-7.6,3-10.6,0C126.4,267.8,126.4,263.1,129.4,260.1z"/>
		<path class="st1" d="M147.3,276.3c2.1-3.6,6.6-4.8,10.1-2.7c3.6,2.1,4.8,6.6,2.7,10.1c-2.1,3.6-6.6,4.8-10.1,2.7
			C146.5,284.5,145.2,279.9,147.3,276.3z"/>
		<path class="st1" d="M168.9,287.5c1-4,5.2-6.4,9.1-5.2c4,1,6.4,5.2,5.2,9.1c-1,4-5.2,6.4-9.1,5.2
			C170.2,295.5,167.8,291.4,168.9,287.5z"/>
		<path class="st1" d="M192.6,292.6c0-4.2,3.3-7.4,7.4-7.4c4.2,0,7.4,3.3,7.4,7.4s-3.3,7.4-7.4,7.4
			C195.8,300,192.6,296.6,192.6,292.6z"/>
		<path class="st1" d="M216.7,291.2c-1-4,1.3-8,5.2-9.1c4-1,8,1.3,9.1,5.2c1,4-1.3,8-5.2,9.1C221.9,297.6,217.9,295.2,216.7,291.2z"
			/>
		<path class="st1" d="M239.8,283.8c-2.1-3.6-0.9-8.2,2.7-10.1c3.6-2.1,8.2-0.9,10.1,2.7c2.1,3.6,0.9,8.2-2.7,10.1
			C246.5,288.7,241.8,287.3,239.8,283.8z"/>
		<path class="st1" d="M260.2,270.7c-3-3-3-7.6,0-10.6c3-3,7.6-3,10.6,0c3,3,3,7.6,0,10.6S263,273.6,260.2,270.7z"/>
		<path class="st1" d="M276.4,252.8c-3.6-2.1-4.8-6.6-2.7-10.1c2.1-3.6,6.6-4.8,10.1-2.7c3.6,2.1,4.8,6.6,2.7,10.1
			C284.4,253.5,280,254.7,276.4,252.8z"/>
		<path class="st1" d="M287.4,231.2c-4-1-6.4-5.2-5.2-9.1c1-4,5.2-6.4,9.1-5.2c4,1,6.4,5.2,5.2,9.1
			C295.5,229.9,291.4,232.2,287.4,231.2z"/>
		<path class="st1" d="M292.5,207.5c-4.2,0-7.4-3.3-7.4-7.4c0-4.2,3.3-7.4,7.4-7.4c4.2,0,7.4,3.3,7.4,7.4
			C299.9,204.1,296.7,207.5,292.5,207.5z"/>
		<path class="st1" d="M291.3,183.2c-4,1-8-1.3-9.1-5.2c-1-4,1.3-8,5.2-9.1c4-1,8,1.3,9.1,5.2C297.6,178.2,295.2,182.2,291.3,183.2z
			"/>
		<path class="st1" d="M283.8,160.3c-3.6,2.1-8.2,0.9-10.1-2.7c-2.1-3.6-0.9-8.2,2.7-10.1c3.6-2.1,8.2-0.9,10.1,2.7
			C288.6,153.6,287.4,158.2,283.8,160.3z"/>
		<path class="st1" d="M270.6,139.9c-3,3-7.6,3-10.6,0c-3-3-3-7.6,0-10.6c3-3,7.6-3,10.6,0C273.6,132.3,273.6,136.9,270.6,139.9z"/>
		<path class="st1" d="M252.7,123.7c-2.1,3.6-6.6,4.8-10.1,2.7c-3.6-2.1-4.8-6.6-2.7-10.1c2.1-3.6,6.6-4.8,10.1-2.7
			C253.5,115.5,254.8,120.1,252.7,123.7z"/>
		<path class="st1" d="M231.1,112.7c-1,4-5.2,6.4-9.1,5.2c-4-1-6.4-5.2-5.2-9.1c1-4,5.2-6.4,9.1-5.2
			C229.8,104.6,232.2,108.6,231.1,112.7z"/>
	</g>
	<g>
		<path class="st2" d="M190.9,90.2c0,3.1-2.5,5.7-5.7,5.7c-3.1,0-5.7-2.5-5.7-5.7c0-3.1,2.5-5.7,5.7-5.7
			C188.4,84.5,190.9,87,190.9,90.2z"/>
		<path class="st2" d="M162.8,96.3c0.7,3-1,6.1-4,7c-3,0.7-6.1-1-7-4c-0.7-3,1-6.1,4-7C158.9,91.4,162,93.1,162.8,96.3z"/>
		<path class="st2" d="M137.2,109.4c1.6,2.7,0.6,6.3-2.1,7.7c-2.7,1.6-6.3,0.6-7.7-2.1c-1.6-2.7-0.6-6.3,2.1-7.7
			C132.1,105.8,135.7,106.7,137.2,109.4z"/>
		<path class="st2" d="M115.9,128.7c2.2,2.2,2.2,5.8,0,8c-2.2,2.2-5.8,2.2-8,0c-2.2-2.2-2.2-5.8,0-8
			C110,126.5,113.6,126.5,115.9,128.7z"/>
		<path class="st2" d="M100.2,153c2.7,1.6,3.7,5.1,2.1,7.7s-5.1,3.7-7.7,2.1s-3.7-5.1-2.1-7.7C94.1,152.3,97.5,151.4,100.2,153z"/>
		<path class="st2" d="M91.4,180.4c3,0.7,4.8,3.9,4,7c-0.7,3-3.9,4.8-7,4c-3-0.7-4.8-3.9-4-7C85.3,181.3,88.4,179.5,91.4,180.4z"/>
		<path class="st2" d="M90.1,209.2c3.1,0,5.7,2.5,5.7,5.7s-2.5,5.7-5.7,5.7s-5.7-2.5-5.7-5.7C84.4,211.7,87,209.2,90.1,209.2z"/>
		<path class="st2" d="M96.2,237.3c3-0.7,6.1,1,7,4c0.7,3-1,6.1-4,7c-3,0.7-6.1-1-7-4C91.4,241.2,93.2,238.1,96.2,237.3z"/>
		<path class="st2" d="M109.3,262.9c2.7-1.6,6.3-0.6,7.7,2.1c1.6,2.7,0.6,6.3-2.1,7.7c-2.7,1.6-6.3,0.6-7.7-2.1
			C105.7,267.8,106.6,264.4,109.3,262.9z"/>
		<path class="st2" d="M128.7,284.2c2.2-2.2,5.8-2.2,8,0c2.2,2.2,2.2,5.8,0,8c-2.2,2.2-5.8,2.2-8,0
			C126.4,290,126.4,286.5,128.7,284.2z"/>
		<path class="st2" d="M152.9,299.7c1.6-2.7,5.1-3.7,7.7-2.1s3.7,5.1,2.1,7.7c-1.6,2.7-5.1,3.7-7.7,2.1
			C152.3,306,151.3,302.5,152.9,299.7z"/>
		<path class="st2" d="M180.3,308.5c0.7-3,3.9-4.8,7-4c3,0.7,4.8,3.9,4,7c-0.7,3-3.9,4.8-7,4C181.4,314.8,179.6,311.6,180.3,308.5z"
			/>
		<path class="st2" d="M209.1,310c0-3.1,2.5-5.7,5.7-5.7c3.1,0,5.7,2.5,5.7,5.7s-2.5,5.7-5.7,5.7C211.6,315.6,209.1,313.1,209.1,310
			z"/>
		<path class="st2" d="M237.2,303.9c-0.7-3,1-6.1,4-7c3-0.7,6.1,1,7,4c0.7,3-1,6.1-4,7C241.1,308.6,238,306.9,237.2,303.9z"/>
		<path class="st2" d="M262.8,290.6c-1.6-2.7-0.6-6.3,2.1-7.7c2.7-1.6,6.3-0.6,7.7,2.1c1.6,2.7,0.6,6.3-2.1,7.7
			C267.9,294.3,264.3,293.5,262.8,290.6z"/>
		<path class="st2" d="M284.1,271.3c-2.2-2.2-2.2-5.8,0-8s5.8-2.2,8,0c2.2,2.2,2.2,5.8,0,8C290,273.5,286.4,273.5,284.1,271.3z"/>
		<path class="st2" d="M299.8,247.1c-2.7-1.6-3.7-5.1-2.1-7.7s5.1-3.7,7.7-2.1c2.7,1.6,3.7,5.1,2.1,7.7
			C305.9,247.7,302.5,248.6,299.8,247.1z"/>
		<path class="st2" d="M308.6,219.7c-3-0.7-4.8-3.9-4-7c0.7-3,3.9-4.8,7-4c3,0.7,4.8,3.9,4,7C314.7,218.7,311.6,220.5,308.6,219.7z"
			/>
		<path class="st2" d="M309.9,191c-3.1,0-5.7-2.5-5.7-5.7c0-3.1,2.5-5.7,5.7-5.7c3.1,0,5.7,2.5,5.7,5.7
			C315.6,188.5,313,191,309.9,191z"/>
		<path class="st2" d="M303.8,162.8c-3,0.7-6.1-1-7-4c-0.7-3,1-6.1,4-7c3-0.7,6.1,1,7,4C308.6,158.8,306.8,161.9,303.8,162.8z"/>
		<path class="st2" d="M290.7,137.2c-2.7,1.6-6.3,0.6-7.7-2.1c-1.6-2.7-0.6-6.3,2.1-7.7c2.7-1.6,6.3-0.6,7.7,2.1
			C294.3,132.2,293.4,135.6,290.7,137.2z"/>
		<path class="st2" d="M271.3,115.9c-2.2,2.2-5.8,2.2-8,0s-2.2-5.8,0-8s5.8-2.2,8,0C273.6,110.1,273.6,113.7,271.3,115.9z"/>
		<path class="st2" d="M247.1,100.3c-1.6,2.7-5.1,3.7-7.7,2.1s-3.7-5.1-2.1-7.7c1.6-2.7,5.1-3.7,7.7-2.1
			C247.7,94,248.7,97.6,247.1,100.3z"/>
		<path class="st2" d="M219.7,91.5c-0.7,3-3.9,4.8-7,4c-3-0.7-4.8-3.9-4-7c0.7-3,3.9-4.8,7-4C218.6,85.4,220.4,88.5,219.7,91.5z"/>
	</g>
	<g>
		<path class="st3" d="M122.7,189.4c2.2,0.4,3.6,2.5,3.1,4.8c-0.4,2.2-2.5,3.6-4.8,3.1c-2.2-0.4-3.6-2.5-3.1-4.8
			C118.4,190.2,120.5,188.9,122.7,189.4z"/>
		<path class="st3" d="M122.9,209.8c2.2-0.1,4.2,1.6,4.2,3.7c0.1,2.2-1.6,4.2-3.7,4.2c-2.2,0.1-4.2-1.6-4.2-3.7
			C118.8,211.7,120.6,209.8,122.9,209.8z"/>
		<path class="st3" d="M128.2,229.3c2.1-0.7,4.3,0.4,5.1,2.5c0.7,2.1-0.4,4.3-2.5,5.1c-2.1,0.7-4.3-0.4-5.1-2.5
			C124.9,232.2,126.1,230,128.2,229.3z"/>
		<path class="st3" d="M138.5,246.8c1.8-1.2,4.3-0.7,5.5,1.2c1.2,1.8,0.7,4.3-1.2,5.5c-1.8,1.2-4.3,0.7-5.5-1.2
			C136.1,250.6,136.7,248,138.5,246.8z"/>
		<path class="st3" d="M153.1,261.1c1.5-1.6,4-1.8,5.7-0.3c1.6,1.5,1.8,4,0.3,5.7c-1.5,1.6-4,1.8-5.7,0.3
			C151.7,265.3,151.6,262.8,153.1,261.1z"/>
		<path class="st3" d="M170.8,271.1c1-1.9,3.4-2.8,5.4-1.8c1.9,1,2.8,3.4,1.8,5.4c-1,1.9-3.4,2.8-5.4,1.8
			C170.5,275.6,169.8,273.2,170.8,271.1z"/>
		<path class="st3" d="M190.5,276.3c0.4-2.2,2.5-3.6,4.8-3.1c2.2,0.4,3.6,2.5,3.1,4.8s-2.5,3.6-4.8,3.1
			C191.4,280.5,190,278.4,190.5,276.3z"/>
		<path class="st3" d="M210.9,276c-0.1-2.2,1.6-4.2,3.7-4.2c2.2-0.1,4.2,1.6,4.2,3.7c0.1,2.2-1.6,4.2-3.7,4.2
			C212.8,280.1,210.9,278.3,210.9,276z"/>
		<path class="st3" d="M230.4,270.7c-0.7-2.1,0.4-4.3,2.5-5.1c2.1-0.7,4.3,0.4,5.1,2.5c0.7,2.1-0.4,4.3-2.5,5.1
			C233.4,273.9,231.1,272.8,230.4,270.7z"/>
		<path class="st3" d="M248,260.4c-1.2-1.8-0.7-4.3,1.2-5.5c1.8-1.2,4.3-0.7,5.5,1.2c1.2,1.8,0.7,4.3-1.2,5.5
			C251.7,262.8,249.1,262.2,248,260.4z"/>
		<path class="st3" d="M262.3,245.8c-1.6-1.5-1.8-4-0.3-5.7c1.5-1.6,4-1.8,5.7-0.3c1.6,1.5,1.8,4,0.3,5.7
			C266.4,247.1,263.9,247.3,262.3,245.8z"/>
		<path class="st3" d="M272.2,228.1c-1.9-1-2.8-3.4-1.8-5.4c1-1.9,3.4-2.8,5.4-1.8c1.9,1,2.8,3.4,1.8,5.4
			C276.7,228.4,274.2,229.1,272.2,228.1z"/>
		<path class="st3" d="M277.3,208.4c-2.2-0.4-3.6-2.5-3.1-4.8c0.4-2.2,2.5-3.6,4.8-3.1c2.2,0.4,3.6,2.5,3.1,4.8
			C281.6,207.5,279.5,208.9,277.3,208.4z"/>
		<path class="st3" d="M277.1,188.2c-2.2,0.1-4.2-1.6-4.2-3.7c-0.1-2.2,1.6-4.2,3.7-4.2c2.2-0.1,4.2,1.6,4.2,3.7
			C281.2,186.1,279.4,188,277.1,188.2z"/>
		<path class="st3" d="M271.8,168.5c-2.1,0.7-4.3-0.4-5.1-2.5c-0.7-2.1,0.4-4.3,2.5-5.1c2.1-0.7,4.3,0.4,5.1,2.5
			S273.9,167.8,271.8,168.5z"/>
		<path class="st3" d="M261.5,150.9c-1.8,1.2-4.3,0.7-5.5-1.2c-1.2-1.8-0.7-4.3,1.2-5.5c1.8-1.2,4.3-0.7,5.5,1.2
			C263.9,147.2,263.3,149.7,261.5,150.9z"/>
		<path class="st3" d="M246.9,136.6c-1.5,1.6-4,1.8-5.7,0.3s-1.8-4-0.3-5.7c1.5-1.6,4-1.8,5.7-0.3
			C248.3,132.5,248.4,135,246.9,136.6z"/>
		<path class="st3" d="M229.2,126.7c-1,1.9-3.4,2.8-5.4,1.8c-1.9-1-2.8-3.4-1.8-5.4c1-1.9,3.4-2.8,5.4-1.8
			C229.5,122.2,230.2,124.7,229.2,126.7z"/>
		<path class="st3" d="M209.5,121.6c-0.4,2.2-2.5,3.6-4.8,3.1c-2.2-0.4-3.6-2.5-3.1-4.8c0.4-2.2,2.5-3.6,4.8-3.1
			C208.6,117.3,210,119.4,209.5,121.6z"/>
		<path class="st3" d="M189.1,121.7c0.1,2.2-1.6,4.2-3.7,4.2c-2.2,0.1-4.2-1.6-4.2-3.7c-0.1-2.2,1.6-4.2,3.7-4.2
			C187.2,117.7,189.1,119.5,189.1,121.7z"/>
		<path class="st3" d="M169.6,127.1c0.7,2.1-0.4,4.3-2.5,5.1c-2.1,0.7-4.3-0.4-5.1-2.5c-0.7-2.1,0.4-4.3,2.5-5.1
			C166.6,123.8,168.9,125,169.6,127.1z"/>
		<path class="st3" d="M152,137.4c1.2,1.8,0.7,4.3-1.2,5.5c-1.8,1.2-4.3,0.7-5.5-1.2c-1.2-1.8-0.7-4.3,1.2-5.5
			C148.3,135,150.9,135.6,152,137.4z"/>
		<path class="st3" d="M137.7,152c1.6,1.5,1.8,4,0.3,5.7c-1.5,1.6-4,1.8-5.7,0.3c-1.6-1.5-1.8-4-0.3-5.7
			C133.6,150.6,136.1,150.5,137.7,152z"/>
		<path class="st3" d="M127.8,169.7c1.9,1,2.8,3.4,1.8,5.4c-1,1.9-3.4,2.8-5.4,1.8s-2.8-3.4-1.8-5.4
			C123.3,169.4,125.8,168.6,127.8,169.7z"/>
	</g>
	<g>
		<path class="st4" d="M144.3,177.4c1.5,0.7,2.2,2.5,1.5,4.2c-0.7,1.5-2.5,2.2-4.2,1.5c-1.5-0.7-2.2-2.5-1.5-4.2
			C140.9,177.4,142.8,176.7,144.3,177.4z"/>
		<path class="st4" d="M140.6,192.6c1.6,0.3,2.8,1.9,2.4,3.6c-0.3,1.6-1.9,2.8-3.6,2.4c-1.6-0.3-2.8-1.9-2.4-3.6
			C137.3,193.4,138.9,192.3,140.6,192.6z"/>
		<path class="st4" d="M141,208.3c1.6-0.1,3.1,1.2,3.3,2.8c0.1,1.6-1.2,3.1-2.8,3.3c-1.6,0.1-3.1-1.2-3.3-2.8
			C138,209.8,139.4,208.3,141,208.3z"/>
		<path class="st4" d="M145.5,223.2c1.6-0.6,3.4,0.3,3.9,1.9c0.6,1.6-0.3,3.4-1.9,3.9c-1.6,0.6-3.4-0.3-3.9-1.9
			C143,225.4,143.9,223.8,145.5,223.2z"/>
		<path class="st4" d="M153.5,236.4c1.3-0.9,3.3-0.6,4.3,0.7c0.9,1.3,0.6,3.3-0.7,4.3c-1.3,0.9-3.3,0.6-4.3-0.7
			C151.7,239.2,152.2,237.5,153.5,236.4z"/>
		<path class="st4" d="M164.9,247.1c1-1.3,3-1.5,4.3-0.3c1.3,1,1.5,3.1,0.3,4.3c-1,1.3-3.1,1.5-4.3,0.3
			C164,250.4,163.8,248.5,164.9,247.1z"/>
		<path class="st4" d="M178.6,254.6c0.7-1.5,2.5-2.2,4.2-1.5c1.5,0.7,2.2,2.5,1.5,4.2c-0.7,1.5-2.5,2.2-4.2,1.5
			C178.4,258,177.8,256.1,178.6,254.6z"/>
		<path class="st4" d="M193.7,258.3c0.3-1.6,1.9-2.8,3.6-2.4c1.6,0.3,2.8,1.9,2.4,3.6c-0.3,1.6-1.9,2.8-3.6,2.4
			C194.5,261.6,193.4,259.9,193.7,258.3z"/>
		<path class="st4" d="M209.2,257.9c-0.1-1.6,1.2-3.1,2.8-3.3c1.6-0.1,3.1,1.2,3.3,2.8c0.1,1.6-1.2,3.1-2.8,3.3
			S209.4,259.5,209.2,257.9z"/>
		<path class="st4" d="M224.3,253.4c-0.6-1.6,0.3-3.4,1.9-3.9c1.6-0.6,3.4,0.3,3.9,1.9c0.6,1.6-0.3,3.4-1.9,3.9
			C226.5,255.9,224.9,255,224.3,253.4z"/>
		<path class="st4" d="M237.5,245.3c-0.9-1.3-0.6-3.3,0.7-4.3c1.3-0.9,3.3-0.6,4.3,0.7c0.9,1.3,0.6,3.3-0.7,4.3
			C240.4,247.1,238.4,246.7,237.5,245.3z"/>
		<path class="st4" d="M248.3,234c-1.3-1-1.5-3-0.3-4.3c1-1.3,3-1.5,4.3-0.3c1.3,1,1.5,3.1,0.3,4.3
			C251.5,234.9,249.6,235.1,248.3,234z"/>
		<path class="st4" d="M255.7,220.3c-1.5-0.7-2.2-2.5-1.5-4.2c0.7-1.5,2.5-2.2,4.2-1.5c1.5,0.7,2.2,2.5,1.5,4.2
			C259.1,220.5,257.2,221.1,255.7,220.3z"/>
		<path class="st4" d="M259.4,205.1c-1.6-0.3-2.8-1.9-2.4-3.6c0.3-1.6,1.9-2.8,3.6-2.4c1.6,0.3,2.8,1.9,2.4,3.6
			C262.7,204.4,261.1,205.4,259.4,205.1z"/>
		<path class="st4" d="M259,189.6c-1.6,0.1-3.1-1.2-3.3-2.8c-0.1-1.6,1.2-3.1,2.8-3.3c1.6-0.1,3.1,1.2,3.3,2.8
			S260.6,189.5,259,189.6z"/>
		<path class="st4" d="M254.5,174.6c-1.6,0.6-3.4-0.3-3.9-1.9c-0.6-1.6,0.3-3.4,1.9-3.9c1.6-0.6,3.4,0.3,3.9,1.9
			C257,172.4,256.1,174.2,254.5,174.6z"/>
		<path class="st4" d="M246.5,161.4c-1.3,0.9-3.3,0.6-4.3-0.7c-0.9-1.3-0.6-3.3,0.7-4.3c1.3-0.9,3.3-0.6,4.3,0.7
			C248.3,158.5,247.8,160.5,246.5,161.4z"/>
		<path class="st4" d="M235.1,150.6c-1,1.3-3,1.5-4.3,0.3c-1.3-1-1.5-3-0.3-4.3c1-1.3,3-1.5,4.3-0.3
			C236,147.4,236.2,149.3,235.1,150.6z"/>
		<path class="st4" d="M221.4,143.2c-0.7,1.5-2.5,2.2-4.2,1.5c-1.5-0.7-2.2-2.5-1.5-4.2c0.7-1.5,2.5-2.2,4.2-1.5
			C221.6,139.8,222.2,141.7,221.4,143.2z"/>
		<path class="st4" d="M206.3,139.5c-0.3,1.6-1.9,2.8-3.6,2.4c-1.6-0.3-2.8-1.9-2.4-3.6c0.3-1.6,1.9-2.8,3.6-2.4
			C205.5,136.2,206.6,137.8,206.3,139.5z"/>
		<path class="st4" d="M190.8,139.9c0.1,1.6-1.2,3.1-2.8,3.3c-1.6,0.1-3.1-1.2-3.3-2.8c-0.1-1.6,1.2-3.1,2.8-3.3
			C189.1,136.9,190.6,138.3,190.8,139.9z"/>
		<path class="st4" d="M175.7,144.4c0.6,1.6-0.3,3.4-1.9,3.9c-1.6,0.6-3.4-0.3-3.9-1.9c-0.6-1.6,0.3-3.4,1.9-3.9
			C173.5,141.8,175.1,142.7,175.7,144.4z"/>
		<path class="st4" d="M162.5,152.4c0.9,1.3,0.6,3.3-0.7,4.3c-1.3,0.9-3.3,0.6-4.3-0.7c-0.9-1.3-0.6-3.3,0.7-4.3
			C159.6,150.8,161.6,151.1,162.5,152.4z"/>
		<path class="st4" d="M151.7,163.7c1.3,1,1.5,3,0.3,4.3c-1,1.3-3,1.5-4.3,0.3c-1.3-1-1.5-3-0.3-4.3
			C148.5,162.8,150.4,162.7,151.7,163.7z"/>
	</g>
	<g>
		<path class="st5" d="M132.7,181.6c1.8,0.6,2.8,2.7,2.2,4.5c-0.6,1.8-2.7,2.8-4.5,2.2s-2.8-2.7-2.2-4.5
			C128.8,181.9,130.9,181,132.7,181.6z"/>
		<path class="st5" d="M130.6,199.5c1.9,0.1,3.4,1.8,3.3,3.7s-1.8,3.4-3.7,3.3s-3.4-1.8-3.3-3.7
			C126.9,200.8,128.7,199.3,130.6,199.5z"/>
		<path class="st5" d="M133.3,217.4c1.9-0.4,3.9,0.9,4.2,2.8c0.4,1.9-0.9,3.9-2.8,4.2c-1.9,0.4-3.9-0.9-4.2-2.8
			C130,219.6,131.3,217.6,133.3,217.4z"/>
		<path class="st5" d="M140.3,233.9c1.8-0.9,3.9-0.1,4.8,1.6c0.9,1.8,0.1,3.9-1.6,4.8c-1.8,0.9-3.9,0.1-4.8-1.6
			C137.9,236.9,138.6,234.8,140.3,233.9z"/>
		<path class="st5" d="M151.4,248c1.5-1.3,3.7-1.2,5.1,0.3c1.3,1.5,1.2,3.7-0.3,5.1c-1.5,1.3-3.7,1.2-5.1-0.3
			C149.8,251.6,150,249.4,151.4,248z"/>
		<path class="st5" d="M165.9,258.8c1-1.6,3.3-2.1,4.9-0.9c1.6,1,2.1,3.3,0.9,4.9c-1,1.6-3.3,2.1-4.9,1
			C165.3,262.6,164.9,260.4,165.9,258.8z"/>
		<path class="st5" d="M182.7,265.5c0.6-1.8,2.7-2.8,4.5-2.2c1.8,0.6,2.8,2.7,2.2,4.5c-0.6,1.8-2.7,2.8-4.5,2.2
			C183,269.3,182.1,267.2,182.7,265.5z"/>
		<path class="st5" d="M200.6,267.5c0.1-1.9,1.8-3.4,3.7-3.3c1.9,0.1,3.4,1.8,3.3,3.7s-1.8,3.4-3.7,3.3
			C201.9,271.3,200.4,269.5,200.6,267.5z"/>
		<path class="st5" d="M218.5,264.9c-0.4-1.9,0.9-3.9,2.8-4.2c1.9-0.4,3.7,0.9,4.2,2.8c0.4,1.9-0.9,3.9-2.8,4.2
			C220.7,268.1,218.8,266.8,218.5,264.9z"/>
		<path class="st5" d="M235,257.9c-0.9-1.8-0.1-3.9,1.6-4.8c1.8-0.9,3.9-0.1,4.8,1.6c0.9,1.8,0.1,3.9-1.6,4.8
			C238,260.2,235.9,259.5,235,257.9z"/>
		<path class="st5" d="M249.1,246.7c-1.3-1.5-1.2-3.7,0.3-5.1c1.5-1.3,3.7-1.2,5.1,0.3s1.2,3.7-0.3,5.1
			C252.7,248.3,250.3,248.2,249.1,246.7z"/>
		<path class="st5" d="M259.9,232.2c-1.6-1-2.1-3.3-0.9-4.9c1-1.6,3.3-2.1,4.9-0.9c1.6,1,2.1,3.3,0.9,4.9
			C263.7,232.8,261.5,233.3,259.9,232.2z"/>
		<path class="st5" d="M266.6,215.4c-1.8-0.6-2.8-2.7-2.2-4.5c0.6-1.8,2.7-2.8,4.5-2.2c1.8,0.6,2.8,2.7,2.2,4.5
			C270.4,215.1,268.4,216,266.6,215.4z"/>
		<path class="st5" d="M268.7,197.5c-1.9-0.1-3.4-1.8-3.3-3.7c0.1-1.9,1.8-3.4,3.7-3.3s3.4,1.8,3.3,3.7
			C272.2,196.2,270.6,197.7,268.7,197.5z"/>
		<path class="st5" d="M266,179.7c-1.9,0.4-3.9-0.9-4.2-2.8c-0.4-1.9,0.9-3.9,2.8-4.2c1.9-0.4,3.9,0.9,4.2,2.8
			C269.3,177.4,267.9,179.4,266,179.7z"/>
		<path class="st5" d="M259,163.1c-1.8,0.9-3.9,0.1-4.8-1.6c-0.9-1.8-0.1-3.9,1.6-4.8c1.8-0.9,3.9-0.1,4.8,1.6
			C261.4,160.2,260.6,162.2,259,163.1z"/>
		<path class="st5" d="M247.8,149c-1.5,1.3-3.7,1.2-5.1-0.3s-1.2-3.7,0.3-5.1c1.5-1.3,3.7-1.2,5.1,0.3
			C249.3,145.4,249.1,147.8,247.8,149z"/>
		<path class="st5" d="M233.2,138.3c-1,1.6-3.3,2.1-4.9,0.9c-1.6-1-2.1-3.3-0.9-4.9c1-1.6,3.3-2.1,4.9-0.9
			C234,134.4,234.4,136.6,233.2,138.3z"/>
		<path class="st5" d="M216.5,131.6c-0.6,1.8-2.7,2.8-4.5,2.2s-2.8-2.7-2.2-4.5c0.6-1.8,2.7-2.8,4.5-2.2
			C216.2,127.7,217.1,129.8,216.5,131.6z"/>
		<path class="st5" d="M198.7,129.5c-0.1,1.9-1.8,3.4-3.7,3.3s-3.4-1.8-3.3-3.7s1.8-3.4,3.7-3.3
			C197.3,125.9,198.8,127.5,198.7,129.5z"/>
		<path class="st5" d="M180.8,132.2c0.4,1.9-0.9,3.7-2.8,4.2c-1.9,0.4-3.9-0.9-4.2-2.8c-0.4-1.9,0.9-3.9,2.8-4.2
			C178.6,128.9,180.5,130.2,180.8,132.2z"/>
		<path class="st5" d="M164.3,139.2c0.9,1.8,0.1,3.9-1.6,4.8c-1.8,0.9-3.9,0.1-4.8-1.6c-0.9-1.8-0.1-3.9,1.6-4.8
			C161.3,136.8,163.4,137.5,164.3,139.2z"/>
		<path class="st5" d="M150.1,150.3c1.3,1.5,1.2,3.7-0.3,5.1c-1.5,1.3-3.7,1.2-5.1-0.3c-1.3-1.5-1.2-3.7,0.3-5.1
			S148.8,149,150.1,150.3z"/>
		<path class="st5" d="M139.4,164.8c1.6,1,2.1,3.3,0.9,4.9c-1,1.6-3.3,2.1-4.9,0.9c-1.6-1-2.1-3.3-0.9-4.9
			C135.5,164.2,137.7,163.7,139.4,164.8z"/>
	</g>
	<g>
		<path class="st6" d="M153.2,175.1c1.3,0.9,1.6,2.5,0.7,3.7c-0.9,1.3-2.5,1.6-3.7,0.7c-1.3-0.9-1.6-2.5-0.7-3.7
			C150.4,174.6,152,174.2,153.2,175.1z"/>
		<path class="st6" d="M148.5,188c1.5,0.4,2.2,1.9,1.8,3.4c-0.4,1.5-1.9,2.2-3.4,1.8c-1.5-0.4-2.2-1.9-1.8-3.4
			C145.5,188.3,147,187.6,148.5,188z"/>
		<path class="st6" d="M147,201.7c1.5,0.1,2.7,1.3,2.5,2.8c-0.1,1.5-1.3,2.7-2.8,2.5s-2.7-1.3-2.5-2.8S145.5,201.7,147,201.7z"/>
		<path class="st6" d="M149.4,215.4c1.5-0.3,3,0.6,3.3,2.1c0.3,1.5-0.6,3-2.1,3.3c-1.5,0.3-3-0.6-3.3-2.1
			C146.8,217.2,147.9,215.7,149.4,215.4z"/>
		<path class="st6" d="M155,227.9c1.3-0.7,3-0.1,3.7,1.2c0.7,1.3,0.1,3-1.2,3.7s-3,0.1-3.7-1.2C153.1,230.3,153.7,228.7,155,227.9z"
			/>
		<path class="st6" d="M163.8,238.6c1.2-1,2.8-0.9,3.9,0.1c1,1.2,0.9,2.8-0.1,3.9c-1.2,1-2.8,0.9-3.9-0.1
			C162.6,241.5,162.6,239.7,163.8,238.6z"/>
		<path class="st6" d="M175,246.7c0.9-1.3,2.5-1.6,3.7-0.7c1.3,0.9,1.6,2.5,0.7,3.7c-0.9,1.3-2.5,1.6-3.7,0.7
			C174.5,249.7,174.2,248,175,246.7z"/>
		<path class="st6" d="M187.9,251.6c0.4-1.5,1.9-2.2,3.4-1.8s2.2,1.9,1.8,3.4c-0.4,1.5-1.9,2.2-3.4,1.8
			C188.2,254.6,187.5,253.1,187.9,251.6z"/>
		<path class="st6" d="M201.6,252.9c0.1-1.5,1.3-2.7,2.8-2.5c1.5,0.1,2.7,1.3,2.5,2.8c-0.1,1.5-1.3,2.7-2.8,2.5
			C202.8,255.8,201.6,254.4,201.6,252.9z"/>
		<path class="st6" d="M215.3,250.7c-0.3-1.5,0.6-3,2.1-3.3c1.5-0.3,3,0.6,3.3,2.1c0.3,1.5-0.6,3-2.1,3.3
			C217.1,253.1,215.6,252.2,215.3,250.7z"/>
		<path class="st6" d="M228,245.1c-0.7-1.3-0.1-3,1.2-3.7c1.3-0.7,3-0.1,3.7,1.2c0.7,1.3,0.1,3-1.2,3.7
			C230.2,247,228.6,246.4,228,245.1z"/>
		<path class="st6" d="M238.6,236.3c-1-1.2-0.9-2.8,0.1-3.9c1.2-1,2.8-0.9,3.9,0.1c1,1.2,0.9,2.8-0.1,3.9
			C241.4,237.5,239.6,237.5,238.6,236.3z"/>
		<path class="st6" d="M246.8,225.1c-1.3-0.7-1.6-2.5-0.7-3.7c0.9-1.2,2.5-1.6,3.7-0.7c1.2,0.9,1.6,2.5,0.7,3.7
			C249.6,225.5,248,225.8,246.8,225.1z"/>
		<path class="st6" d="M251.5,212.1c-1.5-0.4-2.2-1.9-1.8-3.4c0.4-1.5,1.9-2.2,3.4-1.8c1.5,0.4,2.2,1.9,1.8,3.4
			C254.5,211.8,253,212.6,251.5,212.1z"/>
		<path class="st6" d="M253,198.3c-1.5-0.1-2.7-1.3-2.5-2.8s1.3-2.7,2.8-2.5c1.5,0.1,2.7,1.3,2.5,2.8
			C255.7,197.2,254.5,198.4,253,198.3z"/>
		<path class="st6" d="M250.6,184.7c-1.5,0.3-3-0.6-3.3-2.1c-0.3-1.5,0.6-3,2.1-3.3c1.5-0.3,3,0.6,3.3,2.1
			C253.2,182.9,252.1,184.4,250.6,184.7z"/>
		<path class="st6" d="M245,172.1c-1.3,0.7-3,0.1-3.7-1.2s-0.1-3,1.2-3.7c1.3-0.7,3-0.1,3.7,1.2S246.3,171.3,245,172.1z"/>
		<path class="st6" d="M236.2,161.4c-1.2,1-2.8,0.9-3.9-0.1c-1-1.2-0.9-2.8,0.1-3.9c1.2-1,2.8-0.9,3.9,0.1
			C237.4,158.7,237.4,160.3,236.2,161.4z"/>
		<path class="st6" d="M225,153.3c-0.7,1.3-2.5,1.6-3.7,0.7c-1.3-0.9-1.6-2.5-0.7-3.7c0.9-1.3,2.5-1.6,3.7-0.7
			C225.5,150.3,225.8,152.1,225,153.3z"/>
		<path class="st6" d="M212.1,148.4c-0.4,1.5-1.9,2.2-3.4,1.8c-1.5-0.4-2.2-1.9-1.8-3.4c0.4-1.5,1.9-2.2,3.4-1.8
			C211.8,145.4,212.5,147.1,212.1,148.4z"/>
		<path class="st6" d="M198.4,147.1c-0.1,1.5-1.3,2.7-2.8,2.5c-1.5-0.1-2.7-1.3-2.5-2.8s1.3-2.7,2.8-2.5
			C197.2,144.2,198.4,145.6,198.4,147.1z"/>
		<path class="st6" d="M184.7,149.3c0.3,1.5-0.6,3-2.1,3.3c-1.5,0.3-3-0.6-3.3-2.1c-0.3-1.5,0.6-3,2.1-3.3
			C182.9,146.9,184.4,147.8,184.7,149.3z"/>
		<path class="st6" d="M172,154.9c0.7,1.3,0.1,3-1.2,3.7c-1.3,0.7-3,0.1-3.7-1.2c-0.7-1.3-0.1-3,1.2-3.7
			C169.8,153.2,171.4,153.6,172,154.9z"/>
		<path class="st6" d="M161.4,163.7c1,1.2,0.9,2.8-0.1,3.9c-1.2,1-2.8,0.9-3.9-0.1c-1-1.2-0.9-2.8,0.1-3.9
			C158.6,162.5,160.4,162.7,161.4,163.7z"/>
	</g>
	<g>
		<path class="st1" d="M157.3,182.6c1.2,0.6,1.6,1.9,1,3.1c-0.6,1.2-1.9,1.6-3.1,1s-1.6-1.9-1-3.1
			C154.7,182.5,156.1,182.1,157.3,182.6z"/>
		<path class="st1" d="M154.4,194.1c1.3,0.3,2.1,1.5,1.9,2.7c-0.3,1.3-1.5,2.1-2.7,1.9c-1.3-0.3-2.1-1.5-1.9-2.7
			C151.9,194.7,153.2,193.8,154.4,194.1z"/>
		<path class="st1" d="M154.7,206c1.3-0.1,2.4,0.9,2.5,2.2c0.1,1.3-0.9,2.4-2.2,2.5c-1.3,0.1-2.4-0.9-2.5-2.2
			C152.5,207.2,153.5,206,154.7,206z"/>
		<path class="st1" d="M158.1,217.4c1.2-0.4,2.5,0.1,3,1.5c0.4,1.2-0.1,2.5-1.5,3c-1.2,0.4-2.5-0.1-3-1.5
			C156.2,219.1,157,217.8,158.1,217.4z"/>
		<path class="st1" d="M164.3,227.5c1-0.7,2.5-0.4,3.3,0.6s0.4,2.5-0.6,3.3c-1,0.7-2.5,0.4-3.3-0.6
			C162.9,229.6,163.2,228.2,164.3,227.5z"/>
		<path class="st1" d="M172.9,235.7c0.9-1,2.4-1,3.3-0.3c1,0.9,1,2.4,0.3,3.3c-0.9,1-2.4,1-3.3,0.3
			C172.1,238.1,172,236.6,172.9,235.7z"/>
		<path class="st1" d="M183.3,241.3c0.6-1.2,1.9-1.6,3.1-1c1.2,0.6,1.6,1.9,1,3.1c-0.6,1.2-1.9,1.6-3.1,1S182.7,242.4,183.3,241.3z"
			/>
		<path class="st1" d="M194.8,244c0.3-1.3,1.5-2.1,2.7-1.9c1.3,0.3,2.1,1.5,1.9,2.7c-0.3,1.3-1.5,2.1-2.7,1.9
			C195.4,246.5,194.6,245.3,194.8,244z"/>
		<path class="st1" d="M206.7,243.7c-0.1-1.3,0.9-2.4,2.2-2.5c1.3-0.1,2.4,0.9,2.5,2.2c0.1,1.3-0.9,2.4-2.2,2.5
			C207.9,245.9,206.9,245.1,206.7,243.7z"/>
		<path class="st1" d="M218,240.4c-0.4-1.2,0.1-2.5,1.5-3c1.2-0.4,2.5,0.1,3,1.5c0.4,1.2-0.1,2.5-1.5,3
			C219.8,242.2,218.5,241.6,218,240.4z"/>
		<path class="st1" d="M228.1,234.2c-0.7-1-0.4-2.5,0.6-3.3s2.5-0.4,3.3,0.6c0.7,1,0.4,2.5-0.6,3.3S228.9,235.2,228.1,234.2z"/>
		<path class="st1" d="M236.3,225.5c-1-0.9-1-2.4-0.3-3.3c0.9-1,2.4-1,3.3-0.3c1,0.9,1,2.4,0.3,3.3
			C238.9,226.3,237.4,226.4,236.3,225.5z"/>
		<path class="st1" d="M242,215.3c-1.2-0.6-1.6-1.9-1-3.1c0.6-1.2,1.9-1.6,3.1-1c1.2,0.6,1.6,1.9,1,3.1
			C244.5,215.3,243.2,215.7,242,215.3z"/>
		<path class="st1" d="M244.8,203.6c-1.3-0.3-2.1-1.5-1.9-2.7c0.3-1.3,1.5-2.1,2.7-1.9c1.3,0.3,2.1,1.5,1.9,2.7
			C247.2,203.1,246,203.9,244.8,203.6z"/>
		<path class="st1" d="M244.5,191.9c-1.3,0.1-2.4-0.9-2.5-2.2c-0.1-1.3,0.9-2.4,2.2-2.5c1.3-0.1,2.4,0.9,2.5,2.2
			C246.8,190.5,245.7,191.7,244.5,191.9z"/>
		<path class="st1" d="M241.1,180.4c-1.2,0.4-2.5-0.1-3-1.5c-0.4-1.2,0.1-2.5,1.5-3c1.2-0.4,2.5,0.1,3,1.5
			C243,178.6,242.3,180,241.1,180.4z"/>
		<path class="st1" d="M235,170.3c-1,0.7-2.5,0.4-3.3-0.6s-0.4-2.5,0.6-3.3c1-0.7,2.5-0.4,3.3,0.6C236.3,168.2,236,169.5,235,170.3z
			"/>
		<path class="st1" d="M226.4,162.1c-0.9,1-2.4,1-3.3,0.3c-1-0.9-1-2.4-0.3-3.3c0.9-1,2.4-1,3.3-0.3
			C227.1,159.7,227.3,161.2,226.4,162.1z"/>
		<path class="st1" d="M215.9,156.4c-0.6,1.2-1.9,1.6-3.1,1c-1.2-0.6-1.6-1.9-1-3.1c0.6-1.2,1.9-1.6,3.1-1
			C215.9,153.9,216.5,155.4,215.9,156.4z"/>
		<path class="st1" d="M204.5,153.8c-0.3,1.3-1.5,2.1-2.7,1.9c-1.3-0.3-2.1-1.5-1.9-2.7c0.3-1.3,1.5-2.1,2.7-1.9
			C203.9,151.2,204.6,152.4,204.5,153.8z"/>
		<path class="st1" d="M192.6,154.1c0.1,1.3-0.9,2.4-2.2,2.5c-1.3,0.1-2.4-0.9-2.5-2.2c-0.1-1.3,0.9-2.4,2.2-2.5
			C191.4,151.8,192.4,152.7,192.6,154.1z"/>
		<path class="st1" d="M181.2,157.3c0.4,1.2-0.1,2.5-1.5,3c-1.2,0.4-2.5-0.1-3-1.5c-0.4-1.2,0.1-2.5,1.5-3
			C179.4,155.5,180.8,156.1,181.2,157.3z"/>
		<path class="st1" d="M171.1,163.6c0.7,1,0.4,2.5-0.6,3.3c-1,0.7-2.5,0.4-3.3-0.6c-0.7-1-0.4-2.5,0.6-3.3
			C168.9,162.2,170.4,162.5,171.1,163.6z"/>
		<path class="st1" d="M162.9,172.2c1,0.9,1,2.4,0.3,3.3c-0.9,1-2.4,1-3.3,0.3c-1-0.9-1-2.4-0.3-3.3
			C160.4,171.5,161.9,171.3,162.9,172.2z"/>
	</g>
</g>
</svg>