<?xml version="1.0" encoding="utf-8"?>
<!-- Generator: Adobe Illustrator 23.0.1, SVG Export Plug-In . SVG Version: 6.00 Build 0)  -->
<svg version="1.1" id="Layer_1" xmlns="http://www.w3.org/2000/svg" xmlns:xlink="http://www.w3.org/1999/xlink" x="0px" y="0px"
	 viewBox="0 0 400 400" style="enable-background:new 0 0 400 400;" xml:space="preserve">
<style type="text/css">
	.st0{fill:url(#SVGID_2_);}
	.st1{opacity:0.5;fill:#42E8E0;}
	.st2{fill:#42E8E0;}
	.st3{fill:url(#SVGID_3_);}
	.st4{fill:url(#SVGID_4_);}
	.st5{fill:url(#SVGID_5_);}
	.st6{fill:#24126A;}
	.st7{opacity:0.51;}
	.st8{fill:#453C9E;}
	.st9{fill:url(#SVGID_6_);}
	.st10{fill:url(#SVGID_7_);}
	.st11{fill:#2842A2;}
	.st12{fill:#ADB1F2;}
	.st13{fill:#9198DB;}
	.st14{fill:url(#SVGID_8_);}
	.st15{opacity:0.11;}
	.st16{clip-path:url(#SVGID_9_);}
	.st17{fill:url(#SVGID_10_);}
	.st18{fill:url(#SVGID_11_);}
	.st19{opacity:0.42;fill:url(#SVGID_12_);}
	.st20{opacity:0.42;fill:url(#SVGID_13_);}
	.st21{fill:url(#SVGID_14_);}
	.st22{fill:url(#SVGID_15_);}
	.st23{opacity:0.6;fill:#24126A;}
	.st24{opacity:0.96;fill:url(#SVGID_16_);}
	.st25{opacity:0.8;fill:#453C9E;}
	.st26{opacity:0.32;}
	.st27{fill:#4553C7;}
	.st28{fill:url(#SVGID_17_);}
	.st29{fill:url(#SVGID_18_);}
	.st30{fill:url(#SVGID_19_);}
	.st31{opacity:0.3;fill:url(#SVGID_20_);}
	.st32{opacity:0.5;fill:#FFFFFF;}
	.st33{fill:url(#SVGID_21_);}
	.st34{fill:url(#SVGID_22_);}
	.st35{fill:url(#SVGID_23_);}
	.st36{fill:url(#SVGID_24_);}
	.st37{fill:url(#SVGID_25_);}
	.st38{fill:url(#SVGID_26_);}
	.st39{fill:url(#SVGID_27_);}
	.st40{fill:url(#SVGID_28_);}
	.st41{fill:url(#SVGID_29_);}
	.st42{fill:url(#SVGID_30_);}
	.st43{fill:url(#SVGID_31_);}
	.st44{fill:url(#SVGID_32_);}
	.st45{fill:url(#SVGID_33_);}
	.st46{fill:url(#SVGID_34_);}
	.st47{fill:url(#SVGID_35_);}
	.st48{fill:url(#SVGID_36_);}
	.st49{fill:#FFFFFF;}
	.st50{fill:url(#SVGID_37_);}
	.st51{fill:url(#SVGID_38_);}
	.st52{fill:url(#SVGID_39_);}
	.st53{opacity:0.48;fill:url(#SVGID_40_);}
	.st54{opacity:0.48;fill:url(#SVGID_41_);}
	.st55{opacity:0.48;fill:url(#SVGID_42_);}
	.st56{fill:url(#SVGID_43_);}
	.st57{fill:url(#SVGID_44_);}
	.st58{opacity:0.5;fill:url(#SVGID_45_);}
	.st59{opacity:0.48;fill:url(#SVGID_46_);}
	.st60{fill:#BCBEFF;}
</style>
<g>
	
		<radialGradient id="SVGID_2_" cx="200" cy="568" r="200" gradientTransform="matrix(1 0 0 1 0 -368)" gradientUnits="userSpaceOnUse">
		<stop  offset="0" style="stop-color:#3399FF"/>
		<stop  offset="0.2823" style="stop-color:#3390F6"/>
		<stop  offset="0.7501" style="stop-color:#3376DC"/>
		<stop  offset="1" style="stop-color:#3366CC"/>
	</radialGradient>
	<rect class="st0" width="400" height="400"/>
</g>
<g>
	<g>
		<polygon class="st1" points="251.1,68.3 237.7,60.6 237.7,57.7 251.1,65.4 		"/>
		<polygon class="st1" points="258,72.3 253.2,69.5 253.2,66.6 258,69.4 		"/>
		<polygon class="st1" points="263.3,75.4 260,73.5 260,70.5 263.3,72.4 		"/>
		<polygon class="st1" points="245,71.5 237.7,67.3 237.7,64.4 245,68.6 		"/>
		<polygon class="st1" points="256,77.9 247.1,72.7 247.1,69.8 256,75 		"/>
		<polygon class="st1" points="261.4,81 258.1,79.1 258.1,76.1 261.4,78 		"/>
		<polygon class="st1" points="266.4,83.9 263.1,82 263.1,79.1 266.4,81 		"/>
		<polygon class="st2" points="243,77.1 237.7,74.1 237.7,71.1 243,74.2 		"/>
		<polygon class="st2" points="246.9,79.3 245,78.3 245,75.3 246.9,76.4 		"/>
		<polygon class="st1" points="252.2,82.4 248.9,80.5 248.9,77.6 252.2,79.5 		"/>
		<polygon class="st1" points="257.2,92 237.7,80.8 237.7,77.8 257.2,89.1 		"/>
		<polygon class="st1" points="264.1,96 259.3,93.2 259.3,90.3 264.1,93.1 		"/>
		<polygon class="st1" points="243,90.6 237.7,87.5 237.7,84.6 243,87.6 		"/>
		<polygon class="st1" points="255.4,97.7 245,91.7 245,88.8 255.4,94.8 		"/>
		<polygon class="st1" points="260.7,100.8 257.5,98.9 257.5,96 260.7,97.9 		"/>
		<polygon class="st1" points="248.5,100.5 237.7,94.2 237.7,91.3 248.5,97.5 		"/>
		<polygon class="st2" points="258.4,106.2 250.6,101.7 250.6,98.7 258.4,103.2 		"/>
		<polygon class="st1" points="265.7,110.4 260.4,107.4 260.4,104.4 265.7,107.5 		"/>
		<polygon class="st1" points="241.4,103.1 237.7,101 237.7,98 241.4,100.1 		"/>
		<polygon class="st1" points="248.2,107 243.4,104.3 243.4,101.3 248.2,104.1 		"/>
		<polygon class="st1" points="258.1,112.7 250.3,108.2 250.3,105.3 258.1,109.8 		"/>
		<polygon class="st1" points="248.9,114.1 237.7,107.7 237.7,104.7 248.9,111.2 		"/>
		<polygon class="st1" points="261.4,121.4 251,115.3 251,112.4 261.4,118.4 		"/>
		<polygon class="st2" points="266.8,124.5 263.5,122.6 263.5,119.6 266.8,121.5 		"/>
		<polygon class="st1" points="271.9,127.4 268.6,125.5 268.6,122.6 271.9,124.5 		"/>
		<polygon class="st1" points="244.4,118.3 237.7,114.4 237.7,111.5 244.4,115.3 		"/>
		<polygon class="st2" points="272.5,80.7 281.8,86 281.8,83.1 272.5,77.7 		"/>
		<polygon class="st1" points="274.4,88.5 281.8,92.8 281.8,89.8 274.4,85.6 		"/>
		<polygon class="st1" points="276.5,96.4 281.8,99.5 281.8,96.5 276.5,93.5 		"/>
		<polygon class="st1" points="274.1,101.8 281.8,106.2 281.8,103.3 274.1,98.8 		"/>
		<polygon class="st1" points="276.5,109.9 281.8,112.9 281.8,110 276.5,106.9 		"/>
		<polygon class="st1" points="275.1,115.8 281.8,119.7 281.8,116.7 275.1,112.8 		"/>
		<polygon class="st1" points="278.1,124.3 281.8,126.4 281.8,123.4 278.1,121.3 		"/>
		<polygon class="st1" points="274.7,129 281.8,133.1 281.8,130.2 274.7,126.1 		"/>
		<polygon class="st1" points="275.1,136 281.8,139.8 281.8,136.9 275.1,133 		"/>
		<polygon class="st1" points="249.3,121.1 246.5,119.5 246.5,116.5 249.3,118.2 		"/>
		<polygon class="st1" points="257.8,126 251.4,122.3 251.4,119.4 257.8,123.1 		"/>
		<polygon class="st1" points="303.1,98.2 289.7,90.5 289.7,87.6 303.1,95.3 		"/>
		<polygon class="st1" points="310,102.2 305.2,99.4 305.2,96.5 310,99.3 		"/>
		<polygon class="st2" points="315.3,105.3 312,103.4 312,100.5 315.3,102.3 		"/>
		<polygon class="st1" points="297,101.5 289.7,97.2 289.7,94.3 297,98.5 		"/>
		<polygon class="st1" points="308,107.8 299.1,102.6 299.1,99.7 308,104.9 		"/>
		<polygon class="st2" points="313.4,110.9 310.1,109 310.1,106 313.4,107.9 		"/>
		<polygon class="st1" points="318.4,113.8 315.1,111.9 315.1,109 318.4,110.9 		"/>
		<polygon class="st1" points="295,107 289.7,104 289.7,101 295,104.1 		"/>
		<polygon class="st1" points="298.9,109.2 297,108.2 297,105.2 298.9,106.3 		"/>
		<polygon class="st1" points="304.2,112.3 300.9,110.4 300.9,107.5 304.2,109.4 		"/>
		<polygon class="st1" points="309.2,122 289.7,110.7 289.7,107.7 309.2,119 		"/>
		<polygon class="st1" points="316.1,125.9 311.3,123.1 311.3,120.2 316.1,123 		"/>
		<polygon class="st1" points="295,120.5 289.7,117.4 289.7,114.5 295,117.5 		"/>
		<polygon class="st1" points="307.4,127.6 297,121.6 297,118.7 307.4,124.7 		"/>
		<polygon class="st1" points="312.7,130.7 309.5,128.8 309.5,125.9 312.7,127.8 		"/>
		<polygon class="st2" points="300.5,130.4 289.7,124.1 289.7,121.2 300.5,127.4 		"/>
		<polygon class="st1" points="310.4,136.1 302.6,131.6 302.6,128.6 310.4,133.1 		"/>
		<polygon class="st1" points="317.7,140.3 312.4,137.3 312.4,134.3 317.7,137.4 		"/>
		<polygon class="st1" points="293.4,133 289.7,130.9 289.7,127.9 293.4,130 		"/>
		<polygon class="st1" points="300.2,136.9 295.4,134.2 295.4,131.2 300.2,134 		"/>
		<polygon class="st2" points="310.1,142.6 302.3,138.1 302.3,135.2 310.1,139.7 		"/>
		<polygon class="st1" points="300.9,144.1 289.7,137.6 289.7,134.6 300.9,141.1 		"/>
		<polygon class="st1" points="313.4,151.3 303,145.2 303,142.3 313.4,148.3 		"/>
		<polygon class="st1" points="318.8,154.4 315.5,152.5 315.5,149.5 318.8,151.4 		"/>
		<polygon class="st1" points="323.9,157.3 320.6,155.4 320.6,152.5 323.9,154.4 		"/>
		<polygon class="st1" points="296.4,148.2 289.7,144.3 289.7,141.4 296.4,145.2 		"/>
		<polygon class="st2" points="324.5,110.6 333.8,115.9 333.8,113 324.5,107.6 		"/>
		<polygon class="st1" points="326.4,118.4 333.8,122.7 333.8,119.7 326.4,115.5 		"/>
		<polygon class="st1" points="328.5,126.3 333.8,129.4 333.8,126.4 328.5,123.4 		"/>
		<polygon class="st1" points="326.1,131.7 333.8,136.1 333.8,133.2 326.1,128.7 		"/>
		<polygon class="st1" points="328.5,139.8 333.8,142.8 333.8,139.9 328.5,136.8 		"/>
		<polygon class="st1" points="327.1,145.7 333.8,149.6 333.8,146.6 327.1,142.8 		"/>
		<polygon class="st1" points="330.1,154.2 333.8,156.3 333.8,153.4 330.1,151.2 		"/>
		<polygon class="st1" points="326.7,158.9 333.8,163 333.8,160.1 326.7,156 		"/>
		<polygon class="st1" points="327.1,165.9 333.8,169.7 333.8,166.8 327.1,162.9 		"/>
		<polygon class="st2" points="301.3,151 298.5,149.4 298.5,146.4 301.3,148.1 		"/>
		<polygon class="st1" points="309.8,155.9 303.4,152.2 303.4,149.3 309.8,153 		"/>
		<polygon class="st1" points="251.1,128.9 237.7,121.2 237.7,118.2 251.1,126 		"/>
		<polygon class="st1" points="258,132.9 253.2,130.1 253.2,127.2 258,129.9 		"/>
		<polygon class="st1" points="263.3,136 260,134.1 260,131.1 263.3,133 		"/>
		<polygon class="st1" points="245,132.1 237.7,127.9 237.7,125 245,129.2 		"/>
		<polygon class="st1" points="256,138.5 247.1,133.3 247.1,130.4 256,135.5 		"/>
		<polygon class="st1" points="261.4,141.6 258.1,139.7 258.1,136.7 261.4,138.6 		"/>
		<polygon class="st1" points="266.4,144.5 263.1,142.6 263.1,139.6 266.4,141.5 		"/>
		<polygon class="st1" points="243,137.7 237.7,134.6 237.7,131.7 243,134.7 		"/>
		<polygon class="st1" points="246.9,139.9 245,138.9 245,135.9 246.9,137 		"/>
		<polygon class="st1" points="252.2,143 248.9,141.1 248.9,138.2 252.2,140 		"/>
		<polygon class="st1" points="257.2,152.6 237.7,141.4 237.7,138.4 257.2,149.7 		"/>
		<polygon class="st1" points="264.1,156.6 259.3,153.8 259.3,150.9 264.1,153.7 		"/>
		<polygon class="st1" points="243,151.1 237.7,148.1 237.7,145.1 243,148.2 		"/>
		<polygon class="st1" points="255.4,158.3 245,152.3 245,149.4 255.4,155.4 		"/>
		<polygon class="st1" points="260.7,161.4 257.5,159.5 257.5,156.5 260.7,158.4 		"/>
		<polygon class="st1" points="248.5,161.1 237.7,154.8 237.7,151.9 248.5,158.1 		"/>
		<polygon class="st1" points="258.4,166.8 250.6,162.2 250.6,159.3 258.4,163.8 		"/>
		<polygon class="st1" points="265.7,171 260.4,167.9 260.4,165 265.7,168 		"/>
		<polygon class="st1" points="241.4,163.7 237.7,161.5 237.7,158.6 241.4,160.7 		"/>
		<polygon class="st1" points="248.2,167.6 243.4,164.8 243.4,161.9 248.2,164.7 		"/>
		<polygon class="st1" points="258.1,173.3 250.3,168.8 250.3,165.9 258.1,170.4 		"/>
		<polygon class="st1" points="248.9,174.7 237.7,168.3 237.7,165.3 248.9,171.8 		"/>
		<polygon class="st1" points="261.4,182 251,175.9 251,173 261.4,179 		"/>
		<polygon class="st1" points="266.8,185 263.5,183.1 263.5,180.2 266.8,182.1 		"/>
		<polygon class="st1" points="271.9,188 268.6,186.1 268.6,183.2 271.9,185.1 		"/>
		<polygon class="st1" points="244.4,178.9 237.7,175 237.7,172.1 244.4,175.9 		"/>
		<polygon class="st1" points="272.5,141.2 281.8,146.6 281.8,143.7 272.5,138.3 		"/>
		<polygon class="st1" points="274.4,149.1 281.8,153.3 281.8,150.4 274.4,146.2 		"/>
		<polygon class="st1" points="276.5,157 281.8,160.1 281.8,157.1 276.5,154.1 		"/>
		<polygon class="st1" points="274.1,162.4 281.8,166.8 281.8,163.8 274.1,159.4 		"/>
		<polygon class="st1" points="276.5,170.5 281.8,173.5 281.8,170.6 276.5,167.5 		"/>
		<polygon class="st1" points="275.1,176.4 281.8,180.2 281.8,177.3 275.1,173.4 		"/>
		<polygon class="st1" points="278.1,184.9 281.8,187 281.8,184 278.1,181.9 		"/>
		<polygon class="st1" points="274.7,189.6 281.8,193.7 281.8,190.8 274.7,186.7 		"/>
		<polygon class="st1" points="275.1,196.6 281.8,200.4 281.8,197.5 275.1,193.6 		"/>
		<polygon class="st1" points="249.3,181.7 246.5,180.1 246.5,177.1 249.3,178.8 		"/>
		<polygon class="st1" points="257.8,186.6 251.4,182.9 251.4,179.9 257.8,183.6 		"/>
		<polygon class="st1" points="263.1,209.2 252.3,203 252.3,200 263.1,206.3 		"/>
		<polygon class="st1" points="270.5,213.5 266.2,211 266.2,208.1 270.5,210.6 		"/>
		<polygon class="st1" points="303.1,158.8 289.7,151.1 289.7,148.1 303.1,155.9 		"/>
		<polygon class="st1" points="310,162.8 305.2,160 305.2,157.1 310,159.9 		"/>
		<polygon class="st1" points="315.3,165.9 312,164 312,161 315.3,162.9 		"/>
		<polygon class="st1" points="297,162 289.7,157.8 289.7,154.9 297,159.1 		"/>
		<polygon class="st1" points="308,168.4 299.1,163.2 299.1,160.3 308,165.4 		"/>
		<polygon class="st1" points="313.4,171.5 310.1,169.6 310.1,166.6 313.4,168.5 		"/>
		<polygon class="st1" points="318.4,174.4 315.1,172.5 315.1,169.6 318.4,171.4 		"/>
		<polygon class="st1" points="295,167.6 289.7,164.5 289.7,161.6 295,164.6 		"/>
		<polygon class="st1" points="298.9,169.8 297,168.8 297,165.8 298.9,166.9 		"/>
		<polygon class="st1" points="304.2,172.9 300.9,171 300.9,168.1 304.2,170 		"/>
		<polygon class="st1" points="309.2,182.5 289.7,171.3 289.7,168.3 309.2,179.6 		"/>
		<polygon class="st1" points="316.1,186.5 311.3,183.7 311.3,180.8 316.1,183.6 		"/>
		<polygon class="st1" points="295,181 289.7,178 289.7,175.1 295,178.1 		"/>
		<polygon class="st1" points="307.4,188.2 297,182.2 297,179.3 307.4,185.3 		"/>
		<polygon class="st1" points="312.7,191.3 309.5,189.4 309.5,186.4 312.7,188.3 		"/>
		<polygon class="st1" points="300.5,191 289.7,184.7 289.7,181.8 300.5,188 		"/>
		<polygon class="st1" points="310.4,196.7 302.6,192.1 302.6,189.2 310.4,193.7 		"/>
		<polygon class="st1" points="317.7,200.9 312.4,197.8 312.4,194.9 317.7,198 		"/>
		<polygon class="st1" points="293.4,193.6 289.7,191.4 289.7,188.5 293.4,190.6 		"/>
		<polygon class="st1" points="300.2,197.5 295.4,194.7 295.4,191.8 300.2,194.6 		"/>
		<polygon class="st1" points="310.1,203.2 302.3,198.7 302.3,195.8 310.1,200.3 		"/>
		<polygon class="st1" points="300.9,204.6 289.7,198.2 289.7,195.2 300.9,201.7 		"/>
		<polygon class="st1" points="313.4,211.9 303,205.8 303,202.9 313.4,208.9 		"/>
		<polygon class="st1" points="318.8,215 315.5,213.1 315.5,210.1 318.8,212 		"/>
		<polygon class="st1" points="323.9,217.9 320.6,216 320.6,213.1 323.9,215 		"/>
		<polygon class="st1" points="296.4,208.8 289.7,204.9 289.7,202 296.4,205.8 		"/>
		<polygon class="st1" points="324.5,171.1 333.8,176.5 333.8,173.6 324.5,168.2 		"/>
		<polygon class="st1" points="326.4,179 333.8,183.2 333.8,180.3 326.4,176.1 		"/>
		<polygon class="st1" points="328.5,186.9 333.8,190 333.8,187 328.5,184 		"/>
		<polygon class="st1" points="326.1,192.3 333.8,196.7 333.8,193.8 326.1,189.3 		"/>
		<polygon class="st1" points="328.5,200.4 333.8,203.4 333.8,200.5 328.5,197.4 		"/>
		<polygon class="st1" points="327.1,206.3 333.8,210.2 333.8,207.2 327.1,203.3 		"/>
		<polygon class="st1" points="330.1,214.8 333.8,216.9 333.8,213.9 330.1,211.8 		"/>
		<polygon class="st1" points="326.7,219.5 333.8,223.6 333.8,220.7 326.7,216.6 		"/>
		<polygon class="st1" points="327.1,226.5 333.8,230.3 333.8,227.4 327.1,223.5 		"/>
		<polygon class="st1" points="301.3,211.6 298.5,210 298.5,207 301.3,208.7 		"/>
		<polygon class="st1" points="309.8,216.5 303.4,212.8 303.4,209.8 309.8,213.5 		"/>
		<polygon class="st1" points="315.1,239.1 304.3,232.9 304.3,229.9 315.1,236.2 		"/>
		<polygon class="st1" points="322.5,243.4 318.2,240.9 318.2,238 322.5,240.5 		"/>
	</g>
	<g>
		<g>
			<g>
				<g>
					<g>
						<g>
							
								<linearGradient id="SVGID_3_" gradientUnits="userSpaceOnUse" x1="-2863.9919" y1="277.8783" x2="-2642.7427" y2="277.8783" gradientTransform="matrix(-1 0 0 1 -2533.0891 0)">
								<stop  offset="0" style="stop-color:#5761D7"/>
								<stop  offset="7.257748e-02" style="stop-color:#5472D8"/>
								<stop  offset="0.2791" style="stop-color:#4E9CDB"/>
								<stop  offset="0.4801" style="stop-color:#49BDDD"/>
								<stop  offset="0.6715" style="stop-color:#45D5DF"/>
								<stop  offset="0.8493" style="stop-color:#43E3E0"/>
								<stop  offset="1" style="stop-color:#42E8E0"/>
							</linearGradient>
							<path class="st3" d="M192.8,342.3c-2.1,0-4.2-0.5-6.1-1.6l-75.6-43.7c-0.9-0.5-1.4-1.4-1.4-2.4c0-1,0.5-1.9,1.4-2.4
								l136.2-78.6c0.3-0.2,0.7-0.2,1,0l81.2,46.9c0.9,0.5,1.4,1.4,1.4,2.4c0,1-0.5,1.9-1.4,2.4l-130.7,75.4
								C197,341.8,194.9,342.3,192.8,342.3z M247.8,215.6L112.1,294c-0.3,0.2-0.4,0.5-0.4,0.6c0,0.1,0,0.4,0.4,0.6l75.6,43.7
								c3.1,1.8,7,1.8,10.1,0l130.7-75.4c0.3-0.2,0.4-0.5,0.4-0.6c0-0.1,0-0.4-0.4-0.6L247.8,215.6z"/>
						</g>
						<g>
							<g>
								
									<linearGradient id="SVGID_4_" gradientUnits="userSpaceOnUse" x1="1395.368" y1="169.4482" x2="1563.4321" y2="169.4482" gradientTransform="matrix(1 0 0 1 -1319.8503 0)">
									<stop  offset="0" style="stop-color:#C0BFF6"/>
									<stop  offset="0.2938" style="stop-color:#C5C4F7"/>
									<stop  offset="0.6399" style="stop-color:#D3D2F9"/>
									<stop  offset="1" style="stop-color:#E9E9FD"/>
								</linearGradient>
								<path class="st4" d="M243.6,179.9l-18.2-108l1.5-0.6l-2.2-1.3l0,0c-0.4-0.3-1-0.3-1.7,0.1l-145.5,84
									c-1.2,0.7-2.1,2.5-1.9,3.7l18.3,108.9c0.1,0.6,0.4,0.9,0.8,1.1l0,0l2.2,1.2l0.4-2l-0.1,0l144.6-83.5
									C242.9,182.9,243.8,181.1,243.6,179.9z"/>
								
									<linearGradient id="SVGID_5_" gradientUnits="userSpaceOnUse" x1="1395.369" y1="212.549" x2="1424.2274" y2="212.549" gradientTransform="matrix(1 0 0 1 -1319.8503 0)">
									<stop  offset="0" style="stop-color:#5761D7"/>
									<stop  offset="0.1779" style="stop-color:#5C66D9"/>
									<stop  offset="0.3876" style="stop-color:#6A73DF"/>
									<stop  offset="0.6134" style="stop-color:#8289E8"/>
									<stop  offset="0.849" style="stop-color:#A3A7F5"/>
									<stop  offset="1" style="stop-color:#BCBEFF"/>
								</linearGradient>
								<path class="st5" d="M78.2,157.1l-2.4-1.1c-0.3,0.6-0.4,1.3-0.3,1.8l18.3,108.9c0.1,0.6,0.4,0.9,0.8,1.1l0,0l2.2,1.2l0.4-2
									l-0.1,0l7.3-4.2L78.2,157.1z"/>
								<path class="st6" d="M243.9,184.9l-145.5,84c-1.1,0.6-2.1,0.3-2.3-0.9L77.8,159.2c-0.2-1.2,0.7-3,1.9-3.7l145.5-84
									c1.1-0.6,2.1-0.3,2.3,0.9l18.3,108.9C246,182.4,245.1,184.2,243.9,184.9z"/>
								<g class="st7">
									<polygon class="st8" points="223.3,78.4 83.1,159.4 100.5,261.9 240.6,181 									"/>
								</g>
							</g>
							<g>
								
									<linearGradient id="SVGID_6_" gradientUnits="userSpaceOnUse" x1="1417.8846" y1="260.9994" x2="1655.2461" y2="260.9994" gradientTransform="matrix(1 0 0 1 -1319.8503 0)">
									<stop  offset="0" style="stop-color:#5761D7"/>
									<stop  offset="0.1779" style="stop-color:#5C66D9"/>
									<stop  offset="0.3876" style="stop-color:#6A73DF"/>
									<stop  offset="0.6134" style="stop-color:#8289E8"/>
									<stop  offset="0.849" style="stop-color:#A3A7F5"/>
									<stop  offset="1" style="stop-color:#BCBEFF"/>
								</linearGradient>
								<path class="st9" d="M335.4,236.4l-7.9,4.1l-79.6-46c-1.3-0.8-3.7-0.7-5.2,0.2l-137.3,79.3c-1.3-0.7-7.3-3.6-7.3-3.6
									l2.9,7.6c0,0,0,0,0,0c0.1,0.3,0.4,0.7,0.8,0.9l83.8,48.4c1.3,0.8,3.7,0.7,5.2-0.2L331.3,246c0.6-0.4,1-0.8,1.2-1.3l0,0
									L335.4,236.4z"/>
								
									<linearGradient id="SVGID_7_" gradientUnits="userSpaceOnUse" x1="1497.6389" y1="253.0849" x2="1735.1268" y2="253.0849" gradientTransform="matrix(1 0 0 1 -1319.8503 0)">
									<stop  offset="0" style="stop-color:#C0BFF6"/>
									<stop  offset="0.2938" style="stop-color:#C5C4F7"/>
									<stop  offset="0.6399" style="stop-color:#D3D2F9"/>
									<stop  offset="1" style="stop-color:#E9E9FD"/>
								</linearGradient>
								<path class="st10" d="M334.2,237.7l-144,83.1c-1.6,0.9-4,1-5.3,0.2l-85.9-49.6c-1.4-0.8-1.2-2.2,0.4-3.1l144-83.1
									c1.6-0.9,4-1,5.3-0.2l85.9,49.6C335.9,235.5,335.7,236.8,334.2,237.7z"/>
								<path class="st11" d="M146.7,302.9v-1.6c0-0.1,0.1-0.2,0.2-0.2l5.6,3.2c0.1,0.1,0.2,0.2,0.2,0.4v1.6c0,0.1-0.1,0.2-0.2,0.2
									l-5.6-3.2C146.8,303.2,146.7,303.1,146.7,302.9z"/>
								<path class="st11" d="M155.1,307.7v-1.6c0-0.1,0.1-0.2,0.2-0.2l5.6,3.2c0.1,0.1,0.2,0.2,0.2,0.4v1.6c0,0.1-0.1,0.2-0.2,0.2
									l-5.6-3.2C155.1,308,155.1,307.9,155.1,307.7z"/>
								<path class="st12" d="M121.3,266.8L241,197.8c0.8-0.5,1.8-0.5,2.6,0l42.6,24.7c0.6,0.4,0.6,1.2,0,1.6l-119.6,69.1
									c-0.8,0.5-1.8,0.5-2.6,0l-42.7-24.6C120.7,268.1,120.7,267.2,121.3,266.8z"/>
								<path class="st13" d="M121.3,268.4l0.4,0.2L241,199.8c0.8-0.5,1.8-0.5,2.6,0l42.2,24.4l0.4-0.2c0.6-0.4,0.6-1.2,0-1.6
									l-42.6-24.7c-0.8-0.5-1.8-0.5-2.6,0l-119.7,69.1C120.7,267.2,120.7,268.1,121.3,268.4z"/>
								<g>
									<polygon class="st6" points="246.8,204 142.8,264 138.2,261.4 242.1,201.3 									"/>
									<polygon class="st6" points="258.1,210.5 160.6,266.8 156,264.2 253.5,207.9 									"/>
									<polygon class="st6" points="265.5,214.8 150.7,281.1 146.1,278.4 260.9,212.1 									"/>
									<polygon class="st6" points="272.9,219.1 158.1,285.3 153.4,282.7 268.2,216.4 									"/>
									<polygon class="st6" points="280.2,223.3 165.4,289.6 160.8,286.9 275.6,220.7 									"/>
									<polygon class="st6" points="136.5,267.6 131.9,270.3 127.3,267.6 131.9,265 									"/>
									<polygon class="st6" points="152.8,271.3 143.3,276.9 138.6,274.2 148.2,268.6 									"/>
								</g>
								
									<linearGradient id="SVGID_8_" gradientUnits="userSpaceOnUse" x1="1537.8573" y1="266.5667" x2="1598.6475" y2="266.5667" gradientTransform="matrix(1 0 0 1 -1319.8503 0)">
									<stop  offset="0" style="stop-color:#C0BFF6"/>
									<stop  offset="0.2938" style="stop-color:#C5C4F7"/>
									<stop  offset="0.6399" style="stop-color:#D3D2F9"/>
									<stop  offset="1" style="stop-color:#E9E9FD"/>
								</linearGradient>
								<path class="st14" d="M245.6,283.6l32.3-18.6c1.3-0.7,1.3-1.9,0-2.6l-22.1-12.7c-1.3-0.7-3.3-0.7-4.6,0L219,268.2
									c-1.3,0.7-1.3,1.9,0,2.6l22.1,12.7C242.3,284.3,244.3,284.3,245.6,283.6z"/>
								<path class="st13" d="M219,269.3l32.3-18.6c1.3-0.7,3.3-0.7,4.6,0l22.1,12.7c0.4,0.2,0.6,0.5,0.8,0.8
									c0.3-0.6,0.1-1.4-0.8-1.9l-22.1-12.7c-1.3-0.7-3.3-0.7-4.6,0L219,268.2c-0.9,0.5-1.1,1.2-0.8,1.9
									C218.3,269.8,218.6,269.5,219,269.3z"/>
							</g>
						</g>
						<g class="st15">
							<defs>
								<polygon id="SVGID_1_" class="st15" points="223.3,78.4 83.1,159.4 100.5,261.9 240.6,181 								"/>
							</defs>
							<clipPath id="SVGID_9_">
								<use xlink:href="#SVGID_1_"  style="overflow:visible;"/>
							</clipPath>
							<g class="st16">
								
									<linearGradient id="SVGID_10_" gradientUnits="userSpaceOnUse" x1="1406.9049" y1="200.4465" x2="1644.3928" y2="200.4465" gradientTransform="matrix(1 0 0 1 -1319.8503 0)">
									<stop  offset="0" style="stop-color:#C0BFF6"/>
									<stop  offset="0.2938" style="stop-color:#C5C4F7"/>
									<stop  offset="0.6399" style="stop-color:#D3D2F9"/>
									<stop  offset="1" style="stop-color:#E9E9FD"/>
								</linearGradient>
								<path class="st17" d="M243.4,185.1l-144,83.1c-1.6,0.9-4,1-5.3,0.2L8.2,218.9c-1.4-0.8-1.2-2.2,0.4-3.1l144-83.1
									c1.6-0.9,4-1,5.3-0.2l85.9,49.6C245.2,182.8,245,184.2,243.4,185.1z"/>
								
									<linearGradient id="SVGID_11_" gradientUnits="userSpaceOnUse" x1="1391.2743" y1="183.0131" x2="1452.0645" y2="183.0131" gradientTransform="matrix(1 0 0 1 -1319.8503 0)">
									<stop  offset="0" style="stop-color:#C0BFF6"/>
									<stop  offset="0.2938" style="stop-color:#C5C4F7"/>
									<stop  offset="0.6399" style="stop-color:#D3D2F9"/>
									<stop  offset="1" style="stop-color:#E9E9FD"/>
								</linearGradient>
								<path class="st18" d="M99,200l32.3-18.6c1.3-0.7,1.3-1.9,0-2.6L109.2,166c-1.3-0.7-3.3-0.7-4.6,0l-32.3,18.6
									c-1.3,0.7-1.3,1.9,0,2.6L94.4,200C95.7,200.7,97.7,200.7,99,200z"/>
								<path class="st13" d="M72.4,185.7l32.3-18.6c1.3-0.7,3.3-0.7,4.6,0l22.1,12.7c0.4,0.2,0.6,0.5,0.8,0.8
									c0.3-0.6,0.1-1.4-0.8-1.9L109.2,166c-1.3-0.7-3.3-0.7-4.6,0l-32.3,18.6c-0.9,0.5-1.1,1.2-0.8,1.9
									C71.7,186.2,72,185.9,72.4,185.7z"/>
								<g>
									<path class="st12" d="M58.2,229.1L177.9,160c0.8-0.5,1.8-0.5,2.6,0l42.6,24.7c0.6,0.4,0.6,1.2,0,1.6l-119.6,69.1
										c-0.8,0.5-1.8,0.5-2.6,0l-42.7-24.6C57.6,230.4,57.6,229.5,58.2,229.1z"/>
									<path class="st13" d="M58.2,230.7l0.4,0.2l119.2-68.8c0.8-0.5,1.8-0.5,2.6,0l42.2,24.4l0.4-0.2c0.6-0.4,0.6-1.2,0-1.6
										L180.4,160c-0.8-0.5-1.8-0.5-2.6,0L58.2,229.1C57.6,229.5,57.6,230.4,58.2,230.7z"/>
									<g>
										<polygon class="st6" points="211.9,183 107.6,243.2 111.8,245.6 216,185.4 										"/>
										<polygon class="st6" points="200.9,176.7 101.8,233.9 105.9,236.3 205,179.1 										"/>
										<polygon class="st6" points="94.4,238.2 85.2,243.5 89.3,245.9 98.5,240.5 										"/>
										<polygon class="st6" points="102.6,246.1 96.1,249.8 100.3,252.2 106.7,248.5 										"/>
										<polygon class="st6" points="194,172.7 78.3,239.5 82.4,241.9 198.2,175.1 										"/>
										<polygon class="st6" points="187.1,168.7 71.4,235.5 75.5,237.9 191.3,171.1 										"/>
										<polygon class="st6" points="180.3,164.8 64.5,231.6 68.6,234 184.4,167.1 										"/>
									</g>
								</g>
							</g>
						</g>
					</g>
				</g>
				
					<radialGradient id="SVGID_12_" cx="1487.0609" cy="231.0159" r="68.0828" gradientTransform="matrix(1 0 0 1 -1319.8503 0)" gradientUnits="userSpaceOnUse">
					<stop  offset="0" style="stop-color:#2B237C"/>
					<stop  offset="1" style="stop-color:#180D5B"/>
				</radialGradient>
				<polygon class="st19" points="176.8,260.7 145.7,241.6 215.5,201.3 248.4,223.5 				"/>
				
					<radialGradient id="SVGID_13_" cx="1472.1704" cy="200.3883" r="52.1133" gradientTransform="matrix(1 0 0 1 -1319.8503 0)" gradientUnits="userSpaceOnUse">
					<stop  offset="0" style="stop-color:#2B237C"/>
					<stop  offset="1" style="stop-color:#180D5B"/>
				</radialGradient>
				<polygon class="st20" points="145.7,241.6 138.6,196.7 204.1,159.2 204.1,207.8 				"/>
				<g>
					<g>
						
							<linearGradient id="SVGID_14_" gradientUnits="userSpaceOnUse" x1="1453.408" y1="215.4329" x2="1499.314" y2="132.7725" gradientTransform="matrix(1 0 0 1 -1319.8503 0)">
							<stop  offset="0" style="stop-color:#5761D7"/>
							<stop  offset="3.979178e-02" style="stop-color:#5C66D9"/>
							<stop  offset="8.669901e-02" style="stop-color:#6A73DF"/>
							<stop  offset="0.1372" style="stop-color:#8289E8"/>
							<stop  offset="0.1899" style="stop-color:#A3A7F5"/>
							<stop  offset="0.2237" style="stop-color:#BCBEFF"/>
						</linearGradient>
						<path class="st21" d="M210.9,137.4l-6.9-4v0c-0.1-0.1-0.2-0.1-0.3,0l-86.8,50.1c-0.3,0.2-0.5,0.6-0.5,1v16.4
							c0,0.2,0.1,0.3,0.1,0.4l0,0l0,0c0,0,0,0,0,0l7,4l0.1-7.9l80.1-46.2c0.3-0.2,0.5-0.6,0.5-1v-5.6L210.9,137.4z"/>
						
							<linearGradient id="SVGID_15_" gradientUnits="userSpaceOnUse" x1="1509.8031" y1="215.7261" x2="1479.248" y2="155.9944" gradientTransform="matrix(1 0 0 1 -1319.8503 0)">
							<stop  offset="0" style="stop-color:#C0BFF6"/>
							<stop  offset="0.2938" style="stop-color:#C5C4F7"/>
							<stop  offset="0.6399" style="stop-color:#D3D2F9"/>
							<stop  offset="1" style="stop-color:#E9E9FD"/>
						</linearGradient>
						<path class="st22" d="M210.6,155.2l-86.8,50.1c-0.3,0.2-0.5,0-0.5-0.4v-16.4c0-0.4,0.2-0.8,0.5-1l86.8-50.1
							c0.3-0.2,0.5,0,0.5,0.4v16.4C211.1,154.5,210.9,155,210.6,155.2z"/>
						<path class="st23" d="M198.7,151.8l-67.6,39.7c2.1,1.8,4.1,3.9,5.9,6.1l68.1-39.3C203.1,155.9,200.9,153.7,198.7,151.8z"/>
						<path class="st6" d="M208.1,150.2l-81.8,47.2c-0.2,0.1-0.4,0-0.4-0.3v-4.1c0-0.3,0.2-0.6,0.4-0.7l81.8-47.2
							c0.2-0.1,0.4,0,0.4,0.3v4.1C208.5,149.8,208.3,150.1,208.1,150.2z"/>
						<path class="st8" d="M208.1,145.2l-1.7,1v2.2c0,0.3-0.2,0.6-0.4,0.7L126,195.3v1.9c0,0.3,0.2,0.4,0.4,0.3l81.8-47.2
							c0.2-0.1,0.4-0.4,0.4-0.7v-4.1C208.5,145.2,208.3,145.1,208.1,145.2z"/>
					</g>
					
						<linearGradient id="SVGID_16_" gradientUnits="userSpaceOnUse" x1="1592.389" y1="323.0967" x2="1495.2784" y2="151.0256" gradientTransform="matrix(1 0 0 1 -1319.8503 0)">
						<stop  offset="0" style="stop-color:#C0BFF6"/>
						<stop  offset="7.746546e-02" style="stop-color:#C3C2F6"/>
						<stop  offset="0.1329" style="stop-color:#CCCBF8"/>
						<stop  offset="0.1813" style="stop-color:#DBDBFB"/>
						<stop  offset="0.2117" style="stop-color:#E9E9FD"/>
						<stop  offset="0.2579" style="stop-color:#D8D7FA"/>
						<stop  offset="0.3159" style="stop-color:#CACAF8"/>
						<stop  offset="0.3878" style="stop-color:#C2C1F6"/>
						<stop  offset="0.5143" style="stop-color:#C0BFF6"/>
						<stop  offset="0.6217" style="stop-color:#D0CFF9"/>
						<stop  offset="0.755" style="stop-color:#E9E9FD"/>
						<stop  offset="1" style="stop-color:#C0BFF6"/>
					</linearGradient>
					<path class="st24" d="M254.1,327.5l68.1-39.3l0,0c-8.8-5.1-16.2-16.2-18.4-26.8c-0.9-4.3-3.5-8-7.4-10.2l-51.4-29.7
						c-14.3-8.3-23.6-23.2-24.6-39.7c-0.8-13.9-11.4-27.7-19.5-32.4l0,0l-68.1,39.3l0,0c8.1,4.7,16.9,17.7,17.9,31.4
						c1.2,16.5,10.2,31.5,24.5,39.7l53.1,30.6c3.8,2.2,6.4,5.9,7.4,10.2C237.9,311.3,245.3,322.4,254.1,327.5L254.1,327.5z"/>
					<path class="st25" d="M200.8,149.4l-68.1,39.3c0.5,0.3,1.1,0.7,1.6,1l0,0l68.1-39.3C201.9,150.1,201.4,149.7,200.8,149.4z"/>
				</g>
			</g>
			<g class="st26">
				<polygon class="st27" points="176.5,194.3 166.1,200.3 166.1,199.1 176.5,193.1 				"/>
				<polygon class="st27" points="181.9,191.2 178.1,193.3 178.1,192.2 181.9,190 				"/>
				<polygon class="st27" points="186,188.8 183.5,190.2 183.5,189.1 186,187.6 				"/>
				<polygon class="st27" points="171.8,199.7 166.1,203 166.1,201.8 171.8,198.5 				"/>
				<polygon class="st27" points="180.3,194.7 173.4,198.8 173.4,197.6 180.3,193.6 				"/>
				<polygon class="st27" points="184.5,192.3 181.9,193.8 181.9,192.6 184.5,191.2 				"/>
				<polygon class="st27" points="188.5,190 185.9,191.5 185.9,190.3 188.5,188.9 				"/>
				<polygon class="st27" points="170.2,203.3 166.1,205.6 166.1,204.5 170.2,202.1 				"/>
				<polygon class="st27" points="173.2,201.5 171.8,202.3 171.8,201.2 173.2,200.4 				"/>
				<polygon class="st27" points="177.3,199.1 174.8,200.6 174.8,199.4 177.3,197.9 				"/>
				<polygon class="st27" points="181.3,199.5 166.1,208.3 166.1,207.1 181.3,198.3 				"/>
				<polygon class="st27" points="186.7,196.4 182.9,198.6 182.9,197.4 186.7,195.2 				"/>
				<polygon class="st27" points="170.2,208.6 166.1,211 166.1,209.8 170.2,207.4 				"/>
				<polygon class="st27" points="179.9,203 171.8,207.7 171.8,206.5 179.9,201.8 				"/>
				<polygon class="st27" points="184,200.6 181.5,202.1 181.5,200.9 184,199.4 				"/>
				<polygon class="st27" points="174.5,208.8 166.1,213.6 166.1,212.5 174.5,207.6 				"/>
				<polygon class="st27" points="182.2,204.3 176.1,207.8 176.1,206.7 182.2,203.1 				"/>
				<polygon class="st27" points="187.9,201 183.8,203.4 183.8,202.2 187.9,199.8 				"/>
				<polygon class="st27" points="168.9,214.6 166.1,216.3 166.1,215.1 168.9,213.5 				"/>
				<polygon class="st27" points="174.3,211.5 170.5,213.7 170.5,212.6 174.3,210.4 				"/>
				<polygon class="st27" points="181.9,207.1 175.9,210.6 175.9,209.5 181.9,206 				"/>
				<polygon class="st27" points="174.8,213.9 166.1,219 166.1,217.8 174.8,212.7 				"/>
				<polygon class="st27" points="184.6,208.3 176.4,213 176.4,211.8 184.6,207.1 				"/>
				<polygon class="st27" points="188.7,205.9 186.2,207.3 186.2,206.2 188.7,204.7 				"/>
				<polygon class="st27" points="192.7,203.6 190.2,205 190.2,203.9 192.7,202.4 				"/>
				<polygon class="st27" points="171.3,218.6 166.1,221.6 166.1,220.5 171.3,217.4 				"/>
				<polygon class="st27" points="197.8,182 205,177.8 205,176.6 197.8,180.8 				"/>
				<polygon class="st27" points="199.3,183.8 205,180.5 205,179.3 199.3,182.6 				"/>
				<polygon class="st27" points="200.9,185.5 205,183.1 205,182 200.9,184.4 				"/>
				<polygon class="st27" points="199,189.3 205,185.8 205,184.6 199,188.1 				"/>
				<polygon class="st27" points="200.9,190.9 205,188.5 205,187.3 200.9,189.7 				"/>
				<polygon class="st27" points="199.8,194.2 205,191.1 205,190 199.8,193 				"/>
				<polygon class="st27" points="202.2,195.4 205,193.8 205,192.6 202.2,194.3 				"/>
				<polygon class="st27" points="199.5,199.7 205,196.5 205,195.3 199.5,198.5 				"/>
				<polygon class="st27" points="199.8,202.2 205,199.1 205,198 199.8,201 				"/>
				<polygon class="st27" points="175.1,216.4 172.9,217.7 172.9,216.5 175.1,215.2 				"/>
				<polygon class="st27" points="181.7,212.6 176.7,215.5 176.7,214.3 181.7,211.4 				"/>
				<polygon class="st27" points="187.5,223.2 179,228 179,226.9 187.5,222 				"/>
				<polygon class="st27" points="193.2,219.8 189.9,221.7 189.9,220.6 193.2,218.6 				"/>
			</g>
			<g>
				<g>
					<g>
						
							<linearGradient id="SVGID_17_" gradientUnits="userSpaceOnUse" x1="5345.0234" y1="209.6722" x2="5366.6128" y2="209.6722" gradientTransform="matrix(1 0 0 1 -5100.7266 0)">
							<stop  offset="0" style="stop-color:#C0BFF6"/>
							<stop  offset="0.488" style="stop-color:#D2D1F9"/>
							<stop  offset="1" style="stop-color:#E9E9FD"/>
						</linearGradient>
						<path class="st28" d="M266,183.4h-21.7v46.4l0,0c0,1.6,1.1,3.2,3.2,4.4c4.2,2.4,11.1,2.4,15.4,0c2.1-1.2,3.2-2.8,3.2-4.4l0,0
							V183.4z"/>
						
							<linearGradient id="SVGID_18_" gradientUnits="userSpaceOnUse" x1="5320.8281" y1="209.6722" x2="5362.5493" y2="209.6722" gradientTransform="matrix(1 0 0 1 -5100.7266 0)">
							<stop  offset="0" style="stop-color:#5761D7"/>
							<stop  offset="0.1779" style="stop-color:#5C66D9"/>
							<stop  offset="0.3876" style="stop-color:#6A73DF"/>
							<stop  offset="0.6134" style="stop-color:#8289E8"/>
							<stop  offset="0.849" style="stop-color:#A3A7F5"/>
							<stop  offset="1" style="stop-color:#BCBEFF"/>
						</linearGradient>
						<path class="st29" d="M266,183.4h-21.7v46.4l0,0c0,1.6,1.1,3.2,3.2,4.4c4.2,2.4,11.1,2.4,15.4,0c2.1-1.2,3.2-2.8,3.2-4.4l0,0
							V183.4z"/>
						
							<linearGradient id="SVGID_19_" gradientUnits="userSpaceOnUse" x1="2752.9636" y1="-2513.7188" x2="2770.6931" y2="-2513.7188" gradientTransform="matrix(0.866 0.5 -0.866 0.5 -4313.4702 59.2957)">
							<stop  offset="0" style="stop-color:#C0BFF6"/>
							<stop  offset="0.2938" style="stop-color:#C5C4F7"/>
							<stop  offset="0.6399" style="stop-color:#D3D2F9"/>
							<stop  offset="1" style="stop-color:#E9E9FD"/>
						</linearGradient>
						<path class="st30" d="M262.8,187.8c-4.2,2.4-11.1,2.4-15.4,0c-4.2-2.4-4.2-6.4,0-8.9c4.2-2.4,11.1-2.4,15.4,0
							C267.1,181.4,267.1,185.3,262.8,187.8z"/>
						
							<linearGradient id="SVGID_20_" gradientUnits="userSpaceOnUse" x1="2756.1057" y1="-2513.7188" x2="2767.5513" y2="-2513.7188" gradientTransform="matrix(0.866 0.5 -0.866 0.5 -4313.4702 59.2957)">
							<stop  offset="0" style="stop-color:#5761D7"/>
							<stop  offset="0.1779" style="stop-color:#5C66D9"/>
							<stop  offset="0.3876" style="stop-color:#6A73DF"/>
							<stop  offset="0.6134" style="stop-color:#8289E8"/>
							<stop  offset="0.849" style="stop-color:#A3A7F5"/>
							<stop  offset="1" style="stop-color:#BCBEFF"/>
						</linearGradient>
						<path class="st31" d="M260.1,186.2c-2.7,1.6-7.2,1.6-9.9,0c-2.7-1.6-2.7-4.1,0-5.7c2.7-1.6,7.2-1.6,9.9,0
							C262.8,182.1,262.8,184.6,260.1,186.2z"/>
						<path class="st32" d="M262.8,187.3c-4.2,2.4-11.1,2.4-15.4,0c-2-1.2-3.1-2.7-3.2-4.2c-0.1,1.7,0.9,3.4,3.2,4.7
							c4.2,2.4,11.1,2.4,15.4,0c2.2-1.3,3.3-3,3.2-4.7C265.9,184.6,264.8,186.2,262.8,187.3z"/>
					</g>
					<g>
						
							<linearGradient id="SVGID_21_" gradientUnits="userSpaceOnUse" x1="5345.0234" y1="178.5262" x2="5366.6128" y2="178.5262" gradientTransform="matrix(1 0 0 1 -5100.7266 0)">
							<stop  offset="0" style="stop-color:#C0BFF6"/>
							<stop  offset="0.488" style="stop-color:#D2D1F9"/>
							<stop  offset="1" style="stop-color:#E9E9FD"/>
						</linearGradient>
						<path class="st33" d="M266,173.3h-21.7v4.2l0,0c0,1.6,1.1,3.2,3.2,4.4c4.2,2.4,11.1,2.4,15.4,0c2.1-1.2,3.2-2.8,3.2-4.4l0,0
							V173.3z"/>
						
							<linearGradient id="SVGID_22_" gradientUnits="userSpaceOnUse" x1="5320.8281" y1="178.5262" x2="5362.5493" y2="178.5262" gradientTransform="matrix(1 0 0 1 -5100.7266 0)">
							<stop  offset="0" style="stop-color:#5761D7"/>
							<stop  offset="0.1779" style="stop-color:#5C66D9"/>
							<stop  offset="0.3876" style="stop-color:#6A73DF"/>
							<stop  offset="0.6134" style="stop-color:#8289E8"/>
							<stop  offset="0.849" style="stop-color:#A3A7F5"/>
							<stop  offset="1" style="stop-color:#BCBEFF"/>
						</linearGradient>
						<path class="st34" d="M266,173.3h-21.7v4.2l0,0c0,1.6,1.1,3.2,3.2,4.4c4.2,2.4,11.1,2.4,15.4,0c2.1-1.2,3.2-2.8,3.2-4.4l0,0
							V173.3z"/>
						
							<linearGradient id="SVGID_23_" gradientUnits="userSpaceOnUse" x1="2742.8875" y1="-2523.7949" x2="2760.6169" y2="-2523.7949" gradientTransform="matrix(0.866 0.5 -0.866 0.5 -4313.4702 59.2957)">
							<stop  offset="0" style="stop-color:#C0BFF6"/>
							<stop  offset="0.2938" style="stop-color:#C5C4F7"/>
							<stop  offset="0.6399" style="stop-color:#D3D2F9"/>
							<stop  offset="1" style="stop-color:#E9E9FD"/>
						</linearGradient>
						<path class="st35" d="M262.8,177.7c-4.2,2.4-11.1,2.4-15.4,0c-4.2-2.4-4.2-6.4,0-8.9c4.2-2.4,11.1-2.4,15.4,0
							C267.1,171.3,267.1,175.3,262.8,177.7z"/>
						<path class="st32" d="M262.8,177.2c-4.2,2.4-11.1,2.4-15.4,0c-2-1.2-3.1-2.7-3.2-4.2c-0.1,1.7,0.9,3.4,3.2,4.7
							c4.2,2.4,11.1,2.4,15.4,0c2.2-1.3,3.3-3,3.2-4.7C265.9,174.6,264.8,176.1,262.8,177.2z"/>
					</g>
					<g>
						
							<linearGradient id="SVGID_24_" gradientUnits="userSpaceOnUse" x1="5327.0713" y1="227.7536" x2="5348.6606" y2="227.7536" gradientTransform="matrix(1 0 0 1 -5100.7266 0)">
							<stop  offset="0" style="stop-color:#C0BFF6"/>
							<stop  offset="0.488" style="stop-color:#D2D1F9"/>
							<stop  offset="1" style="stop-color:#E9E9FD"/>
						</linearGradient>
						<path class="st36" d="M248.1,209.2h-21.7v30.9l0,0c0,1.6,1.1,3.2,3.2,4.4c4.2,2.4,11.1,2.4,15.4,0c2.1-1.2,3.2-2.8,3.2-4.4
							l0,0V209.2z"/>
						
							<linearGradient id="SVGID_25_" gradientUnits="userSpaceOnUse" x1="5302.876" y1="227.7536" x2="5344.5972" y2="227.7536" gradientTransform="matrix(1 0 0 1 -5100.7266 0)">
							<stop  offset="0" style="stop-color:#5761D7"/>
							<stop  offset="0.1779" style="stop-color:#5C66D9"/>
							<stop  offset="0.3876" style="stop-color:#6A73DF"/>
							<stop  offset="0.6134" style="stop-color:#8289E8"/>
							<stop  offset="0.849" style="stop-color:#A3A7F5"/>
							<stop  offset="1" style="stop-color:#BCBEFF"/>
						</linearGradient>
						<path class="st37" d="M248.1,209.2h-21.7v30.9l0,0c0,1.6,1.1,3.2,3.2,4.4c4.2,2.4,11.1,2.4,15.4,0c2.1-1.2,3.2-2.8,3.2-4.4
							l0,0V209.2z"/>
						
							<linearGradient id="SVGID_26_" gradientUnits="userSpaceOnUse" x1="2768.4084" y1="-2477.5437" x2="2786.1379" y2="-2477.5437" gradientTransform="matrix(0.866 0.5 -0.866 0.5 -4313.4702 59.2957)">
							<stop  offset="0" style="stop-color:#C0BFF6"/>
							<stop  offset="0.2938" style="stop-color:#C5C4F7"/>
							<stop  offset="0.6399" style="stop-color:#D3D2F9"/>
							<stop  offset="1" style="stop-color:#E9E9FD"/>
						</linearGradient>
						<path class="st38" d="M244.9,213.6c-4.2,2.4-11.1,2.4-15.4,0c-4.2-2.4-4.2-6.4,0-8.9c4.2-2.4,11.1-2.4,15.4,0
							C249.1,207.2,249.1,211.1,244.9,213.6z"/>
						<path class="st32" d="M244.9,213.1c-4.2,2.4-11.1,2.4-15.4,0c-2-1.2-3.1-2.7-3.2-4.2c-0.1,1.7,0.9,3.4,3.2,4.7
							c4.2,2.4,11.1,2.4,15.4,0c2.2-1.3,3.3-3,3.2-4.7C247.9,210.5,246.9,212,244.9,213.1z"/>
					</g>
					<g>
						
							<linearGradient id="SVGID_27_" gradientUnits="userSpaceOnUse" x1="5309.1187" y1="230.1898" x2="5330.708" y2="230.1898" gradientTransform="matrix(1 0 0 1 -5100.7266 0)">
							<stop  offset="0" style="stop-color:#C0BFF6"/>
							<stop  offset="0.488" style="stop-color:#D2D1F9"/>
							<stop  offset="1" style="stop-color:#E9E9FD"/>
						</linearGradient>
						<path class="st39" d="M230.1,203.7h-21.7v46.8l0,0c0,1.6,1.1,3.2,3.2,4.4c4.2,2.4,11.1,2.4,15.4,0c2.1-1.2,3.2-2.8,3.2-4.4
							l0,0V203.7z"/>
						
							<linearGradient id="SVGID_28_" gradientUnits="userSpaceOnUse" x1="5284.9233" y1="230.1898" x2="5326.6445" y2="230.1898" gradientTransform="matrix(1 0 0 1 -5100.7266 0)">
							<stop  offset="0" style="stop-color:#5761D7"/>
							<stop  offset="0.1779" style="stop-color:#5C66D9"/>
							<stop  offset="0.3876" style="stop-color:#6A73DF"/>
							<stop  offset="0.6134" style="stop-color:#8289E8"/>
							<stop  offset="0.849" style="stop-color:#A3A7F5"/>
							<stop  offset="1" style="stop-color:#BCBEFF"/>
						</linearGradient>
						<path class="st40" d="M230.1,203.7h-21.7v46.8l0,0c0,1.6,1.1,3.2,3.2,4.4c4.2,2.4,11.1,2.4,15.4,0c2.1-1.2,3.2-2.8,3.2-4.4
							l0,0V203.7z"/>
						
							<linearGradient id="SVGID_29_" gradientUnits="userSpaceOnUse" x1="2752.563" y1="-2472.6587" x2="2770.2927" y2="-2472.6587" gradientTransform="matrix(0.866 0.5 -0.866 0.5 -4313.4702 59.2957)">
							<stop  offset="0" style="stop-color:#C0BFF6"/>
							<stop  offset="0.2938" style="stop-color:#C5C4F7"/>
							<stop  offset="0.6399" style="stop-color:#D3D2F9"/>
							<stop  offset="1" style="stop-color:#E9E9FD"/>
						</linearGradient>
						<path class="st41" d="M226.9,208.1c-4.2,2.4-11.1,2.4-15.4,0c-4.2-2.4-4.2-6.4,0-8.9c4.2-2.4,11.1-2.4,15.4,0
							C231.2,201.7,231.2,205.7,226.9,208.1z"/>
						<path class="st32" d="M226.9,207.6c-4.2,2.4-11.1,2.4-15.4,0c-2-1.2-3.1-2.7-3.2-4.2c-0.1,1.7,0.9,3.4,3.2,4.7
							c4.2,2.4,11.1,2.4,15.4,0c2.2-1.3,3.3-3,3.2-4.7C230,205,228.9,206.5,226.9,207.6z"/>
					</g>
					<g>
						
							<linearGradient id="SVGID_30_" gradientUnits="userSpaceOnUse" x1="5291.166" y1="244.7567" x2="5312.7559" y2="244.7567" gradientTransform="matrix(1 0 0 1 -5100.7266 0)">
							<stop  offset="0" style="stop-color:#C0BFF6"/>
							<stop  offset="0.488" style="stop-color:#D2D1F9"/>
							<stop  offset="1" style="stop-color:#E9E9FD"/>
						</linearGradient>
						<path class="st42" d="M212.2,222.5h-21.7v38.3l0,0c0,1.6,1.1,3.2,3.2,4.4c4.2,2.4,11.1,2.4,15.4,0c2.1-1.2,3.2-2.8,3.2-4.4
							l0,0V222.5z"/>
						
							<linearGradient id="SVGID_31_" gradientUnits="userSpaceOnUse" x1="5266.9707" y1="244.7567" x2="5308.6919" y2="244.7567" gradientTransform="matrix(1 0 0 1 -5100.7266 0)">
							<stop  offset="0" style="stop-color:#5761D7"/>
							<stop  offset="0.1779" style="stop-color:#5C66D9"/>
							<stop  offset="0.3876" style="stop-color:#6A73DF"/>
							<stop  offset="0.6134" style="stop-color:#8289E8"/>
							<stop  offset="0.849" style="stop-color:#A3A7F5"/>
							<stop  offset="1" style="stop-color:#BCBEFF"/>
						</linearGradient>
						<path class="st43" d="M212.2,222.5h-21.7v38.3l0,0c0,1.6,1.1,3.2,3.2,4.4c4.2,2.4,11.1,2.4,15.4,0c2.1-1.2,3.2-2.8,3.2-4.4
							l0,0V222.5z"/>
						
							<linearGradient id="SVGID_32_" gradientUnits="userSpaceOnUse" x1="2760.979" y1="-2443.5125" x2="2778.7085" y2="-2443.5125" gradientTransform="matrix(0.866 0.5 -0.866 0.5 -4313.4702 59.2957)">
							<stop  offset="0" style="stop-color:#C0BFF6"/>
							<stop  offset="0.2938" style="stop-color:#C5C4F7"/>
							<stop  offset="0.6399" style="stop-color:#D3D2F9"/>
							<stop  offset="1" style="stop-color:#E9E9FD"/>
						</linearGradient>
						<path class="st44" d="M209,226.9c-4.2,2.4-11.1,2.4-15.4,0c-4.2-2.4-4.2-6.4,0-8.9c4.2-2.4,11.1-2.4,15.4,0
							C213.2,220.5,213.2,224.4,209,226.9z"/>
						<path class="st32" d="M209,226.4c-4.2,2.4-11.1,2.4-15.4,0c-2-1.2-3.1-2.7-3.2-4.2c-0.1,1.7,0.9,3.4,3.2,4.7
							c4.2,2.4,11.1,2.4,15.4,0c2.2-1.3,3.3-3,3.2-4.7C212,223.8,211,225.3,209,226.4z"/>
					</g>
					<g>
						
							<linearGradient id="SVGID_33_" gradientUnits="userSpaceOnUse" x1="5273.2139" y1="259.8334" x2="5294.8032" y2="259.8334" gradientTransform="matrix(1 0 0 1 -5100.7266 0)">
							<stop  offset="0" style="stop-color:#C0BFF6"/>
							<stop  offset="0.488" style="stop-color:#D2D1F9"/>
							<stop  offset="1" style="stop-color:#E9E9FD"/>
						</linearGradient>
						<path class="st45" d="M194.2,242.3h-21.7v28.9l0,0c0,1.6,1.1,3.2,3.2,4.4c4.2,2.4,11.1,2.4,15.4,0c2.1-1.2,3.2-2.8,3.2-4.4
							l0,0V242.3z"/>
						
							<linearGradient id="SVGID_34_" gradientUnits="userSpaceOnUse" x1="5249.0186" y1="259.8334" x2="5290.7397" y2="259.8334" gradientTransform="matrix(1 0 0 1 -5100.7266 0)">
							<stop  offset="0" style="stop-color:#5761D7"/>
							<stop  offset="0.1779" style="stop-color:#5C66D9"/>
							<stop  offset="0.3876" style="stop-color:#6A73DF"/>
							<stop  offset="0.6134" style="stop-color:#8289E8"/>
							<stop  offset="0.849" style="stop-color:#A3A7F5"/>
							<stop  offset="1" style="stop-color:#BCBEFF"/>
						</linearGradient>
						<path class="st46" d="M194.2,242.3h-21.7v28.9l0,0c0,1.6,1.1,3.2,3.2,4.4c4.2,2.4,11.1,2.4,15.4,0c2.1-1.2,3.2-2.8,3.2-4.4
							l0,0V242.3z"/>
						
							<linearGradient id="SVGID_35_" gradientUnits="userSpaceOnUse" x1="2770.4146" y1="-2413.3467" x2="2788.1443" y2="-2413.3467" gradientTransform="matrix(0.866 0.5 -0.866 0.5 -4313.4702 59.2957)">
							<stop  offset="0" style="stop-color:#C0BFF6"/>
							<stop  offset="0.2938" style="stop-color:#C5C4F7"/>
							<stop  offset="0.6399" style="stop-color:#D3D2F9"/>
							<stop  offset="1" style="stop-color:#E9E9FD"/>
						</linearGradient>
						<path class="st47" d="M191,246.7c-4.2,2.4-11.1,2.4-15.4,0c-4.2-2.4-4.2-6.4,0-8.9c4.2-2.4,11.1-2.4,15.4,0
							C195.3,240.3,195.3,244.2,191,246.7z"/>
						<path class="st32" d="M191,246.2c-4.2,2.4-11.1,2.4-15.4,0c-2-1.2-3.1-2.7-3.2-4.2c-0.1,1.7,0.9,3.4,3.2,4.7
							c4.2,2.4,11.1,2.4,15.4,0c2.2-1.3,3.3-3,3.2-4.7C194.1,243.6,193,245.1,191,246.2z"/>
					</g>
				</g>
			</g>
			<g>
				<polygon class="st2" points="96.4,164.4 94.3,165.8 94.1,164.2 96.2,162.9 				"/>
				<polygon class="st2" points="98.1,174.9 96,176.2 94.5,167.2 96.6,165.8 				"/>
				<polygon class="st2" points="98.9,179.9 96.8,181.2 96.2,177.7 98.3,176.3 				"/>
				<polygon class="st2" points="99.7,185.1 97.6,186.4 97,182.8 99.1,181.5 				"/>
				<polygon class="st2" points="100.3,167.4 98.2,168.8 97.7,165.2 99.8,163.8 				"/>
				<polygon class="st2" points="101.4,174.3 99.3,175.7 98.5,170.4 100.6,169 				"/>
				<polygon class="st2" points="102.5,180.7 100.4,182 99.6,177.5 101.7,176.1 				"/>
				<polygon class="st2" points="100.6,190.3 98.5,191.6 97.9,188 100,186.7 				"/>
				<polygon class="st2" points="99.5,162.4 97.4,163.8 97.2,162.2 99.3,160.9 				"/>
			</g>
			<polygon class="st2" points="102.9,194.3 99.3,196.7 99,195.2 102.7,192.8 			"/>
		</g>
		<g>
			<g>
				
					<linearGradient id="SVGID_36_" gradientUnits="userSpaceOnUse" x1="2470.2363" y1="-119.8465" x2="2481.5935" y2="-119.8465" gradientTransform="matrix(0.866 0.5 -1 0.5774 -2154.9688 -905.1158)">
					<stop  offset="0" style="stop-color:#5761D7"/>
					<stop  offset="0.1645" style="stop-color:#5E67DA"/>
					<stop  offset="0.4051" style="stop-color:#727AE2"/>
					<stop  offset="0.6924" style="stop-color:#9297EE"/>
					<stop  offset="1" style="stop-color:#BCBEFF"/>
				</linearGradient>
				<path class="st48" d="M113.9,266.5c2.7-1.6,2.7-4.1,0-5.7c-2.7-1.6-7.1-1.6-9.8,0c-2.7,1.6-2.7,4.1,0,5.7
					C106.8,268,111.2,268,113.9,266.5z"/>
				<path class="st49" d="M113.9,266.1c-2.7,1.6-7.1,1.6-9.8,0c-1.3-0.7-2-1.7-2-2.7c-0.1,1.1,0.6,2.2,2,3c2.7,1.6,7.1,1.6,9.8,0
					c1.4-0.8,2.1-1.9,2-3C115.9,264.4,115.2,265.4,113.9,266.1z"/>
				
					<linearGradient id="SVGID_37_" gradientUnits="userSpaceOnUse" x1="2483.7427" y1="-108.1502" x2="2495.0996" y2="-108.1502" gradientTransform="matrix(0.866 0.5 -1 0.5774 -2154.9688 -905.1158)">
					<stop  offset="0" style="stop-color:#5761D7"/>
					<stop  offset="0.1645" style="stop-color:#5E67DA"/>
					<stop  offset="0.4051" style="stop-color:#727AE2"/>
					<stop  offset="0.6924" style="stop-color:#9297EE"/>
					<stop  offset="1" style="stop-color:#BCBEFF"/>
				</linearGradient>
				<path class="st50" d="M113.9,280c2.7-1.6,2.7-4.1,0-5.7c-2.7-1.6-7.1-1.6-9.8,0c-2.7,1.6-2.7,4.1,0,5.7
					C106.8,281.6,111.2,281.6,113.9,280z"/>
				
					<linearGradient id="SVGID_38_" gradientUnits="userSpaceOnUse" x1="2497.4858" y1="-96.2485" x2="2508.8428" y2="-96.2485" gradientTransform="matrix(0.866 0.5 -1 0.5774 -2154.9688 -905.1158)">
					<stop  offset="0" style="stop-color:#5761D7"/>
					<stop  offset="0.1645" style="stop-color:#5E67DA"/>
					<stop  offset="0.4051" style="stop-color:#727AE2"/>
					<stop  offset="0.6924" style="stop-color:#9297EE"/>
					<stop  offset="1" style="stop-color:#BCBEFF"/>
				</linearGradient>
				<path class="st51" d="M113.9,293.7c2.7-1.6,2.7-4.1,0-5.7c-2.7-1.6-7.1-1.6-9.8,0c-2.7,1.6-2.7,4.1,0,5.7
					C106.8,295.3,111.2,295.3,113.9,293.7z"/>
				
					<linearGradient id="SVGID_39_" gradientUnits="userSpaceOnUse" x1="3242.0032" y1="274.2346" x2="3280.0129" y2="274.2346" gradientTransform="matrix(1 0 0 1 -3158.5811 0)">
					<stop  offset="0" style="stop-color:#5761D7"/>
					<stop  offset="0.1645" style="stop-color:#5E67DA"/>
					<stop  offset="0.4051" style="stop-color:#727AE2"/>
					<stop  offset="0.6924" style="stop-color:#9297EE"/>
					<stop  offset="1" style="stop-color:#BCBEFF"/>
				</linearGradient>
				<path class="st52" d="M102.1,263.6v-7c0,1,0.7,2.1,2,2.8c2.7,1.6,7.1,1.6,9.8,0c1.3-0.8,2-1.7,2-2.7V227h-13.9v87.6
					c0,3.8,3.1,7,7,7c3.8,0,7-3.1,7-7v-23.7c0,1.1-0.6,2.1-2,2.9c-2.7,1.6-7.1,1.6-9.8,0c-1.4-0.8-2-1.8-2-2.8h0v0v0v-7
					c0,1,0.7,2.1,2,2.8c2.7,1.6,7.1,1.6,9.8,0c1.3-0.8,2-1.7,2-2.7v-6.9c0,1.1-0.6,2.1-2,2.9c-2.7,1.6-7.1,1.6-9.8,0
					c-1.4-0.8-2-1.8-2-2.8h0v0v0v-7c0,1,0.7,2.1,2,2.8c2.7,1.6,7.1,1.6,9.8,0c1.3-0.8,2-1.7,2-2.7v-6.7c0,1.1-0.6,2.1-2,2.9
					c-2.7,1.6-7.1,1.6-9.8,0C102.7,265.7,102.1,264.7,102.1,263.6L102.1,263.6L102.1,263.6L102.1,263.6z"/>
				<path class="st49" d="M113.9,279.6c-2.7,1.6-7.1,1.6-9.8,0c-1.3-0.7-2-1.7-2-2.7c-0.1,1.1,0.6,2.2,2,3c2.7,1.6,7.1,1.6,9.8,0
					c1.4-0.8,2.1-1.9,2-3C115.9,277.9,115.2,278.9,113.9,279.6z"/>
				<path class="st49" d="M113.9,293.4c-2.7,1.6-7.1,1.6-9.8,0c-1.3-0.7-2-1.7-2-2.7c-0.1,1.1,0.6,2.2,2,3c2.7,1.6,7.1,1.6,9.8,0
					c1.4-0.8,2.1-1.9,2-3C115.9,291.7,115.2,292.7,113.9,293.4z"/>
				
					<linearGradient id="SVGID_40_" gradientUnits="userSpaceOnUse" x1="3260.6494" y1="262.1374" x2="3274.5527" y2="262.1374" gradientTransform="matrix(1 0 0 1 -3158.5811 0)">
					<stop  offset="0" style="stop-color:#42E8E0"/>
					<stop  offset="0.1507" style="stop-color:#43E3E0"/>
					<stop  offset="0.3285" style="stop-color:#45D5DF"/>
					<stop  offset="0.5199" style="stop-color:#49BDDD"/>
					<stop  offset="0.7209" style="stop-color:#4E9CDB"/>
					<stop  offset="0.9274" style="stop-color:#5472D8"/>
					<stop  offset="1" style="stop-color:#5761D7"/>
				</linearGradient>
				<path class="st53" d="M113.9,259.5c-2.7,1.6-7.1,1.6-9.8,0c-1.4-0.8-2-1.8-2-2.8v7l0,0l0,0h0c0,1,0.7,2,2,2.8
					c2.7,1.6,7.1,1.6,9.8,0c1.4-0.8,2.1-1.9,2-2.9v-6.8C115.9,257.7,115.3,258.7,113.9,259.5z"/>
				
					<linearGradient id="SVGID_41_" gradientUnits="userSpaceOnUse" x1="3260.6494" y1="275.644" x2="3274.5527" y2="275.644" gradientTransform="matrix(1 0 0 1 -3158.5811 0)">
					<stop  offset="0" style="stop-color:#42E8E0"/>
					<stop  offset="0.1507" style="stop-color:#43E3E0"/>
					<stop  offset="0.3285" style="stop-color:#45D5DF"/>
					<stop  offset="0.5199" style="stop-color:#49BDDD"/>
					<stop  offset="0.7209" style="stop-color:#4E9CDB"/>
					<stop  offset="0.9274" style="stop-color:#5472D8"/>
					<stop  offset="1" style="stop-color:#5761D7"/>
				</linearGradient>
				<path class="st54" d="M113.9,273c-2.7,1.6-7.1,1.6-9.8,0c-1.4-0.8-2-1.8-2-2.8v7l0,0l0,0h0c0,1,0.7,2,2,2.8
					c2.7,1.6,7.1,1.6,9.8,0c1.4-0.8,2.1-1.9,2-2.9v-6.8C115.9,271.2,115.3,272.2,113.9,273z"/>
				
					<linearGradient id="SVGID_42_" gradientUnits="userSpaceOnUse" x1="3260.6497" y1="289.3875" x2="3274.5527" y2="289.3875" gradientTransform="matrix(1 0 0 1 -3158.5811 0)">
					<stop  offset="0" style="stop-color:#42E8E0"/>
					<stop  offset="0.1507" style="stop-color:#43E3E0"/>
					<stop  offset="0.3285" style="stop-color:#45D5DF"/>
					<stop  offset="0.5199" style="stop-color:#49BDDD"/>
					<stop  offset="0.7209" style="stop-color:#4E9CDB"/>
					<stop  offset="0.9274" style="stop-color:#5472D8"/>
					<stop  offset="1" style="stop-color:#5761D7"/>
				</linearGradient>
				<path class="st55" d="M113.9,286.7c-2.7,1.6-7.1,1.6-9.8,0c-1.4-0.8-2-1.8-2-2.8v7v0v0h0c0,1,0.7,2,2,2.8c2.7,1.6,7.1,1.6,9.8,0
					c1.4-0.8,2.1-1.9,2-2.9V284C115.9,285,115.3,285.9,113.9,286.7z"/>
			</g>
			<g>
				
					<linearGradient id="SVGID_43_" gradientUnits="userSpaceOnUse" x1="3217.6838" y1="202.7167" x2="3307.5359" y2="150.6277" gradientTransform="matrix(1 0 0 1 -3158.5811 0)">
					<stop  offset="0" style="stop-color:#5761D7"/>
					<stop  offset="0.1645" style="stop-color:#5E67DA"/>
					<stop  offset="0.4051" style="stop-color:#727AE2"/>
					<stop  offset="0.6924" style="stop-color:#9297EE"/>
					<stop  offset="1" style="stop-color:#BCBEFF"/>
				</linearGradient>
				<path class="st56" d="M83.9,216.2c-0.3-0.2-0.6-0.4-0.9-0.6l-3.4-19.3l4.3-25.6l11.8-12.9l12.2-11.8l19.4-8.1l0.5-0.2
					c0.9,0.5,1.8,1,2.6,1.7c4.9-0.6,9.7-1.2,14.6-1.8c-0.8-2-1.8-3.8-2.9-5.4l2.3-0.9l-8.7-5c-0.1-0.1-0.2-0.1-0.3-0.2l-0.3-0.2l0,0
					c-7.5-4-17.7-3.3-28.9,3.2c-23,13.3-41.6,45.5-41.6,72c0,13.2,4.6,22.4,12,26.8l0,0l0.1,0c0.1,0,0.2,0.1,0.3,0.1l9.2,5.3
					l-0.5-2.7c1.2,0.1,2.3,0.1,3.6,0C86.6,226.3,83.2,221.2,83.9,216.2z"/>
				
					<linearGradient id="SVGID_44_" gradientUnits="userSpaceOnUse" x1="3316.2097" y1="156.5259" x2="3235.3137" y2="215.7544" gradientTransform="matrix(1 0 0 1 -3158.5811 0)">
					<stop  offset="0" style="stop-color:#5761D7"/>
					<stop  offset="0.1645" style="stop-color:#5E67DA"/>
					<stop  offset="0.4051" style="stop-color:#727AE2"/>
					<stop  offset="0.6924" style="stop-color:#9297EE"/>
					<stop  offset="1" style="stop-color:#BCBEFF"/>
				</linearGradient>
				<path class="st57" d="M147.7,154.2c0-0.4,0-0.7,0-1.1c0-6-1-11.2-2.7-15.5c-4.9,0.6-9.7,1.2-14.6,1.8c4.7,3.7,7.5,10.3,7.5,19.3
					c0,20.3-14.2,44.9-31.8,55c-8.7,5-16.5,5.5-22.2,2.3c-0.7,5.1,2.7,10.1,5.3,14.6c3.9-0.2,8-1.3,12.4-3.3l-1.4,1.5
					c0,0,17.3-6,17.7-6.4s20.5-20.7,20.5-20.7l13.2-28.4L147.7,154.2z"/>
				
					<linearGradient id="SVGID_45_" gradientUnits="userSpaceOnUse" x1="3238.5823" y1="181.3434" x2="3302.1487" y2="181.3434" gradientTransform="matrix(1 0 0 1 -3158.5811 0)">
					<stop  offset="0" style="stop-color:#42E8E0"/>
					<stop  offset="0.1507" style="stop-color:#43E3E0"/>
					<stop  offset="0.3285" style="stop-color:#45D5DF"/>
					<stop  offset="0.5199" style="stop-color:#49BDDD"/>
					<stop  offset="0.7209" style="stop-color:#4E9CDB"/>
					<stop  offset="0.9274" style="stop-color:#5472D8"/>
					<stop  offset="1" style="stop-color:#5761D7"/>
				</linearGradient>
				<path class="st58" d="M143.6,163c0-20.3-14.2-28.5-31.8-18.3c-17.6,10.1-31.8,34.8-31.8,55c0,20.3,14.2,28.5,31.8,18.3
					C129.3,207.9,143.6,183.3,143.6,163z"/>
				
					<linearGradient id="SVGID_46_" gradientUnits="userSpaceOnUse" x1="3235.8179" y1="179.8427" x2="3299.3843" y2="179.8427" gradientTransform="matrix(1 0 0 1 -3158.5811 0)">
					<stop  offset="0" style="stop-color:#42E8E0"/>
					<stop  offset="0.1507" style="stop-color:#43E3E0"/>
					<stop  offset="0.3285" style="stop-color:#45D5DF"/>
					<stop  offset="0.5199" style="stop-color:#49BDDD"/>
					<stop  offset="0.7209" style="stop-color:#4E9CDB"/>
					<stop  offset="0.9274" style="stop-color:#5472D8"/>
					<stop  offset="1" style="stop-color:#5761D7"/>
				</linearGradient>
				<path class="st59" d="M140.8,161.5c0-20.3-14.2-28.5-31.8-18.3c-17.6,10.1-31.8,34.8-31.8,55c0,20.3,14.2,28.5,31.8,18.3
					C126.6,206.4,140.8,181.8,140.8,161.5z"/>
				<path class="st60" d="M115.3,134.4c-23,13.3-41.6,45.5-41.6,72c0,26.5,18.6,37.3,41.6,24c23-13.3,41.6-45.5,41.6-72
					S138.2,121.1,115.3,134.4z M115.3,219.1c-17.6,10.1-31.8,1.9-31.8-18.3c0-20.3,14.2-44.9,31.8-55c17.6-10.1,31.8-1.9,31.8,18.3
					S132.8,209,115.3,219.1z"/>
				<path class="st60" d="M115.3,134.4c-23,13.3-41.6,45.5-41.6,72c0,26.5,18.6,37.3,41.6,24c23-13.3,41.6-45.5,41.6-72
					S138.2,121.1,115.3,134.4z M115.3,219.1c-17.6,10.1-31.8,1.9-31.8-18.3c0-20.3,14.2-44.9,31.8-55c17.6-10.1,31.8-1.9,31.8,18.3
					S132.8,209,115.3,219.1z"/>
				<g>
					<path class="st49" d="M74.3,207.1c0-26.5,18.6-58.8,41.6-72c14.1-8.2,26.6-7.2,34.1,0.9c-7.4-8.8-20.2-10-34.8-1.6
						c-23,13.3-41.6,45.5-41.6,72c0,10.2,2.8,18.1,7.5,23.1C76.8,224.5,74.3,216.9,74.3,207.1z"/>
					<path class="st49" d="M115.9,219.8c17.6-10.1,31.8-34.8,31.8-55c0-7.9-2.1-13.9-5.8-17.8c3.3,3.9,5.1,9.7,5.1,17
						c0,20.3-14.2,44.9-31.8,55c-10.8,6.2-20.3,5.5-26-0.6C94.9,225.3,104.7,226.3,115.9,219.8z"/>
				</g>
			</g>
		</g>
	</g>
</g>
</svg>
