<?xml version="1.0" encoding="utf-8"?>
<!-- Generator: Adobe Illustrator 22.0.0, SVG Export Plug-In . SVG Version: 6.00 Build 0)  -->
<svg version="1.1" id="Ñëîé_1" xmlns="http://www.w3.org/2000/svg" xmlns:xlink="http://www.w3.org/1999/xlink" x="0px" y="0px"
	 viewBox="0 0 600 450" style="enable-background:new 0 0 600 450;" xml:space="preserve">
<style type="text/css">
	.st0{fill:url(#SVGID_1_);}
	.st1{opacity:0.3;fill:#6EE8FC;}
	.st2{fill:#6EE8FC;}
	.st3{fill:url(#SVGID_2_);}
	.st4{opacity:0.6;fill:#0C0F38;}
	.st5{fill:url(#SVGID_3_);}
	.st6{fill:#D4088C;}
	.st7{fill:url(#SVGID_4_);}
	.st8{fill:#6DE0F6;}
	.st9{fill:#18D0F7;}
	.st10{fill:#25BFEC;}
	.st11{fill:#267FE5;}
	.st12{opacity:0.8;fill:#6EE8FC;}
	.st13{opacity:0.6;fill:#6EE8FC;}
	.st14{opacity:0.4;fill:#6EE8FC;}
	.st15{opacity:0.2;fill:#6EE8FC;}
	.st16{opacity:0.1;fill:#6EE8FC;}
	.st17{fill:url(#SVGID_5_);}
	.st18{fill:url(#SVGID_6_);}
	.st19{opacity:0.5;fill:#6EE8FC;}
	.st20{fill:url(#SVGID_7_);}
	.st21{fill:url(#SVGID_8_);}
	.st22{fill:url(#SVGID_9_);}
	.st23{fill:url(#SVGID_10_);}
	.st24{fill:url(#SVGID_11_);}
	.st25{fill:url(#SVGID_12_);}
	.st26{fill:#FFFFFF;}
	.st27{fill:url(#SVGID_13_);}
	.st28{fill:url(#SVGID_14_);}
	.st29{fill:url(#SVGID_15_);}
	.st30{fill:url(#SVGID_16_);}
	.st31{fill:url(#SVGID_17_);}
	.st32{opacity:0.8;fill:#6EE1F8;}
	.st33{opacity:0.8;fill:#D4088C;}
	.st34{opacity:0.4;fill:#FFFFFF;}
	.st35{fill:url(#SVGID_18_);}
	.st36{fill:url(#SVGID_19_);}
	.st37{fill:url(#SVGID_20_);}
	.st38{fill:url(#SVGID_21_);}
	.st39{fill:url(#SVGID_22_);}
	.st40{fill:url(#SVGID_23_);}
	.st41{fill:url(#SVGID_24_);}
	.st42{fill:url(#SVGID_25_);}
	.st43{fill:url(#SVGID_26_);}
	.st44{fill:url(#SVGID_27_);}
	.st45{fill:url(#SVGID_28_);}
	.st46{fill:url(#SVGID_29_);}
</style>
<g>
	<g>
		<radialGradient id="SVGID_1_" cx="300" cy="225" r="265.165" gradientUnits="userSpaceOnUse">
			<stop  offset="1.075270e-02" style="stop-color:#77B6F7"/>
			<stop  offset="0.1937" style="stop-color:#66A4F4"/>
			<stop  offset="0.492" style="stop-color:#4F8CF0"/>
			<stop  offset="0.7685" style="stop-color:#427DEE"/>
			<stop  offset="1" style="stop-color:#3D78ED"/>
		</radialGradient>
		<rect x="0" class="st0" width="600" height="450"/>
	</g>
</g>
<g>
	<path class="st1" d="M161.8,263.8c-5.3,0-10.6-0.7-15.7-2.2c-10.2-3-17.1-8.6-19.1-15.4c-1.4-4.8-0.1-9.7,3.6-13.9c0,0,0,0,0,0
		l0.4-0.5c8.9-10.1,29.4-14,46.6-9c10.2,3,17.1,8.6,19.1,15.4c1.4,4.8,0.1,9.7-3.6,13.9l-0.4,0.5
		C186.4,259.8,174.4,263.8,161.8,263.8z M134.2,235.5c-2.6,3-3.6,6.3-2.6,9.5c1.5,5.1,7.4,9.7,15.9,12.2c15.3,4.5,34,1.1,41.7-7.6
		l0.4-0.5c2.6-3,3.6-6.3,2.6-9.5c-1.5-5.1-7.4-9.7-15.9-12.2c-15.3-4.5-34-1.1-41.7,7.6L134.2,235.5z"/>
	<path class="st2" d="M161.6,261.8c-5,0-10.1-0.7-14.9-2.1c-9.5-2.8-15.9-7.9-17.7-14c-1.2-4.1-0.1-8.3,3.2-12l0.4-0.5
		c8.3-9.4,28.2-13.1,44.5-8.4c9.5,2.8,15.9,7.9,17.7,14c1.2,4.1,0.1,8.3-3.2,12l-0.4,0.5C185.3,257.9,173.7,261.8,161.6,261.8z
		 M132.7,234.1c-3.1,3.6-4.2,7.5-3.1,11.4c1.7,5.8,8.1,10.9,17.3,13.6c16,4.7,35.7,1,43.8-8.2l0.4-0.5c3.1-3.6,4.2-7.5,3.1-11.4
		c-1.7-5.8-8.1-10.9-17.3-13.6c-16-4.7-35.7-1-43.8,8.2L132.7,234.1z"/>
	<g>
		<g>
			<linearGradient id="SVGID_2_" gradientUnits="userSpaceOnUse" x1="132.2307" y1="240.8329" x2="191.5998" y2="240.8329">
				<stop  offset="0" style="stop-color:#D4088C"/>
				<stop  offset="0.2258" style="stop-color:#D4088C"/>
				<stop  offset="0.5108" style="stop-color:#6EE1F8"/>
				<stop  offset="0.7796" style="stop-color:#6EE8FC"/>
				<stop  offset="1" style="stop-color:#6EE8FC"/>
			</linearGradient>
			<path class="st3" d="M161.9,258c-7.6,0-15.2-1.7-21-5c-5.6-3.3-8.7-7.6-8.7-12.2c0-4.6,3.1-8.9,8.7-12.2
				c11.6-6.7,30.4-6.7,41.9,0c5.6,3.3,8.7,7.6,8.7,12.2c0,4.6-3.1,8.9-8.7,12.2C177.1,256.4,169.5,258,161.9,258z M161.9,224
				c-7.5,0-15.1,1.7-20.8,5c-5.5,3.2-8.6,7.4-8.6,11.9c0,4.5,3,8.7,8.6,11.9c11.5,6.6,30.1,6.6,41.6,0c5.5-3.2,8.6-7.4,8.6-11.9
				c0-4.5-3-8.7-8.6-11.9C177,225.6,169.4,224,161.9,224z"/>
			<ellipse class="st4" cx="161.9" cy="240.8" rx="24.9" ry="14.4"/>
			<g>
				
					<linearGradient id="SVGID_3_" gradientUnits="userSpaceOnUse" x1="-120.9309" y1="233.4515" x2="-61.8868" y2="233.4515" gradientTransform="matrix(1 0 0 1 253.3231 0)">
					<stop  offset="0" style="stop-color:#A31FA9"/>
					<stop  offset="6.679147e-02" style="stop-color:#8B17A0"/>
					<stop  offset="0.1494" style="stop-color:#740F98"/>
					<stop  offset="0.2393" style="stop-color:#640A92"/>
					<stop  offset="0.3408" style="stop-color:#5B078F"/>
					<stop  offset="0.4785" style="stop-color:#58068E"/>
					<stop  offset="0.6264" style="stop-color:#4D22A3"/>
					<stop  offset="0.9436" style="stop-color:#3168DA"/>
					<stop  offset="1" style="stop-color:#2C75E4"/>
				</linearGradient>
				<path class="st5" d="M191.4,233.4v-9.6h-5.2c-1-0.8-2.1-1.6-3.4-2.4c-11.5-6.7-30.2-6.7-41.8,0c-1.3,0.7-2.4,1.6-3.4,2.4h-5.2
					v9.7l0,0c0,4.4,2.9,8.7,8.6,12.1c11.5,6.7,30.2,6.7,41.8,0C188.6,242.2,191.4,237.8,191.4,233.4z"/>
				<path class="st6" d="M132.7,233.2v-9.4h-0.3v9.7c0,3.9,2.3,7.8,6.9,11C134.9,241.1,132.7,237.2,132.7,233.2z"/>
				<g>
					<path class="st2" d="M191,223.8v9.3c0,4.4-2.9,8.7-8.6,12.1c-11.5,6.7-30.2,6.7-41.8,0c-0.6-0.3-1.1-0.7-1.6-1.1
						c0.7,0.5,1.4,0.9,2.1,1.4c11.5,6.7,30.2,6.7,41.8,0c5.8-3.3,8.7-7.7,8.6-12.1v-9.6H191z"/>
				</g>
				
					<linearGradient id="SVGID_4_" gradientUnits="userSpaceOnUse" x1="237.5087" y1="1092.0319" x2="285.7206" y2="1092.0319" gradientTransform="matrix(0.866 0.5 -0.866 0.5 881.0561 -453.035)">
					<stop  offset="0" style="stop-color:#8D139B"/>
					<stop  offset="0.1651" style="stop-color:#851BA1"/>
					<stop  offset="0.4284" style="stop-color:#6E33B2"/>
					<stop  offset="0.7551" style="stop-color:#4958CD"/>
					<stop  offset="1" style="stop-color:#2979E4"/>
				</linearGradient>
				<ellipse class="st7" cx="161.9" cy="223.8" rx="29.5" ry="17"/>
				<path class="st6" d="M141.8,211.9c5.9-3.4,13.5-5.1,21.2-5.1c-7.9-0.2-15.9,1.5-22,5c-9,5.2-11,13-5.9,19.2
					C130.7,224.6,132.9,217,141.8,211.9z"/>
				<path class="st2" d="M182.8,211.7c-3.1-1.8-6.6-3.1-10.4-3.9c3.4,0.8,6.6,2,9.4,3.6c11.5,6.7,11.5,17.4,0,24.1
					c-8.5,4.9-20.8,6.2-31.3,3.9c10.7,2.6,23.6,1.4,32.3-3.6C194.3,229.2,194.3,218.4,182.8,211.7z"/>
				<g>
					<ellipse class="st8" cx="161.8" cy="223.8" rx="18.9" ry="10.9"/>
					<path class="st9" d="M148.4,221.9c7.4-4.3,19.3-4.3,26.7,0c2.4,1.4,4,3,4.8,4.8c1.8-3.7,0.2-7.7-4.8-10.6
						c-7.4-4.3-19.3-4.3-26.7,0c-5,2.9-6.6,7-4.8,10.6C144.4,225,146,223.3,148.4,221.9z"/>
					<path class="st10" d="M148.4,219.9c7.4-4.3,19.3-4.3,26.7,0c2.8,1.6,4.6,3.7,5.2,5.8c1-3.4-0.7-7-5.2-9.6
						c-7.4-4.3-19.3-4.3-26.7,0c-4.5,2.6-6.3,6.2-5.2,9.6C143.8,223.5,145.6,221.5,148.4,219.9z"/>
					<path class="st11" d="M148.4,218c7.4-4.3,19.3-4.3,26.7,0c3.3,1.9,5.1,4.3,5.4,6.7c0.5-3.1-1.3-6.3-5.4-8.7
						c-7.4-4.3-19.3-4.3-26.7,0c-4.1,2.4-5.9,5.6-5.4,8.7C143.4,222.3,145.2,219.9,148.4,218z"/>
				</g>
				<g>
					<path class="st2" d="M177.2,210.6c-0.6-0.2-1.4-0.1-1.7,0.2c-0.4,0.3-0.2,0.8,0.4,1c0.6,0.2,1.4,0.1,1.7-0.2
						C178,211.3,177.8,210.8,177.2,210.6z"/>
					<path class="st12" d="M181.4,212.6c-0.5-0.3-1.3-0.3-1.8,0c-0.5,0.3-0.4,0.7,0.1,1c0.5,0.3,1.3,0.3,1.8,0
						C181.9,213.4,181.9,212.9,181.4,212.6z"/>
					<path class="st13" d="M184.8,215.1c-0.4-0.3-1.2-0.4-1.7-0.2s-0.7,0.7-0.3,1c0.4,0.3,1.2,0.4,1.7,0.2S185.2,215.4,184.8,215.1z
						"/>
					<path class="st14" d="M187.3,217.9c-0.3-0.4-1-0.5-1.6-0.4c-0.6,0.2-0.9,0.6-0.6,1c0.3,0.4,1,0.5,1.6,0.4
						C187.3,218.7,187.6,218.2,187.3,217.9z"/>
					<path class="st15" d="M188.8,220.9c-0.2-0.4-0.8-0.6-1.5-0.5c-0.7,0.1-1.1,0.5-0.9,0.9c0.2,0.4,0.8,0.6,1.5,0.5
						C188.6,221.7,189,221.3,188.8,220.9z"/>
					<path class="st16" d="M189.2,224.4c0.3-0.4,0-0.8-0.6-1c-0.6-0.2-1.4,0-1.7,0.3c-0.3,0.4,0,0.8,0.6,1
						C188.2,224.9,188.9,224.7,189.2,224.4z"/>
				</g>
			</g>
			<g>
				
					<linearGradient id="SVGID_5_" gradientUnits="userSpaceOnUse" x1="-120.9309" y1="212.6863" x2="-61.8868" y2="212.6863" gradientTransform="matrix(1 0 0 1 253.3231 0)">
					<stop  offset="0" style="stop-color:#A31FA9"/>
					<stop  offset="6.679147e-02" style="stop-color:#8B17A0"/>
					<stop  offset="0.1494" style="stop-color:#740F98"/>
					<stop  offset="0.2393" style="stop-color:#640A92"/>
					<stop  offset="0.3408" style="stop-color:#5B078F"/>
					<stop  offset="0.4785" style="stop-color:#58068E"/>
					<stop  offset="0.6264" style="stop-color:#4D22A3"/>
					<stop  offset="0.9436" style="stop-color:#3168DA"/>
					<stop  offset="1" style="stop-color:#2C75E4"/>
				</linearGradient>
				<path class="st17" d="M191.4,212.7V203h-5.2c-1-0.8-2.1-1.6-3.4-2.4c-11.5-6.7-30.2-6.7-41.8,0c-1.3,0.7-2.4,1.6-3.4,2.4h-5.2
					v9.7l0,0c0,4.4,2.9,8.7,8.6,12.1c11.5,6.7,30.2,6.7,41.8,0C188.6,221.4,191.4,217,191.4,212.7z"/>
				<path class="st6" d="M132.7,212.4V203h-0.3v9.7c0,3.9,2.3,7.8,6.9,11C134.9,220.4,132.7,216.4,132.7,212.4z"/>
				<g>
					<path class="st2" d="M191,203v9.3c0,4.4-2.9,8.7-8.6,12.1c-11.5,6.7-30.2,6.7-41.8,0c-0.6-0.3-1.1-0.7-1.6-1.1
						c0.7,0.5,1.4,0.9,2.1,1.4c11.5,6.7,30.2,6.7,41.8,0c5.8-3.3,8.7-7.7,8.6-12.1V203H191z"/>
				</g>
				
					<linearGradient id="SVGID_6_" gradientUnits="userSpaceOnUse" x1="216.7435" y1="1071.2665" x2="264.9554" y2="1071.2665" gradientTransform="matrix(0.866 0.5 -0.866 0.5 881.0561 -453.035)">
					<stop  offset="0" style="stop-color:#8D139B"/>
					<stop  offset="0.1651" style="stop-color:#851BA1"/>
					<stop  offset="0.4284" style="stop-color:#6E33B2"/>
					<stop  offset="0.7551" style="stop-color:#4958CD"/>
					<stop  offset="1" style="stop-color:#2979E4"/>
				</linearGradient>
				<ellipse class="st18" cx="161.9" cy="203" rx="29.5" ry="17"/>
				<path class="st6" d="M141.8,191.1c5.9-3.4,13.5-5.1,21.2-5.1c-7.9-0.2-15.9,1.5-22,5c-9,5.2-11,13-5.9,19.2
					C130.7,203.8,132.9,196.3,141.8,191.1z"/>
				<path class="st2" d="M182.8,191c-3.1-1.8-6.6-3.1-10.4-3.9c3.4,0.8,6.6,2,9.4,3.6c11.5,6.7,11.5,17.4,0,24.1
					c-8.5,4.9-20.8,6.2-31.3,3.9c10.7,2.6,23.6,1.4,32.3-3.6C194.3,208.4,194.3,197.6,182.8,191z"/>
				<g>
					<path class="st8" d="M175.1,210.7c-7.4,4.3-19.3,4.3-26.7,0c-7.4-4.3-7.4-11.2,0-15.4c7.4-4.3,19.3-4.3,26.7,0
						C182.5,199.6,182.5,206.5,175.1,210.7z"/>
					<path class="st9" d="M148.4,201.2c7.4-4.3,19.3-4.3,26.7,0c2.4,1.4,4,3,4.8,4.8c1.8-3.7,0.2-7.7-4.8-10.6
						c-7.4-4.3-19.3-4.3-26.7,0c-5,2.9-6.6,7-4.8,10.6C144.4,204.2,146,202.5,148.4,201.2z"/>
					<path class="st10" d="M148.4,199.1c7.4-4.3,19.3-4.3,26.7,0c2.8,1.6,4.6,3.7,5.2,5.8c1-3.4-0.7-7-5.2-9.6
						c-7.4-4.3-19.3-4.3-26.7,0c-4.5,2.6-6.3,6.2-5.2,9.6C143.8,202.8,145.6,200.7,148.4,199.1z"/>
					<path class="st11" d="M148.4,197.3c7.4-4.3,19.3-4.3,26.7,0c3.3,1.9,5.1,4.3,5.4,6.7c0.5-3.1-1.3-6.3-5.4-8.7
						c-7.4-4.3-19.3-4.3-26.7,0c-4.1,2.4-5.9,5.6-5.4,8.7C143.4,201.5,145.2,199.1,148.4,197.3z"/>
				</g>
				<g>
					<path class="st2" d="M177.2,189.9c-0.6-0.2-1.4-0.1-1.7,0.2c-0.4,0.3-0.2,0.8,0.4,1c0.6,0.2,1.4,0.1,1.7-0.2
						C178,190.5,177.8,190.1,177.2,189.9z"/>
					<path class="st12" d="M181.4,191.9c-0.5-0.3-1.3-0.3-1.8,0c-0.5,0.3-0.4,0.7,0.1,1c0.5,0.3,1.3,0.3,1.8,0
						C181.9,192.6,181.9,192.2,181.4,191.9z"/>
					<path class="st13" d="M184.8,194.3c-0.4-0.3-1.2-0.4-1.7-0.2c-0.6,0.2-0.7,0.7-0.3,1c0.4,0.3,1.2,0.4,1.7,0.2
						C185.1,195.1,185.2,194.6,184.8,194.3z"/>
					<path class="st14" d="M187.3,197.1c-0.3-0.4-1-0.5-1.6-0.4c-0.6,0.2-0.9,0.6-0.6,1c0.3,0.4,1,0.5,1.6,0.4
						C187.3,197.9,187.6,197.5,187.3,197.1z"/>
					<path class="st15" d="M188.8,200.1c-0.2-0.4-0.8-0.6-1.5-0.5c-0.7,0.1-1.1,0.5-0.9,0.9c0.2,0.4,0.8,0.6,1.5,0.5
						C188.6,200.9,189,200.5,188.8,200.1z"/>
					<path class="st16" d="M189.2,203.6c0.3-0.4,0-0.8-0.6-1c-0.6-0.2-1.4,0-1.7,0.3c-0.3,0.4,0,0.8,0.6,1
						C188.2,204.1,188.9,203.9,189.2,203.6z"/>
				</g>
			</g>
			<path class="st19" d="M191.4,190.8l-9.1-0.1c-11.1-6.1-28.5-6.3-39.9-0.5l-10-0.1v12.4h0c-0.2,4.5,2.7,9.1,8.6,12.5
				c11.5,6.7,30.2,6.7,41.8,0c6-3.4,8.8-8,8.6-12.5h0V190.8z"/>
			<g>
				
					<linearGradient id="SVGID_7_" gradientUnits="userSpaceOnUse" x1="-120.9309" y1="191.9211" x2="-61.8868" y2="191.9211" gradientTransform="matrix(1 0 0 1 253.3231 0)">
					<stop  offset="0" style="stop-color:#A31FA9"/>
					<stop  offset="6.679147e-02" style="stop-color:#8B17A0"/>
					<stop  offset="0.1494" style="stop-color:#740F98"/>
					<stop  offset="0.2393" style="stop-color:#640A92"/>
					<stop  offset="0.3408" style="stop-color:#5B078F"/>
					<stop  offset="0.4785" style="stop-color:#58068E"/>
					<stop  offset="0.6264" style="stop-color:#4D22A3"/>
					<stop  offset="0.9436" style="stop-color:#3168DA"/>
					<stop  offset="1" style="stop-color:#2C75E4"/>
				</linearGradient>
				<path class="st20" d="M191.4,191.9v-9.6h-5.2c-1-0.8-2.1-1.6-3.4-2.4c-11.5-6.7-30.2-6.7-41.8,0c-1.3,0.7-2.4,1.6-3.4,2.4h-5.2
					v9.7l0,0c0,4.4,2.9,8.7,8.6,12.1c11.5,6.7,30.2,6.7,41.8,0C188.6,200.6,191.4,196.3,191.4,191.9z"/>
				<path class="st6" d="M132.7,191.7v-9.4h-0.3v9.7c0,3.9,2.3,7.8,6.9,11C134.9,199.6,132.7,195.6,132.7,191.7z"/>
				<g>
					<path class="st2" d="M191,182.3v9.3c0,4.4-2.9,8.7-8.6,12.1c-11.5,6.7-30.2,6.7-41.8,0c-0.6-0.3-1.1-0.7-1.6-1.1
						c0.7,0.5,1.4,0.9,2.1,1.4c11.5,6.7,30.2,6.7,41.8,0c5.8-3.3,8.7-7.7,8.6-12.1v-9.6H191z"/>
				</g>
				
					<linearGradient id="SVGID_8_" gradientUnits="userSpaceOnUse" x1="195.9782" y1="1050.5013" x2="244.1901" y2="1050.5013" gradientTransform="matrix(0.866 0.5 -0.866 0.5 881.0561 -453.035)">
					<stop  offset="0" style="stop-color:#8D139B"/>
					<stop  offset="0.1651" style="stop-color:#851BA1"/>
					<stop  offset="0.4284" style="stop-color:#6E33B2"/>
					<stop  offset="0.7551" style="stop-color:#4958CD"/>
					<stop  offset="1" style="stop-color:#2979E4"/>
				</linearGradient>
				<ellipse class="st21" cx="161.9" cy="182.3" rx="29.5" ry="17"/>
				<path class="st6" d="M141.8,170.4c5.9-3.4,13.5-5.1,21.2-5.1c-7.9-0.2-15.9,1.5-22,5c-9,5.2-11,13-5.9,19.2
					C130.7,183,132.9,175.5,141.8,170.4z"/>
				<path class="st2" d="M182.8,170.2c-3.1-1.8-6.6-3.1-10.4-3.9c3.4,0.8,6.6,2,9.4,3.6c11.5,6.7,11.5,17.4,0,24.1
					c-8.5,4.9-20.8,6.2-31.3,3.9c10.7,2.6,23.6,1.4,32.3-3.6C194.3,187.7,194.3,176.9,182.8,170.2z"/>
				<g>
					<ellipse class="st8" cx="161.8" cy="182.3" rx="18.9" ry="10.9"/>
					<path class="st9" d="M148.4,180.4c7.4-4.3,19.3-4.3,26.7,0c2.4,1.4,4,3,4.8,4.8c1.8-3.7,0.2-7.7-4.8-10.6
						c-7.4-4.3-19.3-4.3-26.7,0c-5,2.9-6.6,7-4.8,10.6C144.4,183.4,146,181.8,148.4,180.4z"/>
					<path class="st10" d="M148.4,178.3c7.4-4.3,19.3-4.3,26.7,0c2.8,1.6,4.6,3.7,5.2,5.8c1-3.4-0.7-7-5.2-9.6
						c-7.4-4.3-19.3-4.3-26.7,0c-4.5,2.6-6.3,6.2-5.2,9.6C143.8,182,145.6,180,148.4,178.3z"/>
					<path class="st11" d="M148.4,176.5c7.4-4.3,19.3-4.3,26.7,0c3.3,1.9,5.1,4.3,5.4,6.7c0.5-3.1-1.3-6.3-5.4-8.7
						c-7.4-4.3-19.3-4.3-26.7,0c-4.1,2.4-5.9,5.6-5.4,8.7C143.4,180.8,145.2,178.4,148.4,176.5z"/>
				</g>
				<g>
					<path class="st2" d="M177.2,169.1c-0.6-0.2-1.4-0.1-1.7,0.2c-0.4,0.3-0.2,0.8,0.4,1c0.6,0.2,1.4,0.1,1.7-0.2
						C178,169.8,177.8,169.3,177.2,169.1z"/>
					<path class="st12" d="M181.4,171.1c-0.5-0.3-1.3-0.3-1.8,0c-0.5,0.3-0.4,0.7,0.1,1c0.5,0.3,1.3,0.3,1.8,0
						C181.9,171.8,181.9,171.4,181.4,171.1z"/>
					<path class="st13" d="M184.8,173.6c-0.4-0.3-1.2-0.4-1.7-0.2s-0.7,0.7-0.3,1c0.4,0.3,1.2,0.4,1.7,0.2S185.2,173.9,184.8,173.6z
						"/>
					<path class="st14" d="M187.3,176.3c-0.3-0.4-1-0.5-1.6-0.4c-0.6,0.2-0.9,0.6-0.6,1c0.3,0.4,1,0.5,1.6,0.4
						C187.3,177.1,187.6,176.7,187.3,176.3z"/>
					<path class="st15" d="M188.8,179.4c-0.2-0.4-0.8-0.6-1.5-0.5c-0.7,0.1-1.1,0.5-0.9,0.9c0.2,0.4,0.8,0.6,1.5,0.5
						C188.6,180.1,189,179.7,188.8,179.4z"/>
					<path class="st16" d="M189.2,182.8c0.3-0.4,0-0.8-0.6-1c-0.6-0.2-1.4,0-1.7,0.3c-0.3,0.4,0,0.8,0.6,1
						C188.2,183.3,188.9,183.2,189.2,182.8z"/>
				</g>
			</g>
			<g>
				
					<linearGradient id="SVGID_9_" gradientUnits="userSpaceOnUse" x1="-120.9309" y1="171.1558" x2="-61.8868" y2="171.1558" gradientTransform="matrix(1 0 0 1 253.3231 0)">
					<stop  offset="0" style="stop-color:#A31FA9"/>
					<stop  offset="6.679147e-02" style="stop-color:#8B17A0"/>
					<stop  offset="0.1494" style="stop-color:#740F98"/>
					<stop  offset="0.2393" style="stop-color:#640A92"/>
					<stop  offset="0.3408" style="stop-color:#5B078F"/>
					<stop  offset="0.4785" style="stop-color:#58068E"/>
					<stop  offset="0.6264" style="stop-color:#4D22A3"/>
					<stop  offset="0.9436" style="stop-color:#3168DA"/>
					<stop  offset="1" style="stop-color:#2C75E4"/>
				</linearGradient>
				<path class="st22" d="M191.4,171.1v-9.6h-5.2c-1-0.8-2.1-1.6-3.4-2.4c-11.5-6.7-30.2-6.7-41.8,0c-1.3,0.7-2.4,1.6-3.4,2.4h-5.2
					v9.7l0,0c0,4.4,2.9,8.7,8.6,12.1c11.5,6.7,30.2,6.7,41.8,0C188.6,179.9,191.4,175.5,191.4,171.1z"/>
				<path class="st6" d="M132.7,170.9v-9.4h-0.3v9.7c0,3.9,2.3,7.8,6.9,11C134.9,178.8,132.7,174.9,132.7,170.9z"/>
				<g>
					<path class="st2" d="M191,161.5v9.3c0,4.4-2.9,8.7-8.6,12.1c-11.5,6.7-30.2,6.7-41.8,0c-0.6-0.3-1.1-0.7-1.6-1.1
						c0.7,0.5,1.4,0.9,2.1,1.4c11.5,6.7,30.2,6.7,41.8,0c5.8-3.3,8.7-7.7,8.6-12.1v-9.6H191z"/>
				</g>
				
					<linearGradient id="SVGID_10_" gradientUnits="userSpaceOnUse" x1="175.213" y1="1029.7361" x2="223.4249" y2="1029.7361" gradientTransform="matrix(0.866 0.5 -0.866 0.5 881.0561 -453.035)">
					<stop  offset="0" style="stop-color:#8D139B"/>
					<stop  offset="0.1651" style="stop-color:#851BA1"/>
					<stop  offset="0.4284" style="stop-color:#6E33B2"/>
					<stop  offset="0.7551" style="stop-color:#4958CD"/>
					<stop  offset="1" style="stop-color:#2979E4"/>
				</linearGradient>
				<ellipse class="st23" cx="161.9" cy="161.5" rx="29.5" ry="17"/>
				<path class="st6" d="M141.8,149.6c5.9-3.4,13.5-5.1,21.2-5.1c-7.9-0.2-15.9,1.5-22,5c-9,5.2-11,13-5.9,19.2
					C130.7,162.3,132.9,154.8,141.8,149.6z"/>
				<path class="st2" d="M182.8,149.4c-3.1-1.8-6.6-3.1-10.4-3.9c3.4,0.8,6.6,2,9.4,3.6c11.5,6.7,11.5,17.4,0,24.1
					c-8.5,4.9-20.8,6.2-31.3,3.9c10.7,2.6,23.6,1.4,32.3-3.6C194.3,166.9,194.3,156.1,182.8,149.4z"/>
				<g>
					<path class="st8" d="M175.1,169.2c-7.4,4.3-19.3,4.3-26.7,0c-7.4-4.3-7.4-11.2,0-15.4c7.4-4.3,19.3-4.3,26.7,0
						C182.5,158,182.5,164.9,175.1,169.2z"/>
					<path class="st9" d="M148.4,159.6c7.4-4.3,19.3-4.3,26.7,0c2.4,1.4,4,3,4.8,4.8c1.8-3.7,0.2-7.7-4.8-10.6
						c-7.4-4.3-19.3-4.3-26.7,0c-5,2.9-6.6,7-4.8,10.6C144.4,162.7,146,161,148.4,159.6z"/>
					<path class="st10" d="M148.4,157.6c7.4-4.3,19.3-4.3,26.7,0c2.8,1.6,4.6,3.7,5.2,5.8c1-3.4-0.7-7-5.2-9.6
						c-7.4-4.3-19.3-4.3-26.7,0c-4.5,2.6-6.3,6.2-5.2,9.6C143.8,161.3,145.6,159.2,148.4,157.6z"/>
					<path class="st11" d="M148.4,155.7c7.4-4.3,19.3-4.3,26.7,0c3.3,1.9,5.1,4.3,5.4,6.7c0.5-3.1-1.3-6.3-5.4-8.7
						c-7.4-4.3-19.3-4.3-26.7,0c-4.1,2.4-5.9,5.6-5.4,8.7C143.4,160,145.2,157.6,148.4,155.7z"/>
				</g>
				<g>
					<path class="st2" d="M177.2,148.3c-0.6-0.2-1.4-0.1-1.7,0.2c-0.4,0.3-0.2,0.8,0.4,1c0.6,0.2,1.4,0.1,1.7-0.2
						C178,149,177.8,148.5,177.2,148.3z"/>
					<path class="st12" d="M181.4,150.4c-0.5-0.3-1.3-0.3-1.8,0c-0.5,0.3-0.4,0.7,0.1,1c0.5,0.3,1.3,0.3,1.8,0
						C181.9,151.1,181.9,150.6,181.4,150.4z"/>
					<path class="st13" d="M184.8,152.8c-0.4-0.3-1.2-0.4-1.7-0.2c-0.6,0.2-0.7,0.7-0.3,1c0.4,0.3,1.2,0.4,1.7,0.2
						S185.2,153.1,184.8,152.8z"/>
					<path class="st14" d="M187.3,155.6c-0.3-0.4-1-0.5-1.6-0.4c-0.6,0.2-0.9,0.6-0.6,1c0.3,0.4,1,0.5,1.6,0.4
						C187.3,156.4,187.6,155.9,187.3,155.6z"/>
					<path class="st15" d="M188.8,158.6c-0.2-0.4-0.8-0.6-1.5-0.5c-0.7,0.1-1.1,0.5-0.9,0.9c0.2,0.4,0.8,0.6,1.5,0.5
						C188.6,159.4,189,159,188.8,158.6z"/>
					<path class="st16" d="M189.2,162.1c0.3-0.4,0-0.8-0.6-1c-0.6-0.2-1.4,0-1.7,0.3c-0.3,0.4,0,0.8,0.6,1
						C188.2,162.6,188.9,162.4,189.2,162.1z"/>
				</g>
			</g>
			<path class="st19" d="M191.4,149.3l-9.1-0.1c-11.1-6.1-28.5-6.3-39.9-0.5l-10-0.1V161h0c-0.2,4.5,2.7,9.1,8.6,12.5
				c11.5,6.7,30.2,6.7,41.8,0c6-3.4,8.8-8,8.6-12.5h0V149.3z"/>
			<g>
				
					<linearGradient id="SVGID_11_" gradientUnits="userSpaceOnUse" x1="-120.9309" y1="150.3906" x2="-61.8868" y2="150.3906" gradientTransform="matrix(1 0 0 1 253.3231 0)">
					<stop  offset="0" style="stop-color:#A31FA9"/>
					<stop  offset="6.679147e-02" style="stop-color:#8B17A0"/>
					<stop  offset="0.1494" style="stop-color:#740F98"/>
					<stop  offset="0.2393" style="stop-color:#640A92"/>
					<stop  offset="0.3408" style="stop-color:#5B078F"/>
					<stop  offset="0.4785" style="stop-color:#58068E"/>
					<stop  offset="0.6264" style="stop-color:#4D22A3"/>
					<stop  offset="0.9436" style="stop-color:#3168DA"/>
					<stop  offset="1" style="stop-color:#2C75E4"/>
				</linearGradient>
				<path class="st24" d="M191.4,150.4v-9.6h-5.2c-1-0.8-2.1-1.6-3.4-2.4c-11.5-6.7-30.2-6.7-41.8,0c-1.3,0.7-2.4,1.6-3.4,2.4h-5.2
					v9.7l0,0c0,4.4,2.9,8.7,8.6,12.1c11.5,6.7,30.2,6.7,41.8,0C188.6,159.1,191.4,154.7,191.4,150.4z"/>
				<path class="st6" d="M132.7,150.1v-9.4h-0.3v9.7c0,3.9,2.3,7.8,6.9,11C134.9,158.1,132.7,154.1,132.7,150.1z"/>
				<g>
					<path class="st2" d="M191,140.7v9.3c0,4.4-2.9,8.7-8.6,12.1c-11.5,6.7-30.2,6.7-41.8,0c-0.6-0.3-1.1-0.7-1.6-1.1
						c0.7,0.5,1.4,0.9,2.1,1.4c11.5,6.7,30.2,6.7,41.8,0c5.8-3.3,8.7-7.7,8.6-12.1v-9.6H191z"/>
				</g>
				
					<linearGradient id="SVGID_12_" gradientUnits="userSpaceOnUse" x1="154.4478" y1="1008.9708" x2="202.6596" y2="1008.9708" gradientTransform="matrix(0.866 0.5 -0.866 0.5 881.0561 -453.035)">
					<stop  offset="0" style="stop-color:#8D139B"/>
					<stop  offset="0.1651" style="stop-color:#851BA1"/>
					<stop  offset="0.4284" style="stop-color:#6E33B2"/>
					<stop  offset="0.7551" style="stop-color:#4958CD"/>
					<stop  offset="1" style="stop-color:#2979E4"/>
				</linearGradient>
				<path class="st25" d="M182.8,152.8c-11.5,6.7-30.2,6.7-41.8,0s-11.5-17.4,0-24.1c11.5-6.7,30.2-6.7,41.8,0
					C194.3,135.3,194.3,146.1,182.8,152.8z"/>
				<path class="st6" d="M141.8,128.9c5.9-3.4,13.5-5.1,21.2-5.1c-7.9-0.2-15.9,1.5-22,5c-9,5.2-11,13-5.9,19.2
					C130.7,141.5,132.9,134,141.8,128.9z"/>
				<path class="st2" d="M182.8,128.7c-3.1-1.8-6.6-3.1-10.4-3.9c3.4,0.8,6.6,2,9.4,3.6c11.5,6.7,11.5,17.4,0,24.1
					c-8.5,4.9-20.8,6.2-31.3,3.9c10.7,2.6,23.6,1.4,32.3-3.6C194.3,146.1,194.3,135.3,182.8,128.7z"/>
				<g>
					<ellipse class="st8" cx="161.8" cy="140.7" rx="18.9" ry="10.9"/>
					<path class="st9" d="M148.4,138.9c7.4-4.3,19.3-4.3,26.7,0c2.4,1.4,4,3,4.8,4.8c1.8-3.7,0.2-7.7-4.8-10.6
						c-7.4-4.3-19.3-4.3-26.7,0c-5,2.9-6.6,7-4.8,10.6C144.4,141.9,146,140.2,148.4,138.9z"/>
					<path class="st10" d="M148.4,136.8c7.4-4.3,19.3-4.3,26.7,0c2.8,1.6,4.6,3.7,5.2,5.8c1-3.4-0.7-7-5.2-9.6
						c-7.4-4.3-19.3-4.3-26.7,0c-4.5,2.6-6.3,6.2-5.2,9.6C143.8,140.5,145.6,138.4,148.4,136.8z"/>
					<path class="st11" d="M148.4,135c7.4-4.3,19.3-4.3,26.7,0c3.3,1.9,5.1,4.3,5.4,6.7c0.5-3.1-1.3-6.3-5.4-8.7
						c-7.4-4.3-19.3-4.3-26.7,0c-4.1,2.4-5.9,5.6-5.4,8.7C143.4,139.2,145.2,136.8,148.4,135z"/>
				</g>
				<g>
					<path class="st2" d="M177.2,127.6c-0.6-0.2-1.4-0.1-1.7,0.2c-0.4,0.3-0.2,0.8,0.4,1c0.6,0.2,1.4,0.1,1.7-0.2
						C178,128.2,177.8,127.8,177.2,127.6z"/>
					<path class="st12" d="M181.4,129.6c-0.5-0.3-1.3-0.3-1.8,0c-0.5,0.3-0.4,0.7,0.1,1c0.5,0.3,1.3,0.3,1.8,0
						C181.9,130.3,181.9,129.9,181.4,129.6z"/>
					<path class="st13" d="M184.8,132c-0.4-0.3-1.2-0.4-1.7-0.2c-0.6,0.2-0.7,0.7-0.3,1c0.4,0.3,1.2,0.4,1.7,0.2
						C185.1,132.8,185.2,132.4,184.8,132z"/>
					<path class="st14" d="M187.3,134.8c-0.3-0.4-1-0.5-1.6-0.4c-0.6,0.2-0.9,0.6-0.6,1c0.3,0.4,1,0.5,1.6,0.4
						C187.3,135.6,187.6,135.2,187.3,134.8z"/>
					<path class="st15" d="M188.8,137.8c-0.2-0.4-0.8-0.6-1.5-0.5c-0.7,0.1-1.1,0.5-0.9,0.9c0.2,0.4,0.8,0.6,1.5,0.5
						C188.6,138.6,189,138.2,188.8,137.8z"/>
					<path class="st16" d="M189.2,141.3c0.3-0.4,0-0.8-0.6-1c-0.6-0.2-1.4,0-1.7,0.3c-0.3,0.4,0,0.8,0.6,1
						C188.2,141.8,188.9,141.7,189.2,141.3z"/>
				</g>
			</g>
		</g>
		<g>
			<circle class="st8" cx="162.3" cy="162.5" r="1.9"/>
			<path class="st11" d="M162.3,163.6c-0.9,0-1.7-0.6-1.8-1.5c0,0.1,0,0.2,0,0.3c0,1,0.8,1.9,1.9,1.9c1,0,1.9-0.8,1.9-1.9
				c0-0.1,0-0.2,0-0.3C164,163,163.2,163.6,162.3,163.6z"/>
		</g>
		<g>
			<circle class="st8" cx="162.3" cy="183.2" r="1.9"/>
			<path class="st11" d="M162.3,184.4c-0.9,0-1.7-0.6-1.8-1.5c0,0.1,0,0.2,0,0.3c0,1,0.8,1.9,1.9,1.9c1,0,1.9-0.8,1.9-1.9
				c0-0.1,0-0.2,0-0.3C164,183.7,163.2,184.4,162.3,184.4z"/>
		</g>
		<g>
			<circle class="st8" cx="162.3" cy="204" r="1.9"/>
			<path class="st11" d="M162.3,205.2c-0.9,0-1.7-0.6-1.8-1.5c0,0.1,0,0.2,0,0.3c0,1,0.8,1.9,1.9,1.9c1,0,1.9-0.8,1.9-1.9
				c0-0.1,0-0.2,0-0.3C164,204.5,163.2,205.2,162.3,205.2z"/>
		</g>
		<g>
			<circle class="st8" cx="162.3" cy="224.8" r="1.9"/>
			<path class="st11" d="M162.3,225.9c-0.9,0-1.7-0.6-1.8-1.5c0,0.1,0,0.2,0,0.3c0,1,0.8,1.9,1.9,1.9c1,0,1.9-0.8,1.9-1.9
				c0-0.1,0-0.2,0-0.3C164,225.3,163.2,225.9,162.3,225.9z"/>
		</g>
		<g>
			<circle class="st8" cx="162.3" cy="245.5" r="1.9"/>
			<path class="st11" d="M162.3,246.7c-0.9,0-1.7-0.6-1.8-1.5c0,0.1,0,0.2,0,0.3c0,1,0.8,1.9,1.9,1.9c1,0,1.9-0.8,1.9-1.9
				c0-0.1,0-0.2,0-0.3C164,246,163.2,246.7,162.3,246.7z"/>
		</g>
	</g>
</g>
<g>
	<path class="st1" d="M320.8,349.6c-1.7,0-3.3-0.4-4.7-1.1l-47-27.2c-0.6-0.4-0.9-1.2-0.5-1.8c0.4-0.6,1.2-0.9,1.8-0.5l47,27.2
		c1.8,1,4.8,1,6.6,0l148.6-85.2c0.6-0.4,1-0.8,1-1.1c0-0.4-0.4-0.8-1-1.1l-47-27.2c-0.6-0.4-0.9-1.2-0.5-1.8
		c0.4-0.6,1.2-0.9,1.8-0.5l47,27.2c1.5,0.9,2.3,2.1,2.3,3.5c0,1.3-0.8,2.6-2.3,3.5l-148.6,85.2C324.1,349.2,322.4,349.6,320.8,349.6
		z"/>
	<path class="st2" d="M320.8,348.5c-1.5,0-3-0.3-4.1-1l-47-27.2l0.3-0.5l47,27.2c2.1,1.2,5.6,1.2,7.7,0l148.6-85.2
		c1-0.6,1.5-1.3,1.5-2.1c0-0.8-0.5-1.5-1.5-2.1l-47-27.2l0.3-0.5l47,27.2c1.1,0.7,1.8,1.6,1.8,2.5c0,1-0.6,1.9-1.8,2.5l-148.6,85.2
		C323.8,348.2,322.3,348.5,320.8,348.5z"/>
	<g>
		<g>
			<path class="st26" d="M432.6,233.9c-0.3,0.6-1.1,0.8-1.6,0.4c-0.6-0.3-0.8-1.1-0.4-1.6c0.3-0.6,1.1-0.8,1.6-0.4
				C432.8,232.6,433,233.3,432.6,233.9z"/>
		</g>
		<g>
			<path class="st26" d="M438.9,237.5c-0.3,0.6-1.1,0.8-1.6,0.4c-0.6-0.3-0.8-1.1-0.4-1.6c0.3-0.6,1.1-0.8,1.6-0.4
				C439,236.2,439.2,237,438.9,237.5z"/>
		</g>
		<g>
			<path class="st26" d="M445.2,241.1c-0.3,0.6-1.1,0.8-1.6,0.4c-0.6-0.3-0.8-1.1-0.4-1.6c0.3-0.6,1.1-0.8,1.6-0.4
				C445.3,239.8,445.5,240.6,445.2,241.1z"/>
		</g>
		<g>
			<path class="st26" d="M451.4,244.8c-0.3,0.6-1.1,0.8-1.6,0.4c-0.6-0.3-0.8-1.1-0.4-1.6c0.3-0.6,1.1-0.8,1.6-0.4
				C451.5,243.5,451.7,244.2,451.4,244.8z"/>
		</g>
		<g>
			<path class="st26" d="M457.7,248.4c-0.3,0.6-1.1,0.8-1.6,0.4c-0.6-0.3-0.8-1.1-0.4-1.6c0.3-0.6,1.1-0.8,1.6-0.4
				C457.8,247.1,458,247.8,457.7,248.4z"/>
		</g>
		<g>
			<path class="st26" d="M463.9,252c-0.3,0.6-1.1,0.8-1.6,0.4c-0.6-0.3-0.8-1.1-0.4-1.6c0.3-0.6,1.1-0.8,1.6-0.4
				C464.1,250.7,464.3,251.4,463.9,252z"/>
		</g>
		<g>
			<path class="st26" d="M470.2,255.6c-0.3,0.6-1.1,0.8-1.6,0.4c-0.6-0.3-0.8-1.1-0.4-1.6c0.3-0.6,1.1-0.8,1.6-0.4
				C470.3,254.3,470.5,255.1,470.2,255.6z"/>
		</g>
		<g>
			<path class="st26" d="M474.9,260.4c-0.3-0.1-0.6-0.3-0.8-0.5c-0.2-0.2-0.3-0.2-0.4-0.4c-0.1-0.2,0.1-0.9,0.5-1.4
				c0.2-0.2,0.6-0.4,0.9-0.3c0.3,0.1,0.7,0.4,0.9,0.9c0.2,0.5,0,1-0.2,1.3C475.6,260.4,475.2,260.5,474.9,260.4z"/>
		</g>
		<g>
			<path class="st26" d="M469.1,264.5c-0.3-0.6-0.1-1.3,0.4-1.6c0.6-0.3,1.3-0.1,1.6,0.4c0.3,0.6,0.1,1.3-0.4,1.6
				C470.2,265.3,469.5,265.1,469.1,264.5z"/>
		</g>
		<g>
			<path class="st26" d="M462.9,268.1c-0.3-0.6-0.1-1.3,0.4-1.6c0.6-0.3,1.3-0.1,1.6,0.4c0.3,0.6,0.1,1.3-0.4,1.6
				C463.9,268.9,463.2,268.7,462.9,268.1z"/>
		</g>
		<g>
			<path class="st26" d="M456.6,271.7c-0.3-0.6-0.1-1.3,0.4-1.6c0.6-0.3,1.3-0.1,1.6,0.4c0.3,0.6,0.1,1.3-0.4,1.6
				C457.7,272.5,456.9,272.3,456.6,271.7z"/>
		</g>
		<g>
			<path class="st26" d="M450.3,275.3c-0.3-0.6-0.1-1.3,0.4-1.6c0.6-0.3,1.3-0.1,1.6,0.4c0.3,0.6,0.1,1.3-0.4,1.6
				C451.4,276.1,450.7,275.9,450.3,275.3z"/>
		</g>
		<g>
			<path class="st26" d="M444,278.9c-0.3-0.6-0.1-1.3,0.4-1.6c0.6-0.3,1.3-0.1,1.6,0.4c0.3,0.6,0.1,1.3-0.4,1.6
				C445.1,279.7,444.4,279.5,444,278.9z"/>
		</g>
		<g>
			<path class="st26" d="M437.8,282.5c-0.3-0.6-0.1-1.3,0.4-1.6c0.6-0.3,1.3-0.1,1.6,0.4c0.3,0.6,0.1,1.3-0.4,1.6
				C438.8,283.2,438.1,283,437.8,282.5z"/>
		</g>
		<g>
			<path class="st26" d="M431.5,286.1c-0.3-0.6-0.1-1.3,0.4-1.6c0.6-0.3,1.3-0.1,1.6,0.4c0.3,0.6,0.1,1.3-0.4,1.6
				C432.6,286.8,431.8,286.6,431.5,286.1z"/>
		</g>
		<g>
			<path class="st26" d="M425.2,289.7c-0.3-0.6-0.1-1.3,0.4-1.6c0.6-0.3,1.3-0.1,1.6,0.4c0.3,0.6,0.1,1.3-0.4,1.6
				C426.3,290.4,425.6,290.2,425.2,289.7z"/>
		</g>
		<g>
			<path class="st26" d="M419,293.3c-0.3-0.6-0.1-1.3,0.4-1.6c0.6-0.3,1.3-0.1,1.6,0.4c0.3,0.6,0.1,1.3-0.4,1.6
				C420,294,419.3,293.8,419,293.3z"/>
		</g>
		<g>
			<path class="st26" d="M412.7,296.9c-0.3-0.6-0.1-1.3,0.4-1.6c0.6-0.3,1.3-0.1,1.6,0.4c0.3,0.6,0.1,1.3-0.4,1.6
				C413.7,297.6,413,297.4,412.7,296.9z"/>
		</g>
		<g>
			<path class="st26" d="M406.4,300.5c-0.3-0.6-0.1-1.3,0.4-1.6c0.6-0.3,1.3-0.1,1.6,0.4c0.3,0.6,0.1,1.3-0.4,1.6
				C407.5,301.2,406.7,301,406.4,300.5z"/>
		</g>
		<g>
			<path class="st26" d="M400.1,304.1c-0.3-0.6-0.1-1.3,0.4-1.6c0.6-0.3,1.3-0.1,1.6,0.4c0.3,0.6,0.1,1.3-0.4,1.6
				C401.2,304.8,400.5,304.6,400.1,304.1z"/>
		</g>
		<g>
			<path class="st26" d="M393.9,307.6c-0.3-0.6-0.1-1.3,0.4-1.6c0.6-0.3,1.3-0.1,1.6,0.4c0.3,0.6,0.1,1.3-0.4,1.6
				C394.9,308.4,394.2,308.2,393.9,307.6z"/>
		</g>
		<g>
			<path class="st26" d="M387.6,311.2c-0.3-0.6-0.1-1.3,0.4-1.6c0.6-0.3,1.3-0.1,1.6,0.4c0.3,0.6,0.1,1.3-0.4,1.6
				C388.7,312,387.9,311.8,387.6,311.2z"/>
		</g>
		<g>
			<path class="st26" d="M381.3,314.8c-0.3-0.6-0.1-1.3,0.4-1.6c0.6-0.3,1.3-0.1,1.6,0.4c0.3,0.6,0.1,1.3-0.4,1.6
				C382.4,315.6,381.6,315.4,381.3,314.8z"/>
		</g>
		<g>
			<path class="st26" d="M375,318.4c-0.3-0.6-0.1-1.3,0.4-1.6c0.6-0.3,1.3-0.1,1.6,0.4c0.3,0.6,0.1,1.3-0.4,1.6
				C376.1,319.2,375.4,319,375,318.4z"/>
		</g>
		<g>
			<path class="st26" d="M368.8,322c-0.3-0.6-0.1-1.3,0.4-1.6c0.6-0.3,1.3-0.1,1.6,0.4c0.3,0.6,0.1,1.3-0.4,1.6
				C369.8,322.8,369.1,322.6,368.8,322z"/>
		</g>
		<g>
			<path class="st26" d="M362.5,325.6c-0.3-0.6-0.1-1.3,0.4-1.6c0.6-0.3,1.3-0.1,1.6,0.4c0.3,0.6,0.1,1.3-0.4,1.6
				C363.6,326.4,362.8,326.2,362.5,325.6z"/>
		</g>
		<g>
			<path class="st26" d="M356.2,329.2c-0.3-0.6-0.1-1.3,0.4-1.6c0.6-0.3,1.3-0.1,1.6,0.4c0.3,0.6,0.1,1.3-0.4,1.6
				C357.3,330,356.5,329.8,356.2,329.2z"/>
		</g>
		<g>
			<path class="st26" d="M349.9,332.8c-0.3-0.6-0.1-1.3,0.4-1.6c0.6-0.3,1.3-0.1,1.6,0.4c0.3,0.6,0.1,1.3-0.4,1.6
				C351,333.6,350.3,333.4,349.9,332.8z"/>
		</g>
		<g>
			<path class="st26" d="M343.7,336.4c-0.3-0.6-0.1-1.3,0.4-1.6c0.6-0.3,1.3-0.1,1.6,0.4c0.3,0.6,0.1,1.3-0.4,1.6
				C344.7,337.2,344,337,343.7,336.4z"/>
		</g>
		<g>
			<path class="st26" d="M337.4,340c-0.3-0.6-0.1-1.3,0.4-1.6c0.6-0.3,1.3-0.1,1.6,0.4c0.3,0.6,0.1,1.3-0.4,1.6
				C338.5,340.8,337.7,340.6,337.4,340z"/>
		</g>
		<g>
			<path class="st26" d="M331.1,343.6c-0.3-0.6-0.1-1.3,0.4-1.6c0.6-0.3,1.3-0.1,1.6,0.4c0.3,0.6,0.1,1.3-0.4,1.6
				C332.2,344.4,331.5,344.2,331.1,343.6z"/>
		</g>
		<g>
			<path class="st26" d="M324.9,347.2c-0.3-0.6-0.1-1.3,0.4-1.6c0.6-0.3,1.3-0.1,1.6,0.4c0.3,0.6,0.1,1.3-0.4,1.6
				C325.9,348,325.2,347.8,324.9,347.2z"/>
		</g>
		<g>
			<path class="st26" d="M317.8,347.7c0.2-0.6,0.8-1,1.4-0.9c0.5,0.1,1,0.7,1,1.3c0,0.7-0.7,1.2-1.4,1
				C318,349.1,317.6,348.4,317.8,347.7z"/>
		</g>
		<g>
			<path class="st26" d="M311.5,344.2c0.3-0.6,1.1-0.8,1.6-0.4c0.6,0.3,0.8,1.1,0.4,1.6c-0.3,0.6-1.1,0.8-1.6,0.4
				C311.4,345.5,311.2,344.8,311.5,344.2z"/>
		</g>
		<g>
			<path class="st26" d="M305.3,340.6c0.3-0.6,1.1-0.8,1.6-0.4c0.6,0.3,0.8,1.1,0.4,1.6c-0.3,0.6-1.1,0.8-1.6,0.4
				C305.1,341.9,304.9,341.2,305.3,340.6z"/>
		</g>
		<g>
			<path class="st26" d="M299,337c0.3-0.6,1.1-0.8,1.6-0.4c0.6,0.3,0.8,1.1,0.4,1.6c-0.3,0.6-1.1,0.8-1.6,0.4
				C298.9,338.3,298.7,337.6,299,337z"/>
		</g>
		<g>
			<path class="st26" d="M292.8,333.4c0.3-0.6,1.1-0.8,1.6-0.4c0.6,0.3,0.8,1.1,0.4,1.6c-0.3,0.6-1.1,0.8-1.6,0.4
				C292.6,334.7,292.4,333.9,292.8,333.4z"/>
		</g>
		<g>
			<path class="st26" d="M286.5,329.7c0.3-0.6,1.1-0.8,1.6-0.4c0.6,0.3,0.8,1.1,0.4,1.6c-0.3,0.6-1.1,0.8-1.6,0.4
				C286.4,331.1,286.2,330.3,286.5,329.7z"/>
		</g>
		<g>
			<path class="st26" d="M280.2,326.1c0.3-0.6,1.1-0.8,1.6-0.4s0.8,1.1,0.4,1.6c-0.3,0.6-1.1,0.8-1.6,0.4
				C280.1,327.4,279.9,326.7,280.2,326.1z"/>
		</g>
		<g>
			<path class="st26" d="M274,322.5c0.3-0.6,1.1-0.8,1.6-0.4c0.6,0.3,0.8,1.1,0.4,1.6c-0.3,0.6-1.1,0.8-1.6,0.4
				C273.8,323.8,273.6,323.1,274,322.5z"/>
		</g>
	</g>
</g>
<g>
	<g>
		<path class="st4" d="M241.3,360.6l-108.1-62.4c-2.6-1.5-2.3-4.1,0.7-5.8l219.9-127c3-1.7,7.5-1.9,10.1-0.4L472,227.4
			c2.6,1.5,2.3,4.1-0.7,5.8l-219.9,127C248.4,361.9,243.9,362.1,241.3,360.6z"/>
		<linearGradient id="SVGID_13_" gradientUnits="userSpaceOnUse" x1="62.8287" y1="245.4287" x2="558.3698" y2="245.4287">
			<stop  offset="0" style="stop-color:#8D139B"/>
			<stop  offset="0.1651" style="stop-color:#851BA1"/>
			<stop  offset="0.4284" style="stop-color:#6E33B2"/>
			<stop  offset="0.7551" style="stop-color:#4958CD"/>
			<stop  offset="1" style="stop-color:#2979E4"/>
		</linearGradient>
		<path class="st27" d="M473.7,204.6l-5.5,3.3l-104.4-60.3c-2.6-1.5-7.1-1.3-10.1,0.4L137.4,273l-5.9-2.6v8.1l0,0
			c0,0.9,0.6,1.7,1.7,2.4l108.1,62.4c2.6,1.5,7.1,1.3,10.1-0.4l219.9-127c1.7-1,2.5-2.2,2.5-3.4l0,0V204.6z"/>
		<path class="st6" d="M137.4,273l-5.9-2.6v8.1l0,0c0,0.9,0.6,1.7,1.7,2.4l0.2,0.1c-0.3-0.4-0.5-0.9-0.5-1.4l0,0v-8.1l5.9,2.6
			l8.4-4.8c-0.4-0.5-0.8-0.9-1.2-1.3L137.4,273z"/>
		<path class="st2" d="M468.2,207.9L417,178.3c-0.5,0.3-1,0.7-1.6,1l51.4,29.7l5.5-3.3v7.9l0,0c0,0.7-0.3,1.5-1,2.2
			c1.6-1,2.4-2.2,2.3-3.3l0,0v-7.9L468.2,207.9z"/>
		
			<linearGradient id="SVGID_14_" gradientUnits="userSpaceOnUse" x1="-1224.2186" y1="1079.625" x2="-1088.5527" y2="1079.625" gradientTransform="matrix(0.866 0.5 -1 0.5774 2383.6426 192.2677)">
			<stop  offset="0" style="stop-color:#8D139B"/>
			<stop  offset="0.1651" style="stop-color:#851BA1"/>
			<stop  offset="0.4284" style="stop-color:#6E33B2"/>
			<stop  offset="0.7551" style="stop-color:#4958CD"/>
			<stop  offset="1" style="stop-color:#2979E4"/>
		</linearGradient>
		<path class="st28" d="M241.3,335.3l-108.1-62.4c-2.6-1.5-2.3-4.1,0.7-5.8l219.9-127c3-1.7,7.5-1.9,10.1-0.4L472,202.1
			c2.6,1.5,2.3,4.1-0.7,5.8l-219.9,127C248.4,336.6,243.9,336.7,241.3,335.3z"/>
		<path class="st6" d="M242.8,335.3l-108.1-62.4c-2.6-1.5-2.3-4.1,0.7-5.8l219.9-127c1.4-0.8,3.2-1.3,5-1.4
			c-2.2-0.1-4.6,0.3-6.5,1.4L133.9,267c-3,1.7-3.3,4.3-0.7,5.8l108.1,62.4c1.3,0.8,3.2,1.1,5.1,1
			C245.1,336.1,243.8,335.8,242.8,335.3z"/>
		<path class="st2" d="M472,202.1l-108.1-62.4c-1.3-0.8-3.2-1.1-5.1-1c1.4,0.1,2.6,0.4,3.6,1l108.1,62.4c2.6,1.5,2.3,4.1-0.7,5.8
			l-219.9,127c-1.4,0.8-3.2,1.3-5,1.4c2.2,0.1,4.6-0.3,6.4-1.4l219.9-127C474.2,206.2,474.6,203.6,472,202.1z"/>
		
			<radialGradient id="SVGID_15_" cx="-1903.9111" cy="-1403.5972" r="269.7804" gradientTransform="matrix(0.8413 0.4857 -1.0717 0.6188 285.6651 1954.4696)" gradientUnits="userSpaceOnUse">
			<stop  offset="1.075270e-02" style="stop-color:#2C35A2"/>
			<stop  offset="0.1635" style="stop-color:#252C88"/>
			<stop  offset="0.3975" style="stop-color:#1B2167"/>
			<stop  offset="0.621" style="stop-color:#15194F"/>
			<stop  offset="0.8273" style="stop-color:#101540"/>
			<stop  offset="1" style="stop-color:#0F133B"/>
		</radialGradient>
		<polygon class="st29" points="253.7,331.4 139.8,265.7 350.2,144.2 464,210 		"/>
		<linearGradient id="SVGID_16_" gradientUnits="userSpaceOnUse" x1="178.8776" y1="237.8343" x2="424.9674" y2="237.8343">
			<stop  offset="0" style="stop-color:#A31FA9"/>
			<stop  offset="6.679147e-02" style="stop-color:#8B17A0"/>
			<stop  offset="0.1494" style="stop-color:#740F98"/>
			<stop  offset="0.2393" style="stop-color:#640A92"/>
			<stop  offset="0.3408" style="stop-color:#5B078F"/>
			<stop  offset="0.4785" style="stop-color:#58068E"/>
			<stop  offset="0.6264" style="stop-color:#4D22A3"/>
			<stop  offset="0.9436" style="stop-color:#3168DA"/>
			<stop  offset="1" style="stop-color:#2C75E4"/>
		</linearGradient>
		<polygon class="st30" points="265.3,308.9 178.9,259 338.6,166.8 425,216.7 		"/>
		
			<radialGradient id="SVGID_17_" cx="-1160.8816" cy="781.6671" r="12.8295" gradientTransform="matrix(0.866 0.5 -0.866 0.5 2090.5146 361.2258)" gradientUnits="userSpaceOnUse">
			<stop  offset="1.075270e-02" style="stop-color:#2C35A2"/>
			<stop  offset="0.1635" style="stop-color:#252C88"/>
			<stop  offset="0.3975" style="stop-color:#1B2167"/>
			<stop  offset="0.621" style="stop-color:#15194F"/>
			<stop  offset="0.8273" style="stop-color:#101540"/>
			<stop  offset="1" style="stop-color:#0F133B"/>
		</radialGradient>
		<path class="st31" d="M417.7,178.1l-12.3-7.1c-0.5-0.3-0.4-0.7,0.1-1l0,0c0.5-0.3,1.3-0.3,1.8-0.1l12.3,7.1c0.5,0.3,0.4,0.7-0.1,1
			l0,0C419,178.3,418.1,178.4,417.7,178.1z"/>
	</g>
	<path class="st32" d="M235.4,187.5c0,0,5.3-58.3,16.6-51.8c11.3,6.6,5.8,40.4,17.6,47.1c11.5,6.7,5.3-96.6,22.7-86.5
		c12.5,7.2,8.5,85.6,19.7,92.1c12.5,7.2,8.9-22.3,20.1-21c6.4,0.8,9.7,19.9,18.8,24.3c9,4.3,4.7-78.8,19-70.5
		c14.5,8.4,18.7,154.7,18.7,154.7L235.4,187.5z"/>
	<path class="st26" d="M252.5,135.2c0,1.3-1.1,2.4-2.4,2.4c-1.3,0-2.4-1.1-2.4-2.4c0-1.3,1.1-2.4,2.4-2.4
		C251.4,132.8,252.5,133.9,252.5,135.2z"/>
	<path class="st26" d="M292.3,95.7c0,1.3-1.1,2.4-2.4,2.4s-2.4-1.1-2.4-2.4c0-1.3,1.1-2.4,2.4-2.4S292.3,94.4,292.3,95.7z"/>
	<path class="st26" d="M334.1,167.3c0,1.3-1.1,2.4-2.4,2.4c-1.3,0-2.4-1.1-2.4-2.4c0-1.3,1.1-2.4,2.4-2.4
		C333,164.9,334.1,166,334.1,167.3z"/>
	<path class="st26" d="M370.3,120.5c0,1.3-1.1,2.4-2.4,2.4c-1.3,0-2.4-1.1-2.4-2.4c0-1.3,1.1-2.4,2.4-2.4
		C369.2,118.1,370.3,119.1,370.3,120.5z"/>
	<path class="st33" d="M200.3,204.8c0,0,3.9-57.9,12.4-53c8.4,4.9,4.4,38.8,13.1,43.9c8.6,5,3.9-84.1,16.9-76.6
		c9.3,5.4,6.4,35.2,14.7,40c9.4,5.4,7.7-9.4,15-5.2c7.2,4.2,7.3,23,14,26.1c6.8,3,3.5-64.5,14.2-58.3
		c10.8,6.2,13.9,149.2,13.9,149.2L200.3,204.8z"/>
	<path class="st26" d="M214.4,151.5c0,1.3-1.1,2.4-2.4,2.4c-1.3,0-2.4-1.1-2.4-2.4c0-1.3,1.1-2.4,2.4-2.4
		C213.3,149.1,214.4,150.2,214.4,151.5z"/>
	<path class="st26" d="M243.7,118.7c0,1.3-1.1,2.4-2.4,2.4c-1.3,0-2.4-1.1-2.4-2.4c0-1.3,1.1-2.4,2.4-2.4
		C242.6,116.2,243.7,117.3,243.7,118.7z"/>
	<path class="st26" d="M272.5,153.3c0,1.3-1.1,2.4-2.4,2.4s-2.4-1.1-2.4-2.4c0-1.3,1.1-2.4,2.4-2.4S272.5,151.9,272.5,153.3z"/>
	<path class="st26" d="M301.6,121.4c0,1.3-1.1,2.4-2.4,2.4c-1.3,0-2.4-1.1-2.4-2.4c0-1.3,1.1-2.4,2.4-2.4
		C300.5,119,301.6,120.1,301.6,121.4z"/>
</g>
<polygon class="st32" points="246.7,275.3 229.4,265.4 235.5,261.9 252.8,271.8 "/>
<polygon class="st33" points="257.5,269.2 240.2,259.2 246.2,255.7 263.5,265.7 "/>
<path class="st34" d="M212,212.1c-0.3,0-0.5-0.2-0.5-0.5v-60c0-0.3,0.2-0.5,0.5-0.5c0.3,0,0.5,0.2,0.5,0.5v60
	C212.5,211.9,212.2,212.1,212,212.1z"/>
<path class="st34" d="M241.3,229.1c-0.3,0-0.5-0.2-0.5-0.5V118.7c0-0.3,0.2-0.5,0.5-0.5c0.3,0,0.5,0.2,0.5,0.5v109.9
	C241.8,228.8,241.6,229.1,241.3,229.1z"/>
<path class="st34" d="M270.1,245.7c-0.3,0-0.5-0.2-0.5-0.5v-91.9c0-0.3,0.2-0.5,0.5-0.5c0.3,0,0.5,0.2,0.5,0.5v91.9
	C270.6,245.5,270.3,245.7,270.1,245.7z"/>
<path class="st34" d="M299.2,262.4c-0.3,0-0.5-0.2-0.5-0.5V121.6c0-0.3,0.2-0.5,0.5-0.5c0.3,0,0.5,0.2,0.5,0.5v140.2
	C299.7,262.1,299.4,262.4,299.2,262.4z"/>
<path class="st26" d="M176.5,177.1c-0.2,0-0.3-0.1-0.4-0.2c-0.2-0.2-0.1-0.5,0.1-0.7l35.4-25.1l29.3-32.9c0.1-0.1,0.2-0.2,0.4-0.2
	c0.1,0,0.3,0.1,0.4,0.2l28.4,34.2l28.7-31.4l34.1-39.9c0.2-0.2,0.5-0.2,0.7-0.1c0.2,0.2,0.2,0.5,0.1,0.7l-34.1,39.9l-29.1,31.8
	c-0.1,0.1-0.2,0.2-0.4,0.2c-0.1,0-0.3-0.1-0.4-0.2l-28.4-34.2l-28.9,32.5c0,0-0.1,0.1-0.1,0.1L176.8,177
	C176.7,177.1,176.6,177.1,176.5,177.1z"/>
<g>
	<g>
		<path class="st4" d="M445.5,284.1l-12.3-7.1c-1.5-0.9-1.3-2.4,0.4-3.4l11.8-6.8c1.7-1,4.3-1.1,5.8-0.2l12.3,7.1
			c1.5,0.9,1.3,2.4-0.4,3.4l-11.8,6.8C449.6,284.8,447,285,445.5,284.1z"/>
		<linearGradient id="SVGID_18_" gradientUnits="userSpaceOnUse" x1="428.9553" y1="275.339" x2="467.8947" y2="275.339">
			<stop  offset="0" style="stop-color:#D4088C"/>
			<stop  offset="0.2258" style="stop-color:#D4088C"/>
			<stop  offset="0.5108" style="stop-color:#6EE1F8"/>
			<stop  offset="0.7796" style="stop-color:#6EE8FC"/>
			<stop  offset="1" style="stop-color:#6EE8FC"/>
		</linearGradient>
		<path class="st35" d="M448,286.7c-1.2,0-2.3-0.2-3.1-0.7l-14.6-8.4c-0.9-0.5-1.3-1.2-1.3-2c0-0.9,0.7-1.8,1.8-2.5l14-8.1
			c2.1-1.2,5.3-1.4,7.2-0.3l14.6,8.4c0.9,0.5,1.3,1.2,1.3,2c0,0.9-0.7,1.8-1.8,2.5l-14,8.1C450.9,286.4,449.4,286.7,448,286.7z
			 M448.9,264.6c-1.3,0-2.7,0.3-3.8,0.9l-14,8.1c-1,0.6-1.5,1.3-1.5,2c0,0.6,0.4,1.1,1,1.5l14.6,8.4c1.7,1,4.6,0.8,6.6-0.3l14-8.1
			c1-0.6,1.5-1.3,1.5-2c0-0.6-0.4-1.1-1-1.5l-14.6-8.4C450.9,264.8,449.9,264.6,448.9,264.6z"/>
		<linearGradient id="SVGID_19_" gradientUnits="userSpaceOnUse" x1="429.2059" y1="268.6347" x2="468.5903" y2="268.6347">
			<stop  offset="0" style="stop-color:#A31FA9"/>
			<stop  offset="6.679147e-02" style="stop-color:#8B17A0"/>
			<stop  offset="0.1494" style="stop-color:#740F98"/>
			<stop  offset="0.2393" style="stop-color:#640A92"/>
			<stop  offset="0.3408" style="stop-color:#5B078F"/>
			<stop  offset="0.4785" style="stop-color:#58068E"/>
			<stop  offset="0.6264" style="stop-color:#4D22A3"/>
			<stop  offset="0.9436" style="stop-color:#3168DA"/>
			<stop  offset="1" style="stop-color:#2C75E4"/>
		</linearGradient>
		<path class="st36" d="M464.6,261.5h-10.4l-2.9-1.7c-1.5-0.9-4.1-0.8-5.8,0.2l-2.9,1.7h-10.4v7h0c0,0.6,0.3,1.1,1,1.6l12.3,7.1
			c1.5,0.9,4.1,0.8,5.8-0.2l11.8-6.8c0.9-0.5,1.4-1.2,1.4-1.8h0V261.5z"/>
		<linearGradient id="SVGID_20_" gradientUnits="userSpaceOnUse" x1="429.2059" y1="273.0006" x2="468.5903" y2="273.0006">
			<stop  offset="0" style="stop-color:#D4088C"/>
			<stop  offset="0.2258" style="stop-color:#D4088C"/>
			<stop  offset="0.5108" style="stop-color:#6EE1F8"/>
			<stop  offset="0.7796" style="stop-color:#6EE8FC"/>
			<stop  offset="1" style="stop-color:#6EE8FC"/>
		</linearGradient>
		<path class="st37" d="M463.2,269.8l-11.8,6.8c-1.7,1-4.3,1.1-5.8,0.2l-12.3-7.1c-0.7-0.4-1-1-1-1.6h0v0.5h0c0,0.6,0.3,1.1,1,1.6
			l12.3,7.1c1.5,0.9,4.1,0.8,5.8-0.2l11.8-6.8c0.9-0.5,1.4-1.2,1.4-1.8h0V268h0C464.5,268.7,464.1,269.3,463.2,269.8z"/>
		<path class="st6" d="M432.9,269.2L432.9,269.2l0-7h10.4l2.9-1.7c1.7-1,4.3-1.1,5.8-0.2l2.9,1.7h9.7v-0.5h-10.4l-2.9-1.7
			c-1.5-0.9-4.1-0.8-5.8,0.2l-2.9,1.7h-10.4v7h0c0,0.6,0.3,1.1,1,1.6l0.1,0.1C433,270,432.9,269.6,432.9,269.2z"/>
		
			<linearGradient id="SVGID_21_" gradientUnits="userSpaceOnUse" x1="726.4473" y1="722.0833" x2="744.998" y2="706.0178" gradientTransform="matrix(0.866 0.5 -1 0.5774 525.0016 -518.4943)">
			<stop  offset="0" style="stop-color:#8D139B"/>
			<stop  offset="0.1651" style="stop-color:#851BA1"/>
			<stop  offset="0.4284" style="stop-color:#6E33B2"/>
			<stop  offset="0.7551" style="stop-color:#4958CD"/>
			<stop  offset="1" style="stop-color:#2979E4"/>
		</linearGradient>
		<path class="st38" d="M445.5,270.4l-12.3-7.1c-1.5-0.9-1.3-2.4,0.4-3.4l11.8-6.8c1.7-1,4.3-1.1,5.8-0.2l12.3,7.1
			c1.5,0.9,1.3,2.4-0.4,3.4l-11.8,6.8C449.6,271.2,447,271.3,445.5,270.4z"/>
		<path class="st2" d="M463.6,260l-12.3-7.1c-0.8-0.4-1.8-0.6-2.9-0.6c0.8,0,1.5,0.2,2.1,0.6l12.3,7.1c1.5,0.9,1.3,2.4-0.4,3.4
			l-11.8,6.8c-0.8,0.5-1.9,0.7-2.9,0.8c1.3,0.1,2.6-0.2,3.7-0.8l11.8-6.8C464.9,262.3,465.1,260.8,463.6,260z"/>
		<path class="st6" d="M446.5,270.4l-12.3-7.1c-1.5-0.9-1.3-2.4,0.4-3.4l11.8-6.8c0.8-0.5,1.8-0.7,2.8-0.8c-1.3-0.1-2.7,0.2-3.8,0.8
			l-11.8,6.8c-1.7,1-1.9,2.5-0.4,3.4l12.3,7.1c0.8,0.5,1.9,0.6,3,0.6C447.7,270.9,447,270.7,446.5,270.4z"/>
	</g>
	<path class="st2" d="M454.4,265.1c-3.3,1.9-8.7,1.9-12,0s-3.3-5,0-6.9c3.3-1.9,8.7-1.9,12,0C457.7,260.1,457.7,263.2,454.4,265.1z"
		/>
	<path class="st11" d="M442.4,260c3.3-1.9,8.7-1.9,12,0c1.3,0.7,2,1.6,2.3,2.6c0.5-1.5-0.3-3.2-2.3-4.4c-3.3-1.9-8.7-1.9-12,0
		c-2.1,1.2-2.8,2.8-2.3,4.4C440.4,261.6,441.2,260.7,442.4,260z"/>
</g>
<g>
	<g>
		<path class="st4" d="M398,312.2l-12.3-7.1c-1.5-0.9-1.3-2.4,0.4-3.4L398,295c1.7-1,4.3-1.1,5.8-0.2l12.3,7.1
			c1.5,0.9,1.3,2.4-0.4,3.4l-11.8,6.8C402.1,313,399.5,313.1,398,312.2z"/>
		<linearGradient id="SVGID_22_" gradientUnits="userSpaceOnUse" x1="381.4201" y1="303.4931" x2="420.3596" y2="303.4931">
			<stop  offset="0" style="stop-color:#D4088C"/>
			<stop  offset="0.2258" style="stop-color:#D4088C"/>
			<stop  offset="0.5108" style="stop-color:#6EE1F8"/>
			<stop  offset="0.7796" style="stop-color:#6EE8FC"/>
			<stop  offset="1" style="stop-color:#6EE8FC"/>
		</linearGradient>
		<path class="st39" d="M400.5,314.9c-1.2,0-2.3-0.2-3.1-0.7l-14.6-8.4c-0.9-0.5-1.3-1.2-1.3-2c0-0.9,0.7-1.8,1.8-2.5l14-8.1
			c2.1-1.2,5.3-1.4,7.2-0.3l14.6,8.4c0.9,0.5,1.3,1.2,1.3,2c0,0.9-0.7,1.8-1.8,2.5l-14,8.1C403.3,314.5,401.9,314.9,400.5,314.9z
			 M401.3,292.7c-1.3,0-2.7,0.3-3.8,0.9l-14,8.1c-1,0.6-1.5,1.3-1.5,2c0,0.6,0.4,1.1,1,1.5l14.6,8.4c1.7,1,4.6,0.8,6.6-0.3l14-8.1
			c1-0.6,1.5-1.3,1.5-2c0-0.6-0.4-1.1-1-1.5l-14.6-8.4C403.4,292.9,402.4,292.7,401.3,292.7z"/>
		<linearGradient id="SVGID_23_" gradientUnits="userSpaceOnUse" x1="381.6707" y1="296.789" x2="421.0552" y2="296.789">
			<stop  offset="0" style="stop-color:#A31FA9"/>
			<stop  offset="6.679147e-02" style="stop-color:#8B17A0"/>
			<stop  offset="0.1494" style="stop-color:#740F98"/>
			<stop  offset="0.2393" style="stop-color:#640A92"/>
			<stop  offset="0.3408" style="stop-color:#5B078F"/>
			<stop  offset="0.4785" style="stop-color:#58068E"/>
			<stop  offset="0.6264" style="stop-color:#4D22A3"/>
			<stop  offset="0.9436" style="stop-color:#3168DA"/>
			<stop  offset="1" style="stop-color:#2C75E4"/>
		</linearGradient>
		<path class="st40" d="M417.1,289.7h-10.4l-2.9-1.7c-1.5-0.9-4.1-0.8-5.8,0.2l-2.9,1.7h-10.4v7h0c0,0.6,0.3,1.1,1,1.6l12.3,7.1
			c1.5,0.9,4.1,0.8,5.8-0.2l11.8-6.8c0.9-0.5,1.4-1.2,1.4-1.8h0V289.7z"/>
		<linearGradient id="SVGID_24_" gradientUnits="userSpaceOnUse" x1="381.6707" y1="301.1549" x2="421.0552" y2="301.1549">
			<stop  offset="0" style="stop-color:#D4088C"/>
			<stop  offset="0.2258" style="stop-color:#D4088C"/>
			<stop  offset="0.5108" style="stop-color:#6EE1F8"/>
			<stop  offset="0.7796" style="stop-color:#6EE8FC"/>
			<stop  offset="1" style="stop-color:#6EE8FC"/>
		</linearGradient>
		<path class="st41" d="M415.6,298l-11.8,6.8c-1.7,1-4.3,1.1-5.8,0.2l-12.3-7.1c-0.7-0.4-1-1-1-1.6h0v0.5h0c0,0.6,0.3,1.1,1,1.6
			l12.3,7.1c1.5,0.9,4.1,0.8,5.8-0.2l11.8-6.8c0.9-0.5,1.4-1.2,1.4-1.8h0v-0.5h0C417,296.8,416.5,297.5,415.6,298z"/>
		<path class="st6" d="M385.4,297.4L385.4,297.4l0-7h10.4l2.9-1.7c1.7-1,4.3-1.1,5.8-0.2l2.9,1.7h9.7v-0.5h-10.4l-2.9-1.7
			c-1.5-0.9-4.1-0.8-5.8,0.2l-2.9,1.7h-10.4v7h0c0,0.6,0.3,1.1,1,1.6l0.1,0.1C385.5,298.2,385.4,297.8,385.4,297.4z"/>
		
			<linearGradient id="SVGID_25_" gradientUnits="userSpaceOnUse" x1="727.1547" y1="770.2311" x2="745.7055" y2="754.1656" gradientTransform="matrix(0.866 0.5 -1 0.5774 525.0016 -518.4943)">
			<stop  offset="0" style="stop-color:#8D139B"/>
			<stop  offset="0.1651" style="stop-color:#851BA1"/>
			<stop  offset="0.4284" style="stop-color:#6E33B2"/>
			<stop  offset="0.7551" style="stop-color:#4958CD"/>
			<stop  offset="1" style="stop-color:#2979E4"/>
		</linearGradient>
		<path class="st42" d="M398,298.6l-12.3-7.1c-1.5-0.9-1.3-2.4,0.4-3.4l11.8-6.8c1.7-1,4.3-1.1,5.8-0.2l12.3,7.1
			c1.5,0.9,1.3,2.4-0.4,3.4l-11.8,6.8C402.1,299.3,399.5,299.4,398,298.6z"/>
		<path class="st2" d="M416,288.1l-12.3-7.1c-0.8-0.4-1.8-0.6-2.9-0.6c0.8,0,1.5,0.2,2.1,0.6l12.3,7.1c1.5,0.9,1.3,2.4-0.4,3.4
			l-11.8,6.8c-0.8,0.5-1.9,0.7-2.9,0.8c1.3,0.1,2.6-0.2,3.7-0.8l11.8-6.8C417.4,290.5,417.5,289,416,288.1z"/>
		<path class="st6" d="M398.9,298.6l-12.3-7.1c-1.5-0.9-1.3-2.4,0.4-3.4l11.8-6.8c0.8-0.5,1.8-0.7,2.8-0.8c-1.3-0.1-2.7,0.2-3.8,0.8
			l-11.8,6.8c-1.7,1-1.9,2.5-0.4,3.4l12.3,7.1c0.8,0.5,1.9,0.6,3,0.6C400.2,299.1,399.5,298.9,398.9,298.6z"/>
	</g>
	<path class="st2" d="M406.9,293.3c-3.3,1.9-8.7,1.9-12,0c-3.3-1.9-3.3-5,0-6.9c3.3-1.9,8.7-1.9,12,0
		C410.2,288.3,410.2,291.4,406.9,293.3z"/>
	<path class="st11" d="M394.9,288.2c3.3-1.9,8.7-1.9,12,0c1.3,0.7,2,1.6,2.3,2.6c0.5-1.5-0.3-3.2-2.3-4.4c-3.3-1.9-8.7-1.9-12,0
		c-2.1,1.2-2.8,2.8-2.3,4.4C392.9,289.8,393.6,288.9,394.9,288.2z"/>
</g>
<g>
	<g>
		<path class="st4" d="M350.5,340.4l-12.3-7.1c-1.5-0.9-1.3-2.4,0.4-3.4l11.8-6.8c1.7-1,4.3-1.1,5.8-0.2l12.3,7.1
			c1.5,0.9,1.3,2.4-0.4,3.4l-11.8,6.8C354.6,341.2,352,341.3,350.5,340.4z"/>
		<linearGradient id="SVGID_26_" gradientUnits="userSpaceOnUse" x1="333.885" y1="331.6476" x2="372.8244" y2="331.6476">
			<stop  offset="0" style="stop-color:#D4088C"/>
			<stop  offset="0.2258" style="stop-color:#D4088C"/>
			<stop  offset="0.5108" style="stop-color:#6EE1F8"/>
			<stop  offset="0.7796" style="stop-color:#6EE8FC"/>
			<stop  offset="1" style="stop-color:#6EE8FC"/>
		</linearGradient>
		<path class="st43" d="M352.9,343c-1.2,0-2.3-0.2-3.1-0.7l-14.6-8.4c-0.9-0.5-1.3-1.2-1.3-2c0-0.9,0.7-1.8,1.8-2.5l14-8.1
			c2.1-1.2,5.3-1.4,7.2-0.3l14.6,8.4c0.9,0.5,1.3,1.2,1.3,2c0,0.9-0.7,1.8-1.8,2.5l-14,8.1C355.8,342.7,354.3,343,352.9,343z
			 M353.8,320.9c-1.3,0-2.7,0.3-3.8,0.9l-14,8.1c-1,0.6-1.5,1.3-1.5,2c0,0.6,0.4,1.1,1,1.5l14.6,8.4c1.7,1,4.6,0.8,6.6-0.3l14-8.1
			c1-0.6,1.5-1.3,1.5-2c0-0.6-0.4-1.1-1-1.5l-14.6-8.4C355.9,321.1,354.9,320.9,353.8,320.9z"/>
		<linearGradient id="SVGID_27_" gradientUnits="userSpaceOnUse" x1="334.1356" y1="324.9433" x2="373.52" y2="324.9433">
			<stop  offset="0" style="stop-color:#A31FA9"/>
			<stop  offset="6.679147e-02" style="stop-color:#8B17A0"/>
			<stop  offset="0.1494" style="stop-color:#740F98"/>
			<stop  offset="0.2393" style="stop-color:#640A92"/>
			<stop  offset="0.3408" style="stop-color:#5B078F"/>
			<stop  offset="0.4785" style="stop-color:#58068E"/>
			<stop  offset="0.6264" style="stop-color:#4D22A3"/>
			<stop  offset="0.9436" style="stop-color:#3168DA"/>
			<stop  offset="1" style="stop-color:#2C75E4"/>
		</linearGradient>
		<path class="st44" d="M369.5,317.8h-10.4l-2.9-1.7c-1.5-0.9-4.1-0.8-5.8,0.2l-2.9,1.7h-10.4v7h0c0,0.6,0.3,1.1,1,1.6l12.3,7.1
			c1.5,0.9,4.1,0.8,5.8-0.2l11.8-6.8c0.9-0.5,1.4-1.2,1.4-1.8h0V317.8z"/>
		<linearGradient id="SVGID_28_" gradientUnits="userSpaceOnUse" x1="334.1356" y1="329.3092" x2="373.5201" y2="329.3092">
			<stop  offset="0" style="stop-color:#D4088C"/>
			<stop  offset="0.2258" style="stop-color:#D4088C"/>
			<stop  offset="0.5108" style="stop-color:#6EE1F8"/>
			<stop  offset="0.7796" style="stop-color:#6EE8FC"/>
			<stop  offset="1" style="stop-color:#6EE8FC"/>
		</linearGradient>
		<path class="st45" d="M368.1,326.1l-11.8,6.8c-1.7,1-4.3,1.1-5.8,0.2l-12.3-7.1c-0.7-0.4-1-1-1-1.6h0v0.5h0c0,0.6,0.3,1.1,1,1.6
			l12.3,7.1c1.5,0.9,4.1,0.8,5.8-0.2l11.8-6.8c0.9-0.5,1.4-1.2,1.4-1.8h0v-0.5h0C369.5,325,369,325.6,368.1,326.1z"/>
		<path class="st6" d="M337.9,325.5L337.9,325.5l0-7h10.4l2.9-1.7c1.7-1,4.3-1.1,5.8-0.2l2.9,1.7h9.7v-0.5h-10.4l-2.9-1.7
			c-1.5-0.9-4.1-0.8-5.8,0.2l-2.9,1.7h-10.4v7h0c0,0.6,0.3,1.1,1,1.6l0.1,0.1C338,326.3,337.8,326,337.9,325.5z"/>
		
			<linearGradient id="SVGID_29_" gradientUnits="userSpaceOnUse" x1="727.8622" y1="818.3789" x2="746.413" y2="802.3135" gradientTransform="matrix(0.866 0.5 -1 0.5774 525.0016 -518.4943)">
			<stop  offset="0" style="stop-color:#8D139B"/>
			<stop  offset="0.1651" style="stop-color:#851BA1"/>
			<stop  offset="0.4284" style="stop-color:#6E33B2"/>
			<stop  offset="0.7551" style="stop-color:#4958CD"/>
			<stop  offset="1" style="stop-color:#2979E4"/>
		</linearGradient>
		<path class="st46" d="M350.5,326.7l-12.3-7.1c-1.5-0.9-1.3-2.4,0.4-3.4l11.8-6.8c1.7-1,4.3-1.1,5.8-0.2l12.3,7.1
			c1.5,0.9,1.3,2.4-0.4,3.4l-11.8,6.8C354.6,327.5,352,327.6,350.5,326.7z"/>
		<path class="st2" d="M368.5,316.3l-12.3-7.1c-0.8-0.4-1.8-0.6-2.9-0.6c0.8,0,1.5,0.2,2.1,0.6l12.3,7.1c1.5,0.9,1.3,2.4-0.4,3.4
			l-11.8,6.8c-0.8,0.5-1.9,0.7-2.9,0.8c1.3,0.1,2.6-0.2,3.7-0.8l11.8-6.8C369.8,318.7,370,317.1,368.5,316.3z"/>
		<path class="st6" d="M351.4,326.7l-12.3-7.1c-1.5-0.9-1.3-2.4,0.4-3.4l11.8-6.8c0.8-0.5,1.8-0.7,2.8-0.8c-1.3-0.1-2.7,0.2-3.8,0.8
			l-11.8,6.8c-1.7,1-1.9,2.5-0.4,3.4l12.3,7.1c0.8,0.5,1.9,0.6,3,0.6C352.7,327.2,352,327,351.4,326.7z"/>
	</g>
	<path class="st2" d="M359.4,321.4c-3.3,1.9-8.7,1.9-12,0c-3.3-1.9-3.3-5,0-6.9c3.3-1.9,8.7-1.9,12,0
		C362.7,316.4,362.7,319.5,359.4,321.4z"/>
	<path class="st11" d="M347.4,316.3c3.3-1.9,8.7-1.9,12,0c1.3,0.7,2,1.6,2.3,2.6c0.5-1.5-0.3-3.2-2.3-4.4c-3.3-1.9-8.7-1.9-12,0
		c-2.1,1.2-2.8,2.8-2.3,4.4C345.3,317.9,346.1,317.1,347.4,316.3z"/>
</g>
</svg>
