<?xml version="1.0" encoding="utf-8"?>
<!-- Generator: Adobe Illustrator 22.0.0, SVG Export Plug-In . SVG Version: 6.00 Build 0)  -->
<svg version="1.1" id="Ñëîé_1" xmlns="http://www.w3.org/2000/svg" xmlns:xlink="http://www.w3.org/1999/xlink" x="0px" y="0px"
	 viewBox="0 0 600 450" style="enable-background:new 0 0 600 450;" xml:space="preserve">
<style type="text/css">
	.st0{fill:url(#SVGID_1_);}
	.st1{fill:#180D5B;}
	.st2{fill:url(#SVGID_2_);}
	.st3{fill:url(#SVGID_3_);}
	.st4{fill:url(#SVGID_4_);}
	.st5{fill:#FFFFFF;}
	.st6{fill:#24126A;}
	.st7{opacity:0.5;fill:url(#SVGID_5_);}
	.st8{fill:#5761D7;}
	.st9{fill:#BCBEFF;}
	.st10{opacity:0.11;}
	.st11{opacity:0.2;fill:#42E8E0;}
	.st12{opacity:0.6;fill:#42E8E0;}
	.st13{fill:#42E8E0;}
	.st14{opacity:0.3;}
	.st15{fill:url(#SVGID_8_);}
	.st16{fill:url(#SVGID_9_);}
	.st17{fill:url(#SVGID_10_);}
	.st18{fill:#393091;}
	.st19{fill:#453C9E;}
	.st20{fill:url(#SVGID_11_);}
	.st21{fill:url(#SVGID_12_);}
	.st22{fill:url(#SVGID_13_);}
	.st23{fill:url(#SVGID_14_);}
	.st24{fill:url(#SVGID_15_);}
	.st25{fill:url(#SVGID_16_);}
	.st26{fill:url(#SVGID_17_);}
	.st27{fill:url(#SVGID_18_);}
	.st28{fill:url(#SVGID_19_);}
	.st29{fill:url(#SVGID_20_);}
	.st30{fill:url(#SVGID_21_);}
	.st31{opacity:0.5;}
	.st32{opacity:0.8;fill:url(#SVGID_22_);}
	.st33{opacity:0.8;fill:url(#SVGID_23_);}
	.st34{opacity:0.8;fill:url(#SVGID_24_);}
	.st35{opacity:0.8;fill:url(#SVGID_25_);}
	.st36{opacity:0.5;fill:#42E8E0;}
	.st37{opacity:0.8;fill:#42E8E0;}
</style>
<radialGradient id="SVGID_1_" cx="300" cy="225" r="265.165" gradientUnits="userSpaceOnUse">
	<stop  offset="0" style="stop-color:#77B6F7"/>
	<stop  offset="7.955772e-02" style="stop-color:#70AFF6"/>
	<stop  offset="0.4524" style="stop-color:#5491F1"/>
	<stop  offset="0.7722" style="stop-color:#437FEE"/>
	<stop  offset="1" style="stop-color:#3D78ED"/>
</radialGradient>
<rect class="st0" width="600" height="450"/>
<g>
	<g>
		<g>
			<g>
				<path class="st1" d="M369.2,205l106.1,61.1c1.6,0.9,1.4,2.5-0.4,3.6L249.6,400.1c-1.8,1.1-4.6,1.2-6.2,0.3l-106.1-61.1
					c-1.6-0.9-1.4-2.5,0.4-3.6L363,205.3C364.8,204.2,367.6,204.1,369.2,205z"/>
				
					<linearGradient id="SVGID_2_" gradientUnits="userSpaceOnUse" x1="-2560.9817" y1="2799.9243" x2="-2151.0537" y2="2614.1262" gradientTransform="matrix(0.501 0.8654 0.8654 -0.501 -871.8076 3515.1538)">
					<stop  offset="0" style="stop-color:#5761D7"/>
					<stop  offset="0.1779" style="stop-color:#5C66D9"/>
					<stop  offset="0.3876" style="stop-color:#6A73DF"/>
					<stop  offset="0.6134" style="stop-color:#8289E8"/>
					<stop  offset="0.849" style="stop-color:#A3A7F5"/>
					<stop  offset="1" style="stop-color:#BCBEFF"/>
				</linearGradient>
				<path class="st2" d="M136.3,310.5l0,7.4l0,0c0,0.6,0.4,1.1,1.1,1.5l106.1,61.1c1.6,0.9,4.4,0.8,6.2-0.3l225.2-130.4
					c1-0.6,1.5-1.3,1.5-2l0,0l0-7.4l-11.7,6.5L369.2,192c-1.6-0.9-4.4-0.8-6.2,0.3L147.4,317.1c0.6-0.6,1-1.1,1-1.1
					C148.3,315.9,136.3,310.5,136.3,310.5z"/>
				
					<linearGradient id="SVGID_3_" gradientUnits="userSpaceOnUse" x1="2927.2373" y1="2555.313" x2="2927.2373" y2="2535.9502" gradientTransform="matrix(-0.501 -0.8654 0.8654 -0.501 -490.6457 4173.1196)">
					<stop  offset="0" style="stop-color:#C0BFF6"/>
					<stop  offset="0.2938" style="stop-color:#C5C4F7"/>
					<stop  offset="0.6399" style="stop-color:#D3D2F9"/>
					<stop  offset="1" style="stop-color:#E9E9FD"/>
				</linearGradient>
				<path class="st3" d="M248.9,380.7l0-30.2l-4.8-2.8l0,33.2C245.4,381.3,247.3,381.3,248.9,380.7z"/>
				
					<linearGradient id="SVGID_4_" gradientUnits="userSpaceOnUse" x1="3449.0637" y1="4103.8345" x2="3449.0637" y2="3871.8079" gradientTransform="matrix(-0.8666 -0.499 0.9993 -0.5785 -689.7527 4303.5864)">
					<stop  offset="0" style="stop-color:#C0BFF6"/>
					<stop  offset="0.2938" style="stop-color:#C5C4F7"/>
					<stop  offset="0.6399" style="stop-color:#D3D2F9"/>
					<stop  offset="1" style="stop-color:#E9E9FD"/>
				</linearGradient>
				<path class="st4" d="M369.2,177.9L475.3,239c1.6,0.9,1.4,2.5-0.4,3.6L249.6,372.9c-1.8,1.1-4.6,1.2-6.2,0.3l-106.1-61.1
					c-1.6-0.9-1.4-2.5,0.4-3.6L363,178.2C364.8,177.1,367.6,177,369.2,177.9z"/>
				<path class="st5" d="M243.4,373.2l-106.1-61.1c-0.9-0.5-1.2-1.3-1-2.1c0.1,0.4,0.5,0.9,1,1.2l106.1,61.1
					c1.6,0.9,4.4,0.8,6.2-0.3l225.2-130.4c0.7-0.4,1.2-1,1.4-1.5c0.2,0.8-0.3,1.7-1.5,2.4L249.6,372.9
					C247.8,374,245,374.1,243.4,373.2z"/>
				<polygon class="st6" points="351.6,184.8 463.4,249.2 261.1,366.3 149.2,301.9 				"/>
				<polygon class="st6" points="351.6,184.8 463.4,249.2 261.1,366.3 149.2,301.9 				"/>
				
					<radialGradient id="SVGID_5_" cx="303.4528" cy="6901.1772" r="150.8704" gradientTransform="matrix(1 0 0 0.5545 0 -3548.5503)" gradientUnits="userSpaceOnUse">
					<stop  offset="0" style="stop-color:#42E8E0"/>
					<stop  offset="0.1205" style="stop-color:#39BDC0"/>
					<stop  offset="0.2841" style="stop-color:#2F899A"/>
					<stop  offset="0.4453" style="stop-color:#265F7B"/>
					<stop  offset="0.6004" style="stop-color:#1F3D62"/>
					<stop  offset="0.7478" style="stop-color:#1A2550"/>
					<stop  offset="0.8845" style="stop-color:#171746"/>
					<stop  offset="1" style="stop-color:#161242"/>
				</radialGradient>
				<polygon class="st7" points="351.6,184.8 463.4,249.2 261.1,366.3 149.2,301.9 				"/>
				<path class="st8" d="M191.1,332.2l20.3,11.6c0.6,0.3,0.9,0.7,0.6,1.2c-0.1,0.2-0.3,0.3-0.5,0.4l0,0c-0.9,0.5-2.3,0.6-3.1,0.1
					l-20.4-11.8c-0.1,0-0.2-0.1-0.2-0.1c-0.2-0.6-0.1-0.8,0.7-1.3l0.3-0.1C189.6,331.8,190.3,331.8,191.1,332.2z"/>
				<path class="st9" d="M187.7,333.7c0.1-0.2,0.3-0.3,0.5-0.4c0.9-0.5,2.3-0.6,3.1-0.1l20.4,11.8c0.1,0,0.1,0.1,0.2,0.1
					c0.4-0.5,0.3-1-0.3-1.3l-20.4-11.8c-0.8-0.5-2.2-0.4-3.1,0.1C187.2,332.5,187.1,333.2,187.7,333.7z"/>
			</g>
		</g>
	</g>
	<g class="st10">
		<defs>
			<polygon id="SVGID_6_" class="st10" points="351.6,184.8 463.4,249.2 261.1,366.3 149.2,301.9 			"/>
		</defs>
		<clipPath id="SVGID_7_">
			<use xlink:href="#SVGID_6_"  style="overflow:visible;"/>
		</clipPath>
	</g>
</g>
<g>
	<g>
		<g>
			<path class="st11" d="M217.6,294.3l-7.3-4.2c-1.2-0.7-1.2-1.8,0-2.4l0,0c1.2-0.7,3-0.7,4.2,0l7.3,4.2c1.2,0.7,1.2,1.8,0,2.4l0,0
				C220.7,295,218.8,295,217.6,294.3z"/>
			<path class="st12" d="M232.8,303.1l-7.3-4.2c-1.2-0.7-1.2-1.8,0-2.4l0,0c1.2-0.7,3-0.7,4.2,0l7.3,4.2c1.2,0.7,1.2,1.8,0,2.4l0,0
				C235.9,303.7,234,303.7,232.8,303.1z"/>
			<path class="st13" d="M248,311.8l-7.3-4.2c-1.2-0.7-1.2-1.8,0-2.4l0,0c1.2-0.7,3-0.7,4.2,0l7.3,4.2c1.2,0.7,1.2,1.8,0,2.4l0,0
				C251,312.5,249.2,312.5,248,311.8z"/>
			<path class="st12" d="M263.2,320.6l-7.3-4.2c-1.2-0.7-1.2-1.8,0-2.4l0,0c1.2-0.7,3-0.7,4.2,0l7.3,4.2c1.2,0.7,1.2,1.8,0,2.4l0,0
				C266.2,321.3,264.3,321.3,263.2,320.6z"/>
			<path class="st11" d="M278.4,329.4l-7.3-4.2c-1.2-0.7-1.2-1.8,0-2.4l0,0c1.2-0.7,3-0.7,4.2,0l7.3,4.2c1.2,0.7,1.2,1.8,0,2.4l0,0
				C281.4,330,279.5,330,278.4,329.4z"/>
		</g>
	</g>
</g>
<g>
	<g>
		<ellipse class="st11" cx="303.1" cy="275.4" rx="61.8" ry="35.7"/>
		<ellipse class="st13" cx="303.1" cy="275.4" rx="35.1" ry="20.3"/>
	</g>
	<g class="st14">
		<path class="st13" d="M382.6,149.1c0.8,4.3,4,15.3,17.3,22.8c18.9,8.7,32,20.2,36.4,33.1c0.3,0.8,0.7,2,1.1,2.8
			c0.5-0.8,0.5-0.8,0.5-2.7v-21.5c0-12.7-0.7-15.4-1.6-19c-4.4-12.8-17.5-24.3-36.4-33.1C384.8,126.6,381.2,140.8,382.6,149.1
			L382.6,149.1z"/>
		<path class="st13" d="M243.8,123.2c20-5.8,43.8-9.1,69.1-8.9c3.3,0,6.6,0.1,9.9,0.3c22.2,2,30.1,25.5,16.7,35.8
			c-6.2,4.7-13.6,4.7-16.7,4.6c-3.3-0.1-6.6-0.2-9.9-0.3c-25.3-0.2-49,3.1-69.1,8.9c-20.2,4.9-21.4-15.6-14.4-28.2
			C231.8,131.2,236.2,125.6,243.8,123.2L243.8,123.2z"/>
		<path class="st13" d="M183.3,214.6c0.6-6.4,1-11.5,7.5-20.3c13.7-20.3,11-43.9,3.4-42.8c-1.2,0.2-2.5,1.5-3.4,2.4
			c-4.6,6-7.2,12.5-7.5,19.2c0,0.4,0,0.7,0,1.1V214.6L183.3,214.6z"/>
	</g>
	<g>
		
			<rect x="351.4" y="218.9" transform="matrix(0.927 -0.3752 0.3752 0.927 -63.8567 150.1982)" class="st13" width="4.7" height="40.3"/>
		<g>
			<g>
				<g>
					
						<radialGradient id="SVGID_8_" cx="-92.2543" cy="-177.4797" r="84.6875" gradientTransform="matrix(0.981 0.1942 -0.1942 0.981 391.4709 347.2711)" gradientUnits="userSpaceOnUse">
						<stop  offset="0" style="stop-color:#C0BFF6"/>
						<stop  offset="1" style="stop-color:#393091"/>
					</radialGradient>
					<circle class="st15" cx="265.3" cy="202.1" r="14.7"/>
				</g>
			</g>
			<g>
				<g>
					
						<radialGradient id="SVGID_9_" cx="909.5923" cy="320.3133" r="83.6647" gradientTransform="matrix(0.7781 0 0 1.0592 -382.2604 -123.1801)" gradientUnits="userSpaceOnUse">
						<stop  offset="0" style="stop-color:#C0BFF6"/>
						<stop  offset="1" style="stop-color:#393091"/>
					</radialGradient>
					<path class="st16" d="M341,223.8c0,28.5-17,51.6-37.9,51.6c-20.9,0-37.9-23.1-37.9-51.6c0-28.5,17-37,37.9-37
						C324.1,186.8,341,195.3,341,223.8z"/>
				</g>
			</g>
			<g>
				<g>
					
						<linearGradient id="SVGID_10_" gradientUnits="userSpaceOnUse" x1="880.868" y1="376.2938" x2="880.868" y2="292.6638" gradientTransform="matrix(0.7781 0 0 1.0592 -382.2604 -123.1801)">
						<stop  offset="0" style="stop-color:#42E8E0"/>
						<stop  offset="4.674554e-03" style="stop-color:#42E6DF"/>
						<stop  offset="0.1358" style="stop-color:#40B6CB"/>
						<stop  offset="0.2707" style="stop-color:#3E8DB9"/>
						<stop  offset="0.4074" style="stop-color:#3C6BAA"/>
						<stop  offset="0.5467" style="stop-color:#3B519F"/>
						<stop  offset="0.6893" style="stop-color:#3A3F97"/>
						<stop  offset="0.8375" style="stop-color:#393493"/>
						<stop  offset="1" style="stop-color:#393091"/>
					</linearGradient>
					<path class="st17" d="M341,223.8c0,28.5-17,51.6-37.9,51.6c-20.9,0-37.9-23.1-37.9-51.6c0-28.5,17-37,37.9-37
						C324.1,186.8,341,195.3,341,223.8z"/>
				</g>
			</g>
			<ellipse class="st18" cx="303.1" cy="202.1" rx="25.9" ry="14.9"/>
			<path class="st19" d="M284.9,195.5c10.1-5.8,26.5-5.8,36.6,0c4.2,2.4,6.6,5.4,7.3,8.6c1-4.5-1.4-9.1-7.3-12.5
				c-10.1-5.8-26.5-5.8-36.6,0c-5.9,3.4-8.4,8.1-7.3,12.5C278.2,201,280.7,198,284.9,195.5z"/>
			<radialGradient id="SVGID_11_" cx="265.0023" cy="106.5253" r="45.8436" gradientUnits="userSpaceOnUse">
				<stop  offset="0" style="stop-color:#C0BFF6"/>
				<stop  offset="1" style="stop-color:#393091"/>
			</radialGradient>
			<path class="st20" d="M273.3,166.7l4.7-8.1c2.8-2.9,4.9-6.6,6.1-10.5l4.7-8.2l-6.8-3.9c-0.2-0.1-0.4-0.3-0.7-0.4l0,0l0,0
				c-1.9-0.9-4.5-0.7-7.3,1c-6,3.5-10.9,11.9-10.9,18.9c0,3.5,1.2,5.9,3.2,7.1v0l0,0c0,0,0,0,0,0L273.3,166.7z"/>
			<ellipse transform="matrix(0.5 -0.866 0.866 0.5 7.7416 319.9463)" class="st9" cx="281" cy="153.3" rx="15.4" ry="8.9"/>
			<g>
				<g>
					<radialGradient id="SVGID_12_" cx="328.7561" cy="160.7714" r="65.2991" gradientUnits="userSpaceOnUse">
						<stop  offset="0" style="stop-color:#C0BFF6"/>
						<stop  offset="1" style="stop-color:#393091"/>
					</radialGradient>
					<circle class="st21" cx="304.6" cy="166.5" r="38.6"/>
				</g>
			</g>
			<g>
				<g>
					<linearGradient id="SVGID_13_" gradientUnits="userSpaceOnUse" x1="299.2679" y1="204.758" x2="310.023" y2="128.2319">
						<stop  offset="0" style="stop-color:#42E8E0"/>
						<stop  offset="4.674554e-03" style="stop-color:#42E6DF"/>
						<stop  offset="0.1358" style="stop-color:#40B6CB"/>
						<stop  offset="0.2707" style="stop-color:#3E8DB9"/>
						<stop  offset="0.4074" style="stop-color:#3C6BAA"/>
						<stop  offset="0.5467" style="stop-color:#3B519F"/>
						<stop  offset="0.6893" style="stop-color:#3A3F97"/>
						<stop  offset="0.8375" style="stop-color:#393493"/>
						<stop  offset="1" style="stop-color:#393091"/>
					</linearGradient>
					<circle class="st22" cx="304.6" cy="166.5" r="38.6"/>
				</g>
			</g>
			<radialGradient id="SVGID_14_" cx="328.2334" cy="160.0767" r="31.011" gradientUnits="userSpaceOnUse">
				<stop  offset="0" style="stop-color:#C0BFF6"/>
				<stop  offset="1" style="stop-color:#393091"/>
			</radialGradient>
			<path class="st23" d="M326.3,192.6l4.7-8.1c2.8-2.9,4.9-6.6,6.1-10.5l4.7-8.2l-6.8-3.9c-0.2-0.1-0.4-0.3-0.7-0.4l0,0v0
				c-1.9-0.9-4.5-0.7-7.3,1c-6,3.5-10.9,11.9-10.9,18.9c0,3.5,1.2,5.9,3.2,7.1l0,0l0,0l0,0L326.3,192.6z"/>
			<linearGradient id="SVGID_15_" gradientUnits="userSpaceOnUse" x1="321.9897" y1="191.0665" x2="332.8869" y2="161.1268">
				<stop  offset="0" style="stop-color:#42E8E0"/>
				<stop  offset="4.674554e-03" style="stop-color:#42E6DF"/>
				<stop  offset="0.1358" style="stop-color:#40B6CB"/>
				<stop  offset="0.2707" style="stop-color:#3E8DB9"/>
				<stop  offset="0.4074" style="stop-color:#3C6BAA"/>
				<stop  offset="0.5467" style="stop-color:#3B519F"/>
				<stop  offset="0.6893" style="stop-color:#3A3F97"/>
				<stop  offset="0.8375" style="stop-color:#393493"/>
				<stop  offset="1" style="stop-color:#393091"/>
			</linearGradient>
			<path class="st24" d="M326.3,192.6l4.7-8.1c2.8-2.9,4.9-6.6,6.1-10.5l4.7-8.2l-6.8-3.9c-0.2-0.1-0.4-0.3-0.7-0.4l0,0v0
				c-1.9-0.9-4.5-0.7-7.3,1c-6,3.5-10.9,11.9-10.9,18.9c0,3.5,1.2,5.9,3.2,7.1l0,0l0,0l0,0L326.3,192.6z"/>
			<ellipse transform="matrix(0.5 -0.866 0.866 0.5 11.7316 378.799)" class="st9" cx="333.9" cy="179.2" rx="15.4" ry="8.9"/>
			<path class="st5" d="M323.5,185.6c0-7,4.9-15.4,10.9-18.9c2.1-1.2,4-1.7,5.7-1.4c-1.8-0.4-3.9,0-6.2,1.3
				c-6,3.5-10.9,11.9-10.9,18.9c0,4.5,2.1,7.3,5.2,7.7C325.4,192.6,323.5,189.9,323.5,185.6z"/>
			<path class="st18" d="M341.7,174.7c0,5-3.5,11-7.8,13.5c-4.3,2.5-7.8,0.5-7.8-4.5s3.5-11,7.8-13.5
				C338.2,167.8,341.7,169.8,341.7,174.7z"/>
			<path class="st19" d="M338.4,169.3c0.8,1,1.3,2.4,1.3,4.2c0,5-3.5,11-7.8,13.5c-1.7,1-3.2,1.2-4.5,0.9c1.4,1.6,3.8,1.9,6.5,0.3
				c4.3-2.5,7.8-8.5,7.8-13.5C341.7,171.7,340.4,169.8,338.4,169.3z"/>
			<g>
				<path class="st18" d="M292.6,184.8c-1,7.6-6.7,10-12.8,5.3c-6.1-4.7-10.2-14.6-9.2-22.2c1-7.6,6.7-10,12.8-5.3
					C289.4,167.3,293.6,177.2,292.6,184.8z"/>
				<path class="st13" d="M287.6,178.2c-0.4,2.8-2.4,3.6-4.7,1.9c-2.2-1.7-3.7-5.3-3.4-8.1c0.4-2.8,2.4-3.6,4.7-1.9
					C286.4,171.8,287.9,175.5,287.6,178.2z"/>
				<path class="st19" d="M282.7,189c-6.1-4.7-10.2-14.6-9.2-22.2c0.4-3.1,1.6-5.3,3.3-6.6c-3.2,0.3-5.6,3-6.2,7.7
					c-1,7.6,3.1,17.5,9.2,22.2c3.6,2.8,7.1,3,9.5,1.2C287.3,191.5,285,190.8,282.7,189z"/>
				<path class="st13" d="M280.3,189.9c-6.1-4.7-10.2-14.6-9.2-22.2c0.5-3.5,1.9-5.9,4-7c-2.3,1-4,3.5-4.5,7.3
					c-1,7.6,3.1,17.5,9.2,22.2c3.3,2.5,6.4,3,8.8,1.7C286.3,192.8,283.3,192.2,280.3,189.9z"/>
			</g>
			<g>
				<g>
					
						<radialGradient id="SVGID_16_" cx="-62.3305" cy="-126.7379" r="30.608" gradientTransform="matrix(0.981 0.1942 -0.1942 0.981 391.4709 347.2711)" gradientUnits="userSpaceOnUse">
						<stop  offset="0" style="stop-color:#C0BFF6"/>
						<stop  offset="1" style="stop-color:#393091"/>
					</radialGradient>
					<path class="st25" d="M360.6,223.3c-1.6,7.9-9.3,13.1-17.2,11.5c-7.9-1.6-13.1-9.3-11.5-17.2s9.3-13.1,17.2-11.5
						C357,207.6,362.2,215.3,360.6,223.3z"/>
				</g>
			</g>
			<g>
				<g>
					
						<linearGradient id="SVGID_17_" gradientUnits="userSpaceOnUse" x1="-78.9666" y1="-104.8929" x2="-59.0303" y2="-126.4217" gradientTransform="matrix(0.981 0.1942 -0.1942 0.981 391.4709 347.2711)">
						<stop  offset="0" style="stop-color:#42E8E0"/>
						<stop  offset="4.674554e-03" style="stop-color:#42E6DF"/>
						<stop  offset="0.1358" style="stop-color:#40B6CB"/>
						<stop  offset="0.2707" style="stop-color:#3E8DB9"/>
						<stop  offset="0.4074" style="stop-color:#3C6BAA"/>
						<stop  offset="0.5467" style="stop-color:#3B519F"/>
						<stop  offset="0.6893" style="stop-color:#3A3F97"/>
						<stop  offset="0.8375" style="stop-color:#393493"/>
						<stop  offset="1" style="stop-color:#393091"/>
					</linearGradient>
					<path class="st26" d="M360.6,223.3c-1.6,7.9-9.3,13.1-17.2,11.5c-7.9-1.6-13.1-9.3-11.5-17.2s9.3-13.1,17.2-11.5
						C357,207.6,362.2,215.3,360.6,223.3z"/>
				</g>
			</g>
		</g>
		
			<radialGradient id="SVGID_18_" cx="234.7453" cy="-1666.1421" r="28.3563" fx="234.788" fy="-1664.2971" gradientTransform="matrix(0.9112 0.1087 -0.1791 1.501 -138.8484 2732.7969)" gradientUnits="userSpaceOnUse">
			<stop  offset="0" style="stop-color:#C0BFF6"/>
			<stop  offset="1" style="stop-color:#393091"/>
		</radialGradient>
		<path class="st27" d="M369.6,269c-0.8,7-7,20.2-12.6,19.5c-5.6-0.7-8.4-14.9-7.6-21.9c0.8-7,6-12.1,11.6-11.4
			C366.6,255.9,370.5,262.1,369.6,269z"/>
		
			<linearGradient id="SVGID_19_" gradientUnits="userSpaceOnUse" x1="209.4903" y1="343.9695" x2="231.6368" y2="343.9695" gradientTransform="matrix(0.9112 0.1087 -0.136 1.1399 204.8732 -144.2021)">
			<stop  offset="0" style="stop-color:#42E8E0"/>
			<stop  offset="4.674554e-03" style="stop-color:#42E6DF"/>
			<stop  offset="0.1358" style="stop-color:#40B6CB"/>
			<stop  offset="0.2707" style="stop-color:#3E8DB9"/>
			<stop  offset="0.4074" style="stop-color:#3C6BAA"/>
			<stop  offset="0.5467" style="stop-color:#3B519F"/>
			<stop  offset="0.6893" style="stop-color:#3A3F97"/>
			<stop  offset="0.8375" style="stop-color:#393493"/>
			<stop  offset="1" style="stop-color:#393091"/>
		</linearGradient>
		<path class="st28" d="M369.6,269c-0.8,7-7,20.2-12.6,19.5c-5.6-0.7-8.4-14.9-7.6-21.9c0.8-7,6-12.1,11.6-11.4
			C366.6,255.9,370.5,262.1,369.6,269z"/>
		<path class="st13" d="M226.4,224.2c-0.9,0-1.7-0.5-2.1-1.3c-0.6-1.2-0.2-2.6,1-3.2l30.3-15.9c1.2-0.6,2.6-0.2,3.2,1
			c0.6,1.2,0.2,2.6-1,3.2l-30.3,15.9C227.2,224.1,226.8,224.2,226.4,224.2z"/>
		
			<radialGradient id="SVGID_20_" cx="-2697.823" cy="-2057.645" r="28.3563" fx="-2697.7803" fy="-2055.8" gradientTransform="matrix(0.4411 0.8047 -1.3256 0.7266 -1292.5217 3881.5452)" gradientUnits="userSpaceOnUse">
			<stop  offset="0" style="stop-color:#C0BFF6"/>
			<stop  offset="1" style="stop-color:#393091"/>
		</radialGradient>
		<path class="st29" d="M227,233c-6.2,3.4-20.5,6-23.2,1.1c-2.7-4.9,7.3-15.6,13.4-18.9c6.2-3.4,13.3-2.1,16,2.8
			C235.9,222.9,233.1,229.6,227,233z"/>
		
			<linearGradient id="SVGID_21_" gradientUnits="userSpaceOnUse" x1="-2694.5688" y1="-172.5461" x2="-2707.843" y2="-154.8181" gradientTransform="matrix(0.4411 0.8047 -1.0067 0.5518 1247.8903 2489.1328)">
			<stop  offset="0" style="stop-color:#42E8E0"/>
			<stop  offset="4.674554e-03" style="stop-color:#42E6DF"/>
			<stop  offset="0.1358" style="stop-color:#40B6CB"/>
			<stop  offset="0.2707" style="stop-color:#3E8DB9"/>
			<stop  offset="0.4074" style="stop-color:#3C6BAA"/>
			<stop  offset="0.5467" style="stop-color:#3B519F"/>
			<stop  offset="0.6893" style="stop-color:#3A3F97"/>
			<stop  offset="0.8375" style="stop-color:#393493"/>
			<stop  offset="1" style="stop-color:#393091"/>
		</linearGradient>
		<path class="st30" d="M227,233c-6.2,3.4-20.5,6-23.2,1.1c-2.7-4.9,7.3-15.6,13.4-18.9c6.2-3.4,13.3-2.1,16,2.8
			C235.9,222.9,233.1,229.6,227,233z"/>
	</g>
	<g class="st31">
		<g>
			<path class="st13" d="M198.1,226.4c-0.9,7.4-4.8,11.8-8.8,6.3c-5.2-7.1-5.7-14-6-18.2v-40.4c0,6.3,2.1,12.4,6,18.2
				C197.8,206.4,198.8,220.4,198.1,226.4L198.1,226.4z"/>
			<path class="st13" d="M318.1,233.8c-3.2,0.1-6.4,0.1-9.7,0.1c-25.4-0.2-48.9-3.9-68.6-10.1c-19.6-5.2-20.8,15.3-14,28
				c4.9,9,11.5,11.5,14,12.4c19.6,6.2,43.2,9.9,68.6,10.1c3.2,0,6.5,0,9.7-0.1c23.1-1.7,29.1-23.8,18.3-34.2
				C333.4,237.1,327.8,233.7,318.1,233.8L318.1,233.8z"/>
			<path class="st13" d="M438,201.6c-0.1,17.5-1.1,20.7-2.4,24.7c-5.4,12.7-19.4,24-39,32.4c-17.2,5.1-21.9-12.8-14.9-26
				c4.8-9,12.1-12.9,14.9-14.4c19.6-8.4,33.6-19.7,39-32.4c0.4-0.8,1-2,1.5-2.7c0.1,0,0.3,0,0.4-0.1c0.3,0.9,0.5,1.3,0.5,6.1V201.6
				L438,201.6z"/>
		</g>
	</g>
</g>
<linearGradient id="SVGID_22_" gradientUnits="userSpaceOnUse" x1="453.2686" y1="188.2721" x2="453.2686" y2="113.5253">
	<stop  offset="0" style="stop-color:#161242"/>
	<stop  offset="0.1155" style="stop-color:#171746"/>
	<stop  offset="0.2522" style="stop-color:#1A2550"/>
	<stop  offset="0.3996" style="stop-color:#1F3D62"/>
	<stop  offset="0.5547" style="stop-color:#265F7B"/>
	<stop  offset="0.7159" style="stop-color:#2F899A"/>
	<stop  offset="0.8795" style="stop-color:#39BDC0"/>
	<stop  offset="1" style="stop-color:#42E8E0"/>
</linearGradient>
<path class="st32" d="M453.3,188.3L453.3,188.3c-1.1,0-2.1-0.9-2.1-2.1v-70.6c0-1.1,0.9-2.1,2.1-2.1l0,0c1.1,0,2.1,0.9,2.1,2.1v70.6
	C455.3,187.3,454.4,188.3,453.3,188.3z"/>
<linearGradient id="SVGID_23_" gradientUnits="userSpaceOnUse" x1="374.7686" y1="139.1886" x2="374.7686" y2="64.4418">
	<stop  offset="0" style="stop-color:#161242"/>
	<stop  offset="0.1155" style="stop-color:#171746"/>
	<stop  offset="0.2522" style="stop-color:#1A2550"/>
	<stop  offset="0.3996" style="stop-color:#1F3D62"/>
	<stop  offset="0.5547" style="stop-color:#265F7B"/>
	<stop  offset="0.7159" style="stop-color:#2F899A"/>
	<stop  offset="0.8795" style="stop-color:#39BDC0"/>
	<stop  offset="1" style="stop-color:#42E8E0"/>
</linearGradient>
<path class="st33" d="M374.8,139.2L374.8,139.2c-1.1,0-2.1-0.9-2.1-2.1V66.5c0-1.1,0.9-2.1,2.1-2.1l0,0c1.1,0,2.1,0.9,2.1,2.1v70.6
	C376.8,138.3,375.9,139.2,374.8,139.2z"/>
<linearGradient id="SVGID_24_" gradientUnits="userSpaceOnUse" x1="213.602" y1="202.5329" x2="213.602" y2="127.786">
	<stop  offset="0" style="stop-color:#161242"/>
	<stop  offset="0.1155" style="stop-color:#171746"/>
	<stop  offset="0.2522" style="stop-color:#1A2550"/>
	<stop  offset="0.3996" style="stop-color:#1F3D62"/>
	<stop  offset="0.5547" style="stop-color:#265F7B"/>
	<stop  offset="0.7159" style="stop-color:#2F899A"/>
	<stop  offset="0.8795" style="stop-color:#39BDC0"/>
	<stop  offset="1" style="stop-color:#42E8E0"/>
</linearGradient>
<path class="st34" d="M213.6,202.5L213.6,202.5c-1.1,0-2.1-0.9-2.1-2.1v-70.6c0-1.1,0.9-2.1,2.1-2.1l0,0c1.1,0,2.1,0.9,2.1,2.1v70.6
	C215.7,201.6,214.7,202.5,213.6,202.5z"/>
<linearGradient id="SVGID_25_" gradientUnits="userSpaceOnUse" x1="149.2177" y1="253.6446" x2="149.2177" y2="84.9632">
	<stop  offset="0" style="stop-color:#161242"/>
	<stop  offset="0.1155" style="stop-color:#171746"/>
	<stop  offset="0.2522" style="stop-color:#1A2550"/>
	<stop  offset="0.3996" style="stop-color:#1F3D62"/>
	<stop  offset="0.5547" style="stop-color:#265F7B"/>
	<stop  offset="0.7159" style="stop-color:#2F899A"/>
	<stop  offset="0.8795" style="stop-color:#39BDC0"/>
	<stop  offset="1" style="stop-color:#42E8E0"/>
</linearGradient>
<path class="st35" d="M149.2,253.6L149.2,253.6c-1.2,0-2.1-0.9-2.1-2.1V87.1c0-1.2,0.9-2.1,2.1-2.1l0,0c1.2,0,2.1,0.9,2.1,2.1v164.5
	C151.3,252.7,150.4,253.6,149.2,253.6z"/>
<path class="st13" d="M242.3,88.5c0,1.7-1.4,3.1-3.1,3.1c-1.7,0-3.1-1.4-3.1-3.1s1.4-3.1,3.1-3.1C240.9,85.4,242.3,86.8,242.3,88.5z
	"/>
<path class="st13" d="M361.9,54.5c1.7,1.7,1.7,4.4,0,6c-1.7,1.7-4.4,1.7-6,0c-1.7-1.7-1.7-4.4,0-6C357.5,52.8,360.2,52.8,361.9,54.5
	z"/>
<path class="st36" d="M358.8,156.4c0,1.1-0.9,2-2,2c-1.1,0-2-0.9-2-2c0-1.1,0.9-2,2-2C358,154.4,358.8,155.3,358.8,156.4z"/>
<path class="st36" d="M215.6,255.1c0,1.1-0.9,2-2,2c-1.1,0-2-0.9-2-2c0-1.1,0.9-2,2-2C214.7,253.2,215.6,254.1,215.6,255.1z"/>
<circle class="st37" cx="253" cy="177.3" r="1"/>
</svg>
