<svg version="1" id="Layer_1" xmlns="http://www.w3.org/2000/svg" viewBox="0 0 400 400">
  <style>
    .st3{fill:#bfff7b}.st4{fill:#378f00}.st5{fill:#66c30f}.st6{fill:#fff}
  </style>
  <radialGradient id="SVGID_1_" cx="200" cy="566" r="200" gradientTransform="translate(0 -366)" gradientUnits="userSpaceOnUse">
    <stop offset="0" stop-color="#0bff79"/>
    <stop offset="1" stop-color="#1aa856"/>
  </radialGradient>
  <path fill="url(#SVGID_1_)" d="M0 0h400v400H0z"/>
  <path class="st3" d="M200 335A136 136 0 1 0 64 199c0 75 61 136 136 136z"/>
  <path class="st4" d="M64 199l3 27 106 106a137 137 0 0 0 72-5L72 154c-5 14-8 29-8 45zm24-77l189 189c15-11 28-24 38-39L127 84c-15 10-29 23-39 38zm248 77c0-13-2-24-5-36l-96-96a136 136 0 0 0-75 2l170 170c4-13 6-26 6-40z"/>
  <path class="st5" d="M64 199l1 7c1-5 3-14 0-20a138 138 0 0 0-1 13zm15-52l-5 2c-4 10-7 20-8 30 8-5 13-32 13-32z"/>
  <path class="st4" d="M76 150l-5 7-1 3 6-10zm97 144l-3 3-8-2-1 2 8 2 1 9 3-1-2-8 4-3z"/>
  <path class="st5" d="M114 287s43 37 50 9c8-28-50-9-50-9z"/>
  <path class="st4" d="M161 297v-4l-41-5z"/>
  <path class="st5" d="M172 303c-20-2-1 35-1 35s21-34 1-35z"/>
  <path class="st4" d="M171 305v28l2-28z"/>
  <path class="st5" d="M173 296c14 21 36-28 36-28s-51 7-36 28z"/>
  <path class="st4" d="M176 295l28-24-30 22z"/>
  <path class="st5" d="M197 335a162 162 0 0 0 14-1c-4-1-9 0-14 1zm27-2l21-6 3-12s-19 7-24 18z"/>
  <path class="st4" d="M236 330l2-1 6-10-8 11z"/>
  <path class="st5" d="M194 63l-14 1c3 8 11 18 11 18s4-11 3-19z"/>
  <path class="st4" d="M188 63l-2 1 5 14-3-15zm112 94l-3 3-7-2-1 3 7 1 3 7h2l-2-8 3-2z"/>
  <path class="st5" d="M244 156s44 30 48 3-48-3-48-3z"/>
  <path class="st4" d="M289 160v-3l-39-1z"/>
  <path class="st5" d="M300 165c-19 0 2 32 2 32s16-33-2-32z"/>
  <path class="st4" d="M299 167l2 26v-26z"/>
  <path class="st5" d="M300 158c15 18 30-29 30-29s-46 11-30 29z"/>
  <path class="st4" d="M303 158l23-26-25 23z"/>
  <path class="st5" d="M310 211s13 11 23 15l3-20c-11-1-26 5-26 5z"/>
  <path class="st4" d="M335 217v-2l-20-4 20 6zm-57 58l-3 3-7-2-1 2 8 2 1 7h2l-1-7 3-3z"/>
  <path class="st5" d="M277 284c-25 5 9 40 9 40s17-44-9-40z"/>
  <path class="st4" d="M276 288l9 31-5-32z"/>
  <path class="st5" d="M242 270s30 25 30 7c0-19-30-7-30-7z"/>
  <path class="st4" d="M269 278l1-2-24-6z"/>
  <path class="st5" d="M278 277c18 15 34-25 34-25s-52 10-34 25z"/>
  <path class="st4" d="M281 276l27-20-29 18z"/>
  <path class="st5" d="M270 112s9-11 13-21l-15-10c-6 10 2 31 2 31z"/>
  <path class="st4" d="M277 87l-2-1-5 21 7-20zm-146 35l-4 2-8-6-1 2 7 6-1 9h3l1-9 5-2z"/>
  <path class="st5" d="M127 132c-32-6-17 56-17 56s49-49 17-56z"/>
  <path class="st4" d="M124 136l-11 45 15-44z"/>
  <path class="st5" d="M87 105s29 37 37 16-37-16-37-16z"/>
  <path class="st4" d="M120 122l2-3-30-12z"/>
  <path class="st5" d="M131 124c14 25 47-22 47-22s-61-3-47 22z"/>
  <path class="st4" d="M135 124l37-20-39 16z"/>
  <path class="st6" d="M204 225h-1v-2l1-1v3zm80 81h-2l1-1h1l1-1 1 1v1h-2zm-4 1h-3l-1-1 1-1h3l1 1-1 1zm8-2v-1l3-1 1 1-1 1h-3zm-14 2h-2l-1-1h4l-1 1zm20-3l-1-1 1-1 2-1 1 1v1l-3 1zm-25 3h-3l-1-1 1-1 3 1v1zm30-5l-1-1 1-1 2-1 1 1v1l-3 1zm-36 4h-3v-1s0-1 0 0h3l1 1h-1zm41-6v-2l2-1h1v1a61 61 0 0 1-3 2zm-46 5h-3l-1-1 1-1 3 1v1zm51-8l-1-1 1-1 2-1h1v1a61 61 0 0 1-3 2zm-57 7l-3-1v-1h1l2 1 1 1h-1zm62-10l-1-1v-1l3-1h1l-1 1a75 75 0 0 1-2 2zm-67 8h-1l-2-1v-1l3 1v1zm71-12v-1l2-2h1v1a76 76 0 0 1-3 2zm-76 10h-1l-2-2a1 1 0 0 1 0-1l3 2v1zm80-14v-1l2-2h1v1a77 77 0 0 1-3 2zm-85 11h-1l-2-1v-1l1-1 2 2a1 1 0 0 1 0 1zm89-15v-1l1-2h1v1a69 69 0 0 1-2 2zm-94 12l-3-2v-1h1l2 2a1 1 0 0 1 0 1zm98-16h-1v-1l2-3h1v1a89 89 0 0 1-2 3zm-102 13l-1-1-2-1v-1h1l2 1v2zm-5-4l-2-2v-1h1l2 2v1h-1zm-3-4l-1-1-2-2v-1h1l2 3v1zm-4-5h-1l-1-2a1 1 0 1 1 1-1l1 2a1 1 0 0 1 0 1zm-3-4l-1-1-1-2v-1h1l1 3a1 1 0 0 1 0 1zm-3-5l-1-1-1-2 1-1c1 0 0 0 0 0l2 3-1 1zm-2-5l-1-1-1-3h1l1 3v1zm-2-6h-1l-1-3a1 1 0 1 1 2 0v3zm-2-5v-1l-1-2 1-1 1 3-1 1zm-1-6l-1-3 1-1 1 1v3h-1zm0-5l-1-1v-4l1 1v4zm0-6h-1v-4h1v4zm0-6h-1v-3l1-1 1 1-1 3zm130 43h-1v-1l1-1 1-1v1l-1 2zM211 222h-1l1-2s0-1 0 0h1v2h-1zm59 58h-4l1-1 3-1v2zm3-1h-1v-1l3-1a1 1 0 0 1 0 2h-2zm-9 1h-3v-1h3l1 1h-1zm14-2h-1l1-1 2-1a1 1 0 0 1 1 1l-3 1zm-19 2h-3l-1-1h4v1zm24-4v-1l2-1a1 1 0 0 1 1 1l-3 1zm-30 4l-3-1a1 1 0 0 1 1-1h2l1 1-1 1zm35-6v-2l2-1a1 1 0 0 1 1 1 46 46 0 0 1-3 2zm-40 4h-1l-2-1a1 1 0 0 1 0-1l3 1v1zm45-7l-1-1v-1l3-1h1l-1 1a46 46 0 0 1-2 2zm-50 5h-1l-2-1-1-1h1l3 1a1 1 0 0 1 0 1zm54-9v-1l2-2h1v1a54 54 0 0 1-3 2zm-60 7l-2-2a1 1 0 0 1 0-1l3 2v1h-1zm64-11v-1l1-2h1v1a55 55 0 0 1-2 2zm-68 8h-1l-2-2v-1h1l2 1v2zm72-12l-1-1v-1l1-2a1 1 0 0 1 2 1 69 69 0 0 1-2 3zm-77 9v-1l-2-2v-1h1l2 2v1l-1 1zm-4-4v-1l-2-2v-1h1l2 2v1l-1 1zm-3-5h-1l-1-2a1 1 0 0 1 1-1l1 2v1zm-3-4l-1-1-1-2v-1h1l1 3a1 1 0 0 1 0 1zm-3-5l-1-1-1-2 1-1h1l1 3-1 1zm-2-6h-1v-4l1 1 1 3h-1zm-1-5l-1-1v-3h1v4zm-1-5l-1-1v-3l1-1v1l1 3-1 1zm0-6l-1-1v-3h2l-1 3v1zm97 26h-1v-1l1-1a1 1 0 1 1 1 0 78 78 0 0 1-1 2zM208 227l-1-1 1-2 1 1v1l-1 1zm70 67l-2 1-1-1 1-1h3v1h-1zm4 0l-1-1v-1h4v1l-3 1zm-9 1h-3v-1l3-1 1 1-1 1zm14-3h-1l1-1 2-1a1 1 0 0 1 1 1 67 67 0 0 1-3 1zm-19 3h-3l-1-1h4v1zm24-5v-1l3-1h1c1 1 0 1-1 1a62 62 0 0 1-3 1zm-30 5l-3-1h-1l1-1h3a1 1 0 0 1 0 2zm36-7l-1-1v-1l3-1h1l-1 1a70 70 0 0 1-2 2zm-42 6l-3-1v-1h1l2 1h1l-1 1zm46-9v-2l2-1h1v1a63 63 0 0 1-3 2zm-51 8h-1l-2-1a1 1 0 0 1 0-2l3 1v2zm56-12a1 1 0 0 1-1-1l3-2h1l-1 1a55 55 0 0 1-2 2zm-62 10l-3-2 1-1 3 1v1l-1 1zm66-14v-1l1-2h1l1 1a65 65 0 0 1-3 2zm-71 11l-3-1v-1h1l2 1 1 1h-1zm75-15h-1v-1l2-2h1v1a57 57 0 0 1-2 2zm-80 12l-3-1v-1h1l3 1v1h-1zm83-16v-2l1-2h1v1a71 71 0 0 1-2 3zm-87 13h-1l-2-2v-1h1l2 2v1zm-5-4l-2-2v-1h1l2 2v1h-1zm-4-4l-2-2v-1h1l2 2v1h-1zm-3-4h-1l-1-3a1 1 0 0 1 1-1l1 3v1zm-3-5h-1l-1-3a1 1 0 1 1 1 0l1 2v1zm-3-5h-1l-1-3 1-1h1l1 3-1 1zm-2-5l-1-1-1-2 1-1h1l1 3-1 1zm-2-6l-1-3 1-1v1l1 2v1h-1zm-1-5v-1l-1-3 1-1 1 1v3l-1 1zm0-6l-1-1v-3h1v4zm0-6h-1v-3a1 1 0 1 1 1 0v3zm113 32v-3a1 1 0 1 1 2 1 78 78 0 0 1-2 2zM214 233l-1-2 1-1 1 1v2h-1zm47 30h-3c0 1 0 0 0 0v-1h3a1 1 0 1 1 0 1zm3 0l-1-1 1-1h3v1l-3 1zm-8 1h-3l-1-1 1-1h3v2zm13-3h-1l1-1 2-1h1v1a42 42 0 0 1-3 1zm-19 2h-3v-1h3l1 1h-1zm24-4l-1-1 1-1 2-1h1v1a39 39 0 0 1-3 2zm-29 3h-3l-1-1 1-1 3 1v1zm34-6h-1v-1l3-2h1l-1 1a45 45 0 0 1-2 2zm-40 5l-3-1a1 1 0 1 1 1-2l3 1v1l-1 1zm44-9v-1l2-2h1v1a41 41 0 0 1-3 2zm-49 6h-1l-1-1a1 1 0 0 1 0-1l2 1h1v1h-1zm53-10h-1v-1l2-2h1v1a42 42 0 0 1-2 2zm-57 7h-1l-2-1v-1l1-1 2 2v1zm60-11l-1-1 1-1 1-2h1v1l-1 2v1h-1zm-64 8h-1l-2-2v-1h1l2 2v1zm-4-4l-1-1-1-2v-1h1l1 3v1zm-3-5h-1l-1-3v-1l1 1 1 2v1zm-3-5h-1l-1-3 1-1 1 1 1 2-1 1zm77 1h-1v-1l1-1 1-1v1l-1 2z"/>
  <path class="st6" d="M212 223h-1v-2h1l1 1-1 1zm48 26h-1l-1-1 1-1h3v1l-2 1zm-4 0h-2l-1-1h4l-1 1zm9-1l-1-1v-1l3-1 1 1-1 1-2 1zm-14 1h-3l-1-1h5l-1 1zm19-3l-1-1v-1l3-1a1 1 0 0 1 0 1 29 29 0 0 1-2 2zm-24 3h-1l-2-1-1-1h3l1 1v1zm28-6v-2l2-1h1v1a35 35 0 0 1-3 2zm-34 5l-3-1a1 1 0 0 1 1-1h2a1 1 0 0 1 0 2zm38-9v-1l2-2h1v1a38 38 0 0 1-3 2zm-43 7l-3-1a1 1 0 0 1 1-2l2 2s1 0 0 0v1zm-5-2l-1-1-2-1v-1h1l2 1v2zm-5-3v-1l-2-1v-1h1l2 1v1l-1 1zm-4-4l-2-2v-1h1l2 2v1h-1zm-3-4h-1l-2-3v-1l1 1 2 2v1zm-4-5l-2-3h2l1 2v1h-1zm68 7h-1v-1l1-1 1-1v1l-1 2zM233 194h-1l-1-1h-1l1-1h2v2zm22 0h-4l1-1 3-1 1 1-1 1zm3-1h-1l1-1 2-1 1 1v1h-3zm-9 2h-3v-2h3l1 1-1 1zm14-3h-1l1-1 3-1h1l-1 1a70 70 0 0 1-3 1zm-19 3h-3a1 1 0 1 1 0-2h3v2zm25-5a1 1 0 0 1-1-1l3-1h1l-1 1a86 86 0 0 1-2 1zm-31 4h-3a1 1 0 1 1 0-1h3l1 1h-1zm36-6h-1v-1l3-1h1v1a76 76 0 0 1-3 1zm5-2l-1-1v-1l3-1h1v1l-3 2zm5-3l-1-1 2-2h1v1a70 70 0 0 1-2 2zm4-4c0 1 0 0 0 0v-1l2-2 1 1v1a75 75 0 0 1-3 1zm4-3v-1l2-2h1v1a76 76 0 0 1-3 2zm4-4v-1l2-3h1v1a65 65 0 0 1-3 3zm4-5l-1-1 2-2h1v1a61 61 0 0 1-2 2zm3-4v-1l1-3h1v1a69 69 0 0 1-2 3zm3-5v-1l1-3h1v1a87 87 0 0 1-2 3zm3-5h-1v-1l1-3a1 1 0 1 1 1 1 86 86 0 0 1-1 3zm2-5h-1v-1l1-3a1 1 0 0 1 1 1l-1 2v1zm1-6v-3l1-1 1 1-1 3h-1zm2-5h-1v-4a1 1 0 1 1 2 0l-1 3v1zm0-6v-3l1-1v4h-1zm1-5l-1-1v-3l1-1v5zm0-6h-1v-4h1v4zm-1-6h-1v-4l1 1v2l1 1h-1zm-1-5l-1-1-1-2 1-1h1l1 3-1 1zm-2-6l-1-3a1 1 0 0 1 1 0l1 2v1h-1zm-1-5h-1l-1-3v-1h1l1 3v1zm-3-5h-1l-1-3a1 1 0 1 1 1-1l2 3-1 1zm-3-5l-2-3v-1l1 1 2 2v1h-1zm-3-5l-2-2v-1h1l2 2v1h-1zm-3-4h-1l-2-2v-1h1l2 2v1zm-4-4h-1l-2-2v-1h1l2 2v1zm-4-4h-1l-2-2h1v-1l2 2v1zm-5-3v-1l-2-1-1-1h1l3 1a1 1 0 0 1-1 2zm-4-4h-2v-1l1-1 1 1a1 1 0 0 1 0 1zM230 186h-2v-1l1-1 1 1h1l-1 1zm15 0h-1l-1-1 1-1h2l1 1c0 1 0 0 0 0l-2 1zm-4 0h-3v-1h4l-1 1zm8-1v-2h4l-1 1-2 1h-1zm-13 1h-3l-1-1h4v1zm19-3h-1v-1l3-1a1 1 0 1 1 1 1l-3 1zm5-2l-1-1v-1l3-1h1v1a60 60 0 0 1-3 2zm5-3h-1v-1l2-2h1v1a46 46 0 0 1-2 2zm4-3v-2l2-1h1v1a54 54 0 0 1-3 2zm4-4v-1l2-2h1v1a63 63 0 0 1-3 2zm4-4h-1v-1l2-2v-1h1v2a47 47 0 0 1-2 2zm3-5v-1l1-2a1 1 0 0 1 1 0 60 60 0 0 1-2 3zm3-5l-1-1 1-2 1-1 1 1-2 3zm2-5l-1-1 1-2a1 1 0 1 1 2 0l-1 3h-1zm2-5h-1v-4a1 1 0 0 1 2 0l-1 3v1zm1-6l-1-1v-2l1-1 1 1-1 3zm0-5l-1-1v-3l1-1 1 1v3l-1 1zm0-6l-1-1v-3l1 1 1 2-1 1zm-1-5l-1-1v-4l1 1 1 3-1 1zm-1-6h-1l-1-3v-1l1 1 1 2a1 1 0 0 1 0 1zm-2-5h-1l-1-3v-1h1l1 3v1zm-3-5l-2-3a1 1 0 0 1 1-1l2 3a1 1 0 0 1-1 1zm-3-5h-1l-1-2v-1h1l2 2a1 1 0 0 1-1 1zm-3-4h-1l-2-2v-1h1l2 2v1zm-4-4h-1l-2-2a1 1 0 0 1 1-1l2 2v1zm-5-3v-1l-3-1a1 1 0 0 1 1-1l3 1v1l-1 1zm-4-3l-1-1h-1a1 1 0 1 1 0-1h2a1 1 0 0 1 0 2zM234 189h-1l-1-1 1-1 1 1h1l-1 1zm17 0h-2a1 1 0 1 1-1-1l3-1 1 1-1 1zm3-1h-1l1-1 3-1 1 1-1 1h-3zm-8 1l-3 1-1-1 1-1h3v1zm14-2l-1-1 3-1h1v1l-3 1zm-20 3l-3-1h-1l1-1h3l1 1-1 1zm25-5h-1l1-1 2-1h1v1l-3 1zm5-2l-1-1 1-1 2-1h1v1a62 62 0 0 1-3 2zm5-3h-1l1-1 2-2h1v1a55 55 0 0 1-3 2zm5-3l-1-1v-1l2-2 1 1v1a77 77 0 0 1-2 2zm4-4h-1v-1l2-2h1v1a56 56 0 0 1-2 2zm4-4h-1v-1l2-3h1v1a57 57 0 0 1-2 3zm3-5v-1l1-2a1 1 0 0 1 2 1 71 71 0 0 1-3 2zm4-5h-1v-1l1-2a1 1 0 1 1 1 1 62 62 0 0 1-1 2zm2-5l-1-1 2-2v-1l1 1-1 3h-1zm2-5v-3l1-1 1 1-1 3h-1zm2-5l-1-1 1-3h1v3l-1 1zm1-6l-1-1 1-2a1 1 0 1 1 1 0v3h-1zm1-6h-1v-3l1-1v4zm0-5l-1-1v-3h1v4zm-1-6h-1v-3l1-1 1 2v1l-1 1zm-1-5l-1-1v-4l1 1 1 3-1 1zm-1-6h-1l-1-3v-1h1l1 3v1zm-2-5l-1-1-1-2v-1h1l1 3v1zm-3-5v-1l-2-2v-1h1l2 3-1 1zm-3-5v-1l-2-2v-1h1l2 3v1h-1zm-3-5h-1l-2-2v-1h1l2 2v1zm-4-4h-1l-2-2v-1h1l2 2v1zm-4-4h-1l-2-2v-1h1l2 2v1zm-5-3l-3-2v-1h1l3 2v1h-1zm-5-3l-1-1a1 1 0 1 1 0-1l2 1a1 1 0 0 1-1 1zM239 183a1 1 0 0 1 0-1l1-1 1 1v1h-2zm4-1v-1c-1 0 0 0 0 0l3-1a1 1 0 0 1 0 1 42 42 0 0 1-3 1zm5-2v-2l2-1h1v1a39 39 0 0 1-3 2zm5-3h-1l1-1 2-2h1v1a45 45 0 0 1-3 2zm5-3l-1-1v-1l2-2h1v1a37 37 0 0 1-2 3zm3-4v-2l1-2h1l1 1a42 42 0 0 1-3 3zm4-5h-1v-1l1-1v-1l1-1 1 1-1 1-1 2zm2-5v-1l1-2 1-1v1l-1 3h-1zm2-5v-3l1-1 1 1-1 3h-1zm2-5h-1v-4a1 1 0 1 1 2 0l-1 3v1zm0-6h-1v-3l1-1 1 1v3h-1zm0-5l-1-1v-3h1l1 3-1 1zm-1-6h-1v-4l1 1 1 2-1 1zm-1-5h-1l-1-3a1 1 0 1 1 1-1l1 3v1zm-3-5l-2-3 1-1 1 1 1 2v1h-1zm-2-5h-1l-2-2v-1h1l2 2a1 1 0 0 1 0 1zm-4-4h-1l-1-2-1-1h1l2 2v1zm-4-4h-1l-2-2v-1h1l2 2v1zm-4-3h-1a25 25 0 0 0-2-1l-1-1 1-1 2 1 1 1v1zm-5-3h-2a1 1 0 0 1 0-2l2 1v1z"/>
  <path class="st6" d="M230 186l-1-1v-1h3l-1 1a31 31 0 0 1-1 1zm4-2h-1v-1l2-2 1 1v1a39 39 0 0 1-2 1zm4-3v-1l2-2h1v1a41 41 0 0 1-3 2zm5-3h-1v-1l2-2h1v1a41 41 0 0 1-2 2zm3-4v-1l2-2h1v1a41 41 0 0 1-3 2zm4-4h-1v-1l2-3 1 1-2 2v1zm3-5h-1v-1l1-3a1 1 0 0 1 1 1l-1 2v1zm2-5h-1v-1l1-3a1 1 0 0 1 1 1l-1 2v1zm1-6h-1l1-3v-1l1 1v3h-1zm1-5h-1v-3l1-1v4zm0-6h-1v-3l1-1v4zm-1-5v-1a24 24 0 0 0-1-2l1-1h1a39 39 0 0 1 0 3l-1 1zm-1-5l-1-1v-3h1l1 3-1 1zm-2-5l-1-1-1-2a1 1 0 0 1 1-1l2 3a1 1 0 0 1-1 1zm-3-5l-2-2v-1h1l2 2v1h-1zm-3-4h-1l-2-2v-1h1l2 2v1zm-5-4l-1-1v-1h1l1 1v1h-1zM202 166v-2h1v2h-1zm1-4l-1-1 1-2v-1l1 1v3h-1zm1-5h-1v-4l1-1v5zm0-6l-1-1v-3h1v4zm-1-6h-1v-3l1-1 1 1v3h-1zm-1-5v-1l-1-2a1 1 0 0 1 1-1l1 3-1 1zm-1-6h-1v-4l1 1 1 2-1 1zm-2-5l-1-3v-1h1l1 3v1h-1zm-2-5v-1l-2-2 1-1h1l1 3-1 1zm-2-5l-1-1-1-2v-1h1l1 3v1zm-3-5h-1l-1-3v-1h1l1 3v1zm-4-5l-2-2v-1h1l2 2v1h-1zm-3-4h-1l-2-2v-1h1l2 2v1zm-4-4h-1l-2-2v-1h1l2 2v1zM75 115l-1-1v-1l2-2h1v1a85 85 0 0 0-2 3zm101-17v-1l-2-1v-1h1l2 1v1l-1 1zm-97 12l-1-1 1-2 1-1v1l-1 3zm93-16h-1l-2-1v-1l1-1 2 2v1zm-90 12l-1-1v-1l2-2h1v1a74 74 0 0 0-2 3zm85-15l-3-1v-1h1l2 1 1 1h-1zm-81 11l-1-1v-1l2-1a1 1 0 0 1 1 1 60 60 0 0 0-2 2zm76-13l-3-1v-1l1-1 2 2h1l-1 1zm-72 9h-1l1-1 2-2h1v1a72 72 0 0 0-3 2zm67-11h-1l-2-1-1-1h4v2zm-62 8l-1-1v-1l3-1h1l-1 1a58 58 0 0 0-2 2zm56-10l-3-1 1-1 2 1 1 1h-1zm-52 7v-2l3-1v1a58 58 0 0 0-3 2zm47-8h-3a1 1 0 1 1 0-2l3 1v1zm-41 5a1 1 0 0 1-1-1l3-1h1l-1 1a73 73 0 0 0-2 1zm35-6h-3v-1c0-1 0 0 0 0h3l1 1h-1zm-30 4h-1v-1l3-1h1v1a74 74 0 0 0-3 1zm25-4h-3l-1-1 1-1h3v2zm-20 2h-1l1-1 3-1v2a83 83 0 0 0-3 0zm14-2h-4l1-1h4l-1 1zm-8 1l-1-1 2-1h1l1 1-1 1h-2zm-48 34h-1v-1l1-1h1v1a76 76 0 0 0-1 1zM195 169l-1-1v-1a1 1 0 1 1 2 0l-1 1v1zm0-4l-1-1 1-3h1v3l-1 1zm0-6l-1-3 1-1 1 1v2l-1 1zm0-5l-1-1v-4l1 1v4zm-1-6h-1l-1-3 1-1 1 1v3zm-2-5l-1-1-1-2 1-1h1l1 3-1 1zm-2-5l-1-1-1-2v-1h1l1 3a1 1 0 0 1 0 1zm-3-5h-1l-1-3v-1h1l1 3v1zm-3-5h-1l-2-2v-1h1l2 2v1zm-4-4h-1l-2-2v-1h1l2 2v1zm-80 10l-1-1 2-3h1v1a65 65 0 0 0-2 3zm76-13l-1-1-2-1v-1h1l2 1v2zm-73 8v-1l1-2h1v1a52 52 0 0 0-2 2zm68-12l-3-1a1 1 0 1 1 1-1l2 1a1 1 0 0 1 0 1zm-64 8h-1v-1l2-2h1v1a51 51 0 0 0-2 2zm59-10l-3-2v-1h1l2 1 1 1-1 1zm-55 6h-1l1-1 2-2h1v1a44 44 0 0 0-3 2zm50-9h-3a1 1 0 1 1 1-2l2 1a1 1 0 0 1 0 1zm-45 6h-1v-1l3-2v1a57 57 0 0 0-2 2zm40-7h-1l-2-1-1-1h4v2zm-36 4v-1l3-2v2a47 47 0 0 0-3 1zm30-5h-3v-2h3l1 1-1 1zm-24 3l-1-1v-1l3-1 1 1-1 1a62 62 0 0 0-2 1zm19-4l-3 1-1-1 1-1h3v1zm-14 2h-1l1-1 2-1 1 1-3 1zm8-1h-3v-1c-1 0 0 0 0 0l3-1 1 1-1 1zm-41 27h-1v-1l1-1a1 1 0 0 1 1 1l-1 1zM198 165l-1-1v-2h1l1 1v1l-1 1zm0-5v-4l1 1v3h-1zm1-5h-1v-5l1 1v4zm-1-6l-1-1v-2l1-1 1 3-1 1zm-1-6l-1-3v-1l1 1 1 3h-1zm-1-5l-1-1-1-2 1-1h1l1 3-1 1zm-2-5l-1-1-1-2 1-1h1l1 3h-1v1zm-2-6h-1l-1-2v-1h1l1 2v1zm-3-5h-1l-1-2v-1h1l1 2v1zm-3-4h-1l-2-3v-1h1l2 3v1zm-4-4l-1-1-2-2v-1h1l2 2v2zm-4-4l-1-1-2-1v-1h1l2 1v2zm-92 14v-1l1-3a1 1 0 1 1 1 1 68 68 0 0 0-2 3zm87-18l-3-2a1 1 0 0 1 1-1l3 2a1 1 0 0 1-1 1zm-83 13h-1v-1l2-2h1v1a77 77 0 0 0-2 2zm78-16l-2-1a1 1 0 1 1 0-2l3 2v1h-1zm-75 12v-1l-1-1 2-2h1v1a53 53 0 0 0-2 3zm70-15l-3-1v-1h1l3 1v1h-1zm-66 11v-2l2-1h1v1a73 73 0 0 0-3 2zm61-13l-3-1v-1h1l2 1 1 1h-1zm-56 9h-1v-1l2-2a1 1 0 1 1 1 1 60 60 0 0 0-2 2zm51-10h-1l-2-1-1-1h4a1 1 0 0 1 0 2zm-47 7l-1-1 1-1 2-1h1v1a59 59 0 0 0-3 2zm41-9h-3a1 1 0 1 1 0-1h3l1 1h-1zm-36 6h-1l1-1 2-2 1 1v1a59 59 0 0 0-3 1zm31-6h-3l-1-1 1-1h2l1 1v1zm-26 4v-2l3-1 1 1-1 1a52 52 0 0 0-3 1zm20-4h-3l-1-1h1l3-1v2zm-14 2l-1-1 3-1h1v1l-3 1zm8-2l-3 1v-2h3l1 1h-1zm-46 32c0 1 0 0 0 0l-1-1 1-1a1 1 0 0 1 1 1v1h-1zM192 158h-1v-2h1c0-1 0 0 0 0l1 1-1 1zm-1-4h-1l-1-3a1 1 0 0 1 2 0l1 2-1 1zm-2-5h-1l-1-3v-1l1 1 1 2v1zm-3-5h-1l-1-2v-1h1l1 2a1 1 0 0 1 0 1zm-3-4h-1l-2-2v-1h1l2 2v1zm-68 8h-1v-1l1-1v-1h1l1 1-1 1-1 1zm64-12h-1l-2-2v-1h1l2 2v1zm-61 8h-1v-1l2-3a1 1 0 0 1 1 1l-2 2v1zm56-11l-2-1-1-1v-1h1a42 42 0 0 1 2 2l1 1h-1zm-53 6h-1v-1l2-2h1v1a43 43 0 0 0-2 2zm48-9l-3-1v-1h1l3 1v1h-1zm-44 6l-1-1 1-1 2-1h1v1a34 34 0 0 0-3 2zm39-8l-3-1 1-1 2 1 1 1h-1zm-34 4h-1v-1l3-1a1 1 0 1 1 0 1 37 37 0 0 0-2 1zm29-5h-3a1 1 0 1 1 0-2l3 1v1zm-24 3h-1v-1l3-1h1l-1 1a39 39 0 0 0-2 1zm18-4h-3v-1h3l1 1h-1zm-13 2h-1v-1l3-1h1l-1 1-2 1zm8-2l-3 1-1-1 1-1h3v1zm-35 26h-1v-1l1-1h1v1a70 70 0 0 0-1 1z"/>
  <path class="st6" d="M195 168l-1-1-1-1 1-1 1 1v2zm-2-4h-1l-1-3v-1l1 1 2 2-1 1zm-3-5l-2-2v-1h1l2 2a1 1 0 0 1-1 1zm-3-4h-1l-2-2v-1h1l2 2a1 1 0 0 1 0 1zm-4-4h-1l-2-2v-1h1l2 2v1zm-4-3h-1l-2-2v-1h1l2 1v2zm-53 5h-1v-1l2-2h1v1a51 51 0 0 0-2 2zm48-8h-1l-2-1a1 1 0 0 1 0-1l3 1v1zm-5-2h-1l-2-1-1-1h1l3 1v1zm-39 6h-1v-1l2-2h1v1a32 32 0 0 0-2 2zm33-7l-2-1-1-1h3l1 1-1 1zm-29 4l-1-1 1-1 2-1a1 1 0 0 1 1 1 32 32 0 0 0-3 2zm24-5h-3l-1-1 1-1 3 1h1l-1 1zm-19 2h-1l1-1 2-1h1v1l-3 1zm14-2h-3l-1-1 1-1h2l1 1v1zm-9 1v-2h4l-1 1h-1l-2 1zm-21 14v-1l1-1a1 1 0 0 1 1 1l-1 1h-1zM172 194h-2v-2l2 1v1zm-52 127h-1l-2-1v-1h1l2 1v1zm-5-3l-2-2-1-1h1l3 2h-1v1zm-4-4h-1l-2-2v-1h1l2 2v1zm-4-3l-1-1-2-2 1-1h1l1 2v2zm-4-5l-2-2v-1h1l2 2v1h-1zm-3-4l-1-1-1-2v-1h1l2 3-1 1zm-3-5h-1l-1-3v-1h1l2 3-1 1zm-2-5l-1-1-1-2v-1h1l1 3v1zm-3-5v-1l-1-3h1l1 3v1h-1zm-1-6h-1l-1-3a1 1 0 0 1 2 0v3zm-2-5v-1l-1-2v-1h2v3l-1 1zm0-6h-1v-4l1 1v3zm-1-5l-1-1v-3l1-1 1 1v3l-1 1zm0-6v-4h1c1 0 0 0 0 0v3l-1 1zm1-6l-1-1 1-2v-1l1 1-1 3zm1-5l-1-1 1-3a1 1 0 0 1 1 0l-1 3v1zm1-6a1 1 0 0 1 0-1v-2l1-1 1 1-1 3h-1zm2-5l-1-1 1-3h1l1 1-1 3h-1zm2-5v-1l1-3h1v1l-1 2-1 1zm3-5l-1-1 2-3h1v1a58 58 0 0 0-2 3zm3-5v-1l1-2a1 1 0 0 1 1 1 87 87 0 0 0-2 2zm4-4a1 1 0 0 1-1-1l2-3h1v1a126 126 0 0 0-2 3zm3-4v-2l2-2h1v1a61 61 0 0 0-3 3zm5-4l-1-1v-1l2-1h1v1a72 72 0 0 0-2 2zm4-4h-1v-1l3-2a1 1 0 0 1 1 1 86 86 0 0 0-3 2zm5-3h-1v-1l3-2 1 1h-1a66 66 0 0 0-2 2zm5-3h-1v-1l3-1h1l-1 1a83 83 0 0 0-2 1zm41-7h-3l-1-1h4v1zm-36 5l-1-1 3-1h1l-1 1a63 63 0 0 0-2 1zm30-5h-3l-1-1 1-1h3a1 1 0 0 1 0 2zm-25 3l-1-1h1l2-1h1v1a82 82 0 0 0-3 1zm19-3h-2l-1-1v-1h3l1 1-1 1zm-14 1c0 1 0 0 0 0v-1h4l-1 1h-3zm9-1h-4l1-1h3v1zm-27 131h-1l-1-1v-1h2v2zM174 202l-1-1h-1l1-1h1l1 1-1 1zm-35 94l-3-1v-1l1-1 2 2a1 1 0 0 1 0 1zm-5-3l-2-2v-1h1l2 2v1h-1zm-4-4l-2-2v-1h1l2 2v1h-1zm-3-4h-1l-2-2v-1h1l2 2v1zm-4-4l-1-1-1-2v-1h1l2 3-1 1zm-3-5l-2-3a1 1 0 0 1 2-1l1 3v1h-1zm-2-5l-1-1-1-2 1-1h1l1 3-1 1zm-2-6c0 1 0 0 0 0l-1-3 1-1v1l1 3h-1zm-1-5v-1l-1-2 1-1h1v3l-1 1zm0-6h-1v-3l1-1v4c1 0 0 0 0 0zm0-5l-1-1v-3h2v3l-1 1zm1-6h-1v-3l1-1 1 1-1 3zm1-5l-1-1 1-3a1 1 0 0 1 1 1v2l-1 1zm2-5h-1v-1l1-3h1l1 1-2 2v1zm2-5v-1l1-3a1 1 0 0 1 1 1l-1 2-1 1zm3-5v-2l1-2h1v1l-1 2v1h-1zm4-5h-1v-1l2-2h1v1a45 45 0 0 0-2 2zm4-4h-1v-1l2-2h1v1a51 51 0 0 0-2 2zm4-3a1 1 0 0 1-1-1l3-2h1v1a43 43 0 0 0-3 2zm5-3h-1v-1l3-2 1 1h-1a47 47 0 0 0-2 2zm5-3h-1v-1l3-1h1l-1 1a47 47 0 0 0-2 1zm24-4h-3v-1h4l-1 1zm-19 2h-1l1-1 2-1 1 1v1a50 50 0 0 0-3 0zm14-2h-4l1-1h3v1zm-9 1l-1-1h1l2-1h1l1 1-1 1h-3zm-13 96h-2v-1l1-1 1 1v1zM170 198h-2a1 1 0 1 1 1-1h1l1 1h-1zm-41 112l-3-2v-1h1l2 2 1 1h-1zm-5-3l-2-2v-1h1l2 2v1h-1zm-4-4h-1l-2-2v-1h1l2 2v1zm-4-4h-1l-2-2 1-1h1l1 2v1zm-4-4l-2-3a1 1 0 1 1 1-1l2 3v1h-1zm-3-5h-1l-1-3a1 1 0 0 1 1 0l2 2-1 1zm-3-5l-2-3 1-1 1 1 1 2v1h-1zm-2-5l-1-1-1-2 1-1h1l1 3-1 1zm-2-5v-1l-1-3v-1l1 1 1 3-1 1zm-1-6l-1-1v-3h1l1 2v1l-1 1zm-1-6l-1-3 1-1 1 1v3h-1zm0-5l-1-1v-3l1-1 1 1v3l-1 1zm1-6h-1v-4h1v4zm0-6s-1 0 0 0v-3l1-1 1 1-1 3h-1zm2-5a1 1 0 0 1-1-1l1-3a1 1 0 0 1 1 1l-1 2v1zm2-5l-1-1 1-3h1v1l-1 2v1zm2-6l-1-1 2-2h1v1a59 59 0 0 0-2 2zm3-5h-1v-1l2-2h1v1a56 56 0 0 0-2 2zm3-4v-1l1-3h1v1a54 54 0 0 0-2 3zm4-4a1 1 0 0 1-1-2l2-2h1v1a53 53 0 0 0-2 3zm4-4l-1-1v-1l3-1h1v1a73 73 0 0 0-3 2zm4-4v-1l2-2a1 1 0 0 1 1 1 73 73 0 0 0-3 2zm5-3v-1l2-2a1 1 0 1 1 1 2 49 49 0 0 0-3 1zm5-3v-1l3-1a1 1 0 0 1 0 1 59 59 0 0 0-3 1zm31-5h-3l-1-1 1-1 3 1v1zm-25 3h-1v-1l3-1h1l-1 1-2 1zm19-3h-3l-1-1 1-1h3l1 1-1 1zm-14 2a1 1 0 0 1 0-2h3c0-1 0 0 0 0v1l-3 1zm8-2h-3v-1h4l-1 1zm-21 114h-1l-1-1a1 1 0 0 1 1-1l1 1a1 1 0 0 1 0 1zM162 205l-1-1 1-1h2v1l-2 1zm-8 77h-1l-1-1-1-1a1 1 0 0 1 1-1 40 40 0 0 0 2 1v2zm-5-3l-3-2v-1h1l2 1 1 1-1 1zm-4-4h-1l-2-2v-1h1l2 2v1zm-4-4h-1l-1-2v-1h1l2 2-1 1zm-3-4l-1-1-1-2a1 1 0 1 1 1-1l1 3v1zm-3-5v-1l-2-2 1-1h1l1 3-1 1zm-2-5v-1l-1-3h1l1 3-1 1zm-1-6h-1v-3l1-1v1l1 2-1 1zm0-5l-1-1v-3h1c1 0 0 0 0 0v4zm0-6l-1-1v-2l1-1 1 1v3h-1zm1-5l-1-1 1-3h1v1l-1 2v1zm2-5l-1-1 1-3h1v1l-1 2v1zm2-5l-1-1v-1h1l1-2a1 1 0 0 1 1 1l-1 1-1 1v1zm3-5h-1v-1l2-2 1-1v1a51 51 0 0 0-2 3zm3-4v-2l2-1h1v1a35 35 0 0 0-3 2zm5-4h-1v-1l2-2h1v1a47 47 0 0 0-2 2zm4-3a1 1 0 0 1 0-1l2-2h1v1a37 37 0 0 0-3 2zm5-3h-1l1-1 2-1h1v1a46 46 0 0 0-3 1zm1 77h-2v-1h2v1z"/>
  <path class="st6" d="M172 202h-1l1-1 1-1 1 1-1 1a38 38 0 0 0-1 0zm-14 68l-2-2v-1h1l2 2v1h-1zm-4-3v-1l-2-2v-1h1l2 2v1l-1 1zm-3-5h-1l-1-3a1 1 0 0 1 1 0l2 2-1 1zm-2-5h-1l-1-3v-1l1 1 1 2v1zm-2-5l-1-1a39 39 0 0 1 0-2v-1l1 1a24 24 0 0 0 1 2l-1 1zm-1-5l-1-1v-3l1-1 1 1v3l-1 1zm0-6l-1-1 1-2a1 1 0 1 1 1 0v2l-1 1zm1-5h-1v-4a1 1 0 0 1 2 0l-1 3v1zm1-6h-1v-1l1-2 1-1v1l-1 3zm1-5v-1l1-3a1 1 0 0 1 1 1l-1 3h-1zm3-5h-1v-1l1-2 1-1 1 1-2 3zm3-5h-1v-1l2-2h1v1a43 43 0 0 0-2 2zm3-4v-1l2-2h1v1a43 43 0 0 0-3 2zm4-3v-2l2-1h1v1a43 43 0 0 0-3 2zm5-3a1 1 0 0 1 0-2l2-1h1v1a34 34 0 0 0-3 2zm-5 68h-1l-1-1v-1h1l1 1v1z"/>
  <path class="st3" d="M204 169l-10 1 3 19-18 3 1 9 19-3 3 19 9-2-3-18 19-3-2-10-18 3z"/>
  <path class="st5" d="M207 184l-11 2v2h-2l2 11h2v2l11-2v-2h2l-2-11h-2z"/>
  <path class="st6" d="M227 194l12 3-3-20-11 7z"/>
  <path transform="rotate(-9 239 187)" class="st5" d="M237 176h2v21h-2z"/>
  <path class="st6" d="M194 170l10-1 3-13-20 3z"/>
  <path transform="rotate(-9 197 157)" class="st5" d="M186 156h21v2h-21z"/>
  <path class="st6" d="M202 217l-4 12 20-3-7-11z"/>
  <path transform="rotate(-9 208 229)" class="st5" d="M198 227h21v2h-21z"/>
  <path class="st6" d="M169 208l11-7-1-9-13-4z"/>
  <path transform="rotate(-9 167 198)" class="st5" d="M166 188h2v21h-2z"/>
</svg>
