<svg version="1" id="Layer_1" xmlns="http://www.w3.org/2000/svg" xmlns:xlink="http://www.w3.org/1999/xlink" viewBox="0 0 400 400">
  <style>
    .st1{fill:#c5ecff}.st2{fill:#34495e}.st3{fill:#3498db}.st4{fill:#2c3e50}.st5{fill:#486582}.st6{fill:#2ecc71}.st8{fill:#2980b9}.st9{fill:#bdc3c7}.st10{fill:#1d5a82}.st12{fill:#fff}.st14{fill:#40c9ff}.st15{fill:#b6eeff}.st16{fill:#14a8f2}.st19{fill:#f1c40f}.st23{fill:#e8e2c9}
  </style>
  <radialGradient id="SVGID_1_" cx="200" cy="200" r="200" gradientTransform="matrix(1 0 0 -1 0 400)" gradientUnits="userSpaceOnUse">
    <stop offset="0" stop-color="#11cdef"/>
    <stop offset="1" stop-color="#1171ef"/>
  </radialGradient>
  <path fill="url(#SVGID_1_)" d="M0 0h400v400H0z"/>
  <g>
    <path class="st1" d="M209 312H52c-3 0-6-3-6-5v-33c0-3 3-5 6-5h31a4 4 0 0 0 0-7H65c-3 0-6-3-6-6v-1c0-3 3-5 6-5h109c2 0 3-2 3-4v-7h2v7c0 3-3 6-5 6H65c-2 0-4 1-4 3v1c0 2 2 4 4 4h18a5 5 0 0 1 0 11H52c-2 0-4 1-4 3v33c0 2 2 3 4 3h157c2 0 3-1 3-3v-1c0-2-1-4-3-4h-19a5 5 0 0 1 0-10h43v1h-43a4 4 0 0 0 0 7h19c3 0 5 3 5 6v1c0 2-2 5-5 5zM348 312H243c-3 0-5-3-5-5v-2c0-3 2-5 5-5h90c2 0 3-2 3-4v-8c0-2-1-4-3-4h-12v-2h12c3 0 5 3 5 6v8c0 3-2 6-5 6h-90c-2 0-4 1-4 3v2c0 2 2 3 4 3h105c2 0 4-1 4-3v-53c0-2-2-4-4-4H231c-3 0-5-2-5-5v-7h1v7c0 2 2 3 4 3h117c3 0 6 3 6 6v53c0 2-3 5-6 5zM322 210h-56v-2h56c3 0 4-1 4-3v-32c0-3 3-5 5-5h13c2 0 4-2 4-4v-1c0-2-2-3-4-3h-28c-2 0-5-3-5-6v-40c0-2-2-4-4-4h-30c-3 0-5-2-5-5v-2c0-3 2-5 5-5h61c2 0 4-2 4-4v-1c0-2-2-3-4-3H60c-3 0-4 1-4 3v81c0 2 1 4 4 4h48c3 0 5 2 5 5v4c0 3-2 6-5 6H76c-2 0-4 1-4 3v2c0 2 2 4 4 4h44c3 0 4-2 4-4v-79c0-3 3-5 5-5h10c3 0 6 2 6 5v36h-2v-36c0-2-2-3-4-3h-10c-2 0-3 1-3 3v79c0 3-3 6-6 6H76c-3 0-5-3-5-6v-2c0-2 2-5 5-5h32c2 0 3-2 3-4v-4c0-2-1-4-3-4H60c-3 0-6-2-6-5V93c0-2 3-5 6-5h278c3 0 5 3 5 5v1c0 3-2 5-5 5h-61c-2 0-4 2-4 4v2c0 2 2 4 4 4h30c3 0 6 2 6 5v40c0 2 1 4 3 4h28c3 0 6 2 6 5v1c0 3-3 6-6 6h-13c-2 0-3 1-3 3v32c0 2-3 5-6 5z"/>
    <path class="st2" d="M272 241H136c-2 0-4-2-4-4v-83c0-2 2-4 4-4h136c2 0 3 2 3 4v83c0 2-1 4-3 4z"/>
    <path class="st3" d="M266 232H142l-2-1v-71l2-1h124l1 1v71l-1 1z"/>
    <path class="st4" d="M194 241v29h20v-29h-20zm10 19a5 5 0 1 1 0-10 5 5 0 0 1 0 10z"/>
    <path class="st2" d="M176 270h55v4h-55z"/>
    <path class="st5" d="M248 236a2 2 0 1 1-3 0 2 2 0 0 1 3 0zM254 236a2 2 0 1 1-3 0 2 2 0 0 1 3 0zM259 236a2 2 0 1 1-3 0 2 2 0 0 1 3 0zM265 236a2 2 0 1 1-3 0 2 2 0 0 1 3 0z"/>
    <path class="st6" d="M207 236a3 3 0 1 1-6 0 3 3 0 0 1 6 0z"/>
    <path d="M205 236a1 1 0 1 1-2 0 1 1 0 0 1 2 0z" fill="#66ffa7"/>
    <path class="st4" d="M86 296c-2 0-5-1-6-3-1-1-1-3 1-5 1-2 2-3 5-4 6-2 13-1 19 0h3c3-4 7-10 7-15v-6l1-1 1 7c-1 5-4 11-8 15h11v2l-12-1-2 3c-5 5-12 8-19 8h-1zm9-12l-8 1c-3 1-5 2-5 4l-1 4 6 2a29 29 0 0 0 20-10h-2l-10-1z"/>
    <path class="st3" d="M114 251h-1l-3 1c-2 1-6 1-10-10-5-12-2-14 0-15l3-1 1-1h-1s1-2-1-5l-2-5-1-1-3 2c-3 1-7 8 1 27 7 18 14 22 17 20l3-1 1-1h-1s1-1-1-5l-2-5z"/>
    <path class="st8" d="M116 259c-3 2-6 0-9-3a43 43 0 0 1-10-22c0-5 2-6 3-7l3-1 1-1h-1v-3l-2 2c-2 1-6 3-7 1v-3l2-6c-2 1-3 2-3 4l-1 5c0 6 2 12 5 18 7 18 14 22 17 20l3-1 1-1h-1v-3l-1 1z"/>
    <path class="st2" d="M101 227h-1l-4-11z"/>
    <path transform="rotate(-21 112 258)" class="st2" d="M112 251h1v12h-1z"/>
    <path class="st9" d="M130 262h1v4h-1z"/>
    <path class="st10" d="M134 268h-7v-4l1-1h5l1 1v4z"/>
    <path transform="rotate(-180 157 263)" class="st9" d="M157 262h1v4h-1z"/>
    <path class="st10" d="M154 268h6v-4l-1-1h-4l-1 1v4z"/>
    <path class="st3" d="M171 287h-55l10-19c1-2 4-3 8-3h20c3 0 7 1 7 3l10 19z"/>
    <path class="st8" d="M161 268c0-2-2-3-5-3 1 1 12 19 2 19h-41l-1 3h55l-10-19z"/>
    <path d="M137 270h-5l-1-1v-1l2-1h4l2 1-1 1-1 1zm9-3h-4l-2 1v1l2 1h4l1-1v-1l-1-1zm9 0h-5l-1 1v1l2 1h4c1 0 2 0 1-1v-1l-1-1zm-18 7h-5l-2-1 1-1 1-1h5l1 1v1l-1 1zm9-3h-5l-1 1v1l1 1h5l2-1v-1l-2-1zm9 0h-4l-2 1 1 1 1 1h5l1-1v-1l-2-1zm-19 7h-5l-2-1 1-1 1-1h5l2 1v1l-2 1zm10-3h-5l-1 1v1l1 1h5l2-1v-1l-2-1zm10 0h-5l-1 1v1l2 1h5l1-1v-1l-2-1zm-21 8h-5l-2-1 1-2 1-1h6l1 1v2l-2 1zm12-4h-6l-2 1v2l2 1h6l1-1v-2l-1-1zm10 0h-5l-2 1v2l2 1h6c1 0 2 0 1-1v-2l-2-1z" fill="#a1c5ff"/>
    <path class="st12" d="M137 269h-5-1v-1l2-1h4l2 1-1 1h-1zm9-2h-4l-2 1v1h7v-1l-1-1zm9 0h-5l-1 1v1h7v-1l-1-1zm-18 6h-5l-2-1 1-1 1-1h5l1 1v1l-1 1zm9-3h-5l-1 1v1l1 1h5l2-1v-1l-2-1zm9 0h-4l-2 1 1 1 1 1h5l1-1v-1l-2-1zm-19 8h-5l-2-1 1-2 1-1h5l2 1v2l-2 1zm10-4h-5l-1 1v2l1 1h5l2-1v-2l-2-1zm10 0h-5l-1 1v2l2 1h5l1-1v-2l-2-1zm-21 9h-5l-2-2 1-1 1-1h6l1 1v1l-2 2zm12-4h-6l-2 1v1l2 2h6l1-2v-1l-1-1zm10 0h-5l-2 1v1l2 2h6c1 0 2-1 1-2v-1l-2-1z"/>
    <path class="st10" d="M170 295h-52l-2-2v-6h55v6l-1 2z"/>
    <path class="st4" d="M126 296h-2l-2-1h6l-2 1zM162 296h2l2-1h-6l2 1z"/>
    <path class="st2" d="M317 272h-77v-45c0-1 1-3 3-3h71c2 0 3 2 3 3v45z"/>
    <path class="st3" d="M313 230h-69v39h69v-39z"/>
    <path class="st8" d="M282 240l-2 1 3 3v-1z"/>
    <path d="M280 227a1 1 0 1 1-2 0l1-1 1 1z" fill="#1f2b38"/>
    <circle class="st6" cx="281" cy="227" r="1"/>
    <path class="st14" d="M282 253v-1l2-1-1-4-2 1-2-2 1-3-3-2-1 2-3-1v-2h-4v2l-2 1-2-2-3 3 1 2-1 2-3-1-1 4 3 1a11 11 0 0 0 0 2l-3 1 1 4 3-1 1 2-1 2 3 2 2-1h2v3h4v-3h3l1 1 3-2-1-2 2-2 2 1 1-4-2-1v-1zm-11 8a8 8 0 1 1 0-16 8 8 0 0 1 0 16z"/>
    <path class="st15" d="M278 253a7 7 0 1 1-14 0 7 7 0 0 1 14 0z"/>
    <path class="st16" d="M277 253a6 6 0 1 1-11 0 6 6 0 0 1 11 0z"/>
    <path class="st14" d="M298 245l1-2-2-1a7 7 0 0 0 0-2l2-1-1-2-2 1-2-2 1-1-2-2-1 2-2-1v-1h-3v2h-2l-1-1-2 2 1 1-1 2h-1l-1 2 2 1a7 7 0 0 0 0 2l-1 1 1 2 1-1 2 2-1 1 2 2 1-2 2 1v1h3v-2l2-1 1 2 2-2-1-1 1-2h1zm-8 3a6 6 0 1 1 0-12 6 6 0 0 1 0 12z"/>
    <path class="st15" d="M292 242a2 2 0 1 1-5 0 2 2 0 0 1 5 0z"/>
    <path class="st9" d="M329 292H228l12-20h77z"/>
    <path class="st4" d="M251 276h-7l-1-1 1-1h9l-1 1-1 1zm11-1l1-1h-8-1v1l1 1h6l1-1zm11 0v-1h-8-1v1l1 1h7l1-1zm10 0v-1h-8-1v1l1 1h7l1-1zm10 0v-1h-8-1l1 1 1 1h6l1-1zm10 0v-1h-8s-1 0 0 0v1l1 1h7v-1zm11 0l-1-1h-8v1l1 1h7l1-1zM250 278h-8l1-1 1-1h7v2h-1zm12 0v-1l-1-1h-7l-1 1v1h9zm10 0l1-1-1-1h-7l-1 1-1 1h9zm11 0v-1l-1-1h-7l-1 1v1h9zm11 0v-1l-2-1h-6l-1 1v1h9zm11 0l-1-1-1-1h-7l-1 1v1h10zm10 0v-1l-2-1h-6l-1 1v1h9zM248 282h-7l-1-1 1-1 1-1h7l1 1v1l-2 1zm13-1v-1l-1-1h-7l-1 1-1 1 1 1h8l1-1zm11 0v-1l-1-1h-7l-1 1v1l1 1h7l1-1zm11 0v-1l-1-1h-7l-1 1v1l1 1h7l1-1zm12 0l-1-1-1-1h-7l-1 1v1l1 1h8l1-1zm11 0l-1-1-1-1h-7l-1 1v1l2 1h7l1-1zm11 0l-1-1-1-1h-7l-1 1v1l2 1h7l1-1zM317 282h-8l-1 1 1 1 1 1h8l1-1-1-1-1-1zM248 282h-7l-2 1-1 1 1 1h8l1-1 1-1-1-1zM305 282h-53l-1 1-1 1 1 1h55l1-1v-1l-2-1z"/>
    <path d="M297 292h-37l1-5 3-1h29l3 1 1 5z" fill="#95a5a6"/>
    <path fill="#7f8c8d" d="M228 292h102v4H228z"/>
    <path class="st19" d="M318 294a1 1 0 1 1-1 0 1 1 0 1 1 1 0zM321 294a1 1 0 1 1-1 0 1 1 0 1 1 1 0zM324 294a1 1 0 1 1-1 0 1 1 0 1 1 1 0z"/>
    <path class="st2" d="M204 111h33c4 0 7 3 7 6v20c0 4-3 7-7 7h-2l4 5c-3 0-7-2-9-5h-26c-4 0-7-3-7-7v-20c0-3 3-6 7-6z"/>
    <path d="M242 113l1 3v21c0 4-4 6-7 5h-34l-4-2c1 2 3 4 6 4h26c2 3 6 5 9 5l-4-5h2c4 0 7-3 7-7v-20l-2-4z" fill="#34495e"/>
    <path d="M201 113h38c2 0 4 2 4 4 0-4-3-6-6-6h-33c-2 0-4 1-5 3l2-1z" fill="#597da1"/>
    <g>
      <path class="st14" d="M223 126l-2 1-1-2 1-2-2-1-1 1h-2v-2h-3v2h-2l-1-1-2 1 1 2-2 2-1-1-1 3h1a7 7 0 0 0 0 2l-1 1 1 3 1-1 2 2-1 1 2 2 1-2 2 1v2h3v-2l2-1 1 2 2-2-1-1 1-2 2 1 1-3-2-1a7 7 0 0 0 0-2h2l-1-3zm-9 10a6 6 0 1 1 0-12 6 6 0 0 1 0 12z"/>
      <path class="st14" d="M214 125a5 5 0 1 0 0 10 5 5 0 0 0 0-10zM235 124v-1l-1-1v-1l1-1-1-2-1 1-1-1v-1l-1-1-1 1-2-1v-1h-2v2h-1l-1-1-1 2 1 1-1 1h-2v2h1v1l1 1h-2l1 2 1-1 1 2v1l1 1 1-1h2v1h2v-1l1-1 1 1 1-1v-1-2h2zm-7 2a4 4 0 1 1 0-8 4 4 0 0 1 0 8z"/>
      <circle class="st14" cx="228" cy="122" r="2"/>
    </g>
    <path d="M204 111c-4 0-7 3-7 6v19h13c4 0 7-3 7-6v-19h-13z" fill="#2c3e50"/>
    <path class="st23" d="M207 101h-33c-3 0-6 3-6 6v20c0 4 3 7 6 7h2l-4 5c3 0 7-2 9-5h26c4 0 7-3 7-7v-19c0-4-3-7-7-7z"/>
    <path class="st23" d="M213 104v23l-2 4-3 1h-29v1l-2 4-4 2c3 0 7-2 8-5h26c4 0 7-3 7-7v-19l-1-4z"/>
    <path d="M169 129v-21c0-3 1-4 3-5h37c2 0 3 0 4 2-1-3-3-4-6-4h-33c-3 0-6 3-6 7v19c0 3 1 5 4 6-2 0-3-2-3-4z" fill="#fff9de"/>
    <path class="st16" d="M175 110h17v3h-17z"/>
    <path class="st14" d="M175 115h17v2h-17zM175 118h17v2h-17zM175 120h17v2h-17zM175 123h17v2h-17z"/>
    <g>
      <path class="st14" d="M198 119h-3l-1-9h5l-1 9zm-4 4l1-2h3v3l-2 1-1-1-1-1z"/>
    </g>
    <g>
      <path class="st14" d="M202 119l1-2 1-1 1-1 1-1-1-1h-1l-3 1-2-3 6-1 3 1 1 2v2l-2 2-1 1-1 1h-3zm0 4v-2h4v2l-1 1-1 1-2-1v-1z"/>
    </g>
    <g>
      <defs>
        <path id="SVGID_2_" d="M229 179l-12-12h-25l-17 15v31l12 12h29l17-9v-22l-4-15zm-3 28h-44v-18h44v18z"/>
      </defs>
      <clipPath id="SVGID_3_">
        <use xlink:href="#SVGID_2_" overflow="visible"/>
      </clipPath>
      <path d="M230 194l-1-2v-4l-1-1-4-4v-3l-8-8h-2l-2-1v-1h-4v1l-2 2-1 1v45h1l2 2h6l4-3h5l5-5v-8l2-3v-8zm-1 8l-2 3v7l-4 5h-5l-4 3h-6l-2-1v-18h7l-1-1h-6v-7l3 2h4a1 1 0 0 0 2-1l-1-1-1 1h-4l-3-3v-11l4-4h2a1 1 0 0 0 2 0l-1-1h-4v1l-3 2v-4l2-3h4l1 2h3l7 7v3l5 5v5l1 1v8zm-14-15a1 1 0 0 1-2 0l-2-2v-4l-1-1a1 1 0 0 1 2 0v4l2 2 1 1zm9 10a1 1 0 0 1-2 0l-2-2v-6l-3-2a1 1 0 0 1 0-2l1 1 3 2v6l2 3h1zm-6 2v7l2 2h1a1 1 0 0 1 0 2l-1-1-3-2v-8a1 1 0 0 1 2 0h-1zm-2 16a1 1 0 0 1-2 0v-1l-2-2v-5l-3-2a1 1 0 0 1 0-2l1 1 3 3v5l2 2 1 1zm6 0a1 1 0 0 1-2 0l-3-4h-1a1 1 0 0 1 0-2 1 1 0 0 1 1 2l4 3 1 1zm-22-44v-1h-4v1l-2 1h-2l-7 8h-1v3l-4 4v5l-2 2v8l2 3v8l5 5h5l4 3h6l2-2h1v-45-1l-3-2zm0 49h-6l-3-3h-6l-4-5v-7l-2-3v-8l1-1v-5l5-5v-3l7-7h3l2-2h3l2 3v4l-3-2v-1h-3-1a1 1 0 0 0 0 2l1-1h3l3 4v11l-3 3h-4l-1-1a1 1 0 0 0 0 2h5l3-2v7h-6l-1 1h7v18l-2 1zm-9-13l-3 2a1 1 0 0 1-2 0l1-1h1l2-2v-7a1 1 0 0 1 1-1v9zm-5-10a1 1 0 0 1-2 0 1 1 0 0 1 1 0l2-3v-5-1l3-2a1 1 0 0 1 2 0l-1 1-3 2v6l-2 2zm7-10l1-1 3-2v-3l-1-1a1 1 0 0 1 2 0l-1 1v4l-2 2-1 1-1-1zm7 17l-1 1-3 2v5l-2 2v1a1 1 0 0 1-2 0l1-1 2-2v-5h1l2-3 1-1 1 1zm-8 7l-4 4a1 1 0 0 1-2 0l1-1 4-3v-1a1 1 0 0 1 2 0l-1 1z" clip-path="url(#SVGID_3_)" fill="#fff"/>
    </g>
    <g>
      <path class="st12" d="M190 198h-1v-2h-2l-1 2 1-5 1-1v1l2 5zm-2-5l-1 3h2l-1-3zM195 198h-1l-1-2-1-1v3h-1v-5-1h2v1h1c1 0 0 0 0 0a2 2 0 0 1 0 1 1 1 0 0 1 0 1h-1 1v1l1 1v1zm-1-4l-1-1h-1v2h1l1-1zM199 193h-2v5-5h-2v-1h4v1zM201 198h-1v-5-1c0-1 0 0 0 0l1 1v5zM205 193h-2v2h2v1h-2v2h-1c-1 0 0 0 0 0v-5-1h3v1zM207 198h-1v-5-1c0-1 0 0 0 0a1 1 0 0 1 1 0v6zM212 197l-1 1a3 3 0 0 1-1 0h-1l-1-1v-1-1-1-1a2 2 0 0 1 2-1 2 2 0 0 1 1 1 2 2 0 0 1 1 0v1l-1-1h-1-1v4h1a2 2 0 0 0 1 0h1zM213 198v-5-1c0-1 0 0 0 0v6zM219 198h-1v-2h-3v2h-1l2-5v-1h1v1l2 5zm-2-5l-1 3h1v-3zM223 198h-3v-5-1a1 1 0 0 1 0 1v4h3v1zM189 204v-3 3zM193 204h-1l-1-2v-1 3h-1v-3h1l1 2v0-2h1v3zM196 201h-1v3h-1v-3h-1 3zM198 204h-2v-3h2-1v1h1v1h-1v1h1zM201 204h-2v-3 3h2zM203 204h-2v-3h1v3h1zM204 204v-3 3zM208 201v1h-1v-1h-1v1h-1v1l1 1h1v-1h-1 2v1h-1-1-1v-1c0-1 0 0 0 0v-1-1h1a2 2 0 0 1 1 0h1zM210 204h-1-1v-3h2-1v1h1v1h-1v1h1zM214 204h-1l-1-2-1-1v3-3h1l1 2v0-2h1v3zM217 204h-1c-1 0 0 0 0 0h-1l-1-1v-1l1-1a2 2 0 0 1 1 0h1v1h-1a1 1 0 0 0 0-1h-1v3h2z"/>
      <path class="st12" d="M219 204h-1-1c-1 0 0 0 0 0v-3h2-1v1h1v1h-1v1h1z"/>
    </g>
  </g>
</svg>
