<?xml version="1.0" encoding="utf-8"?>
<!-- Generator: Adobe Illustrator 22.0.0, SVG Export Plug-In . SVG Version: 6.00 Build 0)  -->
<svg version="1.1" id="Layer_1" xmlns="http://www.w3.org/2000/svg" xmlns:xlink="http://www.w3.org/1999/xlink" x="0px" y="0px"
	 viewBox="0 0 6980 6980" style="enable-background:new 0 0 6980 6980;" xml:space="preserve">
<style type="text/css">
	.st0{fill:#FFD566;}
	.st1{fill:#EDA200;}
	.st2{fill:#FFBB00;}
	.st3{opacity:0.49;fill:#AEFDFF;}
	.st4{fill:#6B3C04;}
	.st5{fill:#E5A857;}
	.st6{fill:#2B71B6;}
	.st7{fill:#3A3A3A;}
	.st8{fill:#82B3DC;}
	.st9{fill:#8E8E8E;}
	.st10{fill:#FCCFB2;}
	.st11{fill:#FFFFFF;stroke:#000000;stroke-width:0.25;stroke-miterlimit:10;}
	.st12{fill:#F9CFAF;}
	.st13{fill:#AF3168;}
	.st14{fill:#E25E90;}
	.st15{fill:#FFFFFF;}
	.st16{fill:#634725;}
	.st17{opacity:0.92;fill:none;stroke:#FCCFB2;stroke-width:0.75;stroke-miterlimit:10;}
	.st18{fill:none;stroke:#B3B3B3;stroke-width:28;stroke-miterlimit:10;}
	.st19{fill:#333333;}
	.st20{fill:none;stroke:#FFFFFF;stroke-width:23;stroke-miterlimit:10;}
	.st21{fill:none;stroke:#1A1A1A;stroke-width:31;stroke-miterlimit:10;}
	.st22{fill:none;stroke:#0071BC;stroke-width:26;stroke-miterlimit:10;}
	.st23{fill:none;stroke:#1B1464;stroke-width:26;stroke-miterlimit:10;}
	.st24{fill:#4D4D4D;}
	.st25{fill:#BD322F;}
	.st26{fill:#E53935;}
	.st27{fill:#757575;}
	.st28{fill:#808080;}
	.st29{fill:#616161;}
	.st30{fill:#4C4C4C;}
</style>
<path class="st0" d="M0,3292.2c816-42.2,1087-42.2,1498,56.7c359.4,86.5,442.5,112.8,729,141c502,49.5,708.6-142.8,1209-76
	c292.3,39.1,535.7-37.1,865,76c484.2,166.3,334.3-47.9,845,10.2c520.1,59.2,651.2,139.5,1052,105.8c346.6-29.1,590.6-40.3,782-351.6
	c0,1241.9,0,2483.7,0,3725.6c-2326.7,0-4653.3,0-6980,0C0,5750.7,0,4521.5,0,3292.2z"/>
<polygon class="st1" points="1263,3250 938,3751 1263,4279 1076,4873 1316,4267 971,3751 "/>
<polygon class="st1" points="1631.8,6189.8 1085.2,5949.2 616.1,6354.6 -0.2,6265.1 636.4,6405 1090.5,5981.8 "/>
<polygon class="st1" points="4897,5366 4572,5867 4897,6395 4710,6989 4950,6383 4605,5867 "/>
<polygon class="st1" points="5475.8,3550.8 5000.1,3550.2 4954.3,4037.5 4525.6,4181.8 4996.5,4070.6 5022.6,3574.3 "/>
<polygon class="st1" points="5728.4,4406.3 5967.7,4953.5 6587.4,4972.9 6980.4,5456 6606.6,4922 5985.9,4925.9 "/>
<polygon class="st1" points="1197,6019 1539,5755 1872,5767 1857,5536 2127,5233 1887,5539 1893,5782 1539,5779 "/>
<polygon class="st1" points="4701.9,4865.3 4505.2,4480.6 4578.2,4155.5 4348.3,4127.8 4100.1,3806.7 4356.8,4098.9 4596.8,4137.6 
	4528.8,4485 "/>
<polygon class="st1" points="5974.9,5835.2 5592.4,6036.2 5266.5,5966.8 5241.4,6197 4923.1,6448.8 5212.4,6188.8 5248.4,5948.4 
	5596.6,6012.5 "/>
<polygon class="st1" points="0.3,4784.7 270.1,4400.2 291.3,4470.1 553.3,4079.7 296.1,4552.1 250.2,4468 "/>
<polygon class="st1" points="2999,5288 2873,5704 3155,6092 3014,6527 3436,6996 3077,6527 3203,6092 2915,5686 "/>
<polyline class="st1" points="3282,3386 3103,3687 3359,3758 3461,3865 3431,4115 3439,3867 3343,3763 3067,3699 "/>
<path class="st2" d="M0,6427c162.5,36.4,422.8,84.3,747,96c446.2,16.1,506.3-54.8,865-12c376,44.9,633-82,816,157s156.5-9.3,540-24
	c177.5-6.8,519.8-19.2,913,0c581.7,28.4,537.3,90.1,804,60c379.6-42.8,465.9-167.2,756-120c234.6,38.2,214.2,125.4,504,180
	c110.7,20.9,356.3,67.1,649,0c210.5-48.2,386-72,386-72c1.8,11-0.9,182.5,0,288c-2326.7,0-4653.3,0-6980,0C0,6795.7,0,6611.3,0,6427
	z"/>
<path class="st1" d="M5505.7,6597.2l0.3,382.8h369l-0.1-231.2C5671,6703,5713,6659,5505.7,6597.2z"/>
<path class="st1" d="M2555.5,6771.2V6980H2232l-5.3-447C2423,6576,2485,6786,2555.5,6771.2z"/>
<polygon class="st1" points="1632,3386 1662,3866 2391,4267 2824,4785 3725,4865 2873,4735 2439,4255 1707,3843 "/>
<path class="st3" d="M498.9,354.8c-327,30.5-199.7,167.6-189.5,208c6.5,25.7,60.7,52.5,300.4,41.6c137.3,56.6,233.4,49.4,295.8,32.3
	c74.1-20.2,101.9-54.6,175.6-50.8c95.4,4.9,129,66.8,184.8,46.2c49.5-18.2,85.4-89.5,69.3-147.9c-19.1-69.5-111-117.9-203.3-83.2
	c-85.8-114.2-155-122.8-198.7-134c-96.5-24.8-100.4,65.5-166.4,50.8C598.3,280.3,635.2,342.1,498.9,354.8z"/>
<path class="st3" d="M5852.9,293.9c-394.7,36.8-241.1,202.3-228.7,251c7.9,31,73.3,63.3,362.6,50.2c165.7,68.3,281.7,59.6,357,39
	c89.4-24.4,123-66,212-61.4c115.1,6,155.7,80.6,223.1,55.8c59.7-22,103-108.1,83.7-178.5c-23-83.8-134-142.4-245.4-100.4
	c-103.6-137.8-187.1-148.2-239.9-161.8c-116.4-30-121.2,79.1-200.8,61.4C5972.9,204,6017.5,278.6,5852.9,293.9z"/>
<path class="st3" d="M4121.7,242.7c-249.9,23.3-152.6,128.1-144.8,158.9c5,19.6,46.4,40.1,229.6,31.8
	c104.9,43.2,178.4,37.7,226,24.7c56.6-15.4,77.9-41.8,134.2-38.9c72.9,3.8,98.6,51,141.3,35.3c37.8-13.9,65.2-68.4,53-113
	c-14.6-53.1-84.8-90.1-155.4-63.6c-65.6-87.3-118.4-93.8-151.9-102.4c-73.7-19-76.8,50.1-127.2,38.9
	C4197.7,185.7,4225.9,232.9,4121.7,242.7z"/>
<path class="st3" d="M2600.7,874.7c-249.9,23.3-152.6,128.1-144.8,158.9c5,19.6,46.4,40.1,229.6,31.8
	c104.9,43.2,178.4,37.7,226,24.7c56.6-15.4,77.9-41.8,134.2-38.9c72.9,3.8,98.6,51,141.3,35.3c37.8-13.9,65.2-68.4,53-113
	c-14.6-53.1-84.8-90.1-155.4-63.6c-65.6-87.3-118.4-93.8-151.9-102.4c-73.7-19-76.8,50.1-127.2,38.9
	C2676.7,817.7,2704.9,864.9,2600.7,874.7z"/>
<path class="st3" d="M2100.3,132.1c-128.7,12-78.6,66-74.6,81.8c2.6,10.1,23.9,20.7,118.2,16.4c54,22.3,91.8,19.4,116.4,12.7
	c29.1-8,40.1-21.5,69.1-20c37.5,1.9,50.7,26.3,72.7,18.2c19.5-7.2,33.6-35.2,27.3-58.2c-7.5-27.3-43.7-46.4-80-32.7
	c-33.8-44.9-61-48.3-78.2-52.7c-38-9.8-39.5,25.8-65.5,20C2139.4,102.8,2154,127.1,2100.3,132.1z"/>
<path class="st3" d="M222.3,132.1c-128.7,12-78.6,66-74.6,81.8c2.6,10.1,23.9,20.7,118.2,16.4c54,22.3,91.8,19.4,116.4,12.7
	c29.1-8,40.1-21.5,69.1-20c37.5,1.9,50.7,26.3,72.7,18.2c19.5-7.2,33.6-35.2,27.3-58.2c-7.5-27.3-43.7-46.4-80-32.7
	c-33.8-44.9-61-48.3-78.2-52.7c-38-9.8-39.5,25.8-65.5,20C261.4,102.8,276,127.1,222.3,132.1z"/>
<path class="st4" d="M5876.3,3876c-56.5-4.5-103.7,25.7-150.8,34c-66.5,11.7-71.8-31.1-156.4-28.3c-76.9,2.5-126.6,39.6-128.1,36.3
	c-1.8-4,66.6-63.8,154.2-62.3c46,0.8,66.7,18,114.5,10.2c38.2-6.2,67.1-24,85-37.4c-2.5-131.8-0.3-238.8,2.3-314
	c1.6-45.2,2.3-52,9.1-219.9c5.1-126.8,6.3-164,6.8-210.8c0,0,1-91.2-2.3-190.4c-6.8-209.1-31.7-411.1-44.1-504.1
	c-22.3-19.3-47.6-39.4-76.1-59.5c-25.4-17.9-50-33.4-73.1-46.8c-23.5,7.2-52,14.2-84.6,18.7c-29,4-62.8,8.4-106.3,3
	c-24.4-3-51.8-6.7-83.7-22.5c-28.9-14.4-48.8-32.5-60.8-45.1c-1.5-4.4,0-9.3,3.8-11.9c3.9-2.7,9.2-2.3,12.8,0.9
	c7.2,9,18.3,20.6,34,31c14,9.3,25.4,13.4,38.7,18.3c7.7,2.8,17.5,6.3,18.7,4.3c1.3-2.2-8.8-8.4-19.1-20
	c-11.8-13.3-17.2-26.3-22.1-38.3c-3.2-7.8-8.9-23.1-11.5-43.4c-3.1-23.9,2.1-22.9,2.1-54.8c0-3.3-0.1-11.2,5.1-15.7
	c0.8-0.7,4-3.5,8.5-3c4.7,0.6,7.3,4.5,7.7,5.1c-2.8,18.7-3.2,34.7-3,46.8c0.3,11.2,0.6,24,4.3,40.4c2,8.9,4.3,19.5,10.6,32.3
	c8.5,17.3,19.2,28.2,26.8,35.7c7.2,7.2,18.1,16.7,33.2,25.5c25,2.8,57.3,4,94.4-0.9c27.6-3.6,51.4-9.7,71-16.2
	c-16.1-7.4-39-19.8-62.9-40c-17.7-14.9-33.2-28-45.5-49.7c-5.4-9.5-12.1-24.3-20.4-91.4c-3.5-28.1-5.5-51.7-6.8-68.9
	c-7.5-2.5-18-6.7-29.3-14c-29.9-19.4-43.3-46.6-48-57.8c-6.9-16.3-8.2-28.9-10.6-51.4c-3.1-28.8-1.1-52.3,0.9-66.7
	c4.4-32.8,9.3-25.1,12.3-52.3c0.7-6.6,1.5-17,8.5-20.8c3.8-2.1,9.4-2.2,14,0.4c5.5,3.2,7,8.8,7.2,9.8c-2.5,8-5.7,19-8.9,32.3
	c-3.5,14.4-5.7,23.1-7.2,34.9c-2.7,20.3-1.9,36-1.3,48c0.9,16.4,1.5,27.2,5.5,41.7c5.4,19.4,13.3,32.3,15.7,36.1
	c4.1,6.5,9.4,14.7,19.1,23c8.2,7,16.3,11.2,22.1,13.6c-0.1-27.9-0.3-55.8-0.4-83.7c1-0.9,6-5.3,13.6-5.1c8.6,0.3,13.7,6.3,14.5,7.2
	c-1.8,52.9-1,95.4,0,125c1.1,32.1,3.4,72,8.9,72.3c1.3,0.1,2.6-2.4,5.1-7.2c5.6-11,7.1-19.5,8.5-24.2c1.1-3.9,2.6-6.8,21.7-28.9
	c21-24.3,20.4-22,24.2-27.6c8.6-12.5,11.5-23.2,17-44.2c2.5-9.4,6.4-26.1,10.2-57.8c2-16.3,4.1-38.4,5.1-65
	c0.4-0.6,4.5-5.6,11.5-5.5c6.7,0.1,10.6,4.9,11.1,5.5c-0.2,26.9-2.4,49.4-4.7,66.3c-3.4,24.8-6.1,44.4-15.3,69.3
	c-6.6,17.8-11.6,31.4-23.4,46.8c-10.7,13.9-17.2,16.5-29.3,34c-9.7,14-15.1,26.2-17.4,31.9c-6.8,16.5-12.6,30.5-11.1,48.9
	c1.8,22.3,13.2,37.6,16.6,42.1c10.6,13.9,21.1,18.4,46.8,32.7c14,7.8,29.4,17.2,60.4,36.1c33.9,20.7,59,38.2,69.3,45.5
	c21.7,15.4,40.3,29.6,55.3,41.7c3-23.7,2.9-42.8,2.1-56.1c-1.1-18.4,1.9-37.1-1.3-55.3c-0.4-2.5-2-10.9,2.1-19.1
	c0.9-1.8,4.6-9.3,11.1-10.2c6.7-1,14.8,5.4,18.3,16.2c8.3,25,9.9,44.9,9.8,58.7c-0.2,21.2,2.4,30.3,7.7,48.5
	c1.5,5.4,3.5,11.3,7.2,11.9c7.1,1.2,15.6-17.7,17.4-21.7c7.8-17.3,6.9-27.2,11.1-60.8c3.3-26.7,4.8-27.7,6.8-49.7
	c1.5-16.3,2-29.9,2.1-39.5c-14.6-6.5-36.5-18.3-57.8-39.1c-27.3-26.6-39.7-54.3-50.2-77.8c-14.6-32.7-20.3-60.1-24.2-79.5
	c-5.5-27.4-7.3-49.9-8.5-66.3c-1.6-22.2-1.9-41.2-1.7-55.7c1-7.3,7-12.9,14-13.2c6.2-0.3,12.1,3.7,14.5,9.8
	c-0.4,12.7-0.3,22.9,0,29.8c0.7,18.9,2,17.9,1.3,26.8c-0.4,4.8-1.4,12.9,0,23.8c1,7.6,2,8.3,2.6,8.5c6.3,2.5,24.2-28.4,27.6-34.4
	c7.9-13.9,18.1-31.7,24.7-58.2c4.3-17.1,4.7-35.3,5.5-71c0.8-35.3,1.2-52.9-1.3-71.8c-2.3-17.7-7.3-43.4-19.6-73.5
	c-0.6-5.6,1.7-10.9,6-13.6c6.9-4.4,14.9,0.6,15.3,0.9c5.4,3.5,6.6,9.5,8.9,19.1c6.1,24.6,3.9,6.9,8.5,30.2
	c4.6,23.2,8,40.1,10.2,66.3c1.7,20.3,3.3,39.1,1.7,63.8c-1,15.2-3.1,44.3-14,75.2c-16.2,45.9-45.5,77.8-68,97.3
	c2.3,12.8,6.3,30.5,13.6,51c8,22.5,18.5,51.2,42.9,79.9c9.7,11.4,25.5,27.5,49.3,42.1c0-25.8,0.8-53,2.6-81.6
	c1.7-27.6,4.2-53.9,7.2-78.6c1.5-9.6,6.8-17.1,12.3-17.9c7-0.9,17.3,8.6,17.9,24.7c2.8,23.8,3.4,43.6,3.4,57.8
	c0,28.2-2.3,50.4-5.5,79.9c-1.4,12.7-3,26-6.4,49.7c-3.6,25.6-9.2,62.8-20.4,128.4c-7.7,45.1-11.6,67.6-15.3,88
	c-6,32.9-9.3,49.3-12.3,75.7c-1.1,9.4-3.4,32.1-4.3,59.5c-1.4,48.7,3.7,65.8,8.5,130.1c5.7,75.9,2.9,110,10.2,110.9
	c5.9,0.8,11.9-21,25.1-54.4c12-30.3,27.5-59.9,58.7-119c28.6-54.3,32.4-55.6,73.5-132.6c14.7-27.5,26.3-50.1,38.3-81.2
	c3-7.9,12.6-33.2,21.7-68c7.4-28.3,4.2-23.4,17.9-90.5c7.8-38.2,12.8-59.3,15.3-93.5c0.8-10.7,1.1-19.6,1.3-25.5
	c-9.7-4.8-23.5-12.9-37-26.4c-22.8-22.8-31.3-47.8-37-65c-8.5-26-9.5-46.6-10.6-68.9c-0.4-7.5,0.9-29.6,3.4-73.5
	c2.2-38.6,3.3-54.5,10.6-75.7c4-11.7,8.5-20.9,11.9-27.2c0.8-0.5,6.5-3.7,13.2-1.3c6.2,2.2,8.5,7.6,8.9,8.5
	c-2.3,9.7-5.5,23.6-8.9,40.4c-5.5,26.7-8.3,40-9.8,55.3c-1.2,11.8-1.1,26.3-0.9,55.3c0.2,31.1,0.4,46.8,2.6,57
	c1.6,7.4,6.5,28.2,20.4,51c5.7,9.4,11.6,16.2,23.4,29.8c10.2,11.7,13.3,13.9,15.7,13.2c5.1-1.6,4.2-15.5,4.3-30.6
	c0.2-29.1,3.7-17.8,8.5-82.9c1.1-14.2,2.2-32,3-52.7c3.4-7.6,11.1-12.2,19.1-11.5c7.2,0.6,13.5,5.4,16.2,12.3
	c-0.9,26.2-2.5,60.1-6,99.5c-0.9,10.9-4.9,55.7-14.5,121.6c-9.9,68.2-14.8,102.4-25.9,148.3c-18.6,77-41.6,133.8-49.3,152.2
	c-18.4,44-45.5,99.7-85.4,160.3c5.2-0.6,12.7-2.1,20.8-6c15.5-7.3,23.7-18.6,30.6-27.2c17.4-21.7,19.2-16.7,42.9-42.9
	c24.3-26.8,27.8-37.8,52.7-71.4c24.8-33.4,46.5-56.5,58.2-68.9c20.5-21.7,49.9-50.2,89.3-80.3c-4.2-12.7-9.4-31.1-12.3-53.6
	c-6.7-50.5,1.7-90.2,6.4-111.4c2.5-11.4,8.8-37.3,22.5-68.4c8-18.1,16.3-33.1,23.4-44.6c0.3-0.2,8.4-4.2,15.7,0.4
	c5.4,3.4,6.6,9.1,6.8,10.2c-4.3,7.9-8.6,16.4-12.8,25.5c-12.4,27.2-26.3,46.7-21.7,59.9c0.5,1.4,1.2,2.8,2.6,3.4
	c5.2,2.3,15-9.1,25.1-21.3c19.9-24,29.8-36,33.6-42.1c16.2-26.5,22.6-49.9,26.8-65.9c4.8-18.2,7-33.9,8.1-45.1
	c1.8-5.9,7.6-9.6,13.6-8.9c5.7,0.7,10.3,5.2,11.1,11.1c-0.1,14.4-1.5,34.6-7.7,57.8c-8.3,31.4-21.2,52.9-31.5,69.7
	c-19.7,32.2-29.5,48.4-46.8,57.4c-19.7,10.3-36.1,7.7-43.8,22.1c-2.5,4.7-2.2,7.7-2.6,30.2c-0.5,34.9-1.1,29.2-0.9,41.2
	c0.8,35.6,1.2,53.4,8.1,56.1c10.8,4.3,34.7-19.9,58.2-43.8c7.3-7.4,15.9-16.7,28.9-17.9c2.2-0.2,16.5-1.4,21.7,8.1
	c3.1,5.8,1.9,13.7-3,20.4c-36.8,21.6-79.5,50.5-123.7,88.8c-46.6,40.4-82.8,80.8-110.1,115.6c17.1,2,40.1,3.5,67.2,1.7
	c11.9-0.8,47.2-3.4,82.9-15.3c61.5-20.6,102.9-62.1,124.5-88c5.5-3.2,12.4-2.5,17,1.7c4.5,4,6,10.5,3.8,16.2
	c-9.5,11.5-23.6,26.9-42.9,42.5c-15.9,12.8-57.1,43.4-117.3,58.2c-24.1,5.9-46.2,7.4-90.5,10.2c-28.2,1.8-51.8,2.2-68.4,2.1
	c-9,13.3-21.4,30.6-37.4,49.7c-7.5,9-19.5,23.2-37,40.4c-18,17.6-29.8,26.4-52.3,43.4c-9,6.7-15.6,11.4-25.5,14.5
	c-14.1,4.4-26.9,3.2-34.9,1.7c-33.2,71.6-66.3,143.1-99.5,214.7c3.3,77.1,7.6,126.6,11.1,158.1c0.9,8.4,3.4,29.9,5.5,59.5
	c2.2,29.8,3,53.8,3.4,71.8c1.3,53.9,0.5,93.9,0,128.8c-0.2,13.6-0.1,59.3,0,150.9c0,12.6,0.9,70.5,2.6,186.2
	c0.4,29.5,1,59.3,8.1,98.6c5.8,32.5,13.8,58.7,20,76.5c39.7,14,79.3,28.1,119,42.1c-54.5,3.4-60.5,9.9-60.8,13.2
	c-0.8,8.6,36.6,18.9,57.4,24.7c40.2,11.1,60.8,11.5,99,18.3c8.2,1.5,97.7,17.3,96.9,27.6c-0.7,8.5-63.4,13.8-120.7,9.4
	c-9.8-0.8-68-5.3-125.4-21.7c-10.7-3.1-40.1-11.9-80.8-17C5886.2,3876.8,5878.3,3876.2,5876.3,3876z"/>
<path class="st5" d="M1030,4399.1c26.7,96.5-317.9,61.2-283.4,204.1s89.5,54.2,367.4,186.8c277.9,132.7,417.6,202.5,679.8,0
	s325.8-336,175.8-307.7c-149.9,28.3-308.5-39.2-308.5-82.4S1003.3,4302.5,1030,4399.1z"/>
<g>
	<path class="st6" d="M1034.3,3314c0,0,7.9,40.6,62.4,98.1l7.4,899h132.2V3424h208v887.1h127.8v-997H1034.3z"/>
	<path class="st7" d="M996.7,3314l3-814.8l-164.4-65.4c37.6-276.4,315-367.5,352.6-367.5c33.7,222.4,241.7,138.7,227.8,0
		c326.9,75.3,351.2,369,351.2,369l-161,66.9l1,811.8H996.7z"/>
	<rect x="1095.8" y="4313.7" class="st8" width="152.5" height="57.8"/>
	<rect x="1434.5" y="4313.7" class="st8" width="152.5" height="57.8"/>
	<path class="st9" d="M1303.5,2765c2.4,7.1,96.7,4.5,96.1-1.2c0.6-7.9-4.5-5-3.5-9.9s6.4-5.7,6.4-5.7h18.8c8.5-5.7,14.9,0,14.9,0
		s9.1-3.1,10,0c0.9,3.1,0.5,17.5,3.2,18c76.3-14.3,71,102-21.4,45.1c-30.1,4.6-11.1,19.7-12.4,26.9c-19,3.6-18.5,9.8-18.5,9.8
		s-73.1,2.2-68-2.4c5.1-4.6,4.1-11.3,4.1-11.3c-1.6-14.9-22.1-11.3-22.1-11.3c-23.3-1.6-46.2,6.4-55.9,6.1c0,0-50.7,9.3-52.9-15.2
		c-3.3-41.2,34.5-41,34.5-41s20.8,4.3,28.6-8.9c-0.4-7.1-5.8-9.9-6.9-12.8c-0.2-7.2,46.6-3.2,46.2-0.4
		C1309,2753.9,1303.5,2765,1303.5,2765z"/>
	<path class="st10" d="M960,2486.4c-75.3,116.4-161.5,292.7-142.6,320.9c20.8,39.6,321.9-12.9,324.9-13.9c3-1,17.3-24.8,56-44.1
		s63.6,7.6,67.1,11.6s-11.6,11.6-11.6,11.6c-24-2.4-28.2,2.2-28.2,2.2c-28.9,13-23,36.7-23,36.7c3.2,29.3,44.1,18.3,44.1,18.3
		s45.3-9.2,72.1-7.2s13.3,20.8,10.9,22.3s-18.7,7.4-17.8,11.6c0.9,4.2,18.8-0.6,21,10.2c2.3,10.8-22,10.3-22.3,15.4
		c-0.3,5.1,13.7,2.1,11.9,13.9c-96.3,61.9-164.4,15.4-164.4,15.4c-418.8,95.1-454.4-56.5-454.4-56.5
		c-44.6-129.8,142.6-415.1,142.6-415.1L960,2486.4z"/>
	<path class="st10" d="M1642.8,2486.4l117.4-46.6c43.1,78.5,270.4,415.8,129.3,482.7c-51.3,43.8-231.4,24.9-363.3-8.9
		c-132,0.1-127-37.6-127-37.6s-3.7-7.2,12.4-6.2c3.1-2-13.4-14-13.4-21.5s14.2-6.7,17.6-9.9c3.3-3.2-11.3-14.7,0.5-22.5
		c6.6-10.8,24-3.2,50.3,10.4c26-2.6,29.5-15.6,29.5-15.6s21.9-14.6-18.8-43.1c-12.3-6.8-29-2-29-2l-1.5-17.8c0,0-16.1-3.3-24.5-0.5
		c-4.1,0.2-0.1-6.3,4.5-9.7c0,0,3.8-7.9,9.9-5.2c6.1,2.7,78.5,34.5,90.4,44.6c0,0,36.4,3.7,53.5,24.5c0,0,147.8,40.9,233.5,20.6
		C1810,2741.2,1642.8,2486.4,1642.8,2486.4z"/>
	<polygon class="st10" points="1125,4478 1222.6,4478 1220.7,4372.1 1124,4372.1 	"/>
	<polygon class="st10" points="1462.5,4478 1560.1,4478 1558.3,4372.1 1461.5,4372.1 	"/>
	<path d="M1083,4591.9l40.5-112.2h9.7c1.1-57.2,74.9-69.1,81.4-1.7h8.5l32.3,113.9H1083z"/>
	<path d="M1462.3,4480.4l-37.6,111.4h308.1v-21.3l-154-93.6v-42.1c-6.9-2.9-44.6,4.5-39.1,43.6L1462.3,4480.4z"/>
	<path class="st11" d="M1082,4598.1v27.7c0,3.4,2.8,6.2,6.2,6.2h162.1c3.4,0,6.2-2.8,6.2-6.2v-27.7c0-3.4-2.8-6.2-6.2-6.2h-162.1
		C1084.7,4591.9,1082,4594.7,1082,4598.1z"/>
	<path class="st11" d="M1423.6,4595.9v32.1c0,2.2,1.8,4,4,4h301.1c2.2,0,4-1.8,4-4v-32.1c0-2.2-1.8-4-4-4h-301.1
		C1425.4,4591.9,1423.6,4593.7,1423.6,4595.9z"/>
	<path class="st12" d="M1370.1,2059.2l-5.2-58.7c223.6-45.1,258.5-241.5,258.5-241.5c143.9-17.1,92.9-168.6,20.8-176.8l-9.8,8
		c-3.8-119.7-80.8-216.8-80.8-216.8c-30.5,26.7-354.9,49.5-445.8,20.8c0,0-81,94.6-100.3,219.9l-14.1-7.4l-19.3-40.9
		c-87.9,2.2-141.4,163.7,14.9,180.5c0,0,16.6,195.6,256.3,254.1l-0.7,58.7l-56.7,7.2c0,0,17.1,139.4,116.9,136.7
		c91.6-2.5,114.3-106.1,110.9-136.7L1370.1,2059.2z"/>
	<circle cx="1161.1" cy="1699.9" r="35.7"/>
	<circle cx="1464.3" cy="1699.9" r="35.7"/>
	<path class="st13" d="M1151.5,1816.9l319.2,3.7c0,0-54.3,99.9-156.3,103.1C1212.5,1927,1151.5,1816.9,1151.5,1816.9z"/>
	<path class="st14" d="M1224.6,1895.9c-17.8-12.7,129.9-36.6,179-2.6c-28,19-58.8,30.3-89.1,30.4
		C1282.2,1923.8,1252,1915.6,1224.6,1895.9z"/>
	<path class="st15" d="M1196.9,1817.6l245.8,2.6c0,0-22.2,31.6-121.8,29.7S1196.9,1817.6,1196.9,1817.6z"/>
	<path class="st16" d="M1644,1582.5l-9.9,7.4c0,0-21.3-163.4-78.8-211.5c-203.6,53-446.3,14.9-446.3,14.9s-73.7,88.7-100.5,222.9
		c-23.3-7.6-34.4-51.8-34.4-51.8c-44.2-153.4,49-243.7,49-243.7c-6.7-392.5,554.5-24.5,660.5-159.7c0,0,0,146.1-68.4,188.7
		C1615.3,1349.7,1670.8,1433.9,1644,1582.5z"/>
	<line class="st17" x1="1114.6" y1="1400.7" x2="1023.4" y2="1319.5"/>
</g>
<line class="st18" x1="3975" y1="1234.6" x2="5004.3" y2="1234.6"/>
<path class="st18" d="M4078.9,1234.6c0.5,181.3,46.4,428.1,410.5,422.8c361.7-9.3,399.3-162.3,411-422.8H4078.9z"/>
<path class="st19" d="M4361.7,1548.9h257.5c13.1,0,23.8,10.6,23.8,23.8v134.3c0,13.1-10.6,23.8-23.8,23.8h-257.5
	c-13.1,0-23.8-10.6-23.8-23.8v-134.3C4337.9,1559.5,4348.6,1548.9,4361.7,1548.9z"/>
<path class="st19" d="M4332.3,1670.8h-5.9c-2.9,0-5.3-2.4-5.3-5.3v-56.3c0-2.9,2.4-5.3,5.3-5.3h5.9c2.9,0,5.3,2.4,5.3,5.3v56.3
	C4337.7,1668.4,4335.3,1670.8,4332.3,1670.8z"/>
<path class="st19" d="M4653.9,1670.8h-5.9c-2.9,0-5.3-2.4-5.3-5.3v-56.3c0-2.9,2.4-5.3,5.3-5.3h5.9c2.9,0,5.3,2.4,5.3,5.3v56.3
	C4659.3,1668.4,4656.9,1670.8,4653.9,1670.8z"/>
<circle class="st20" cx="4487.5" cy="1640.3" r="64.8"/>
<circle class="st21" cx="4488" cy="1641.7" r="52.8"/>
<circle class="st22" cx="4488" cy="1641.7" r="38.1"/>
<circle class="st23" cx="4488.2" cy="1641.5" r="26.9"/>
<ellipse transform="matrix(0.9948 -0.1018 0.1018 0.9948 -143.849 465.5589)" class="st15" cx="4488.1" cy="1641.7" rx="20.7" ry="20.7"/>
<path class="st24" d="M5003.1,1275.4h130v-232.9c-22.7-48.6-53-43.2-65-46.4c-12-3.2-56.9,16-61.3,46.6L5003.1,1275.4z"/>
<polygon class="st25" points="5040,908.4 5040,1003.7 5099.5,1003.7 5099.6,890.8 5040,887.8 "/>
<circle class="st26" cx="5069.8" cy="881.5" r="35.7"/>
<path class="st24" d="M5317.6,917.7c52.8,2.4,91.4,52.3,74.3,51.8c-18.6,23-283-12.2-292.3-5.8v-36.5
	C5099.6,927.2,5264.8,915.2,5317.6,917.7z"/>
<path class="st27" d="M4737.5,966c10.3-37.1,76.7-48.9,76.7-48.9s168.1,0,225.8,10.8v34.5C5040,962.5,4727.2,1003.2,4737.5,966z"/>
<rect x="5006.3" y="1051.6" class="st28" width="126.6" height="23.5"/>
<rect x="5006.3" y="1092.6" class="st28" width="127.1" height="23.5"/>
<rect x="5004.3" y="1135.6" class="st28" width="129" height="23.5"/>
<rect x="5004.3" y="1178.6" class="st28" width="129" height="23.5"/>
<path class="st24" d="M3844.8,1278.4h130v-232.9c-22.7-48.6-53-43.2-65-46.4c-12-3.2-56.9,16-61.3,46.6L3844.8,1278.4z"/>
<polygon class="st25" points="3881.7,911.3 3881.7,1006.6 3941.2,1006.6 3941.3,893.7 3881.7,890.8 "/>
<circle class="st26" cx="3911.5" cy="884.4" r="35.7"/>
<path class="st24" d="M4159.3,920.6c52.8,2.4,91.4,52.3,74.3,51.8c-18.6,23-283-12.2-292.3-5.8v-36.5
	C3941.3,930.1,4106.5,918.1,4159.3,920.6z"/>
<path class="st27" d="M3579.1,969c10.3-37.1,76.7-48.9,76.7-48.9s168.1,0,225.8,10.8v34.5C3881.7,965.4,3568.9,1006.1,3579.1,969z"
	/>
<rect x="3847.9" y="1054.5" class="st28" width="126.6" height="23.5"/>
<rect x="3847.9" y="1095.6" class="st28" width="127.1" height="23.5"/>
<rect x="3846" y="1138.6" class="st28" width="129" height="23.5"/>
<rect x="3846" y="1181.6" class="st28" width="129" height="23.5"/>
<path class="st29" d="M4285.6,1224.4h408.6c0,0,22-101.8-87.3-125h-231.6C4375.2,1099.4,4284.8,1099.4,4285.6,1224.4z"/>
<path class="st30" d="M4336.2,1209H4644c0,0,16.6-76.7-65.8-94.2h-174.5C4403.7,1114.8,4335.6,1114.8,4336.2,1209z"/>
<path class="st30" d="M4362.7,1100.5h249.6v-39.3c-7.2-22.8-29.6-25.8-29.6-25.8h-192.6c-24.9,7.2-27.5,27.5-27.5,27.5V1100.5z"/>
</svg>
