<svg version="1" id="Layer_1" xmlns="http://www.w3.org/2000/svg" viewBox="0 0 6980 6980">
  <style>
    .st0{fill:#39b54a;stroke:#000;stroke-miterlimit:10}.st1{fill:#cb9d69}.st2{fill:#25772d}.st4{fill:#fff}.st7,.st8{opacity:.64;fill:#fff}.st8{opacity:.79}.st10,.st9{opacity:.61;fill:#fff}.st10{opacity:.74}.st12{opacity:.47;fill:#69b4ff}.st13,.st14{opacity:.47;fill:#fff}.st14{opacity:.6}.st15{fill:#80e083}.st16{fill:#006837}.st17{fill:#3faaaa}.st18{fill:#66ccc2}.st19,.st20{fill:none;stroke:#4d4d4d;stroke-width:17;stroke-miterlimit:10}.st20{fill:#00a99d}.st21{fill:#34617a}.st22{opacity:.5;fill:#61daff}
  </style>
  <path class="st0" d="M5046 2306c276-286 722-40 997-163 131-123 433 55 576 0s361 0 361 0v4589s-475-366-758-1316c-114-382-675-718-552-1000s-293-248-276-760c-221-206-237-171-216-634 0 0-204-348-132-716z"/>
  <path class="st1" d="M5046 2580s87 548 200 415c237-280-54 510 197 648 246-288-40 474 360 1302 87 180 212 276 202 264 0 0 202 398 140 347s-498-659-624-887-2-470-168-756-155-222-263-504c-144-198-96-275-96-552s52-277 52-277z"/>
  <path class="st2" d="M5582 4133s-67-46 68 409 290 639 355 667c60 116 152 352 152 352 130 390 827 1467 823 1172-316-241-686-1063-773-1412 0 0-506-688-543-773-41-93 132-258-82-415z"/>
  <path class="st0" d="M1934 2309c-276-286-722-40-997-163-131-123-433 55-576 0s-361 0-361 0v4589s475-366 758-1316c113-382 675-718 552-1000s293-248 276-760c221-206 237-171 216-634 0 0 204-348 132-716z"/>
  <path class="st1" d="M1934 2583s-87 548-200 415c-238-280 54 510-197 648-246-288 39 474-360 1302-88 180-212 276-202 264 0 0-202 398-140 347s498-659 624-887 2-470 168-756 155-222 263-504c144-198 96-275 96-552s-52-277-52-277z"/>
  <path class="st2" d="M1397 4136s66-46-69 409-288 639-353 667c-60 116-152 352-152 352C625 6130 125 6926-1 6735c316-241 687-1062 774-1411 0 0 505-688 543-773 41-93-132-258 81-415z"/>
  <path d="M5168 2216c-819-371-2383-367-3310 30l76 285 22 794h3074l16-794 122-315z" fill="gray"/>
  <path class="st4" d="M2154 2259l17 58 297-58-15-74zM2592 2160l13 60 300-35-9-75zM2999 2106l5 61 303 2v-75zM3431 2101l5 61 302 7 1-76zM3829 2091v61l302 29 6-75zM4236 2109l-6 61 296 60 14-74zM4649 2176l-12 59 288 92 22-73z"/>
  <path d="M2203 2297s45 114 0 181 26 121 0 187c-26 65 2 127-45 179s19 101-28 127 7 216-78 222-94 67-94 67l-65 141-98 230-165 276c-29 31-47 93-66 157-23 48-26 134-31 212l-15 217-56 172-181 287-172 248-195 265-87 93-154 350-126 231-293 441-192 173-59-19v246h6980v-249l-54 25-72-42-257-320-233-388-207-450-312-401-273-408-104-244s-23-434-41-416c-9-106-190-378-190-378s-144-348-206-395-18-82-44-132c-26-51-61-165-39-254 22-88-88-363-44-432s-40-154-18-184-138-76-138-76h-60s14 169-18 230 8 204-32 247 16 123-40 155-88 109-57 163 55 204 0 229-139 82-93-31c46-112 36-68 0-258-36-191 46-99 24-276s26-98 0-229-30-107 12-163c42-57-6-98-6-98l-132-27-60-12s-54 147-12 234c0 0-70 131-44 221s-26 87 0 175-52 122-40 199-72 114-52 168c-17 39-17 10-26 60s6 55-18 97c-78-63-110-6-110-6 130-165 80-337 80-337 54-101-16-113 24-192s58-153 6-283-14-190-24-266 8-75 8-75l-140-14h-54s-78 182-24 247-30 121 18 227c48 105-110 37-48 140s-14 63 0 143c14 81-90 28-90 103 0 74 144 118 90 156s18 64-36 84c-54 21-12 67-12 67h-42c-30-26-136 22-96-42s-10-65 18-133-22-48-42-204 36-186 36-186c84-128-12-172 30-247s-44-155-6-199c38-45-42-71 0-88s0-49 0-49l-166-5-82-14s-58 276 0 343-58 160 0 265-42 119 0 276-28 180 0 223v60s-74 4-124 0-84-74-42-115c42-40-2-138 42-234s-96-335-48-396-48-124-12-205-16-94 6-149-15-61-15-61l-177 12s14 101-30 174 60 241 0 319 26 77-32 120 54 126 0 174-72 66-94 138 120 221 60 175-108 70-90 24-18 14-54-61-34-132 36-228 47-215 48-234c30-73-66-198-66-198 92-48 82-42 66-187-16-146-44-97-36-146 8-48-12-60-12-60l-209 29s27 84-6 153-5 117 36 144c-6 30-13 75-54 119s20 91-6 175 38 68 6 132 1 89-32 133 33 118 0 144 0 109 0 109l-70-24c37-69-47-37-6-169s-33-72 0-235c33-162-95-204-48-320s-63-167-24-226c39-60-10-89-10-89l-123 24-112 22z" fill="#67f0ff"/>
  <path d="M2381 2435c-11 35-12 43-12 54l4 30c6 35 8 37 6 46-4 20-16 19-18 36-2 16 8 31 16 44 6 9 12 21 16 20 6-2-7-28 2-62 5-20 13-22 14-40 1-11-1-21-6-40-6-27-8-24-10-36-3-21 4-27 6-62 0-6 2-33-2-34-1 0-3 1-16 44z" fill="#fff"/>
  <path class="st7" d="M3243 2774c0 31 1 38 3 47 0 4 3 11 7 25 10 29 12 30 12 38 1 17-7 17-5 32 2 14 11 26 18 35 5 7 11 16 13 15 3-2-9-23-9-52-1-18 4-20 1-36-1-9-4-17-11-33-8-22-9-19-12-29-6-17-2-23-7-52-1-5-5-29-7-29-1 0-2 1-3 39zM3128 3036c0 31 1 38 3 47 0 4 3 11 7 25 10 29 12 30 12 38 1 17-7 17-5 32 2 14 11 26 18 35 5 7 11 16 13 15 3-2-9-23-9-52-1-18 4-20 1-36-1-9-4-17-11-33-8-22-9-19-12-29-6-17-2-23-7-52-1-5-5-29-7-29-1 0-2 1-3 39zM3198 2201c-9 29-11 36-12 45v26c0 31 1 33-1 40-4 16-12 15-14 30-3 13 2 27 6 38 2 9 5 19 8 18s-2-24 7-53c5-16 10-17 12-33 2-9 1-18 0-34-1-24-3-21-3-32 0-18 5-22 10-52 0-5 4-29 1-29l-14 36zM2814 2539a272 272 0 0 0-2 72l4 39c-1 17-7 16-7 31-1 14 4 27 7 38 3 8 6 18 8 17 2-2-4-25 0-53 2-18 5-19 5-35l-3-34-6-31c-1-18 2-23 2-53 0-5 0-29-2-30l-6 39zM2824 2172a272 272 0 0 0-2 72l4 39c-1 17-7 16-7 31-1 14 4 27 7 38 3 8 6 18 8 17 2-2-4-25 0-53 2-18 5-19 5-35l-3-34-6-31c-1-18 2-23 2-53 0-5 0-29-2-30l-6 39z"/>
  <path class="st8" d="M3097 2489c-3 35-3 43-3 54l1 30 2 46c-1 20-5 19-5 36-1 16 2 31 4 44 2 9 4 21 5 20 1-2-2-28 0-62 2-20 4-22 4-40 0-11 0-21-2-40l-2-36c-1-21 1-27 1-62v-34l-5 44zM3924 2815c-3 35-3 43-3 54l1 30 2 46c-1 20-5 19-5 36-1 16 2 31 4 44 2 9 4 21 5 20 1-2-2-28 0-62 2-20 4-22 4-40 0-11 0-21-2-40l-2-36c-1-21 1-27 1-62v-34l-5 44zM4790 2721c-3 35-3 43-3 54l1 30 2 46c-1 20-5 19-5 36-1 16 2 31 4 44 2 9 4 21 5 20 1-2-2-28 0-62 2-20 4-22 4-40 0-11 0-21-2-40l-2-36c-1-21 1-27 1-62v-34l-5 44zM4679 3042c-3 35-3 43-3 54l1 30 2 46c-1 20-5 19-5 36-1 16 2 31 4 44 2 9 4 21 5 20 1-2-2-28 0-62 2-20 4-22 4-40 0-11 0-21-2-40l-2-36c-1-21 1-27 1-62v-34l-5 44zM3601 2551c-3 35-3 43-3 54l1 30 2 46c-1 20-5 19-5 36-1 16 2 31 4 44 2 9 4 21 5 20 1-2-2-28 0-62 2-20 4-22 4-40 0-11 0-21-2-40l-2-36c-1-21 1-27 1-62v-34l-5 44zM3917 2158c-3 35-3 43-3 54l1 30 2 46c-1 20-5 19-5 36-1 16 2 31 4 44 2 9 4 21 5 20 1-2-2-28 0-62 2-20 4-22 4-40 0-11 0-21-2-40l-2-36c-1-21 1-27 1-62v-34l-5 44zM2656 2975c-5 35-6 43-6 54l2 30 3 46c-2 20-7 19-8 36-1 16 3 31 7 44 2 9 5 21 7 20 2-2-3-28 1-62 2-20 5-22 6-40l-3-40c-3-27-4-24-4-36-2-21 1-27 2-62 0-6 1-33-1-34l-6 44zM3881 3135c-5 35-6 43-6 54l2 30 3 46c-2 20-7 19-8 36-1 16 3 31 7 44 2 9 5 21 7 20 2-2-3-28 1-62 2-20 5-22 6-40l-3-40c-3-27-4-24-4-36-2-21 1-27 2-62 0-6 1-33-1-34l-6 44zM2004 3246c-8 12-9 15-11 20l-3 12-6 18c-3 8-6 6-9 13-3 6-3 13-3 19l1 9c2 0 3-12 10-24 4-7 6-7 9-14l5-17 3-15c2-8 5-10 10-24l5-13-11 16zM2286 2684c-3 14-3 18-3 22l2 13c2 15 3 15 2 19 0 8-4 8-4 15s3 13 5 19l5 8c1-1-3-12-1-26 1-9 3-9 3-17 0-5 0-9-2-17l-3-15v-26l-1-14-3 19zM2406 2812c-3 14-3 18-3 22l2 13c2 15 3 15 2 19 0 8-4 8-4 15s3 13 5 19l5 8c1-1-3-12-1-26 1-9 3-9 3-17 0-5 0-9-2-17l-3-15v-26l-1-14-3 19zM4020 2833c-3 14-3 18-3 22l2 13c2 15 3 15 2 19 0 8-4 8-4 15s3 13 5 19l5 8c1-1-3-12-1-26 1-9 3-9 3-17 0-5 0-9-2-17l-3-15v-26l-1-14-3 19zM3986 3087c-3 14-3 18-3 22l2 13c2 15 3 15 2 19 0 8-4 8-4 15s3 13 5 19l5 8c1-1-3-12-1-26 1-9 3-9 3-17 0-5 0-9-2-17l-3-15v-26l-1-14-3 19zM2711 2243c-3 14-3 18-3 22l2 13c2 15 3 15 2 19 0 8-4 8-4 15s3 13 5 19l5 8c1-1-3-12-1-26 1-9 3-9 3-17 0-5 0-9-2-17l-3-15v-26l-1-14-3 19zM3605 3132c-3 14-3 18-3 22l2 13c2 15 3 15 2 19 0 8-4 8-4 15s3 13 5 19l5 8c1-1-3-12-1-26 1-9 3-9 3-17 0-5 0-9-2-17l-3-15v-26l-1-14-3 19zM3510 2938c-3 14-3 18-3 22l2 13c2 15 3 15 2 19 0 8-4 8-4 15s3 13 5 19l5 8c1-1-3-12-1-26 1-9 3-9 3-17 0-5 0-9-2-17l-3-15v-26l-1-14-3 19z"/>
  <path class="st9" d="M2243 2277c-5 23-6 29-6 36l2 20c3 23 4 25 3 31-2 13-8 12-9 23s4 21 8 30c3 6 6 14 8 13 3-1-4-19 1-41 3-13 6-14 7-27l-3-26-5-24c-1-14 2-18 3-41 0-4 1-23-1-23l-8 29zM2731 2718c-5 23-6 29-6 36l2 20c3 23 4 25 3 31-2 13-8 12-9 23s4 21 8 30c3 6 6 14 8 13 3-1-4-19 1-41 3-13 6-14 7-27l-3-26-5-24c-1-14 2-18 3-41 0-4 1-23-1-23l-8 29zM3975 2445c-5 23-6 29-6 36l2 20c3 23 4 25 3 31-2 13-8 12-9 23s4 21 8 30c3 6 6 14 8 13 3-1-4-19 1-41 3-13 6-14 7-27l-3-26-5-24c-1-14 2-18 3-41 0-4 1-23-1-23l-8 29zM4021 2123c-5 23-6 29-6 36l2 20c3 23 4 25 3 31-2 13-8 12-9 23s4 21 8 30c3 6 6 14 8 13 3-1-4-19 1-41 3-13 6-14 7-27l-3-26-5-24c-1-14 2-18 3-41 0-4 1-23-1-23l-8 29z"/>
  <path class="st10" d="M4395 2582c-5 23-6 29-6 36l2 20c3 23 4 25 3 31-2 13-8 12-9 23s4 21 8 30c3 6 6 14 8 13 3-1-4-19 1-41 3-13 6-14 7-27l-3-26-5-24c-2-14 2-18 3-41 0-4 1-23-1-23l-8 29zM4851 2466c-5 23-6 29-6 36l2 20c3 23 4 25 3 31-2 13-8 12-9 23s4 21 8 30c3 6 6 14 8 13 3-1-4-19 1-41 3-13 6-14 7-27l-3-26-5-24c-2-14 2-18 3-41 0-4 1-23-1-23l-8 29z"/>
  <path d="M2236 2883c-11 35-12 43-12 54l4 30c6 35 8 37 6 46-4 20-16 19-18 36-2 16 8 31 16 44 6 9 12 21 16 20 6-2-7-28 2-62 5-20 13-22 14-40 1-11-1-21-6-40-6-27-8-24-10-36-3-21 4-27 6-62 0-6 2-33-2-34-1 0-3 1-16 44z" fill="#fff"/>
  <path class="st4" d="M3448 2415c-4 3 26 48 26 117 0 63-24 80-23 149 1 48 13 89 16 88 4-1-2-41 4-100 7-77 26-88 24-137-3-69-43-120-47-117zM4271 2731c-4 3 26 48 26 117 0 63-24 80-23 149 1 48 12 89 16 88s-2-41 3-100c8-77 27-88 25-137-3-69-43-120-47-117zM4358 3148c-2 3 17 43 17 105 1 56-15 72-15 134 1 43 9 80 11 79 3-1-2-37 2-90 5-69 18-79 17-123-2-62-29-108-32-105zM4747 2210c-2 3 17 43 17 105 1 56-15 72-15 134 1 43 9 80 11 79 3-1-2-37 2-90 5-69 18-79 17-123-2-62-29-108-32-105zM4892 2817c-2 3 17 43 17 105 1 56-15 72-15 134 1 43 9 80 11 79 3-1-2-37 2-90 5-69 18-79 17-123-2-62-29-108-32-105zM4061 2507c-3 2 22 34 22 84 0 45-20 57-19 107 0 34 10 64 14 63 3-1-2-30 3-72 6-55 22-63 21-98-3-49-38-86-41-84zM3648 2147c3 0 10 22 1 37-7 11-16 9-18 17-4 13 21 21 24 43 2 15-9 17-14 41-5 22 1 42 5 60 4 17 7 16 11 35 5 20 5 33 4 44-1 10-3 22-5 22s3-29-7-64c-5-19-9-17-14-37-3-13-9-35-4-61 5-24 15-26 12-40-4-21-29-26-27-41 1-9 10-8 20-23 12-17 9-33 12-33zM4350 2167c3 0 10 22 1 37-7 11-16 9-18 17-4 13 21 21 24 43 2 15-9 17-14 41-5 22 1 42 5 60 4 17 7 16 11 35 5 20 5 33 4 44-1 10-3 22-5 22s3-29-7-64c-5-19-9-17-14-37-3-13-9-35-4-61 5-24 15-26 12-40-4-21-29-26-27-41 1-9 10-8 20-23 12-17 9-33 12-33zM3573 2333c-1-1-5 9-7 19a96 96 0 0 0-2 35c2 12 4 13 6 23 4 19 0 34 1 35s8-18 6-36l-5-21-4-22c1-8 4-9 5-21v-12zM3467 2147c-1-1-5 9-7 19a96 96 0 0 0-2 35c2 12 4 13 6 23 4 19 0 34 1 35s8-18 6-36l-5-21-4-22c1-8 4-9 5-21v-12z"/>
  <path class="st12" d="M2109 3379c-127 8-236 45-250 104-17 77 135 178 267 207 210 46 391-86 406-97 90-67 76-106 133-123 158-45 281 259 501 253 161-4 170-170 355-198 192-29 240 142 541 204 44 9 408 80 584-99 86-88 73-180 138-193 134-28 302 340 348 321 20-8 17-90-103-446-141-14-339-15-562 45-144 39-153 65-262 79-244 32-310-83-599-84-169-1-163 38-353 32-154-5-180-32-365-43-100-6-187-2-361 7-106 5-249 14-418 31z"/>
  <path class="st13" d="M2182 3294c45-37 110-49 238-28 107 18 112 35 219 56 108 21 193 20 211 20 137-2 157-33 296-40 73-3 127 3 234 16 179 22 215 47 315 32 98-15 87-44 168-52 179-18 219 120 350 84 56-15 118-60 231-56h11c154 8 172-85 266-85 8 0-9 67 176 15 74-21 122 63 126 70 5 12-13-32-67-4-24 12-109 19-191 21-72 2-85 92-237 59-125-27-157 32-187 38-56 12-85 36-135 46-83 17-108 19-191-1-92-22-104-55-271-91-146-32-151-3-348 23-60 8-125-3-219 2-156 9-189-27-308-29-98-1-172-3-229-14-153-30-195 23-283 20-127-4-469 57-477 36-4-10 296-133 302-138z"/>
  <path class="st12" d="M1115 5771c29 125-324 227-344 432-11 113 83 221 152 272 239 177 526-63 1032-120 674-75 751 285 1320 160 399-88 426-279 920-368 143-26 418-72 744 0 572 127 748 498 952 408 192-85 275-519 112-784-187-304-650-311-1136-312-1422-3-1703 582-2440 312-237-87-590-288-1048-240-151 16-365 64-368 128-2 42 90 51 104 112z"/>
  <path class="st13" d="M1023 5627c162-48 392-107 688-88 484 31 605 301 1044 322 323 15 290-49 912-226 215-61 503-139 1148-176 370-21 753 37 937 104 187 68 216 261 267 236 46-23-31-181-116-268-166-168-537-253-816-196-152 31-162-39-308-28-178 13-220 105-484 83-137-12-292-25-460 23-131 37-128 70-228 84-136 17-234 113-492 63-150-29-203-37-348 3-83 23-227-81-308-64-193 41-253-85-264-89-88-37-83-60-140-67-113-13-151 74-292 81-110 6-116-45-252-43-24 0-154 3-248 66-51 35-37 51-92 81-76 43-136 31-168 67-16 17-6-22 20 32z"/>
  <path class="st14" d="M2151 3371c-6-2-24 43-41 84-11 28-30 78-49 150-11 45-6 36-28 131-8 34-20 82-46 131 0 1-13 48-28 74-31 54-48 89-49 107-1 35-7 70-13 119-1 8-23 68-57 139 0 2-104 276-94 285 12 11 91-184 125-283 38-108 33-154 71-254 31-81 34-81 74-175 17-39 37-81 67-218 60-276 74-289 68-290zM2361 4926c-6-1-18 31-29 60-7 20-19 55-28 107-5 32-1 25-10 93-3 24-8 59-27 93 0 1-7 34-18 52-23 39-34 63-33 76 3 25 2 50 2 85 0 6-12 49-36 99-1 1-65 196-54 202 13 8 64-130 85-201 22-76 11-109 35-180 19-57 22-57 49-124 11-28 25-58 36-155 22-196 33-205 28-207zM2270 4134c-6-1-18 31-29 60-7 20-19 55-28 107-5 32-1 25-10 93-3 24-8 59-27 93 0 1-7 34-18 52-23 39-34 63-33 76 3 25 2 50 2 85 0 6-12 49-36 99-1 1-65 196-54 202 13 8 64-130 85-201 22-76 11-109 35-180 19-57 22-57 49-124 11-28 25-58 36-155 22-196 33-205 28-207zM1208 5890c-6-1-18 31-29 60-7 20-19 55-28 107-5 32-1 25-10 93-3 24-8 59-27 93 0 1-7 34-18 52-23 39-34 63-33 76 3 25 2 50 2 85 0 6-12 49-36 99-1 1-65 196-54 202 13 8 64-130 85-201 22-76 11-109 35-180 19-57 22-57 49-124 11-28 25-58 36-155 22-196 33-205 28-207zM1578 6529c-7-2-15 15-23 30-5 10-13 29-15 57-2 17 1 14-1 50 0 14-2 32-17 49 0 1-3 18-12 27-18 19-27 32-24 39 5 14 7 28 11 48 1 3-7 25-25 51-1 0-44 102-32 107 14 5 49-67 62-103 14-41-1-60 15-97 13-30 16-29 35-64 8-14 19-29 19-82 2-107 12-111 7-112zM2740 3265c-7-1-12 17-17 33-4 11-9 30-7 58 1 17 3 14 7 50 2 13 3 32-9 51 0 1 0 18-8 29-15 21-21 35-18 42 8 13 12 26 19 45 1 3-3 26-17 54-1 1-27 108-15 111 15 3 38-73 45-111 8-42-10-59 0-98 8-32 11-32 25-69 5-15 13-32 6-84-15-106-6-111-11-111zM5171 3801c-7 1-5 27-4 50 0 16 3 44 15 81 7 23 8 18 26 66 6 17 15 42 10 72 0 0 7 25 3 41-6 34-7 55-1 62 12 16 21 33 34 56 3 4 7 37 5 79-1 1 14 154 27 154 15 1 9-110 1-164-8-59-31-77-36-133-4-45-2-46-3-100 0-23 2-48-25-117-54-138-47-149-52-147zM6031 5684c-7 1-5 27-4 50 0 16 3 44 15 81 7 23 8 18 26 66 6 17 15 42 10 72 0 0 7 25 3 41-6 34-7 55-1 62 12 16 21 33 34 56 3 4 7 37 5 79-1 1 14 154 27 154 15 0 9-110 1-164-8-60-31-77-36-133-4-45-2-46-3-100 0-23 2-48-25-117-54-138-47-149-52-147zM6403 6325c-7 1-5 27-4 50 0 16 3 44 15 81 7 23 8 18 26 66 6 17 15 42 10 72 0 0 7 25 3 41-6 34-7 55-1 62 12 16 21 33 34 56 3 4 7 37 5 79-1 1 14 154 27 154 15 0 9-110 1-164-8-60-31-77-36-133-4-45-2-46-3-100 0-23 2-48-25-117-54-138-47-149-52-147zM4744 3404c-7 2-7 27-7 50 0 16 1 44 10 82 7 24 7 18 22 67 6 18 13 43 7 73 0 0 5 25 1 41-8 34-11 54-5 62 11 17 19 34 31 58 2 4 5 37 0 79-1 1 6 155 18 156 15 1 15-110 11-165-5-59-27-78-29-134-2-46 1-47 3-101 1-23 4-47-19-117-46-141-38-152-43-151zM4595 4563c-7 2-7 27-7 50 0 16 1 44 10 82 7 24 7 18 22 67 6 18 13 43 7 73 0 0 5 25 1 41-8 34-11 54-5 62 11 17 19 34 31 58 2 4 5 37 0 79-1 1 6 155 18 156 15 1 15-110 11-165-5-59-27-78-29-134-2-46 1-47 3-101 1-22 4-47-19-117-46-141-38-152-43-151zM581 6369c-6-2-18 21-30 41-7 14-20 39-30 77-5 24-2 19-12 69-4 18-10 44-29 67 0 0-8 24-19 37-24 25-36 42-34 52 2 20 0 39-1 65 0 5-13 35-38 70 0 1-69 139-58 145 13 8 66-89 88-139 24-55 14-82 39-132 20-40 23-40 51-86 12-20 26-40 40-112 27-147 39-152 33-154zM4368 6373c-7 2-7 25-8 46 0 15 0 40 10 75 5 21 6 16 20 60 5 16 12 39 6 66 0 1 4 23 0 38-9 31-11 49-6 57 11 14 18 30 30 52 2 3 5 33-1 72 0 0 4 141 16 141 15 1 17-100 13-150-4-54-26-71-27-122-1-41 2-42 5-92 2-20 5-43-17-106-44-128-36-138-41-137zM3727 3467c-7 1-10 79-13 149-2 49-5 135 1 255 3 74 4 58 13 214 3 57 7 136-2 224 0 1 2 79-4 127-13 97-18 159-13 186 9 55 15 112 24 190 2 13 0 116-10 241 0 3-13 474 0 483 14 10 28-327 30-496 2-183-17-251-12-423 4-139 7-140 16-304 3-68 9-143-5-367-29-452-20-479-25-479zM3263 3365c-6 0-10 56-13 106-2 35-5 97 0 183 2 53 4 41 12 153 3 40 7 97-3 160 0 1 2 56-4 91-13 70-18 113-14 133 9 39 15 80 24 136 1 9 0 83-11 173 0 1-15 339-2 345 14 7 29-234 32-355 3-131-16-179-11-302 5-100 8-101 17-218 4-49 10-102-3-263-27-323-18-343-24-342zM3973 5522a1451 1451 0 0 0-14 285c3 52 5 40 13 150 3 40 7 96-3 158 0 1 2 56-4 90-13 69-18 112-14 131 9 39 14 79 24 134 1 9-1 81-11 170-1 2-15 334-2 340 14 7 29-230 32-349 3-130-17-177-11-298 5-98 8-99 17-215 4-48 10-101-3-259-27-319-18-338-24-337zM2807 4108c-7 0-16 55-25 105-6 34-15 95-19 181-3 53 0 42-3 154-2 41-4 97-20 159 0 1-5 56-14 90-20 68-30 111-27 131 5 40 5 81 9 138 0 8-9 82-29 170-1 2-50 336-38 343 13 9 53-230 69-349 16-131 2-181 21-302 14-99 17-99 39-215 9-48 21-101 24-262 7-324 18-342 13-343zM4231 3890c-6 0-10 35-14 65-2 21-5 59-1 112 2 32 4 25 12 93 3 25 6 60-4 98 0 1 1 35-5 56-13 43-18 70-14 82 9 24 14 48 23 83 1 5-1 50-12 105 0 1-16 208-4 211 15 5 31-143 34-217 4-80-15-110-9-185 5-61 8-61 18-133 4-30 10-63-2-161-26-197-17-209-22-209zM3212 5971c-6 0-10 35-14 65-2 21-5 59-1 112 2 32 4 25 12 93 3 25 6 60-4 98 0 1 1 35-5 56-13 43-18 70-14 82 9 24 14 48 23 83 1 5-1 50-12 105 0 1-16 208-4 211 15 5 31-143 34-217 4-80-15-110-9-185 5-61 8-61 18-133 4-30 10-63-2-161-26-197-17-209-22-209zM5568 6262c-7 1-6 29-5 54 1 17 3 48 15 88 8 25 8 19 26 72 6 19 15 46 10 78 0 1 7 27 3 45-6 36-7 58-1 67 12 17 20 36 34 61 2 4 7 40 4 86 0 1 14 167 27 167 15 1 9-119 2-178-8-64-32-83-36-144-4-49-2-50-2-108-1-25 1-52-26-127-53-151-46-162-51-161zM5171 4484c-6 2-2 50 2 94 2 30 8 83 25 156 10 45 10 35 34 130 8 34 20 82 19 137 0 1 9 48 8 79-3 62-2 101 6 117 14 32 25 66 42 113 2 7 11 70 13 149 0 2 33 293 46 297 15 3-4-206-18-310-15-113-41-151-52-258-10-86-7-87-14-189-3-43-5-89-40-225-72-273-66-291-71-290z"/>
  <path class="st15" d="M6979 6732c-486-443-711-1215-773-1412-125-170-493-665-548-794-63-129 62-125 33-222-30-100-120-138-109-171 14-40 151-9 337 0 339 16 381-65 630-24 44 7 120 23 226 18 88-4 159-19 205-32l-1 2637zM8 6732c486-443 711-1215 773-1412 125-170 493-665 548-794 63-129-62-125-33-222 30-100 120-138 109-171-14-40-151-9-337 0-339 16-381-65-630-24-44 7-120 23-226 18-88-4-159-19-205-32l1 2637z"/>
  <path class="st16" d="M6363 4897l35-182 64 182zM6705 2479l35-182 64 182zM6281 4328l35-182 64 182zM6755 3088l35-182 64 182zM5626 2768l35-182 64 182zM5914 4419l22-116 41 116zM6125 2702l22-116 41 116zM6381 3228l22-116 41 116zM6059 3383l22-116 41 116zM5644 3299l22-116 41 116zM5839 2929l22-116 41 116zM5870 4715l22-116 41 116zM6773 4806l22-116 41 116zM5870 3858l22-116 41 116zM6496 5756l22-116 41 116zM6890 6539l22-116 41 116zM6156 5105l22-116 41 116zM5340 2524l22-116 41 116zM6543 3916l22-116 41 116zM6577 5198l22-116 41 116zM6496 2794l22-116 41 116zM6574 4510l35-182 64 182zM6754 5847l35-182 64 182zM6804 5360l35-182 64 182zM6478 5505l35-182 64 182zM6754 6304l35-182 64 182zM5791 4183l20-104 37 104zM6727 3663l20-105 37 105zM291 2593l-35-182-64 182zM241 3202l-35-182-64 182zM1370 2882l-35-182-64 182zM871 2816l-22-116-41 116zM615 3342l-22-116-41 116zM937 3497l-22-116-41 116zM1352 3413l-22-116-41 116zM1157 3043l-22-116-41 116zM1126 3972l-22-116-41 116zM1656 2638l-22-116-41 116zM453 4030l-22-116-41 116zM500 2908l-22-116-41 116zM269 3777l-20-105-37 105zM1091 2385l-20-105-37 105zM6854 4186l35-182 64 182zM609 4949l-35-182-64 182zM691 4380l-35-182-64 182zM1058 4471l-22-116-41 116zM1102 4767l-22-116-41 116zM199 4858l-22-116-41 116zM816 5157l-22-116-41 116zM223 6271l-22-116-41 116zM395 5250l-22-116-41 116zM223 5852l-22-116-41 116zM398 4562l-35-182-64 182zM168 5412l-35-182-64 182zM494 5557l-35-182-64 182zM439 6004l-35-182-64 182zM1181 4235l-20-104-37 104zM118 4238l-35-182-64 182z"/>
  <path transform="rotate(-145 6106 814)" class="st17" d="M5971 746h268v136h-268z"/>
  <path class="st18" d="M6148 928l-25-18 77-112 26 18zM6080 880l-25-18 77-112 26 19zM6009 830l-25-18 77-112 26 19z"/>
  <path transform="rotate(-145 6105 815)" class="st19" d="M5971 747h268v136h-268z"/>
  <path transform="scale(-1) rotate(33 2401 -19965)" class="st20" d="M5942 706h60v25h-60z"/>
  <path transform="rotate(37 5460 389)" class="st17" d="M5326 321h268v136h-268z"/>
  <path class="st18" d="M5420 274l25 19-80 110-26-19zM5487 324l25 18-80 110-26-19zM5557 375l25 19-80 110-26-19z"/>
  <path transform="rotate(37 5460 388)" class="st19" d="M5326 320h268v136h-268z"/>
  <path transform="rotate(35 5592 488)" class="st20" d="M5561 475h60v25h-60z"/>
  <ellipse transform="rotate(-61 5786 599)" class="st21" cx="5786" cy="599" rx="124" ry="217"/>
  <path class="st21" d="M5761 441c-25-5 72-41 142 1 71 43 72 143 50 118-31-38-48-92-192-119z"/>
  <path class="st18" d="M5762 669l-133 173-13-10 119-189c31 0 27 26 27 26z"/>
  <ellipse transform="rotate(-83 5621 839)" class="st17" cx="5621" cy="839" rx="20" ry="19"/>
  <path class="st22" d="M729 456c-171 81-74 156-74 156 124 81 200 0 200 0 76 118 209 0 209 0 100 118 201 0 201 0 192-59 40-139 40-139-42-124-154-42-154-42-118-122-220-33-220-33-75-47-143-32-202 58zM6356 229c-131 62-57 119-57 119 95 62 153 0 153 0 58 90 160 0 160 0 76 90 153 0 153 0 147-45 31-106 31-106-32-95-118-32-118-32-90-94-168-25-168-25-57-36-109-24-154 44zM5009 926c-84 40-36 77-36 77 61 41 99 0 99 0 37 59 103 0 103 0 50 59 99 0 99 0 95-29 20-68 20-68-21-62-76-21-76-21-58-61-109-17-109-17-37-23-71-15-100 29zM2898 933c-65 31-28 59-28 59 47 31 76 0 76 0 29 45 79 0 79 0 38 45 76 0 76 0 73-22 16-53 16-53-17-47-59-16-59-16-45-46-84-12-84-12-28-18-54-12-76 22zM378 1000c-84 40-36 77-36 77 61 41 99 0 99 0 37 59 103 0 103 0 49 59 99 0 99 0 95-29 20-68 20-68-21-62-76-21-76-21-58-61-109-17-109-17-37-23-71-15-100 29zM1817 337c-84 40-36 77-36 77 61 41 99 0 99 0 37 59 103 0 103 0 49 59 99 0 99 0 95-29 20-68 20-68-21-62-76-21-76-21-58-61-109-17-109-17-37-23-71-15-100 29zM3663 254c-200 95-86 183-86 183 146 96 236 0 236 0 88 139 245 0 245 0 118 139 237 0 237 0 225-69 47-163 47-163-50-147-181-50-181-50-139-144-260-39-260-39-88-55-168-37-238 69z"/>
</svg>
