<svg version="1" id="Layer_1" xmlns="http://www.w3.org/2000/svg" viewBox="0 0 400 400">
  <style>
    .st1{fill:#af6650}.st3{fill:#4496c3}.st4{fill:#fff}.st6{opacity:.12}.st7{fill:#633f86}.st8{fill:#f5ceb0}.st9{fill:#d2b5a1}.st10{fill:#534741}.st11{fill:#333}.st14{fill:#f4cdaf}.st15{fill:#3b2c24}.st16{fill:#59595b}.st17{fill:#fcd25a}.st18{fill:#899499}.st19{fill:#a1ccdd}.st20{fill:#0ea79b}.st22{fill:#184462}.st25{fill:#c2d69f}.st28{opacity:.1}
  </style>
  <radialGradient id="SVGID_1_" cx="200" cy="568" r="200" gradientTransform="translate(0 -368)" gradientUnits="userSpaceOnUse">
    <stop offset="0" stop-color="#365dff"/>
    <stop offset="1" stop-color="#825ee4"/>
  </radialGradient>
  <path fill="url(#SVGID_1_)" d="M0 0h400v400H0z"/>
  <g>
    <path class="st1" d="M131 158c3 1 5 3 5 6l2-5c0-2-2-4-3-5l-4 4z"/>
    <path d="M182 150h-31c-11 0-21-10-21-22s10-22 21-22h31v44z" fill="#f0f0f0"/>
    <path class="st3" d="M183 150h60c9 0 17-7 17-17v-10c0-9-8-17-17-17h-60v44z"/>
    <path class="st4" d="M196 121h1v14h-2v-7h-6v7h-1v-15l1 1v6h7v-6zM201 121h7v1h-5v5h5v1h-5v6h6v1h-8v-14zM214 121h2l5 14h-2l-1-4h-5l-2 4h-1l4-14zm1 1l-2 7h4l-2-7zM223 135v-14h2v13h5v1h-7zM229 122v-1h9v1h-3l-1 13h-1v-13h-4zM248 121h2v14h-2v-6h-6v6h-2v-14h2v6h6v-6z"/>
    <g>
      <path class="st3" d="M171 124h-9v-6-3h-6v9h-9v7h9v9h6v-8-1h9v-1-5-1z"/>
    </g>
    <g>
      <path d="M326 130l-9 2-2-1-24 6-1 1-9 2 2 10 9-2 2 1 24-6 1-1 9-2-2-10z" fill="#55367d"/>
      <path d="M284 140l2 9h3l-4-10z"/>
      <path class="st7" d="M285 163h-2c-2 1-4-1-4-3l-7-27c0-2 1-4 3-5h2c2 0 4 1 5 3l6 27c0 2-1 4-3 5z"/>
      <path class="st7" d="M276 165h-2c-2 1-4-1-5-3l-6-27c0-2 1-4 3-4l2-1c2 0 4 1 4 3l7 27c0 2-1 4-3 5z"/>
      <path class="st7" d="M267 154h-1l-2-2-1-5 1-3h1c1-1 2 0 2 1l1 6c1 2 0 3-1 3z"/>
      <g>
        <path class="st7" d="M331 152h2c2-1 3-3 3-5l-7-27c0-2-2-3-4-3l-2 1c-2 0-3 2-3 4l6 28c1 1 3 3 5 2z"/>
        <path class="st7" d="M340 150h2c2-1 3-3 3-5l-7-27c0-2-2-3-4-3l-2 1c-2 0-3 2-3 4l7 27c0 2 2 4 4 3z"/>
        <path class="st7" d="M343 136h1l1-2-2-6-1-1-1-1-2 3 2 6c0 1 1 2 2 1z"/>
      </g>
    </g>
    <g>
      <path class="st8" d="M97 159l1-5h-2l-1 3-1-1v4l2 1z"/>
      <path class="st9" d="M69 182l17-5 8-18 3 1-4 24-19 10z"/>
      <path class="st10" d="M73 227v6l7 25-1 27 4 1 8-33v-9l-4-20z"/>
      <path class="st10" d="M79 234l-8 54h-4l-2-30-5-29z"/>
      <path class="st11" d="M83 286l3 4-1 2-7-4 1-2zM71 289l5 3-1 2-8-2v-3z"/>
      <g>
        <path class="st8" d="M83 168c-3 0-6-3-9-2-2 0-3 2-4 4v3l1 2 2 1-2 2 5 2 1-3h1c3-1 5-3 5-6v-3z"/>
        <path fill="#4d4d4d" d="M83 169l-10-2-2 8-3-2 2-13h13l6 4v3l-5 4z"/>
      </g>
      <g>
        <path class="st9" d="M79 181l-12-5-10 28c-5 17 1 40 1 40l38-8-10-33-7-22z"/>
      </g>
      <g>
        <path d="M110 123c-4-1-10 2-11 6-2-4-9-7-13-6-12 1-16 14-11 23l11 13 13 10 13-10c4-4 8-8 10-13 5-9 0-22-12-23z" fill="#cf225a"/>
        <path d="M120 147l-10 10c-4 3-8 5-13 6h-6l8 6 13-10 11-13 1-5-4 6z"/>
        <path class="st4" d="M120 143h-10l-3-12h-1l-7 22-1 1a12289 12289 0 0 0-7-17l-3 7H77v2l11-1h1l3-6 5 15 1 2h1l7-21v-2l3 11 1 1 10-1v-1z"/>
      </g>
      <g>
        <path class="st8" d="M102 162v-5h-2l-1 3-1-1v4l2 1z"/>
        <path class="st9" d="M74 185l17-5 7-18 4 1-4 24-19 11z"/>
      </g>
    </g>
    <g>
      <path class="st14" d="M320 179l4-1v-3l3-1 1-3v-6l-6-3c-3 0-6 1-7 3s0 5 1 7l1 3 2 1 1 3z"/>
      <path class="st15" d="M311 161l-1-4v-2l2-2h3l3-1 5 2c3 1 5 0 7 3v1l2 2c2 3 1 8-2 10l-3 3c1-2 0-8-2-8h-3l-4 1-6 1c0 1 0 1 0 0h-1v-6zM343 288v2l-4 4-3-2 2-3 4-3z"/>
      <path class="st16" d="M333 213l2 8-3 34 11 32-5 2-20-37-3-12-1-25z"/>
      <path class="st16" d="M304 216v32l6 41h5l2-38 7-38z"/>
      <path class="st15" d="M314 288v3l-4 2-3-2 3-3z"/>
      <g>
        <path class="st17" d="M338 222l-1 7-6-4-6-2-10-1-8 1h-7a15 15 0 0 1-6-2l1-4 3-4 3-9 5-12 3-8c2-2 3-6 6-6l2-1h11l2 3 6 18a219 219 0 0 1 2 21v3z"/>
      </g>
      <g>
        <path class="st4" d="M321 191l1 5 3 26h-20v-10l1-6 4-10 8-17v-1l1-1h7l-2 7-3 7z"/>
      </g>
      <g>
        <path class="st17" d="M308 188l-9-15-3-23h4l6 20 9 9z"/>
      </g>
      <g>
        <path class="st14" d="M300 150v-2l1-1v-2h-1l-1 3-3 1v1z"/>
      </g>
      <g>
        <path class="st14" d="M313 205l-2 1-2-1v1h-2l-1 2 2 2h1l2-1 3-1z"/>
        <path class="st17" d="M311 205l12-6 1-14 9 4-2 16-18 4z"/>
      </g>
    </g>
    <g>
      <path class="st18" d="M180 228l2 22 5 36h4l3-33 1-27z"/>
      <path class="st15" d="M191 286v2l-4 2-3-2 3-2z"/>
      <path class="st18" d="M209 223l-2 31-3 35h-4l-4-33-5-36z"/>
      <path class="st15" d="M200 288v3l4 2 3-2-3-3z"/>
      <path class="st14" d="M195 174l4-1v-3l3-2v-1l-1-5-1-2-2-1c-3-1-6 0-8 2l-1 1v3a287 287 0 0 0 3 6h2l1 3z"/>
      <path class="st15" d="M181 158v-3l4-3c4 0 8-2 12-1l7 2 2 2a9 9 0 0 1-2 11l-3 3v-6c-2-2-5-1-7-1l-6 2-4-1c-2-1-3-3-3-5z"/>
      <g>
        <path class="st14" d="M219 153l1-2-1-2v-1l1 1v-4h3l2 1v2l-2 3-1 3z"/>
        <path class="st19" d="M219 152h4l-4 20-11 12-5-13 10-5z"/>
      </g>
      <g>
        <path class="st14" d="M174 157v-3l1-2h-1v-2l-1-2h-2l-2 1v2l1 3 1 3z"/>
        <path class="st19" d="M175 155h-5l5 20 12 13 5-14-11-5z"/>
      </g>
      <g>
        <path class="st19" d="M191 173h14l7 26 5 36-43 1 10-50z"/>
      </g>
    </g>
    <g>
      <path class="st14" d="M157 179l2-1v-3 1l1-2 1-1 2 1 1 2-1 1-2 2-2 2z"/>
      <path class="st20" d="M158 177l-10 11-12-12-2 14 15 7 12-17z"/>
      <path class="st10" d="M121 286v2l4 2 2-2-2-2-4-2z"/>
      <path class="st9" d="M121 226v6l5 20-5 33 4 1 9-32 2-9v-20z"/>
      <path class="st9" d="M149 232l-7 56h-4v-36l-7-25z"/>
      <path class="st10" d="M138 287v2l4 2 2-2-2-2z"/>
      <path class="st20" d="M141 176l-1-1c-4-2-10-1-13-1-1 12-5 23-7 35l-7 36 12 1c10 0 23 0 33-3-6-17-8-35-13-53l-3-9-1-5z"/>
      <path class="st14" d="M141 162c-1-7-10-6-12 0-2 3 0 8 3 10v3l3-1h1v-1h1c2-1 4-3 4-5v-6z"/>
      <g>
        <path class="st1" d="M128 190h1c1 0 4-1 4-3v-6l-1-8 2-7 5-6 1-2-1-3-4-2c-6 0-10 3-12 9-2 8 1 16 0 24l-1 4h6z"/>
      </g>
      <g>
        <ellipse transform="rotate(-81 136 202)" class="st19" cx="136" cy="202" rx="27" ry="27"/>
        <circle class="st4" cx="136" cy="202" r="24"/>
        <path d="M134 203l1 1 22 1 1-1-1-1-22-1-1 1z" fill="#ce2747"/>
        <path class="st22" d="M137 201v-12l-1-1-1 1v12l-1 1a2 2 0 0 0 4 0l-1-1z"/>
      </g>
      <g>
        <path class="st20" d="M117 221l-2 1-2-1-2-2-1-2v-1l1-1h1v1c1 1 6 3 5 5z"/>
        <path class="st14" d="M114 221h2v-1h-1l2-1v-2l-2-1-2-1c-1 2-2 3-1 4l1 1 1 1z"/>
      </g>
    </g>
    <g>
      <path class="st18" d="M250 175c-3 2-6 7-7 11-4 9-6 18-6 27v30c7-3 14-6 21-7 6-2 14-3 21-1-2-17-5-33-10-49l-2-6c0-2-2-2-4-3l-1-2h-12z"/>
      <path class="st8" d="M240 227l8 30v22l3 1 2-21 3-38z"/>
      <path class="st10" d="M251 281l1 2-1 5h-2l-2-7 1-1z"/>
      <path class="st8" d="M269 223v27l-3 37h-4l-1-34-7-31z"/>
      <path class="st10" d="M266 286l4 3v2l-8-1v-3z"/>
      <path class="st1" d="M270 227l2 30-2 21-10-1-2-23-4-26 1-4h14z"/>
      <path class="st1" d="M255 255l-1 22-9-1 1-21-6-25 1-8 15 1z"/>
      <path d="M275 227l-32 4c-1-16 1-34 5-49 0-3 1-6 4-7 2-2 8-2 9 1 3 5 3 11 4 16 3 11 8 24 10 35z" fill="#edf8f4"/>
      <g>
        <path class="st14" d="M250 164c2-7 10-6 12 0 1 3-1 8-4 10v2h-3-1v-2l-4-5v-5z"/>
        <path class="st10" d="M251 165v7c1 1 1 3-1 3l-4-1v-4l2-1v-1-3-2l2-3c1-2 4-4 6-2v1l1 1c-1 2-2 2-3 2l-3 3z"/>
        <path class="st10" d="M261 167v3l1 1 1 4 6 1 1-2v-4l-1-1c-1-3 1-7-1-9l-3-2-5-4c-4-2-8 2-7 6 2 3 9 3 8 7z"/>
      </g>
      <g>
        <path class="st18" d="M250 176s-2 39 4 47l8 10-25 10s1-56 13-67z"/>
      </g>
      <g>
        <path class="st25" d="M273 164h3v10c0 1 1 8-2 5-2-1-1-3-1-5v-10z"/>
        <path d="M274 181l5-24s2-1 3 1c1 3-5 22-5 22l-3 1z" fill="#b7c98c"/>
        <path class="st25" d="M274 181l9-19s2-1 2 2-8 16-8 16l-3 1z"/>
        <path d="M227 236l9-3c14-6 28-15 37-28 3-6 8-13 7-20-1-10-10-11-16-6-4 3-7 9-10 13l-11 17c-7 9-16 18-26 23-1 1-3 3-2 4 0 3 6 2 12 0z" fill="#fd9025"/>
        <path d="M263 205l-1-2-5-5-3-5c-2 3-2 3 1 6 1 2 2 3 4 3l4 3zM258 209v-1l1 1c1 2 3 4 5 4l1 1-1 1h-1l-2-2-3-4z"/>
        <g class="st28">
          <path d="M258 195l2 1v-1l-4-6c-2 1 1 5 2 6z"/>
        </g>
        <g class="st28">
          <path d="M235 227v-1l3 4 2 1-2 1-2-2-1-2v-1z"/>
        </g>
      </g>
      <g>
        <path class="st18" d="M243 209v-2-2l2-3 1-1h1l1 1v1c-1 2-2 7-5 6z"/>
        <path class="st14" d="M243 206v2h1v-1l2 2 2-1 1-2-1-2c-1-1-2-2-3 0l-1 1-1 1z"/>
      </g>
      <g>
        <path class="st18" d="M276 200l1 2-1 2-2 2-1 1-2-1v-1h-1l1-1c1-1 3-6 5-4z"/>
        <path class="st14" d="M276 202v-1-1 1l-2-2h-2l-1 2v3l3 1 1-1 1-2z"/>
      </g>
    </g>
  </g>
</svg>
