<svg version="1" id="Layer_1" xmlns="http://www.w3.org/2000/svg" viewBox="0 0 400 400">
  <style>
    .st2{fill:#2f3787}.st3{fill:#424dbf}.st6{fill:#f4cdaf}.st7{fill:#f6d5d5}.st8{fill:#242449}.st9{fill:#ffbfa4}.st10{fill:#f6f6f6}.st11{fill:#f17187}.st12{opacity:.03}.st15{fill:#ffd200}.st19{fill:ivory}.st20{opacity:.1}.st21{fill:#30353d}.st22{fill:#babcbe}.st23{fill:#fff}.st24{opacity:.12}.st25{fill:#27348c}
  </style>
  <radialGradient id="SVGID_1_" cx="200" cy="200" r="200" gradientUnits="userSpaceOnUse">
    <stop offset="0" stop-color="#fbb140"/>
    <stop offset="1" stop-color="#fb6340"/>
  </radialGradient>
  <linearGradient id="SVGID_2_" gradientUnits="userSpaceOnUse" x1="-1" y1="200" x2="401" y2="200">
    <stop offset="0" stop-color="#fff"/>
    <stop offset="1"/>
  </linearGradient>
  <path fill="url(#SVGID_1_)" stroke="url(#SVGID_2_)" stroke-miterlimit="10" d="M0 0h400v400H0z"/>
  <g>
    <path class="st2" d="M146 100c-17 5-27-4-28-5-1 2-10 10-29 7 0 0-1 32 9 45 12 14 22 18 22 18s9-4 20-19c10-14 6-46 6-46z"/>
    <path class="st3" d="M144 104c-16 4-25-4-26-5-1 1-9 9-26 6 0 0-2 29 8 40 11 13 20 17 20 17s8-5 18-18c9-12 6-40 6-40z"/>
    <path d="M139 112c-12 3-20-3-21-4-1 1-8 7-21 5 0 0 0 22 8 31s14 12 14 12 7-3 14-13c7-9 6-31 6-31z" fill="#5966d6"/>
    <path class="st6" d="M121 166l-2-2v-2h-1l-1-2-1-1-2 1-1 2 1 2 2 1 3 3z"/>
    <path class="st7" d="M121 164l-4 4 10 14 3 2 15-12-4-9-11 10z"/>
    <path class="st8" d="M168 277l1 2-4 3-3-1 2-3 4-4z"/>
    <path class="st3" d="M154 203l4 10 1 30 9 33-4 2-20-38-2-12-1-25z"/>
    <path class="st3" d="M131 205v32l6 40h4l3-37 7-38z"/>
    <path class="st8" d="M141 277v2l-5 3-2-3 2-2z"/>
    <path class="st7" d="M140 163l12-1s8 6 11 23c4 17 0 41 0 41l-38-5 8-33 7-25z"/>
    <g>
      <path class="st9" d="M145 164l4-1v-3l2-2v-1l-1-5v-2l-3-1c-2-1-5 0-7 1l-1 2v3l1 3 2 3h1l2 3z"/>
      <path class="st8" d="M131 148v-3l4-3c4 0 8-2 11-1l7 2 2 2a9 9 0 0 1-1 11l-4 3c0-2 2-5 1-6-2-2-5-1-7-1l-6 2-5-1c-2-1-2-3-2-5z"/>
    </g>
    <path class="st10" d="M144 164l-13 51-1 7 16 2-1-28c1-3 3-10 3-18 0-4 2-12 1-15l-5 1z"/>
    <g>
      <path class="st6" d="M132 191l-3 1-2-1v1l-2-1-2 1v3l1 2h2l3-1 4-1z"/>
      <path class="st7" d="M130 191l13-3h4c1-1 2-1 2-3l1-14 5-1c3 0 2 2 3 5v8c0 2 1 11-3 12l-25 2v-6z"/>
    </g>
    <g>
      <path class="st6" d="M96 169l2-2v-2l1 1v-2l1-1 2 1 1 1-1 2-2 1-2 3z"/>
      <path class="st10" d="M97 166l-9 11-12-11-2 13 14 8 12-17z"/>
      <path class="st8" d="M57 275v2l3 2 2-2-1-2-4-2z"/>
      <path class="st9" d="M57 215v6l5 20-5 33 4 1 9-32 2-9v-20z"/>
      <path class="st9" d="M85 222l-8 55h-3l-1-36-6-24z"/>
      <path class="st8" d="M74 276v2l4 2 2-2-2-2z"/>
      <path class="st10" d="M77 165l-2-1c-3-2-9 0-13 0-1 12-4 23-6 34l-7 37h12c10 0 23 0 33-3-6-17-9-35-14-52l-2-9-1-6z"/>
      <path class="st8" d="M72 148c2 1 5 3 5 6l2-5-4-5-3 4z"/>
      <path class="st9" d="M77 152c-1-7-10-6-12-1-2 4 0 8 2 11l1 2h3l1-1h1l4-5v-6z"/>
      <g>
        <path class="st11" d="M64 187a5 5 0 0 1 0-5h1v4l1-1 2 1v2h-2l1 1h2v-1l1-4 5-6c4-3 9-6 14-7h1l11 1c0-2 1-3 2-3 3-2 7-3 9-1l-4 7c3 2 6 4 8 8l4 1s2 7 1 10l-5 2-7 8-1 1 1 6-7 2-2-4a30 30 0 0 1-9 1v5h-8l-1-6a18 18 0 0 1-13-17l-3-1-2-2v-2z"/>
        <path class="st7" d="M99 172l-1 3s-7-1-14 2l-2-1s6-6 17-4z"/>
        <path class="st12" d="M71 194c3 5 9 8 14 10l13 1a39 39 0 0 0 18-7l-6 6-13 5c-13 2-25-4-27-15h1zM118 183s3 7-1 12h2s2-8-1-12z"/>
        <g>
          <path d="M95 150a7 7 0 1 0 3 14 7 7 0 0 0-3-14z" fill="#ffa122"/>
          <path class="st15" d="M95 148a9 9 0 1 0 3 18 9 9 0 0 0-3-18zm3 16a7 7 0 1 1-3-14 7 7 0 0 1 3 14z"/>
          <g>
            <path class="st15" d="M94 160v-1h4v-1-1h-2-2l-1-2 1-1 2-1h1l1 1h-3l-1 1 1 1h3l1 1v2l-2 1h-1-2z"/>
            <path class="st15" d="M97 162v-1l-2-9h1l2 9-1 1z"/>
          </g>
        </g>
      </g>
      <g>
        <path class="st6" d="M68 190l2 1 2-1h1l-1 1h4v2l-1 2h-2l-2-1-4-1z"/>
        <path class="st10" d="M62 188l-2-3 1-4-1-12c-1-4-5 1-6 3v6l-1 8c0 2 0 6 2 7h1l12 1 1-4-7-2z"/>
      </g>
      <path class="st8" d="M64 180v-1c2 0 4 0 5-2s0-5-1-6v-8c0-3 0-5 2-7l4-6 2-2-1-3c-1-2-2-2-4-2-6 0-10 3-12 9-2 8 1 16 0 24l-1 4h6z"/>
    </g>
    <g>
      <path fill="#f5ceb0" d="M307 141l-1-5 2-1 1 4 1-1v4l-2 1z"/>
      <path fill="#7eacf1" d="M336 165l-17-5-9-19-4 1 5 26 20 11z"/>
      <path class="st2" d="M333 213v7l-8 27 2 28-6 1-8-34v-11l4-20z"/>
      <path class="st2" d="M326 221l9 58h4l2-32 5-32z"/>
      <path class="st8" d="M322 277l-4 4 1 2 9-4-2-3zM335 280l-5 3v2l10-1-1-4z"/>
      <g>
        <path class="st9" d="M321 150c4 0 7-3 10-2s4 2 5 5v3l-1 2-2 1 1 2-4 2-1-3h-2c-3-1-5-3-5-6l-1-4z"/>
        <path class="st8" d="M322 151l11-1 2 8 3-3-2-13h-15l-6 4v3l6 4z"/>
      </g>
      <path class="st10" d="M326 164l13-5s6 13 11 30-2 43-2 43l-40-9 11-35 7-24z"/>
      <g>
        <path class="st11" d="M328 126l-4-4v-2l-3-8c-1-3-2-7-5-7l-30-4c-4-1-7 1-9 4l-6 11-1-1-10 2c-4 2-7 5-7 9l-1 6 77 10 1-9c0-2 0-5-2-7z"/>
        <path class="st7" d="M299 118l20 2-3-12-1-1-14-1-2 12zM297 105l-11-1c-3-1-5 1-7 3l-5 8 22 2 1-12z"/>
        <path class="st20" d="M281 136v-1c1-4-2-7-7-8l-4 1a15 15 0 0 1 8 7l3 1zM321 141v-1c1-4-2-7-6-8l-5 1a14 14 0 0 1 8 7l3 1z"/>
        <ellipse transform="rotate(-38 272 134)" class="st21" cx="272" cy="134" rx="7" ry="7"/>
        <ellipse transform="rotate(-51 272 134)" class="st19" cx="272" cy="134" rx="4" ry="4"/>
        <path class="st20" d="M272 137l2-1-1 1a4 4 0 0 1-2 0l-1-1h1l1 1z"/>
        <g>
          <ellipse transform="rotate(-38 312 139)" class="st21" cx="312" cy="139" rx="7" ry="7"/>
          <path class="st19" d="M310 142a4 4 0 1 1 4-7 4 4 0 0 1-4 7z"/>
          <path class="st20" d="M312 142l3-1-2 1a4 4 0 0 1-2 0l-1-1h1l1 1z"/>
        </g>
        <path class="st20" d="M292 122h-2v-1l1-1 2 1-1 1z"/>
      </g>
      <g>
        <path class="st9" d="M303 143v-5h2l1 3v4h-2z"/>
        <path class="st10" d="M331 170l-18-6-6-21-4 2 2 25 20 13z"/>
      </g>
    </g>
    <g>
      <path class="st22" d="M287 191l2 1 1 3v4l-2 1-1-1-1-1c0-1-1-7 1-7z"/>
      <path class="st6" d="M289 193l-1-1h-1l1 1h-2l-2 1v2l2 2c1 0 3 0 3-2v-1-2z"/>
    </g>
    <g>
      <path class="st9" d="M270 165h5v-4l2-1 1-3v-7l-6-2c-2 0-6 1-7 3s0 5 1 8l1 2 2 1 1 3z"/>
      <path class="st8" d="M261 147l-1-5v-2l2-1 3-1h3l5 2c3 0 6-1 7 2l1 2 1 2c2 3 2 8-1 10l-3 3c0-2-1-8-3-9l-3 1-4 1-6 1h-1v-6z"/>
      <g>
        <path class="st22" d="M260 170s-14 18-21 22l-1 1v1l-1 3 1 2 1 2c1 0 2-1 2-3l14-10 6-18h-1z"/>
        <path class="st8" d="M294 278v3l-4 4-3-2 2-3 4-4z"/>
        <path class="st8" d="M284 201l1 7-2 36 11 33-5 3-21-39-3-13-1-26z"/>
        <path class="st8" d="M254 204v33l6 42h5l3-39 6-39zM265 279v2l-6 3-2-3 2-2z"/>
        <path class="st22" d="M289 210l-1 7-6-4-7-2-10-1-8 1h-7c-2 0-5 0-7-2l2-4 2-4 4-9 5-13 3-9c1-2 3-5 6-6l2-1h8l3 1c2 0 2 2 3 3l6 18a219 219 0 0 1 2 22v3z"/>
        <path class="st23" d="M272 178v4l4 28h-22l1-11 1-6 4-10 8-18v-1h2l6-1c1 2-1 5-2 7l-2 8z"/>
        <g>
          <path class="st3" d="M274 223h-20c-7 0-14-6-14-14v-7c0-8 7-14 14-14h20c8 0 15 6 15 14v7c0 8-7 14-15 14zM275 186v-7l-1-1h-19l-1 1v7c-1 0-2 0-2 2h6c0-2-1-2-2-2v-6h16v6c-1 0-2 0-2 2h7l-2-2z"/>
          <g class="st24">
            <path d="M285 216l-6 3-8 1h-31l3 3h41c3 0 5-2 5-4v-7l-4 4z"/>
          </g>
          <path class="st23" d="M276 202h-8-1v-6-3h-6v9h-9v6h9v8l1 1h5v-1-7-1h9v-1-5z"/>
        </g>
        <g>
          <path class="st6" d="M238 199l1 1h1l-1-1h2l2-1v-2l-1-2-4 1v4z"/>
        </g>
      </g>
    </g>
    <g>
      <path class="st9" d="M249 173l3-2-1-2-2 1-1-1-2 3v1z"/>
      <path class="st11" d="M246 171l2 3-15 9-7 4-13-3-3-3 1-4c1-2 3-3 6-3h2l2-3 3 7 22-7z"/>
      <path class="st11" d="M218 154c-4 0-8 5-11 8-7 8-12 16-15 26l-6 16-4 15 23-1c8 1 16 3 22 7 4-18 6-36 7-53v-7l-2-5-2-2c-3-3-8-4-12-4z"/>
      <path class="st9" d="M191 213l8 33v24l4 1 2-22 4-42z"/>
      <path class="st8" d="M203 272l1 2v5h-4l-1-7 1-1z"/>
      <path class="st9" d="M222 210l1 28-4 40h-4l-1-36-8-34z"/>
      <path class="st8" d="M219 277l5 3v3l-10-2 1-3z"/>
      <path class="st23" d="M223 213l3 33-3 23-10-1-2-26-5-27 1-5h15z"/>
      <path class="st23" d="M207 244l-1 23h-9v-23l-6-28 2-7 15 1z"/>
      <path class="st10" d="M225 216c-9-2-24-6-34-7 5-16 13-34 22-49 2-2 4-5 7-6 3 0 8 2 9 5 1 5-1 13-2 18-1 12 0 27-2 39z"/>
      <g>
        <path class="st9" d="M223 143c4-6 12-2 12 4 1 4-3 8-7 9l-1 3-3-1-1-1 1-2-3-6 2-6z"/>
        <path class="st25" d="M224 145c-2 2-2 4-2 6s-1 4-3 3l-4-2 2-3 2-1 1-1 1-3v-3l3-2c2-2 6-3 7 0v3l-3 1-4 2z"/>
        <path class="st25" d="M234 151l-2 2 1 2-1 4 6 2 1 1 2-2v-4-2c-1-3 3-6 2-8l-3-4-3-6c-3-3-10-1-9 4 0 4 7 6 6 11z"/>
      </g>
      <path class="st11" d="M218 155s-16 39-13 49l5 14-24 1s15-57 32-64z"/>
      <g>
        <path class="st8" d="M159 109h67v89h-67z"/>
        <path class="st10" d="M163 112h60v83h-60z"/>
        <path class="st10" d="M201 104h-1c0-3-2-5-5-5h-4c-3 0-5 2-5 5h-1c-3 0-5 2-5 4v6h26v-6c0-2-2-4-5-4zm-5 0h-7l-1-1 1-2h7l2 2-2 1z"/>
        <path class="st24" d="M180 111h26v2h-26z"/>
        <path class="st22" d="M171 142h45v1h-45zM171 151h45v1h-45zM171 160h45v1h-45zM171 169h45v1h-45zM211 179l-3 1v-1a3 3 0 0 0-4 5 3 3 0 0 0 4 1h2c2 0 3-1 3-3l-2-3zm-3 6l-3-1v-3a3 3 0 0 1 3-1h-1a3 3 0 0 0 1 5zm1-3l-1 2a2 2 0 0 1-1-3l1-1 1 2zm1 3h-1l1-3-1-2h1l2 2-2 3z"/>
        <g>
          <path class="st8" d="M171 121h1v6h-1v-6zM177 121h1v6h-1l-3-5v5-6l3 5v-5zM183 124v3h-2-1l-1-1 1-1 1 2 2-2h-1v-1h-2l-1-2 1-1h3v1l-1-1-2 1v1l1 1h2zM188 121h1v6h-1-1c-1 0 0 0 0 0h-2v-1-5 4l1 1a3 3 0 0 0 1 0h1v-5zM191 121h3v2l-1 1 1 1 1 2h-1l-1-2-1-1h-1v3-6zm0 3h2l1-1-1-1-1-1h-1v3zM197 121h1l2 6-1-2h-2l-1 2h-1l2-6zm1 1l-1 3h2l-1-3zM205 121h1v6h-1l-3-5v5h-1v-6h1l3 5v-5zM210 121l-2 1v1a11 11 0 0 0 0 3l2 1 1-2h1l-1 2h-1l-2-1-1-1v-1-1l1-1 2-1h1l1 1h-1l-1-1zM213 121h3-2v3h2-2v2h2v1h-3v-6zM184 135h-2v2-6h2l1 2-1 2zm-2-1h2l1-1-1-1h-2v2zM191 136l-1 1h-2l-1-1v-1l-1-1v-1l1-1v-1h2l2 1v4zm-2 1l1-1v-1a6 6 0 0 0 0-2v-1l-1-1-1 1-1 2 1 2 1 1zM193 137v-6 6h3-3zM197 131h1v6h-1v-6zM201 131l-1 1v1a11 11 0 0 0 0 3l1 1 2-2v2h-2l-1-1-1-1v-1-1l1-1 1-1h2v2l-2-2zM206 137v-2l-2-4h1l1 3 2-3-2 4v2z"/>
        </g>
      </g>
    </g>
  </g>
</svg>
