<svg version="1" xmlns="http://www.w3.org/2000/svg" xmlns:xlink="http://www.w3.org/1999/xlink" viewBox="0 0 800 800">
  <style>
    .st0{fill:url(#SVGID_1_)}.st1{opacity:.4;fill:url(#SVGID_2_)}.st2{fill:url(#SVGID_3_)}.st3{fill:url(#SVGID_4_)}.st4{fill:url(#SVGID_5_)}.st5{opacity:.4;fill:url(#SVGID_6_)}.st6{opacity:.7;fill:url(#SVGID_7_)}.st7{opacity:.4;fill:url(#SVGID_8_)}.st8{opacity:.7;fill:url(#SVGID_9_)}.st10,.st9{opacity:.4;fill:url(#SVGID_10_)}.st10{fill:url(#SVGID_11_)}.st11{fill:url(#SVGID_12_)}.st12{fill:url(#SVGID_13_)}.st13{fill:url(#SVGID_14_)}.st14{opacity:.6;fill:url(#SVGID_15_)}.st15{fill:url(#SVGID_16_)}.st16{fill:url(#SVGID_17_)}.st17,.st18{opacity:.6;fill:url(#SVGID_18_)}.st18{fill:url(#SVGID_19_)}.st19{fill:url(#SVGID_20_)}.st20{fill:url(#SVGID_21_)}.st21{fill:url(#SVGID_22_)}.st22{fill:url(#SVGID_23_)}.st23{fill:url(#SVGID_24_)}.st24{fill:url(#SVGID_25_)}.st25{fill:url(#SVGID_26_)}.st26{clip-path:url(#SVGID_28_)}.st27{opacity:.8;fill:#000043}.st27,.st28,.st29{clip-path:url(#SVGID_28_)}.st28{fill:#000043}.st29{display:none}.st30{fill:#000043}.st31{opacity:.48;fill:url(#SVGID_29_)}.st32,.st33,.st34,.st35{opacity:.5;clip-path:url(#SVGID_31_)}.st33,.st34,.st35{opacity:.1;fill:url(#SVGID_32_)}.st34,.st35{opacity:.2;fill:url(#SVGID_33_)}.st35{opacity:.4;fill:url(#SVGID_34_)}.st36,.st37,.st38,.st39,.st40{opacity:.2;clip-path:url(#SVGID_31_);fill:url(#SVGID_35_)}.st37,.st38,.st39,.st40{opacity:.1;fill:url(#SVGID_36_)}.st38,.st39,.st40{opacity:5.000000e-02;fill:url(#SVGID_37_)}.st39,.st40{opacity:.3;fill:url(#SVGID_38_)}.st40{opacity:.4;fill:url(#SVGID_39_)}.st41{fill:url(#SVGID_40_)}.st42{fill:url(#SVGID_41_)}.st43{fill:url(#SVGID_42_)}.st44{fill:url(#SVGID_43_)}.st45{fill:url(#SVGID_44_)}.st46{fill:url(#SVGID_45_)}.st47{fill:url(#SVGID_46_)}.st48{fill:url(#SVGID_47_)}.st49{fill:url(#SVGID_48_)}.st50{fill:url(#SVGID_49_)}.st51{fill:url(#SVGID_50_)}.st52{fill:url(#SVGID_51_)}.st53{fill:url(#SVGID_52_)}.st54{fill:url(#SVGID_53_)}.st55{fill:url(#SVGID_54_)}.st56{fill:url(#SVGID_55_)}.st57{fill:url(#SVGID_56_)}.st58{fill:url(#SVGID_57_)}
  </style>
  <g id="background">
    <linearGradient id="SVGID_1_" gradientUnits="userSpaceOnUse" x1="400" x2="400" y2="800">
      <stop offset="0" stop-color="#ffbd6a"/>
      <stop offset="1" stop-color="#00aaa2"/>
      <stop offset="1" stop-color="#1e7197"/>
    </linearGradient>
    <path class="st0" d="M0 0h800v800H0z"/>
    <linearGradient id="SVGID_2_" gradientUnits="userSpaceOnUse" x1="656" y1="366" x2="659" y2="376">
      <stop offset="0" stop-color="#fff"/>
      <stop offset="1" stop-color="#fff" stop-opacity="0"/>
    </linearGradient>
    <path class="st1" d="M663 371a5 5 0 0 1-11 0c0-3 3-5 5-5 3 0 6 2 6 5z"/>
    <linearGradient id="SVGID_3_" gradientUnits="userSpaceOnUse" x1="563" y1="555" x2="565" y2="562">
      <stop offset="0" stop-color="#fff"/>
      <stop offset="1" stop-color="#fff" stop-opacity="0"/>
    </linearGradient>
    <circle class="st2" cx="564" cy="558" r="4"/>
    <linearGradient id="SVGID_4_" gradientUnits="userSpaceOnUse" x1="646" y1="597" x2="649" y2="605">
      <stop offset="0" stop-color="#fff"/>
      <stop offset="1" stop-color="#fff" stop-opacity="0"/>
    </linearGradient>
    <path class="st3" d="M652 601c0 3-2 5-4 5-3 0-5-2-5-5 0-2 2-4 5-4 2 0 4 2 4 4z"/>
    <linearGradient id="SVGID_5_" gradientUnits="userSpaceOnUse" x1="659" y1="159" x2="661" y2="164">
      <stop offset="0" stop-color="#fff"/>
      <stop offset="1" stop-color="#fff" stop-opacity="0"/>
    </linearGradient>
    <circle class="st4" cx="660" cy="162" r="3"/>
    <linearGradient id="SVGID_6_" gradientUnits="userSpaceOnUse" x1="77" y1="653" x2="81" y2="664">
      <stop offset="0" stop-color="#fff"/>
      <stop offset="1" stop-color="#fff" stop-opacity="0"/>
    </linearGradient>
    <path class="st5" d="M85 658a6 6 0 1 1-12 0 6 6 0 0 1 12 0z"/>
    <linearGradient id="SVGID_7_" gradientUnits="userSpaceOnUse" x1="479" y1="111" x2="482" y2="121">
      <stop offset="0" stop-color="#fff"/>
      <stop offset="1" stop-color="#fff" stop-opacity="0"/>
    </linearGradient>
    <path class="st6" d="M486 116c0 3-2 5-5 5s-5-2-5-5 2-5 5-5 5 2 5 5z"/>
    <linearGradient id="SVGID_8_" gradientUnits="userSpaceOnUse" x1="330" y1="652" x2="332" y2="658">
      <stop offset="0" stop-color="#fff"/>
      <stop offset="1" stop-color="#fff" stop-opacity="0"/>
    </linearGradient>
    <circle class="st7" cx="331" cy="655" r="3"/>
    <linearGradient id="SVGID_9_" gradientUnits="userSpaceOnUse" x1="555" y1="165" x2="557" y2="173">
      <stop offset="0" stop-color="#fff"/>
      <stop offset="1" stop-color="#fff" stop-opacity="0"/>
    </linearGradient>
    <path class="st8" d="M561 169c0 3-2 5-5 5s-4-2-4-5c0-2 2-4 4-4s5 2 5 4z"/>
    <linearGradient id="SVGID_10_" gradientUnits="userSpaceOnUse" x1="105" y1="248" x2="108" y2="260">
      <stop offset="0" stop-color="#fff"/>
      <stop offset="1" stop-color="#fff" stop-opacity="0"/>
    </linearGradient>
    <path class="st9" d="M113 254a6 6 0 1 1-13 0 6 6 0 1 1 13 0z"/>
    <linearGradient id="SVGID_11_" gradientUnits="userSpaceOnUse" x1="162" y1="295" x2="163" y2="299">
      <stop offset="0" stop-color="#fff"/>
      <stop offset="1" stop-color="#fff" stop-opacity="0"/>
    </linearGradient>
    <circle class="st10" cx="162" cy="297" r="2"/>
    <linearGradient id="SVGID_12_" gradientUnits="userSpaceOnUse" x1="113" y1="419" x2="114" y2="423">
      <stop offset="0" stop-color="#fff"/>
      <stop offset="1" stop-color="#fff" stop-opacity="0"/>
    </linearGradient>
    <circle class="st11" cx="113" cy="421" r="2"/>
    <linearGradient id="SVGID_13_" gradientUnits="userSpaceOnUse" x1="205" y1="530" x2="206" y2="534">
      <stop offset="0" stop-color="#fff"/>
      <stop offset="1" stop-color="#fff" stop-opacity="0"/>
    </linearGradient>
    <circle class="st12" cx="205" cy="532" r="2"/>
    <linearGradient id="SVGID_14_" gradientUnits="userSpaceOnUse" x1="328" y1="423" x2="329" y2="427">
      <stop offset="0" stop-color="#fff"/>
      <stop offset="1" stop-color="#fff" stop-opacity="0"/>
    </linearGradient>
    <circle class="st13" cx="328" cy="425" r="2"/>
    <linearGradient id="SVGID_15_" gradientUnits="userSpaceOnUse" x1="480" y1="678" x2="481" y2="682">
      <stop offset="0" stop-color="#fff"/>
      <stop offset="1" stop-color="#fff" stop-opacity="0"/>
    </linearGradient>
    <circle class="st14" cx="480" cy="680" r="2"/>
    <linearGradient id="SVGID_16_" gradientUnits="userSpaceOnUse" x1="578" y1="771" x2="579" y2="775">
      <stop offset="0" stop-color="#fff"/>
      <stop offset="1" stop-color="#fff" stop-opacity="0"/>
    </linearGradient>
    <circle class="st15" cx="578" cy="773" r="2"/>
    <linearGradient id="SVGID_17_" gradientUnits="userSpaceOnUse" x1="576" y1="724" x2="577" y2="728">
      <stop offset="0" stop-color="#fff"/>
      <stop offset="1" stop-color="#fff" stop-opacity="0"/>
    </linearGradient>
    <circle class="st16" cx="576" cy="726" r="2"/>
    <linearGradient id="SVGID_18_" gradientUnits="userSpaceOnUse" x1="617" y1="653" x2="618" y2="657">
      <stop offset="0" stop-color="#fff"/>
      <stop offset="1" stop-color="#fff" stop-opacity="0"/>
    </linearGradient>
    <circle class="st17" cx="617" cy="655" r="2"/>
    <linearGradient id="SVGID_19_" gradientUnits="userSpaceOnUse" x1="473" y1="538" x2="474" y2="540">
      <stop offset="0" stop-color="#fff"/>
      <stop offset="1" stop-color="#fff" stop-opacity="0"/>
    </linearGradient>
    <path class="st18" d="M474 539a1 1 0 0 1-2 0l1-1 1 1z"/>
    <linearGradient id="SVGID_20_" gradientUnits="userSpaceOnUse" x1="680" y1="234" x2="681" y2="236">
      <stop offset="0" stop-color="#fff"/>
      <stop offset="1" stop-color="#fff" stop-opacity="0"/>
    </linearGradient>
    <path class="st19" d="M681 235a1 1 0 0 1-2 0l1-1 1 1z"/>
    <linearGradient id="SVGID_21_" gradientUnits="userSpaceOnUse" x1="708" y1="259" x2="709" y2="261">
      <stop offset="0" stop-color="#fff"/>
      <stop offset="1" stop-color="#fff" stop-opacity="0"/>
    </linearGradient>
    <path class="st20" d="M709 260a1 1 0 0 1-2 0l1-1 1 1z"/>
    <linearGradient id="SVGID_22_" gradientUnits="userSpaceOnUse" x1="722" y1="211" x2="723" y2="213">
      <stop offset="0" stop-color="#fff"/>
      <stop offset="1" stop-color="#fff" stop-opacity="0"/>
    </linearGradient>
    <path class="st21" d="M723 212a1 1 0 0 1-2 0l1-1 1 1z"/>
    <linearGradient id="SVGID_23_" gradientUnits="userSpaceOnUse" x1="692" y1="195" x2="693" y2="197">
      <stop offset="0" stop-color="#fff"/>
      <stop offset="1" stop-color="#fff" stop-opacity="0"/>
    </linearGradient>
    <path class="st22" d="M693 196a1 1 0 0 1-2 0l1-1 1 1z"/>
    <linearGradient id="SVGID_24_" gradientUnits="userSpaceOnUse" x1="37" y1="760" x2="38" y2="762">
      <stop offset="0" stop-color="#fff"/>
      <stop offset="1" stop-color="#fff" stop-opacity="0"/>
    </linearGradient>
    <path class="st23" d="M38 761a1 1 0 0 1-2 0l1-1 1 1z"/>
    <linearGradient id="SVGID_25_" gradientUnits="userSpaceOnUse" x1="59" y1="770" x2="60" y2="772">
      <stop offset="0" stop-color="#fff"/>
      <stop offset="1" stop-color="#fff" stop-opacity="0"/>
    </linearGradient>
    <path class="st24" d="M60 771a1 1 0 0 1-2 0l1-1 1 1z"/>
    <linearGradient id="SVGID_26_" gradientUnits="userSpaceOnUse" x1="46" y1="745" x2="47" y2="747">
      <stop offset="0" stop-color="#fff"/>
      <stop offset="1" stop-color="#fff" stop-opacity="0"/>
    </linearGradient>
    <path class="st25" d="M47 746a1 1 0 0 1-2 0l1-1 1 1z"/>
    <defs>
      <path id="SVGID_27_" d="M0 0h800v800H0z"/>
    </defs>
    <clipPath id="SVGID_28_">
      <use xlink:href="#SVGID_27_" overflow="visible"/>
    </clipPath>
    <path class="st27" d="M458 792l-11-16-13-9 1-1c0-3-3-5-3-7 0-4 5-10 8-12l1-1 1-2 2-5c1-2 2-4-1-5v-1-1l-9 6c0-4-2-7-4-11 0 7-3 10-6 15-2-3-1-7 1-10 0-7 5-12 5-19 0-2-2-12-6-11l-1 3-2-4v1c-10 2-2-19-1-21 4-9 3-19 8-28-3 1-3 3-4 6l-6 8c-2-7 5-16 8-21 2-3 6-7 4-11 0-3-5-7-5-2l1-1v8c-1 3-3 2-5 4 0-2 1-6-1-9-2 2-5 6-8 4-2-2 2-7 1-10-1-7-19-14-17-6 11-2-2 11 4 14 4 2 10-2 11 3l-1 5 3 6v2l-1 3 1 1v2l-1 2v-1l-1-2v-1 2c3 6 0 15 1 22-4-3-7-6-5-11 0-4 5-9 0-13-5-3-3 0-3 3 0 5-5 11-3 15 1 3 5 4 7 6 4 3 2 9 6 13-4-1-5-2-7-4v-3l-3-2c-1-2-1-5-3-6l1 4c-2-2-4-5-4-8-3 2-3 6-1 8s5 0 7 3v3l-6-4c-3 3 0 5 0 9l-2 6 2 6c0 4-1 5 2 9l6 11 5 5c-3-3-16-6-20-7 5 5 12 5 17 8 4 2 9 12 8 17-2 4-8-2-10-3l-12-10v1l1 2 1 3 1 4 1 3-21-9c-4 1-7-5-15-11-8-7-33-2-42-2h-21s-10 0-16-3-6-1-12-6-9-1-9-1-39 2-47 0c-7-2-36-6-45-17s-28-7-28-7-77-45-82-54c-5-8-18 3-23 1l-18-11c-9-6-30 0-30 0l6 172h471l-8-9zm-47-155l-1-1-2-1-4-1-2-3-1-2 1-1 1-1 1-1h4l1-1v1 2l2 4-1 1v3l1 1zm-3 64l-2-2-1-2-1-1v-1-2-2-1l1 2 1 3 2 3v3zm-3 51h2l2-1 2 1c2 1 2 3 3 5l-9-5zm9-87h-1v-4-2h0l1 1 1 2v2l-1 1zm-1 51l-1-2 3 1 1 5-3-4zm2-59v-2-2l1-2 1-2-1 3v3l-1 2zm5 56v3l-1 2-1 2v1-2l-1-1v-3-2h1l3-1-1 1zm-1-4l-2 2 1-1v-1l1-2h1l1 1-2 1zm1-4v1h-3l3-1h0zm3 32l-2-3v-2l2-2v-1 2l-1 1 1 5zm6 6h-1-1l-1-1 1-2h2v3zm4 24l-2-2 1-1 1 2v1z"/>
    <path class="st27" d="M465 801h471l6-172s-21-6-30-1l-18 11c-6 3-18-8-23 0-6 9-82 54-82 54s-20-4-29 7-37 15-45 17h-46s-3-5-9 0-6 4-12 7-17 2-17 2h-20c-10 1-34-4-42 2s-11 13-16 12c-1-1-10 3-20 8l1-3 1-4 1-2 1-2v-2l-12 10c-2 2-9 8-10 3s4-14 8-17c5-3 12-3 16-7-3 1-16 3-19 7 2-2 4-3 5-6 1-5 3-7 6-11 3-3 2-5 2-9l2-5-2-6c0-4 3-6 0-9-1-1-6 3-6 3v-3l6-3c2-1 3-6 0-8 0 3-2 6-4 9l1-5-4 7-2 2v2c-2 3-4 4-8 4 4-3 3-9 7-13 2-1 6-2 7-5 2-4-3-11-3-15 0-3 1-7-3-3-5 4-1 9 0 13 1 5-1 8-5 11 1-7-2-16 1-22v-3l-1 1v2l-1 1v-1-2l1-2-1-3c-1 0 0 0 0 0v-1l3-7-2-4c1-6 8-1 11-3 6-4-7-17 5-14 2-8-16-1-17 6-1 2 2 8 0 10s-6-3-7-4c-2 3-1 6-1 9-2-3-5-2-6-5l1-8 1 2c0-6-5-1-6 1-1 5 2 8 4 12 4 5 11 14 9 21l-7-9c-1-2 0-5-3-5 4 8 4 18 8 27 1 3 8 24-2 21v-1l-1 4-2-2c-3-1-5 9-5 11 0 6 5 12 5 18 2 4 2 7 1 11-3-5-6-9-6-15-3 3-4 7-4 11l-9-6h-1l1 1c-3 2-2 3-1 6l2 5v2l2 1c3 2 8 7 8 11 0 3-4 4-3 7l1 2-13 8-11 17-8 9zm56-165v-3l-1-2 2-3v-2l-1-1 2 1h3l2 1 1 1 1 1-1 2-2 3-4 1-2 1-1 1 1-1zm2 62l2-3 1-3 1-2v6l-1 1-1 2-2 1v-2zm-6 59c1-2 1-4 3-5l2-1 2 1h2l-9 5zm-1-93v-2l1-1 1-2h-1 1v2l-1 4-1-1zm-1 56v-1l1-4 3-1-1 2-3 4zm0-65v-3l-1-3 1 2 1 2 1 2-1 2-1-2zm-4 57l2 1h1v8l-1-1-1-2-1-2v-3-1zm-1-4l1-1h1l1 2v1l1 1-2-2-2-1zm0-3h1l3 1h-3v-1h-1zm-1 27l-1-1v-1l2 2v2l-2 3 1-5zm-7 9v-1h2l1 2-1 1h-1c0 1 0 0 0 0l-1-2zm-4 25l1-2 1 1-2 2v-1z"/>
    <path class="st27" d="M588 721c3-2 8-2 11-5-3 1-11 3-13 5l3-4 4-7 2-6 1-4-1-4v-7l-4 3v-2c1-2 3-1 4-2s2-4 0-5c0 2-2 4-3 5l1-3c-2 1-2 3-3 5l-1 1v2l-5 2c2-2 1-6 4-8l5-4c1-3-2-7-2-11 0-1 1-4-2-1-4 2-1 5 0 8 1 4-1 6-4 8 1-5-1-11 1-15v-2 1l-1 1v1-1-2l1-1-2-2h1v-1l2-4-1-3c0-4 5-1 7-2 4-3-5-11 3-10 2-5-11 0-11 4v7c-2 1-4-2-5-3l-1 6-4-3 1-5v1c0-4-3-1-3 1-1 3 1 5 2 8 3 3 7 9 6 14l-4-6c-1-1 0-3-3-4 3 6 3 13 6 19 0 2 6 16-1 14l-1 2-1-1c-3-1-4 6-4 7 0 5 3 8 3 13 1 2 2 5 1 7-2-4-4-6-4-10-2 2-3 4-3 7l-6-4v1c-2 1-1 2-1 4l2 3v2h1c2 2 19-8 22-10zm-2-65v-2-1l1-2v-1-1h3l1 1 1 1v2l-2 2-2 1-2 1v-1zm2 42l1-2 1-2 1-1v1l-1 1 1 1-1 1v1l-1 1-1 1v-2zm-4 40l2-3h4l-6 3zm-1-63v-1-1l1-1v4l-1-1zm0 38v-3h2l-1 1-1 2zm-1-44v-2l-1-2 1 2 1 1v3l-1-2zm-3 39h3v6l-1-1-1-1v-1-2l-1-1zm0-3h1v-1l1 2v1h1l-2-1-1-1zm0-2l2 1h-1l-1-1zm-1 19v-1-1l1 1v2l-1 2v-3zm-5 6l1-1h1v1l-1 1-1-1zm-2 17l1-2v1l-1 1zM416 721z"/>
    <path class="st28" d="M0 639v161h184l1-5c1-2-1-3-3-5-1-1-3 0-6 1-3 0-4 3-5 2l-3-4c-1-2-4-1-5-2l-3-5-5-8c-3-3-3-1-8-3l-11-5c-4-2-4-4-6-6l-4-8 2-1 1 1 1 1a25 25 0 0 0 2 2v-1l-1-2h1v1l1 2h1v-1l-1-1-1-1h2v1h0v-1l1-1h1v1l1-1v-1 1l1 2v-2l1-1 3-3-1 1v2h1v-1-1l1-3v-1 5h-1v1l1-1v-1l1-2v-1l1-3 1-3 1-2-1 3v4h-1 1v-1a14 14 0 0 0 1-3v-1l1-1v-2-1l1-1 2 1h1v0l-1-1h2l1 1h1v1h1l-1-1h1v1h0v-1h-1 1l1 1h0v-1l-1-1-1-1h-2-1l-1-1h-1 1l2-1h1l2 1 1 1v-1l-1-1h1l1 1-1-1h-2-1l-1-1h-1 3l1 1h2v0h-1v-1l-1-1a4 4 0 0 1 2 1h1v1h1v1h-1v-1 1h1v-1h1l-1 1h1v-1-1 0l1 1-1 1v1l-1 1v-1l-1 1h1l1-1h1v-1 2l-1 1v1h-1v1h1v-1l2-2v2l-1 1v1h-1l1 1h-1v-1 1h1v-1h1v-1h1v-1 4h-1-1 2v0l1-1v-1h1v-1c1 1 3 0 4-1v1h1v2h1v1h1l-1-1v-1-1-1h-1v-1l1 1 1 2h1v0h-1l-1-3v-1l1 2a11 11 0 0 0 1 3v-3l-1-3v-1l1 3v-3-1l1-2 1 1 1 1v1l2 1v1h0v-1-1h-1v-1l-1-1-1-2 2 2v1h1l1 1h1l-1-1-1-1 1 1v-1l-1-1v-1-1-1h-1v-1-1l1 1 1 2v1-1-2 1h2l-1-1h-1v-2l-1-1v-1 1h1v1h1l1 1v1h1v-1h-1l-1-1v-1l-1-1-1-1 2 1 2 1 1 1v0l-1-1-1-1 1 1h1v1h1l1 1 1 1 1 1 1 1-1-1-1-1-1-1v-1l-1-1h-1v-1h-1v-1h-1l-1-1h1v1h2l1 1 1 1v-1l-2-1v-1h-1l-1-1h-1-1v-1h-1-1 5l1-1h-1-1l-1-1h-1-1v-1h-1-1v-2l2 1 3 2h1l-1-1-2-1h3v1h1v-1h-1l-2-1-2-1h-1 5l1 1h1v1h1v1h2l-1-1h-1v-1h-1l-1-1h1l2 1h3v1h1v0l-1-1-1-1-1-1-1-1h-1 4l2 1h1l-1-1h-2l-2-1h-1v-1h1l1 1-1-1h1l3 2h1l-3-2-2-1h2l1 1h1l1 1v-1l-1-1-2-1h-1 1l1-1h-1l1-1h1l3 2 1 1-1-1v-1-1l-1-1-1-1v-1h1a34 34 0 0 1 1 2v0l-1-2h1l1 1a20 20 0 0 1 1 2h1l-1-1h1l-1-1v-2h-1l-1-1h1l1-1v1l1 1v-1l-1-1v-1-1h4l-2-1h-1l1-1h1l2 1h1v0h-1v-1l2 1v0l1-1v-1 1l1 2v-1-1-1l-1-1h1v5l1-1v-2l-1-2h1v6l-1 1 1-1v-1 1l1-3h0v2l1 1-1 1v3l1-1v-1l-1 2v1l1-1v-1 1h1v3l-1 1-1 2v1l1-1 1-2-1 2v0l1-1 1-1v3l-1 1-1 2v1l-1 1h-1 1a23 23 0 0 0 2-1h1v-1 0l1-1v5h-1v1h-1 1l1-1 1-1v2l1 1v-1l-1-1v-1l1-1 1-1v4h-1 1l1-2v3h-1v0h1l1-2v-1h1v1h-1v3h-1v1l1-1v-1h1v-1-1h2v3l1-2v-1 4h1v2h-1 1v-1-1-1-1-1 1l1 1v-2-1h1l1 2 1 1-1-1-1-3 2-1v2h1v-1 1h0v-1h-1l1-1h-1l2-2v2l1 1 1 1v1h1l-1-1v-1l-1-1 1 1 2 2 1 1h0v-1h-1l-1-2v-1l-1-1-1-1v-1l2 2 1 1v-2l-1-1v-1-1l1 2h1v1h1v1h1l1 1h1v-1h-1v-1 1h-1v-1l-1-1-1-2v-1l-1-1v-1 1h1l1 1v1h1v0l-1-1a9 9 0 0 0-1-1h2l2 1v-1h1-3a11 11 0 0 1-2-1v-1 1h1l3 1h0l-2-1-1-1v-1h2v1h2-1l-1-1v-1h-1 2l2-1 1-1 1-1-1 1-2 1h-1-1v-1h2v-1h2l1 1h1l-1-1h-1 1v-1h1l2-1h1l1 1h2v0h-1l-1-1h-1l-1-1 1-1 1 1h1l-1-1h1v-1l-1 1h-1l-1-1h1l4-1h0-4l1-1h6v0l-1-1h-1 2l4-1h0-6-1-1 2v-1h7-1l-1-1h-7 1l1-1h6-1l-2-1h-1 2l1-1-1 1h-6 4l1-1h1l1-1 1-1-1 1h-5 2l1-1h4-1l-1-1h4-4l1-1 1-1v1h1l-1-1h0l-3-1v-1h1a54 54 0 0 0 3 1v-1h6v-1 1h-3-1l-1-1h-1 2l2-1h2l1-1h1v-1l-1 1h-1l-2 1h-3-1-1-1 1v-1h6l1-1h-1-1-1-1l-2 1v-1h2v-1h1l1-1h-1v1h-1 1l1-1-1 1h-1l1-1 2-1h-2l-3 2-2 1 1-1 3-2a36 36 0 0 1 4-2h2l-1-1h-1a13 13 0 0 1 2-1v-1h0v1h-1-1l-1 1h-2 1v-1h1l1-1h4l-1-1h-1 1l1-1h-1l-1 1h-2l1-1h2l1-1h2l1 1h1l-1-1h-1 1-1-2l-1-1h1-1-1 1l1-1h1v-1h7-1-2l-3-1h1v-1h1-1l-1 1h-1-1l3-1 2-1h0a14 14 0 0 0-4 0h-1 1l1-1 2 1h3v1h1v-1h-3v-1h-1l-1-1h-2v-1h2v1h2v0l-1-1h-1 2l1 1 1 1v-1 0h-1v-1h-1l-1-1h2l1 1h1l-1-1h-1v-1h-1l-2-1h2l2 1v0l-1-2h2l1-1h2v-1 1h-2-1l-2 1h-1l1-1h1l2-1 1-1h1v-1l-1 1h-1l-2 1h-2-1 1l1-1h1l1-1h1v-1h1l1-1h1-1-1v1h-2l-1 1v-1h2l2-1 1-1h1v-1l-1 1h-1-1 1v-1l2-1v-1-1h0v1h-1v1h-1l-2 2v-1l2-1 1-1h-1l-1 1v-1l1-1h1v-1h-1 0v0l1-1v-1l1-1-1 2-1 1-1 1v-1h1v-1l1-1v-1l1-1v-1-1 2h-1v1h-1v1l-1 1-1 1-1 1v-1h1l1-1v-1h1v-1l1-2h1v-1 1h-1l-1 2h-1l1-1v-1-1-1-1 3h-1v1h-1-1 1v-1-1-1l-1-1v1h1v1l-1 1v2l-1 1v-1l1-3 1-2 1-2v-1-1 1l-1 1-1 1a32 32 0 0 0-2 4v-1l1-1v-1h1l1-3 1-1-1 1-2 2v1h-1v1l-1 1v-1l1-1v-1l1-1v-1 1l-1 1h-1v1l-1 1v-1l1-2v-1l1-1v-1l-1 1v1l-1 1-1 2v-1l1-2 2-1v-1-1 1h-1l-1 1 1-1v-1 1l-1 1-1 1 1-1v-1-1h1v-1l-1 1v1h-1l-1 2v-1l1-1v-1 1h-1l-1-1v2c-1 0 0 0 0 0l-1 1-1-1v-3-2-1-1-1-1l-1 1v7h-1l1-3v-3-1l-1 1v4h-1v-1l-2-2v-1 1l1 1h-1l-1-1 1 1v1l1 1h-1-1v-1l-1-2 1-1 1-1-2 1h-1 1v1l-1-1h1v-1h-1 1v-1h1v-1h1v-1 1h-1c0-1 0 0 0 0h1v-1h-2l1-1h0l-1 1-1-1h0l1-1h1l-1 1 1-1 2-1h1-1-2v1h-1 1v-1h1l1-1 2-1-2 1h-1l-1 1h-1 1v-1h1a41 41 0 0 1 4-3l-1 1-3 1h-1v1h-1l-1 1v-2 1h1v-1h1l2-1 3-1 1-1h-1v1a29 29 0 0 0-5 1v-1h1l2-1h3v-1h-2 1v-1h0l-1 1h-1-2-1v0h1v-1h3l4 1h2l-2-1-4-1h-1l2-1h2l-1-1h-2v-1l1 1h3l1 1-1-1h-1l-1-1h-1-1l1-1h2l1 1h1l-1-1h-1l-1-1h3l-3-1 1-1h1v0h2v-1h-1 1l2-1h-2l-2 1h-1-1l1-1v-1h1l1-1h-1 1v-1l1-1v0h1l2-1h1-2 1l1-1-1 1h-1-1l-1 1h-1l1-1h-1l2-1h3l-1-1v1h-3-1v-1l3-1 1-1h-1l-2 1h1l1-1h-2-1v1h-1l1-1a8 8 0 0 1 2-1l1-1 2-1h-1l-2 1h-1l-1 1h-1v0l1-1 1-1h1v-1h1l3-1 1-1h-2l-2 1h-1v1l1-1 3-2h0-1l1-1h0l-1 1h-1v-1h-1l-1 1a58 58 0 0 0 2-3v-1 1h-1l-1 2v-1l1-1v-1l1-1 1-1h-1v1h-1l-1 1 1-1v-1l-1 1-1 2h-1 1v-1l1-1h-1 1v-1-1 1l-1 1h-1-1l2-2h1v-1l-1 1-2 1-1 1 1-1 1-1 1-1v-1-1h0l-1 1 1-1v-1l1-1-1 1-1 1-1 1h-1l1-1v-1-1 1h-1l-1 2v-1l1-1v-1-1h1v-1l-1 1v1l-1 1h-1v1h-1l1-2v-1h1-1v-1l-1 1v1h-1l1-1 1-1v-1 1h-1v1h-1l1-1-1 1v-1 1h-1l-1 1h-1 1v-1l1-1 1-1v-1-1 1l-1 1-1 1-1 1 1-1v-1l1-2v-1 1l-3 2 1-1v-1-1l1-1h-1v1l-1 1v1l-1 1v1l-1 1v-1l1-1 1-1v-1l-1 1v-2h1v-1-1 1l-2 2 1-1-1 1v1h-1v0l1-2v-1 1l-1 1v-1-1-1h0v1h-1v-1 2l-1-1v-1h1-1l-2 1v1h-1v-1-1h1v-1 1h-1-1v1h-1v-1l1-1v-1l-1 1v-1l-1-2v4h-1v-1h-1v-1-1 1l-1-1v-1 2l-1 1v1l-1 1v-1-1-2-1 3h-1v-2-1-1 1l-1 2v-1-1-2 1l-1 3-1 1v-1l1-1v-1h-1v1h-1v1l-1 2h-1 1v-1-1-1h0v1l-1 1v1h-1v-1h1v-1-1-1 1l-1 1v1h-1v-1-1-1 1l-1 1v1l-1 2v1h-1 1v-2-3h-1v-1 4l-1 1v-1l-1-3v-1 1l1 3v2h-1v-1-1-1-1l-1-1v-1 4h-1v-2 3l-1 1v-2-1 1l-1 3v1l-1 1v1h1l-1 1v-1-1-2-1h1v-1l-1 1v-2 3l-1 2a11 11 0 0 0-1-2v4l-1-1v-3-1 1l-1-1 1 1v5h-1v-1l-1-2 1 2-1-1v-1 1l-1-1 1 1v1l1 1h-1v-1h-1l1 1 1 1v3l-1-2-1-1v-1 2l-1-1-1-1v1h1-1 1l1 4-1-1v1h1l1 2 1 2v1h1l-1 2v-1-1l-1-1v-1 0l-2-2v-1 1l1 3 1 1-1-1v-1-1l-1-1v1h1l-1-1-1-1v1l2 3v1h-1 0l-1-1a128 128 0 0 0 2 2l1 1v1h-1a9 9 0 0 0-2-2h-1 1l1 1v1h1l1 1v0a31 31 0 0 0-3-2l-1-1 1 1 1 1 1 1 1 3h1l-1 2-1-1v-1h-1v-1 1l-1-2v-1 2l1 1v1l-1-1h-1 1v1l1 1v0l-2-2h-1l1 1 1 1 1 1v2l-1-1h-1 1l1 2 1 1v1l-2-1-1-1v-1l-1-1v-1 2l1 1v1l1 1v2l-1-1h-1v-1 1h-1 1l1 1v2l-1-1h-1-1 2l1 1v1l1 1v1h-1v-1h-1v-1l-1-1-1-1h-1l1 1 1 1v1h1v1h1v1l-1-1v-1 3l1 2v2l-1-2v-1 1h-1 1v2h1v1l-2-2v-1h-1v-1l-1-1 1 1v1l1 1h-1l1 1v1l1 1v2h-1v-2h-1l1 3v3l-1-2v-1l-1-1v1l1 2h-1l-1-2h-1-1 1v1l2 1v1h1v2l-1 3v-1-1-1l-1-1v-1-1l-1-1-1-1v-1 1l1 1v2h1v7l-1 1v3l1-1v-1-1-1l1-1v-1l-1-1v-1l1 1-1 4-2 5v-1l-1-2-1-1v-1h-1v1h1v2l1 1 1 2v1l-1 1v-1l-1-1v-1l-2-2v-1 1a28 28 0 0 0 1 3v0h-1v-1h-1v-1h-1v-1h-1 1v2h1v1h1v1a15 15 0 0 1 2 3v2l-1-1v-1l-1-2v1l-2-2v-1h-1 1v1l2 4v1l-1-1-1-1-1-1c-1-1 0 0 0 0v1l1 1 1 1v1l1 1v2l-1-1-1-2v-1 1l-1-1-1-1 1 1 1 2v1l-1-2h-1v-1 7l-1 1v-4-1 1l-1 5-1 1h-1v-2l-1-2 1-1 1-1 1-1v-1h0l-1 1-1 1v-1 0h1v-1-1 1h-1v1l-2 1h1l1-1v-1-1-1 1l-1 1h-1l-2 1h1l1-1 1-1 1-1v-1l-1 1h-1l-1 1-1 1v-1l1-1 1-1v-1h1-1-1l-1 1 1-1v-1h1v-1l1-1 1-1h0l1-1-1 1h-1-1-1l1-1 1-1 1-1h1v-1l-1 1h-1l-1 1h-1l-1 1v-1h2l2-1v-1 1h-2l1-1 1-1v1h1l-1-1 1-1h0l-1 1h-1v-1l1-1h1-1l-2 1-1-1h1v-1h2l1-1 1-1h-1l1 1h-3v-1h0l-1-1h1l2-2h0l-3 1v0l1-1 2-1v-1h-1l-2 1 1-1 1-1 2-2 1-1-1 1-3 1v1h-1v-1h1l1-1 1-1 1-1 1-1h-1 1v-1 1h-1-1l1-1 1-1v-1h1v-1h-1l1-1-1 1-1 1-2 1 1-1 1-1 1-1-1 1h-1l-2 1h1l1-1 2-1 1-1 1-1-1 1h-2l-1 1-2 1 1-1 1-1 1-1 1-1h2-2l-1 1v-1h2v-1h-2l1-1h0l-2 1-1 1v-2l3-2h1-1-1l2-1 1-1h-1l-1 1h-1l-1 1h-1 1v-1h1v-1h1l1-1 1-1a9 9 0 0 0 1-2v1l-2 1-1 1h-1l-1 1-1 1v-2h1l1-1 1-1h1v-1l2-1v-1l-1 1-1 1h-1l-1 1 1-2 1-1-1 1-2 1v1l-1 1v-1l1-1h1v-1l2-3v-1 1l-3 2v1l-1 1v-1l2-2 1-2 1-2v-1 1l-1 2-2 1h1v-2-1h0v-1-1 1l-1 3v-1-2-1-1 1h-1v-1 1l-1 1v0h-1l1-1v1h-1v0l-1 1v2h-1v-1-2-1 2l-1 2 1-3v-1l1-1v-1l-1 1v1l-2 1-1 2v-1-1h1v-1h-1v-1 2l-1 1v1h-1 1v-1-1-1-1l-1-1v3l-1-2-1-1v1l1 2v1h-1v-1-1l-1-1v-1 4l-1 1v-2-1-1-1 4h-1v1h-1l1-1v-1-1l1-1 1-1v-1-1l2-1v-1l-1 1-1 1-1 1h-1v1h-1v0l1-1v-1l1-1 1-1h-1l-1 1v1h-1v1h-1l1-1 1-1 1-1v-1l1-1h1l1-1h0-1l-1 1-2 1v-1h1l1-1 1-1h-1l-1 1 1-1 1-1h0l1-1h-1l-1 1-2 1 1-1 1-1 2-2 1-1-1 1-1 1v-1h-1 1l3-2h1-1l-2 1h-2l-1 1h-1-1 1l1-1h1l1-1 1-1 1-1h-1l-1 1h-2 1l1-2h1l1-1h-1v0l2-1 1-1-2 1-1 1-2 1-1 1-1 1v-1l3-3v-1h1v-1l1-1v-1 1l-1 1-1 1-1 1-1 1 1-2v-1h1v-1-1h1v-1l-1 1v1h-1v1h-1l-1 3v-1l1-2 1-1 1-1h-1 1v-1l-1 1v1h-1v1h-1v-1-1l1-1 1-1h1v-1l-1 1 2-3v-1 1l-2 2h-1l1-1v-1l1-1v-1 1h-1v2l-1 1h-1l1-2v-1-1 1h-1 1v-1h-1v1l-1 1v-1-1-1 1l-1 1v-1-1-1h-1v1h1v3l-1 1v-2-2-1l-1 1v1l-1-1h0v-1-1-1h0v1l-1 1-1 1-1 1 1-1v-1h1v-1l-1 1h-1v-1-1h-1v3l-1 2v-2l-1-2v3h-1v-1-2l-1-1v2l-1-1v4h-1l1-2v-1-1h1v-1l-1 1 1-1-1 1-2 2 1-2v-1h-1l-1 3v-2-1 1l-1 2v-1-1 1l-1 1v-1 1l-1-1v1l-1 1v-1l1-2 1-2 1-1v-1 1h-1-1v1-1 0h1l1-1 1-1-1 1h-1l-1 1h-1l1-1 2-3v-2l-1 1-2 3-1 2 1-1 1-2v-1-1 1l-1 1-1 1v-1h1v-1-1-1l-1-1v-1-1 2l-1 1h-1l1-1v-1-1 1l-1 1-1 2v-1-1l1-1v-1 1l-1 1-1 1v-1-1l-1-1v-1 3h-1l1 1v-1-1l-1-2h-1v-1 1h-1v-1 2l-1 1v-2-1 3h-1-1 1v-3h1v-1l-1 1-1 2v-1-1 1l-1 1-1 2v-1-1l1-1h-1v1l-1-1v-1 2l-1 1-1-1v-1 1l1 1v1h-1v-1l-1-1v-1 3h-1v-1-1h-1v-1 5h-1 1v-1-1l-2 1v-1-1-1-1 3l-1 1v-1-1 2h-1v-1 4l-1-2h-1v-1 1h1v2l-1-1v-1 1l1 1v2h-1v-1l-1-2v2l-1-1 1 1v3l-1-1v-1 1l1 2 1 1-1-1v0a19 19 0 0 0 1 4l-1-1h-1l1 1 1 1 1 1v1l1 1v0l-2-1v1l1 1-2-1h-1 1l1 2 1 1-2-2h-1l1 1 1 2h1v1l-1-1-1-1v1l1 1 1 1 1 1h-1l-1-1v-1 2l-1-1-1-1 1 1 1 2h-1 1l1 1 1 2h-3-1v1h1l1 1h-1v1h0v1h-1 2l-1 1h1-1 3v2h-1l-1 1h1l-1 1v1l1-1v1h-1-1v1h2v1l-1 1h-1l-1-1v1h3v1l-2 1h2v1h-1-2v-1 1h-1 1l1 1h1v1h-1v1h-1v0h2v1h-1 1-1 1l1 1-1 1h-1 1l-1 1v1h-1v0h1l1-1v1l-1 1-1 1 1-1 1-1 1 1-1 1v-1 1l-1 1v0h1v1h-1v1l2-1v1h-1l-1 1h-1 3l-1 1h-2 1v1h1-2l2 1h-1-1-1 1l1 1-1 1h1v-1 2h-1l-1-1h-1v1h2v1h1l1 1-2 1v1h1l1-2-1 1-1 1h-1 2l-1 1h-1 3v1h-1l-1-1v0h-1v1l2 1v1h1l-2 1h2v1h-1-1 1l-1 1h-1 1v1h1v1h-1 1l1 1v-1 1h-1-1v1h1-1-1 2v1h1l-1 1h-1-1 2v2h-1 1l1 2v2l-1-2-1-1v1l1 3v1l1 1v1h-1v-1l-1-1v-1h-1 1v1l1 2h-1l-1-1 1 1v1h-1v-1-1-1l-1-1v-1 2l-1 1h1v3l-1-2 1-1v-2l-1 2v-1l1-2h-1l-1 2 1-1v-2h-1v0l1-2-1 1-1 1v2l-1-1v-1l1-1v-1l-1 2v-1-2-1 1l-1 1-1 1v-5l1-1v-1l-2 1 1-1 1-2v-1 1l-2 1 1-1v-2-1 1l-1 1v-1h-1 1v-1-1-1 1l-1 1v-2h1l1-1h-1-1l1-1v-1l-2 1h1v-1h-1v-2l1 1h1l-1-1-1-1-1-2h2l-1-1 2-2 1-1h-1l-2 2h-1v0h0v-1l1-1h-2 1v-1h-1v-1a10 10 0 0 0 2-2l-1 1-1 1v-1l1-1h-1v-1l2-3v-1l-1 1-1 3v-1l1-4v-1 1l-2 3v0l1-1 1-3v-1h0v1l-2 2a9 9 0 0 1 2-2h-1l-1 1-1-1 1-1 2-1v-1l-2 1h-1v-1l1-3h-1v2l-1-1v-1l1-1v-1-1h0v1h-1v-2h0l-1 1v-1l1-1v-2h-1v0l1-1-2 1v-1l1-1 1-1h-1l-1 1v-2l1-1v-1-1h0l-1 1-1 1 2-2v-1 1h-1l-1 1v-1-1l-1-3 1-1v-1 1l-1 1v-2l1-1 2-1v-1h-1l-2 2h-1l1-2 2-1v-1 1l-2 1h-1l1-2h0l-1 1-1-2 1-1v-1 1h-1v-2-2-1 2l-1-1 1-1a17 17 0 0 0 1-4l-1 1-1 2v-1h1v-1-2-1-1 1l-1-1v-1 3l-1 1v-2-2-2-1l-1 1v2l-1-3v-1l-1-1v-1 1l-1 1v-1-1l-1-1v5-1-2-1-1 1l-1 1v-1-1 2l-1 1v-3-1 1l-1 2v-1l-1-1-1-1v1l1 1v1h-1v1l-1-1-1-1v-1 2l1 2-2-1v-1 1l1 1v1l-1-1-1-1v-1 0l-1 1v-1h-1 1v2h-1 1v1h-1v-1-1-1 1h-1v3l-1-2v-1 3h-1v0l-1-1-1-1h-1 1l1 2-1-1-1-1v1h1v2l1 1v1h-1v-1l-1-1-1-1a9 9 0 0 0 1 2v1h1v1l-1 1v-1h-1v-1 1a25 25 0 0 0 1 2l1 4-2-3-1-1 1 1 1 3v1h1-1 1v1l-1-1-1-1-1-1v-1 1l1 1 1 2v1l1 1 1 2-1-1v-1h-1l-1-1h1v2h1v1l1 1v1l-1-1v-1h-1v-1-1l-1 1v2h-1v-1-1 1h-1l1 1v2h-1v-1-1-1l-1-1v1l-1-1h-1l1 2 1 1h-1v-1-1h-1l-1-1 1 1-1 2v-1l-1-1v-1 1h-1 1v0h-1v0l-1-1v1h-1v3l-1-2v-1 3l-1-1v4a20 20 0 0 0-2-4v1h1-1v-1h-1 1v2l1 2v2l1 1h-1v-1-1l-1-1v-1 1h-1l-1-2 1 2v1h-1v-1 1l1 1v1h1v1l-1-1h-1 1v0h-1l1 2 1 1-1-1v-1 1l-1-1v1h1l-1 1v-1l-1-1v4l-1-1-1-2v2l-2-1v-1 1l1 1v0l-1-1v-1-1l-1 1v3l-1 1v-1-1-1l-1 1v2l-1-3v-1 1l1 4h-1l-1-3h-1v-1 1l1 3-1-1-1-1 1 1v2l1 1v1l-1-1-1-1 1 1v1l1 1v1h-1v-1l-1-1v-1l-1-1 1 1v7l-1-1v-1-2-1 1l-1 3-1 1v-1l1-2v-2l1-3v-1l-1 1-1 3v-2l1-3v-1l-1 1v-3-1-1-1l-1 1v-1-1 1l-1 2v-2-1-1l-1-1v4l-1 1 1-2-1-2v-1 2l-1 1v-2-1-1h-1v-1 3h-1v-1l-1-1v1l-3-1h-1 1l2 1v2l-1-2h-1l-1-1-1-1h-1 1v1h1l1 1v2h1v1l-1-1v-1h-1l-2-2-1-1 1 1 1 1h-1-1 1l1 2 1 1v-1h-1v-1h-1-1v-1 1l1 1 1 1h-1v-1l-1-1h-1v-1 2l1 1h-1l-1-2v1l-1-1v-1 2l-1-1v-1 3l1 1h-1v-1l-1-2h-1v-1-1 8h-1v-1-2-1-1 7l-1-3v-1 6l-1-1v-1 2h-1 1v2l-1-2v-1 4h1v1h-1 1v1l1 1v1l1 1-1-1-1-1 1 1v1l1 1v3l-1-2v-1h-1v1l1 1v2h1v1l1 2v0l-1-1-1-2v-1h-1 1v2l1 2h-1v-1 0h-1 1v1l1 1 1 2v1l1 1-1-1-1-1 1 1v1l1 1v1l-2-4h-1v-1 2l1 1h-1 1v1h1v1l1 1h-1-1-1 1l1 1h1v1l1 1v1-1h-1l-1-1-1-1h1v2h-1 1l1 1v1l-2-1h-1l3 2 1 1v1h1v-1 1h-1v-1h-1a23 23 0 0 0-4-2h1l2 3h-1 0l-1-1 1 1 2 1 1 1 1 1v1l-1-1-2-1v-1h-1 1v1l1 1 1 2-1-2h-1v-1 1h1l-1-1v1h1l1 2v0h-1l1 1v1l1 1 1 2-1-2-1-1v1a31 31 0 0 0-2-2v1l2 3h1v1l1 3v1l-2-3-1-2 1 2 1 4 1 2h1l-1-1-3-3-1-2a34 34 0 0 0 3 5h-1 1v1l-1-1-1-1h-2 1v1l2 1h1v1h1-3l-1-1 1 1h-1 1l1 1 2 1h-1a25 25 0 0 0-4-2l1 1 2 1v1l-1-1 1 1-2-1h-1 1v1l3 1 1 1h1l1 1h-1l-1-1h-1-1 1l1 1h1v1l1 1 1 2-1-1-1-1h-1v-1h-1l-1-1v1l2 1h-1-1 1l1 1h1l1 2-2-1-1-1 1 1 1 1h-1l-1-1h-1-1 1l1 1 1 1h1l1 1h1v1l-2-1-1-1 1 1 1 2-1-1h-2l-1-1v1h1l1 1h1l1 1h1v2l-1-1-2-1h-1l2 2 2 1h1v1l-1-1h-1l-1-1h-1l-1-1h-1l1 1h1l1 1 2 2 1 1-1-1h-1l-1-1-1-1h-1 1l1 1v1h1v1l1 1h1l1 1h-1a29 29 0 0 0-5-3h-1l1 1a58 58 0 0 1 5 3h1v1l2 4-1-1-1-1h-1v-1l-2-1 1 1 1 1v1l1 1 1 1v1l1 1v1l1 3-2-2-1-1-1-1-1-1 1 1v2l2 1v1l1 1 1 1v1h1-1v-1h-1v-1 1-1h-1v-1l-1-1-1-1v-1 1l1 1v1l1 1v1h1v1l1 1a11 11 0 0 0 2 1l-2-1-3-3v-1h-1 1v1l3 3 1 2 1 1h1v1l1 1 1 1 1 1v1h2v1h1v2l-1-1v-1h-1l-1-1h-1l-2-2h-1v-1 1h1l3 4h1v1l1 1-2-1-1-1-1-1h-1 1v1h1v1l1 1a27 27 0 0 0-3-1l1 1 2 1v1l-1-1v1l1 1h-1l-1-1h-1v-1h-1-1 1l1 1v1h-1l-1-1h-1v-1 1h1l1 1v1l-1 1v1h-1v-1h-1v-1l-2-1 1 1v1h-4l-5-3-13-14c-7-8-6-4-12-9s-4-4-5-6l-4-6H0zm111-94zm60 4h-1v-1h1v-1 2zm11 32zm2-15h-1 1zm-7-16v-1 1zm0-3zm6 23h-1v1l1-1zm-3-18zm2 2h-1 1zm1 13h-1 1zm2 143zm-5 9h-1 1zm-6-171v1h-1l1-1zm2-2v1l-1 1v-1l1-1zm1 1l-1-1 1-1v2zm0 1zm1 2v-1-1l1-1-1 1v2zm4-1v1h-1l1-1zm0 11h0zm1 8l-1 1v-1l2-1 1-1h1-2v1h-1v1zm-1 11l-1 1v-1h1zm16 67v1l-1-1h1zm-2 0l1 1h-1v-1zm-2-2l2 1-1 1v-1l-1-1v-1 1zm0 2v1h1v1l-1-2zm5 2h-1 1zm-2-63v1h-1l1-1zm-1 24l-1 1v-1h1zm-2 14v-1 1zm-1 16v1h-1l1-1zm0 1h1l-1 1v-1l1 1-1 1 1 1v2h-1v-2-3zm3 0v1l-1 2c1 0 0 0 0 0v1h1l-1-1v-1-1-1h1zm9 50h-1l1-1v1zm-14-107v-1 1zm7 9h-1 1zm0 15l-1 1h-1l1-2 2-1 1-1v1h-1l-1 2zm-1 2v-1h1l-1 1zm-1 11h-2v-1-1l2 2zm-2 4v1h-1v-1l2-1h1l-1 1h-1zm-1 7v-2h2l-1 1-1 1zm0 7v1h-1l1-1zm3-1v-1h0v1zm2 8v1h-1l1-1zm3-3l1-1v2h-1v1l-1 1-1 1v-1l1-1h-1l1-1 1-1zm2-3v2l-1 2v-1-1-1-1-2-1h-1c1 0 2 1 2 3zm1-1v-1 1zm0 2zm2-5v0zm35 62l-1 1h-1l1-2 1 1zm7-5h-2l2-1v1zm22-64zm-7-26h-1v0h1zm1-2h-1l1-1h2l-1 1h-1zm0-27v-1h1v-1 1l-1 1zm-13-10h-1 1zm-2-2l-1 1v-1h1v-1 1zm-6-1h-1v0h1zm-9 2zm34 98zm-4 4zm-2-93v-1h1l-1 1zm-1-2v-1 1zm-7-6l-1 1 1-1zm-15-2l-1 1 1-1zm6 2h-1 1zm9 64zm2-4l-1 1v-1h1zm-4-59v0zm2 1zm-13-3zm27 19v-1 1zm-3 14zm3-18v1h-1v-1h1zm0 2v0zm-12 41zm-16-59v1h-1 1v-1zm3 1v0zm6 0v1h-1 1-1l1-1zm14 7v0zm2 5h0zm6 3zm-3 15h-1-1 1v-1h1v1zm-6 12h-1 1zm-5 13h-1 1zm11 42h0zm-4 6h-1 1zm-2 5h-1-1c1 0 0 0 0 0v1h-1l1-1h2zm-6 11h1l-2 1h-2-1-1 3l1-1h1zm-8 9l-2 1h-2v1l1-2h3zm-1 2zm-2 1h-1l-1 1v-1h2zm-24-111v-1 1zm0 4v-1l1 1h-1zm0-2v0zm1-13zm0 10zm1 1l-1-1h1v1zm-1 1v-1 1zm-2 10v1h-1v-1h1zm-2 8c0 1 0 1 0 0v0zm0-4v0zm1-5v-1 1zm0-2h1v1l-1-1zm-4 20v-1-1 2zm1-7v1l1 1-1-1v-1l-1-1 1 1zm1-7v2l-1-1-1-2h1l1 1zm1-1v1h-1v-1-2l-1-1h1l1 3zm1-7v-1l-1-1 1 2zm-1-18l1 1 1 1v2h1v1l-1-2-2-3zm0 0v-1 1zm3-1v1l-1-1h1zm3 1v0zm6-7h-2 1v-1-1-1 2l1 1zm11-5v1l-1 1v-1l1-1zm0 2l1-1v-1 1l-1 1zm5 0v1h-1l1-1zm3 0h-1 1zm2 1v1h-1v-1h1zm1 1l1-1v2h-1v-1zm2 0h-1v-1l1-1v2zm1 0s0 1 0 0zm2 2v1h-1v0l1-1zm1-2v0zm3 3h-1l-1 1v1h-1v0h1v-1l1-1 2-3v1l-1 1v1zm3 3h-1l-1 1 1-1h1zm3 3l-1 1-1 1v0l1-1v-1h1zm0 4h0v0zm6 4l-1 1h-1v1h-1l1-1 1-1h1zm-3 11h-1-1l-1 1v-1l2-1v1h1zm-6 8v-1h1l-1 1zm0 3zm0 2h1l-2 1h-1l1-1h1zm-2 2zm-4 8h1-1zm0 3zm3 0l-1 1-2 1-1 1h-1l2-2 1-1h2zm0 1zm-2 3v1h-1v1l1-2zm0 1v-1 1zm1 3l-2 1v-1-1h1v-1-1l1 2v1zm3 1l1-1v1h-1zm8 5v-1 1zm6 6v1l-1 1 1-2zm0 5l-1 1 1-1zm1 1h-1 1zm1 2h-1l-1 1h-1-1l1-1h1l2-1v1zm-6 5v0zm0 5l-1-1h-1l1-1v1l1 1zm-3 2h-1 1zm1 1v-1 1zm-4 5h-1v0h1v-1 0h1-1v1zm-3 8v-1 1zm-10 8h0zm2 2h-1-1-1 3zm2 1h-1-1l1-1 1 1zm-10 6h-1 1zm3 2h-1 1zm-2 3h0zm-5 4h-3l1-1h2l1 1h-1zm-2 2v-1h2l-2 1zm-6 4v-1 1zm-4 6c-1 0-1 0 0 0v-1 1zm-9 8l1 2v-1l-1-1zm-8-4v-1 1zm-1 2v-1-3 4zm-1-5v-1 1zm-1 1v-1 1l-1 1 1-1zm0-5v-1h1l-1 1zm0-3l1-2v-1 2l-1 1zm-1-3v0zm-4-7l-1-1v-1h-1 1v-1 1l1 2zm-4-1v-1l2 2h1v2l-1-1-1-1-1-1zm-2 1h2v1h-1l-1-1zm-4 5h0zm-1 7l-2-2h-1l1-1 1 1 1 1v1zm-8 7l-2-1v-1h1l1 1h1v1h1l1 1 1 1-1-1-3-1zm-9 5h-1v-1h2v1h2-1-1-1zm-1 10v1l1 1-1-2zm-18 6zm0 0zm-22 22zM78 553zm3 0v-1 1zm2 1zm1-2v-1 1zm2 1l1 1-1-1zm4 2l1 2-1-2-2-2v-1l2 3zm1-19v0zm0 0v0zm4-2v0zm0-1v-1 1zm1 0c0 1 0 1 0 0 0 1 0 1 0 0 0 1 0 0 0 0zm5 0h-1 1zm5 2zm2 1h-1v-1l1 1zm3 5l-1 1 1-1zm27 24l-1 1 1-1zm-1 30zm0-41h1v1l-1-1zm0-7v0zm0 71v-1 1zm0-1zm-1 11v0zm-2 1v-1-1-1h1v2h-1v1zm-1-3zm-6-7h-1 1zm0-1zm8 7h1v1l-1-1v0zm2-7zm0-3v1l-1-1h1zm0-3c0 1 0 1 0 0 0 1 0 1 0 0zm-1-4v1h1v1l-1-1h-1v-1h1zm1 0zm0-4v0zm-1-6v-1l1-1v2h-1zm1-12v-1 1zm0-2zm0-2zm-1-2s1 0 0 0h1v0h-1zm1-1zm-2-16h1-1zm6-27zm1 0h-1 1zm17 2h1-1c1 0 1 0 0 0v0zm-7-3l-1-1 1-1v2zm7 193l-1-1h-1l1-1 1 1 1 1h-1zm1-1l-1-1h2l-1 1zm0-183s0 1 0 0c0 1 0 1 0 0zm3-2v-1 1zm-2 187v-1-1l1 2h-1zm0 0v1l-1-1v-1l1 1zm-1 1v-1h-1-1 2l1 1h-1zm-7-199v1h-1l1-1zm0 4v-1-1h-1v-1h1v-1a52 52 0 0 1 0 4zm6 1l-1 1v-1h1zm1-1v2h-1l1-2zm1 13zm2 0h-1v1h-1c0 1 0 0 0 0h1v-1h1zm3 0l1-1-1 1zm0 188v2h-1l1-1v-1zm-6-5v-1 1zm-5-2h-1l1-1h1l1 1h-1-1zm-5 5zm-5 8v-2 2zM70 565h-1v-1l1 1zm0-2zm1-1v0zm2 6v-1 1zm0-8v2a12 12 0 0 1 0-2zm-1-1v-1 1zm1 14v-2 2zm-2-7v-1-1 1l1 1h-1zM55 676l-1-1v-1l2 1-1 1zm2-1l-1-1c0 1 0 0 0 0l1 1zm2-100v1h-1v-2 1h1zm-2 3zm0 1v1l1 2-1-1 1 2-1 1v-1l-1-1 1-2v-1zm-1 3v2l1 2-1-3v-1zm2 2v3l-1-1 1-1v-1zm0-1zm0 6zm0-9h1-1zm-8 98c0-1 0-1 0 0v-2h1l1 1-2 1zm3-2h-1-1v-1h-1l1-1-1 1v-1h1a62 62 0 0 1 1 1l1 1c0-1 0-1 0 0zm1-4l1 1 1 1-1-1h-1l-1-1-1-1v-1l2 2zm-4-9l1 1-1-1zm-16-87zm8 54h-1l1-1v1zm-8-52zm1-1zm-1-5v-1 1zm0-2zm0-2h1v1h-1v-1zm7 51zm-1 3v-1l1 1v1l-1-1zm-4-31v-1 1zm-1-8v-1l1 1v1l-1-1zm-2-10h-1v-1l2 1v1l-1-1zm-1-3l1 1v0l-1-1zm2-4zm1-1v0zm8 74v0zm-4-19h1v1l-2-1h1zm-2-24v0h-1 1zm-5-27zm2-10l1 2v1l-1-1a19 19 0 0 1 0-3v1zm13-1v1l-1-1h1zm2 1v1h-1v-1h1zm8 18v1l-1-1v2l-1 1v-1 0l1-1v-3l1 1v1zm1-1v0zm1-3v-1h-1 1v1zM35 561zM195 627zM277 656zM274 655zM236 712zM179 728zM260 620zM142 751z"/>
    <path class="st28" d="M140 753v-2-2l1-1v1l-1 2v2zM218 739l8 6 5 1v-6l5 4 8 5 5 4 4 3 1 3v3c-2 0-8 2-10 1l-11-7-5-5h-10l-1-7 1-5zM130 488l-6-3-4-3-3-2c-1-1-1-2-3-2l-2-1 3-5 2 4 8 4v-3l3 4 3 2c1 1 3 1 2 2 0 2-2 3-3 3zM180 533h-6l-8-3h-6l-1-4-1-4c3 0 8 5 9 5l7-1 2-2v-2l4 2h5c1 0 3 0 4 4 0 3-8 4-9 5zM756 602h-6l-8-3h-6l-1-4-1-4c3 0 8 5 9 5l6-1 3-2v-2l4 2h5s3 0 4 4c0 3-8 4-9 5zM716 495h-6l-8-3h-6l-1-4-1-4c3 0 8 5 9 5l6-1 3-2v-2l4 2h5s3 0 4 4c0 3-8 4-9 5z"/>
    <path class="st30" d="M370 598c-2-1-3-2-5-1l-3 1-4 1c-4-1-4-1-7-4-1-1-1-5-5-4-3 0-2 2-4 4l-6 5v-1c0-1-2-3-1-4l2-1 1-1v-2l2-2 4-3 4-4 1-4 1-2 1-1h1c1 0 1 2 2 1l-1-3-1-4c0-2 3 2 4 3l2 1 1 1 4 1 2-2 4-2h-2l-1 1-2 1h-2l-1-1-2-1-2-4v-1l-1-1-3-1-3-1-3-1h-7l-3-1h-3l-1 1h1v1l1 1 2 5c0 2 1 2 2 3l3 2h1l1 1c-1 2-3 3-5 3l-2-1h-4v1l1-5 1-3-2-4-2-2-4-5-5-1-5-2v9l1 6 4 5h-6l-9 2 11 2v1l-7 2c4 0 7 1 10 3 2 1 7 6 7 9 0 2-3 2-4 3l-1 8c0 3-2 3-1 7s4 7 6 11v2l1 2v5l-1 1-3-1c-1-1-1-2-3-2l-1-1c-4-4-2 0-2 3l-1 6c0-2-5-1-6-2v-4l-1-9 2 2c-1-2-1-6-5-3-2 1-3 8-3 10l5 6 1 3c0 9 15 16 11 26l-8-8c-1-4 0-8-5-10 2 2 2 6 2 8l4 7 1 10 2 12c0 5 3 8 4 12 1 3 3 16-4 13l-1-2c1 2-2 4-1 6-5-6-3-6-2-13v-7c0 5-2 8-5 11l-2 4-4 11c-1 3 0 8 1 11l1 4 3 5 4 10c2 2 3 9 3 10l-2-2-1-2-1-2c-5-5-3-7-4-13-3 4-5 10-5 15h-1l-1 4v4l1 3v7c4 6 6 5 0 11l-1 5s2 3 3 2h1l-2-2 2-2 2 2 2 3c1 2 0 4-1 6h4l11-1 3 1h9v-1l2-3 3-1 3-4 3-1h2l2-1 2 1h1l-2 1-4 2a41 41 0 0 0-6 5l-1 2h5c6 1 9-5 12-9l3-4c0-4-7-3-10-4l-5-2-7 2h-7c-5 2-9 5-5-3 4-6 6-6 13-6h3c5 0 6-5 6-8 1-3 4-8 4-11v-1-1l-1 1-2 1-2 2-2 2-4 3-3 4-4 4-5 1h-5l1-5 2-5 1-6 3-5 4-1 5-3 5-1 3-2h2l4-3 2-1-3 1-4 2-2 1-1-1c-2 0-3 2-4 3h-4l-3 2h-2l-1 1-2 2 1-2 1-1 2-1c2 0 2-2 3-3 2-5 0-8 4-12 3-4 7-6 7-11v-5l1-6-2-8c0-2 3-5 2-7l-2-4v1h-1l-2 1-2 1-3 2 1-4c2-3 4-2 7-3 4-2 6-7 1-10-1 3-2 7-5 9l1-4-3 6-5 6c-1 3 1 3-3 5l-6 1c5-4 4-7 3-13l12-7c8-6-1-7-3-12-1-2 0-5 1-7 0-1 3-14-1-9-7 0-3 16-2 20 1 6 0 10-6 13 2-11-4-20 1-30 3-7 7-4 12-5 9-2 5-9 4-14l11-1c-2-1-5-5-8-4-9 0-2 10-3 13-1 4-5 3-8 3l4-3-10 6-4-1c1-4 4-9 3-13-1-2-4-2-1-5 2-2 5-1 7-1 5 1 9 1 8-5-1-8-10-14 4-13l-1-7c-1-2-5-4-7-4h-2-1-1l1-3c2-2 4-1 6-1s4 1 5 3l2 1 3-1 2 1 3-1 4-3c2-1 4-1 5 1h1v-2zm-41-21h-1l-4-2h-1 1l2-1h2l1 2v1zm-18 185l-1 1h-1l-1-2v-2h2c1 0 2 2 1 3zm43 27l-1 1 1-1zm-12-86l1-1v2c-1 1-2 3-1 4l1 2-1 2 1 2 1 2-2 1h-2l-2 1v-2-4l1-3v-2l3-4zm-7 3l2-4 1-3 1-2v7l-1 2-1 2-2 2v-4zm-16 9l4 1h-4v-1h-1 1zm-2 37l-1 3c-1-2 1-4 1-5l-1-2v-1-1l2 3c1 1 0 2-1 3zm3-34v-1l2 3v2l1 1-2-2-2-2 1-1zm3 13v4l-1-1-1-2-1-3-1-4v-2l3 1h1v1l1 2-1 4zm1-78v-4l-1-3 1 2 2 2v2c1 1 0 2-1 3s-1-1-1-2zm5 74v2c-2 2-4 4-4 7v-1-2c0-1-1-4 1-5l3-1zm-1-66l-1 4v-1h-1l-1-1v-2l1-2 1-1v-1h1v4zm1-13v2l-1 1v-3h1zm1 5v3l-1 2v2-2l-1-2 2-3zm10-36l2 2s0 2 1 1l-2 2-2 4-5 1-2 2-1 1 1-1v-4c-1-1-2-1-1-2l2-5v-2l-1-1 2 1h4l2 1zM335 601z"/>
    <linearGradient id="SVGID_29_" gradientUnits="userSpaceOnUse" x1="423" y1="571" x2="609" y2="571">
      <stop offset="0" stop-color="#fff"/>
      <stop offset="1" stop-color="#fff" stop-opacity="0"/>
    </linearGradient>
    <path class="st31" d="M423 396l121 353c29 18 63-4 65-17L436 387"/>
  </g>
  <g id="objects">
    <path class="st30" d="M48 253c7 9 13 16 21 21l14 6 8 6 2-1 3 5h5l19 7h2s20 6 27 11c7 4 15 13 23 17l-10-2c-5 0-18-6-18-6s1-2 0-2l-2-1c-1 0-2-8-4-8-3-1-4-2-7 1l-14 9c-4 3-14 7-15 7l-17 6-19 6c-4 2-9 3-13 9 0 0-10 3-11 6 0 2 3 4 4 4 2 1 2 0 4-1l28-16 21-6s4 2 5 1l11-3c3 1 8 2 9 1h14a312 312 0 0 1 33 13c1 0 8 5 13 6l8 4c1 1 9 10 12 11l6 2 6 3c1 1 4 1 5 3l6 5c3 0 9 3 14 3 0 0 4 2 9 2l6 4 15 4 7 1 3 1-1 11c1 4 2 8 5 10 0 0 0 4 2 6 2 3 10 4 10 4l-3 2v3c1 1 13-1 13-2l-2-4v-1l16-4v2c0 1 2 2 3 1l1-3h2l2 4 1 4-1 9-3 2v7l1 3v4c1 1 7 3 9 1 2-1 2-4 1-5 0-1 2-6 1-8l-4-4-2-11-3-9 5-2 2-3h17l1 1-3 2v1l3-1c1 0 4 1 6-1l8-5 2-1 2-1a280 280 0 0 1-17 11h-2l-7 5-6 3c-1 2 1 5 2 5l4-2 10-5 1-1 10-6 17-12c1-1 1 0 1 1l3 1c0-1 7 3 17 4l2 3c1 1 3 3 7 2s8-4 7-6c0-2-2-3-2-3l-1-2v-2l-2-1 1-3 1-2 3 3 2-3 4-1c2-1 9-6 8-7l-6-5 1-2 2-2c1-1 3-5 0-8l-3-3-4-8c-2-2-7-6-10-6l-6-1-4 2h-8l-6 1 1-9 1-3s3-6-3-7c-5-1-5 3-5 3s-2-4-4-4c-3 0-3 3-3 3s-4-11-10-13l-15-3s0-2-2-2l-9-3-2 1-76-17s-3 3-6 18c-4 15-2 15-2 16l55 12-6 1s-6 0-8 3l-5-6c-2 0-8-2-11-1l-9 1-3 1h-9c-1 0-4-4-6-4l-2-1c-1 0-5-3-7-2l-2-1-5-5-4-1c-2-1-4 1-6 1 0 0-11-2-14-4-4-2-16-13-19-16l-12-8-12-3c-2-1-23-9-25-11 0 0 2-1 0-2h-2l-1-4c0-1 3-7-1-9h-11c-5 2-15 4-21 3H94l-7-1-9-3-6-7a209 209 0 0 0-16-22l-5-4-4-7-7 2-2-1 10 18zm344 147l1-2s3-4 5-2l7 8-1 2h-2c-5 0-12-4-11-4l1-2zm-18-47l4-4 5 5-9-1z"/>
    <defs>
      <path id="SVGID_30_" d="M0 0h800v800H0z"/>
    </defs>
    <clipPath id="SVGID_31_">
      <use xlink:href="#SVGID_30_" overflow="visible"/>
    </clipPath>
    <linearGradient id="SVGID_32_" gradientUnits="userSpaceOnUse" x1="257" y1="-5" x2="488" y2="804">
      <stop offset="0" stop-color="#fff"/>
      <stop offset="1" stop-color="#fff" stop-opacity="0"/>
    </linearGradient>
    <path class="st33" d="M246 1l191 800h101L267 0z"/>
    <linearGradient id="SVGID_33_" gradientUnits="userSpaceOnUse" x1="201" y1="7" x2="424" y2="786">
      <stop offset="0" stop-color="#fff"/>
      <stop offset="1" stop-color="#fff" stop-opacity="0"/>
    </linearGradient>
    <path class="st34" d="M242 1l168 800h-24L233 0z"/>
    <linearGradient id="SVGID_34_" gradientUnits="userSpaceOnUse" x1="156" y1="17" x2="373" y2="776">
      <stop offset="0" stop-color="#fff"/>
      <stop offset="1" stop-color="#fff" stop-opacity="0"/>
    </linearGradient>
    <path class="st35" d="M222 0l100 801h-12z"/>
    <linearGradient id="SVGID_35_" gradientUnits="userSpaceOnUse" x1="136" y1="17" x2="353" y2="774">
      <stop offset="0" stop-color="#fff"/>
      <stop offset="1" stop-color="#fff" stop-opacity="0"/>
    </linearGradient>
    <path class="st36" d="M211 0l89 800-20-1L202 0z"/>
    <linearGradient id="SVGID_36_" gradientUnits="userSpaceOnUse" x1="105" y1="21" x2="319" y2="770">
      <stop offset="0" stop-color="#fff"/>
      <stop offset="1" stop-color="#fff" stop-opacity="0"/>
    </linearGradient>
    <path class="st37" d="M195 0l64 798-26 2L184 0z"/>
    <linearGradient id="SVGID_37_" gradientUnits="userSpaceOnUse" x1="62" y1="27" x2="275" y2="772">
      <stop offset="0" stop-color="#fff"/>
      <stop offset="1" stop-color="#fff" stop-opacity="0"/>
    </linearGradient>
    <path class="st38" d="M174 0l37 801h-48V0z"/>
    <linearGradient id="SVGID_38_" gradientUnits="userSpaceOnUse" x1="22" y1="30" x2="231" y2="762">
      <stop offset="0" stop-color="#fff"/>
      <stop offset="1" stop-color="#fff" stop-opacity="0"/>
    </linearGradient>
    <path class="st39" d="M151-5l-25 807-24-3z"/>
    <linearGradient id="SVGID_39_" gradientUnits="userSpaceOnUse" x1="-26" y1="45" x2="178" y2="758">
      <stop offset="0" stop-color="#fff"/>
      <stop offset="1" stop-color="#fff" stop-opacity="0"/>
    </linearGradient>
    <path class="st40" d="M139 0L58 802H13z"/>
    <linearGradient id="SVGID_40_" gradientUnits="userSpaceOnUse" x1="450" y1="383" x2="452" y2="390">
      <stop offset="0" stop-color="#fff"/>
      <stop offset="1" stop-color="#fff" stop-opacity="0"/>
    </linearGradient>
    <circle class="st41" cx="451" cy="386" r="4"/>
    <linearGradient id="SVGID_41_" gradientUnits="userSpaceOnUse" x1="435" y1="344" x2="437" y2="351">
      <stop offset="0" stop-color="#fff"/>
      <stop offset="1" stop-color="#fff" stop-opacity="0"/>
    </linearGradient>
    <circle class="st42" cx="436" cy="347" r="4"/>
    <linearGradient id="SVGID_42_" gradientUnits="userSpaceOnUse" x1="447" y1="365" x2="448" y2="367">
      <stop offset="0" stop-color="#fff"/>
      <stop offset="1" stop-color="#fff" stop-opacity="0"/>
    </linearGradient>
    <path class="st43" d="M449 366l-1 1-1-1 1-1 1 1z"/>
    <linearGradient id="SVGID_43_" gradientUnits="userSpaceOnUse" x1="451" y1="350" x2="452" y2="352">
      <stop offset="0" stop-color="#fff"/>
      <stop offset="1" stop-color="#fff" stop-opacity="0"/>
    </linearGradient>
    <path class="st44" d="M453 351l-1 1-1-1 1-1 1 1z"/>
    <linearGradient id="SVGID_44_" gradientUnits="userSpaceOnUse" x1="456" y1="351" x2="457" y2="353">
      <stop offset="0" stop-color="#fff"/>
      <stop offset="1" stop-color="#fff" stop-opacity="0"/>
    </linearGradient>
    <path class="st45" d="M458 352l-1 1-1-1 1-1 1 1z"/>
    <linearGradient id="SVGID_45_" gradientUnits="userSpaceOnUse" x1="436" y1="325" x2="437" y2="327">
      <stop offset="0" stop-color="#fff"/>
      <stop offset="1" stop-color="#fff" stop-opacity="0"/>
    </linearGradient>
    <path class="st46" d="M438 326l-1 1-1-1 1-1 1 1z"/>
    <linearGradient id="SVGID_46_" gradientUnits="userSpaceOnUse" x1="448" y1="305" x2="449" y2="307">
      <stop offset="0" stop-color="#fff"/>
      <stop offset="1" stop-color="#fff" stop-opacity="0"/>
    </linearGradient>
    <path class="st47" d="M450 306l-1 1-1-1 1-1 1 1z"/>
    <linearGradient id="SVGID_47_" gradientUnits="userSpaceOnUse" x1="450" y1="325" x2="451" y2="327">
      <stop offset="0" stop-color="#fff"/>
      <stop offset="1" stop-color="#fff" stop-opacity="0"/>
    </linearGradient>
    <path class="st48" d="M452 326l-1 1-1-1 1-1 1 1z"/>
    <linearGradient id="SVGID_48_" gradientUnits="userSpaceOnUse" x1="461" y1="279" x2="462" y2="281">
      <stop offset="0" stop-color="#fff"/>
      <stop offset="1" stop-color="#fff" stop-opacity="0"/>
    </linearGradient>
    <path class="st49" d="M463 280l-1 1-1-1 1-1 1 1z"/>
    <linearGradient id="SVGID_49_" gradientUnits="userSpaceOnUse" x1="435" y1="241" x2="436" y2="243">
      <stop offset="0" stop-color="#fff"/>
      <stop offset="1" stop-color="#fff" stop-opacity="0"/>
    </linearGradient>
    <path class="st50" d="M437 242l-1 1-1-1 1-1 1 1z"/>
    <linearGradient id="SVGID_50_" gradientUnits="userSpaceOnUse" x1="446" y1="210" x2="447" y2="212">
      <stop offset="0" stop-color="#fff"/>
      <stop offset="1" stop-color="#fff" stop-opacity="0"/>
    </linearGradient>
    <path class="st51" d="M448 211l-1 1-1-1 1-1 1 1z"/>
    <linearGradient id="SVGID_51_" gradientUnits="userSpaceOnUse" x1="435" y1="359" x2="436" y2="361">
      <stop offset="0" stop-color="#fff"/>
      <stop offset="1" stop-color="#fff" stop-opacity="0"/>
    </linearGradient>
    <path class="st52" d="M437 360l-1 1-1-1 1-1 1 1z"/>
    <linearGradient id="SVGID_52_" gradientUnits="userSpaceOnUse" x1="439" y1="375" x2="440" y2="377">
      <stop offset="0" stop-color="#fff"/>
      <stop offset="1" stop-color="#fff" stop-opacity="0"/>
    </linearGradient>
    <path class="st53" d="M441 376l-1 1-1-1 1-1 1 1z"/>
    <linearGradient id="SVGID_53_" gradientUnits="userSpaceOnUse" x1="439" y1="364" x2="440" y2="366">
      <stop offset="0" stop-color="#fff"/>
      <stop offset="1" stop-color="#fff" stop-opacity="0"/>
    </linearGradient>
    <path class="st54" d="M441 365l-1 1-1-1 1-1 1 1z"/>
    <linearGradient id="SVGID_54_" gradientUnits="userSpaceOnUse" x1="440" y1="358" x2="441" y2="360">
      <stop offset="0" stop-color="#fff"/>
      <stop offset="1" stop-color="#fff" stop-opacity="0"/>
    </linearGradient>
    <path class="st55" d="M442 359l-1 1-1-1 1-1 1 1z"/>
    <linearGradient id="SVGID_55_" gradientUnits="userSpaceOnUse" x1="449" y1="374" x2="450" y2="376">
      <stop offset="0" stop-color="#fff"/>
      <stop offset="1" stop-color="#fff" stop-opacity="0"/>
    </linearGradient>
    <path class="st56" d="M451 375l-1 1-1-1 1-1 1 1z"/>
    <linearGradient id="SVGID_56_" gradientUnits="userSpaceOnUse" x1="454" y1="360" x2="455" y2="362">
      <stop offset="0" stop-color="#fff"/>
      <stop offset="1" stop-color="#fff" stop-opacity="0"/>
    </linearGradient>
    <path class="st57" d="M456 361l-1 1-1-1 1-1 1 1z"/>
    <linearGradient id="SVGID_57_" gradientUnits="userSpaceOnUse" x1="446" y1="337" x2="447" y2="339">
      <stop offset="0" stop-color="#fff"/>
      <stop offset="1" stop-color="#fff" stop-opacity="0"/>
    </linearGradient>
    <path class="st58" d="M448 338l-1 1-1-1 1-1 1 1z"/>
    <path class="st30" d="M605 462l2-3 3-5c0-1 3 1 5 4s1 6 1 6 1 4 0 5h-2l-7-2 5 2c2 1 2 2 2 4l-7 7-12 6-11 4h-18-1v-1h-1l2-3 2-3v-5l1-8c0-3 2-6 5-8l10-6 4-2 6-2 8-3 8-4-1 1-6 4c-1 0 0 0 0 0l1 1c1 1 2 3 2 7l-1 4zM458 587l2-3 2-4 4 3 1 5v4h-2l-5-2 4 2 1 3-5 5-9 4-9 3h-8-2-3-1v-1l1-2 1-2 1-4v-5l4-7 8-5 3-1 4-2 6-2 6-3-1 1-4 3c-1 0 0 0 0 0l1 1 1 5-1 4zM615 543l2-3 3-5s3 1 5 4l1 6v5h-2l-7-2 5 3c2 0 2 1 2 3l-7 7-12 5-11 5h-18-1v-1h-1l2-3 2-3v-5l1-7c0-4 2-7 5-9l10-6 4-2 6-2 8-3 8-4-1 1-6 4c-1 0 0 0 0 0l1 1c1 1 2 3 2 7l-1 4zM296 498l2-3 3-5c0-1 3 1 5 4s1 6 1 6 1 4 0 5h-2l-7-2 5 2c2 1 2 2 2 4l-7 7-12 5-11 5h-19v-1h-1l2-3 2-3v-5l1-7c1-4 2-7 5-9l10-6 4-2 6-2 9-3 7-4-1 1-6 4 2 1 1 7-1 4zM232 469l3-2 5-4c1 0 3 3 2 6l-1 6-2 5-2-1-5-5 4 4c0 2 1 2-1 4-1 1-4 3-9 3l-13 1-12-2-6-2-4-2-2-1-4-1-1-1v-1-1l3-1 3-2 2-4 4-7c2-3 4-5 9-6a69 69 0 0 1 22-1l8 1h8l-7 1h-1l1 2c1 1 1 4-1 7l-3 4z"/>
  </g>
</svg>
