<svg version="1" id="Layer_1" xmlns="http://www.w3.org/2000/svg" viewBox="0 0 400 400">
  <style>
    .st2{fill:#fff}.st3,.st5{fill:none;stroke:#fff;stroke-width:1.0969;stroke-miterlimit:10}.st5{stroke-width:1.2517}.st6{opacity:.1}.st7{fill:#5eaef7}.st8{fill:#268fef}.st9{fill:#075edb}.st11{fill:#8e6ee5}.st12{fill:#7647dd}.st13{fill:#efcb12}.st14{fill:none;stroke:#000;stroke-linecap:round;stroke-miterlimit:10}.st15{fill:#ac94f7}.st16{fill:none;stroke:#4650e0;stroke-linecap:round;stroke-miterlimit:10}
  </style>
  <radialGradient id="SVGID_1_" cx="200" cy="200" r="200" gradientTransform="matrix(1 0 0 -1 0 400)" gradientUnits="userSpaceOnUse">
    <stop offset="0" stop-color="#365dff"/>
    <stop offset="1" stop-color="#825ee4"/>
  </radialGradient>
  <path fill="url(#SVGID_1_)" d="M0 0h400v400H0z"/>
  <g class="st6">
    <path d="M121 112h-21l-2 2v34c0 2 1 3 2 3h26c1 0 2-1 2-3v-29l-7-7z"/>
    <path d="M121 117l2 2h5l-7-7v5zM114 132h9v10h-9zM104 120h12v2h-12zM104 124h20v2h-20zM104 128h20v2h-20zM104 132h8v2h-8zM104 136h8v2h-8zM104 141h8v2h-8z"/>
  </g>
  <path class="st7" d="M116 107H95l-2 2v34c0 2 1 3 2 3h26c1 0 2-1 2-3v-29l-7-7z"/>
  <path class="st8" d="M116 112l2 2h5l-7-7v5z"/>
  <path class="st9" d="M109 127h9v10h-9zM99 115h12v2H99zM99 119h20v2H99zM99 123h20v2H99zM99 127h8v2h-8zM99 131h8v2h-8zM99 136h8v2h-8z"/>
  <g class="st6">
    <path d="M98 90H78c-2 0-3 1-3 2v35c0 1 1 2 3 2h25c2 0 3-1 3-2V98l-8-8z"/>
    <path d="M98 95c0 2 1 3 3 3h5l-8-8v5zM89 99l-4-1v10l-2-1c-2 0-3 1-3 2s1 2 3 2 3-1 3-2v-7l4 1h4c-3 0-3-3-5-4z"/>
    <path d="M98 110l-9-4v9h-1l-4 2 4 2 3-2v-6l6 3v5h-2l-3 2 3 2 4-2-1-1v-10z"/>
  </g>
  <path class="st2" d="M94 86H73l-2 2v34c0 2 1 3 2 3h26c1 0 3-1 3-3V93l-8-7z"/>
  <path d="M94 91l2 2h6l-8-7v5z" fill="#e6e6e6"/>
  <path class="st11" d="M85 95l-4-1v9h-2c-2 0-3 1-3 2s1 2 3 2 3-1 3-2v-7l3 1h4c-2-1-2-4-4-4z"/>
  <path class="st12" d="M94 106l-9-5v10h-2l-3 1 3 2c2 0 4 0 4-2h-1v-5l7 3v5h-2c-2 0-3 1-3 2s1 2 3 2 3-1 3-2v-11z"/>
  <path class="st2" d="M241 140v-5c-13-3-31-5-41-5l-40 4 1 6c0 12-10 21-21 22 1 19 6 46 12 60 10 23 44 44 48 48 4-4 38-25 48-48 6-14 11-41 12-60-11-1-19-11-19-22z"/>
  <path class="st7" d="M200 141l-29 3c-1 12-9 22-19 26a268 268 0 0 0 10 48c7 15 28 31 38 38V141z"/>
  <path class="st8" d="M230 144l-30-3v115c10-7 31-23 38-38l6-21 4-27c-10-5-17-15-18-26z"/>
  <g>
    <g class="st6">
      <path d="M110 254c0 2-2 3-3 3H61c-2 0-3-1-3-3v-64c0-1 1-3 3-3h46l3 3v64z"/>
      <path d="M104 246c0 1-1 3-3 3H66c-2 0-3-2-3-3v-49c0-2 1-3 3-3h35c2 0 3 1 3 3v49zM85 191a1 1 0 1 1-3 0 1 1 0 0 1 3 0zM86 253a3 3 0 1 1-5 0 3 3 0 0 1 5 0z"/>
      <path d="M93 221H74l-3 2v17l3 2h19c2 0 3-1 3-3v-16c0-1-1-2-3-2zM92 221h-2v-8c0-3-3-5-5-5h-3c-2 0-4 2-4 5v8h-3v-8c0-4 3-8 7-8h3c4 0 7 4 7 8v8z"/>
      <path d="M88 236l-3-5a3 3 0 1 0-3 0l-3 5 1 1h8v-1z"/>
    </g>
    <path class="st8" d="M105 249c0 2-2 3-3 3H56c-2 0-3-1-3-3v-64c0-1 1-3 3-3h46l3 3v64z"/>
    <path class="st9" d="M99 241c0 1-1 3-3 3H61c-2 0-3-2-3-3v-49c0-2 1-3 3-3h35c2 0 3 1 3 3v49z"/>
    <path class="st7" d="M80 186a1 1 0 1 1-3 0 1 1 0 0 1 3 0zM81 248a3 3 0 1 1-5 0 3 3 0 0 1 5 0z"/>
    <g>
      <path class="st13" d="M88 216H69l-3 2v17l3 2h19c2 0 3-1 3-3v-16c0-1-1-2-3-2zM87 216h-2v-8c0-3-3-5-5-5h-3c-2 0-4 2-4 5v8h-3v-8c0-4 3-8 7-8h3c4 0 7 4 7 8v8z"/>
      <path class="st9" d="M83 231l-3-5a3 3 0 1 0-3 0l-3 5 1 1h8v-1z"/>
    </g>
  </g>
  <g>
    <g class="st6">
      <path d="M332 133v-29l-2-3-18 18 18 17 2-3zM278 101l-2 3v29l2 3 17-17-17-18z"/>
      <path d="M328 136h2l-18-17-6 6c-1 2-3 2-4 0l-7-6-17 17h50z"/>
      <path d="M306 125l24-24h-51-1l24 24c1 2 3 2 4 0z"/>
      <path d="M308 120l-5 1c-4 0-7-3-7-8s3-9 9-9c4 0 7 3 7 7s-2 6-4 6l-2-2-4 2c-1 0-2-1-2-3 0-3 2-6 5-6h3l-1 5 1 3c1 0 3-2 3-5 0-4-2-6-6-6s-8 3-8 8c0 4 3 7 7 7l3-1 1 1zm-2-11h-1c-2 0-4 2-4 5l2 1c1 0 3-1 3-3v-3z"/>
    </g>
    <path class="st8" d="M327 128V99l-2-3-18 18 18 17 2-3zM273 96l-2 3v29l2 3 17-17-17-18z"/>
    <path class="st9" d="M323 131h2l-18-17-6 6c-1 2-3 2-4 0l-7-6-17 17h50z"/>
    <path class="st7" d="M301 120l24-24h-51-1l24 24c1 2 3 2 4 0z"/>
    <path class="st2" d="M303 115l-5 1c-4 0-7-3-7-8s3-9 9-9c4 0 7 3 7 7s-2 6-4 6l-2-2-4 2c-1 0-2-1-2-3 0-3 2-6 5-6h3l-1 5 1 3c1 0 3-2 3-5 0-4-2-6-6-6s-8 3-8 8c0 4 3 7 7 7l3-1 1 1zm-2-11h-1c-2 0-4 2-4 5l2 1c1 0 3-1 3-3v-3z"/>
  </g>
  <g>
    <g class="st6">
      <path d="M133 285c0 1-1 2-3 2h-22l-2-2v-38c0-2 1-3 2-3h22c2 0 3 1 3 3v38z"/>
      <path d="M123 284l-2 2h-3l-2-2 2-1h3l2 1zM123 246l-1 1h-5l-1-1h7zM130 278c0 2-1 3-3 3h-15c-2 0-3-1-3-3v-27c0-1 1-2 3-2h15c2 0 3 1 3 2v27z"/>
      <path d="M126 270c0 4-3 7-6 7-4 0-7-3-7-7v-3c0-4 3-7 7-7 3 0 6 3 6 7v3z"/>
      <path class="st14" d="M121 273c-1 1-3 0-4-3l2-6s2 0 2 2v5c-1 1-2-1-2-2v-3l1 2M118 263l-2 4M122 272c2-2 2-7-1-9M116 270l1 4"/>
    </g>
    <path class="st11" d="M128 280c0 1-1 2-3 2h-22l-2-2v-38c0-2 1-3 2-3h22c2 0 3 1 3 3v38z"/>
    <path class="st15" d="M118 279l-2 2h-3l-2-2 2-1h3l2 1zM118 241l-1 1h-5l-1-1h7z"/>
    <path class="st12" d="M125 273c0 2-1 3-3 3h-15c-2 0-3-1-3-3v-27c0-1 1-2 3-2h15c2 0 3 1 3 2v27z"/>
    <path class="st13" d="M121 265c0 4-3 7-6 7-4 0-7-3-7-7v-3c0-4 3-7 7-7 3 0 6 3 6 7v3z"/>
    <path class="st16" d="M116 268c-1 1-3 0-4-3l2-6s2 0 2 2v5c-1 1-2-1-2-2v-3l1 2M113 258l-2 4M117 267c2-2 2-7-1-9M111 265l1 4"/>
  </g>
  <g>
    <g class="st6">
      <path d="M353 304c0 2-2 3-3 3h-73c-1 0-3-1-3-3v-46c0-2 2-3 3-3h73c1 0 3 1 3 3v46z"/>
      <path d="M281 302l-2-1v-39l2-2h65l2 2v39l-2 1h-65z"/>
      <path d="M360 305l-3 2h-87l-3-2v-4c0-2 2-3 3-3h87c1 0 3 1 3 3v4z"/>
      <path d="M320 302c0 2-1 2-2 2h-9c-1 0-3 0-3-2l3-2h9l2 2zM315 257a2 2 0 1 1-3 0 2 2 0 1 1 3 0zM321 271a8 8 0 1 1-16 0 8 8 0 0 1 16 0z"/>
      <path d="M317 273l-2-2h-1l2-3a3 3 0 1 0-5 0l1 3-3 2v3h9l-1-3zM332 288c0 3-2 5-4 5h-29c-2 0-4-2-4-5 0-2 2-4 4-4h29c2 0 4 2 4 4z"/>
      <path d="M303 287l-1-1-2 1v-2h-1v2l-2-1v1l2 1-2 2v1l2-2v3h1v-3l2 2 1-1-2-2zM310 287l-1-1-2 1v-2h-1v2l-2-1v1l2 1-2 2v1l2-2v3h1v-3l2 2 1-1-3-2zM316 287v-1l-2 1v-2h-1v2l-2-1v1l2 1-2 2v1l2-2v3h1v-3l2 2v-1l-2-2zM323 287v-1l-2 1v-2h-1v2l-2-1-1 1 3 1-3 2 1 1 2-2v3h1v-3l2 2v-1l-2-2zM330 287v-1l-2 1v-2h-1v2l-2-1-1 1 2 1-2 2 1 1 2-2v3h1v-3l2 2v-1l-2-2z"/>
    </g>
    <path class="st8" d="M348 299c0 2-2 3-3 3h-73c-1 0-3-1-3-3v-46c0-2 2-3 3-3h73c1 0 3 1 3 3v46z"/>
    <path class="st9" d="M276 297l-2-1v-39l2-2h65l2 2v39l-2 1h-65z"/>
    <path class="st7" d="M355 300l-3 2h-87l-3-2v-4c0-2 2-3 3-3h87c1 0 3 1 3 3v4z"/>
    <path class="st8" d="M315 297c0 2-1 2-2 2h-9c-1 0-3 0-3-2l3-2h9l2 2z"/>
    <path class="st9" d="M310 252a2 2 0 1 1-3 0 2 2 0 1 1 3 0z"/>
    <path class="st8" d="M316 266a8 8 0 1 1-16 0 8 8 0 0 1 16 0z"/>
    <path class="st2" d="M312 268l-2-2h-1l2-3a3 3 0 1 0-5 0l1 3-3 2v3h9l-1-3zM327 283c0 3-2 5-4 5h-29c-2 0-4-2-4-5 0-2 2-4 4-4h29c2 0 4 2 4 4z"/>
    <path class="st7" d="M298 282l-1-1-2 1v-2h-1v2l-2-1v1l2 1-2 2v1l2-2v3h1v-3l2 2 1-1-2-2zM305 282l-1-1-2 1v-2h-1v2l-2-1v1l2 1-2 2v1l2-2v3h1v-3l2 2 1-1-3-2zM311 282v-1l-2 1v-2h-1v2l-2-1v1l2 1-2 2v1l2-2v3h1v-3l2 2v-1l-2-2zM318 282v-1l-2 1v-2h-1v2l-2-1-1 1 3 1-3 2 1 1 2-2v3h1v-3l2 2v-1l-2-2zM325 282v-1l-2 1v-2h-1v2l-2-1-1 1 2 1-2 2 1 1 2-2v3h1v-3l2 2v-1l-2-2z"/>
  </g>
  <g>
    <g class="st6">
      <path d="M298 269c0 1-1 2-3 2h-34l-2-2v-20l2-2h34c2 0 3 1 3 2v20z"/>
      <path d="M259 252h39v6h-39zM263 261h15v2h-15zM263 264h8v2h-8z"/>
    </g>
    <path class="st2" d="M293 264c0 1-1 2-3 2h-34l-2-2v-20l2-2h34c2 0 3 1 3 2v20z"/>
    <path class="st12" d="M254 247h39v6h-39z"/>
    <path class="st11" d="M258 256h15v2h-15zM258 259h8v2h-8z"/>
  </g>
  <g>
    <g class="st6">
      <path d="M316 189l-1 1h-11l-1-1v-18l1-1h11l1 1v18z"/>
      <path d="M305 174h2v3h-2zM312 174h2v3h-2zM320 208c0 5-3 8-7 8h-6c-5 0-8-3-8-8v-20c0-4 3-8 8-8h6c4 0 7 4 7 8v20z"/>
      <path d="M307 214c-4 0-6-3-6-6v-20c0-3 2-6 6-6h6c3 0 5 3 5 6v20c0 3-2 6-5 6h-6z"/>
      <path d="M315 201h-11l-1 1v6l1 1h11l1-1v-6l-1-1zM314 201h-1v-3l-2-2h-3l-2 2v3h-1v-3c0-2 1-3 3-3h3c2 0 3 1 3 3v3z"/>
      <path d="M311 207l-1-2a1 1 0 0 0 0-2l-2 1 1 1-1 2v1h3v-1z"/>
    </g>
    <path class="st15" d="M311 184l-1 1h-11l-1-1v-18l1-1h11l1 1v18z"/>
    <path class="st12" d="M300 169h2v3h-2zM307 169h2v3h-2zM315 203c0 5-3 8-7 8h-6c-5 0-8-3-8-8v-20c0-4 3-8 8-8h6c4 0 7 4 7 8v20z"/>
    <path class="st11" d="M302 209c-4 0-6-3-6-6v-20c0-3 2-6 6-6h6c3 0 5 3 5 6v20c0 3-2 6-5 6h-6z"/>
    <g>
      <path class="st13" d="M310 196h-11l-1 1v6l1 1h11l1-1v-6l-1-1zM309 196h-1v-3l-2-2h-3l-2 2v3h-1v-3c0-2 1-3 3-3h3c2 0 3 1 3 3v3z"/>
      <path class="st11" d="M306 202l-1-2a1 1 0 0 0 0-2l-2 1 1 1-1 2v1h3v-1z"/>
    </g>
  </g>
  <g>
    <g class="st6">
      <path d="M200 311v6c0 3 6 5 14 5 8-1 14-3 14-5v-7"/>
      <path d="M201 309l-1 2c0 2 6 4 14 4s14-2 14-5l-1-1"/>
      <path d="M200 301v6c0 3 6 4 14 4s14-2 14-4v-7"/>
      <path d="M201 299l-1 2c0 2 6 4 14 4 7 0 14-2 14-5l-1-1"/>
      <path d="M200 291v6c0 3 6 5 14 4 7 0 14-2 14-4v-7"/>
      <path d="M228 290c0 3-7 5-14 5-8 0-14-2-14-4 0-3 6-5 14-5 7 0 14 2 14 4zM178 321v8c0 3 8 6 17 5 10 0 17-2 17-5v-8"/>
      <path d="M179 319l-1 2c0 3 8 5 17 5 10 0 17-2 17-5l-1-2"/>
      <path d="M178 308v9c0 3 8 5 17 5 10 0 17-3 17-6v-8"/>
      <path d="M179 306l-1 2c0 3 8 6 17 6 10-1 17-3 17-6l-1-2"/>
      <path d="M178 296v8c0 3 8 6 17 6 10-1 17-3 17-6v-8"/>
      <path d="M212 296c0 3-8 5-17 5-10 0-17-2-17-5s7-5 17-5c9 0 17 2 17 5zM224 316a11 11 0 1 1-21 0 11 11 0 0 1 21 0z"/>
      <path d="M218 314h-9l-1 1v8l1 1h9l1-1v-8l-1-1zM218 314h-2v-4l-2-2h-1l-2 2v4h-1v-4c0-2 1-3 3-3h1c2 0 4 1 4 4v3z"/>
      <path d="M216 321l-2-2a2 2 0 1 0-1 0l-1 2c-1 0 0 0 0 0h4z"/>
    </g>
    <path class="st11" d="M195 306v6c0 3 6 5 14 5 8-1 14-3 14-5v-7"/>
    <path class="st12" d="M196 304l-1 2c0 2 6 4 14 4s14-2 14-5l-1-1"/>
    <path class="st11" d="M195 296v6c0 3 6 4 14 4s14-2 14-4v-7"/>
    <path class="st12" d="M196 294l-1 2c0 2 6 4 14 4 7 0 14-2 14-5l-1-1"/>
    <path class="st11" d="M195 286v6c0 3 6 5 14 4 7 0 14-2 14-4v-7"/>
    <path class="st12" d="M223 285c0 3-7 5-14 5-8 0-14-2-14-4 0-3 6-5 14-5 7 0 14 2 14 4z"/>
    <g>
      <path class="st15" d="M173 316v8c0 3 8 6 17 5 10 0 17-2 17-5v-8"/>
      <path class="st11" d="M174 314l-1 2c0 3 8 5 17 5 10 0 17-2 17-5l-1-2"/>
      <path class="st15" d="M173 303v9c0 3 8 5 17 5 10 0 17-3 17-6v-8"/>
      <path class="st11" d="M174 301l-1 2c0 3 8 6 17 6 10-1 17-3 17-6l-1-2"/>
      <path class="st15" d="M173 291v8c0 3 8 6 17 6 10-1 17-3 17-6v-8"/>
      <path class="st11" d="M207 291c0 3-8 5-17 5-10 0-17-2-17-5s7-5 17-5c9 0 17 2 17 5z"/>
    </g>
    <path class="st12" d="M219 311a11 11 0 1 1-21 0 11 11 0 0 1 21 0z"/>
    <g>
      <path class="st13" d="M213 309h-9l-1 1v8l1 1h9l1-1v-8l-1-1zM213 309h-2v-4l-2-2h-1l-2 2v4h-1v-4c0-2 1-3 3-3h1c2 0 4 1 4 4v3z"/>
      <path class="st12" d="M211 316l-2-2a2 2 0 1 0-1 0l-1 2c-1 0 0 0 0 0h4z"/>
    </g>
  </g>
  <path fill="none" stroke="#fff" stroke-width="10" stroke-linecap="round" stroke-linejoin="round" stroke-miterlimit="10" d="M187 191l13 16 22-28"/>
</svg>
