<svg version="1" id="Layer_1" xmlns="http://www.w3.org/2000/svg" viewBox="0 0 1675 1675">
  <style>
    .st2,.st3{fill:#fff}.st3{opacity:.4}.st4{fill:#ccc}.st5{fill:none;stroke:gray;stroke-width:2;stroke-miterlimit:10}.st6{opacity:.4;fill:#8cc63f}.st7{opacity:.6;fill:#fff}.st8,.st9{stroke-miterlimit:10}.st8{opacity:.24;fill:none;stroke:#8cc63f;stroke-width:2}.st9{fill:#688340;stroke:#fff;stroke-width:3}.st10{fill:#78974b}.st11{fill:#8cad54;stroke:#fff;stroke-width:3;stroke-miterlimit:10}.st12{fill:#a4c962}
  </style>
  <radialGradient id="SVGID_1_" cx="838" cy="838" r="838" gradientUnits="userSpaceOnUse">
    <stop offset="0" stop-color="#a8e063"/>
    <stop offset="1" stop-color="#56ab2f"/>
  </radialGradient>
  <path fill="url(#SVGID_1_)" d="M0 0h1675v1675H0z"/>
  <path class="st2" d="M373 856l-13-21s73-135 83-139c10-3-56 165-70 160z"/>
  <path class="st2" d="M372 859l24-3c1 0 93 122 92 133S362 870 372 859zM369 860l-16 18c0 1-151-30-157-38-7-9 173 5 173 20z"/>
  <path class="st3" d="M247 785h-2c35-70 112-69 112-69-19 1-83 11-110 69zM274 794h-1c20-47 74-46 74-46-14 0-57 7-73 46zM472 757l1-1c51 60 18 131 18 131 8-18 24-81-19-130zM453 779v-1c36 38 13 86 13 86 5-12 16-55-13-85zM341 982l1 2c-77-6-103-78-103-78 7 18 40 72 102 76zM340 954v1c-51-1-69-50-69-50 5 12 27 49 69 49z"/>
  <path class="st4" d="M374 853l5-10c29-42 64-147 64-147 3 6-50 142-68 158l-1-1zM365 860l-11-2c-48-16-159-18-159-18 5-6 151 6 171 19l-1 1zM373 861c1 3 3 3 7 9a614 614 0 0 1-8-8l1-1z"/>
  <path class="st2" d="M381 866c-3 6-12 7-16 5-6-3-9-11-6-17s10-8 16-5c6 4 9 11 6 17z"/>
  <circle class="st5" cx="370" cy="860" r="9"/>
  <circle class="st5" cx="370" cy="860" r="6"/>
  <circle class="st5" cx="370" cy="860" r="2"/>
  <ellipse class="st6" cx="382" cy="1204" rx="63" ry="11"/>
  <ellipse class="st6" cx="731" cy="1234" rx="75" ry="13"/>
  <ellipse class="st6" cx="1212" cy="1221" rx="85" ry="15"/>
  <path class="st2" d="M366 1204l8-344 4-1 14 345zM711 1234l12-505 6-1 21 505zM722 723l-20-30c1 0 107-198 122-203s-81 240-102 233z"/>
  <path class="st2" d="M721 728l35-5s136 180 135 196c-1 15-185-175-170-191zM715 730l-23 27s-220-45-230-57 254 7 253 30z"/>
  <path class="st7" d="M537 620h-2c51-103 157-137 157-137-28 0-115 52-155 137zM577 633h-1c29-69 107-67 107-67-19 0-82 10-106 67zM854 620l1-3c74 90 26 193 26 193 11-26 35-119-27-190zM825 651l1-1c52 55 18 127 18 127 8-18 24-81-19-126zM676 909l1 2c-113-9-152-113-152-113 10 25 59 105 151 111zM673 867l1 2c-74-2-101-74-101-74 7 18 40 72 100 72z"/>
  <path class="st4" d="M724 720c2-3 1-7 7-16 42-60 93-215 93-215 5 10-73 209-99 231h-1zM711 729c-4-1-7 1-17-2-70-23-232-28-232-28 7-7 220 10 249 29v1zM722 731c1 4 5 4 11 13 37 64 157 174 157 174-11 0-160-152-170-186l2-1z"/>
  <path class="st2" d="M734 738c-5 9-18 11-24 8-9-5-13-16-8-25 4-8 15-12 24-7 8 5 12 16 8 24z"/>
  <circle class="st5" cx="717" cy="730" r="13"/>
  <circle class="st5" cx="717" cy="730" r="8"/>
  <circle class="st5" cx="717" cy="730" r="3"/>
  <g>
    <path class="st2" d="M1191 1216l14-597 7-2 25 597zM1210 609l-37-21s2-266 15-280 48 297 22 301z"/>
    <path class="st2" d="M1213 615l31-28s251 86 261 102-296-48-292-74zM1209 622l-13 40s-262 47-278 37 282-101 291-77zM901 597l-4 2c-4-185 158-266 158-266-40 21-161 113-154 264zM968 586l-3 1c-9-121 102-177 102-177-27 15-109 77-99 176zM1314 336v-4c171 70 180 252 180 252-3-45-39-193-180-248zM1297 402v-2c115 39 121 164 121 164-2-31-27-131-121-162zM1436 706l3-1c-33 150-181 183-181 183 36-9 153-59 178-182zM1380 701h2c-17 99-118 122-118 122 25-6 104-40 116-122zM1146 879l2 3c-153 10-226-122-226-122 19 32 100 130 224 119zM1135 824l1 2c-100 12-150-79-150-79 13 22 67 88 149 77z"/>
    <path class="st4" d="M1210 604c1-5-2-8-1-20 10-87-23-276-23-276 11 7 40 258 26 296h-2zM1204 624c-4 0-7 4-19 5-88 5-268 71-268 71 5-12 247-85 287-78v2zM1215 618c4 2 8 0 19 5 80 37 270 66 270 66-10 7-258-44-289-70v-1z"/>
    <path class="st2" d="M1231 618c0 12-13 21-21 21-11 0-22-10-22-21s9-21 21-21c11 0 22 10 22 21z"/>
    <circle class="st5" cx="1209" cy="618" r="15"/>
    <circle class="st5" cx="1209" cy="618" r="10"/>
    <circle class="st5" cx="1209" cy="618" r="4"/>
  </g>
  <path class="st8" d="M257 1250a36 36 0 0 0 1 61M1343 1281c18-9 33-38 7-61"/>
  <path class="st9" d="M1402 1370l-26 40 30-2 6-13z"/>
  <path class="st10" d="M1377 1409l29-1 7-16c-14-4-36 17-36 17z"/>
  <path class="st11" d="M1402 1370l28-2 17 43h8l-20 21-27-18 10-1z"/>
  <path class="st12" d="M1430 1369h-8c1 16 2 29 21 54l5-6-18-48z"/>
  <path class="st9" d="M1478 1471l-5-22-25 10 3 12z"/>
  <path class="st10" d="M1473 1449l-25 10 4 15c13-6 21-25 21-25z"/>
  <path class="st11" d="M1478 1471l-7 22h-47l-1 8-15-21 17-17v8z"/>
  <path class="st12" d="M1471 1492l2-7c-15-5-29-7-59 2l4 5h53z"/>
  <path class="st9" d="M1347 1495h24l1-20h-16z"/>
  <path class="st10" d="M1370 1495l1-20h-16c5 14 15 20 15 20z"/>
  <path class="st11" d="M1347 1495l-17-16 20-42-7-4 27-5 7 23-8-4z"/>
  <path class="st12" d="M1331 1479l6 6c11-11 19-24 24-55l-8 1-22 48z"/>
</svg>
