<svg version="1" id="Layer_1" xmlns="http://www.w3.org/2000/svg" viewBox="0 0 100 100">
  <style>
    .st0{fill:#fff}
  </style>
  <path class="st0" d="M71 51l-1-1-3-1c7-6 5-14 4-16l-1-1s-5-2-11 0l1-4c0-10-8-14-9-15h-2a17 17 0 0 0-8 19c-6-2-11 0-11 0l-1 1c-1 2-3 10 4 16l-3 1-1 1c-1 2-3 10 4 17a16 16 0 0 0 15 5v12a2 2 0 0 0 4 0V73h3c3 0 8-1 12-5 7-7 5-15 4-17zM48 67v2c-2 0-8 1-12-4-5-4-4-9-4-12l7 1h1l4 3c3 3 4 6 4 8v2zm0-19v2a13 13 0 0 1-8 0l-4-3c-5-4-4-10-4-12a13 13 0 0 1 13 4l3 8v1zm2-9l-2-2-1-1c-1-2-3-4-3-8 0-7 4-10 6-11 2 1 6 4 6 11a12 12 0 0 1-6 11zm2 9a12 12 0 0 1 4-9c4-5 9-4 12-4 0 2 1 8-4 12a13 13 0 0 1-5 3h-7v-2zm12 17c-4 5-10 4-12 4 0-2-1-8 4-12a13 13 0 0 1 12-4c0 3 1 8-4 12z"/>
  <path class="st0" d="M60 1a50 50 0 0 0-45 14 50 50 0 0 0-4 66 7 7 0 0 0 1 9 7 7 0 0 0 12-5l-2-5a7 7 0 0 0-9-2A46 46 0 0 1 60 5a2 2 0 0 0 0-4zM14 82a4 4 0 0 1 5 0l1 3-1 2a4 4 0 0 1-5-5zM89 19a7 7 0 0 0-1-9 7 7 0 0 0-10 0 7 7 0 0 0 9 12 46 46 0 0 1-45 73 2 2 0 1 0-1 4l9 1a50 50 0 0 0 50-50c0-11-4-22-11-31zm-3-1l-3 1-2-1a4 4 0 1 1 5 0zM33 93l-1 2 1-2c-1-1-2 0-3 1s0 2 1 2l1 1 2-2-1-2zM69 4a2 2 0 1 0-2 3h1l2-1-1-2z"/>
</svg>
