<svg version="1" id="Layer_1" xmlns="http://www.w3.org/2000/svg" viewBox="0 0 100 100">
  <style>
    .st0{fill:#fff}
  </style>
  <path class="st0" d="M83 53l-2 1a2 2 0 0 1-4 0l-1-1-2 1a5 5 0 0 0 10 0l-1-1z"/>
  <path class="st0" d="M96 53l-4-1-1-1a27 27 0 0 0-6-11v-8c0-4 0-6-2-7-1 0-3-2-16 4l-1 1-3-1 2-7-2-2-1 2a17 17 0 0 1-11 15H39a17 17 0 1 1 21-24l2 1 1-2-4-5c-4-4-9-6-14-6S35 3 31 7s-6 9-6 14a20 20 0 0 0 10 17l-3 1-1 1c0 1 1 2 2 1a39 39 0 0 1 25 0l1-1-1-1-2-1a20 20 0 0 0 6-6 248 248 0 0 1 2 0v9c1 3 2 5 4 6l7 2 5-1c1-1 3-2 4-5a24 24 0 0 1 4 9l3 3 4 1 2 2v7l-2 3-6 2-3 2c-2 4-7 8-12 11l-1 1-2 12h-8l-2-7c0-1-1-2-2-1a62 62 0 0 1-16 0l-2 2-2 6h-7-1l-2-11-1-2c-9-5-14-13-14-24 0-5 1-10 3-14 3-4 6-7 10-9a1 1 0 1 0-2-3c-8 5-12 12-14 21l-1-3c0-2-2-3-4-4l-4 2-1 4c1 2 3 3 6 4l-6 3-1 1 1 2h1c2 0 4-1 7-4l1-2h1v2c0 7 1 12 4 17l11 10 2 10c1 2 2 3 4 3h7c2 0 3-1 3-3l1-5a62 62 0 0 0 16 0l1 5c0 2 2 3 3 3h7c2 0 3-1 4-3l2-11c5-3 10-7 13-12l1-1 6-2c2 0 4-2 4-5v-7c0-2-2-4-4-5zM82 36c0 5-2 9-3 10-2 1-6 1-9-1-3-3-4-7-3-12l1-1a42 42 0 0 1 14-4v8zM4 52l1-1v-1h1l2 2v2l-4-2z"/>
  <path class="st0" d="M46 19v-5l4 1 1-2-5-1v-1-1l-1 1v1c-2 0-5 1-5 4 0 4 3 5 5 5v6l-4-1-1 1c0 1 2 3 5 3v1h1v-1c3 0 5-2 5-5 0-4-2-5-5-6zm-1 0c-1-1-2-1-2-3l2-2v5zm1 8v-5c2 1 3 1 3 3 0 1-1 2-3 2z"/>
</svg>
