<svg version="1" id="Layer_1" xmlns="http://www.w3.org/2000/svg" viewBox="0 0 100 100">
  <style>
    .st0{fill:#fff}
  </style>
  <path class="st0" d="M72 70H60L50 81 40 70H28C14 70 3 81 3 95v3l2 2 2-2v-3c0-12 9-22 21-22h10l11 12h2l11-12h10c12 0 21 10 21 22v3a2 2 0 1 0 4 0v-3c0-14-11-25-25-25zM80 23c-1-5-4-9-7-12C67 4 59 0 50 0S33 4 27 10c-11 10-7 33-7 35s1 6-2 8l-5 2c-1 0-2 1-1 2v1c3 3 8 5 13 6l2-1 1-2-2-1c-3 1-7 0-10-3l3-1c4-2 5-6 4-11-1-9-2-25 6-32h1S38 3 50 3a30 30 0 0 1 21 10c3 3 5 7 5 11l2 1 2-2zM88 56l-1-1-5-2a2 2 0 0 0-1 3l3 1c-3 3-7 4-10 3a2 2 0 1 0-1 3l2 1c5-1 10-3 13-6v-2z"/>
  <path class="st0" d="M80 30H67v-7l-2-1-2 1v7h-6v-7l-2-1-2 1v7h-6v-7l-2-1-2 1v7h-6v-7l-2-1-2 1v7h-6l-2 2 1 14c1 14 10 24 24 24l11-2a2 2 0 0 0-2-3l-9 2c-12 0-20-9-21-22l-1-12h44l-1 12 1 2 2-1 1-13h5l2 2v10l-2 2-2 1 2 2c3 0 5-2 5-5V35c0-3-2-5-5-5z"/>
  <path class="st0" d="M78 37l-1 1c0 10-9 19-19 19a7 7 0 1 0 0 3c12 0 22-10 22-22l-2-1zM52 62a3 3 0 1 1 0-7 3 3 0 0 1 0 7z"/>
</svg>
