<svg xmlns="http://www.w3.org/2000/svg" version="1" viewBox="0 0 428 428" width="512" height="512">
  <path d="M298 45a40 40 0 1 0 0 81 40 40 0 0 0 0-81zm0 68a28 28 0 1 1 0-56 28 28 0 0 1 0 56zM216 254l-33 10c-4 1-6-1-5-5l5-16c2-3 0-7-3-8s-7 1-8 5l-8 23c-1 4-5 8-9 9l-13 4c-3 1-6-1-5-5l9-43c0-4 3-9 5-13l1-2c3-3 7-7 11-7l50-8c4-1 6-4 6-7s-4-6-8-5l-39 6c-4 1-5-1-3-5l12-17c2-3 2-8-1-9-3-2-7-1-9 2l-26 39c-2 3-5 3-7 0l-13-19c-2-4-6-5-8-3-3 2-4 6-2 9l16 25c2 3 3 9 3 13l-15 73c-1 4-3 5-5 1l-31-49c-2-3-2-9-1-12l13-25c2-4 1-8-2-9s-7 0-9 3l-9 18c-2 4-4 4-6 0l-8-14c-2-3-6-5-9-3s-4 6-2 9l12 21a1878 1878 0 0 1 8 13l7 12c2 3 0 6-3 7l-24 3c-4 1-7 4-6 7 0 3 4 5 8 5l29-4c3-1 8 1 10 5l19 29 3 6v86c0 3-3 7-7 7H68c-4 0-7 2-7 6 0 3 3 6 7 6h104c4 0 7-3 7-6 0-4-3-6-7-6h-37c-4 0-7-4-7-7v-74c0-4 3-7 7-8l51-7c3 0 6-4 6-7-1-3-4-5-8-5l-49 7c-4 1-7-2-6-6l2-11c1-4 5-8 9-9l80-24c4-1 6-4 5-7s-5-5-9-4zM298 36c4 0 6-2 6-6V6a6 6 0 0 0-12 0v24c0 4 3 6 6 6zM298 134c-3 0-6 3-6 6v25a6 6 0 0 0 12 0v-25c0-3-2-6-6-6zM255 51a6 6 0 0 0 9 0c2-3 2-6 0-9l-14-14a6 6 0 1 0-9 9l14 14zM342 120a6 6 0 1 0-9 9l14 14a6 6 0 0 0 9 0c2-3 2-7 0-9l-14-14zM219 91h24a6 6 0 0 0 0-12h-24a6 6 0 0 0 0 12zM378 79h-25a6 6 0 0 0 0 12h25a6 6 0 0 0 0-12zM337 53l5-2 14-14a6 6 0 1 0-9-9l-14 14a6 6 0 0 0 4 11zM255 120l-14 14a6 6 0 1 0 9 9l14-14a6 6 0 1 0-9-9z" data-original="#000000" class="active-path" data-old_color="#FF0068" fill="#FDFDFD"/>
</svg>
