<svg xmlns="http://www.w3.org/2000/svg" version="1" viewBox="0 0 474 474" width="512" height="512">
  <path d="M467 279c-5-1-11 1-12 7-5 13-14 20-27 20-12 0-24-9-29-22l22-58c2-6 1-14-4-19l-77-81c-4-4-11-7-17-6l-111 12c-6 0-13 5-15 11l-55 149c-6 9-15 14-24 14-14 0-22-7-27-20a10 10 0 0 0-19 6c8 22 24 34 46 34 15 0 29-7 38-19 10 12 24 19 39 19s29-7 39-19c10 12 24 19 39 19s29-7 39-19c9 12 23 19 39 19 15 0 29-7 38-19 10 12 24 19 39 19 22 0 38-12 46-34 1-5-1-11-7-13zm-194 27c-12 0-23-8-28-20l17-45 48 18-9 27c-5 12-16 20-28 20zm78 0c-13 0-24-8-29-21l7-20c3-10-2-21-11-24l-50-19a19 19 0 0 0-25 12l-19 49c-4 14-16 23-29 23-12 0-24-9-29-22l49-133 110-11h1l76 80-27 72c-6 9-15 14-24 14zM396 347c-5-1-11 1-13 7-5 13-13 20-26 20s-25-9-30-23c-1-4-5-7-9-7-5 0-8 3-10 7-5 14-16 23-29 23s-25-9-29-23c-2-4-6-7-10-7s-8 3-10 7c-4 14-16 23-29 23-12 0-24-9-29-23a10 10 0 0 0-10-7c-4 0-8 3-9 7-5 14-17 23-29 23-13 0-25-9-30-23a10 10 0 0 0-9-7c-5 0-8 3-10 7-5 14-16 23-29 23s-22-7-27-20a10 10 0 0 0-18 6c7 22 23 34 45 34 15 0 29-7 39-19 9 12 24 19 39 19s29-7 38-19c10 12 24 19 39 19s30-7 39-19c10 12 24 19 39 19s29-7 39-19c9 12 24 19 39 19 21 0 38-12 45-34 2-5-1-11-6-13z" data-original="#000000" class="active-path" data-old_color="#FBF8F8" fill="#FBFAFA"/>
  <path d="M194 115l146-15h1l101 106a10 10 0 0 0 14 0c4-3 4-10 0-14L355 86c-4-4-11-6-17-6L192 95a10 10 0 1 0 2 20z" data-original="#000000" class="active-path" data-old_color="#FBF8F8" fill="#FBFAFA"/>
</svg>
