<svg version="1" id="Layer_1" xmlns="http://www.w3.org/2000/svg" viewBox="0 0 100 100">
  <style>
    .st0{fill:#fff}
  </style>
  <path class="st0" d="M83 16a2 2 0 1 0 0 4 2 2 0 0 0 0-4z"/>
  <path class="st0" d="M93 14c-5-5-11-8-18-8-8 0-15 3-21 9l-4 5-4-5c-6-6-13-9-21-9C10 6 0 18 0 33c0 20 21 37 49 61a2 2 0 0 0 2 0c28-24 49-41 49-61 0-7-2-14-7-19zM50 90C24 67 4 51 4 33c0-13 9-23 21-23 7 0 13 2 18 7l5 8 2 1 2-1 5-8c5-5 11-7 18-7 12 0 21 10 21 23 0 18-21 35-46 57z"/>
  <path class="st0" d="M90 23l-3-1-1 3c2 2 2 5 2 8 0 6-2 12-8 19v3l3-1c6-8 9-14 9-21l-2-10zM69 43H58V32l-2-2H44l-2 2v11H31l-2 2v12l2 2h11v11l2 2h12l2-2V59h11l2-2V45l-2-2zm-2 12H56l-2 2v11h-8V57l-2-2H33v-8h11l2-2V34h8v11l2 2h11v8z"/>
</svg>
