<svg version="1" id="Layer_1" xmlns="http://www.w3.org/2000/svg" viewBox="0 0 100 100">
  <style>
    .st0{fill:#fff}
  </style>
  <path class="st0" d="M77 54l-2-3a5 5 0 0 0-7 1 5 5 0 0 0-7 2 5 5 0 0 0-7 2l-5 8 1 2h1l1-1 5-8a2 2 0 0 1 2-1l-6 12-11 3-2-2v-1l5-5a6 6 0 0 0-8-8l-9 8-2 5v8l-2 3h-2c-1 1-2 1-2 3l-3 6 1 2 2-1 2-6 1-1h1l19 8 1 1-3 7 1 2 2-1 2-7c1-1 1-3-1-4l2-4 2-2 5-3a1 1 0 1 0-1-3l-6 3-3 3-1 4-16-6 1-3 1-2v-7l1-3 9-8a3 3 0 0 1 4 4l-5 4a5 5 0 0 0-1 6c1 2 4 3 6 2l16-4 4-3 7-12a2 2 0 0 1 4 1v2l-7 12-1 1-8 4a1 1 0 1 0 2 2l7-3 3-3 7-12v-4zM61 64l-2 2h-2l6-11a2 2 0 0 1 4 0l-6 9zM82 10l-2 1-2 6-1 1h-2l-18-8-1-1 3-7-1-2-2 1-3 7c0 1 0 3 2 4l-2 4-2 2-6 3a1 1 0 1 0 1 3l7-3 3-3 1-4 16 6-1 3-1 2v7l-1 3-9 8a3 3 0 0 1-4-4l5-4a5 5 0 0 0 1-6c-1-2-4-3-6-2l-16 4-4 3-7 12a2 2 0 0 1-4-1v-2l7-12 1-1 7-3a1 1 0 1 0-1-3l-7 3-3 3-7 12a5 5 0 0 0 2 7 5 5 0 0 0 4 1l3-2a5 5 0 0 0 4 1l3-3a5 5 0 0 0 4 1l3-3 5-8-1-2h-2l-5 9a2 2 0 0 1-2 1l6-12 11-2c1-1 2 0 2 1v1l-5 5a6 6 0 0 0 8 8l9-8 2-5v-7-1l1-3a4 4 0 0 0 3 0c1-1 2-1 2-3l3-6-1-2zM37 45a2 2 0 0 1-4 0l6-9 2-2h2l-6 11z"/>
</svg>
