<svg version="1" id="Layer_1" xmlns="http://www.w3.org/2000/svg" viewBox="0 0 100 100">
  <style>
    .st0{fill:#fff}
  </style>
  <g id="surface1">
    <path class="st0" d="M2 77h6l5 9v12l2 2h13l2-2v-3h23v3l2 2h13l2-2V86l4-7-3-1-4 6v13H57v-4l-1-1-1-1-5 1H33l-4-1a2 2 0 0 0-2 2v4H17V85l-1-1-5-9-2-2H3V63h6l2-1 5-9 1-2V40c3 1 5 3 6 6a2 2 0 0 0 2 1l7-2v-3l-7 1c-2-4-6-6-10-6l-2 1v13l-5 9H2l-2 2v13l2 2z"/>
    <path class="st0" d="M17 63a5 5 0 1 0 10 0 5 5 0 0 0-10 0zm6 0a2 2 0 1 1-1-1l1 1zM98 10c-10 0-21-3-29-9l-1-1h-2l-1 1c-9 6-19 9-30 9l-2 2v20c0 20 14 38 33 45h1c20-7 33-25 33-45V12l-2-2zm-1 22c0 19-12 35-30 41-18-6-30-22-30-41V13c10 0 21-3 29-9h1c9 6 19 9 30 9v19z"/>
    <path class="st0" d="M66 8c-8 5-16 7-25 8l-1 2v14c0 17 10 32 26 38h1c16-6 26-21 26-38V18l-1-2c-9-1-17-3-24-8h-2zm24 11v13c0 15-9 29-23 34-14-5-24-19-24-34V19c9-1 16-3 24-7 7 4 15 6 23 7z"/>
    <path class="st0" d="M65 17h3v3h-3v-3zM65 58h3v4h-3v-4zM47 23h3v4h-3v-4zM55 20h3v3h-3v-3zM83 23h4v4h-4v-4zM47 33h3v4h-3v-4zM83 33h4v4h-4v-4zM50 43h3v4h-3v-4zM80 43h3v4h-3v-4zM57 53h3v4h-3v-4zM73 53h4v4h-4v-4zM75 20h3v3h-3v-3z"/>
  </g>
</svg>
