<svg xmlns="http://www.w3.org/2000/svg" height="512" viewBox="-9 0 512 512" width="512">
  <g fill-rule="evenodd">
    <path d="M485 230h-66c-4 0-34-3-63-16-33-15-50-36-50-64 0-47 19-60 28-64s18-3 24 3c5 5 6 11 3 19-2 5-5 7-8 9-4 3-11 9-10 19 1 8 5 14 12 16 12 6 30 0 46-14 15-13 22-41 17-69-5-29-22-51-46-61-55-22-108 5-137 41l-24 33a10 10 0 0 0 17 11l23-32c24-30 68-53 113-35 25 10 32 33 34 46 4 23-2 44-10 51-12 10-21 12-24 11l2-1c4-3 9-8 13-17 6-16 4-31-7-41a42 42 0 0 0-46-7c-12 5-40 23-40 82 0 36 21 64 62 83 29 13 61 17 71 17h56v45c-7 19-37 33-69 33-34 0-64-15-70-34a10 10 0 0 0-19 0c-6 19-36 34-69 34s-63-15-69-34c-2-4-6-7-10-7s-8 3-9 7c-7 19-36 34-70 34-33 0-63-15-69-34l-1-2v-42c22-2 46-7 68-16 28-10 51-25 68-43l27-31a10 10 0 0 0-16-12l-26 29c-29 31-83 53-131 53-6 0-10 4-10 10v262c0 6 4 10 10 10h475c5 0 10-4 10-10V240c0-6-5-10-10-10zM90 348c34 0 63-12 79-31 16 19 45 31 79 31s63-12 79-31c15 19 45 31 79 31 27 0 52-8 69-21v64l-1 2c-6 19-36 34-70 34-33 0-63-15-69-34a10 10 0 0 0-19 0c-6 19-36 34-69 34-34 0-64-15-70-34-1-4-5-7-9-7-5 0-8 3-10 7-6 19-36 34-69 34s-62-14-69-33v-68c17 13 42 22 70 22zM20 492v-66c17 13 41 21 69 21 34 0 63-12 79-31 15 19 45 31 79 31 33 0 63-12 79-31 15 19 45 31 78 31 29 0 54-9 71-22v67zm0 0" data-original="#000000" class="active-path" data-old_color="#FCFAFA" fill="#FDFBFB"/>
    <path d="M198 131a10 10 0 1 0 0-20 10 10 0 0 0 0 20zm0 0" data-original="#000000" class="active-path" data-old_color="#FCFAFA" fill="#FDFBFB"/>
  </g>
</svg>
