<svg version="1" id="Layer_1" xmlns="http://www.w3.org/2000/svg" viewBox="0 0 100 100">
  <style>
    .st0{fill:#fff}
  </style>
  <path class="st0" d="M91 17C77 14 63 8 51 0h-2C36 8 23 13 9 17l-2 2v22c0 22 11 37 19 45 9 9 20 14 24 14s15-5 24-14c8-8 19-23 19-45V19l-2-2zm-3 24a58 58 0 0 1-38 55c-2 0-12-4-21-13-8-8-17-22-17-42V21c13-4 26-9 38-16 12 7 25 12 38 16v20z"/>
  <path class="st0" d="M31 21l-2-2-12 5-1 2v8l2 2 2-2v-7l10-4c1 0 2-1 1-2zM35 21h1a2 2 0 1 0-1-4c-2 0-2 2-2 3l2 1zM75 68h-3a52 52 0 0 1-12 13 2 2 0 1 0 3 4 59 59 0 0 0 13-14l-1-3zM55 85l-1 3a2 2 0 0 0 3 0c1 0 2-2 1-3h-3zM36 46a7 7 0 0 0-10 0c-3 2-3 7 0 9l12 13a7 7 0 0 0 10 0l26-26a7 7 0 0 0-10-10L43 53l-7-7zm31-11l2-1 2 1v4L45 65l-2 1-2-1-12-13v-3l2-1 2 1 9 9a2 2 0 0 0 3 0l22-23z"/>
</svg>
