<svg xmlns="http://www.w3.org/2000/svg" height="512" viewBox="0 0 480 480" width="512">
  <path d="M128 78l-7-15a175 175 0 0 0-96 211l15-5c-23-77 14-159 88-191zm0 0M147 140l-8-14a112 112 0 0 0-56 118l16-3-2-15c-1-36 18-69 50-86zm0 0" data-original="#000000" class="active-path" data-old_color="#FCFAFA" fill="#FFFEFE"/>
  <path d="M137 109l-7-15c-62 30-94 100-76 166l15-4c-15-59 13-121 68-147zm0 0M370 237c6-88-55-167-141-184l-3 16c78 15 133 87 128 167zm0 0M244 125c-5-3-11-5-16-6l-5 15 14 5c32 16 53 49 53 85h16c-1-42-25-80-62-99zm0 0" data-original="#000000" class="active-path" data-old_color="#FCFAFA" fill="#FFFEFE"/>
  <path d="M338 230c3-68-44-129-111-145l-3 16c59 14 100 68 98 129zm0 0" data-original="#000000" class="active-path" data-old_color="#FCFAFA" fill="#FFFEFE"/>
  <path d="M225 480h255v-16h-24v-85l-64-37-64 37v85H225l-3-65c42-7 80-29 106-62l-12-10c-24 29-57 49-94 56l-1-17c31-6 59-22 79-46l-12-10c-17 20-41 34-67 40l-1-16a112 112 0 0 0 51-29l-12-11a93 93 0 0 1-39 23l-3-60 157 69c3 1 5 2 8 1a18 18 0 0 0 15-28c-17-23-40-40-68-48l-104-30c-1-9-6-17-13-22V18a18 18 0 0 0-33-9c-15 24-21 53-17 80l15 108c-10 6-15 16-16 26L12 326a18 18 0 0 0 10 34h2c28-2 54-14 75-33l70-63-2 54-18-7-8 14c8 4 16 7 25 9l-1 17c-13-3-25-8-37-15l-8 14c14 8 29 14 45 17l-1 16c-20-3-39-11-56-21l-8 13c19 12 41 20 64 24l-3 65H0v16zm119-92l48-27 48 27v76h-96zM177 225a16 16 0 1 1 16 17c-9 0-16-8-16-17zm207 83v2c-1 1-2 2-3 1l-159-70 2-4 101 30c24 6 44 21 59 41zM192 192L178 87c-3-24 2-49 14-70l3-1 1 2v174zM88 315c-18 17-41 27-65 29l-2-1v-3l143-99 3 3zm97-58h16l3 64h-21zm-3 80a112 112 0 0 0 22 0l1 16h-24zm-1 32a145 145 0 0 0 24 0l1 16h-26zm-1 32a175 175 0 0 0 27 0l2 63h-32zm0 0" data-original="#000000" class="active-path" data-old_color="#FCFAFA" fill="#FFFEFE"/>
  <path d="M406 389l-12-11-32 32 32 16-16 16 12 11 32-31-32-16zm0 0" data-original="#000000" class="active-path" data-old_color="#FCFAFA" fill="#FFFEFE"/>
</svg>
